<?xml version="1.0" encoding="utf-8"?>
<!-- Generator: Adobe Illustrator 28.4.1, SVG Export Plug-In . SVG Version: 6.00 Build 0)  -->
<svg version="1.1" id="Layer_1" xmlns="http://www.w3.org/2000/svg" xmlns:xlink="http://www.w3.org/1999/xlink" x="0px" y="0px"
	 viewBox="0 0 152 151" style="enable-background:new 0 0 152 151;" xml:space="preserve">
<style type="text/css">
	.st0{fill:#85AFC9;}
	.st1{fill:url(#SVGID_1_);}
</style>
<g>
	<path class="st0" d="M78.8,13.1c1.5-1.5,3.9-1.3,5.1,0.4l6.9,9.7c0.9,1.2,2.4,1.7,3.8,1.2l11.3-4.1c2-0.7,4.1,0.5,4.4,2.6l1.9,11.7
		c0.2,1.5,1.5,2.6,3,2.8l12,1.1c2.1,0.2,3.5,2.2,2.9,4.2L126.8,54c-0.4,1.5,0.2,3,1.5,3.8l10.2,6.1c1.8,1.1,2.2,3.5,0.7,5.1l-8,8.8
		c-1,1.1-1.2,2.8-0.3,4.1l6.5,9.9c1.2,1.8,0.4,4.1-1.5,4.9l-11.1,4.5c-1.4,0.6-2.3,2-2.1,3.5l1.5,11.7c0.3,2.1-1.4,3.9-3.5,3.8
		l-12-0.7c-1.5-0.1-2.9,0.8-3.4,2.3l-3.8,11.3c-0.7,2-3,2.9-4.8,1.9l-10.5-5.8c-1.3-0.7-2.9-0.5-4,0.6l-8.4,8.6
		c-1.5,1.5-3.9,1.3-5.1-0.4l-6.9-9.7c-0.9-1.2-2.4-1.7-3.8-1.2l-11.3,4.1c-2,0.7-4.1-0.5-4.4-2.6l-1.9-11.7c-0.2-1.5-1.5-2.6-3-2.8
		l-12-1.1c-2.1-0.2-3.5-2.2-2.9-4.2l3.4-11.3c0.4-1.5-0.2-3-1.5-3.8l-10.2-6.1c-1.8-1.1-2.2-3.5-0.7-5.1l8-8.8
		c1-1.1,1.2-2.8,0.3-4.1l-6.5-9.9c-1.2-1.8-0.4-4.1,1.5-4.9l11.1-4.5c1.4-0.6,2.3-2,2.1-3.5l-1.5-11.7c-0.3-2.1,1.4-3.9,3.5-3.8
		l12,0.7c1.5,0.1,2.9-0.8,3.4-2.3l3.8-11.3c0.7-2,3-2.9,4.8-1.9l10.5,5.8c1.3,0.7,2.9,0.5,4-0.6L78.8,13.1z"/>
</g>
<g>
	
		<linearGradient id="SVGID_1_" gradientUnits="userSpaceOnUse" x1="80.8633" y1="134.1511" x2="71.854" y2="17.2512" gradientTransform="matrix(1 0 0 -1 0 151.2756)">
		<stop  offset="0" style="stop-color:#3FEEFF"/>
		<stop  offset="1" style="stop-color:#6F43FA"/>
	</linearGradient>
	<path class="st1" d="M78.3,20c1.5-1.5,3.9-1.3,5.1,0.4l5.8,8.1c0.9,1.2,2.4,1.7,3.8,1.2l9.5-3.4c2-0.7,4.1,0.5,4.4,2.6l1.6,9.8
		c0.2,1.5,1.5,2.6,3,2.8l10,1c2.1,0.2,3.5,2.2,2.9,4.2l-2.8,9.5c-0.4,1.5,0.2,3,1.5,3.8l8.5,5.1c1.8,1.1,2.2,3.5,0.7,5.1l-6.7,7.3
		c-1,1.1-1.2,2.8-0.3,4.1l5.4,8.2c1.2,1.8,0.4,4.1-1.5,4.9l-9.2,3.7c-1.4,0.6-2.3,2-2.1,3.5l1.3,9.8c0.3,2.1-1.4,3.9-3.5,3.8
		l-10-0.6c-1.5-0.1-2.9,0.8-3.4,2.3l-3.2,9.4c-0.7,2-3,2.9-4.8,1.9l-8.8-4.9c-1.3-0.7-2.9-0.5-4,0.6l-7,7.2
		c-1.5,1.5-3.9,1.3-5.1-0.4l-5.8-8.1c-0.9-1.2-2.4-1.7-3.8-1.2l-9.5,3.4c-2,0.7-4.1-0.5-4.4-2.6l-1.6-9.8c-0.2-1.5-1.5-2.6-3-2.8
		l-10-1c-2.1-0.2-3.5-2.2-2.9-4.2l2.8-9.5c0.4-1.5-0.2-3-1.5-3.8l-8.5-5.1c-1.8-1.1-2.2-3.5-0.7-5.1l6.7-7.3c1-1.1,1.2-2.8,0.3-4.1
		L22,61.5c-1.2-1.8-0.4-4.1,1.5-4.9l9.2-3.7c1.4-0.6,2.3-2,2.1-3.5l-1.3-9.8c-0.3-2.1,1.4-3.9,3.5-3.8l10,0.6
		c1.5,0.1,2.9-0.8,3.4-2.3l3.2-9.4c0.7-2,3-2.9,4.8-1.9l8.8,4.9c1.3,0.7,2.9,0.5,4-0.6L78.3,20z"/>
</g>
</svg>
