<?xml version="1.0" encoding="utf-8"?>
<!-- Generator: Adobe Illustrator 28.4.1, SVG Export Plug-In . SVG Version: 6.00 Build 0)  -->
<svg version="1.1" id="Layer_1" xmlns="http://www.w3.org/2000/svg" xmlns:xlink="http://www.w3.org/1999/xlink" x="0px" y="0px"
	 viewBox="0 0 200 200" style="enable-background:new 0 0 200 200;" xml:space="preserve">
<style type="text/css">
	.st0{fill:url(#SVGID_1_);}
</style>
<g>
	
		<linearGradient id="SVGID_1_" gradientUnits="userSpaceOnUse" x1="104.6431" y1="164.0754" x2="90.7908" y2="-15.6611" gradientTransform="matrix(1 0 0 -1 0 201.2756)">
		<stop  offset="0" style="stop-color:#514CFF"/>
		<stop  offset="1" style="stop-color:#FB46D8"/>
	</linearGradient>
	<path class="st0" d="M173.2,83.4c-0.9-1.7-1.5-3.6-1.5-5.5l-0.6-15.2c-0.2-2.2-1.2-4.1-3.1-5.3l-12.9-8.3c-1.6-1.1-3-2.4-4.1-4.1
		l-8.3-12.9c-1.1-1.9-3.2-3-5.3-3.1l-15.3-0.6c-1.9-0.1-3.8-0.6-5.5-1.5L103,19.7c-1-0.5-2-0.7-3.1-0.7c-1.1,0-2.1,0.2-3.1,0.7
		l-13.6,7.1c-1.7,0.9-3.6,1.5-5.5,1.5l-15.3,0.6c-2.2,0.2-4.1,1.2-5.3,3.1l-8.2,13c-1.1,1.6-2.4,3-4.1,4.1l-13,8.3
		c-1.9,1.1-3,3.2-3.1,5.3l-0.6,15.3c-0.1,1.9-0.6,3.8-1.5,5.5L19.5,97c-1.1,1.9-1.1,4.2,0,6.2l7.1,13.6c0.9,1.7,1.5,3.6,1.5,5.5
		l0.6,15.3c0.2,2.2,1.2,4.1,3.1,5.3l1,0.6l3.4,2.2l3.4,2.2l5.2,3.2c1.6,1.1,3,2.4,4.1,4.1l8.3,12.9c1.1,1.9,3.2,3,5.3,3.1l15.3,0.6
		c1.9,0.1,3.8,0.6,5.5,1.5l0.8,0.4l12.7,6.6c1,0.5,2,0.7,3.1,0.7s2.1-0.2,3.1-0.7l9-4.7l4.6-2.4c0.3-0.2,0.6-0.3,1.1-0.5
		c1.5-0.6,2.9-1,4.5-1.1h0.3l15-0.6c2.2-0.2,4.1-1.2,5.3-3.1l8.3-12.9c1.1-1.6,2.4-3,4.1-4.1l2.9-1.9l10-6.3c1.9-1.1,3-3.2,3.1-5.3
		l0.6-15.3c0.1-1.9,0.6-3.8,1.5-5.5l7.1-13.6c1.1-1.9,1.1-4.2,0-6.2L173.2,83.4z"/>
</g>
</svg>
