<svg width="274" height="273" viewBox="0 0 274 273" xmlns="http://www.w3.org/2000/svg">
<g filter="url(#filter0_d_1327_48871)">
	<path d="M257.8,109c-1.5-2.8-2.3-5.9-2.4-9.1l-1.1-25.2c-0.2-3.6-2.1-6.8-5.1-8.7l-21.3-13.6c-2.7-1.7-5-4-6.7-6.7
	l-13.6-21.3c-1.9-3-5.2-4.9-8.7-5.1l-25.2-1.1c-3.2-0.1-6.3-1-9.1-2.4L142.1,4.1c-1.6-0.8-3.3-1.2-5-1.2c-1.7,0-3.5,0.4-5,1.2
	l-22.4,11.6c-2.8,1.5-5.9,2.3-9.1,2.4l-25.2,1.1c-3.6,0.2-6.8,2.1-8.7,5.1L52.9,45.7c-1.7,2.7-4,5-6.7,6.7L24.9,65.9
	c-3,1.9-4.9,5.2-5.1,8.7l-1.1,25.2c-0.1,3.2-1,6.3-2.4,9.1L4.7,131.5c-1.7,3.1-1.7,6.9,0,10.1L16.3,164c1.5,2.8,2.3,5.9,2.4,9.1
	l1.1,25.2c0.2,3.6,2.1,6.8,5.1,8.7l1.6,1l5.6,3.5l5.6,3.5l8.5,5.4c2.7,1.7,5,4,6.7,6.7l13.6,21.3c1.9,3,5.2,4.9,8.7,5.1l25.2,1.1
	c3.2,0.1,6.3,1,9.1,2.4l1.4,0.7l21,10.9c1.6,0.8,3.3,1.2,5,1.2c1.7,0,3.5-0.4,5-1.2l14.8-7.7l7.6-3.9c0.6-0.3,1.1-0.6,1.7-0.8
	c2.4-1,4.9-1.5,7.4-1.7l0.6,0l24.7-1.1c3.6-0.2,6.8-2.1,8.7-5.1l13.6-21.3c1.7-2.7,4-5,6.7-6.7l4.8-3.1l16.4-10.5
	c3-1.9,4.9-5.2,5.1-8.7l1.1-25.2c0.1-3.2,1-6.3,2.4-9.1l11.6-22.4c1.7-3.1,1.7-6.9,0-10.1L257.8,109z" fill="#FFFFFF"/>
</g>
<g filter="url(#filter1_d_1327_48871)">
	<path d="M244.6,112c-1.3-2.5-2.1-5.3-2.2-8.1l-1-22.4c-0.2-3.2-1.8-6.1-4.5-7.8l-19-12.1c-2.4-1.5-4.4-3.6-6-6
	l-12.1-19c-1.7-2.7-4.6-4.4-7.8-4.5l-22.5-1c-2.8-0.1-5.6-0.9-8.1-2.2l-20-10.4c-1.4-0.7-3-1.1-4.5-1.1s-3.1,0.4-4.5,1.1l-20,10.4
	c-2.5,1.3-5.3,2.1-8.1,2.2l-22.5,1c-3.2,0.2-6.1,1.8-7.8,4.5l-12.1,19c-1.5,2.4-3.6,4.4-6,6l-19,12.1c-2.7,1.7-4.4,4.6-4.5,7.8
	l-1,22.5c-0.1,2.8-0.9,5.6-2.2,8.1l-10.4,20c-1.5,2.8-1.5,6.2,0,9l10.4,20c1.3,2.5,2.1,5.3,2.2,8.1l1,22.5c0.2,3.2,1.8,6.1,4.5,7.8
	l1.4,0.9l5,3.2l5,3.2l7.6,4.8c2.4,1.5,4.4,3.6,6,6l12.1,19c1.7,2.7,4.6,4.4,7.8,4.5l22.5,1c2.8,0.1,5.6,0.9,8.1,2.2l1.2,0.6
	l18.7,9.7c1.4,0.7,3,1.1,4.5,1.1c1.5,0,3.1-0.4,4.5-1.1l13.2-6.9l6.8-3.5c0.5-0.3,1-0.5,1.6-0.7c2.1-0.9,4.3-1.4,6.6-1.5l0.5,0l22-1
	c3.2-0.2,6.1-1.8,7.8-4.5l12.1-19c1.5-2.4,3.6-4.4,6-6l4.3-2.7l14.6-9.3c2.7-1.7,4.4-4.6,4.5-7.8l1-22.5c0.1-2.8,0.9-5.6,2.2-8.1
	l10.4-20c1.5-2.8,1.5-6.2,0-9L244.6,112z" fill="url(#paint0_linear_1327_48871)"/>
</g>
<defs>
<filter id="filter0_d_1327_48871" x="0.540283" y="0.563263" width="272.474" height="271.721" filterUnits="userSpaceOnUse" color-interpolation-filters="sRGB">
<feFlood flood-opacity="0" result="BackgroundImageFix"/>
<feColorMatrix in="SourceAlpha" type="matrix" values="0 0 0 0 0 0 0 0 0 0 0 0 0 0 0 0 0 0 127 0" result="hardAlpha"/>
<feOffset/>
<feGaussianBlur stdDeviation="10.6825"/>
<feComposite in2="hardAlpha" operator="out"/>
<feColorMatrix type="matrix" values="0 0 0 0 0 0 0 0 0 0 0 0 0 0 0 0 0 0 0.25 0"/>
<feBlend mode="normal" in2="BackgroundImageFix" result="effect1_dropShadow_1327_48871"/>
<feBlend mode="normal" in="SourceGraphic" in2="effect1_dropShadow_1327_48871" result="shape"/>
</filter>
<filter id="filter1_d_1327_48871" x="7.60634" y="7.60428" width="258.342" height="257.639" filterUnits="userSpaceOnUse" color-interpolation-filters="sRGB">
<feFlood flood-opacity="0" result="BackgroundImageFix"/>
<feColorMatrix in="SourceAlpha" type="matrix" values="0 0 0 0 0 0 0 0 0 0 0 0 0 0 0 0 0 0 127 0" result="hardAlpha"/>
<feOffset/>
<feGaussianBlur stdDeviation="10.6825"/>
<feComposite in2="hardAlpha" operator="out"/>
<feColorMatrix type="matrix" values="0 0 0 0 0 0 0 0 0 0 0 0 0 0 0 0 0 0 0.25 0"/>
<feBlend mode="normal" in2="BackgroundImageFix" result="effect1_dropShadow_1327_48871"/>
<feBlend mode="normal" in="SourceGraphic" in2="effect1_dropShadow_1327_48871" result="shape"/>
</filter>
<linearGradient id="paint0_linear_1327_48871" x1="145.3" y1="248.4" x2="128.2" y2="26.8" gradientTransform="translate(0 274) scale(1 -1)" gradientUnits="userSpaceOnUse">
      <stop offset="0" stop-color="#d7263d"></stop>
      <stop offset="1" stop-color="#d7263d"></stop>
    </linearGradient>
</defs>
</svg>
