<?xml version="1.0" encoding="utf-8"?>
<!-- Generator: Adobe Illustrator 28.4.1, SVG Export Plug-In . SVG Version: 6.00 Build 0)  -->
<svg version="1.1" id="Layer_1" xmlns="http://www.w3.org/2000/svg" xmlns:xlink="http://www.w3.org/1999/xlink" x="0px" y="0px"
	 viewBox="0 0 152 151" style="enable-background:new 0 0 152 151;" xml:space="preserve">
<style type="text/css">
	.st0{fill:url(#SVGID_1_);}
</style>
<g>
	
		<linearGradient id="SVGID_1_" gradientUnits="userSpaceOnUse" x1="78.4128" y1="486.1211" x2="71.204" y2="579.6566" gradientTransform="matrix(1 0 0 1 0 -443.2756)">
		<stop  offset="0" style="stop-color:#FF54AD"/>
		<stop  offset="1" style="stop-color:#FB9346"/>
	</linearGradient>
	<path class="st0" d="M114.3,66.9c-0.5-0.9-0.7-1.9-0.7-2.9l-0.4-7.9c-0.1-1.1-0.7-2.1-1.6-2.7l-6.7-4.3c-0.9-0.5-1.6-1.3-2.1-2.1
		l-4.3-6.7c-0.6-1-1.7-1.6-2.7-1.6l-8-0.3c-1-0.1-2-0.3-2.9-0.7l-7.2-3.8c-0.5-0.3-1.1-0.4-1.6-0.4c-0.5,0-1.1,0.1-1.6,0.4l-7.1,3.7
		c-0.9,0.5-1.9,0.7-2.9,0.7l-8,0.3c-1.1,0.1-2.2,0.7-2.7,1.6l-4.4,6.8c-0.5,0.9-1.3,1.6-2.1,2.1l-6.8,4.3c-1,0.6-1.6,1.7-1.6,2.7
		l-0.3,8c-0.1,1-0.3,2-0.7,2.9L34.1,74c-0.5,1-0.5,2.2,0,3.2l3.7,7.1c0.5,0.9,0.7,1.9,0.7,2.9l0.3,8c0.1,1.1,0.7,2.1,1.6,2.7
		l0.5,0.3l1.8,1.1l1.8,1.1l2.7,1.7c0.9,0.5,1.6,1.3,2.1,2.1l4.3,6.7c0.6,1,1.7,1.6,2.7,1.6l8,0.3c1,0.1,2,0.3,2.9,0.7l0.4,0.2
		l6.6,3.4c0.5,0.3,1.1,0.4,1.6,0.4s1.1-0.1,1.6-0.4l4.7-2.5l2.4-1.2c0.2-0.1,0.3-0.2,0.5-0.3c0.7-0.3,1.5-0.5,2.3-0.5h0.2l7.8-0.3
		c1.1-0.1,2.2-0.7,2.7-1.6l4.3-6.7c0.5-0.9,1.3-1.6,2.1-2.1l1.5-1l5.2-3.3c1-0.6,1.6-1.7,1.6-2.7l0.3-8c0.1-1,0.3-2,0.7-2.9l3.7-7.1
		c0.5-1,0.5-2.2,0-3.2L114.3,66.9z"/>
</g>
</svg>
