<svg width="274" height="273" viewBox="0 0 274 273" xmlns="http://www.w3.org/2000/svg">
<g filter="url(#filter0_d_1327_48871)">
<path d="M141.262 23.736C143.884 21.0625 148.279 21.4012 150.439 24.4433L162.908 42.0001C164.467 44.1953 167.303 45.0756 169.842 44.1518L190.254 36.7226C193.78 35.4392 197.596 37.6606 198.21 41.3542L201.713 62.4339C202.158 65.1077 204.343 67.1444 207.044 67.4014L228.6 69.4536C232.352 69.8107 234.837 73.4973 233.762 77.113L227.699 97.5226C226.92 100.144 228.01 102.953 230.349 104.356L248.75 115.396C251.992 117.341 252.632 121.771 250.077 124.574L235.685 140.356C233.835 142.385 233.591 145.404 235.092 147.691L246.772 165.483C248.847 168.642 247.503 172.919 243.989 174.343L224.043 182.428C221.507 183.456 219.98 186.063 220.329 188.771L223.04 209.857C223.521 213.593 220.475 216.853 216.712 216.631L195.093 215.356C192.385 215.196 189.9 216.872 189.031 219.445L182.187 239.727C180.988 243.281 176.863 244.891 173.586 243.083L154.619 232.619C152.261 231.318 149.317 231.753 147.425 233.682L132.293 249.111C129.671 251.785 125.276 251.446 123.116 248.404L110.647 230.847C109.088 228.652 106.252 227.772 103.713 228.696L83.3012 236.125C79.7748 237.408 75.9587 235.187 75.3449 231.493L71.8416 210.413C71.3972 207.74 69.2119 205.703 66.5115 205.446L44.955 203.394C41.2031 203.037 38.7185 199.35 39.7926 195.734L45.8561 175.325C46.6348 172.704 45.5453 169.894 43.2059 168.491L24.8048 157.451C21.5628 155.506 20.9226 151.076 23.4784 148.274L37.8704 132.491C39.7204 130.463 39.9643 127.444 38.4628 125.157L26.7826 107.365C24.7084 104.205 26.0519 99.9285 29.5661 98.5041L49.5118 90.4197C52.0476 89.3919 53.5746 86.7842 53.2264 84.0763L50.5145 62.9904C50.0341 59.2549 53.0799 55.9946 56.8426 56.2165L78.4619 57.4919C81.1701 57.6517 83.6554 55.975 84.5235 53.4023L91.3677 33.12C92.5669 29.5661 96.6924 27.9568 99.9691 29.7646L118.936 40.2286C121.294 41.5298 124.238 41.0949 126.13 39.1656L141.262 23.736Z" fill="#212528"/>
</g>
<g filter="url(#filter1_d_1327_48871)">
<path d="M140.693 30.7768C143.316 28.1033 147.71 28.442 149.871 31.4841L161.188 47.4207C162.747 49.616 165.584 50.4963 168.122 49.5725L186.653 42.8281C190.179 41.5446 193.995 43.7661 194.609 47.4597L197.788 66.5847C198.232 69.2585 200.417 71.2951 203.118 71.5522L222.68 73.4145C226.432 73.7717 228.917 77.4582 227.843 81.0739L222.344 99.5813C221.566 102.202 222.655 105.012 224.994 106.415L241.684 116.428C244.926 118.373 245.566 122.803 243.01 125.605L229.962 139.915C228.112 141.944 227.868 144.963 229.369 147.25L239.959 163.381C242.033 166.54 240.69 170.817 237.176 172.242L219.085 179.574C216.55 180.602 215.023 183.21 215.371 185.917L217.83 205.038C218.31 208.774 215.265 212.034 211.502 211.812L191.882 210.655C189.174 210.495 186.689 212.171 185.821 214.744L179.611 233.146C178.412 236.699 174.287 238.309 171.01 236.501L153.791 227.002C151.433 225.7 148.49 226.135 146.598 228.065L132.861 242.07C130.239 244.744 125.845 244.405 123.684 241.363L112.367 225.426C110.808 223.231 107.971 222.351 105.432 223.275L86.9019 230.019C83.3755 231.302 79.5595 229.081 78.9456 225.387L75.7672 206.262C75.3228 203.589 73.1375 201.552 70.4371 201.295L50.8746 199.433C47.1228 199.075 44.6381 195.389 45.7123 191.773L51.2106 173.266C51.9893 170.645 50.8998 167.836 48.5604 166.432L31.8709 156.419C28.6289 154.474 27.9886 150.044 30.5444 147.242L43.5932 132.932C45.4433 130.903 45.6871 127.885 44.1856 125.597L33.5956 109.466C31.5214 106.307 32.8648 102.03 36.379 100.606L54.4695 93.2731C57.0053 92.2453 58.5323 89.6376 58.1841 86.9297L55.725 67.8091C55.2445 64.0736 58.2903 60.8133 62.0531 61.0352L81.6725 62.1926C84.3808 62.3524 86.866 60.6757 87.7341 58.103L93.9436 39.7016C95.1429 36.1477 99.2684 34.5383 102.545 36.3461L119.764 45.8456C122.122 47.1468 125.065 46.7119 126.957 44.7826L140.693 30.7768Z" fill="url(#paint0_linear_1327_48871)"/>
</g>
<defs>
<filter id="filter0_d_1327_48871" x="0.540283" y="0.563263" width="272.474" height="271.721" filterUnits="userSpaceOnUse" color-interpolation-filters="sRGB">
<feFlood flood-opacity="0" result="BackgroundImageFix"/>
<feColorMatrix in="SourceAlpha" type="matrix" values="0 0 0 0 0 0 0 0 0 0 0 0 0 0 0 0 0 0 127 0" result="hardAlpha"/>
<feOffset/>
<feGaussianBlur stdDeviation="10.6825"/>
<feComposite in2="hardAlpha" operator="out"/>
<feColorMatrix type="matrix" values="0 0 0 0 0 0 0 0 0 0 0 0 0 0 0 0 0 0 0.25 0"/>
<feBlend mode="normal" in2="BackgroundImageFix" result="effect1_dropShadow_1327_48871"/>
<feBlend mode="normal" in="SourceGraphic" in2="effect1_dropShadow_1327_48871" result="shape"/>
</filter>
<filter id="filter1_d_1327_48871" x="7.60634" y="7.60428" width="258.342" height="257.639" filterUnits="userSpaceOnUse" color-interpolation-filters="sRGB">
<feFlood flood-opacity="0" result="BackgroundImageFix"/>
<feColorMatrix in="SourceAlpha" type="matrix" values="0 0 0 0 0 0 0 0 0 0 0 0 0 0 0 0 0 0 127 0" result="hardAlpha"/>
<feOffset/>
<feGaussianBlur stdDeviation="10.6825"/>
<feComposite in2="hardAlpha" operator="out"/>
<feColorMatrix type="matrix" values="0 0 0 0 0 0 0 0 0 0 0 0 0 0 0 0 0 0 0.25 0"/>
<feBlend mode="normal" in2="BackgroundImageFix" result="effect1_dropShadow_1327_48871"/>
<feBlend mode="normal" in="SourceGraphic" in2="effect1_dropShadow_1327_48871" result="shape"/>
</filter>
<linearGradient id="paint0_linear_1327_48871" x1="145.725" y1="25.6465" x2="128.645" y2="247.263" gradientUnits="userSpaceOnUse">
<stop stop-color="#FF54AD"/>
<stop offset="1" stop-color="#FB9346"/>
</linearGradient>
</defs>
</svg>