<svg width="48" height="48" viewBox="0 0 48 48" fill="none" xmlns="http://www.w3.org/2000/svg">
<rect width="48" height="48" rx="24" fill="url(#paint0_linear_1487_6649)"></rect>
<path d="M24 12C21.6266 12 19.3066 12.7038 17.3332 14.0224C15.3598 15.3409 13.8217 17.2151 12.9135 19.4078C12.0052 21.6005 11.7676 24.0133 12.2306 26.3411C12.6936 28.6689 13.8365 30.8071 15.5147 32.4853C17.193 34.1635 19.3312 35.3064 21.6589 35.7694C23.9867 36.2324 26.3995 35.9948 28.5922 35.0866C30.7849 34.1783 32.6591 32.6402 33.9776 30.6668C35.2962 28.6935 36 26.3734 36 24C36 20.8174 34.7357 17.7652 32.4853 15.5147C30.2348 13.2643 27.1826 12 24 12ZM30.82 21.105L23.29 29.645C23.1685 29.7819 23.0211 29.8935 22.8564 29.9733C22.6916 30.0531 22.5128 30.0995 22.33 30.11H22.24C21.8989 30.1121 21.5693 29.9874 21.315 29.76L17.285 26.185C17.0079 25.939 16.8398 25.593 16.8177 25.2231C16.7957 24.8532 16.9215 24.4897 17.1675 24.2125C17.4135 23.9353 17.7595 23.7673 18.1294 23.7452C18.4993 23.7232 18.8629 23.849 19.14 24.095L22.14 26.74L28.745 19.24C28.9903 18.9622 29.336 18.7932 29.7059 18.7702C30.0758 18.7473 30.4397 18.8722 30.7175 19.1175C30.9953 19.3628 31.1643 19.7085 31.1873 20.0784C31.2102 20.4483 31.0853 20.8122 30.84 21.09L30.82 21.105Z" fill="#0E0619"></path>
<defs>
<linearGradient id="paint0_linear_1487_6649" x1="3.35102e-06" y1="48" x2="48" y2="9.07306e-06" gradientUnits="userSpaceOnUse">
<stop stop-color="#738EF5"></stop>
<stop offset="0.752534" stop-color="#B3AEFF"></stop>
</linearGradient>
</defs>
</svg>