<svg width="48" height="48" xmlns="http://www.w3.org/2000/svg" xmlns:svg="http://www.w3.org/2000/svg">
 <defs>
  <linearGradient id="paint0_linear_1487_6649" x1="0" x2="1" y1="1" y2="0">
   <stop stop-color="#738EF5"/>
   <stop offset="0.75" stop-color="#B3AEFF"/>
  </linearGradient>
 </defs>
 <g class="layer">
  <title>Layer 1</title>
  <rect fill="url(#paint0_linear_1487_6649)" height="48" id="svg_1" rx="24" width="48"/>
  <path d="m37,19.88c-0.5,-1.5 0.9,-4 0,-5.2c-0.9,-1.3 -3.7,-0.6 -4.9,-1.5c-1.3,-0.9 -1.7,-3.7 -3.1,-4.3c-1.4,-0.4 -3.4,1.5 -4.9,1.5s-3.5,-2.2 -4.9,-1.7c-1.5,0.5 -1.8,3.4 -3.1,4.3c-1.3,0.9 -4.1,0.4 -5,1.5s0.5,3.7 0,5.2c-0.5,1.5 -3.1,2.6 -3.1,4.3c0,1.5 2.6,2.7 3.1,4.3c0.5,1.5 -0.9,4 0,5.2c0.9,1.3 3.7,0.6 4.9,1.5c1.3,0.9 1.7,3.7 3.1,4.3c1.4,0.4 3.4,-1.5 4.9,-1.5c1.5,0 3.5,2.1 4.9,1.5c1.5,-0.5 1.8,-3.4 3.1,-4.3c1.3,-0.9 4,-0.4 4.9,-1.5c0.9,-1.2 -0.5,-3.7 0,-5.2c0.5,-1.4 3.1,-2.6 3.1,-4.3c0.1,-1.6 -2.6,-2.7 -3,-4.1zm-14.2,11.3l-6.8,-5.1l2.1,-2.7l4,3.1l7.4,-9.7l2.7,2.1l-9.4,12.3z" fill="#0E0619" id="svg_2"/>
 </g>
</svg>