<svg width="48" height="48" xmlns="http://www.w3.org/2000/svg" xmlns:svg="http://www.w3.org/2000/svg">
 <defs>
  <linearGradient id="paint0_linear_1487_6649" x1="0" x2="1" y1="1" y2="0">
   <stop stop-color="#738EF5"/>
   <stop offset="0.75" stop-color="#B3AEFF"/>
  </linearGradient>
 </defs>
 <g class="layer">
  <title>Layer 1</title>
  <rect fill="url(#paint0_linear_1487_6649)" height="48" id="svg_1" rx="24" width="48"/>
  <path d="m24,8c-8.8,0 -16,7.2 -16,16s7.2,16 16,16s16,-7.2 16,-16s-7.2,-16 -16,-16zm4.8,20.8c-0.5,0.5 -1.2,0.5 -1.7,0l-4,-4c-0.3,-0.3 -0.4,-0.5 -0.4,-0.8l0,-6.4c0,-0.7 0.5,-1.2 1.2,-1.2s1.2,0.5 1.2,1.2l0,5.9l3.6,3.6c0.6,0.5 0.6,1.3 0.1,1.7z" fill="#0E0619" id="svg_2"/>
 </g>
</svg>