<svg width="48" height="48" viewBox="0 0 48 48" fill="none" xmlns="http://www.w3.org/2000/svg">
<rect width="48" height="48" rx="24" fill="url(#paint0_linear_1487_6649)"></rect>
   <path d="m21,10.1l0,27.7c-4.7,-2.2 -9.9,-6.3 -9.9,-13.7l0,-2.8c0,-3.3 0,-6.3 0.2,-7.6c1.1,-0.6 4,-1.6 7.2,-2.7l0.9,-0.3c0.6,-0.3 1.1,-0.4 1.6,-0.6m3.1,-3.9c-1.4,0 -2.8,0.5 -5.8,1.4l-0.9,0.3c-5.5,1.9 -8.1,2.7 -8.8,3.8c-0.6,1 -0.6,3.8 -0.6,9.5l0,2.8c0,10.1 7.7,15 12.5,17c1.3,0.6 1.9,0.8 3.9,0.8l0,-35.6l-0.3,0z" fill="#0E0619"></path>
   <path d="m40,24l0,-2.8c0,-5.7 0,-8.5 -0.6,-9.5c-0.6,-0.9 -3.3,-1.9 -8.7,-3.8l-0.9,-0.3c-2.8,-0.9 -4.3,-1.4 -5.7,-1.4l0,35.6c1.9,0 2.5,-0.3 3.8,-0.8c4.5,-2 12.1,-6.9 12.1,-17z" fill="#0E0619"></path>
<defs>
<linearGradient id="paint0_linear_1487_6649" x1="3.35102e-06" y1="48" x2="48" y2="9.07306e-06" gradientUnits="userSpaceOnUse">
<stop stop-color="#738EF5"></stop>
<stop offset="0.752534" stop-color="#B3AEFF"></stop>
</linearGradient>
</defs>
</svg>