<?xml version="1.0"?>
<svg width="48" height="48" xmlns="http://www.w3.org/2000/svg" xmlns:svg="http://www.w3.org/2000/svg">
 <defs>
  <linearGradient id="paint0_linear_1487_6649" x1="0" x2="1" y1="1" y2="0">
   <stop stop-color="#738EF5"/>
   <stop offset="0.75" stop-color="#B3AEFF"/>
  </linearGradient>
 </defs>
 <g class="layer">
  <title>Layer 1</title>
  <rect fill="url(#paint0_linear_1487_6649)" height="48" id="svg_1" rx="24" width="48"/>
  <g id="svg_4">
   <path d="m12.45,9.1c0.5,-0.5 1.2,-0.8 2.6,-0.9c1.3,-0.2 3,-0.2 5.6,-0.2l7.1,0c2.6,0 4.3,0 5.6,0.1c1.3,0.1 2,0.5 2.6,0.9c0.5,0.5 0.8,1.2 0.9,2.4c0.2,1.4 0.2,3.2 0.2,5.6l0,12.6l-20.5,0c-1.5,0 -2.4,0 -3.4,0.3c-0.8,0.1 -1.5,0.5 -2.2,0.9l0,-13.8c0,-2.6 0,-4.3 0.1,-5.5c0.6,-1.3 0.8,-2 1.4,-2.4zm4.5,4.8c-0.7,0 -1.3,0.5 -1.3,1.3c0,0.7 0.5,1.3 1.3,1.3l14.3,0c0.7,0 1.3,-0.5 1.3,-1.3c0,-0.7 -0.5,-1.3 -1.3,-1.3l-14.3,0zm-1.3,7.5c0,-0.7 0.5,-1.3 1.3,-1.3l8.9,0c0.7,0 1.3,0.5 1.3,1.3c0,0.7 -0.5,1.3 -1.3,1.3l-8.9,0c-0.6,0 -1.3,-0.6 -1.3,-1.3z" fill="#0E0619" id="svg_2"/>
   <path d="m16.85,32.3c-1.7,0 -2.3,0 -2.8,0.1c-1.3,0.4 -2.3,1.2 -2.7,2.4c0,0.7 0.1,1.2 0.1,1.6c0.1,1.3 0.5,2 0.9,2.4c0.5,0.5 1.2,0.8 2.6,0.9c1.4,0.3 3.1,0.3 5.7,0.3l7.1,0c2.6,0 4.3,0 5.6,-0.1c1.3,-0.1 2,-0.5 2.6,-0.9c0.4,-0.4 0.7,-0.8 0.8,-1.5l-19.8,0c-0.7,0 -1.3,-0.5 -1.3,-1.3c0,-0.7 0.5,-1.3 1.3,-1.3l20,0c0,-0.8 0,-1.6 0,-2.6l-20.1,0l0,0z" fill="#0E0619" id="svg_3"/>
  </g>
 </g>
</svg>