<svg width="48" height="48" xmlns="http://www.w3.org/2000/svg" xmlns:svg="http://www.w3.org/2000/svg">
 <defs>
  <linearGradient id="paint0_linear_1487_6649" x1="0" x2="1" y1="1" y2="0">
   <stop stop-color="#738EF5"/>
   <stop offset="0.75" stop-color="#B3AEFF"/>
  </linearGradient>
 </defs>
 <g class="layer">
  <title>Layer 1</title>
  <rect fill="url(#paint0_linear_1487_6649)" height="48" id="svg_1" rx="24" width="48"/>
  <path d="m14.46,8.05c0.6,0 1.1,0.5 1.1,1.1l0,2.8l2.6,-0.5c2.5,-0.5 5,-0.3 7.3,0.7l0.6,0.2c2.1,0.8 4.5,1 6.7,0.5c0.9,-0.2 1.7,0.8 1.2,1.6l-1.9,3.1c-0.5,0.8 -0.8,1.3 -0.8,1.7c0,0.2 0,0.4 0,0.6c0.1,0.5 0.3,0.9 0.8,1.7l2.3,3.9c0.5,0.8 0,1.8 -0.8,2l-0.1,0c-2.6,0.7 -5.4,0.5 -7.9,-0.5c-2.3,-0.9 -4.9,-1.2 -7.3,-0.7l-2.6,0.5l0,12.1c0,0.6 -0.5,1.1 -1.1,1.1s-1.1,-0.4 -1.1,-1l0,-29.8c-0.1,-0.6 0.4,-1.1 1,-1.1z" fill="#0E0619" id="svg_2"/>
 </g>
</svg>