<svg width="48" height="48" xmlns="http://www.w3.org/2000/svg" xmlns:svg="http://www.w3.org/2000/svg">
 <defs>
  <linearGradient id="paint0_linear_1487_6649" x1="0" x2="1" y1="1" y2="0">
   <stop stop-color="#738EF5"/>
   <stop offset="0.75" stop-color="#B3AEFF"/>
  </linearGradient>
 </defs>
 <g class="layer">
  <title>Layer 1</title>
  <rect fill="url(#paint0_linear_1487_6649)" height="48" id="svg_1" rx="24" width="48"/>
  <g id="svg_6">
   <path class="st2" d="m18.7,9.05l-6.4,0c-1.9,0 -3.3,1.5 -3.3,3.3l0,6.3c0,1.9 1.5,3.3 3.3,3.3l6.4,0c1.9,0 3.3,-1.5 3.3,-3.3l0,-6.4c0,-1.8 -1.5,-3.2 -3.3,-3.2z" id="svg_2"/>
   <path class="st2" d="m35.7,9.05l-6.4,0c-1.9,0 -3.3,1.5 -3.3,3.3l0,6.3c0,1.9 1.5,3.3 3.3,3.3l6.4,0c1.9,0 3.3,-1.5 3.3,-3.3l0,-6.4c-0.1,-1.8 -1.5,-3.2 -3.3,-3.2z" id="svg_3"/>
   <path class="st2" d="m18.7,25.95l-6.4,0c-1.9,0 -3.3,1.5 -3.3,3.3l0,6.4c0,1.9 1.5,3.3 3.3,3.3l6.4,0c1.9,0 3.3,-1.5 3.3,-3.3l0,-6.4c0,-1.8 -1.5,-3.3 -3.3,-3.3z" id="svg_4"/>
   <path class="st2" d="m32.5,38.85c3.6,0 6.5,-2.9 6.5,-6.5s-2.9,-6.5 -6.5,-6.5s-6.5,2.9 -6.5,6.5s2.9,6.5 6.5,6.5z" id="svg_5"/>
  </g>
 </g>
</svg>