<?xml version="1.0" encoding="utf-8"?>
<!-- Generator: Adobe Illustrator 28.4.1, SVG Export Plug-In . SVG Version: 6.00 Build 0)  -->
<svg version="1.1" id="Layer_1" xmlns="http://www.w3.org/2000/svg" xmlns:xlink="http://www.w3.org/1999/xlink" x="0px" y="0px"
	 viewBox="0 0 500 500" style="enable-background:new 0 0 500 500;" xml:space="preserve">
<style type="text/css">
	.st0{display:none;}
	.st1{display:inline;}
	.st2{display:inline;fill:url(#SVGID_1_);}
	.st3{display:inline;fill:#ADBAFD;}
	.st4{opacity:0.25;}
	.st5{fill:none;}
	.st6{fill:none;stroke:#000000;stroke-width:15;stroke-linecap:round;stroke-linejoin:round;stroke-miterlimit:10;}
	.st7{display:none;fill:#4F3DD9;}
	.st8{display:none;fill:url(#SVGID_00000002359901651403395750000012475183018525668539_);}
	.st9{display:none;fill:#FFFFFF;}
	.st10{fill:#FFFFFF;}
	.st11{fill:url(#SVGID_00000052824234164056422080000017916744413674978182_);}
	.st12{fill:#ADBAFD;}
	.st13{fill:none;stroke:#ADBAFD;stroke-width:10;stroke-linecap:round;stroke-linejoin:round;stroke-miterlimit:10;}
</style>
<g id="Layer_2_00000025418897851936710020000011469239122627555487_" class="st0">
	<rect x="1" class="st1" width="500" height="500"/>
</g>
<g id="Layer_3">
	<g>
		<g>
			<path d="M464.5,71.6c0,5.5-44.5,15-51.9,22.4c-7.4,7.4-14.5,49.3-21.2,49.3l0,0c-6.8,0-13.8-41.9-21.2-49.3
				c-7.4-7.4-51.9-16.8-51.9-22.4l0,0c0-5.5,44.5-15,51.9-22.4c7.4-7.4,14.5-49.3,21.2-49.3c6.8,0,13.8,41.9,21.2,49.3
				C420,56.6,464.5,66.1,464.5,71.6"/>
		</g>
		<g id="Logo_00000150804461531869192040000017639274732398271142_" class="st0">
			<linearGradient id="SVGID_1_" gradientUnits="userSpaceOnUse" x1="59.871" y1="276.242" x2="440.8011" y2="276.242">
				<stop  offset="0" style="stop-color:#576FEA"/>
				<stop  offset="0.2119" style="stop-color:#576FEA"/>
				<stop  offset="0.4686" style="stop-color:#576FEA"/>
				<stop  offset="0.7314" style="stop-color:#5870EA"/>
				<stop  offset="1" style="stop-color:#5970EB"/>
			</linearGradient>
			<path class="st2" d="M250,477c-2.4-1-5.1-2.1-7.8-3.2c-16-6.4-38-15.1-47.8-24.9c-2.1-2.1-5.3-3.3-8.6-3.3
				c-1.3,0-2.7,0.2-3.8,0.7c-0.1,0-0.1,0-0.2,0.1c-12.2,4.5-25,6.8-38.1,6.8l0,0c-48.3,0-92-29.9-118.6-59.7
				c1.5-1.9,3.1-3.8,4.6-5.6c14.4-17.7,26.7-32.9,47.3-43.2c2.2-1.1,3.8-3.1,4.3-5.4c0.6-2.3,0.1-4.9-1.3-6.8
				C47.6,287.2,38.4,270.2,32,221.8c27.5-10.5,57.4-16.5,83.1-16.5c9.1,0,17.5,0.8,25.2,2.2c7.1,1.3,13.6,3.2,19.4,5.7
				c1,0.4,2.2,0.7,3.3,0.7c1.3,0,2.7-0.3,3.8-0.9c2.2-1.1,3.8-3.2,4.3-5.6c10.6-48.3,37.9-93.8,79-132c41.1,38.2,68.3,83.7,79,132
				c0.6,2.4,2.1,4.4,4.3,5.6c1.2,0.7,2.4,0.9,3.8,0.9c1.1,0,2.2-0.2,3.3-0.7c5.9-2.5,12.4-4.4,19.4-5.7c7.7-1.4,16.2-2.2,25.2-2.2
				c25.6,0,55.5,6,83.1,16.5c-6.4,48.5-15.6,65.4-47.8,110.7c-1.4,2-1.9,4.4-1.3,6.8c0.6,2.3,2.2,4.3,4.3,5.4
				c20.4,10.3,32.9,25.5,47.3,43.2c1.5,1.9,3.1,3.8,4.6,5.6c-26.6,29.7-70.3,59.7-118.6,59.7c-13.1,0-26-2.3-38.1-6.8
				c-0.1,0-0.1,0-0.2-0.1c-1.2-0.4-2.4-0.7-3.8-0.7c-3.3,0-6.5,1.2-8.6,3.3c-9.9,9.7-31.8,18.4-47.8,24.9
				C255.1,475,252.4,476,250,477z"/>
			<path class="st3" d="M250,86.8c36.7,35.9,61.1,78,70.8,122.4c1.1,4.9,4.2,8.9,8.6,11.2c2.3,1.2,5,1.9,7.6,1.9
				c2.2,0,4.4-0.4,6.5-1.3c5.2-2.2,11.2-4,17.7-5.2c7.2-1.3,15.2-2,23.8-2c22.8,0,49,5,73.9,13.7c-3,20.1-6.6,33.9-12.2,46.7
				c-6.6,15.2-16.3,30-33.3,53.7c-2.8,4-3.8,8.9-2.5,13.6s4.3,8.6,8.6,10.8c18.9,9.5,30.3,23.4,44.6,41l0.1,0.1
				c-12.9,13.5-27.8,25-43.7,33.8c-21.2,11.7-43.3,17.9-64,17.9c-12.2,0-24.1-2.1-35.2-6.3c-0.1,0-0.2-0.1-0.3-0.1
				c-2.1-0.7-4.2-1.1-6.5-1.1c-5.5,0-10.7,2.1-14.4,5.6c-8.7,8.5-30.6,17.3-45.2,23.1c-1.7,0.7-3.2,1.3-4.9,1.9
				c-1.5-0.7-3.2-1.3-4.9-1.9c-14.5-5.7-36.5-14.6-45.2-23.1c-3.6-3.6-8.9-5.6-14.4-5.6c-2.3,0-4.4,0.3-6.5,1.1
				c-0.1,0-0.2,0.1-0.3,0.1c-11.2,4.2-23.1,6.3-35.2,6.3c-20.7,0-42.8-6.2-64-17.9c-15.9-8.8-30.8-20.3-43.7-33.8l0.1-0.1
				c14.4-17.6,25.6-31.5,44.6-41c4.3-2.2,7.5-6.1,8.6-10.8c1.1-4.8,0.2-9.6-2.5-13.6C69.7,304,60,289.3,53.4,274
				c-5.6-12.8-9.2-26.6-12.2-46.7c24.9-8.7,51.1-13.7,73.9-13.7c8.5,0,16.5,0.7,23.8,2c6.5,1.2,12.4,3,17.7,5.2
				c2.1,0.9,4.3,1.3,6.5,1.3c2.7,0,5.2-0.7,7.6-1.9c4.4-2.2,7.5-6.4,8.6-11.2C188.9,164.8,213.3,122.7,250,86.8 M250,64.2
				c-42.2,37.6-74.8,85.9-87.1,141.4c-6.5-2.8-13.7-4.9-21.1-6.3c-8.5-1.5-17.5-2.3-26.7-2.3c-30.8,0-64.5,8.1-92,19.4
				c6.8,56.5,16.9,74.2,50,120.9c-26.5,13.3-40.1,33.9-59,56.3c30.8,37.1,79.4,67.8,129.5,67.8c13.7,0,27.5-2.3,41.1-7.4
				c0.3-0.1,0.7-0.1,1-0.1c1,0,2.2,0.3,2.8,0.9c13.7,13.4,44.4,23.9,61.5,31.2c17.1-7.3,47.9-17.7,61.5-31.2
				c0.6-0.6,1.8-0.9,2.8-0.9c0.3,0,0.8,0,1,0.1c13.6,5.1,27.4,7.4,41.1,7.4c50,0,98.7-30.7,129.5-67.8c-18.9-22.4-32.6-43.1-59-56.3
				c33.3-46.6,43.3-64.4,50-120.9c-27.6-11.3-61.2-19.4-92-19.4c-9.3,0-18.2,0.8-26.7,2.3c-7.5,1.4-14.6,3.4-21.1,6.3
				C324.8,150.1,292.2,101.6,250,64.2L250,64.2z"/>
		</g>
		<g id="Logo_00000052077559111306815370000008348448696654075323_">
			<g class="st4">
				<path class="st5" d="M250,477c-2.4-1-5.1-2.1-7.8-3.2c-16-6.4-38-15.1-47.8-24.9c-2.1-2.1-5.3-3.3-8.6-3.3
					c-1.3,0-2.7,0.2-3.8,0.7c-0.1,0-0.1,0-0.2,0.1c-12.2,4.5-25,6.8-38.1,6.8l0,0c-48.3,0-92-29.9-118.6-59.7
					c1.5-1.9,3.1-3.8,4.6-5.6c14.4-17.7,26.7-32.9,47.3-43.2c2.2-1.1,3.8-3.1,4.3-5.4c0.6-2.3,0.1-4.9-1.3-6.8
					C47.6,287.2,38.4,270.2,32,221.8c27.5-10.5,57.4-16.5,83.1-16.5c9.1,0,17.5,0.8,25.2,2.2c7.1,1.3,13.6,3.2,19.4,5.7
					c1,0.4,2.2,0.7,3.3,0.7c1.3,0,2.7-0.3,3.8-0.9c2.2-1.1,3.8-3.2,4.3-5.6c10.6-48.3,37.9-93.8,79-132c41.1,38.2,68.3,83.7,79,132
					c0.6,2.4,2.1,4.4,4.3,5.6c1.2,0.7,2.4,0.9,3.8,0.9c1.1,0,2.2-0.2,3.3-0.7c5.9-2.5,12.4-4.4,19.4-5.7c7.7-1.4,16.2-2.2,25.2-2.2
					c25.6,0,55.5,6,83.1,16.5c-6.4,48.5-15.6,65.4-47.8,110.7c-1.4,2-1.9,4.4-1.3,6.8c0.6,2.3,2.2,4.3,4.3,5.4
					c20.4,10.3,32.9,25.5,47.3,43.2c1.5,1.9,3.1,3.8,4.6,5.6c-26.6,29.7-70.3,59.7-118.6,59.7c-13.1,0-26-2.3-38.1-6.8
					c-0.1,0-0.1,0-0.2-0.1c-1.2-0.4-2.4-0.7-3.8-0.7c-3.3,0-6.5,1.2-8.6,3.3c-9.9,9.7-31.8,18.4-47.8,24.9
					C255.1,475,252.4,476,250,477z"/>
			</g>
			<path d="M250,86.8c36.7,35.9,61.1,78,70.8,122.4c1.1,4.9,4.2,8.9,8.6,11.2c2.3,1.2,5,1.9,7.6,1.9c2.2,0,4.4-0.4,6.5-1.3
				c5.2-2.2,11.2-4,17.7-5.2c7.2-1.3,15.2-2,23.8-2c22.8,0,49,5,73.9,13.7c-3,20.1-6.6,33.9-12.2,46.7c-6.6,15.2-16.3,30-33.3,53.7
				c-2.8,4-3.8,8.9-2.5,13.6s4.3,8.6,8.6,10.8c18.9,9.5,30.3,23.4,44.6,41l0.1,0.1c-12.9,13.5-27.8,25-43.7,33.8
				c-21.2,11.7-43.3,17.9-64,17.9c-12.2,0-24.1-2.1-35.2-6.3c-0.1,0-0.2-0.1-0.3-0.1c-2.1-0.7-4.2-1.1-6.5-1.1
				c-5.5,0-10.7,2.1-14.4,5.6c-8.7,8.5-30.6,17.3-45.2,23.1c-1.7,0.7-3.2,1.3-4.9,1.9c-1.5-0.7-3.2-1.3-4.9-1.9
				c-14.5-5.7-36.5-14.6-45.2-23.1c-3.6-3.6-8.9-5.6-14.4-5.6c-2.3,0-4.4,0.3-6.5,1.1c-0.1,0-0.2,0.1-0.3,0.1
				c-11.2,4.2-23.1,6.3-35.2,6.3c-20.7,0-42.8-6.2-64-17.9c-15.9-8.8-30.8-20.3-43.7-33.8l0.1-0.1c14.4-17.6,25.6-31.5,44.6-41
				c4.3-2.2,7.5-6.1,8.6-10.8c1.1-4.8,0.2-9.6-2.5-13.6C69.7,304,60,289.3,53.4,274c-5.6-12.8-9.2-26.6-12.2-46.7
				c24.9-8.7,51.1-13.7,73.9-13.7c8.5,0,16.5,0.7,23.8,2c6.5,1.2,12.4,3,17.7,5.2c2.1,0.9,4.3,1.3,6.5,1.3c2.7,0,5.2-0.7,7.6-1.9
				c4.4-2.2,7.5-6.4,8.6-11.2C188.9,164.8,213.3,122.7,250,86.8 M250,64.2c-42.2,37.6-74.8,85.9-87.1,141.4
				c-6.5-2.8-13.7-4.9-21.1-6.3c-8.5-1.5-17.5-2.3-26.7-2.3c-30.8,0-64.5,8.1-92,19.4c6.8,56.5,16.9,74.2,50,120.9
				c-26.5,13.3-40.1,33.9-59,56.3c30.8,37.1,79.4,67.8,129.5,67.8c13.7,0,27.5-2.3,41.1-7.4c0.3-0.1,0.7-0.1,1-0.1
				c1,0,2.2,0.3,2.8,0.9c13.7,13.4,44.4,23.9,61.5,31.2c17.1-7.3,47.9-17.7,61.5-31.2c0.6-0.6,1.8-0.9,2.8-0.9c0.3,0,0.8,0,1,0.1
				c13.6,5.1,27.4,7.4,41.1,7.4c50,0,98.7-30.7,129.5-67.8c-18.9-22.4-32.6-43.1-59-56.3c33.3-46.6,43.3-64.4,50-120.9
				c-27.6-11.3-61.2-19.4-92-19.4c-9.3,0-18.2,0.8-26.7,2.3c-7.5,1.4-14.6,3.4-21.1,6.3C324.8,150.1,292.2,101.6,250,64.2L250,64.2z
				"/>
		</g>
		<path class="st6" d="M251.5,76.6c-0.1,0.9,1.7,238.6-170.9,267.1"/>
		<path class="st6" d="M252.9,80.7c-0.1,0.9,62,237.5-70.1,370.3"/>
		<path class="st6" d="M252.9,80.7c-0.1,0.9,125.3,270.2-6.8,403"/>
		<g>
			<g>
				<circle cx="23.3" cy="394.6" r="18.3"/>
			</g>
			<g>
				<circle cx="187.4" cy="451.1" r="18.3"/>
			</g>
			<g>
				<circle cx="250" cy="481.7" r="18.3"/>
			</g>
			<g>
				<circle cx="77.8" cy="340.8" r="18.3"/>
			</g>
			<g>
				<circle cx="29.5" cy="219" r="18.3"/>
			</g>
			<g>
				<circle cx="164.9" cy="208.8" r="18.3"/>
			</g>
			<g>
				<circle cx="250" cy="73.4" r="18.3"/>
			</g>
		</g>
		<g>
			<g>
				<circle cx="476.7" cy="394.6" r="18.3"/>
			</g>
			<g>
				<circle cx="312.6" cy="451.1" r="18.3"/>
			</g>
			<g>
				<circle cx="422.2" cy="340.8" r="18.3"/>
			</g>
			<g>
				<circle cx="470.5" cy="219" r="18.3"/>
			</g>
			<g>
				<circle cx="335.1" cy="208.8" r="18.3"/>
			</g>
		</g>
	</g>
</g>
<g id="Layer_1_00000127738030437449899350000012778748952480008080_" class="st0">
	<g id="Background" class="st1">
		<rect class="st7" width="500" height="500"/>
		
			<linearGradient id="SVGID_00000013173621306146435040000009057295755906571658_" gradientUnits="userSpaceOnUse" x1="8.8633" y1="-150" x2="492.0176" y2="-150" gradientTransform="matrix(0 1 1 0 400 0)">
			<stop  offset="0" style="stop-color:#5566FC"/>
			<stop  offset="7.900000e-02" style="stop-color:#4E61F6"/>
			<stop  offset="0.148" style="stop-color:#4A5DF4"/>
			<stop  offset="0.2172" style="stop-color:#4656F1"/>
			<stop  offset="0.2884" style="stop-color:#4255EE"/>
			<stop  offset="0.3683" style="stop-color:#3E51EC"/>
			<stop  offset="0.4472" style="stop-color:#3A4CE9"/>
			<stop  offset="0.5187" style="stop-color:#3648E6"/>
			<stop  offset="0.5763" style="stop-color:#3445E4"/>
			<stop  offset="0.6457" style="stop-color:#3042E2"/>
			<stop  offset="0.7172" style="stop-color:#3042E1"/>
			<stop  offset="0.7966" style="stop-color:#3041DE"/>
			<stop  offset="0.8628" style="stop-color:#3040D9"/>
			<stop  offset="0.9339" style="stop-color:#2E3ECE"/>
			<stop  offset="1" style="stop-color:#2C39B8"/>
		</linearGradient>
		<polygon style="display:none;fill:url(#SVGID_00000013173621306146435040000009057295755906571658_);" points="0,500 0,0 500,0 
			500,500 		"/>
	</g>
	<g id="Workspace" class="st1">
		<g id="Path">
			<path id="oldLogo" class="st9" d="M428.1,337c-10,12.1-21,21.7-33.1,29.8c-16.7,11.2-34.6,19.2-54.9,21.3
				c-13.4,1.4-26.4-0.4-39-4.8c-2.5-0.8-3.9-0.4-5.7,1.3c-9.8,9.3-22.1,14.1-34.4,19.2c-7.2,3-13.8,3.2-21.1,0.1
				c-12.9-5.5-25.9-10.5-36.1-20.5c-0.6-0.6-2.1-0.9-2.9-0.6c-33.9,11.8-64.5,3.9-93.5-14.8c-12.6-8.1-27.1-20.9-34.4-30.5
				c14.2-16.8,31.3-29.9,51.2-39.9c-24.9-35-32.2-74.3-30.5-116.4c31.7-2.1,61.8,2.7,91,15.2c4.4-21,12.9-40.3,24.4-58.2
				c11.4-17.8,24.8-33.9,41.1-48c16.4,14,29.8,30.3,41.2,48.2c11.4,17.9,19.9,37,24.3,58c29.1-12.5,59.2-17.3,90.8-15.2
				c1.6,20.8-0.3,41-5.1,61c-4.8,19.9-12.6,38.5-24.8,54.6c9.3,6.2,18.7,11.7,27.2,18.3C412.3,321.9,420,329.6,428.1,337z
				 M238.9,326.9c-0.8-17-3.6-32.5-8.6-47.6c-9.3-27.9-26-49.3-53.2-61.8c-14.2-6.6-29.1-10.6-44.6-12.8c-5.5-0.8-11.1-1.2-16.8-1.8
				c1.5,22.9,5.9,44.3,15.9,64.4c9,18.1,22.3,32,40.1,41.6c12.7,6.8,26.2,11.4,40.4,14C220.7,324.6,229.5,325.5,238.9,326.9z
				 M384.7,202.5c-10.1,1.5-19.6,2.6-28.9,4.4C340,210,325,215.5,311.2,224c-21,13.1-33.5,32.4-41.2,55.4c-5,15-7.8,30.5-8.5,46.6
				c1.2,0,2.2,0.1,3.1,0c10.1-1.5,20.4-2.5,30.4-4.6c17.4-3.8,33.6-10.6,47.7-21.6c18.5-14.5,28.9-34.1,35.3-56.2
				C381.9,230.6,384,217.2,384.7,202.5z M250.2,268.7c0.9-2.2,1.5-3.5,2-4.9c7.9-19.5,18.7-37.1,35.7-49.8c6.5-4.9,7.3-9.3,5.5-16.4
				c-7.4-29.1-22.7-53.6-42.5-75.7c-0.2-0.2-0.6-0.3-1.4-0.5c-4.6,5.8-9.5,11.4-13.9,17.4c-14.6,19.9-25.8,41.5-30.1,66.2
				c-0.4,2.2,0,3.6,1.9,4.9c17.4,12.4,29.6,29,38.3,48.3C247.2,261.5,248.5,264.7,250.2,268.7z M207.6,344.9
				c0.2,0.1-0.4-0.2-0.9-0.3c-23.6-4.8-45.4-13.4-64.4-28.5c-0.8-0.6-2.6-0.8-3.6-0.4c-12.8,5.2-24.1,12.8-34.8,21.9
				c0.9,0.9,1.6,1.8,2.5,2.3c9.2,6,18,12.7,27.7,17.8c19.1,9.9,39.2,11.7,59.7,4.3c1.2-0.4,2.7-0.9,3.4-1.9
				C200.8,355.1,204.2,349.9,207.6,344.9z M292.5,345c3.3,4.4,6.7,8.4,9.4,12.8c1.3,2.2,2.6,3.5,5,4.3c21.4,7.6,41.9,4.7,61.7-5.4
				c10.1-5.1,19.3-11.4,28-19.1c-10.8-9.2-22.2-16.9-35.1-22.1c-1.1-0.4-3,0.3-4.1,1.1c-15.2,11.9-32.2,19.8-50.7,24.8
				C301.8,342.8,296.9,343.9,292.5,345z M282.4,367.1c-1.9-1.8-3-3-4.2-4c-8.1-6.2-17.4-9.9-26.8-13.3c-0.8-0.3-2-0.2-2.8,0.2
				c-8.1,3.8-16.2,7.5-24.1,11.5c-2.3,1.2-4,3.3-6.8,5.6c1.5,1.1,2.5,1.6,3.3,2.3c8.4,6.9,18.3,10.7,28.3,14.4
				c0.7,0.2,1.7,0,2.4-0.3c6.7-2.9,13.5-5.7,20-9C275.4,372.6,278.6,369.8,282.4,367.1z"/>
			<g id="Sym">
				<g id="Up">
					<g id="oldLogo_00000171717670172477579900000018299662574377485234_" class="st0">
						<g class="st1">
							<path class="st10" d="M249.5,407c12.9-5.5,35.9-13.3,46.2-23.3c0.6-0.6,2.1-0.9,2.9-0.6c33.9,11.8,64.5,3.9,93.5-14.8
								c12.5-8.1,27.1-20.9,34.4-30.5c-14.2-16.8-24.4-32.3-44.3-42.3c24.9-35,32.5-48.3,37.6-90.7c-32.3-13.3-75.8-20.7-105-8.1
								c-4.5-21-12.9-40.3-24.4-58.2c-11.4-17.8-24.6-33.9-40.9-47.9 M272.4,308.2c0.3-5.5,1.2-10.5,2.8-15.4c3-9,8.4-15.9,17.3-20
								c4.6-2.1,9.5-3.4,14.5-4.1c1.8-0.2,3.6-0.4,5.5-0.6c-0.5,7.4-1.9,14.3-5.1,20.8c-2.9,5.9-7.2,10.3-13,13.4
								c-4.1,2.2-8.5,3.7-13.1,4.5C278.3,307.5,275.5,307.8,272.4,308.2z M291.8,345c-0.2,0.1,0.4-0.2,0.9-0.3
								c23.6-4.8,45.4-13.4,64.4-28.5c0.8-0.6,2.5-0.8,3.5-0.4c12.8,5.2,24.1,12.8,34.8,21.9c-0.9,0.9-1.6,1.8-2.5,2.3
								c-9.2,6-18,12.7-27.7,17.8c-19.1,9.9-39.2,11.7-59.7,4.3c-1.2-0.4-2.7-0.9-3.4-1.9C298.6,355.2,295.3,350.1,291.8,345z
								 M249.5,349.7c7.1,1.8,16.3,5.2,25.4,11.9c2.5,1.8,4.8,3.7,6.8,5.6c-1.1,0.8-2.2,1.6-3.3,2.3c-9.7,6.6-19.5,11.3-28.9,14.6
								C249.5,372.7,249.5,361.2,249.5,349.7z"/>
						</g>
						<g class="st1">
							<path class="st10" d="M249.5,407c-12.9-5.5-35.9-13.3-46.2-23.3c-0.6-0.6-2.1-0.9-2.9-0.6c-33.9,11.8-64.5,3.9-93.5-14.8
								c-12.6-8.1-27.1-20.9-34.4-30.5c14.2-16.8,24.4-32.3,44.3-42.3c-24.9-35-32.5-48.3-37.6-90.7c32.3-13.3,75.8-20.7,105-8.1
								c4.4-21,12.9-40.3,24.4-58.2c11.4-17.8,24.6-33.9,40.9-47.9 M226.6,308.2c-0.3-5.5-1.2-10.5-2.8-15.4c-3-9-8.4-15.9-17.3-20
								c-4.6-2.1-9.5-3.4-14.5-4.1c-1.8-0.2-3.6-0.4-5.5-0.6c0.5,7.4,1.9,14.3,5.1,20.8c2.9,5.9,7.2,10.3,13,13.4
								c4.1,2.2,8.5,3.7,13.1,4.5C220.7,307.5,223.6,307.8,226.6,308.2z M207.2,345c0.2,0.1-0.4-0.2-0.9-0.3
								c-23.6-4.8-45.4-13.4-64.4-28.5c-0.8-0.6-2.6-0.8-3.6-0.4c-12.8,5.2-24.1,12.8-34.8,21.9c0.9,0.9,1.6,1.8,2.5,2.3
								c9.2,6,18,12.7,27.7,17.8c19.1,9.9,39.2,11.7,59.7,4.3c1.2-0.4,2.7-0.9,3.4-1.9C200.5,355.2,203.8,350.1,207.2,345z
								 M249.5,349.7c-7.1,1.8-16.3,5.2-25.4,11.9c-2.5,1.8-4.8,3.7-6.8,5.6c1.1,0.8,2.2,1.6,3.3,2.3c9.7,6.6,19.5,11.3,28.9,14.6
								C249.5,372.7,249.5,361.2,249.5,349.7z"/>
						</g>
					</g>
					<g id="v7">
						<g>
							<path class="st10" d="M436.8,315.5c35.2-49.3,45.8-68.1,53-127.9c-37.9-15.6-86.7-25.4-125.7-18.1
								c-7.9,1.5-15.4,3.7-22.4,6.6c-12.9-58.7-47.4-110-92.1-149.7c-44.6,39.7-79.2,91-92.1,149.7c-6.9-3-14.5-5.2-22.4-6.6
								c-39-7.3-87.8,2.5-125.7,18.1c7.2,59.8,17.8,78.6,53,127.9C34.5,329.5,20,351.3,0,375.1c41.5,50.1,113.7,89.1,180.4,64
								c1.1-0.4,3.2,0,4.1,0.8c14.4,14.2,47,25.2,65.1,32.9c18.2-7.7,50.7-18.8,65.1-32.9c0.9-0.8,2.9-1.2,4.1-0.8
								c66.8,25.1,139-13.9,180.4-64C479.3,351.3,464.8,329.5,436.8,315.5z M283.1,371.8c-0.5-0.2-1.5,0-1.9,0.4
								c-6.9,6.8-22.5,12-31.1,15.7c-8.7-3.7-24.2-9-31.1-15.7c-0.4-0.4-1.4-0.6-1.9-0.4c-31.9,12-66.4-6.6-86.2-30.6
								c9.6-11.3,16.5-21.8,29.8-28.5c-16.8-23.6-21.9-32.5-25.3-61.1c18.1-7.4,41.4-12.1,60.1-8.6c3.8,0.7,7.4,1.8,10.7,3.2
								c6.2-28,22.7-52.5,44-71.5c21.3,19,37.8,43.5,44,71.5c3.3-1.4,6.9-2.5,10.7-3.2c18.6-3.5,42,1.2,60,8.6
								c-3.4,28.6-8.5,37.5-25.3,61.1c13.4,6.7,20.3,17.1,29.8,28.5C349.4,365.2,315,383.8,283.1,371.8z"/>
						</g>
					</g>
					<g id="v6" class="st0">
						<g class="st1">
							<path class="st10" d="M382.5,296.3c24.9-35,32.5-48.3,37.6-90.7c-26.9-11-61.5-18-89.1-12.8c-5.6,1.1-10.9,2.6-15.9,4.7
								c-9.1-41.6-33.6-78-65.3-106.1c-31.7,28.1-56.1,64.5-65.3,106.1c-4.9-2.1-10.2-3.7-15.9-4.7c-27.7-5.2-62.3,1.8-89.1,12.8
								c5.1,42.4,12.7,55.7,37.6,90.7c-19.8,10-30.1,25.4-44.3,42.3c29.4,35.5,80.6,63.2,127.9,45.4c0.8-0.3,2.3,0,2.9,0.6
								c10.2,10,33.3,17.9,46.2,23.3c12.9-5.5,35.9-13.3,46.2-23.3c0.6-0.6,2.1-0.9,2.9-0.6c47.3,17.8,98.5-9.9,127.9-45.4
								C412.6,321.7,402.3,306.3,382.5,296.3z M366.2,234.4c-12.4,38.5-36.6,61.7-78.9,58.6c-5.7-0.4-11.4-1.2-17.4-1.9
								C285.1,243.1,316.7,225,366.2,234.4z M227.7,291.2c-6,0.7-11.7,1.5-17.4,1.9c-42.3,3.1-66.5-20.1-78.9-58.6
								C181,225,212.7,243.1,227.7,291.2z M117.8,337.3c48.3-44.2,46.6,2.8,110.3-34.6C213,364.8,152.5,378.8,117.8,337.3z
								 M248.9,291.9c-3.1-4.1-6.3-8-9.1-12c-20.7-29.8-14-57.8,9.1-83.9c23.1,26.1,29.7,54.1,9.1,83.9
								C255.2,283.9,252,287.7,248.9,291.9z M269.7,302.7c63.6,37.4,62-9.6,110.2,34.6C345.2,378.8,284.7,364.8,269.7,302.7z"/>
						</g>
					</g>
					<g id="v5" class="st0">
						<g class="st1">
							<path class="st10" d="M132.6,234.9c12.4,38.5,36.6,61.7,78.9,58.6c5.7-0.4,11.4-1.2,17.4-1.9
								C213.8,243.5,182.1,225.4,132.6,234.9z M271.1,291.6c6,0.7,11.7,1.5,17.4,1.9c42.3,3.1,66.5-20.1,78.9-58.6
								C317.9,225.4,286.2,243.5,271.1,291.6z M250,153.4c-33.1,37.4-42.7,77.7-13,120.5c4,5.8,8.6,11.3,13,17.3
								c4.5-6,9-11.5,13-17.3C292.7,231.1,283.1,190.9,250,153.4z"/>
						</g>
					</g>
					<g id="v3_00000057848793888310487560000007124354821819697798_" class="st0">
						<g class="st1">
							<path class="st10" d="M421.2,201.8c-32.3-13.3-75.8-20.7-105-8.1c-9.1-41.6-33.6-78-65.3-106.1
								c-31.7,28.1-56.1,64.5-65.3,106.1c-29.2-12.5-72.7-5.1-105,8.1c3.9,83.1,68.4,65.5-6.7,133c65.6,78.1,104.3,26.7,177,69.3
								c72.7-42.6,111.4,8.8,177-69.3C352.7,267.4,417.2,284.9,421.2,201.8z M250.2,296.3c-3.3-47.4-32.6-14.6,0-59.4
								C282.7,281.7,253.4,249,250.2,296.3z"/>
						</g>
					</g>
					<g id="v2_00000067957851045602791340000017986734490219389629_" class="st0">
						<g class="st1">
							<path class="st10" d="M421.2,201.8c-32.3-13.3-75.8-20.7-105-8.1c-9.1-41.6-33.6-78-65.3-106.1
								c-31.7,28.1-56.1,64.5-65.3,106.1c-29.2-12.5-72.7-5.1-105,8.1c3.9,83.1,68.4,65.5-6.7,133c65.6,78.1,104.3,26.7,177,69.3
								c72.7-42.6,111.4,8.8,177-69.3C352.7,267.4,417.2,284.9,421.2,201.8z M250.2,236.9c22.1,30.4,15.7,25.1,8.3,33.3
								c6.6-6,15.9-9.3,27.9-10c-1.3,20.5-10.2,35-31.3,38.8c-2.8,0.5-5.7,0.8-8.7,1.2c-3-0.4-5.9-0.7-8.7-1.2
								c-21.1-3.8-30-18.2-31.3-38.8c25.4,1.6,38.6,14.4,40,40c0.3-5.3,1.1-10,2.4-14.3C242.4,254,220.3,278,250.2,236.9z
								 M249.9,312.2c-14.1,27.3-46.3-7.3-61.5-7.7C212.6,305.2,230.4,329.9,249.9,312.2c19.5,17.7,37.3-7,61.5-7.7
								C296.2,304.9,264,339.5,249.9,312.2z M246.4,304.5c-14.1,27.3-51.2-19.8-69.1-4.8C212.7,270,204.7,302.2,246.4,304.5
								c41.8-2.3,33.7-34.5,69.1-4.8C297.7,284.7,260.5,331.9,246.4,304.5z M258.5,270.3c-4.4,4-7.6,9.2-9.7,15.7
								c0.6,3,1.1,6.4,1.3,10.4C251.2,281.1,255,274.2,258.5,270.3z"/>
						</g>
					</g>
					<g id="v1" class="st0">
						<g class="st1">
							<path class="st10" d="M383.6,295.7c24.9-35,32.5-48.3,37.6-90.7c-26.9-11-61.5-18-89.1-12.8c-5.6,1.1-10.9,2.6-15.9,4.7
								c-9.1-41.6-33.6-78-65.3-106.1c-31.7,28.1-56.1,64.5-65.3,106.1c-4.9-2.1-10.2-3.7-15.9-4.7C142,187,107.4,194,80.6,205
								c5.1,42.4,12.7,55.7,37.6,90.7c-19.8,10-30.1,25.4-44.3,42.3c29.4,35.5,80.6,63.2,127.9,45.4c0.8-0.3,2.3,0,2.9,0.6
								c10.2,10,33.3,17.9,46.2,23.3c12.9-5.5,35.9-13.3,46.2-23.3c0.6-0.6,2.1-0.9,2.9-0.6c47.3,17.8,98.5-9.9,127.9-45.4
								C413.7,321.1,403.4,305.7,383.6,295.7z"/>
						</g>
					</g>
				</g>
			</g>
		</g>
		<g id="Guides" class="st0">
		</g>
	</g>
	<g id="Discord_V1" class="st1">
		<g id="Layer_9">
		</g>
		<g>
			<path class="st10" d="M398.5,109.2c0,3.8-30.8,10.4-35.9,15.5c-5.1,5.1-10,34.1-14.7,34.1l0,0c-4.7,0-9.6-29-14.7-34.1
				s-35.9-11.7-35.9-15.5l0,0c0-3.8,30.8-10.4,35.9-15.5s10-34.1,14.7-34.1s9.6,29,14.7,34.1S398.5,105.4,398.5,109.2"/>
		</g>
		<g id="Logo_00000102503401702204252980000012266031326509172655_">
			
				<linearGradient id="SVGID_00000047061425206542385690000004588090140663029693_" gradientUnits="userSpaceOnUse" x1="117.5859" y1="649.35" x2="382.8943" y2="649.35" gradientTransform="matrix(1 0 0 -1 0 900)">
				<stop  offset="0" style="stop-color:#576FEA"/>
				<stop  offset="0.2119" style="stop-color:#576FEA"/>
				<stop  offset="0.4686" style="stop-color:#576FEA"/>
				<stop  offset="0.7314" style="stop-color:#5870EA"/>
				<stop  offset="1" style="stop-color:#5970EB"/>
			</linearGradient>
			<path style="fill:url(#SVGID_00000047061425206542385690000004588090140663029693_);" d="M250,390.7c-1.8-0.7-3.7-1.5-5.7-2.3
				c-11.1-4.5-26.4-10.6-33.4-17.4c-1.3-1.3-3.4-2.1-5.4-2.1c-0.8,0-1.6,0.1-2.4,0.4H203c-8.5,3.2-17.4,4.8-26.7,4.8l0,0
				c-33.9,0-64.6-21.1-83.1-42c1.2-1.5,2.4-3,3.6-4.4c10-12.3,18.6-22.9,33-30.1c1.3-0.7,2.3-1.9,2.6-3.3c0.4-1.4,0.1-2.9-0.8-4.1
				c-22.6-31.6-28.9-43.4-33.3-77.6c19.3-7.4,40.3-11.7,58.3-11.7c6.3,0,12.2,0.5,17.6,1.5c4.9,0.9,9.5,2.3,13.6,4
				c0.6,0.3,1.3,0.4,2,0.4c0.8,0,1.6-0.2,2.3-0.6c1.3-0.7,2.3-1.9,2.6-3.4c7.4-33.8,26.5-65.6,55.4-92.2
				c28.8,26.7,47.9,58.5,55.4,92.2c0.3,1.5,1.3,2.7,2.6,3.4c0.7,0.4,1.5,0.6,2.3,0.6c0.7,0,1.3-0.1,2-0.4c4.1-1.8,8.6-3.1,13.6-4
				c5.4-1,11.3-1.5,17.6-1.5c18,0,39,4.2,58.3,11.7c-4.4,34.1-10.7,45.9-33.3,77.6c-0.9,1.2-1.1,2.7-0.8,4.1
				c0.4,1.4,1.3,2.6,2.6,3.3c14.3,7.2,23,17.8,33,30.1c1.2,1.4,2.4,2.9,3.6,4.4c-18.5,20.9-49.1,42-83.1,42
				c-9.2,0-18.2-1.6-26.7-4.8h-0.1c-0.7-0.3-1.5-0.4-2.4-0.4c-2.1,0-4.1,0.8-5.4,2.1c-7,6.8-22.2,12.9-33.4,17.4
				C253.7,389.2,251.8,390,250,390.7z"/>
			<path class="st12" d="M250,117.8c26.2,25.3,43.6,55,50.5,86.4c0.6,2.9,2.5,5.4,5.2,6.8c1.4,0.7,3,1.1,4.6,1.1
				c1.3,0,2.7-0.3,4-0.8c3.7-1.6,7.9-2.9,12.5-3.7c5.1-0.9,10.7-1.4,16.7-1.4c16.2,0,35.1,3.6,52.8,9.9c-2.1,14.7-4.7,24.6-8.7,33.9
				c-4.6,10.7-11.4,21-23.2,37.4c-1.7,2.4-2.3,5.4-1.6,8.2c0.7,2.8,2.6,5.2,5.2,6.5c13.4,6.7,21.3,16.5,31.3,28.8
				c0.3,0.4,0.6,0.7,0.9,1.1c-17.9,19-45.9,37.2-76.5,37.2c-8.6,0-17-1.5-24.9-4.5c-0.1,0-0.1-0.1-0.2-0.1c-1.3-0.4-2.6-0.7-4-0.7
				c-3.4,0-6.7,1.3-8.9,3.5c-6.2,6.1-21,12-31.7,16.3c-1.3,0.5-2.6,1-3.9,1.6c-1.2-0.5-2.5-1-3.9-1.6c-10.8-4.3-25.5-10.2-31.7-16.3
				c-2.3-2.2-5.5-3.5-8.9-3.5c-1.4,0-2.8,0.2-4,0.7c-0.1,0-0.1,0-0.2,0.1c-7.9,3-16.3,4.5-24.9,4.5c-30.6,0-58.5-18.2-76.5-37.2
				c0.3-0.4,0.6-0.7,0.9-1.1c10-12.3,18-22.1,31.3-28.8c2.6-1.3,4.5-3.7,5.2-6.5s0.1-5.8-1.6-8.2C124,271,117.2,260.7,112.5,250
				c-4-9.3-6.6-19.2-8.7-33.9c17.7-6.4,36.6-9.9,52.8-9.9c6,0,11.6,0.5,16.7,1.4c4.6,0.9,8.8,2.1,12.5,3.7c1.3,0.5,2.6,0.8,3.9,0.8
				c1.6,0,3.1-0.4,4.6-1.1c2.6-1.4,4.6-3.8,5.2-6.8C206.4,172.8,223.8,143.1,250,117.8 M250,104.1c-29.2,26-51.8,59.5-60.2,97.9
				c-4.5-1.9-9.5-3.4-14.6-4.3c-5.9-1.1-12.1-1.6-18.5-1.6c-21.4,0-44.7,5.6-63.7,13.4c4.7,39.1,11.7,51.4,34.7,83.7
				c-18.3,9.2-27.8,23.5-40.9,39c21.3,25.7,55,47,89.6,47c9.5,0,19-1.6,28.4-5.1c0.2-0.1,0.5-0.1,0.7-0.1c0.7,0,1.5,0.2,1.9,0.6
				c9.4,9.3,30.7,16.5,42.6,21.5c11.9-5,33.2-12.3,42.6-21.5c0.4-0.4,1.2-0.6,1.9-0.6c0.3,0,0.5,0,0.7,0.1
				c9.4,3.5,18.9,5.1,28.4,5.1c34.6,0,68.3-21.3,89.6-47c-13.1-15.5-22.5-29.8-40.9-39c23-32.3,30-44.6,34.7-83.7
				c-19.1-7.8-42.4-13.4-63.7-13.4c-6.4,0-12.6,0.5-18.5,1.6c-5.2,1-10.1,2.4-14.6,4.3C301.8,163.6,279.2,130.1,250,104.1L250,104.1
				z"/>
		</g>
		<g id="Layer_8">
			<path class="st13" d="M251.1,112.7c-0.1,0.7,1.2,165.1-118.3,184.9"/>
			<path class="st13" d="M252,115.5c-0.1,0.7,42.9,164.4-48.5,256.3"/>
			<path class="st13" d="M252,115.5c-0.1,0.7,86.7,187-4.7,278.9"/>
		</g>
		<g>
			<g>
				<circle class="st10" cx="93.1" cy="332.9" r="12.7"/>
			</g>
			<g>
				<circle class="st10" cx="206.6" cy="372" r="12.7"/>
			</g>
			<g>
				<circle class="st10" cx="250" cy="393.2" r="12.7"/>
			</g>
			<g>
				<circle class="st10" cx="130.8" cy="295.6" r="12.7"/>
			</g>
			<g>
				<circle class="st10" cx="97.3" cy="211.3" r="12.7"/>
			</g>
			<g>
				<circle class="st10" cx="191.1" cy="204.2" r="12.7"/>
			</g>
			<g>
				
					<ellipse transform="matrix(0.3162 -0.9487 0.9487 0.3162 66.1156 312.7295)" class="st10" cx="250" cy="110.5" rx="12.7" ry="12.7"/>
			</g>
		</g>
		<g>
			<g>
				<circle class="st10" cx="406.9" cy="332.9" r="12.7"/>
			</g>
			<g>
				<circle class="st10" cx="293.4" cy="372" r="12.7"/>
			</g>
			<g>
				<circle class="st10" cx="369.2" cy="295.6" r="12.7"/>
			</g>
			<g>
				<circle class="st10" cx="402.7" cy="211.3" r="12.7"/>
			</g>
			<g>
				<circle class="st10" cx="308.9" cy="204.2" r="12.7"/>
			</g>
		</g>
		<g id="klkHbW.tif">
		</g>
	</g>
</g>
</svg>
