<?xml version="1.0" encoding="utf-8"?>
<!-- Generator: Adobe Illustrator 28.4.1, SVG Export Plug-In . SVG Version: 6.00 Build 0)  -->
<svg version="1.1" xmlns="http://www.w3.org/2000/svg" xmlns:xlink="http://www.w3.org/1999/xlink" x="0px" y="0px"
	 viewBox="0 0 500 500" style="enable-background:new 0 0 500 500;" xml:space="preserve">
<style type="text/css">
	.st0{display:none;}
	.st1{display:inline;}
	.st2{fill:#FFFFFF;}
	.st3{display:inline;fill:url(#SVGID_1_);}
	.st4{display:inline;fill:#ADBAFD;}
	.st5{opacity:0.25;}
	.st6{fill:#ADBAFD;}
	.st7{fill:none;stroke:#ADBAFD;stroke-width:15;stroke-linecap:round;stroke-linejoin:round;stroke-miterlimit:10;}
	.st8{display:none;fill:#4F3DD9;}
	.st9{display:none;fill:url(#SVGID_00000183215949123680018120000013275404458228253583_);}
	.st10{display:none;fill:#FFFFFF;}
	.st11{fill:url(#SVGID_00000177467985375605260160000007002789280679576751_);}
	.st12{fill:none;stroke:#ADBAFD;stroke-width:10;stroke-linecap:round;stroke-linejoin:round;stroke-miterlimit:10;}
</style>
<g id="Layer_2" class="st0">
	<rect x="1" class="st1" width="500" height="500"/>
</g>
<g id="Layer_3">
	<g>
		<g>
			<path class="st2" d="M444.2,88.5c0,5-40.3,13.6-47,20.3c-6.7,6.7-13.1,44.6-19.2,44.6v0c-6.2,0-12.5-37.9-19.2-44.6
				s-47-15.2-47-20.3l0,0c0-5,40.3-13.6,47-20.3s13.1-44.6,19.2-44.6c6.2,0,12.5,37.9,19.2,44.6S444.2,83.5,444.2,88.5"/>
		</g>
		<g id="Logo_00000150804461531869192040000017639274732398271142_" class="st0">
			<linearGradient id="SVGID_1_" gradientUnits="userSpaceOnUse" x1="77.8916" y1="273.719" x2="422.7168" y2="273.719">
				<stop  offset="0" style="stop-color:#576FEA"/>
				<stop  offset="0.2119" style="stop-color:#576FEA"/>
				<stop  offset="0.4686" style="stop-color:#576FEA"/>
				<stop  offset="0.7314" style="stop-color:#5870EA"/>
				<stop  offset="1" style="stop-color:#5970EB"/>
			</linearGradient>
			<path class="st3" d="M250,455.5c-2.2-0.9-4.6-1.9-7.1-2.9c-14.5-5.8-34.4-13.7-43.3-22.5c-1.9-1.9-4.8-3-7.8-3
				c-1.2,0-2.4,0.2-3.4,0.6c-0.1,0-0.1,0-0.2,0.1c-11,4.1-22.6,6.2-34.5,6.2c0,0,0,0,0,0c-43.7,0-83.3-27.1-107.4-54
				c1.4-1.7,2.8-3.4,4.2-5.1c13-16,24.2-29.8,42.8-39.1c2-1,3.4-2.8,3.9-4.9c0.5-2.1,0.1-4.4-1.2-6.2c-29.2-41-37.5-56.4-43.3-100.2
				c24.9-9.5,52-14.9,75.2-14.9c8.2,0,15.8,0.7,22.8,2c6.4,1.2,12.3,2.9,17.6,5.2c0.9,0.4,2,0.6,3,0.6c1.2,0,2.4-0.3,3.4-0.8
				c2-1,3.4-2.9,3.9-5.1c9.6-43.7,34.3-84.9,71.5-119.5c37.2,34.6,61.8,75.8,71.5,119.5c0.5,2.2,1.9,4,3.9,5.1
				c1.1,0.6,2.2,0.8,3.4,0.8c1,0,2-0.2,3-0.6c5.3-2.3,11.2-4,17.6-5.2c7-1.3,14.7-2,22.8-2c23.2,0,50.2,5.4,75.2,14.9
				c-5.8,43.9-14.1,59.2-43.3,100.2c-1.3,1.8-1.7,4-1.2,6.2c0.5,2.1,2,3.9,3.9,4.9c18.5,9.3,29.8,23.1,42.8,39.1
				c1.4,1.7,2.8,3.4,4.2,5.1c-24.1,26.9-63.6,54-107.4,54c-11.9,0-23.5-2.1-34.5-6.2c-0.1,0-0.1,0-0.2-0.1c-1.1-0.4-2.2-0.6-3.4-0.6
				c-3,0-5.9,1.1-7.8,3c-9,8.8-28.8,16.7-43.3,22.5C254.6,453.7,252.2,454.6,250,455.5z"/>
			<path class="st4" d="M250,102.3c33.2,32.5,55.3,70.6,64.1,110.8c1,4.4,3.8,8.1,7.8,10.1c2.1,1.1,4.5,1.7,6.9,1.7
				c2,0,4-0.4,5.9-1.2c4.7-2,10.1-3.6,16-4.7c6.5-1.2,13.8-1.8,21.5-1.8c20.6,0,44.4,4.5,66.9,12.4c-2.7,18.2-6,30.7-11,42.3
				c-6,13.8-14.8,27.2-30.1,48.6c-2.5,3.6-3.4,8.1-2.3,12.3s3.9,7.8,7.8,9.8c17.1,8.6,27.4,21.2,40.4,37.1c0,0,0.1,0.1,0.1,0.1
				c-11.7,12.2-25.2,22.6-39.6,30.6c-19.2,10.6-39.2,16.2-57.9,16.2c-11,0-21.8-1.9-31.9-5.7c-0.1,0-0.2-0.1-0.3-0.1
				c-1.9-0.6-3.8-1-5.9-1c-5,0-9.7,1.9-13,5.1c-7.9,7.7-27.7,15.7-40.9,20.9c-1.5,0.6-2.9,1.2-4.4,1.7c-1.4-0.6-2.9-1.2-4.4-1.7
				c-13.1-5.2-33-13.2-40.9-20.9c-3.3-3.3-8.1-5.1-13-5.1c-2.1,0-4,0.3-5.9,1c-0.1,0-0.2,0.1-0.3,0.1c-10.1,3.8-20.9,5.7-31.9,5.7
				c-18.7,0-38.7-5.6-57.9-16.2c-14.4-8-27.9-18.4-39.6-30.6c0,0,0.1-0.1,0.1-0.1c13-15.9,23.2-28.5,40.4-37.1
				c3.9-2,6.8-5.5,7.8-9.8s0.2-8.7-2.3-12.3C86.8,298.9,78,285.6,72,271.7c-5.1-11.6-8.3-24.1-11-42.3c22.5-7.9,46.3-12.4,66.9-12.4
				c7.7,0,14.9,0.6,21.5,1.8c5.9,1.1,11.2,2.7,16,4.7c1.9,0.8,3.9,1.2,5.9,1.2c2.4,0,4.7-0.6,6.9-1.7c4-2,6.8-5.8,7.8-10.1
				C194.7,172.9,216.8,134.8,250,102.3 M250,81.8c-38.2,34-67.7,77.8-78.8,128c-5.9-2.5-12.4-4.4-19.1-5.7
				c-7.7-1.4-15.8-2.1-24.2-2.1c-27.9,0-58.4,7.3-83.3,17.6c6.2,51.1,15.3,67.2,45.3,109.4c-24,12-36.3,30.7-53.4,51
				c27.9,33.6,71.9,61.4,117.2,61.4c12.4,0,24.9-2.1,37.2-6.7c0.3-0.1,0.6-0.1,0.9-0.1c0.9,0,2,0.3,2.5,0.8
				c12.4,12.1,40.2,21.6,55.7,28.2c15.5-6.6,43.4-16,55.7-28.2c0.5-0.5,1.6-0.8,2.5-0.8c0.3,0,0.7,0,0.9,0.1
				c12.3,4.6,24.8,6.7,37.2,6.7c45.3,0,89.3-27.8,117.2-61.4c-17.1-20.3-29.5-39-53.4-51c30.1-42.2,39.2-58.3,45.3-109.4
				c-25-10.2-55.4-17.6-83.3-17.6c-8.4,0-16.5,0.7-24.2,2.1c-6.8,1.3-13.2,3.1-19.1,5.7C317.7,159.6,288.2,115.7,250,81.8L250,81.8z
				"/>
		</g>
		<g id="Logo_00000052077559111306815370000008348448696654075323_">
			<g class="st5">
				<path class="st2" d="M250,455.5c-2.2-0.9-4.6-1.9-7.1-2.9c-14.5-5.8-34.4-13.7-43.3-22.5c-1.9-1.9-4.8-3-7.8-3
					c-1.2,0-2.4,0.2-3.4,0.6c-0.1,0-0.1,0-0.2,0.1c-11,4.1-22.6,6.2-34.5,6.2c0,0,0,0,0,0c-43.7,0-83.3-27.1-107.4-54
					c1.4-1.7,2.8-3.4,4.2-5.1c13-16,24.2-29.8,42.8-39.1c2-1,3.4-2.8,3.9-4.9c0.5-2.1,0.1-4.4-1.2-6.2
					c-29.2-41-37.5-56.4-43.3-100.2c24.9-9.5,52-14.9,75.2-14.9c8.2,0,15.8,0.7,22.8,2c6.4,1.2,12.3,2.9,17.6,5.2
					c0.9,0.4,2,0.6,3,0.6c1.2,0,2.4-0.3,3.4-0.8c2-1,3.4-2.9,3.9-5.1c9.6-43.7,34.3-84.9,71.5-119.5c37.2,34.6,61.8,75.8,71.5,119.5
					c0.5,2.2,1.9,4,3.9,5.1c1.1,0.6,2.2,0.8,3.4,0.8c1,0,2-0.2,3-0.6c5.3-2.3,11.2-4,17.6-5.2c7-1.3,14.7-2,22.8-2
					c23.2,0,50.2,5.4,75.2,14.9c-5.8,43.9-14.1,59.2-43.3,100.2c-1.3,1.8-1.7,4-1.2,6.2c0.5,2.1,2,3.9,3.9,4.9
					c18.5,9.3,29.8,23.1,42.8,39.1c1.4,1.7,2.8,3.4,4.2,5.1c-24.1,26.9-63.6,54-107.4,54c-11.9,0-23.5-2.1-34.5-6.2
					c-0.1,0-0.1,0-0.2-0.1c-1.1-0.4-2.2-0.6-3.4-0.6c-3,0-5.9,1.1-7.8,3c-9,8.8-28.8,16.7-43.3,22.5
					C254.6,453.7,252.2,454.6,250,455.5z"/>
			</g>
			<path class="st6" d="M250,102.3c33.2,32.5,55.3,70.6,64.1,110.8c1,4.4,3.8,8.1,7.8,10.1c2.1,1.1,4.5,1.7,6.9,1.7
				c2,0,4-0.4,5.9-1.2c4.7-2,10.1-3.6,16-4.7c6.5-1.2,13.8-1.8,21.5-1.8c20.6,0,44.4,4.5,66.9,12.4c-2.7,18.2-6,30.7-11,42.3
				c-6,13.8-14.8,27.2-30.1,48.6c-2.5,3.6-3.4,8.1-2.3,12.3s3.9,7.8,7.8,9.8c17.1,8.6,27.4,21.2,40.4,37.1c0,0,0.1,0.1,0.1,0.1
				c-11.7,12.2-25.2,22.6-39.6,30.6c-19.2,10.6-39.2,16.2-57.9,16.2c-11,0-21.8-1.9-31.9-5.7c-0.1,0-0.2-0.1-0.3-0.1
				c-1.9-0.6-3.8-1-5.9-1c-5,0-9.7,1.9-13,5.1c-7.9,7.7-27.7,15.7-40.9,20.9c-1.5,0.6-2.9,1.2-4.4,1.7c-1.4-0.6-2.9-1.2-4.4-1.7
				c-13.1-5.2-33-13.2-40.9-20.9c-3.3-3.3-8.1-5.1-13-5.1c-2.1,0-4,0.3-5.9,1c-0.1,0-0.2,0.1-0.3,0.1c-10.1,3.8-20.9,5.7-31.9,5.7
				c-18.7,0-38.7-5.6-57.9-16.2c-14.4-8-27.9-18.4-39.6-30.6c0,0,0.1-0.1,0.1-0.1c13-15.9,23.2-28.5,40.4-37.1
				c3.9-2,6.8-5.5,7.8-9.8s0.2-8.7-2.3-12.3C86.8,298.9,78,285.6,72,271.7c-5.1-11.6-8.3-24.1-11-42.3c22.5-7.9,46.3-12.4,66.9-12.4
				c7.7,0,14.9,0.6,21.5,1.8c5.9,1.1,11.2,2.7,16,4.7c1.9,0.8,3.9,1.2,5.9,1.2c2.4,0,4.7-0.6,6.9-1.7c4-2,6.8-5.8,7.8-10.1
				C194.7,172.9,216.8,134.8,250,102.3 M250,81.8c-38.2,34-67.7,77.8-78.8,128c-5.9-2.5-12.4-4.4-19.1-5.7
				c-7.7-1.4-15.8-2.1-24.2-2.1c-27.9,0-58.4,7.3-83.3,17.6c6.2,51.1,15.3,67.2,45.3,109.4c-24,12-36.3,30.7-53.4,51
				c27.9,33.6,71.9,61.4,117.2,61.4c12.4,0,24.9-2.1,37.2-6.7c0.3-0.1,0.6-0.1,0.9-0.1c0.9,0,2,0.3,2.5,0.8
				c12.4,12.1,40.2,21.6,55.7,28.2c15.5-6.6,43.4-16,55.7-28.2c0.5-0.5,1.6-0.8,2.5-0.8c0.3,0,0.7,0,0.9,0.1
				c12.3,4.6,24.8,6.7,37.2,6.7c45.3,0,89.3-27.8,117.2-61.4c-17.1-20.3-29.5-39-53.4-51c30.1-42.2,39.2-58.3,45.3-109.4
				c-25-10.2-55.4-17.6-83.3-17.6c-8.4,0-16.5,0.7-24.2,2.1c-6.8,1.3-13.2,3.1-19.1,5.7C317.7,159.6,288.2,115.7,250,81.8L250,81.8z
				"/>
		</g>
		<path class="st7" d="M251.4,93c-0.1,0.8,1.5,216-154.7,241.8"/>
		<path class="st7" d="M252.6,96.7c-0.1,0.8,56.1,215-63.5,335.2"/>
		<path class="st7" d="M252.6,96.7c-0.1,0.8,113.4,244.6-6.2,364.8"/>
		<g>
			<g>
				<circle class="st2" cx="44.8" cy="380.9" r="16.6"/>
			</g>
			<g>
				<circle class="st2" cx="193.3" cy="432" r="16.6"/>
			</g>
			<g>
				<circle class="st2" cx="250" cy="459.7" r="16.6"/>
			</g>
			<g>
				<circle class="st2" cx="94.1" cy="332.2" r="16.6"/>
			</g>
			<g>
				<circle class="st2" cx="50.4" cy="221.9" r="16.6"/>
			</g>
			<g>
				<circle class="st2" cx="173" cy="212.7" r="16.6"/>
			</g>
			<g>
				<circle class="st2" cx="250" cy="90.1" r="16.6"/>
			</g>
		</g>
		<g>
			<g>
				<circle class="st2" cx="455.2" cy="380.9" r="16.6"/>
			</g>
			<g>
				<circle class="st2" cx="306.7" cy="432" r="16.6"/>
			</g>
			<g>
				<circle class="st2" cx="405.9" cy="332.2" r="16.6"/>
			</g>
			<g>
				<circle class="st2" cx="449.6" cy="221.9" r="16.6"/>
			</g>
			<g>
				<circle class="st2" cx="327" cy="212.7" r="16.6"/>
			</g>
		</g>
	</g>
</g>
<g id="Layer_1" class="st0">
	<g id="Background" class="st1">
		<rect class="st8" width="500" height="500"/>
		
			<linearGradient id="SVGID_00000010306504225777750730000011236162151493055114_" gradientUnits="userSpaceOnUse" x1="8.8633" y1="-150" x2="492.0176" y2="-150" gradientTransform="matrix(0 1 1 0 400 0)">
			<stop  offset="0" style="stop-color:#5566FC"/>
			<stop  offset="7.900000e-02" style="stop-color:#4E61F6"/>
			<stop  offset="0.148" style="stop-color:#4A5DF4"/>
			<stop  offset="0.2172" style="stop-color:#4656F1"/>
			<stop  offset="0.2884" style="stop-color:#4255EE"/>
			<stop  offset="0.3683" style="stop-color:#3E51EC"/>
			<stop  offset="0.4472" style="stop-color:#3A4CE9"/>
			<stop  offset="0.5187" style="stop-color:#3648E6"/>
			<stop  offset="0.5763" style="stop-color:#3445E4"/>
			<stop  offset="0.6457" style="stop-color:#3042E2"/>
			<stop  offset="0.7172" style="stop-color:#3042E1"/>
			<stop  offset="0.7966" style="stop-color:#3041DE"/>
			<stop  offset="0.8628" style="stop-color:#3040D9"/>
			<stop  offset="0.9339" style="stop-color:#2E3ECE"/>
			<stop  offset="1" style="stop-color:#2C39B8"/>
		</linearGradient>
		<polygon style="display:none;fill:url(#SVGID_00000010306504225777750730000011236162151493055114_);" points="0,500 0,0 500,0 
			500,500 		"/>
	</g>
	<g id="Workspace" class="st1">
		<g id="Path">
			<path id="oldLogo" class="st10" d="M428.1,337c-10,12.1-21,21.7-33.1,29.8c-16.7,11.2-34.6,19.2-54.9,21.3
				c-13.4,1.4-26.4-0.4-39-4.8c-2.5-0.8-3.9-0.4-5.7,1.3c-9.8,9.3-22.1,14.1-34.4,19.2c-7.2,3-13.8,3.2-21.1,0.1
				c-12.9-5.5-25.9-10.5-36.1-20.5c-0.6-0.6-2.1-0.9-2.9-0.6c-33.9,11.8-64.5,3.9-93.5-14.8c-12.6-8.1-27.1-20.9-34.4-30.5
				c14.2-16.8,31.3-29.9,51.2-39.9c-24.9-35-32.2-74.3-30.5-116.4c31.7-2.1,61.8,2.7,91,15.2c4.4-21,12.9-40.3,24.4-58.2
				c11.4-17.8,24.8-33.9,41.1-48c16.4,14,29.8,30.3,41.2,48.2c11.4,17.9,19.9,37,24.3,58c29.1-12.5,59.2-17.3,90.8-15.2
				c1.6,20.8-0.3,41-5.1,61c-4.8,19.9-12.6,38.5-24.8,54.6c9.3,6.2,18.7,11.7,27.2,18.3C412.3,321.9,420,329.6,428.1,337z
				 M238.9,326.9c-0.8-17-3.6-32.5-8.6-47.6c-9.3-27.9-26-49.3-53.2-61.8c-14.2-6.6-29.1-10.6-44.6-12.8c-5.5-0.8-11.1-1.2-16.8-1.8
				c1.5,22.9,5.9,44.3,15.9,64.4c9,18.1,22.3,32,40.1,41.6c12.7,6.8,26.2,11.4,40.4,14C220.7,324.6,229.5,325.5,238.9,326.9z
				 M384.7,202.5c-10.1,1.5-19.6,2.6-28.9,4.4c-15.8,3.1-30.8,8.6-44.6,17.1c-21,13.1-33.5,32.4-41.2,55.4c-5,15-7.8,30.5-8.5,46.6
				c1.2,0,2.2,0.1,3.1,0c10.1-1.5,20.4-2.5,30.4-4.6c17.4-3.8,33.6-10.6,47.7-21.6c18.5-14.5,28.9-34.1,35.3-56.2
				C381.9,230.6,384,217.2,384.7,202.5z M250.2,268.7c0.9-2.2,1.5-3.5,2-4.9c7.9-19.5,18.7-37.1,35.7-49.8c6.5-4.9,7.3-9.3,5.5-16.4
				c-7.4-29.1-22.7-53.6-42.5-75.7c-0.2-0.2-0.6-0.3-1.4-0.5c-4.6,5.8-9.5,11.4-13.9,17.4c-14.6,19.9-25.8,41.5-30.1,66.2
				c-0.4,2.2,0,3.6,1.9,4.9c17.4,12.4,29.6,29,38.3,48.3C247.2,261.5,248.5,264.7,250.2,268.7z M207.6,344.9
				c0.2,0.1-0.4-0.2-0.9-0.3c-23.6-4.8-45.4-13.4-64.4-28.5c-0.8-0.6-2.6-0.8-3.6-0.4c-12.8,5.2-24.1,12.8-34.8,21.9
				c0.9,0.9,1.6,1.8,2.5,2.3c9.2,6,18,12.7,27.7,17.8c19.1,9.9,39.2,11.7,59.7,4.3c1.2-0.4,2.7-0.9,3.4-1.9
				C200.8,355.1,204.2,349.9,207.6,344.9z M292.5,345c3.3,4.4,6.7,8.4,9.4,12.8c1.3,2.2,2.6,3.5,5,4.3c21.4,7.6,41.9,4.7,61.7-5.4
				c10.1-5.1,19.3-11.4,28-19.1c-10.8-9.2-22.2-16.9-35.1-22.1c-1.1-0.4-3,0.3-4.1,1.1c-15.2,11.9-32.2,19.8-50.7,24.8
				C301.8,342.8,296.9,343.9,292.5,345z M282.4,367.1c-1.9-1.8-3-3-4.2-4c-8.1-6.2-17.4-9.9-26.8-13.3c-0.8-0.3-2-0.2-2.8,0.2
				c-8.1,3.8-16.2,7.5-24.1,11.5c-2.3,1.2-4,3.3-6.8,5.6c1.5,1.1,2.5,1.6,3.3,2.3c8.4,6.9,18.3,10.7,28.3,14.4
				c0.7,0.2,1.7,0,2.4-0.3c6.7-2.9,13.5-5.7,20-9C275.4,372.6,278.6,369.8,282.4,367.1z"/>
			<g id="Sym">
				<g id="Up">
					<g id="oldLogo_00000171717670172477579900000018299662574377485234_" class="st0">
						<g class="st1">
							<path class="st2" d="M249.5,407c12.9-5.5,35.9-13.3,46.2-23.3c0.6-0.6,2.1-0.9,2.9-0.6c33.9,11.8,64.5,3.9,93.5-14.8
								c12.5-8.1,27.1-20.9,34.4-30.5c-14.2-16.8-24.4-32.3-44.3-42.3c24.9-35,32.5-48.3,37.6-90.7c-32.3-13.3-75.8-20.7-105-8.1
								c-4.5-21-12.9-40.3-24.4-58.2c-11.4-17.8-24.6-33.9-40.9-47.9 M272.4,308.2c0.3-5.5,1.2-10.5,2.8-15.4c3-9,8.4-15.9,17.3-20
								c4.6-2.1,9.5-3.4,14.5-4.1c1.8-0.2,3.6-0.4,5.5-0.6c-0.5,7.4-1.9,14.3-5.1,20.8c-2.9,5.9-7.2,10.3-13,13.4
								c-4.1,2.2-8.5,3.7-13.1,4.5C278.3,307.5,275.5,307.8,272.4,308.2z M291.8,345c-0.2,0.1,0.4-0.2,0.9-0.3
								c23.6-4.8,45.4-13.4,64.4-28.5c0.8-0.6,2.5-0.8,3.5-0.4c12.8,5.2,24.1,12.8,34.8,21.9c-0.9,0.9-1.6,1.8-2.5,2.3
								c-9.2,6-18,12.7-27.7,17.8c-19.1,9.9-39.2,11.7-59.7,4.3c-1.2-0.4-2.7-0.9-3.4-1.9C298.6,355.2,295.3,350.1,291.8,345z
								 M249.5,349.7c7.1,1.8,16.3,5.2,25.4,11.9c2.5,1.8,4.8,3.7,6.8,5.6c-1.1,0.8-2.2,1.6-3.3,2.3c-9.7,6.6-19.5,11.3-28.9,14.6
								C249.5,372.7,249.5,361.2,249.5,349.7z"/>
						</g>
						<g class="st1">
							<path class="st2" d="M249.5,407c-12.9-5.5-35.9-13.3-46.2-23.3c-0.6-0.6-2.1-0.9-2.9-0.6c-33.9,11.8-64.5,3.9-93.5-14.8
								c-12.6-8.1-27.1-20.9-34.4-30.5c14.2-16.8,24.4-32.3,44.3-42.3c-24.9-35-32.5-48.3-37.6-90.7c32.3-13.3,75.8-20.7,105-8.1
								c4.4-21,12.9-40.3,24.4-58.2c11.4-17.8,24.6-33.9,40.9-47.9 M226.6,308.2c-0.3-5.5-1.2-10.5-2.8-15.4c-3-9-8.4-15.9-17.3-20
								c-4.6-2.1-9.5-3.4-14.5-4.1c-1.8-0.2-3.6-0.4-5.5-0.6c0.5,7.4,1.9,14.3,5.1,20.8c2.9,5.9,7.2,10.3,13,13.4
								c4.1,2.2,8.5,3.7,13.1,4.5C220.7,307.5,223.6,307.8,226.6,308.2z M207.2,345c0.2,0.1-0.4-0.2-0.9-0.3
								c-23.6-4.8-45.4-13.4-64.4-28.5c-0.8-0.6-2.6-0.8-3.6-0.4c-12.8,5.2-24.1,12.8-34.8,21.9c0.9,0.9,1.6,1.8,2.5,2.3
								c9.2,6,18,12.7,27.7,17.8c19.1,9.9,39.2,11.7,59.7,4.3c1.2-0.4,2.7-0.9,3.4-1.9C200.5,355.2,203.8,350.1,207.2,345z
								 M249.5,349.7c-7.1,1.8-16.3,5.2-25.4,11.9c-2.5,1.8-4.8,3.7-6.8,5.6c1.1,0.8,2.2,1.6,3.3,2.3c9.7,6.6,19.5,11.3,28.9,14.6
								C249.5,372.7,249.5,361.2,249.5,349.7z"/>
						</g>
					</g>
					<g id="v7">
						<g>
							<path class="st2" d="M436.8,315.5c35.2-49.3,45.8-68.1,53-127.9c-37.9-15.6-86.7-25.4-125.7-18.1c-7.9,1.5-15.4,3.7-22.4,6.6
								c-12.9-58.7-47.4-110-92.1-149.7c-44.6,39.7-79.2,91-92.1,149.7c-6.9-3-14.5-5.2-22.4-6.6c-39-7.3-87.8,2.5-125.7,18.1
								c7.2,59.8,17.8,78.6,53,127.9C34.5,329.5,20,351.3,0,375.1c41.5,50.1,113.7,89.1,180.4,64c1.1-0.4,3.2,0,4.1,0.8
								c14.4,14.2,47,25.2,65.1,32.9c18.2-7.7,50.7-18.8,65.1-32.9c0.9-0.8,2.9-1.2,4.1-0.8c66.8,25.1,139-13.9,180.4-64
								C479.3,351.3,464.8,329.5,436.8,315.5z M283.1,371.8c-0.5-0.2-1.5,0-1.9,0.4c-6.9,6.8-22.5,12-31.1,15.7
								c-8.7-3.7-24.2-9-31.1-15.7c-0.4-0.4-1.4-0.6-1.9-0.4c-31.9,12-66.4-6.6-86.2-30.6c9.6-11.3,16.5-21.8,29.8-28.5
								c-16.8-23.6-21.9-32.5-25.3-61.1c18.1-7.4,41.4-12.1,60.1-8.6c3.8,0.7,7.4,1.8,10.7,3.2c6.2-28,22.7-52.5,44-71.5
								c21.3,19,37.8,43.5,44,71.5c3.3-1.4,6.9-2.5,10.7-3.2c18.6-3.5,42,1.2,60,8.6c-3.4,28.6-8.5,37.5-25.3,61.1
								c13.4,6.7,20.3,17.1,29.8,28.5C349.4,365.2,315,383.8,283.1,371.8z"/>
						</g>
					</g>
					<g id="v6" class="st0">
						<g class="st1">
							<path class="st2" d="M382.5,296.3c24.9-35,32.5-48.3,37.6-90.7c-26.9-11-61.5-18-89.1-12.8c-5.6,1.1-10.9,2.6-15.9,4.7
								c-9.1-41.6-33.6-78-65.3-106.1c-31.7,28.1-56.1,64.5-65.3,106.1c-4.9-2.1-10.2-3.7-15.9-4.7c-27.7-5.2-62.3,1.8-89.1,12.8
								c5.1,42.4,12.7,55.7,37.6,90.7c-19.8,10-30.1,25.4-44.3,42.3c29.4,35.5,80.6,63.2,127.9,45.4c0.8-0.3,2.3,0,2.9,0.6
								c10.2,10,33.3,17.9,46.2,23.3c12.9-5.5,35.9-13.3,46.2-23.3c0.6-0.6,2.1-0.9,2.9-0.6c47.3,17.8,98.5-9.9,127.9-45.4
								C412.6,321.7,402.3,306.3,382.5,296.3z M366.2,234.4c-12.4,38.5-36.6,61.7-78.9,58.6c-5.7-0.4-11.4-1.2-17.4-1.9
								C285.1,243.1,316.7,225,366.2,234.4z M227.7,291.2c-6,0.7-11.7,1.5-17.4,1.9c-42.3,3.1-66.5-20.1-78.9-58.6
								C181,225,212.7,243.1,227.7,291.2z M117.8,337.3c48.3-44.2,46.6,2.8,110.3-34.6C213,364.8,152.5,378.8,117.8,337.3z
								 M248.9,291.9c-3.1-4.1-6.3-8-9.1-12c-20.7-29.8-14-57.8,9.1-83.9c23.1,26.1,29.7,54.1,9.1,83.9
								C255.2,283.9,252,287.7,248.9,291.9z M269.7,302.7c63.6,37.4,62-9.6,110.2,34.6C345.2,378.8,284.7,364.8,269.7,302.7z"/>
						</g>
					</g>
					<g id="v5" class="st0">
						<g class="st1">
							<path class="st2" d="M132.6,234.9c12.4,38.5,36.6,61.7,78.9,58.6c5.7-0.4,11.4-1.2,17.4-1.9
								C213.8,243.5,182.1,225.4,132.6,234.9z M271.1,291.6c6,0.7,11.7,1.5,17.4,1.9c42.3,3.1,66.5-20.1,78.9-58.6
								C317.9,225.4,286.2,243.5,271.1,291.6z M250,153.4c-33.1,37.4-42.7,77.7-13,120.5c4,5.8,8.6,11.3,13,17.3
								c4.5-6,9-11.5,13-17.3C292.7,231.1,283.1,190.9,250,153.4z"/>
						</g>
					</g>
					<g id="v3_00000057848793888310487560000007124354821819697798_" class="st0">
						<g class="st1">
							<path class="st2" d="M421.2,201.8c-32.3-13.3-75.8-20.7-105-8.1c-9.1-41.6-33.6-78-65.3-106.1
								c-31.7,28.1-56.1,64.5-65.3,106.1c-29.2-12.5-72.7-5.1-105,8.1c3.9,83.1,68.4,65.5-6.7,133c65.6,78.1,104.3,26.7,177,69.3
								c72.7-42.6,111.4,8.8,177-69.3C352.7,267.4,417.2,284.9,421.2,201.8z M250.2,296.3c-3.3-47.4-32.6-14.6,0-59.4
								C282.7,281.7,253.4,249,250.2,296.3z"/>
						</g>
					</g>
					<g id="v2_00000067957851045602791340000017986734490219389629_" class="st0">
						<g class="st1">
							<path class="st2" d="M421.2,201.8c-32.3-13.3-75.8-20.7-105-8.1c-9.1-41.6-33.6-78-65.3-106.1
								c-31.7,28.1-56.1,64.5-65.3,106.1c-29.2-12.5-72.7-5.1-105,8.1c3.9,83.1,68.4,65.5-6.7,133c65.6,78.1,104.3,26.7,177,69.3
								c72.7-42.6,111.4,8.8,177-69.3C352.7,267.4,417.2,284.9,421.2,201.8z M250.2,236.9c22.1,30.4,15.7,25.1,8.3,33.3
								c6.6-6,15.9-9.3,27.9-10c-1.3,20.5-10.2,35-31.3,38.8c-2.8,0.5-5.7,0.8-8.7,1.2c-3-0.4-5.9-0.7-8.7-1.2
								c-21.1-3.8-30-18.2-31.3-38.8c25.4,1.6,38.6,14.4,40,40c0.3-5.3,1.1-10,2.4-14.3C242.4,254,220.3,278,250.2,236.9z
								 M249.9,312.2c-14.1,27.3-46.3-7.3-61.5-7.7C212.6,305.2,230.4,329.9,249.9,312.2c19.5,17.7,37.3-7,61.5-7.7
								C296.2,304.9,264,339.5,249.9,312.2z M246.4,304.5c-14.1,27.3-51.2-19.8-69.1-4.8C212.7,270,204.7,302.2,246.4,304.5
								c41.8-2.3,33.7-34.5,69.1-4.8C297.7,284.7,260.5,331.9,246.4,304.5z M258.5,270.3c-4.4,4-7.6,9.2-9.7,15.7
								c0.6,3,1.1,6.4,1.3,10.4C251.2,281.1,255,274.2,258.5,270.3z"/>
						</g>
					</g>
					<g id="v1" class="st0">
						<g class="st1">
							<path class="st2" d="M383.6,295.7c24.9-35,32.5-48.3,37.6-90.7c-26.9-11-61.5-18-89.1-12.8c-5.6,1.1-10.9,2.6-15.9,4.7
								c-9.1-41.6-33.6-78-65.3-106.1c-31.7,28.1-56.1,64.5-65.3,106.1c-4.9-2.1-10.2-3.7-15.9-4.7c-27.7-5.2-62.3,1.8-89.1,12.8
								c5.1,42.4,12.7,55.7,37.6,90.7c-19.8,10-30.1,25.4-44.3,42.3c29.4,35.5,80.6,63.2,127.9,45.4c0.8-0.3,2.3,0,2.9,0.6
								c10.2,10,33.3,17.9,46.2,23.3c12.9-5.5,35.9-13.3,46.2-23.3c0.6-0.6,2.1-0.9,2.9-0.6c47.3,17.8,98.5-9.9,127.9-45.4
								C413.7,321.1,403.4,305.7,383.6,295.7z"/>
						</g>
					</g>
				</g>
			</g>
		</g>
		<g id="Guides" class="st0">
		</g>
	</g>
	<g id="Discord_V1">
		<g id="Layer_9" class="st1">
		</g>
		<g class="st1">
			<path class="st2" d="M398.5,109.2c0,3.8-30.8,10.4-35.9,15.5c-5.1,5.1-10,34.1-14.7,34.1l0,0c-4.7,0-9.6-29-14.7-34.1
				c-5.1-5.1-35.9-11.7-35.9-15.5v0c0-3.8,30.8-10.4,35.9-15.5s10-34.1,14.7-34.1s9.6,29,14.7,34.1S398.5,105.4,398.5,109.2"/>
		</g>
		<g id="Logo_00000102503401702204252980000012266031326509172655_" class="st1">
			
				<linearGradient id="SVGID_00000148636886802992540300000016771926224432881049_" gradientUnits="userSpaceOnUse" x1="117.5859" y1="249.175" x2="382.8943" y2="249.175" gradientTransform="matrix(1 0 0 -1 0 500)">
				<stop  offset="0" style="stop-color:#576FEA"/>
				<stop  offset="0.2119" style="stop-color:#576FEA"/>
				<stop  offset="0.4686" style="stop-color:#576FEA"/>
				<stop  offset="0.7314" style="stop-color:#5870EA"/>
				<stop  offset="1" style="stop-color:#5970EB"/>
			</linearGradient>
			<path style="fill:url(#SVGID_00000148636886802992540300000016771926224432881049_);" d="M250,390.7c-1.8-0.7-3.7-1.5-5.7-2.3
				c-11.1-4.5-26.4-10.6-33.4-17.4c-1.3-1.3-3.4-2.1-5.4-2.1c-0.8,0-1.6,0.1-2.4,0.4c0,0-0.1,0-0.1,0c-8.5,3.2-17.4,4.8-26.7,4.8
				c0,0,0,0,0,0c-33.9,0-64.6-21.1-83.1-42c1.2-1.5,2.4-3,3.6-4.4c10-12.3,18.6-22.9,33-30.1c1.3-0.7,2.3-1.9,2.6-3.3
				c0.4-1.4,0.1-2.9-0.8-4.1c-22.6-31.6-28.9-43.4-33.3-77.6c19.3-7.4,40.3-11.7,58.3-11.7c6.3,0,12.2,0.5,17.6,1.5
				c4.9,0.9,9.5,2.3,13.6,4c0.6,0.3,1.3,0.4,2,0.4c0.8,0,1.6-0.2,2.3-0.6c1.3-0.7,2.3-1.9,2.6-3.4c7.4-33.8,26.5-65.6,55.4-92.2
				c28.8,26.7,47.9,58.5,55.4,92.2c0.3,1.5,1.3,2.7,2.6,3.4c0.7,0.4,1.5,0.6,2.3,0.6c0.7,0,1.3-0.1,2-0.4c4.1-1.8,8.6-3.1,13.6-4
				c5.4-1,11.3-1.5,17.6-1.5c18,0,39,4.2,58.3,11.7c-4.4,34.1-10.7,45.9-33.3,77.6c-0.9,1.2-1.1,2.7-0.8,4.1
				c0.4,1.4,1.3,2.6,2.6,3.3c14.3,7.2,23,17.8,33,30.1c1.2,1.4,2.4,2.9,3.6,4.4c-18.5,20.9-49.1,42-83.1,42
				c-9.2,0-18.2-1.6-26.7-4.8c0,0-0.1,0-0.1,0c-0.7-0.3-1.5-0.4-2.4-0.4c-2.1,0-4.1,0.8-5.4,2.1c-7,6.8-22.2,12.9-33.4,17.4
				C253.7,389.2,251.8,390,250,390.7z"/>
			<path class="st6" d="M250,117.8c26.2,25.3,43.6,55,50.5,86.4c0.6,2.9,2.5,5.4,5.2,6.8c1.4,0.7,3,1.1,4.6,1.1c1.3,0,2.7-0.3,4-0.8
				c3.7-1.6,7.9-2.9,12.5-3.7c5.1-0.9,10.7-1.4,16.7-1.4c16.2,0,35.1,3.6,52.8,9.9c-2.1,14.7-4.7,24.6-8.7,33.9
				c-4.6,10.7-11.4,21-23.2,37.4c-1.7,2.4-2.3,5.4-1.6,8.2c0.7,2.8,2.6,5.2,5.2,6.5c13.4,6.7,21.3,16.5,31.3,28.8
				c0.3,0.4,0.6,0.7,0.9,1.1c-17.9,19-45.9,37.2-76.5,37.2c-8.6,0-17-1.5-24.9-4.5c-0.1,0-0.1-0.1-0.2-0.1c-1.3-0.4-2.6-0.7-4-0.7
				c-3.4,0-6.7,1.3-8.9,3.5c-6.2,6.1-21,12-31.7,16.3c-1.3,0.5-2.6,1-3.9,1.6c-1.2-0.5-2.5-1-3.9-1.6c-10.8-4.3-25.5-10.2-31.7-16.3
				c-2.3-2.2-5.5-3.5-8.9-3.5c-1.4,0-2.8,0.2-4,0.7c-0.1,0-0.1,0-0.2,0.1c-7.9,3-16.3,4.5-24.9,4.5c-30.6,0-58.5-18.2-76.5-37.2
				c0.3-0.4,0.6-0.7,0.9-1.1c10-12.3,18-22.1,31.3-28.8c2.6-1.3,4.5-3.7,5.2-6.5c0.7-2.8,0.1-5.8-1.6-8.2
				C124,271,117.2,260.7,112.5,250c-4-9.3-6.6-19.2-8.7-33.9c17.7-6.4,36.6-9.9,52.8-9.9c6,0,11.6,0.5,16.7,1.4
				c4.6,0.9,8.8,2.1,12.5,3.7c1.3,0.5,2.6,0.8,3.9,0.8c1.6,0,3.1-0.4,4.6-1.1c2.6-1.4,4.6-3.8,5.2-6.8
				C206.4,172.8,223.8,143.1,250,117.8 M250,104.1c-29.2,26-51.8,59.5-60.2,97.9c-4.5-1.9-9.5-3.4-14.6-4.3
				c-5.9-1.1-12.1-1.6-18.5-1.6c-21.4,0-44.7,5.6-63.7,13.4c4.7,39.1,11.7,51.4,34.7,83.7c-18.3,9.2-27.8,23.5-40.9,39
				c21.3,25.7,55,47,89.6,47c9.5,0,19-1.6,28.4-5.1c0.2-0.1,0.5-0.1,0.7-0.1c0.7,0,1.5,0.2,1.9,0.6c9.4,9.3,30.7,16.5,42.6,21.5
				c11.9-5,33.2-12.3,42.6-21.5c0.4-0.4,1.2-0.6,1.9-0.6c0.3,0,0.5,0,0.7,0.1c9.4,3.5,18.9,5.1,28.4,5.1c34.6,0,68.3-21.3,89.6-47
				c-13.1-15.5-22.5-29.8-40.9-39c23-32.3,30-44.6,34.7-83.7c-19.1-7.8-42.4-13.4-63.7-13.4c-6.4,0-12.6,0.5-18.5,1.6
				c-5.2,1-10.1,2.4-14.6,4.3C301.8,163.6,279.2,130.1,250,104.1L250,104.1z"/>
		</g>
		<g id="Layer_8" class="st1">
			<path class="st12" d="M251.1,112.7c-0.1,0.7,1.2,165.1-118.3,184.9"/>
			<path class="st12" d="M252,115.5c-0.1,0.7,42.9,164.4-48.5,256.3"/>
			<path class="st12" d="M252,115.5c-0.1,0.7,86.7,187-4.7,278.9"/>
		</g>
		<g class="st1">
			<g>
				<circle class="st2" cx="93.1" cy="332.9" r="12.7"/>
			</g>
			<g>
				<circle class="st2" cx="206.6" cy="372" r="12.7"/>
			</g>
			<g>
				<circle class="st2" cx="250" cy="393.2" r="12.7"/>
			</g>
			<g>
				<circle class="st2" cx="130.8" cy="295.6" r="12.7"/>
			</g>
			<g>
				<circle class="st2" cx="97.3" cy="211.3" r="12.7"/>
			</g>
			<g>
				<circle class="st2" cx="191.1" cy="204.2" r="12.7"/>
			</g>
			<g>
				<circle class="st2" cx="250" cy="110.5" r="12.7"/>
			</g>
		</g>
		<g class="st1">
			<g>
				<circle class="st2" cx="406.9" cy="332.9" r="12.7"/>
			</g>
			<g>
				<circle class="st2" cx="293.4" cy="372" r="12.7"/>
			</g>
			<g>
				<circle class="st2" cx="369.2" cy="295.6" r="12.7"/>
			</g>
			<g>
				<circle class="st2" cx="402.7" cy="211.3" r="12.7"/>
			</g>
			<g>
				<circle class="st2" cx="308.9" cy="204.2" r="12.7"/>
			</g>
		</g>
		<g id="klkHbW.tif" class="st1">
			
				<image style="overflow:visible;enable-background:new    ;" width="512" height="512" id="Layer_0_00000063614723145668957690000015167155699916114321_" xlink:href="4C464BA2DCD3256C.png"  transform="matrix(0.998 0 0 0.998 -5.5 -5.5)">
			</image>
		</g>
	</g>
</g>
</svg>
