<?xml version="1.0" encoding="utf-8"?>
<!-- Generator: Adobe Illustrator 28.4.1, SVG Export Plug-In . SVG Version: 6.00 Build 0)  -->
<svg version="1.1" id="Layer_1" xmlns="http://www.w3.org/2000/svg" xmlns:xlink="http://www.w3.org/1999/xlink" x="0px" y="0px"
	 viewBox="0 0 373 368" style="enable-background:new 0 0 373 368;" xml:space="preserve">
<style type="text/css">
	.st0{display:none;}
	.st1{display:inline;}
	.st2{clip-path:url(#SVGID_00000143587469885924248700000013264889330200231571_);}
	.st3{fill:#6B52FB;}
	.st4{fill:#CCBDFF;}
	.st5{fill:#B8A3FF;}
	.st6{fill:url(#SVGID_00000138534953274856703110000006020197420733332369_);}
	.st7{fill:url(#SVGID_00000116230911259310281480000017762375643594006189_);}
	.st8{fill:url(#SVGID_00000011731952708086434080000017459363162517197727_);}
	.st9{fill:#FFFFFF;}
	.st10{fill:#53A0A3;}
	.st11{fill:#484294;}
	.st12{fill:#59A1FF;}
	.st13{fill:#4294FF;}
	.st14{fill:#A3CAFF;}
	.st15{fill:#BB53C9;}
	.st16{fill:#D9B95B;}
	.st17{fill:#FFFAE6;}
	.st18{fill:#6E4A9B;}
	.st19{fill:#5D4282;}
	.st20{fill:#AA7AC2;}
	.st21{fill:#2F5C66;}
	.st22{fill:#7AA9E6;}
	.st23{fill:#BBD0FF;}
	.st24{opacity:0.7;fill:#7381FF;enable-background:new    ;}
	.st25{fill:#44948F;}
	.st26{fill:#F0CA8C;}
	.st27{fill:#FFDFAB;}
	.st28{fill:#E5A16A;}
	.st29{fill:#4F999C;}
	.st30{fill:#413A61;}
	.st31{fill:#FC5199;}
	.st32{fill:#FCA7C9;}
	.st33{fill:#D64592;}
	.st34{opacity:0.5;fill:#7C73FF;enable-background:new    ;}
	.st35{fill:#7C73FF;}
	.st36{fill:#FCBDD6;}
	.st37{fill:#D9925B;}
	.st38{fill:#85B386;}
	.st39{fill:#FFF1D9;}
	.st40{fill:#C77BA7;}
	.st41{fill:#B86796;}
	.st42{fill:#D6E3FF;}
	.st43{fill:#398A85;}
	.st44{fill:#59B0A2;}
	.st45{fill:#52A9FF;}
	.st46{fill:#528C75;}
	.st47{fill:#5D51C9;}
	.st48{fill:#8A66FF;}
	.st49{fill:#8462F5;}
	.st50{fill:#5E6AF2;}
	.st51{fill:#754478;}
	.st52{fill:#443E59;}
	.st53{fill:url(#SVGID_00000018934518789200575400000000725511496053659817_);}
	.st54{fill:#276F96;}
	.st55{fill:#ADEDFF;}
	.st56{fill:#69CBE6;}
	.st57{fill:#53BEDB;}
	.st58{fill:#2D92BA;}
	.st59{fill:#309AC4;}
	.st60{fill:#7D456E;}
	.st61{fill:#505C80;}
	.st62{fill:#6473A1;}
	.st63{fill:#6EAC8D;}
	.st64{fill:#58A67E;}
	.st65{fill:#824B6F;}
	.st66{fill:#754465;}
	.st67{fill:#5A3C5C;}
	.st68{fill:#63A6FF;}
	.st69{fill:#4F9BFF;}
	.st70{fill:#63CBFF;}
	.st71{fill:#33705E;}
	.st72{fill:#966290;}
	.st73{fill:#856987;}
	.st74{fill:#468069;}
	.st75{fill:#58AC77;}
	.st76{fill:#2F6653;}
	.st77{opacity:0.63;fill:#9891FF;enable-background:new    ;}
	.st78{fill:#78426A;}
	.st79{fill:#703E64;}
	.st80{fill:#8F516F;}
	.st81{fill:#543857;}
	.st82{fill:#AB576F;}
	.st83{fill:#964D66;}
	.st84{fill:#C46375;}
	.st85{fill:#8A475E;}
	.st86{fill:#D66D8A;}
	.st87{fill:#5FA38B;}
	.st88{fill:#85C28D;}
	.st89{fill:#B0728D;}
	.st90{fill:#FFF5CF;}
	.st91{fill:#8483B8;}
	.st92{fill:#8D8CC4;}
	.st93{fill:#D3E890;}
	.st94{fill:#9190C9;}
	.st95{fill:#B9E08B;}
	.st96{fill:#5E78EB;}
	.st97{fill:#1A2D3B;}
	.st98{fill:#3958DE;}
	.st99{fill:#92D18F;}
	.st100{fill:#8C7CA6;}
	.st101{fill:#7A6D91;}
	.st102{fill:#A293BA;}
	.st103{fill:#549981;}
	.st104{fill:#CFE08B;}
	.st105{fill:#5C3A5B;}
	.st106{fill:#874D69;}
	.st107{fill:#357562;}
	.st108{fill:#75745B;}
	.st109{fill:#6B6A47;}
	.st110{fill:#3B8264;}
	.st111{fill:#7978A8;}
	.st112{fill:#4F5C7D;}
	.st113{fill:#43435E;}
	.st114{fill:#B85571;}
	.st115{fill:#8B8AC2;}
	.st116{fill:#8181B5;}
	.st117{fill:#67668F;}
	.st118{fill:#5C5B80;}
	.st119{fill:#A5A4DB;}
	.st120{fill:#4B8F69;}
	.st121{fill:#3B826D;}
	.st122{fill:#DEE8FF;}
	.st123{fill:#66A8FF;}
	.st124{fill:#2F3A52;}
	.st125{fill:#242F47;}
	.st126{fill:#2F4E75;}
	.st127{fill:url(#SVGID_00000015349731164795042630000005266003487465388445_);}
	.st128{fill:#8C1C9C;}
	.st129{fill:url(#SVGID_00000181805929114513168180000013247704249979470270_);}
	.st130{fill:#9B28AB;}
	.st131{fill:#A72CB8;}
	.st132{fill:#F0C795;}
	.st133{fill:none;stroke:#2B2F33;stroke-width:2.0846;stroke-linecap:round;stroke-miterlimit:10;}
	.st134{fill:#2B2F33;}
	.st135{fill:#782AA1;}
	.st136{fill:#E0C26E;}
	.st137{fill:#4781FF;}
	.st138{fill:#FFEB9E;}
	.st139{fill:url(#SVGID_00000002345568589691767280000008761651721214448319_);}
	.st140{fill:#FFF7D4;}
	.st141{fill:url(#SVGID_00000103252867399424761990000014639722100405813655_);}
	.st142{fill:#9E2FAD;}
	.st143{fill:#2D415C;}
	.st144{fill:#202A40;}
	.st145{fill:#BF9A5D;}
	.st146{fill:#FFDB9E;}
	.st147{fill:#F0B576;}
	.st148{fill:#0E2369;}
	.st149{fill:#1839AD;}
	.st150{fill:#365DEC;}
	.st151{fill:#4293FF;}
	.st152{fill:url(#SVGID_00000072271168418527807210000000856685109837191564_);}
	.st153{fill:#13212B;}
	.st154{fill:#1A3EBD;}
	.st155{fill:#FA4E89;}
	.st156{fill:#43506B;}
	.st157{clip-path:url(#SVGID_00000154407353652264240850000003119156389721165212_);}
	.st158{fill:#7E61FF;}
	.st159{fill:#B783D1;}
	.st160{fill:#76589B;}
	.st161{fill:#A06DBA;}
	.st162{fill:#502D80;}
	.st163{fill:#34466E;}
	.st164{fill:#FADECA;}
	.st165{fill:#D9A551;}
	.st166{fill:#BE73D1;}
	.st167{fill:#59338F;}
	.st168{fill:#3C9186;}
	.st169{fill:#69BA91;}
	.st170{fill:url(#SVGID_00000109750794853512759030000014332558324686042544_);}
	.st171{fill:url(#SVGID_00000061444819468376210110000018040995353572557496_);}
	.st172{fill:#C495DE;}
	.st173{fill:#FFEFC4;}
	.st174{fill:#6C6C96;}
	.st175{fill:#734163;}
	.st176{fill:#629987;}
	.st177{fill:#508F86;}
	.st178{fill:#BAD17B;}
	.st179{fill:#6AA88D;}
	.st180{fill:#9F80FF;}
	.st181{fill:#BF6172;}
	.st182{fill:#609684;}
	.st183{fill:#4C9677;}
	.st184{fill:#85C286;}
	.st185{fill:#1D2B38;}
	.st186{fill:#854D76;}
	.st187{fill:#82B8E8;}
	.st188{fill:#6238EB;}
	.st189{fill:#437A6D;}
	.st190{fill:#827D99;}
	.st191{fill:#D4E1FF;}
	.st192{fill:#23283D;}
	.st193{fill:#4E4766;}
	.st194{fill:#6BA1D1;}
	.st195{fill:#5CAD84;}
	.st196{fill:#4A8C7B;}
	.st197{fill:#AEA3D1;}
	.st198{fill:#7E74A6;}
	.st199{fill:#B3A9D1;}
	.st200{fill:#20373D;}
	.st201{fill:#253B47;}
	.st202{fill:#192530;}
</style>
<g id="Layer_1_00000103976865558405781290000004387707493732802448_">
	<g class="st0">
		<g class="st1">
			<g>
				<defs>
					<rect id="SVGID_1_" width="372.3" height="368"/>
				</defs>
				<clipPath id="SVGID_00000097488827698800938750000008906509447398743737_">
					<use xlink:href="#SVGID_1_"  style="overflow:visible;"/>
				</clipPath>
				<g style="clip-path:url(#SVGID_00000097488827698800938750000008906509447398743737_);">
					<path class="st3" d="M372.3,67.4v84.3L168,248.5l-31.3-58.6c-29-70.2,22.5-109,72.9-96.4c0.8-9,9.3-27.9,30.4-28.8
						c-0.2-38.5,20-52.3,45-48.6c14.3,2.1,23.9,11.9,29.1,26.7C336.9,40.9,356.9,44.6,372.3,67.4z"/>
					<path class="st4" d="M269.4,188.2c-20.6,0.4-37.7,7.2-48.6,24.9c-52.8-38.7-142.3-8-122,94.8C38.6,306.2,10.3,325.3,0,368
						h372.3V103.5C323.4,81,262.7,113,269.4,188.2z"/>
					<path class="st5" d="M372.3,134.6c-24.3-0.9-53.6,14.6-54.3,51.7v16.4h54.3V134.6z"/>
					
						<linearGradient id="SVGID_00000005974095275994805070000008931202719755012224_" gradientUnits="userSpaceOnUse" x1="254.1918" y1="-3.063" x2="209.7948" y2="61.851" gradientTransform="matrix(1 0 0 -1 0 239.2756)">
						<stop  offset="3.000000e-02" style="stop-color:#FFFFFF"/>
						<stop  offset="1" style="stop-color:#CCBDFF"/>
					</linearGradient>
					<path style="fill:url(#SVGID_00000005974095275994805070000008931202719755012224_);" d="M269.4,188.2
						c-16.3,0.3-37.2,5.2-49.3,24.2c-23.5-21.1-69.5-24.2-99.9,4.3c32.7-21.7,67.2-2.4,78.3,25.4c5.2-4.4,9.9-8.3,14.3-11.6l0.3-0.2
						l1-0.7c13.2-9.1,45.3-21.7,80.8-3c5.1-27.8,7.3-40.1,26-57C287,161.5,277.2,174.1,269.4,188.2z"/>
					
						<linearGradient id="SVGID_00000044891651383110916210000008555336266285974186_" gradientUnits="userSpaceOnUse" x1="106.907" y1="-83.6895" x2="12.9082" y2="-83.6895" gradientTransform="matrix(1 0 0 -1 0 239.2756)">
						<stop  offset="0" style="stop-color:#FFFFFF"/>
						<stop  offset="1" style="stop-color:#CCBDFF"/>
					</linearGradient>
					<path style="fill:url(#SVGID_00000044891651383110916210000008555336266285974186_);" d="M107.3,335.5
						c-3.7-8.9-6.6-18.2-8.5-27.6c-48.8-2.4-74,11.5-85.7,30.4C28.4,322.7,70.4,321.5,107.3,335.5z"/>
					
						<linearGradient id="SVGID_00000090276725531755302040000000208449401779676292_" gradientUnits="userSpaceOnUse" x1="111.7142" y1="-23.2971" x2="137.7262" y2="1.5904" gradientTransform="matrix(1 0 0 -1 0 239.2756)">
						<stop  offset="0" style="stop-color:#FFFFFF"/>
						<stop  offset="1" style="stop-color:#CCBDFF"/>
					</linearGradient>
					<path style="fill:url(#SVGID_00000090276725531755302040000000208449401779676292_);" d="M140.6,240.5
						c-18.2,0-25.5,12.3-26,24.9C127.8,252.6,140.6,240.5,140.6,240.5z"/>
					<path class="st9" d="M84.2,347l1.7-0.7l-1.7-0.7l-0.7-1.7h-0.1l-0.7,1.7h-0.1l-1.6,0.7l1.6,0.7h0.1l0.7,1.7h0.1L84.2,347z"/>
					<path class="st10" d="M285,101.7c1.4-6.3,5-5.7,6.2-5c1.2-2.1,6.6-3.1,5.9,3.3c1-0.8,3.6-1.2,3.1,5H285V101.7z"/>
					<path class="st11" d="M273.9,104.1h-3.4v-5.9c0.2-0.2,0.5-0.4,0.8-0.6c0.3-0.1,0.6-0.2,0.9-0.2s0.6,0.1,0.9,0.2
						s0.5,0.3,0.8,0.6L273.9,104.1L273.9,104.1z"/>
					<path class="st11" d="M294.8,88.7h-2.4v15.9h2.4V88.7z"/>
					<path class="st12" d="M272.2,99.7c6.5,0,11.7-5.2,11.7-11.7c0-6.4-5.2-11.7-11.7-11.7s-11.7,5.2-11.7,11.7
						C260.5,94.4,265.7,99.7,272.2,99.7z"/>
					<path class="st13" d="M283.9,87.4c-0.1-2.8-1.3-5.5-3.2-7.6c-2-2-4.6-3.3-7.4-3.6c-6.1,4.5-6.7,13.8-5.7,22.3
						c1.6,0.8,3.4,1.1,5.1,1c1.5-0.1,3.1-0.4,4.5-1.1c1.4-0.6,2.7-1.6,3.7-2.7s1.9-2.5,2.4-3.9C283.7,90.5,284,89,283.9,87.4z"/>
					<path class="st14" d="M288.9,82.8c0-0.2-0.1-0.3-0.2-0.5c-0.1-0.1-0.3-0.3-0.4-0.3c-0.2-0.2-0.4-0.3-0.7-0.3
						c-0.4-0.1-0.8-0.2-1.2-0.3h-2.2l-2.1,0.2c0.3,0.4,0.5,0.8,0.7,1.2h3.5l0.9,0.3h0.3c0-0.1,0-0.1,0.1,0h-0.1l-0.2,0.2
						c-0.2,0.3-0.5,0.5-0.7,0.7c-0.5,0.4-1.1,0.7-1.8,0.9l-1,0.6l-2.8,1.1c-2.7,0.9-5.4,1.8-8.1,2.4c-2.7,0.8-5.5,1.4-8.3,1.9
						l-3.4,0.4h-4.1c0-0.1,0-0.1,0.1,0c0-0.1,0.1-0.2,0.2-0.3l0.7-0.6c0.6-0.4,1.2-0.8,1.8-1.1l0.9-0.5v-0.2c-0.1-0.4-0.1-0.8,0-1.2
						l-1.6,0.7l-2,1.1l-0.9,0.7c-0.1,0.2-0.3,0.4-0.4,0.7c-0.1,0.1-0.2,0.3-0.2,0.5s0,0.4,0,0.5c0,0.2,0.1,0.3,0.2,0.5
						c0.1,0.1,0.3,0.3,0.4,0.3c0.2,0.2,0.4,0.3,0.7,0.3c0.4,0.2,0.8,0.3,1.2,0.3h3.6l3.1-0.4c2.9-0.4,5.7-0.9,8.5-1.7
						c2.8-0.7,5.6-1.6,8.3-2.6l2.4-1.1l1.6-0.7l1.9-1.2c0.4-0.2,0.7-0.4,0.9-0.7l0.5-0.7C288.9,83.5,288.9,83.1,288.9,82.8z"/>
					<path class="st15" d="M293.6,91.8c1.7,0,3.1-1.4,3.1-3.1s-1.4-3.1-3.1-3.1s-3.1,1.4-3.1,3.1S291.9,91.8,293.6,91.8z"/>
					<path class="st11" d="M287.4,77.5H285v27.1h2.4V77.5z"/>
					<path class="st16" d="M286.2,79c3.5,0,6.4-2.8,6.4-6.3s-2.8-6.3-6.4-6.3c-3.5,0-6.4,2.8-6.4,6.3C279.9,76.2,282.7,79,286.2,79z
						"/>
					<path class="st17" d="M225.4,22.5l1.5-0.7l-1.5-0.7l-0.7-1.5h-0.1l-0.7,1.5l-1.5,0.7l1.5,0.7l0.7,1.5h0.1L225.4,22.5z"/>
					<path class="st18" d="M265.9,103.6c12.2-1.2,19.5,0,19.5,0c7.5-0.6,13.2,0.3,16.1,1.5s3.9,1.5,4.3,2.7s-0.4,15-0.9,21
						c-0.6,6-8.5,10.9-22.4,16.4c-4.3,1.8-8.2,3-12-2.6c-3.7-5.6-4.4-7.7-4.6-8.1c-0.2-0.5-6.2-2.7-7.3-9.6
						c-1.1-6.9-1.6-14.2-1.8-16.6C256.7,105.8,256.1,104.1,265.9,103.6z"/>
					<path class="st18" d="M232.6,130.3c0.5-1,3.5-9.1,3.6-11.9s0.3-11.5,0-13.1s-2.1-2.1-6.6-2.2c-4.5-0.2-19.4,0-19.4,0
						s-13.4-0.9-26.3-0.5c-6.9,0.3-12,0.7-14.3,0.8c-2.3,0.2-3.4,1.2-2.9,9.7s2,19,2.2,22.9c0.3,3.8,0.6,7.3,7.7,10.8
						c2,14.3,1.7,12.8,15.3,19c3.5,1,11.5,2.8,15.3,2.8s5.4-1.6,8.4-3.2c3-1.6,4.4-8.3,4.9-9.4c0.5-1.1,2.5-1.8,5.2-4
						s3.9-3.3,4.3-6.7C230.6,141.9,231.9,132.1,232.6,130.3z"/>
					<path class="st19" d="M179.6,114.1l-0.2,3.9l-1.3,2.9c-0.2,0.6-0.7,1.2-1.2,1.6c-0.4,0.4-0.4,0.5-0.3-0.6
						c0.1-1,0.3-2.6,0.3-2.9s-0.1-0.4-0.7-1.3S179.6,114.1,179.6,114.1z"/>
					<path class="st20" d="M173.1,118.6v1.2l0.7,1.5l0.3-1.5l0.2-1.8L173.1,118.6z"/>
					<path class="st20" d="M169.6,103.5c-3.4,0.3-3.4,1.2-2.9,9.7s2,19,2.2,22.9c0.1,1.6,0.3,3.1,0.8,4.6c0.1-0.2,0.2-0.5,0.2-0.7
						c-0.1-2.6,0-5.1,0.3-7.7c0.3-2.4,0.4-4.7,0.5-7.1c0-3,0-2.6-0.8-5.7s-0.7-3.4-0.7-5C169.4,112.7,169.4,107.3,169.6,103.5z"/>
					<path class="st20" d="M183.6,111.9c0,2,0.1,7.4,0.3,9.2c0.2,1.8,0.6,6.7,0.6,7.6c0,0.8,0.3,0.7,1.3,2.1c1,1.3,0.7,1.1,0.8,2.2
						c0.1,1.1,0.6,6.2,0.6,7.5s0.5,1.2,0.5-1.2s0.4-9.4,0.4-10.6c0-1.2,0-1.3-1-4.1c-1-2.8-0.9-2.1,0.1-4.1s0.9-10.1,0.9-10.1
						L183.6,111.9z"/>
					<path class="st19" d="M213.1,106.8c0,0-0.2,9.4-0.1,12.5c2.6,5.1,2.5,4.9,2.4,10.2c-0.1,5.3,0.1,5-2.5,7.1
						c0,4.6,0.6,15.8-3.8,18.9l-7.7,5.4c4.2,0.1,7-0.1,9.1-1.3c2.1-1,4-2.4,5.5-4.1c1.8-2.1,6.8-2.7,7.1-7.5s1.8-13.1,1.8-16.9
						c0-3.8,2.1-6.7,2.5-11.2c0.3-5.1,0.3-10.3-0.1-15.4c0.2-1.9-1.7-0.4-1.7-0.4l-15.3-0.9L213.1,106.8z"/>
					<path class="st21" d="M217.9,94.7c0.7-5.8,5.8-5.4,7.7-2.1c1.5-1.9,3.6-1.2,4.1,4.1c0.5,5.3,0.5,6.8,0.5,6.8h-12.3V94.7z"/>
					<path class="st22" d="M224.3,96.2l3.3-1.2v6.5h-3.3V96.2z"/>
					<path class="st23" d="M214.9,56.4h-6.2c-0.8,21.2-4.4,36.3-12,46.1h30.1C219.3,92.8,215.8,77.6,214.9,56.4z"/>
					<path class="st24" d="M211.8,56.4l-4.5,45.2h6V56.4H211.8z"/>
					<path class="st25" d="M204.7,87c-0.4-7-1.1-13.4-6.7-13.4c-5.7-9.9-14.4-5.2-15,11l0.9,17.9h27.9C211.2,92,210.2,87.3,204.7,87
						z"/>
					<path class="st26" d="M173.4,82.4h16.1V102h-17.2V83.5c0-0.3,0.1-0.6,0.3-0.8C172.8,82.5,173.1,82.4,173.4,82.4z"/>
					<path class="st27" d="M187,84.9h-1v14.7h1V84.9z"/>
					<path class="st27" d="M187,98.3h-12.3v1.3H187V98.3z"/>
					<path class="st28" d="M187,84.9h-12.3v9.5c0,0,3.8-1.2,4.7-4.8c3.7,1.3,7.6-3.5,7.6-3.5V84.9z"/>
					<path class="st28" d="M176.3,84.9h-1.5v14.7l1.5-1.3V84.9z"/>
					<path class="st28" d="M201.4,102.1h-11.9V82.5h10.8c0.1,0,0.3,0,0.4,0.1s0.3,0.1,0.4,0.2c0.1,0.1,0.2,0.2,0.2,0.4
						c0.1,0.1,0.1,0.3,0.1,0.4V102.1z"/>
					<path class="st29" d="M228.8,101.3c-4.4-0.2-18.8,0-18.8,0c-8.5-0.6-17-0.7-25.5-0.4c-4.6,0.1-9.1,0.5-13.7,1.2
						c-3.8,0.5-3.6,1.2-3.8,2.5c5.8,0.6,13.9,0.6,16.9,0.6h6.9c-2.2,1.5-4.3,3.2-6.2,5.1c-2.4,2.6-0.9,1.7,4.3,1
						c4.1-0.6,8.2-0.9,12.4-0.9c2.7,0,5.5-0.3,8.1-0.7c0.7-0.1,1.4-0.3,2-0.7c0.6-0.4,1.1-0.9,1.4-1.5c0.1-0.2,0.2-0.5,0.2-0.8
						s-0.1-0.6-0.2-0.8c0,0,5.1-0.7,8-0.7s9.6,0.5,10.8,0.5c1.1,0,0-1.6,0-1.6l3.4-0.3C234.9,102.2,233.2,101.4,228.8,101.3z"/>
					<path class="st24" d="M216.3,72.8c-0.7-4.9-1.1-10.5-1.4-16.3h-6.2c-0.1,3.4-0.4,6.6-0.7,9.7L216.3,72.8z"/>
					<path class="st23" d="M230.2,43.7c0,4.2-1.4,8.4-4.1,11.6c-2.7,3.3-6.4,5.5-10.6,6.4c-4.2,0.8-8.5,0.2-12.2-1.8
						c-3.8-2-6.7-5.2-8.3-9.1c9.5-8.3,21.9-12.7,34.5-12.4C229.9,40.2,230.2,41.9,230.2,43.7z"/>
					<path class="st30" d="M194.9,50.8c9.6-8.3,21.9-12.7,34.5-12.4c-0.3-1.1-0.7-2.1-1.2-3.1c-12.5,0-24.7,4.4-34.3,12.3
						C194.1,48.8,194.5,49.8,194.9,50.8z"/>
					<path class="st31" d="M228.1,35.3c-12.5,0-24.6,4.4-34.2,12.3c-0.3-1.3-0.4-2.6-0.5-3.9c0-4.1,1.4-8.1,3.9-11.3
						s6.1-5.5,10.1-6.5s8.2-0.6,11.9,1.1C223.2,28.8,226.2,31.7,228.1,35.3z"/>
					<path class="st32" d="M200.1,32.4c-0.3-0.3-1.4,0.7-2.4,2.3s-1.8,3.3-1.5,3.6c0.3,0.4,1.4-0.7,2.5-2.3S200.5,32.7,200.1,32.4z"
						/>
					<path class="st33" d="M228.1,35.3c-8.7,0-17.3,2.1-25,6.2c-0.1-2,0.1-4,0.6-6c0.8-3.7,2.7-7.1,5.2-9.9l2.9-0.2
						c3.4,0,6.7,0.9,9.5,2.7C224.3,29.8,226.6,32.4,228.1,35.3z"/>
					<path class="st34" d="M230.2,43.7c0,3.3-0.9,6.6-2.6,9.4c-1.7,2.8-4.2,5.2-7.1,6.7c-1,0-2-0.2-3-0.4
						c-7.2-1.7-12.4-7.6-13.9-14.8c7.9-4.3,16.9-6.5,25.9-6.3C229.9,40.2,230.2,41.9,230.2,43.7z"/>
					<path class="st30" d="M220.1,42.7c2.2-1,2.9-4.2,1.5-7.1c-1.4-2.9-4.3-4.4-6.5-3.4c-2.2,1-2.9,4.2-1.5,7.1S218,43.8,220.1,42.7
						z"/>
					<path class="st35" d="M219,40.2c1.1-0.5,1.5-2.2,0.8-3.7s-2.2-2.3-3.3-1.7c-1.1,0.5-1.5,2.2-0.8,3.7
						C216.4,39.9,217.8,40.7,219,40.2z"/>
					<path class="st19" d="M195.2,116.6c0,0.4,0.1,0.8,0.3,1.1c0.2,0.3,0.5,0.6,0.8,0.9c3.1,2.3,6.2,4.8,8,6.4
						c1.9,1.7,4.4,4.4,4.5,3.6c0.1-0.7,1-4.4,1.5-7.6s0-2.5-3-3.9s-9.4-3.4-11.2-4C194.3,112.5,195.1,113.6,195.2,116.6z"/>
					<path class="st29" d="M301.5,105.1c-2.9-1.2-8.6-2.1-16.1-1.5c0,0-7.3-1.2-19.5,0c-7.1,0.4-8.7,1.4-9,2.8
						c-0.1,0.5,1.3,0.1,3.6,0c2.3-0.1,19.3,2.7,25.3,3.9c6,1.2,5.7,0.7,3.7-0.9c-2-1.7-2-1.4,1.9-1.5c3.8-0.1,9.3,0.5,10.9,0.5
						c1.7,0,3.6,0.6,3.4-0.6C305.5,106.7,304.2,105.2,301.5,105.1z"/>
					<path class="st36" d="M192.9,43.2l1.3-0.7l-1.3-0.7l-0.7-1.4l-0.7,1.4l-1.4,0.7l1.4,0.7l0.7,1.3L192.9,43.2z"/>
					<path class="st36" d="M271.3,70.1l1.5-0.7l-1.5-0.7l-0.7-1.5l-0.7,1.5h-0.1l-1.5,0.7l1.5,0.7h0.1l0.7,1.5L271.3,70.1z"/>
					<path class="st29" d="M172.3,83.2v12c2.6-0.2,4.3-3.5,4.7-5.9c1.6,0,2.1-1.2,2.4-3c0.8,0.1,1.7-0.2,2.3-0.7
						c0.7-0.5,1.1-1.2,1.3-2c0.3,1.3,0.7,1.8,1.3,1.7c0.7-0.1,0.7-2.9,0.7-2.9h-11.9c-0.2,0-0.4,0.1-0.6,0.2S172.3,83,172.3,83.2z"
						/>
					<path class="st37" d="M199.3,84.9h-1v14.7h1V84.9z"/>
					<path class="st37" d="M193.2,84.9h-1v14.7h1V84.9z"/>
					<path class="st37" d="M199.3,85.8v-1h-7.1v1H199.3z"/>
					<path class="st37" d="M199.3,99.5v-1h-7.1v1H199.3z"/>
					<path class="st38" d="M196.2,102.9c0-7,4.8-7.3,4.8-7.3c0.4-2.9,2.1-5.2,3.3-3.2c1.2,2.1,1.2,5.9,1.2,5.9c2,0,1.9,3.1,1.9,4.6
						H196.2z"/>
					<path class="st39" d="M188,96.4h-9.2v6.5h9.2V96.4z"/>
					<path class="st23" d="M188.1,102.9h4.9v-6.5h-4.9V102.9z"/>
					<path class="st40" d="M178.8,96.4h14.1l-3.1-2.5h-8.3L178.8,96.4z"/>
					<path class="st24" d="M180.6,99.9c0.1,0,0.2,0,0.3,0s0.2,0.1,0.2,0.1c0.1,0.1,0.1,0.1,0.1,0.2s0.1,0.2,0.1,0.2v2.4H180v-2.4
						c0-0.2,0.1-0.3,0.2-0.5C180.2,99.9,180.4,99.9,180.6,99.9z"/>
					<path class="st9" d="M182.7,99.6c0.3,0,0.6-0.3,0.6-0.6c0-0.3-0.3-0.6-0.6-0.6s-0.6,0.3-0.6,0.6
						C182.2,99.3,182.4,99.6,182.7,99.6z"/>
					<path class="st9" d="M185,99.6c0.3,0,0.6-0.3,0.6-0.6c0-0.3-0.3-0.6-0.6-0.6s-0.6,0.3-0.6,0.6C184.4,99.3,184.7,99.6,185,99.6z
						"/>
					<path class="st41" d="M189.4,95.5h-2l-0.5-0.7v-1.4h1v1.5L189.4,95.5z"/>
					<path class="st23" d="M200.4,99.5c0.3,0,0.7,0.1,1,0.2s0.6,0.3,0.8,0.5s0.4,0.5,0.5,0.8s0.2,0.6,0.2,1v5.5h-5.1V102
						c0-0.7,0.3-1.3,0.7-1.8C199.1,99.7,199.8,99.5,200.4,99.5z"/>
					<path class="st24" d="M199.2,104.4c0.1,0,0.2,0,0.3,0s0.2,0.1,0.2,0.1c0.1,0.1,0.1,0.1,0.1,0.2s0.1,0.2,0.1,0.2v2.4h-1.3v-2.4
						c0-0.2,0.1-0.3,0.2-0.5C198.9,104.5,199,104.4,199.2,104.4z"/>
					<path class="st42" d="M201.4,103.3c0.4,0,0.7-0.3,0.7-0.7c0-0.4-0.3-0.7-0.7-0.7s-0.7,0.3-0.7,0.7
						C200.6,103,200.9,103.3,201.4,103.3z"/>
					<path class="st43" d="M194.8,105.6c-0.3,0-0.5,0.1-0.7,0.1c-0.2,0.1-0.4,0.2-0.6,0.4c-0.2,0.2-0.3,0.4-0.4,0.6
						c-0.1,0.2-0.1,0.5-0.1,0.7h3.8c0-0.5-0.2-1-0.6-1.4C195.8,105.8,195.3,105.6,194.8,105.6z"/>
					<path class="st43" d="M179.6,114.1c-2.2,0.7-4.1,1.9-5.8,3.5c-2.1,2.3,1.2,0.7,2.3,0.2l1.1-0.2c0.3-0.1,0.6-0.2,0.9-0.4
						c0.3-0.2,0.5-0.5,0.6-0.8L179.6,114.1z"/>
					<path class="st44" d="M174.5,117.6c0-0.9-0.4-3.4,0.4-4.1c0.7-0.7,0.2-2,0.6-2.1c0.4-0.2,0.9,0.4,1,2.7s0.1,2.4,0.1,2.4
						L174.5,117.6z"/>
					<path class="st45" d="M219.9,97.5h-4.1v4.6h4.1V97.5z"/>
					<path class="st45" d="M219.8,102.1h3.2v-2.3h-3.2V102.1z"/>
					<path class="st46" d="M216.1,100.3c-0.8-0.8-1.8-0.6-2,0.5c-0.2,0-0.4,0-0.5,0.1c-0.2,0.1-0.3,0.2-0.4,0.3s-0.2,0.3-0.3,0.4
						c-0.1,0.2-0.1,0.3-0.1,0.5h4.1C216.9,101.3,217.1,100.3,216.1,100.3z"/>
					<path class="st19" d="M270.6,116.1c0.3-5.5,7.6-4.2,10.6-3.4c3,0.8,5.2,4.9,5.1,10.3c0,3.2-0.5,6.3-1.3,9.3
						c-0.2,1.1-2.3,3.8-6.5-3.1C274.2,122.4,270.5,118.2,270.6,116.1z"/>
					<path class="st38" d="M282.4,99.1c-0.1-2.4-0.2-7.4-2.1-7.3s-2.5,8.1-2.4,13l8.2,0.2C286.7,99.7,284.2,99,282.4,99.1z"/>
					<path class="st38" d="M279.4,96c-3.1-1.5-4.7,2.3-4,8.9h4V96z"/>
					<path class="st38" d="M263,104.5c0-2.1,1.1-2.6,2-2.6c0-1.7,1.1-2.4,1.9-1.7c0.7,0.7,0.9,4.1,0.9,4.1L263,104.5z"/>
					<path class="st47" d="M317.7,76c0-0.1,0-0.3-0.1-0.4s-0.2-0.2-0.3-0.3c-3.2-1.6-8.2-1.4-10.8,0.2c-0.9,0.6-0.8,2.3-0.7,3.5
						c0.2,1.2,0.8,4.1,2.4,4.9c1.6,0.7,1.5,0.8,1.6,2.7c0.1,1.9,1.2,2.4,3.7,0.6c2.5-1.9,2.6-3.3,2.6-4.5
						C316.3,81.6,317.6,80.2,317.7,76z"/>
					<path class="st47" d="M152.1,155.8c0.1,3.5,0.9,4.3,1.8,4.9c0.8,0.6,1.6-0.3,2.4-1.8c0.6-1.4,0.8-2.9,0.7-4.4
						c0-0.7-0.6-0.6-2-0.7c-0.9-0.1-1.9,0.1-2.7,0.6C152.1,154.7,152.1,154.8,152.1,155.8z"/>
					<path class="st48" d="M352.8,58.9h-58.9c6.5-6.6,31.3-6.3,38-2.4C340.9,54.7,345.3,54.9,352.8,58.9z"/>
					<path class="st49" d="M198.3,145c17.1-15.6,39.2-7.2,46.1-2.4c10-5,16.7-2.8,22.7,2.4H198.3z"/>
					<path class="st38" d="M309.2,181c-3.6-2.1-7.7,0.9-7.7,7.8c0,0-4.6,0.5-4.7,11.1h15L309.2,181z"/>
					<path class="st50" d="M307.1,190.7h-16.6v9.2h16.6V190.7z"/>
					<path class="st51" d="M294.7,195.3h-2.2v4.5h2.2V195.3z"/>
					<path class="st52" d="M307.1,190.7h-16.6l4.8-2.7h7.7L307.1,190.7z"/>
					
						<linearGradient id="SVGID_00000062877428769620765010000016996802504485068184_" gradientUnits="userSpaceOnUse" x1="330.8621" y1="74.7766" x2="335.446" y2="48.5556" gradientTransform="matrix(1 0 0 -1 0 239.2756)">
						<stop  offset="0.26" style="stop-color:#56BAD6"/>
						<stop  offset="1" style="stop-color:#348CB5"/>
					</linearGradient>
					<path style="fill:url(#SVGID_00000062877428769620765010000016996802504485068184_);" d="M345.5,139.7l-27.7,1.9
						c-0.9,0.1-1.9,0.4-2.7,0.9c-0.8,0.5-1.5,1.2-1.9,2l-13.9,25.1c-0.5,0.9-0.8,1.9-0.8,2.9s0.3,2,0.9,2.8l13.6,22.6
						c0.6,0.9,1.4,1.6,2.3,2.1s2,0.7,3,0.6l27.6-1.9c0.9-0.1,1.9-0.4,2.7-0.9c0.8-0.5,1.5-1.2,1.9-2l13.9-25.1
						c0.5-0.9,0.8-1.9,0.8-2.9s-0.3-2-0.9-2.8l-13.6-22.6c-0.5-0.9-1.3-1.6-2.2-2.1C347.5,139.9,346.5,139.7,345.5,139.7z"/>
					<path class="st54" d="M315.7,200.3c0.8,0.3,1.7,0.4,2.5,0.4l8.2-0.6l19.3-1.3c1.1-0.1,2.1-0.5,3-1.1l-3.1-15.4L315.7,200.3z"/>
					<path class="st55" d="M314.9,142.7c-0.7,0.5-1.2,1.1-1.7,1.9l-13.9,25.1c-0.5,0.9-0.8,1.9-0.7,3l13,0.9L314.9,142.7z"/>
					<path class="st56" d="M298.5,172.7c0.1,1,0.3,1.9,0.8,2.8l3.1,5l10.5,17.4c0.4,0.7,1,1.3,1.7,1.8l-3.1-26L298.5,172.7z"/>
					<path class="st57" d="M365,167.2c-0.1-0.8-0.3-1.6-0.7-2.2l-13.6-22.4c-0.5-0.9-1.3-1.7-2.2-2.1l-5.8,11.9L365,167.2z"/>
					<path class="st56" d="M348.5,140.4c-0.9-0.5-2-0.7-3.1-0.7l-27.5,1.9c-1,0.1-2,0.5-2.9,1l27.7,9.6L348.5,140.4z"/>
					<path class="st58" d="M311.5,173.6l34.2,8.7l-3-30.1L311.5,173.6z"/>
					<path class="st59" d="M345.6,182.3l19.5-13.8c0-0.4,0-0.9-0.1-1.3l-22.4-14.9L345.6,182.3z"/>
					<path class="st46" d="M336.9,196.4c0-6.3,5.3-8.3,7.6-7.7c0.1-10.5,1.6-14,5.3-14.2c3.7-0.2,4.1,6.6,4.1,6.6
						c4.2-0.1,5.7,3.5,6,9.3c4.1,0.1,8.3,3,8.7,7.5l-30.4,1.2L336.9,196.4z"/>
					<path class="st60" d="M347.1,190c0.8,2.3,1.3,4.7,1.5,7.2h-0.9c-0.2-2.9-0.8-6.9-0.8-6.9L347.1,190z"/>
					<path class="st38" d="M348.4,190.9l3.3-0.7c-0.7-0.8-1.9-0.8-3.5-0.6c0.5-0.8,1.1-1.6,1.8-2.2c-0.4-0.1-0.7-0.1-1.1,0
						s-0.7,0.2-1,0.4s-0.6,0.5-0.7,0.8c-0.2,0.3-0.3,0.7-0.3,1.1c-0.4-0.2-0.8-0.4-1.2-0.4c-0.4-0.1-0.9,0-1.3,0.1s-0.8,0.3-1.1,0.6
						c-0.3,0.3-0.6,0.6-0.8,1c1-0.2,2.1-0.3,3.1-0.3c-0.4,0.3-0.7,0.7-1,1.2c-0.2,0.4-0.4,0.9-0.4,1.4l3.1-1.8l2.5,1.7
						c0.1-0.5,0-0.9-0.3-1.4C349.2,191.4,348.8,191.1,348.4,190.9z"/>
					<path class="st61" d="M358.4,197.3c0.4-2.4,2.2-3.4,3.2-2.4c0.6,0.7,0.9,1.5,0.9,2.4H358.4z"/>
					<path class="st62" d="M360.8,197.3c0.5-1,2.5-1.3,3,0.2S360.8,197.3,360.8,197.3z"/>
					<path class="st61" d="M349.5,197c-0.2-2-1.6-2.8-2.5-1.7s-0.9,2-0.9,2L349.5,197z"/>
					<path class="st63" d="M308.4,193.4c3.4-1.1,7.3,0.3,8.6,6.8l-13.5,1.2v-1c0-1.5,0.4-3,1.3-4.3
						C305.7,194.9,307,193.9,308.4,193.4z"/>
					<path class="st64" d="M280.7,241.6c0-7.7,2.5-11.7,7.2-11.7s3.6,12.6,3.6,12.6L280.7,241.6z"/>
					<path class="st65" d="M361.5,197.4v73.2l-85.1-0.8c2.3-12.5,8.2-31.7,8.2-31.7s0.8-23.3,2.2-30.2c0-1.9-0.3-5.2-0.5-7.2
						c0-0.5,0.3-1,0.6-1.4c0.4-0.4,0.9-0.6,1.4-0.6l7.3-0.6c5.4-0.2,30.5-1.7,43-1.3L361.5,197.4z"/>
					<path class="st66" d="M332.2,202.2l-2.2,8l-3.1,4.9L324,218l1.1-6.1l0.1-4.8l4.1-3.9L332.2,202.2z"/>
					<path class="st67" d="M372.3,197.4c0,0-21.1-0.3-33.5-0.7h-3.6c0,0.1-5,19-5.7,23.3l-16.7,20.6l-1.1,19.4l43.3,10.5h17.3
						L372.3,197.4L372.3,197.4z"/>
					<path class="st68" d="M349.3,197c3.7,3.2,3.5,5.7,3.6,12.3v14c-0.1,3.7,0,18.2,0,18.2h7.5c0,0-0.2-15,0-19.1s0.3-10.4,0.4-14.2
						s-0.1-7.7-1.4-10.8c-0.5-0.8-1.8-0.8-2.9-0.6c-1.2-0.2-2.5-0.2-3.7,0C351,196.7,349.3,196.6,349.3,197z"/>
					<path class="st69" d="M359.3,197.4c-0.5-0.7-1.4-0.8-2.4-0.7c-0.8,4,2.2,9.3,2.2,9.3c-2.2,2.4-3.1,3.7-3.6,5.3
						c2.8,3.8,0,8.6,0,8.6c1.3,2.7,2.2,5.5,2.6,8.5c0.3,0.2,0.6,0.4,1,0.5s0.7,0.2,1.1,0.1c0-2.8,0-5.4,0.1-6.7
						c0.2-4.2,0.3-10.4,0.4-14.2C360.8,204.4,360.6,200.5,359.3,197.4z"/>
					<path class="st70" d="M357.7,228c-3.9-4.6-3-9.8-2.7-13.4c0.1-1,0.2-2.1,0.6-3.1l-0.6-0.7c0.7-2.5,0.7-5.1,0-7.6
						s-2.1-4.7-3.9-6.5c-1,0-1.8,0.1-1.8,0.4c3.7,3.2,3.5,5.7,3.6,12.3v14c-0.1,3.5,0,16,0,17.9c0.4-0.1,0.8-0.3,1.1-0.7
						c3.9-3,4.9-7.6,4.2-12.1L357.7,228z"/>
					<path class="st68" d="M355.6,211.4c-0.3,1-0.5,2-0.6,3.1c-0.3,3.6-1.2,8.9,2.7,13.4l0.5,0.6c-0.4-3-1.3-5.8-2.6-8.5
						C355.6,220,358.4,215.3,355.6,211.4z"/>
					<path class="st71" d="M344.6,260.4c0.7-12.2,4.5-21.5,10.4-22.5c0.2-12.2,5.8-15.7,10.4-16s6.9,4.5,6.9,11.3v38.2h-27.7
						L344.6,260.4L344.6,260.4z"/>
					<path class="st72" d="M303.9,202.1l1,14.8l-3.6,13.4l-2.5,15.7h8.9l4.1-17.6c0,0,2.3-8.7,3.2-10.6l-2.5-15.6l0.3-4.8l-4.5,0.2
						l-0.2,2.3L303.9,202.1z"/>
					<path class="st72" d="M290.3,198.4v8.8l-2,17.6v20.4h2.8v-20.7l3.5-18l1.2-8.3L290.3,198.4z"/>
					<path class="st60" d="M341,248.5c0.4,4.4,0.3,8.9-0.2,13.4l-1.6-0.5c0.7-5.1,1-12.6,1-12.6L341,248.5z"/>
					<path class="st46" d="M342.7,250.4h6.2c-0.9-1.7-3.1-2.1-5.9-2.2c1.3-1.2,2.6-2.3,4-3.3c-2.6-1.5-5.9,0.4-6.6,2.8
						c-2.6-2.1-6.3-2-8.1,0.6c1.9-0.1,3.7,0.1,5.5,0.7c-2.7,1.8-2.7,2.3-3.4,4l6.1-2l3.8,4c0.3-0.8,0.3-1.7,0-2.6
						C344,251.5,343.4,250.8,342.7,250.4z"/>
					<path class="st46" d="M334.4,259.2c-2.4-12.4-6.7-19.5-21.7-15.5c-2.7-6.4-10.2-5.9-14.8-0.8c-16.8-9.2-34.4-4.5-35.3,31.7
						l35.3,4.9l55.4-6.6C351.1,259.5,340.4,255.9,334.4,259.2z"/>
					<path class="st64" d="M291.5,252.4c0.4-0.8,1-1.4,1.8-1.8c0.8-0.4,1.7-0.5,2.5-0.3c0,0,1.8-3.4,3.9-2.4
						c-1.3,1.1-2.3,2.4-3.1,3.9L291.5,252.4z"/>
					<path class="st73" d="M283.1,248.9c1,7.7,0,17.3,0,17.3l-2.1-0.6c0.9-6.7,1.1-16.3,1.1-16.3L283.1,248.9z"/>
					<path class="st64" d="M280.6,249.2l-6.2,1.7c0.7-2.6,3.1-3.8,6.3-3.1c-0.9-0.9-3.4-4.1-3.4-4.1c1.1,0,2.3,0.4,3.2,1
						c0.9,0.6,1.7,1.5,2.1,2.6c1.2-0.5,2.4-0.6,3.7-0.3c1.2,0.2,2.4,0.9,3.2,1.7h-5.1c3.1,1.6,2.9,3.3,3.1,5.3l-4.4-3.4l-4.1,4.7
						C279,255.4,278.7,250.9,280.6,249.2z"/>
					<path class="st64" d="M283.4,260.2c-4.6-0.7-8.2,2.1-9.9,7c-4.2-0.3-6,2.8-6.2,7.2h24.1c0.3-5.7-0.7-9.1-2.8-9.6
						C288.8,262.3,286.9,260.6,283.4,260.2z"/>
					<path class="st74" d="M296.7,263.6c0-8.8,1.7-12.9,6.5-13.2s5.7,5.2,5.4,8.7c2.8,0,5,1.7,5.1,5.6c0.2,3.9,0,11.1,0,11.1l-17,1
						V263.6z"/>
					<path class="st66" d="M312.1,233.1c3.6,17.7,2.4,40.5,2.4,40.5l-4.9-0.9c1.2-16,0.4-40.1,0.4-40.1L312.1,233.1z"/>
					<path class="st75" d="M306.1,232.3l-12.4,3.8c2.1-5.1,5.1-7.4,12.6-9.1c-2.7-2.3-9.2-6-9.2-6c4-1.3,10.5-0.8,15.9,4.4
						c4.9-2.4,9-2.1,16.8,3.2c-4.8,0.2-9.6,0.8-14.2,2c6,4.3,8.1,8,6.2,14.3l-10.4-9.7l-9.4,12C302,247.3,301.5,238.2,306.1,232.3z"
						/>
					<path class="st66" d="M340.5,205.7l-3.9,5.5l-1.7,7.8c0,0,5.9-6.7,8.7-7.9v-9.6h-2.2L340.5,205.7z"/>
					<path class="st17" d="M332.5,135.7l2.4-1l-2.4-1l-1-2.3c-0.1-0.1-0.1-0.1-0.1,0l-1.1,2.3l-2.4,1l2.4,1l1.1,2.3h0.1L332.5,135.7
						z"/>
					<path class="st5" d="M355.3,168.9l1.3-0.6c0.1,0,0.1,0,0-0.1l-1.3-0.6l-0.6-1.3l-0.7,1.3l-1.3,0.6l1.3,0.6l0.7,1.3L355.3,168.9
						L355.3,168.9z"/>
					<path class="st17" d="M297.8,159.7l2.1-0.9l-2.1-0.9l-0.9-2.1h-0.1l-0.9,2.1l-2.1,0.9l2.1,0.9l0.9,2.1h0.1L297.8,159.7z"/>
					<path class="st76" d="M352.2,264.1c0.5-10,7.1-12.7,11.3-10.7c4.2,2,4.2,10.8,4.2,13.7c1.6,0.3,2.8,2.1,3.1,6.2h-18.6
						C352.2,273.2,352,269.9,352.2,264.1z"/>
					<path class="st72" d="M316.5,210.8l0.9,5.4l0.2,1.8l0.9-2.3v-6.3L316.5,210.8z"/>
					<path class="st72" d="M320.8,209.1v2.8l1.4-1.4v-2.2L320.8,209.1z"/>
					<path class="st63" d="M332.2,202.2l-4.9,4.8c0,0-9.1,3.4-10.8,3.8c1.1-3.5,5.9-6.3,7.7-6.9c1.8-0.6,5.1-3.3,7.9-2.1h0.1
						l0.1,0.1v0.1C332.3,202.1,332.2,202.2,332.2,202.2z"/>
					<path class="st46" d="M325.2,205.1l2.6-1l-4,0.7L325.2,205.1z"/>
					<path class="st46" d="M320.8,206.6c0-2.5-0.2-4.8,1-5.1c0.1-2.7,1.1-3,2-2.3c0.8,0.7,0.7,3.5,0.7,3.5l0.8,2.4L320.8,206.6z"/>
					<path class="st77" d="M298.1,194c0.5,0,0.8-0.4,0.8-0.8c0-0.5-0.4-0.8-0.8-0.8s-0.8,0.4-0.8,0.8
						C297.3,193.6,297.6,194,298.1,194z"/>
					<path class="st77" d="M301.6,194c0.5,0,0.8-0.4,0.8-0.8c0-0.5-0.4-0.8-0.8-0.8s-0.8,0.4-0.8,0.8
						C300.7,193.6,301.1,194,301.6,194z"/>
					<path class="st78" d="M372.3,273.3V368H120.2c-0.4-3.3-0.8-6.5-1.2-9.7c-0.1-1.4-0.3-2.8-0.5-4.2c-0.2-1.4-0.1-1.4-0.2-2.1
						s-0.3-2.7-0.5-4.1c-0.4-3.5-0.7-6.9-1-10.1c0-0.7-0.1-1.3-0.2-2c0-0.7-0.1-1.3-0.1-1.9s-0.2-2-0.3-2.8
						c-0.1-0.8-0.1-2.1-0.2-3.1s-0.2-2.1-0.2-3.2c-0.4-4.8-0.2-9.6,0.6-14.4c0.8-4.9,3.2-9.4,6.7-12.9c0,0,0,0,0.1,0c0,0,0,0,0-0.1
						h0.1c6.7-6.4,18.4-11,38.2-16.6c30.6-7.1,86.6-8.7,116.6-8.2c5.4,0.2,10.9,2,16.2,1.6c19.2-1.6,36.3-0.7,54.9-0.1
						C356.7,274.3,364.3,273.4,372.3,273.3z"/>
					<path class="st79" d="M258,310.5c-0.7,3.9-1,7.9-1.1,11.9c0,5.3-1.2,10.6-3.6,15.3c-2.5,5.3-16.8,16.6-17.1,17.5
						c-0.3,0.8-1,10.4-1.3,12.9H226c0.3-3,0.4-6,0.3-9c-0.2-3.1,8.7-19.1,9.1-22.8c0.3-4.3,0.3-8.6,0.1-12.9
						c-0.1-2.7-2.3-12.9,0.4-25.9l26.7-1.7L258,310.5z"/>
					<path class="st80" d="M308.9,294.5c-2.3,8.5-3.4,14.1-3.4,16s-4.6,5.7-6.2,8s-2.3,2.4-2.5,5.8s-4.9,23.4-4.9,23.4l-16.3,6.1
						c0,0,3-12.4,3.6-16.4s2.2-9.3,2.2-11.3s0.1-3.4,2.4-5.5s6.8-7.7,8.9-9.3c2.1-1.7,2.2-2.8,3-6.3l3.7-14L308.9,294.5z"/>
					<path class="st67" d="M224.4,327.7c0.1,4.7-0.7,12.5-0.7,12.5s-2.9,5.7-3.7,8.2c-0.9,2.5-1.6,5.1-2.2,7.7
						c-0.3,2.1-0.1,3.5-4.6,0s-8.9-6.1-10.3-7.9c-1.4-1.9-0.9-2.8-0.7-5.2c0.2-2.4-0.2-9-0.2-9L224.4,327.7z"/>
					<path class="st81" d="M337.8,288.9l34.5-3.5V368h-43.9l-0.2-9l-14.3-13.5l7.2-51.6l0.5-3.4L337.8,288.9z"/>
					<path class="st67" d="M353.2,298.3l19.1-3.8v40.1l-2.3-1c-8.5-3.7-9.5-2.4-11.8-7.2c-2.3-4.8-5.5-10.5-9.1-21
						c-0.2-0.7-0.3-1.5-0.2-2.3c0.1-0.8,0.3-1.5,0.7-2.2c0.4-0.7,0.9-1.2,1.5-1.7C351.8,298.7,352.5,298.4,353.2,298.3z"/>
					<path class="st82" d="M200.4,327c0,0.8-6.6,4.6-6.6,5.4c-0.5,5.2-0.3,9.2-0.5,11.3c-0.2,2.1-5.3,6.7-6.3,8.6
						c-0.9,1.9-2.7,4.9-3.1,15.3v0.4h-63.4c-1.9-15.8-3.7-32.3-4.2-43c-0.4-6.5-0.2-11.9,1-16.4c1-4.2,3.2-8,6.3-11l74.8-7.3
						l-3.1,17.8v0.8C196.4,313.8,200.1,322.3,200.4,327z"/>
					<path class="st78" d="M195.3,308.9v-0.8l1.3-7.3l-9.3,1.4c0.4,17.3-0.9,25.9,4.8,23.4c2.5-1.1,3.9-6,4.9-11.2
						C196.3,312.6,195.7,310.8,195.3,308.9z"/>
					<path class="st83" d="M150.9,331.9l-1,4.9v5.1c0,0.4-0.6,3.5-0.6,3.5c-0.1,3.2-0.2,6.6-0.7,7.4s-4.5,5.5-4.9,7.4
						s-0.8,4.5-1.4,7.7h-2.5c0.4-3,0.7-5.9,0.7-6.6s-0.2-1.9,1.3-3.9c1.5-2.1,4.8-5.7,5.1-6.1s0.1-3.6,0-6.8
						c-0.1-1.2-0.2-8.7-0.2-8.7l0.9-7.4c-0.5-1.8-1.6-5.6-1.6-7.9s0.1-8.9,0.6-14.5h1.2c0,0,0.7,6.8,0.7,9.1
						c0.1,3.7,0.5,7.3,1.1,10.9C150.3,329.3,150.9,330.6,150.9,331.9z"/>
					<path class="st83" d="M163.9,368h-17.7c0.7-2.7,1.7-5.5,3-6.4s6.5-3.8,10.9,1.3C161.6,364.4,162.9,366.2,163.9,368z"/>
					<path class="st84" d="M178.6,347.9c-0.1,1.6-0.1,3.3,0,4.9c0.1,2.1,0.1,4.2-0.1,6.3c-0.3,2.5-0.6,5.3-0.6,6.2
						c0,0.8,0.2-0.1,1.4-2.1c1.6-2.3,3-4.6,4.2-7.1c0.6-1.4,0.3-1.8,0.5-2.8s-1.6-6.5-1.6-6.5L178.6,347.9z"/>
					<path class="st84" d="M135.3,357.5c-0.1,1.3-1.2,4.7-1.6,8.9c0,0.5-0.1,1.1-0.2,1.6h-2.2v-12.8c0-1.7-0.4-5.5,0-7.3
						s1.9-2.6,3.1-3.3c0.1,0,0.2-0.1,0.3-0.1s0.2,0,0.3,0.1c0.1,0,0.2,0.1,0.2,0.2c0.1,0.1,0.1,0.2,0.1,0.3
						C135.3,349.3,135.4,356.3,135.3,357.5z"/>
					<path class="st83" d="M150.2,304.5c1.7,10.4,2.2,12,2.4,13.3s5.6,3.3,10,5c4.4,1.8,9.9,4.1,11.4,4.2s2.7-3.5,3.9-5.9
						s4.4-8.1,4.8-9c0.4-0.8,3.6-11,3.6-11L150.2,304.5z"/>
					<path class="st78" d="M168.2,305.2c0.3,13.2-0.9,19.8,4.4,17.9c5.3-1.9,5.7-19.1,5.7-19.1L168.2,305.2z"/>
					<path class="st85" d="M153.7,306.7c0.1,0.3,0.3,0.6,0.5,0.8c0.2,0.2,0.6,0.3,0.9,0.3c1.8,0.2,3.5,0.4,5.2,0.7
						c1.8,0,3.7-0.1,5.5-0.4s2.8-1.7,4.1-2.1c0.9-0.4,1.8-1.1,2.4-1.9h-19.4L153.7,306.7z"/>
					<path class="st86" d="M125.8,326.1c0,1.6-0.3,3.3-0.7,4.9c-0.7,2.2-2.7,5.6-3.2,7.7c-0.5,1.8-0.8,3.6-0.9,5.4
						c0,2,2.1,8.3,2.4,12.4s0.9,8.5,1.2,11.6h-4.4c-0.4-3.3-0.8-6.5-1.2-9.7c-0.1-1.4-0.3-2.8-0.5-4.2c-0.2-1.4-0.1-1.4-0.2-2.1
						s-0.3-2.7-0.5-4.1c-0.4-3.5-0.7-6.9-1-10.1c0-0.7-0.1-1.3-0.2-2c0-0.7-0.1-1.3-0.1-1.9s-0.2-2-0.3-2.8
						c-0.1-0.8-0.1-2.1-0.2-3.1s-0.2-2.1-0.2-3.2c-0.2-3-1.1-7.1-1.1-10c0-0.6,0.1-1.1,0.4-1.6c0.3-0.4,0.5-0.8,0.6-1.3
						c0.4-0.7,0.6-1.1,0.7-1.5c0.3-0.6,0.5-1.3,0.5-2.1h0.4l8.4,1C125.7,315.4,125.8,324.9,125.8,326.1z"/>
					<path class="st87" d="M164.6,273.7c-0.5-3.7-6.1-4.7-6.9,1.4c-5-2.2-6,4.5-3.7,7.8l17-4.1C175,272.4,168.2,272.2,164.6,273.7z"
						/>
					<path class="st88" d="M372.3,270.5v20.4l-34.4,0.7c-5.6,0.2-11.3,0.9-16.7,2.2l-3.1,0.9c-8.3,3-13.6,0.5-25.3-0.8
						c0,0-30.7,2.8-41.7,4.7c-10.8,1.8-21.9,2.4-32.8,1.5c-11.2-0.8-15.6-0.2-21.7,1c-6.1,1.2-21.3,3.2-28.3,4
						c-3.4,0.4-6.9,0.5-10.4,0.3c-2.8-0.1-5.6,0.3-8.3,1.1c-3.5,1.1-8.5,2.7-13.1,3.9c-8,2.1-9.5-1-19.9,0c0.2-2.1,0.1-3.7,0.7-5.1
						c1.1-3.1,2.1-5.7,6.1-7.8l0,0l0,0l0,0l0,0h0.1c7.8-9.5,24.3-13.6,24.8-13.7c9.5-2.4,18.1-4.5,25.7-6.3
						c7.7-1.8,13.4-2.3,15.5-2.3c0.6,0,1.2,0,1.8,0.2l10.8-1.1l7.3-0.6c3.7-0.4,7.6-0.6,11.4-0.8l4-0.3c9-0.6,18.2-1,27.3-1.3
						C300.2,269.2,349.1,270.1,372.3,270.5z"/>
					<path class="st63" d="M372.3,290.9v-20.4l-11.8-0.2c-17.9,1.1-23.8,6-27.4,8c-24.2,0.6-36.4,4.5-44.7,16.1l4.4-0.5
						c11.7,1.3,16.9,3.8,25.3,0.8l3.1-0.9c5.5-1.3,11.1-2.1,16.7-2.2L372.3,290.9z"/>
					<path class="st17" d="M148.3,251.3l2.2-0.9c0.1,0,0.1-0.1,0-0.1l-2.2-0.9l-0.9-2.1h-0.1l-1,2.1l-2.2,0.9l2.2,0.9l1,2.2h0.1
						L148.3,251.3L148.3,251.3z"/>
					<path class="st63" d="M134.7,299.6c-8-1-12,1-13.2,4.7L134.7,299.6z"/>
					<path class="st63" d="M224.4,327.7c-11.6,6.7-30.6,13.6-39.3,18.3c-8.7,4.7-9,3.4,1-10.8c10-14.2,21-9.1,21-9.1
						S220.5,314,224.4,327.7z"/>
					<path class="st88" d="M190,336.9l9.8-9.2C195.7,327.7,192.1,328.7,190,336.9z"/>
					<path class="st46" d="M207.1,326.1c-0.7-0.3-1.4-0.5-2.1-0.7c-1,1.1-1.6,2.5-2,3.9s-0.4,2.9-0.1,4.4c-5.7,2.8-8,3.7-8.7,5.4
						c-0.4,0.9-0.7,1.9-0.8,2.9c9.5-4.3,22.3-9.4,31-14.4C220.5,314,207.1,326.1,207.1,326.1z"/>
					<path class="st89" d="M134.8,315.2c-0.2,2.1-1,4.2-2.2,6c-0.8,1.6-1.7,0.5-1.5-2.1s-0.3-4.9,0.8-4.9
						C133.2,314.2,135,313.8,134.8,315.2z"/>
					<path class="st4" d="M170.4,340.8l4.3-1.9c0.1-0.1,0.1-0.2,0-0.2l-4.3-2h-0.1l-2-4.4h-0.2l-1.9,4.4h-0.1l-4.3,2
						c-0.1,0-0.1,0.1,0,0.2l4.3,1.9h0.1l1.9,4.3h0.2L170.4,340.8C170.3,340.8,170.3,340.8,170.4,340.8L170.4,340.8z"/>
					<path class="st90" d="M159,355.3l2.4-1c0.1-0.1,0.1-0.1,0-0.1l-2.4-1.1h-0.1l-1-2.5h-0.1l-1.1,2.5l-2.5,1.1l2.5,1l1.1,2.4h0.1
						L159,355.3C158.9,355.2,158.9,355.2,159,355.3C158.9,355.3,158.9,355.3,159,355.3C158.9,355.3,158.9,355.3,159,355.3L159,355.3
						z"/>
					<path class="st63" d="M372.3,287.1v3.8l-34.4,0.7c-5.6,0.2-11.3,0.9-16.7,2.2l-3.1,0.9c-8.3,3-13.6,0.5-25.3-0.8
						c0,0-30.7,2.8-41.7,4.7c-10.8,1.8-21.9,2.4-32.8,1.5c-11.2-0.8-15.6-0.2-21.7,1c-6.1,1.2-21.3,3.2-28.3,4
						c-3.4,0.4-6.9,0.5-10.4,0.3c-2.8-0.1-5.6,0.3-8.3,1.1c-3.5,1.1-8.5,2.7-13.1,3.9c-8,2.1-9.5-1-19.9,0c3.6-1.6,8.2-2.1,16.5-3.5
						c3.9-0.7,10.2-2.2,14.5-2.8c4.3-0.6,7.3-1,10.9-1.4c6.7-0.6,13-1.2,18.4-2l6.5-0.9c5.1-2.7,11.1-2.3,13.6-0.9h0.1
						c11.9-4.9,21.4-1.7,23.4-1.4c6.9-1.6,14.1-0.7,15.3,0c6.7-1.7,16.9-3.3,21.9-2.9c12.6-1.5,26.3-3.5,29.6-3.2
						c3.3,0.3,13.3-0.2,16.7,1.8c4.1-0.8,9-3.2,12-1.9c6.5-1.8,16.9-3.5,21.9-2.4h0.6C344.2,288.1,360.3,287.2,372.3,287.1z"/>
					<path class="st63" d="M153,291.5c12.3-2.9,15.3-4.5,15.1-4.8s-3-0.4-10.5,1C150.1,289.2,153,291.5,153,291.5z"/>
					<path class="st91" d="M159.8,289.1c-3-13.2-8.3-19-14.7-19.1s-10,13.4-10.4,24.6c0,0,3.4-0.1,13.6-2
						C158.5,290.7,159.8,289.1,159.8,289.1z"/>
					<path class="st92" d="M148.9,277.9c-1.3-3.2-5.1-6.2-8.6-4.9c-0.7,0.9-1.3,1.9-1.7,2.9c4.7-1.5,4.7,4,5,9c3.4-1,8-0.5,9.4,6.6
						c1.7-0.4,3.3-0.8,5-1.4h0.4C157.6,284.5,153.6,278,148.9,277.9z"/>
					<path class="st93" d="M157.1,295.8c1.8-4.4,7.3-5.5,9.2-2.8L157.1,295.8z"/>
					<path class="st94" d="M138.6,282.9c-1.5,0.7-1.6,2.9-1,4.7c0.6,1.8,2.2,0.6,2.1-1.1C139.5,284.7,139.7,282.3,138.6,282.9z"/>
					<path class="st95" d="M146.8,291.5c-0.1-3.3-1.1-6.6-3.1-6.1s-0.7,3.9-0.3,5.8c0,0-1.3-1.3-2.5-0.3s-0.3,3.3,2.5,4.6l4.9-1
						C151.7,290.1,147.8,288.7,146.8,291.5z"/>
					<path class="st96" d="M145.1,270c-5.4-0.7-6.8-3.7-4.1-3.6s5,2.8,5,2.8L145.1,270z"/>
					<path class="st97" d="M145.5,269.1c-1.9-0.5-3-0.7-3.1-0.1c-0.1,0.7-0.1,1.2,3.2,0.9L145.5,269.1z"/>
					<path class="st98" d="M145.5,270.1c-0.3-0.2-0.5-0.4-0.7-0.7c-0.2-0.3-0.3-0.6-0.3-0.9c0.3-4.8,2.5-6.9,3.4-4.3
						c0.5,1.2,0.8,2.5,1,3.8c4.7-0.6,3,2.7,0,2.8C147.8,270.9,146.6,270.6,145.5,270.1z"/>
					<path class="st99" d="M279.5,277.4c-0.3-6.6-3-9.1-4.4-9.7c-1.4-0.7-1.5,1.9,0.2,5.4c-4.1-2.6-5.6-1.8-5.8-0.7
						c-0.2,1.1,3,2.8,5,3.8c-4.2-0.8-8.4,0.4-2.5,2.4c2.6,1,5.2,1.8,8,2.4L279.5,277.4z"/>
					<path class="st100" d="M273.7,282.1c0.7-7.3,5.3-8.5,5.3-8.5c0.1-3.3,1.8-6.2,3.9-6.3s5.5,1,8.5,3.9s5.7,2.8,5.7,7.8
						C290.5,280.6,277.2,284.1,273.7,282.1z"/>
					<path class="st101" d="M293.8,279.8c0.1-0.7,0-1.5-0.3-2.2s-0.7-1.3-1.3-1.8c-2.1-1.9-2.6-1.5-2.6-1.5c0.7-1.1,1.1-2.4,1.2-3.7
						c-2.8-2.4-5.8-3.6-7.9-3.4c-0.5,0.1-1,0.3-1.4,0.5c-0.4,0.3-0.8,0.6-1,1.1c2.2-0.9,5.8,0.7,6.7,3.4c-3,0.6-3,3.1-2.9,4.7
						c2-1.5,6,0.3,6.1,2c0.1,0.6,0.1,1.2,0.1,1.8L293.8,279.8z"/>
					<path class="st102" d="M278.4,275.3c-1.8,0.9-1.7,2-1.7,2.2s1.2-0.7,2.2-1.1C280,275.9,280.9,274,278.4,275.3z"/>
					<path class="st103" d="M345.3,276c1.4-2.1,6.1-2.5,8.8-0.6L345.3,276z"/>
					<path class="st104" d="M289.6,287.1c-0.3-4.7-1.3-9.2-2.9-13.6c-0.7-1.7-0.7-0.4,0.3,2.8c0.8,3.5,1.5,7.1,2,10.6L289.6,287.1z"
						/>
					<path class="st104" d="M292.9,277.2c0.7-1.6,0.8-1,0.5-0.3c-1.5,3.3-2.8,6.8-3.7,10.3h-0.4
						C290.2,283.7,291.4,280.4,292.9,277.2z"/>
					<path class="st63" d="M286,287.1c-3.6-2.3-15.7-3.4-18.6,2.8L286,287.1z"/>
					<path class="st104" d="M220.6,290.4c1-0.1,1.8-0.4,1.7-0.6c0-0.2-0.8-0.3-1.8-0.2c-1,0.1-1.8,0.4-1.7,0.6
						C218.8,290.4,219.6,290.5,220.6,290.4z"/>
					<path class="st88" d="M318.3,286.3c0.7-0.7,2.1,0,2.9,1l-6.7,0.3C315,286.4,316.6,285.7,318.3,286.3z"/>
					<path class="st104" d="M133.4,292.7c-0.7-3.4-1.9-6.7-3.5-9.8C130.2,286.4,131.4,289.8,133.4,292.7z"/>
					<path class="st104" d="M133.4,292.7c-0.8-3.5-1.1-7.1-0.9-10.6c0.3-1.1,0.5-1.5,0.6,1.1s0.8,9.4,0.8,9.4L133.4,292.7z"/>
					<path class="st63" d="M292.5,294.1l-3.2,0.3L292.5,294.1z"/>
					<path class="st103" d="M337.8,288.9c-5-1.1-15.4,0.7-21.9,2.4c-3-1.3-7.9,1-12,1.9c-2.6-1.5-8.9-1.6-13.3-1.7l-2.2,2.9h0.9
						l3.2-0.3h0.3c11.7,1.3,16.9,3.8,25.3,0.8l3.1-0.9c5.5-1.3,11.1-2.1,16.7-2.2l34.4-0.7v-3.8c-12,0.2-28.2,1-34,2L337.8,288.9z"
						/>
					<path class="st88" d="M334.6,271.6h-15.7c-1.5-1.7-1.7-7.5,2.3-7.1c0-3.9,5.6-5,6.2-1.2c4.9-1.9,6.7,0.4,6.5,2.9
						C340.7,263.7,339.8,269.6,334.6,271.6z"/>
					<path class="st46" d="M372.3,272.4c-3-1.4-12.5,0.1-11.3,6.7c-9.1-0.2-7.3,3.6-7.3,3.6h18.6L372.3,272.4L372.3,272.4z"/>
					<path class="st80" d="M312.1,368h-3.6c-0.2-1.7-0.3-3.3-0.3-4.1s0.3-9.1,0.3-9.1l2.5,0.4c0.1,4.2,0.4,8.4,0.9,12.5L312.1,368z"
						/>
					<path class="st105" d="M258,351.4c0,2.5,0.5,5.8,0.6,7s0.9,0.6,2-1.2c0.7-1.2,1.3-2.6,1.8-3.9c0.1-1.3,0.1-2.6,0-3.8L258,351.4
						z"/>
					<path class="st105" d="M296.9,358.3l-2.2,5.1l-0.4,1.3l-0.7,3.3H292l1.1-3.4l0.5-1.4c0,0,1.7-4.6,1.8-5.1
						c0.1-0.6-0.4-8.7-0.4-8.7l1.9,0.5C297,352.2,296.9,358.3,296.9,358.3z"/>
					<path class="st105" d="M280.4,350.5c0,0-0.7,8.4-1.1,9.4c-0.5,1-1.3,5.1-2.1,7.3c0,0.3-0.1,0.5-0.2,0.7h-13.7v-0.2l0.8-5.6
						v-10.8L280.4,350.5z"/>
					<path class="st106" d="M289.4,334.3c0.9-6,2-11.8,2.9-13.4c0.9-1.7,1.7-2.6,3.7-4.9c2.1-2.2,0.8-0.7,0.8,0.6
						c0,1.3-1,2.1-1.4,4.3c-0.4,2.2-1.2,9.1-1.2,9.1l-0.7,6.1L289.4,334.3z"/>
					<path class="st80" d="M254.6,362.9c-0.3,0.7-1.6,3-2.8,5.1h-6.7c1.1-1.9,2.2-4.4,2.2-5.1s0-10.2,0-10.2l4.7-2.1
						c0,0,1.1,3.5,1.8,6.3C254.4,359.5,255.3,361.5,254.6,362.9z"/>
					<path class="st107" d="M372.3,343.9v-24.2c-28.9,0.5-48.1,4-63.3,7.9c-17.4,0.6-27.1,2.8-32.3,6.3c-18,2-20,3.9-28.7,16.6
						c-2.4,3.5-0.4,2.5,11,1.3c11.4-1.2,29.4-1.3,37.8-1c6.9,6.2,11.6,6.3,21.1,4.1c7.8-1.7,21.8-4.2,21.8-4.2
						c13.7-1.1,32.5-1.9,32.5-1.9v-4.9L372.3,343.9L372.3,343.9z"/>
					<path class="st108" d="M341.5,321.9c-3.9-5.9-3.6-15.6,2.2-13.5c-0.5-9,8.5-8.7,8.8-2c4.2-3.5,9.1-2.5,6.7,3.1
						c3-2.1,7.5-2,7,3.4c-0.5,5.3-8.2,9.1-8.2,9.1h-16.5V321.9z"/>
					<path class="st109" d="M352.3,321l-0.3-0.2l-0.1-0.1c0-0.1-0.1-0.1-0.1-0.2s0-0.1,0-0.2s0-0.1,0.1-0.2c0.7-0.8,1.2-1.7,1.6-2.6
						c0.1-0.1,0.1-0.2,0.1-0.3c0-0.1,0-0.2,0-0.3c0-0.1-0.1-0.2-0.1-0.3c-0.1-0.1-0.1-0.2-0.2-0.2c-0.5-0.4-1.6-0.4-2.8,0.6
						c-0.1,0-0.2,0.1-0.3,0.1c-0.1,0-0.2,0-0.3-0.1c-0.1,0-0.1-0.1-0.2-0.2c0-0.1,0-0.2,0-0.3c0,0,0.3-1.6,0.6-4.8
						c0.2-1.1-0.2-2-0.9-2.2c-0.2-0.1-0.4-0.1-0.6,0s-0.3,0.2-0.4,0.4l-0.3,0.2c-0.2,0.1-0.3,0.1-0.4,0c-0.3-0.1-0.6-0.2-0.8-0.1
						c-0.7,0.4-1,1.5-1.1,3s-0.1,0.3-0.3,0.4c-0.1,0.1-0.1,0.1-0.2,0.1s-0.2,0-0.2-0.1c-0.2-0.2-0.5-0.3-0.8-0.3s-0.6,0-0.8,0.2
						c-0.3,0.2-0.6,0.5-0.7,0.8c-0.2,0.3-0.2,0.7-0.1,1.1c0,0.1-0.1,0.2-0.2,0.3c-0.1,0.1-0.2,0.1-0.3,0.1c-0.1,0-0.2,0-0.3-0.1
						c-0.1-0.1-0.2-0.1-0.2-0.2c-0.1-0.6,0-1.1,0.3-1.7c0.2-0.5,0.6-0.9,1.1-1.2c0.6-0.3,1.3-0.3,2-0.1c0.2-2,1-2.7,1.5-3
						c0.4-0.2,0.9-0.2,1.4-0.1c0.2-0.2,0.5-0.4,0.9-0.5c0.3-0.1,0.7-0.1,1,0c0.9,0.3,1.9,1.3,1.7,3.4c-0.2,2.1-0.4,2.9-0.5,3.7
						c0.5-0.3,1-0.4,1.5-0.4s1.1,0.1,1.5,0.4c0.3,0.3,0.5,0.6,0.6,1s0,0.8-0.1,1.2c-0.4,1.1-1,2-1.8,2.9L352.3,321z"/>
					<path class="st110" d="M364.7,336.6c0,0-1.6-6.2-12.5-7.2s-38.6,5.4-45.9,4.5c-7.4-0.9-11.1,3.6-13.5,9
						c-5-0.2-10.3,1.7-15.5,7.7v0.3c7.6-0.2,15-0.2,19.6,0c6.9,6.2,11.6,6.3,21.1,4.1c7.8-1.7,21.8-4.2,21.8-4.2
						c13.7-1.1,32.5-1.9,32.5-1.9v-12.2L364.7,336.6L364.7,336.6z"/>
					<path class="st76" d="M357.3,341.3c-2.3-8.4,2.7-19.3,15-18.9v18.9H357.3z"/>
					<path class="st91" d="M298.6,340.5c2.4-9.5,2.6-15.4,11.4-18.4c0.4-5,1.1-10,2.3-14.9c0.9-3.9,1.5-6.5,7.4-5.4
						c2.9,0.6,10.8,5.8,10.8,5.8s9.2,3.5,12,5.5c5.2,3.7,6.3,8.4,6.8,13.7c0.3,2.3,0.5,4.7,0.4,7
						C349.7,333.7,328.1,332.9,298.6,340.5z"/>
					<path class="st111" d="M315.3,313.2c2.4,0.7,4,6.3,4,9.1c5,0.1,8.9,7.6,8.9,12.2v0.5c7.1-0.9,14.3-1.3,21.4-1.2
						c0.1-1.1,0-2.2-0.1-3.3c-2.3-2.6-8.7-2.2-11.1-0.7l-1.9-6.1c-1.2-3.9-6.4-4.7-12.4-4.7c0,0-1.1-3.5-2.5-7.2
						c-1.4-3.6-6.6-5.2-9.3-4.8c-0.4,1.8-0.8,3.7-1.2,5.9C312.5,312.8,314,312.8,315.3,313.2z"/>
					<path class="st112" d="M324.1,335.4c2.9-4.4,8.3-5.9,11-4.2c2.7,1.7,4.4,5.6,4.4,5.6s2.6,0,3.2,0.9l-19.9,1.6
						C323.4,337.3,323.4,336.6,324.1,335.4z"/>
					<path class="st76" d="M310.7,333.5c-4.5-0.2-7.5,4.9-4.7,8.6h8.1C316.5,339.2,315.1,333.7,310.7,333.5z"/>
					<path class="st113" d="M271.6,330.9l2.6,1.6l3.2-1l2.6-3.1l-6.1,0.9L271.6,330.9z"/>
					<path class="st114" d="M287.4,322.3c0.4-2.7,2.5-5,5.8-4.2s3.7,6.7,6.3,8.3c0,0-0.3,6-7.3,6.4L287.4,322.3z"/>
					<path class="st115" d="M290.6,339.6c-19.2,1.3-22.6,1.4-22.6,1.4c0.6-2.6,1.4-5.1,2.4-7.6c2-0.8,7.1-2.5,7.1-2.5l0.3-0.7
						c-2.1,0.1-4.1,0.4-6.2,0.7c4.9-9.2,11.3-10.1,15.7-8.6C293.2,324.2,295.3,328,290.6,339.6z"/>
					<path class="st116" d="M265.7,341.3l18.5-1.2c0.4-1,0.7-2.3,1.2-3.6c1-2.8,1.9-5.7-0.6-6.3c-2.4-0.7-4.2,1.7-5.1,4.3l-12.4,1
						C267.2,336.3,266,340.2,265.7,341.3z"/>
					<path class="st117" d="M284.5,333.4c0.4-0.9,0.2-1.9-0.5-2.2c-0.7-0.3-1.6,0.1-2,1s-0.2,1.9,0.5,2.2
						C283.2,334.8,284.1,334.3,284.5,333.4z"/>
					<path class="st118" d="M268.6,336.6l-1,3.4l1.2-0.2l0.7-3.4L268.6,336.6z"/>
					<path class="st118" d="M271.3,336.3l-0.7,3.3l1.1-0.1l0.7-3.3L271.3,336.3z"/>
					<path class="st76" d="M272.1,342.1c2.7-3,6.8-3.3,8.4-2.4c1.8-2.1,5.8-2,5.9,1C278.8,341.2,272.1,342.1,272.1,342.1z"/>
					<path class="st118" d="M274.2,336.2l-0.6,3.2l1.3-0.1l0.6-3.3L274.2,336.2z"/>
					<path class="st119" d="M280.1,328.4c-2.6,0-5.1,0.4-7.6,1l-0.8,1.5c2-0.4,4.1-0.6,6.2-0.7l-0.3,0.7c0,0-5.1,1.7-7.1,2.5
						c-0.2,0.4-0.3,0.7-0.4,1.1l8.7-2.5L280.1,328.4z"/>
					<path class="st4" d="M275.4,321.4l1.8-0.7c0.1,0,0.1-0.1,0-0.1l-1.8-0.7l-0.8-1.8l-0.8,1.8l-1.8,0.7c-0.1,0-0.1,0.1,0,0.1
						l1.8,0.7l0.8,1.8L275.4,321.4z"/>
					<path class="st116" d="M286.1,322.7c2.2,0.5,3.2,1.9,3.3,3c0.1,1.1-1.5,1.3-2.9,0.1C285.1,324.6,283.7,322.2,286.1,322.7z"/>
					<path class="st119" d="M268.4,335.4l-1.4,5.8l-1.2,0.1l1.7-5.9H268.4z"/>
					<path class="st105" d="M300.8,368h-14.4c1.6-2.3,3.5-3.5,5.4-3.5h2.5C297,365.2,299.5,366.2,300.8,368z"/>
					<path class="st105" d="M372.3,352.4v10.2c-4.2,2.4-4.9,3-5.9,5.4h-21.6c0.4-0.8,0.9-1.6,1.4-2.3c1.6-2.3,2-2.6,6.4-5
						C359,357.4,365.5,354.7,372.3,352.4z"/>
					<path class="st120" d="M250.3,331.3c-0.3,0.3-0.6,0.7-0.7,1.1c-0.2,0.4-0.3,0.8-0.3,1.3c0,0.4,0.1,0.9,0.3,1.3s0.4,0.8,0.7,1.1
						c2.6,2.9,4.8,6.1,6.5,9.6l2-2.4c-0.5-3.7-1.5-7.4-2.9-10.9c-0.2-0.5-0.6-0.9-1-1.3c-0.4-0.3-0.9-0.6-1.5-0.7
						c-0.5-0.1-1.1-0.1-1.6,0.1S250.7,330.9,250.3,331.3z"/>
					<path class="st120" d="M249,339.5c6.5,1.4,9.7,3.7,9.7,3.7l-2,2.4c-2.6-1-5.4-1.5-8.2-1.4c-0.4,0-0.7-0.1-1-0.2
						s-0.6-0.4-0.8-0.6c-0.2-0.3-0.4-0.6-0.5-0.9s-0.1-0.7-0.1-1s0.2-0.6,0.3-0.9c0.2-0.3,0.4-0.5,0.7-0.7s0.6-0.3,0.9-0.4
						C248.3,339.4,248.7,339.4,249,339.5z"/>
					<path class="st120" d="M260,337.3c-0.8,3.3-1.3,6-1.3,6l-3,0.4c-0.3-2.4-0.2-4.9,0.3-7.3c0.1-0.3,0.2-0.5,0.3-0.8
						c0.2-0.2,0.4-0.4,0.6-0.6c0.2-0.1,0.5-0.2,0.8-0.3c0.3,0,0.6,0,0.8,0.1c0.5,0.1,1,0.5,1.2,0.9
						C260.1,336.2,260.1,336.8,260,337.3z"/>
					<path class="st121" d="M257.1,344.1h-0.2c-2.8-1-5.7-1.7-8.7-2c-0.3,0-0.5-0.3-0.4-0.5c0-0.1,0.1-0.2,0.1-0.3
						c0.1-0.1,0.2-0.1,0.3-0.1c2.8,0.3,5.5,0.9,8.1,1.7c-0.4-1.2-1.5-3.9-4.5-9.2c0-0.1,0-0.2,0-0.4c0-0.1,0.1-0.2,0.2-0.3
						c0-0.1,0.1-0.1,0.2-0.1c0.1,0,0.1,0,0.2,0s0.1,0.1,0.2,0.1c0,0.1,0.1,0.1,0.1,0.2c4.6,8.1,4.8,10.4,4.9,10.5
						c0,0.1,0,0.2-0.1,0.3c-0.1,0.1-0.1,0.1-0.2,0.2h-0.2L257.1,344.1L257.1,344.1z"/>
					<path class="st121" d="M257.1,344.1c-0.1,0-0.3-0.1-0.3-0.2c-0.1-0.1-0.1-0.2-0.1-0.4c0,0,0.3-3.9,0.8-7.6c0-0.1,0-0.2,0.1-0.3
						c0.1-0.1,0.2-0.1,0.3-0.1c0.1,0,0.3,0.1,0.3,0.2c0.1,0.1,0.1,0.2,0.1,0.4c-0.6,3.6-0.7,7.6-0.7,7.6c0,0.1-0.1,0.3-0.2,0.3
						C257.4,344.1,257.3,344.1,257.1,344.1z"/>
					<path class="st109" d="M358.5,313.5h-0.2c-0.1,0-0.1-0.1-0.2-0.1s-0.1-0.1-0.1-0.2s0-0.1,0-0.2s0-0.1,0-0.2
						c0.5-0.9,0.4-1.2,0.3-1.2s-0.9-0.2-1.5-0.2h-0.2c-0.1,0-0.3,0-0.4-0.1s-0.2-0.2-0.2-0.3c0-0.3-0.1-0.8-0.5-0.9
						s-1.4,0.6-1.8,2.1c-0.1,0.1-0.2,0.2-0.3,0.3c-0.1,0.1-0.3,0.1-0.4,0.1c-0.1-0.1-0.2-0.2-0.3-0.3c-0.1-0.1-0.1-0.3,0-0.4
						c0.5-1.9,1.8-2.8,2.8-2.7c0.3,0.1,0.7,0.2,0.9,0.5c0.2,0.3,0.4,0.6,0.4,0.9c0.9-0.1,1.8,0,2.2,0.6c0.4,0.6,0.3,1.1-0.3,2.1
						C358.3,314.2,358.7,313.5,358.5,313.5z"/>
					<path class="st23" d="M170.7,311.2c-4.1,0-8.2-0.4-12.3-1.1c-0.4,2.2-1.7,4.2-3.6,5.5c-0.2,0.1-0.3,0.3-0.4,0.5
						c-0.1,0.2-0.1,0.4,0,0.6s0.2,0.4,0.4,0.5s0.4,0.2,0.6,0.2c5.6,0.5,9.1,0.6,13.3-0.7c0.4-0.1,0.8-0.4,1-0.7
						c0.3-0.3,0.4-0.7,0.5-1.2L170.7,311.2z"/>
					<path class="st122" d="M159.5,310.1c-1,2.3-2.6,4.8-1.2,4.9c1.4,0.1,3.4-2.8,3.6-4.1C162.3,309.6,159.5,310.1,159.5,310.1z"/>
					<path class="st23" d="M181.9,324.6c4.1-1.7,6.9-3,8.7-5.8c0.4-0.5,0.6-1.1,0.6-1.8c0.1-1.6,0.1-3.2,0.2-4.6
						c-2.3,1.7-6.2,2.7-12.4,2.1c-0.1,2.7-0.6,5.4-1.4,7.9C176.7,325.8,177.4,326.5,181.9,324.6z"/>
					<path class="st123" d="M189.6,315.5c0.3-1.1,0-2.2-0.6-2.4c-0.6-0.2-1.4,0.6-1.7,1.8s0,2.2,0.6,2.4
						C188.5,317.4,189.3,316.6,189.6,315.5z"/>
					<path class="st123" d="M167.6,312.4c0.3-1.1-0.2-2.3-1.2-2.5c-0.9-0.2-2,0.5-2.3,1.6s0.2,2.3,1.2,2.5
						C166.3,314.3,167.3,313.5,167.6,312.4z"/>
					<path class="st122" d="M181.2,314.5c-0.3,3.9-1.5,6.3,0.7,5.8s3.3-1.9,3.4-6.2L181.2,314.5z"/>
					<path class="st87" d="M203.1,283.6c-16.8,2.3-16.8,15.3-16.5,19.3c2.2-0.4,4.2-0.7,5.6-1l4.2-0.7l0.6-5.6
						c11.3-4.1,19.4-8.5,22.1-10.4C221.9,283.3,223.1,280.8,203.1,283.6z"/>
					<path class="st124" d="M206.3,277.3c-6.8,6.3-33.1,21.1-33.1,21.1l-1.4,13.4c-4.9-0.1-9.7-0.5-14.5-1.3
						c0.1-0.4,0.1-0.7,0.2-1.2c0.9-10.1,1.8-17.3,4.3-21.4s14.6-9.7,14.6-9.7L206.3,277.3z"/>
					<path class="st125" d="M204.7,277.3l-28.4,0.9l-3.1,1.4c4.3,2,8.6,3.8,9,13.5c8.1-4.9,19.4-11.8,23.9-15.7L204.7,277.3z"/>
					<path class="st124" d="M206.6,285.7c-0.3,4.3-4.3,7.7-13.6,11.8c0,0-0.2,6-0.6,15c-2.6,2-7.1,3.1-14.4,2.5l0,0
						c0.1-0.2,0.1-0.5,0.1-0.7c0-0.5-0.1-0.9-0.1-1.4c-0.2-5.3-0.5-12.5-0.4-16.2c0.2-6.3-0.4-8.6,12.7-13.3l16-6.1
						C206.7,280.1,206.8,282.9,206.6,285.7z"/>
					<path class="st125" d="M206.6,285.7c0.2-2.8,0.1-5.6-0.3-8.3l-16.1,6.1l-2.4,0.9c8.5-0.8,10.3,3.3,9.3,11.2
						C203.5,292.3,206.3,289.2,206.6,285.7z"/>
					<path class="st87" d="M241.5,291.9c7.2-3.8,14.7-7.2,22.3-10.3c0.2,0,0.5-0.2,0.6-0.4c0.1-0.2,0.2-0.5,0.1-0.7
						s-0.2-0.5-0.4-0.6c-0.2-0.1-0.5-0.2-0.7-0.1c-9.7,0.2-21.9,1.5-21.9,1.5V291.9z"/>
					<path class="st9" d="M254.6,254.6H233l-2.8,27.6l13.6,2c1.8,0.4,3.7,0.5,5.5,0.6c0.9,0,1.7-0.3,2.5-0.7
						c0.8-0.4,1.4-1.1,1.9-1.8c3.3-5.3,3.5-10.3,3.5-14.9C257,262.9,256.1,258.6,254.6,254.6z"/>
					<path class="st126" d="M233.7,272.4l-2.6,0.9l-0.9,8.9l13.6,2c1.8,0.4,3.7,0.5,5.5,0.6c0.9,0,1.7-0.3,2.5-0.7
						c0.8-0.4,1.4-1.1,1.9-1.8c1.7-2.7,2.7-5.7,3.1-8.9C252.2,271.8,243.3,270.9,233.7,272.4z"/>
					<path class="st9" d="M232.3,256.8c-5.3,3.2-6.8,5.8-6.8,5.8l4.9,4.1l6.1-4.1L232.3,256.8z"/>
					
						<linearGradient id="SVGID_00000036231306943482897640000003072457611907299470_" gradientUnits="userSpaceOnUse" x1="246.1462" y1="11.3961" x2="243.0802" y2="22.4911" gradientTransform="matrix(1 0 0 -1 0 239.2756)">
						<stop  offset="0" style="stop-color:#9E2FAD"/>
						<stop  offset="1" style="stop-color:#922DA8"/>
					</linearGradient>
					<path style="fill:url(#SVGID_00000036231306943482897640000003072457611907299470_);" d="M244.9,210.8
						c-7.3-0.3-8.2,9.1-6.2,19.6l9.4-0.6C252.7,218.5,252.2,211,244.9,210.8z"/>
					<path class="st128" d="M245.2,228.8L245.2,228.8c-0.2,0-0.2,0-0.3,0s-0.1-0.1-0.2-0.1c0-0.1-0.1-0.1-0.1-0.2
						c0-0.1,0-0.1,0.1-0.2c0.3-2.9,0.9-5.7,1.6-8.5c0-0.1,0.1-0.2,0.2-0.2c0.1-0.1,0.2-0.1,0.3,0c0.1,0,0.1,0.1,0.2,0.1
						c0.1,0,0.1,0.1,0.1,0.2c0,0.1,0,0.1,0,0.2c0,0.1,0,0.1,0,0.2c-0.7,2.7-1.2,5.5-1.5,8.3c0,0.1-0.1,0.2-0.2,0.2
						C245.4,228.7,245.4,228.8,245.2,228.8z"/>
					<path class="st128" d="M251,217.5c-0.2-1.5-0.7-2.4-1.6-2.6c-0.8-0.2-3.7,1.1-4.7,2.8l-0.4,0.2c-0.1,0.1-0.3,0-0.4-0.1
						c-0.2-0.3-0.5-0.6-0.9-0.7c-0.4-0.1-0.8-0.1-1.1,0c-1.4,0.7-2.3,4.2-0.8,11.7c0.1,0.2-0.1,0.5-0.4,0.6h-0.1
						c-0.1,0-0.2-0.1-0.3-0.1c-0.1-0.1-0.1-0.1-0.2-0.2c-1.4-6.9-0.9-11.5,1.3-12.7c0.5-0.2,1-0.3,1.5-0.2s1,0.3,1.3,0.7
						c1.2-1.8,3.6-3.3,5.4-2.7l0.7,0.4C250.8,215.3,251,216.4,251,217.5z"/>
					
						<linearGradient id="SVGID_00000132786075746714501370000008061880489129238670_" gradientUnits="userSpaceOnUse" x1="255.8738" y1="-17.3066" x2="240.1118" y2="2.0914" gradientTransform="matrix(1 0 0 -1 0 239.2756)">
						<stop  offset="0" style="stop-color:#9E2FAD"/>
						<stop  offset="1" style="stop-color:#AE3DC6"/>
					</linearGradient>
					<path style="fill:url(#SVGID_00000132786075746714501370000008061880489129238670_);" d="M245.9,258.3c16.5-1,29.5-8.5,29-16.8
						s-14.3-14.3-30.8-13.4c-16.5,1-29.5,8.5-29,16.8C215.6,253.2,229.4,259.2,245.9,258.3z"/>
					<path class="st130" d="M252.1,251c2.1-0.2,3.6-1.5,3.4-2.9c-0.2-1.3-2-2.2-4-2c-2.1,0.2-3.6,1.5-3.4,2.9
						C248.3,250.4,250.1,251.2,252.1,251z"/>
					<path class="st131" d="M228.6,250.7c0.2-1.1-1.3-2.3-3.3-2.7s-3.8,0.2-4.1,1.3c-0.2,1.1,1.3,2.3,3.3,2.7
						C226.6,252.4,228.4,251.8,228.6,250.7z"/>
					<path class="st132" d="M230.4,252.3h-0.2c-1.2-0.1-2.4-0.5-3.5-1.1s-2-1.4-2.8-2.3c-3-3.5-3.6-7.9-1.5-10.2
						c0.4-0.4,0.9-0.8,1.5-1s1.2-0.3,1.8-0.3c1.2,0.1,2.4,0.4,3.5,1s2,1.3,2.8,2.3c3.2,3.5,3.8,8.2,1.5,10.5
						C232.6,251.9,231.5,252.3,230.4,252.3z M225.7,238.3c-0.5,0-0.9,0.1-1.4,0.2c-0.4,0.2-0.8,0.4-1.2,0.8
						c-1.8,1.9-1.1,5.9,1.5,8.9c1.3,1.7,3.3,2.9,5.5,3.2c1,0,1.9-0.3,2.6-0.9c2-2,1.2-6.1-1.5-9.2c-0.7-0.9-1.5-1.6-2.5-2.1
						C227.8,238.7,226.8,238.4,225.7,238.3z"/>
					<path class="st9" d="M221.8,243.8c-0.1,0-0.2-0.1-0.3-0.1c-0.1-0.1-0.1-0.2-0.1-0.3c-0.2-0.8-0.2-1.7,0-2.5s0.6-1.6,1.1-2.2
						c0.1-0.1,0.2-0.1,0.4-0.1s0.3,0.1,0.4,0.1c0.2,0.1,0.2,0.5,0,0.7c-0.5,0.5-0.8,1.2-0.9,1.8c-0.2,0.7-0.2,1.4,0,2.1
						c0,0.1,0,0.1,0,0.2c0,0.1,0,0.1-0.1,0.2s-0.1,0.1-0.1,0.1C222,243.8,221.9,243.8,221.8,243.8L221.8,243.8z"/>
					<path class="st132" d="M244.1,251.9c-1.1,0-2.2-0.3-3.1-1c-2.6-2.1-2.4-6.9,0.4-10.8c1.5-2.3,3.8-3.9,6.5-4.5
						c1.3-0.2,2.7,0.1,3.8,0.8c0.6,0.4,1,0.9,1.4,1.5c0.3,0.6,0.5,1.3,0.6,1.9c0.1,1.4,0,2.8-0.4,4.1s-1.1,2.6-1.9,3.6
						c-0.7,1.1-1.7,2-2.8,2.8c-1.1,0.7-2.4,1.2-3.7,1.4L244.1,251.9z M242.2,240.6c-2.4,3.5-2.7,7.8-0.5,9.5
						c0.4,0.3,0.9,0.6,1.5,0.7c0.5,0.1,1.1,0.1,1.6,0c2.4-0.5,4.4-1.8,5.8-3.8c1.7-2.2,2.5-4.9,2.2-7c-0.1-0.6-0.2-1.1-0.5-1.6
						s-0.6-0.9-1.1-1.3c-0.9-0.6-2-0.8-3.1-0.7C245.6,237,243.5,238.5,242.2,240.6z"/>
					<path class="st9" d="M240.6,242.8h-0.2c-0.1,0-0.1-0.1-0.1-0.1s-0.1-0.1-0.1-0.2c0-0.1,0-0.1,0-0.2c0-0.1,0-0.1,0.1-0.2
						c0.3-0.8,0.7-1.5,1.2-2.1c0.6-0.8,1.2-1.6,2-2.2c0.1-0.1,0.2-0.1,0.3-0.1s0.2,0.1,0.3,0.2c0.1,0.1,0.1,0.2,0.1,0.3
						s0,0.2-0.1,0.3c-0.7,0.6-1.3,1.3-1.9,2.1c-0.4,0.6-0.8,1.3-1.1,2c0,0.1-0.1,0.2-0.2,0.2C240.8,242.8,240.7,242.8,240.6,242.8z"
						/>
					<path class="st133" d="M243.3,245.8c1.1-1.2,2.6-1.9,4.2-2.1"/>
					<path class="st134" d="M230.7,247.6c-0.2,0-0.5-0.1-0.7-0.3c-0.4-0.4-0.9-0.8-1.4-1s-1.1-0.4-1.7-0.4c-0.2,0-0.5-0.2-0.6-0.4
						c-0.2-0.2-0.3-0.4-0.3-0.7s0.1-0.5,0.3-0.7s0.4-0.3,0.7-0.3c1.6,0.1,3.1,0.7,4.3,1.9c0.1,0.1,0.2,0.2,0.3,0.3s0.1,0.2,0.1,0.4
						c0,0.1,0,0.3-0.1,0.4c0,0.1-0.1,0.2-0.2,0.3C231.3,247.4,231,247.5,230.7,247.6z"/>
					<path class="st135" d="M237.3,252.9c-0.5,0-1.1-0.2-1.5-0.6c-0.4-0.3-0.8-0.8-0.9-1.3c0-0.1,0-0.1,0-0.2c0-0.1,0-0.1,0-0.2
						c0-0.1,0.1-0.1,0.1-0.2c0.1,0,0.1-0.1,0.2-0.1c0.3-0.2,0.6,0,0.7,0.3c0.1,0.3,0.3,0.6,0.5,0.8c0.3,0.2,0.6,0.3,0.9,0.3
						c0.6,0,1-0.5,1.3-1.3c0.1-0.1,0.2-0.3,0.3-0.3c0.1-0.1,0.3-0.1,0.4-0.1c0.1,0,0.1,0.1,0.2,0.1c0.1,0,0.1,0.1,0.1,0.2
						c0,0.1,0,0.1,0,0.2c0,0.1,0,0.1,0,0.2c-0.1,0.6-0.4,1.1-0.8,1.5C238.4,252.6,237.9,252.8,237.3,252.9z"/>
					<path class="st69" d="M246.7,258.2l-13.7,4.7l-10.9-4c-0.1-0.1-0.2,0.1-0.1,0.2l7.9,11.2l0.5,0.3l10.1,4.3l13.5-4.2
						c0.1,0,0.1,0,0.2-0.1c0.1,0,0.1-0.1,0.1-0.1c0-0.1,0-0.1,0-0.2s0-0.1-0.1-0.2l-7-11.6c-0.1-0.1-0.1-0.2-0.2-0.2
						C247,258.2,246.9,258.2,246.7,258.2z"/>
					<path class="st136" d="M232.8,261c1-3.4,6-5.3,10-5.1l1.8,3.1l-11.5,3.9L232.8,261z"/>
					<path class="st137" d="M240.6,274.8l-7.5-12l13.7-4.7c0.1,0,0.2,0,0.3,0.1c0.1,0,0.2,0.1,0.2,0.2l7,11.6c0,0.1,0,0.1,0.1,0.2
						c0,0.1,0,0.1,0,0.2s-0.1,0.1-0.1,0.1c-0.1,0-0.1,0.1-0.2,0.1L240.6,274.8z"/>
					<path class="st138" d="M222.6,258.9l0.7-1.1c0.1-0.2,0.3-0.4,0.6-0.5c4-1.1,7.8,1.7,8.9,3.6c2.7-3.2,8.9-5,12.5-3.8
						c0.2,0,0.3,0.1,0.4,0.3l0.6,0.9l-13.2,4.5L222.6,258.9z"/>
					
						<linearGradient id="SVGID_00000147192338245972683820000011089249127078591128_" gradientUnits="userSpaceOnUse" x1="11036.7275" y1="-9218.8438" x2="10801.2275" y2="-9018.8438" gradientTransform="matrix(1 0 0 -1 0 239.2756)">
						<stop  offset="0" style="stop-color:#9E2FAD"/>
						<stop  offset="1" style="stop-color:#AE3DC6"/>
					</linearGradient>
					<path style="fill:url(#SVGID_00000147192338245972683820000011089249127078591128_);" d="M226.1,274.2c0.5,8.6,0.6,13,0.4,15.6
						c-0.2,2.6-0.7,4.9,2.2,4.7c2.8-0.3,4-1.3,5.6-3.6c1.6-2.3,2.2-13.4,2.1-17.7c-0.1-4.4-2.3-6.7-5.9-6.3
						C226.8,267.1,225.9,269.6,226.1,274.2z"/>
					<path class="st140" d="M226.4,281.4c0.1,4.1,0.1,6.6,0,8.4s-0.7,4.9,2.2,4.7c2.8-0.3,4-1.3,5.6-3.6c1.6-2.3,1.4-5.1,1.8-9.1
						C232.9,279.4,228.5,279.8,226.4,281.4z"/>
					<path class="st97" d="M228.6,294.4c2.9-0.3,4-1.3,5.6-3.6c0.2-0.3,0.3-0.5,0.4-0.8c-0.2,0-0.4,0-0.6,0c-0.2,0-0.3,0.1-0.5,0.3
						c-2.2,2-6.5,2.1-7.2,0C226.3,292.7,226,294.6,228.6,294.4z"/>
					<path class="st31" d="M235,283.3c0.5,0.1,0.5,0.6,0.7,0.6c0-0.5,0.1-1,0.2-1.5c-3.8-1.5-6.8-1.7-9.5,0v0.8c1.3-0.6,2.8-1,4.3-1
						C232.2,282.3,233.6,282.6,235,283.3z"/>
					
						<linearGradient id="SVGID_00000157307370954258287380000013485696823485439890_" gradientUnits="userSpaceOnUse" x1="27269.6211" y1="-8248.7266" x2="27090.5215" y2="-8194.3467" gradientTransform="matrix(1 0 0 -1 0 239.2756)">
						<stop  offset="0" style="stop-color:#9E2FAD"/>
						<stop  offset="1" style="stop-color:#AE3DC6"/>
					</linearGradient>
					<path style="fill:url(#SVGID_00000157307370954258287380000013485696823485439890_);" d="M249.3,284.7c1-0.1,1.9-0.4,2.7-0.9
						s1.5-1.2,2-2.1c0.5-0.8,0.7-1.8,0.7-2.7c0-1-0.2-1.9-0.7-2.7c-3-5.8-6.7-10.7-11.6-10.1c-4.9,0.7-6.4,4.9-8.5,22.8
						c-0.2,1.3-0.8,2.6-1.8,3.5c-0.5,0.5-0.9,1-1.2,1.5c-0.8,1.3,5.8-0.1,10.4-2.1c0.2-0.1,0.4-0.3,0.6-0.5c0.2-0.2,0.3-0.4,0.4-0.7
						c1.6-6.2,1.6-6.6,1.6-6.6C245.6,284.5,247.4,284.7,249.3,284.7z"/>
					<path class="st130" d="M246.8,273.5c-0.1,0-0.1,0-0.2,0c-0.1,0-0.1,0-0.2,0.1c-0.1,0-0.1,0.1-0.2,0.1c0,0.1-0.1,0.1-0.1,0.2
						c-0.2,1-0.9,5.2-1.2,6.2c-0.3,0.9-1,4.1-1,4.1l0.7,0.2c1-3.1,1.7-6.3,2.2-9.5c0.1-0.2,0.2-0.4,0.2-0.7
						C247,273.9,246.9,273.7,246.8,273.5z"/>
					<path class="st126" d="M253.9,276.3c-1.7-3.3-3.6-6.3-6-8.2c2.2,2.3,1.3,8.8-3,12l-1,4.1c1.8,0.4,3.5,0.5,5.3,0.6
						c1-0.1,1.9-0.4,2.7-0.9s1.5-1.2,2-2.1c0.5-0.8,0.7-1.8,0.7-2.7C254.6,278.1,254.4,277.2,253.9,276.3z"/>
					<path class="st142" d="M255.4,256.8l-2,0.4l0.4,5.2l-6.3-0.4c-4.9-0.3-4.8,2.2-2.2,3.6s11.6,5.5,15,3.6
						C263.7,267.4,261.4,262.1,255.4,256.8z"/>
					<path class="st142" d="M228.7,263.6c-0.5-0.7-1-1-2.5-0.8s-3.9,1-4.7,2.3c-0.7,1.3-0.2,5.4,5.5,2
						C229.4,265.6,229.2,264.5,228.7,263.6z"/>
					<path class="st136" d="M232.3,262.7l0.7,0.2l0.7-0.2l-0.9-0.8L232.3,262.7z"/>
					<path class="st17" d="M235,280c-0.4,2.5-0.7,5.5-1.2,9c0,0.6-0.2,1.1-0.5,1.7c-0.3,0.5-0.6,1-1.1,1.3c-0.8,0.5-1.4,1.3-1.6,2.2
						c-0.4,1.5,6-0.3,10.7-2.2c0.2-0.1,0.5-0.2,0.6-0.4c0.2-0.2,0.3-0.4,0.4-0.7l2.4-9.8c-1.7-1.3-3.8-1.9-5.9-2
						C237.5,279.1,236.1,279.4,235,280z"/>
					<path class="st31" d="M234.8,281.4c1.6-0.6,3.3-0.7,5-0.5s3.3,0.8,4.7,1.7l-0.3,0.9c-2.3-1.1-6.2-2.3-9.5-1.1L234.8,281.4z"/>
					<path class="st97" d="M233.1,291L233.1,291c-0.3,0.4-0.6,0.8-1,1c-0.8,0.7-1.6,1.2-1.7,2.3c-0.1,1.1,6.2-0.4,10.9-2.3
						c0.2-0.1,0.5-0.3,0.6-0.4c0.2-0.2,0.3-0.4,0.4-0.7c0.1-0.5,0.2-0.9,0.4-1.4C239.7,291.1,236.3,291.6,233.1,291z"/>
					<path class="st143" d="M246.1,279l-1.1,1c-0.2,0.9-1,4.1-1,4.1l0.7,0.2C245.3,282.6,245.7,280.8,246.1,279z"/>
					<path class="st143" d="M251.9,272.3h-0.4c0.8,1.2,1.5,2.4,2.2,3.6l0.8-0.5C253.9,274.2,253,273.2,251.9,272.3z"/>
					<path class="st9" d="M255.4,256.8l-2,0.4l-1.6,4.8l2,0.5h1.8c1.1-0.8,2.3-1.6,3.6-2.3C258,258.8,256.8,257.7,255.4,256.8z"/>
					<path class="st128" d="M255.5,262.5h2.2c0.9,0.1,0.8-0.7,0-0.7l-1.5,0.2L255.5,262.5z"/>
					<path class="st144" d="M173.2,298.4c0.1-1.3,0.4-3.7,0.4-4.7c0-0.9,1.1-1.5,1.1-0.5s-0.2,2.8-0.4,4.6L173.2,298.4z"/>
					<path class="st144" d="M194.2,291.2c-0.4-1.1-1.1,0-1.1,1.2s0.1,2.7,0,5l1.2-0.6C194.6,295,194.5,293,194.2,291.2z"/>
					<path class="st145" d="M193,285.5c-0.2,0-0.3,0-0.5-0.1c-0.1-0.1-0.3-0.2-0.4-0.3c-1.8-2.6-3.6-5.2-5.4-7.7
						c-0.1-0.2-0.2-0.5-0.2-0.7c0-0.3,0.2-0.5,0.3-0.7c0.2-0.1,0.5-0.2,0.8-0.1s0.5,0.2,0.6,0.4c1.9,2.4,3.7,5,5.5,7.8
						c0.1,0.2,0.2,0.5,0.1,0.8c-0.1,0.3-0.2,0.5-0.4,0.6L193,285.5z"/>
					<path class="st146" d="M207.2,253c-3.7-1.4-9-2.1-16.5-1.6s-10.8,1.2-14.2,2.6c-4.6,10.3-3.6,18-0.1,24.3
						c5.1,2.2,10.7,3.1,16.3,2.6c5.2-0.3,10.3-0.9,13.8-2.4C209.7,269.1,210.4,258.5,207.2,253z"/>
					<path class="st147" d="M182.6,264.7l-5.7-0.6c-0.3-0.1-0.5-0.3-0.5-0.5c0-1.4,0.2-2.7,0.6-4c0.1-0.2,0.4-0.4,0.6-0.3
						c0.2,0.1,0.5,0.3,0.4,0.6c-0.3,1.1-0.4,2.2-0.5,3.3l4.7,0.5c0.1-1.2,0.3-2.4,0.7-3.5c0-0.2,0.3-0.4,0.6-0.3
						c0.1,0,0.1,0,0.2,0.1c0.1,0,0.1,0.1,0.1,0.1c0,0.1,0.1,0.1,0.1,0.2s0,0.1,0,0.2c-0.4,1.2-0.6,2.5-0.7,3.8c0,0.2,0,0.3-0.2,0.4
						L182.6,264.7z"/>
					<path class="st147" d="M185.9,280.3c-0.1,0-0.2,0-0.3-0.1s-0.1-0.2-0.1-0.3c-1.6-14.2,0.1-19.3,2.8-25.4
						c0.1-0.1,0.1-0.2,0.3-0.3s0.3-0.1,0.4,0c0.1,0.1,0.2,0.1,0.3,0.3c0.1,0.1,0.1,0.3,0,0.4c-2.7,6-4.3,10.9-2.8,24.9
						c0,0.1,0,0.3-0.1,0.4C186.2,280.2,186.1,280.3,185.9,280.3z"/>
					<path class="st148" d="M167.6,229.4c0.2,4.7,11.9,5.4,11.9,5.4l1.1-4.2L167.6,229.4z"/>
					<path class="st149" d="M196.9,223L196.9,223c0.1-0.6-0.2-1.1-0.7-1.2l-2.6-0.5c-0.5-0.1-1,0.2-1.1,0.7v0.1
						c-0.1,0.5,0.2,1,0.7,1.1l2.6,0.6C196.3,223.8,196.8,223.5,196.9,223z"/>
					<path class="st68" d="M176.6,245.8c2.8,0,5.1-2.3,5.1-5.1s-2.3-5.1-5.1-5.1s-5.1,2.3-5.1,5.1S173.7,245.8,176.6,245.8z"/>
					<path class="st150" d="M190.8,255.5c9.1,0,16.6-7.4,16.6-16.5s-7.4-16.5-16.6-16.5c-9.1,0-16.6,7.4-16.6,16.5
						S181.6,255.5,190.8,255.5z"/>
					<path class="st149" d="M181.6,225.2c-2,1.3-3.7,3.1-5,5.2c-1.3,2.1-2.1,4.4-2.3,6.8c13.4,0.5,23-4.1,24.9-5.9
						S189.3,227.1,181.6,225.2z"/>
					<path class="st149" d="M185.3,245.5h-0.2c-0.6-0.1-1.2-0.3-1.7-0.7s-0.8-0.9-1-1.5c-0.1-0.2-0.1-0.4,0-0.6
						c0.1-0.2,0.2-0.3,0.4-0.4c0.2,0,0.4,0,0.6,0.1c0.2,0.1,0.3,0.2,0.4,0.4c0.1,0.3,0.2,0.6,0.5,0.8c0.2,0.2,0.5,0.4,0.8,0.4
						c0.4,0,0.8-0.2,1.1-0.4s0.6-0.5,0.8-0.9c0-0.1,0.1-0.2,0.2-0.2c0.1-0.1,0.2-0.1,0.3-0.1s0.2,0,0.3,0s0.2,0,0.3,0.1
						c0.1,0,0.2,0.1,0.2,0.2c0.1,0.1,0.1,0.2,0.1,0.3s0,0.2,0,0.3s0,0.2-0.1,0.3c-0.3,0.6-0.7,1.1-1.3,1.4
						C186.6,245.3,185.9,245.5,185.3,245.5z"/>
					<path class="st151" d="M205.6,245.8c3.1,0,5.6-2.5,5.6-5.6s-2.5-5.6-5.6-5.6s-5.6,2.5-5.6,5.6S202.5,245.8,205.6,245.8z"/>
					<path class="st123" d="M210.4,240.5c0.2-2-0.7-3.6-2-3.7c-1.3-0.1-2.5,1.4-2.7,3.3c-0.2,2,0.7,3.6,2,3.7
						S210.2,242.4,210.4,240.5z"/>
					
						<linearGradient id="SVGID_00000066483691928068326230000016881275328189419705_" gradientUnits="userSpaceOnUse" x1="177.128" y1="11.7256" x2="206.128" y2="11.7256" gradientTransform="matrix(1 0 0 -1 0 239.2756)">
						<stop  offset="0" style="stop-color:#9E2FAD"/>
						<stop  offset="1" style="stop-color:#B84DCF"/>
					</linearGradient>
					<path style="fill:url(#SVGID_00000066483691928068326230000016881275328189419705_);" d="M190.9,222.2c-2.7,0-5.4,0.6-7.8,1.9
						c-2.4,1.3-4.4,3.1-5.9,5.4c6.3,0.6,25.4,2.9,29,3.4C203.7,226.8,197.8,222.2,190.9,222.2z"/>
					<path class="st148" d="M197.8,233.4h-0.2c-0.1,0-11.7-1.7-29.3-3.1c-0.1,0-0.2,0-0.3-0.1s-0.2-0.1-0.3-0.2
						c-0.1-0.1-0.1-0.2-0.2-0.3c0-0.1,0-0.2,0-0.3s0-0.2,0.1-0.3c0-0.1,0.1-0.2,0.2-0.3c0.1-0.1,0.2-0.1,0.3-0.1s0.2,0,0.3,0
						c17.6,1.4,29.3,3.1,29.4,3.1c0.2,0.1,0.4,0.2,0.6,0.4c0.1,0.2,0.2,0.4,0.2,0.6c-0.1,0.2-0.2,0.3-0.3,0.5
						C198.2,233.3,198,233.4,197.8,233.4z"/>
					<path class="st153" d="M181.3,239.8H181c-0.3-0.2-0.7-0.3-1-0.3c-0.4,0-0.7,0.1-1,0.3c-0.1,0-0.2,0.1-0.3,0.1s-0.2,0-0.3,0
						s-0.2-0.1-0.3-0.2c-0.1-0.1-0.1-0.2-0.2-0.2c0-0.1-0.1-0.2-0.1-0.3s0-0.2,0-0.3s0.1-0.2,0.1-0.3c0.1-0.1,0.1-0.1,0.2-0.2
						c0.5-0.3,1.1-0.4,1.7-0.4c0.6,0,1.2,0.1,1.7,0.4c0.1,0,0.2,0.1,0.3,0.2c0.1,0.1,0.1,0.2,0.2,0.3c0,0.1,0.1,0.2,0,0.3
						c0,0.1,0,0.2-0.1,0.3s-0.2,0.2-0.3,0.3C181.6,239.8,181.5,239.8,181.3,239.8z"/>
					<path class="st153" d="M192.2,239.8h-0.4c-0.3-0.2-0.6-0.3-1-0.3s-0.7,0.1-1,0.3c-0.1,0-0.2,0.1-0.3,0.1s-0.2,0-0.3,0
						s-0.2-0.1-0.3-0.1c-0.1-0.1-0.1-0.1-0.2-0.2c-0.1-0.1-0.1-0.2-0.1-0.3s0-0.2,0-0.3s0.1-0.2,0.1-0.3c0.1-0.1,0.1-0.2,0.2-0.2
						c0.5-0.3,1.2-0.5,1.8-0.5s1.2,0.2,1.8,0.5c0.2,0.1,0.3,0.3,0.3,0.5c0.1,0.2,0,0.4-0.1,0.6c-0.1,0.1-0.2,0.2-0.3,0.2
						C192.4,239.8,192.3,239.8,192.2,239.8z"/>
					<path class="st4" d="M187.8,227.4c0.9-0.8,1.2-1.9,0.6-2.6c-0.6-0.7-1.8-0.6-2.7,0.2s-1.2,1.9-0.6,2.6
						C185.7,228.2,186.9,228.2,187.8,227.4z"/>
					<path class="st150" d="M207.3,253c-4.9-0.1-7.7,6.5-8,15.7c0,0-7.7,1-12.4,2.1c-4.8,1.1-6.2,3.9-5.9,6.3
						c0.3,2.3,2.3,4.7,8.8,4.7h2.2l4-0.4c13.8-1.7,20.2-8.5,19.7-16.2C215.4,259.9,213.4,255.4,207.3,253z"/>
					<path class="st145" d="M185.9,275.5c-0.2,0-0.3,0-0.5-0.1c-0.1-0.1-0.3-0.2-0.4-0.3l-3.6-4.5c-0.1-0.1-0.2-0.2-0.2-0.3
						c0-0.1,0-0.3,0-0.4s0.1-0.3,0.1-0.4c0.1-0.1,0.2-0.2,0.3-0.3c0.2-0.2,0.5-0.2,0.7-0.2c0.3,0,0.5,0.1,0.7,0.3
						c1.2,1.5,2.4,3,3.6,4.6c0.1,0.1,0.2,0.2,0.2,0.3c0,0.1,0.1,0.3,0,0.4c0,0.1-0.1,0.3-0.1,0.4c-0.1,0.1-0.2,0.2-0.3,0.3
						L185.9,275.5z"/>
					<path class="st150" d="M185.8,265.1c-1.5-1.4-5.3-1.6-10.9,0.2c-0.1-3.9,0.5-7.8,1.9-11.5c-9.5,2.8-14.2,12-11.3,18.2
						s9.7,4.6,14.8,2.5C189.6,270.6,188.2,267.2,185.8,265.1z"/>
					<path class="st145" d="M179.3,267.4c-0.1,0-0.3,0-0.4-0.1c-0.1,0-0.2-0.1-0.3-0.2c-14.2-16.4-32.1-29.3-52.2-37.5
						c-0.2-0.1-0.4-0.3-0.5-0.5s-0.1-0.5,0-0.8c0.1-0.2,0.3-0.4,0.6-0.5c0.2-0.1,0.5-0.1,0.8,0c20.4,8.4,38.6,21.4,53,38.1
						c0.2,0.2,0.2,0.5,0.2,0.7c0,0.3-0.1,0.5-0.3,0.7C179.7,267.3,179.5,267.4,179.3,267.4z"/>
					<path class="st154" d="M199.3,268.7l3.1-0.4c1.4-0.1,0.9-1.5,0-1.2l-3.1,0.7V268.7z"/>
					<path class="st154" d="M170.3,265.5c-1.8,0.2-1.8,2.1-0.2,1.4s3.2-1.2,4.9-1.6v-0.4L170.3,265.5z"/>
					<path class="st147" d="M197,266.6L197,266.6l-6.7-0.7c-0.1,0-0.2-0.1-0.3-0.2s-0.1-0.2-0.1-0.3c0-1.3,0.1-2.6,0.5-3.9
						c0.1-0.1,0.2-0.2,0.3-0.3c0.1-0.1,0.3-0.1,0.4-0.1c0.1,0.1,0.2,0.2,0.3,0.3c0.1,0.1,0.1,0.3,0,0.4c-0.3,1-0.4,2.1-0.5,3.2
						l5.7,0.7c0.1-1.2,0.3-2.4,0.6-3.5c0-0.1,0.1-0.1,0.1-0.2c0,0,0.1-0.1,0.2-0.1c0.1,0,0.1,0,0.2,0c0.1,0,0.1,0,0.2,0
						c0.2,0,0.4,0.3,0.3,0.6c-0.3,1.3-0.5,2.5-0.6,3.8c0,0.1-0.1,0.3-0.2,0.4L197,266.6z"/>
					<path class="st9" d="M127.6,352.7c-0.1,0-0.1,0-0.2-0.1s-0.1-0.1-0.1-0.2V229.9c0-0.2,0.1-0.3,0.2-0.3h0.3
						c4.5,6.9,10.9,5.4,11,5.4s0.2,0,0.2,0.2c2.7,6.8,11.2,9,14.3,9.2l0.2,0.2c3,9.2,13.6,13.5,18,14.9c0.1,0.1,0.2,0.2,0.1,0.4v0.1
						c0,0,0,0-0.1,0h-0.1h-0.1c-4.4-1.4-15.1-5.8-18.2-15.1c-3.3-0.3-11.6-2.5-14.4-9.3c-1.1,0.2-6.7,0.8-10.9-4.9v121.8
						C127.8,352.6,127.7,352.7,127.6,352.7z"/>
					<path class="st9" d="M127.6,357.6c1.6,0,2.9-1.3,2.9-2.9s-1.3-2.9-2.9-2.9s-2.9,1.3-2.9,2.9C124.7,356.3,126,357.6,127.6,357.6
						z"/>
					<path class="st155" d="M124.9,353.7h5.4l-0.6-0.9h-4.3C125.2,353,125,353.4,124.9,353.7z"/>
					<path class="st156" d="M178.1,315c7.3,0.6,11.8-0.6,14.4-2.5c0.1-1.5,0.1-2.8,0.2-4.1c-3.6,1.1-8.4,1.8-14.8,2
						c0,0.8,0.1,1.7,0.1,2.5s0.1,0.9,0.1,1.4C178.1,314.5,178,314.7,178.1,315L178.1,315z"/>
					<path class="st156" d="M157.9,305.9c-0.2,1.1-0.3,2.2-0.4,3.5c-0.1,1.2-0.1,0.8-0.2,1.2c4.8,0.8,9.6,1.3,14.5,1.3l0.5-4.5
						C167.4,307.2,162.6,306.7,157.9,305.9z"/>
				</g>
			</g>
		</g>
	</g>
	<g>
		<g>
			<g>
				<defs>
					<rect id="SVGID_00000176743507399779967280000011724009204449080721_" x="0.3" width="372.3" height="368"/>
				</defs>
				<clipPath id="SVGID_00000155119322941479021730000002355783245610217877_">
					<use xlink:href="#SVGID_00000176743507399779967280000011724009204449080721_"  style="overflow:visible;"/>
				</clipPath>
				<g style="clip-path:url(#SVGID_00000155119322941479021730000002355783245610217877_);">
					<path class="st158" d="M372.6,292.3H129.2c-57.8-89.4-0.2-136.1,46.4-141.8c-3.7-64.4,57.3-98,107.3-67.7
						c15.4-20.9,43.6-57,89.6-32.2L372.6,292.3z"/>
					<path class="st10" d="M311.7,133.7l20.6,0.2c-0.7-8.3-5.1-8.1-6.8-7.4c-0.3-6.1-3.7-8-7.2-7.5
						C314.7,119.6,311.6,123.1,311.7,133.7z"/>
					<path class="st18" d="M320.4,227.7c-2.2,3.2-8.5,11.3-14.8,15.8s-23.2,8.8-30.5,10.6c-7.3,1.9-16.1-6-19.3-9.2
						c-3.2-3.3-8-7.1-11.4-10.2c-3.4-3.1-6.9-5.8-7.2-8.3s-1.8-13.4-2.2-18.8c-0.4-5.3-1.2-7.6-2.1-8.9c-0.8-1.3-8.4-9.9-9.7-11.9
						s-3.9-4.1-4.2-6.8s-1.9-12.7-1.9-16.1s-1-24.5-1-26.2s0.3-2.5,4.2-3.2s11.6-0.7,23.8-1.2s77.4-0.8,84.7,0s7.9,1.5,7.9,5.7
						s-1.3,16.7-1.6,21.4c-0.3,3.9-1.3,7.8-2.9,11.4c-1.3,3-3.4,6.9-3.6,11.6c-0.3,4.7-1.5,21.6-2.2,32.4
						C326,222.8,322.7,224.5,320.4,227.7z"/>
					<path class="st19" d="M305.6,138.2l14.4-0.4c0,0,0.7,9.6,0.7,11.5c-0.4,3.2-1.4,6.4-3,9.2c-1.3,2.1-3.7,7.9-3.6,9.2
						s-0.2,5.4-0.4,8.3c-0.1,0.9-0.3,1.8-0.8,2.6s-1.2,1.4-2,1.8l-14,8c-0.3,0.2-0.7,0.3-1.1,0.3s-0.8-0.1-1.1-0.3
						c-0.3-0.2-0.6-0.5-0.8-0.8c-0.2-0.3-0.3-0.7-0.3-1.1c0.1-3.5,0.1-7.8,0.4-9.6s-0.2-13.3-0.4-15.7c-0.2-2.3-0.7-12.1,0.9-18.7
						L305.6,138.2z"/>
					<path class="st159" d="M218.2,161.3l0.9-10.5c0,0,0.6-5.1,1-7c0.5-1.9,2.7-7.2,2.7-7.2l-3.3-1.8c-3.2,0.6-3.4,1.6-3.4,3
						s0.7,16.8,0.9,23.5H218.2z"/>
					<path class="st19" d="M231.8,158.5v5.8l-2.2,30.1c1.7,2.1,2.7,3.1,3.5,4.3c0.7,1.2,1.7,3.5,2.1,8.9c0.2,3.8,1.1,10.7,1.7,15.2
						l29.4-12l1.8-23c0,0-2.2-10.4-2.4-11.5c-0.2-1.1,1.1-2.7,2.4-4.9s3.5-6.4,4.1-7.6c0.7-1.1,0.3-3.8,0-7.2s0.4-16.1,0.4-16.1
						l-31-5.4l-6.1,3.5c-0.7,5-1.7,13.8-1.7,13.8L231.8,158.5z"/>
					<path class="st160" d="M268.3,112.4c-0.6,2.1-1.3,4.1-2.1,6.1c-0.6,0.8-4.1,3.4-5.7,4.6c-1.4,1.3-2.8,2.7-4,4.2
						c0,0-0.8,1.5,0-2.1c0.8-3.5,4.1-6.3,4.7-7.7c0.6-1.3,2.7-3.6,5.1-5.1H268.3z"/>
					<path class="st18" d="M221.1,205.4c0.2,1.1,0.3,4.2,0.4,6.3c0.2,1.7-0.3,3.5-1.4,4.9c-0.8,1.1-2.2,2.4-3.3,3.5
						c-1.5,1.5-2.5,3.4-2.8,5.4c-1,4.6-2.2,9.2-3.7,13.7c-0.9,2.5-5.1,2.6-10.4,3.4c-5.2,0.7-6.2,0.7-6.7,1
						c-0.6,0.3-6.5,3.8-11.1,6.3c-4.6,2.4-6.2,3.2-9.8,0.2s-6.7-5.3-8.6-10.1c-1.5-3.9-2.5-8-2.8-12.1c0-2.7-1.3-10-1.2-14.3
						s-0.3-7.8,0.7-9.1c1-1.2,0.2-1.5,8-2s30.8-1.1,47.8,0.1C220.7,202.9,220.9,204.3,221.1,205.4z"/>
					<path class="st161" d="M172.8,212.6c-0.3,1.9-0.5,3.8-0.7,5.8c-0.1,1.7-0.8,3.4-1.9,4.8c-1.2,1.7-3.3,4.3-3.6,6.5
						s-0.8,3.5-0.9,1.6c-0.1-2.1,0-4.2,0.5-6.3c0.4-2.1,1.5-3.7,1.5-4.9v-6.5L172.8,212.6z"/>
					<path class="st10" d="M174.1,209.6c-5.1,0.7-6.1,1.7-6.4,2.2c-0.1,0.6-0.1,1.2,0,1.8l15.2,0.7c4.3,0,8.5-0.3,12.7-0.8
						c2-0.3,5.7-2.2,7.6-3c1.9-0.7,3.2-1.6,4.4-1.8s10.8-1.8,13.5-2.1c0-0.5,0.2-0.2-0.1-1.2s-0.4-2.5-5.1-2.8
						c-17-1.2-41-0.5-47.8-0.1s-6.9,0.7-8,2c-0.3,0.7-0.5,1.4-0.6,2.1c7.1,0.1,14.1,0.7,21.1,1.7
						C183.7,208.8,179.2,208.9,174.1,209.6z"/>
					<path class="st10" d="M216.4,136.3c5.1,1.2,10.2,1.9,15.4,2c2.4,0.1,11.6,1.8,14.8,1.8c0.6,1,2,2.4,6.2,3
						c4.3,0.5,8.5,0.7,12.8,0.7h18.9c4.8,0.2,5.5-0.7,10-1s10.8-1.9,15.9-1.9s7.4-1.4,9.5-3c4.3,0,10.4-1.3,11.9-1.6l4.3-0.7
						c-0.8-1.2-0.7-1.9-7.3-2.4c-6.6-0.6-57.1-0.7-76.6-0.3l-8,0.6c-12.2,0.4-21.1,0.7-23.8,1.2
						C217.8,135.1,216.9,135.6,216.4,136.3L216.4,136.3z"/>
					<path class="st162" d="M249.2,103.5h46.7l0.5-2.7c0-0.1,0-0.2-0.1-0.3s-0.2-0.1-0.3-0.1h-47.3L249.2,103.5z"/>
					<path class="st163" d="M240.2,118.9l0.1-1.6h12.4l0.1,1.6l0.8,14.8h-14.3L240.2,118.9z"/>
					<path class="st164" d="M245.9,105.1l0.4-1.6l0.2-0.8h2.7l0.3,0.8l8,30.2h-5.1c-3-4.2-5-9-6-14c-0.2-0.7-0.3-1.6-0.5-2.4
						c-0.5-3.1-0.7-6.3-0.7-9.4L245.9,105.1z"/>
					<path class="st164" d="M243.4,103.5l0.2-0.8h2.8l0.2,0.8l0.3,1.6l0.7,2.8c0,3.2-0.2,6.3-0.7,9.4c-0.1,0.8-0.2,1.6-0.4,2.4
						c-1,5-3,9.8-6,14h-5.1L243.4,103.5z"/>
					<path class="st165" d="M243.8,103.5c1.5,2.1,3.9,2.1,5.4,0H243.8z"/>
					<path class="st166" d="M250.3,103.5l8.2,30.2h-1.7l-4-14.8l-0.5-1.6l-3.6-13.3l-0.1-0.6h1.7L250.3,103.5L250.3,103.5z"/>
					<path class="st166" d="M242.7,103.5h1.7l-0.1,0.6l-3.6,13.3l-0.5,1.6l-4,14.8h-1.7L242.7,103.5z"/>
					<path class="st167" d="M295.8,103.5l8.3,30.2h-45.7l-8.2-30.2H295.8z"/>
					<path class="st164" d="M283.1,58l0.8,2.1h0.1l1-2.1l2.1-0.9l-2.1-0.9l-0.9-2.1H284l-0.8,2.1H283l-2,0.9c-0.1,0-0.1,0.1,0,0.1
						L283.1,58L283.1,58z"/>
					<path class="st10" d="M280.8,134.4H260c0.4-3,4-4.9,7.4-4.8c0.5-1.7,1-3.3,1.8-4.9c1.3-2.9,2.7-2.9,4.5-2.6
						c0.9-4.2,2.2-6.6,3.6-5.5c1.3,1.1,2.8,4.7,3.6,9.8v8H280.8z"/>
					<path class="st166" d="M242.4,100.4c-0.1,0.1-0.1,0.2-0.1,0.3l0.5,2.7h7.6l0.5-2.7c0-0.1,0-0.2-0.1-0.3
						c-0.1-0.1-0.2-0.1-0.3-0.1h-7.6C242.6,100.3,242.5,100.4,242.4,100.4z"/>
					<path class="st168" d="M281.6,134.2H309c-1.1-3.7-2.3-8.1-4.5-9.8c-2.2-1.7-5-2.6-7.9-2.4c-1.4,0.1-2.7,0.6-3.8,1.4
						c-1.1,0.8-1.9,2-2.3,3.3C286.4,126.1,281.6,127.7,281.6,134.2z"/>
					<path class="st38" d="M289.2,137c0,0,0.6-3.8,1.2-5.2c0.7-1.4,2-0.2,2.5,5.2H289.2z"/>
					<path class="st38" d="M269.8,136.6h7.4c-0.4-3.2-1.4-5.1-2.2-5.4s-2.2,0.9-2.4,2.5C270.3,134.4,270.4,134.8,269.8,136.6z"/>
					<path class="st19" d="M187.8,238.9c1.6-2.4,3.5-4.6,5.4-6.7c1.4-1.1,1.5-3.5,1.1-4.9c-0.4-1.3,0-5.7,0-7.2s-0.5-3.2-2.4-2.8
						c-2,0.4-7.8,3.2-8.3,5c-1,2.4-2.4,4.6-3.9,6.6c-0.8,1-6.7,6.2-6.9,7.6c-0.2,1.4-0.3,4.2,0.5,5.4c1,1.5,2.3,2.8,3.8,3.7
						C178.4,246.5,187,240.3,187.8,238.9z"/>
					<path class="st168" d="M195.4,203.4h19.2c-0.7-4.1-3.6-8.7-4.7-9.3c-1-0.7-0.5-1.9-1.2-3.5c-0.7-1.7-3.4-2.6-5.1,0
						c-1.8,2.6-2.4,7.3-2.4,7.3C198.4,197.7,195.7,199.4,195.4,203.4z"/>
					<path class="st169" d="M220.4,134.7c2.9-0.5,7.9-0.7,15.2-0.9h15.8c-3.6,0.4-6.2,1.4-9.9,1.5s-10.8,0.4-15,2.8
						c-3.4-0.3-6.8-0.9-10.1-1.7C216.8,135.6,217.5,135.1,220.4,134.7z"/>
					<path class="st169" d="M160.2,204.5c-0.3,0.7-0.5,1.5-0.6,2.2h3.4c0.1-0.2,0.2-0.4,0.4-0.6c0.2-0.2,0.4-0.3,0.6-0.4
						c1.8-0.8,3.7-1.1,5.6-0.9c0.7-0.9,7.9-1.2,13-0.7c0.7-0.9,6.4-1.8,11.4-2.1c-11.1-0.1-21.2,0.3-25.9,0.6
						C161.4,202.9,161.3,203.3,160.2,204.5L160.2,204.5z"/>
					<path class="st169" d="M181.8,208.6L181.8,208.6c-0.6,0.3-3.9,0.5-7.7,1c-5.1,0.7-6.1,1.7-6.4,2.2c-0.1,0.6-0.1,1.2,0,1.8
						l4.3,0.2v-1.1c0-0.7,1.9-1.7,3.2-1.8s4.9-1,6.8-1.2c1.5-0.1,2.9-0.1,4.4,0c0,0,0.7-3.3,2.6-4
						C186.3,205.7,183.7,206.7,181.8,208.6L181.8,208.6z"/>
					<path class="st4" d="M0.3,368h372.2V181.1v-36.4c-39.1-11.1-60.8,10.9-68.1,29c-41.9,4.7-80.8,27.1-89.5,72.4
						c-17.7-3.4-77-9.4-87,38.5C45.7,281.7,10,318.6,0.3,368z"/>
					
						<linearGradient id="SVGID_00000129187932103718193520000003884911390873745794_" gradientUnits="userSpaceOnUse" x1="614.9414" y1="30.1463" x2="490.3954" y2="95.5813" gradientTransform="matrix(-1 0 0 -1 866.316 239.2756)">
						<stop  offset="3.000000e-02" style="stop-color:#FFFFFF"/>
						<stop  offset="1" style="stop-color:#CCBDFF"/>
					</linearGradient>
					<path style="fill:url(#SVGID_00000129187932103718193520000003884911390873745794_);" d="M337.4,143.8
						c-17.5,4.9-28.3,18.3-32.9,30c-41.9,4.7-80.8,27.1-89.5,72.4c19.3-30.9,61-53.4,106-52.3C326,164.2,326.4,155,337.4,143.8z"/>
					
						<linearGradient id="SVGID_00000119081493732680659020000000895130808733996680_" gradientUnits="userSpaceOnUse" x1="727.6808" y1="-37.3626" x2="825.0187" y2="-161.1996" gradientTransform="matrix(-1 0 0 -1 866.316 239.2756)">
						<stop  offset="0" style="stop-color:#FFFFFF"/>
						<stop  offset="1" style="stop-color:#CCBDFF"/>
					</linearGradient>
					<path style="fill:url(#SVGID_00000119081493732680659020000000895130808733996680_);" d="M0.3,368h46.6
						c34.1-48.5,83.7-59.4,148.3-58.8c0,0-9-13.3-49.8-22.4c0.4-24.4,21-40.1,43.1-42.8c-23.9,0.4-53.8,7.9-60.6,40.7
						C45.7,281.7,10,318.6,0.3,368z"/>
					<path class="st17" d="M60.7,310l0.8,2.1c0.1,0.1,0.1,0.1,0.1,0l0.9-2.1l2.1-0.9l-2.1-0.9l-0.9-2.1c0-0.1,0-0.1-0.1,0l-0.8,2.1
						h-0.1l-2.1,0.9L60.7,310L60.7,310z"/>
					<path class="st90" d="M109.5,273.9C109.5,274,109.5,274,109.5,273.9l1.1-2.4h0.1l2.4-1.1l-2.4-1.1h-0.1l-1-2.4
						c-0.1-0.1-0.1-0.1-0.1,0l-1.1,2.4l-2.5,1.1l2.5,1.1L109.5,273.9z"/>
					<path class="st172" d="M302.1,183.9l1,2.4h0.1l1.1-2.4l2.5-1.1l-2.5-1.1l-1.1-2.4h-0.1l-1,2.4H302l-2.4,1.1L302.1,183.9
						L302.1,183.9z"/>
					<path class="st55" d="M196.3,278.7h0.2l1.5-3.4l3.4-1.5c0.1,0,0.1-0.1,0-0.1l-3.4-1.5l-1.5-3.4h-0.2l-1.5,3.4l-3.4,1.5
						c-0.1,0-0.1,0.1,0,0.1l3.4,1.5L196.3,278.7z"/>
					<path class="st173" d="M230.5,293.3L230.5,293.3l0.7-1.3l1.4-0.7l-1.4-0.6l-0.6-1.4h-0.1l-0.7,1.4l-1.3,0.6l1.3,0.7
						L230.5,293.3z"/>
					<path class="st174" d="M246.5,252.8c0-1.2,0.3-2.3,1-3.3c1-1.4,2.6-0.6,7.1,1.2L246.5,252.8z"/>
					<path class="st65" d="M251.2,235.6c0,0,3.9,9.2,6,16l2-0.7c0,0-3-9.2-7.2-16L251.2,235.6z"/>
					<path class="st64" d="M251.4,242.6l-0.3-5.5l-4.7,1.6c1.2-1.8,2-3.4,4.8-3.7l-3.4-1.8c2.8-1.3,4.5,0,5.2,1.1
						c2-1.9,3.8-2.1,5.3-1.6c0,0-3.2,2.1-4.2,2.5c2.4,0.4,3.4,2.1,2.5,4.8l-3.2-3.5C253.9,238.7,251.4,242.6,251.4,242.6z"/>
					<path class="st65" d="M232.1,334.9l1.1-16.1v-12.5c0.1-3.5,0.5-5.2,1.6-9.6s3.3-8.6,4-11.4c0,0-2.7-20.1-2.7-23.6l82.8-5.3
						l53.7,9.1V366H243.1L232.1,334.9z"/>
					<path class="st67" d="M323.8,262.4l48.7-2.7v70.8h-54.3l0.8-33.8l2.8-8.5l2.5-17.4L323.8,262.4z"/>
					<path class="st66" d="M341.3,277c-0.1,1.4,0,6.9,0,6.9l-2.5,10.4l-11.9,4.4l3.6-13.5l5.7-8.6
						C338.7,275.1,341.4,275.6,341.3,277z"/>
					<path class="st175" d="M304.6,271.7v16.1l-5.2,10.6l1.4,10.4v13.4l-18.5-3.3l2-11.9l1.2-10.4l5.7-8.3l5.2-13.8L304.6,271.7z"/>
					<path class="st66" d="M256.9,259.7l-1.7,6.8l-4.9,6.9c-0.7,1.2-1.4,5.8-1.4,5.8c0.5,3.6,1.3,7.2,2.2,10.7
						c1.5,5.3,1.8,5,3.3,3.3c1.5-1.8,7.7-8.2,10.3-11.4c2.6-3.2,5.7-7.4,5.7-7.4l1.1-13.1L256.9,259.7z"/>
					<path class="st65" d="M254.6,275.6l-1,5.4l-1.3,2.9l-0.7-1.4c0,0-0.4-4.7-0.4-6L254.6,275.6z"/>
					<path class="st72" d="M233.2,306.2v3.8l1.9,0.3l1.5-7.5l2.2-7.8c0.1-0.4,4.8-10.5,4.8-10.5l-2.5-7.3l0.2-6.7l-0.5-7.7l-2-1.5
						l-2.7,0.2c0,3.5,2.7,23.6,2.7,23.6c-0.7,2.8-2.9,7-4,11.4C233.6,301,233.3,302.8,233.2,306.2z"/>
					<path class="st72" d="M279.7,275.6c0,0-0.6,5.7-0.6,7.6s0.6,6.1,0.6,6.1l-10.5,17.8l1.1-10.4c0.6-2.1,5.8-9.9,5.8-9.9l0.2-11.2
						H279.7z"/>
					<path class="st63" d="M372.6,368H89c0,0,1-11.2,5.7-30.4c4.7-19.2,9.5-24.3,24.6-28.2c36.8-9.7,74.3-14.4,105.1-11
						s75.8,11.9,148.2,23.8L372.6,368L372.6,368z"/>
					<path class="st176" d="M172,329.5c1.2-2.5,6.6-3.5,12.9-3.3L172,329.5z"/>
					<path class="st177" d="M311.2,347.5l-14.8,4.1l-29.9-11.9c6-14.4,23.1-19,44.7-17.4L311.2,347.5L311.2,347.5z"/>
					<path class="st176" d="M210.1,359.9c0,0,0.4-3.9,14.9-12.8s32.7-1.4,41.7,8.9C248.8,352,223.1,354.5,210.1,359.9z"/>
					<path class="st99" d="M151.6,306.9c0,0-2.6-0.5-10.7-3.3c-8-2.8-2.4-4.4,3.4-3.4c-2.8-1.3-7.1-3.6-6.8-5.1s2.4-2.6,8,0.9
						c-2.3-4.8-2.3-8.3-0.4-7.4c2,0.9,5.6,4.2,6,13.1L151.6,306.9z"/>
					<path class="st88" d="M104.1,324.3c12.8-4.7,25.8-5.7,41.9-3.6c18.9-9.2,43.3,0,43.3,0s7.6-3.5,19.7-3.9
						c10.5-3.5,29.7-8.4,48.8-6.4c14.5-0.7,30.6-0.5,46.8,0.4c-28.3-4.6-63.1-11.3-80.3-13.2c-30.9-3.3-68.3,1.9-105.1,11
						c-15.1,3.7-19.9,8.5-24.6,26.6C98.3,327.6,98.8,326.3,104.1,324.3z"/>
					<path class="st178" d="M205,299.9c-2.9-1.6-7.5-0.7-8.6,1.7L205,299.9z"/>
					<path class="st179" d="M149.3,312.6c5.4,0,6.3,1.8,4.7,1.8c-3.6,0-7.1-0.1-10.7-0.5C143.3,313.9,143.8,312.6,149.3,312.6z"/>
					<path class="st180" d="M139,368H4.4c13.6-15.9,37.3-16.4,53.8-12.4c15.2-18.7,56.6-17.5,80.7,0V368H139z"/>
					<path class="st63" d="M183.4,297.7c0,0,0-1.1,3.4-7.6c3.4-6.4,13.4-2.8,13.8,1.9c3.2-2,6.7,0.8,4.5,4.9L183.4,297.7z"/>
					<path class="st179" d="M195.8,306.3c23.8,2.2,25.2,6.3,15.5,6.3c-9.6,0-31-2.1-49.4-4.8C161.9,307.8,172,304.1,195.8,306.3z"/>
					<path class="st78" d="M94.3,336.6c-4.8,19.8-5.7,31.4-5.7,31.4h79c0,0-23.8-15.9-53.6-32.9c-6-3.6-9.3-2-14.2-14.4
						C97.5,324.6,95.9,329.6,94.3,336.6z"/>
					<path class="st67" d="M116.1,336.8l-4.5,8.4c0,0-1.9,6.1-2,7.7s-0.3,5.1-0.3,5.1l1.5-0.7l0.7-5.3c1.5-4.9,3.9-9.5,7-13.6
						L116.1,336.8z"/>
					<path class="st67" d="M167.5,368h-37.6l0.8-4.2c0.5-5.4,2-10.6,4.2-15.5L167.5,368z"/>
					<path class="st78" d="M140.3,349.7c-0.3,1.2-0.6,2.3-1.1,3.4c-0.7,1.7-3,7-2.2,8.7c0.1,0.4,0.4,0.8,0.8,1
						c0.4,0.2,0.8,0.3,1.3,0.1l8-4.9L140.3,349.7z"/>
					<path class="st80" d="M88.6,368h5.1c0.4-4.8,6.1-14.9,6.1-14.9s1.3-11.6,6.5-20.2l1.7-2.1c-2-1.6-5.9-4.3-8.2-10
						c-2.2,3.9-3.8,9.1-5.4,15.9C89.5,356.3,88.6,368,88.6,368z"/>
					<path class="st181" d="M91.8,347.5l2.9-5.2l3-3.5c0,0,2.6-6.2,5-10.5l-0.9-3.7c-0.8-1.2-1.5-2.5-2.1-3.8
						c-2.2,3.9-3.8,9-5.4,15.8C93.3,340.5,92.5,344.1,91.8,347.5L91.8,347.5z"/>
					<path class="st182" d="M99.7,320.8c0.5-0.9,1.2-1.8,2-2.5c1.3,12.9,22.2,14.6,26.1,16.5c8.9,7.6,22.6,12.1,35.9,15.5
						c10.4,7.6,44.5,17.7,44.5,17.7h-42.4c0,0-14.9-5.8-25.9-16.5c-11-2.7-20.9-6.9-28.6-16.6C104.7,331.3,99.7,326.5,99.7,320.8z"
						/>
					<path class="st9" d="M296.4,203.7l0.7,1.5l0.7-1.5l1.5-0.7l-1.5-0.7l-0.7-1.3l-0.7,1.4l-1.5,0.7L296.4,203.7L296.4,203.7z"/>
					<path class="st169" d="M312.5,260.9h-46.6c0,0-0.4-6.3,0-17.1s9.3-17.4,17.8-9.2c2-11,14.7-16.6,25-5L312.5,260.9z"/>
					<path class="st183" d="M316.6,242.7l-47.9,5.9c3.1-8.4,7.1-12.6,18.5-11.9c2.6-8.5,8-10,21.4-7.2L316.6,242.7z"/>
					<path class="st64" d="M238.4,255.6c2.3-3,11.9-3.4,27.8-6.9s30.4-6,54.4-7.2c17-3.6,34.5-4.8,51.9-3.4v27.2
						c-14.3,2.7-35.4,2.7-35.4,2.7s-21,4.8-26,5.4c-5.1,0.7-16.1,3.1-20.4,3.1c-4.8-0.1-9.7-0.4-14.5-0.9c0,0-0.4-1.6,1.9-2.2
						c0.8-2.4,4.4-5.9,8.2-6.5c2.2-1.8,3.7-4.5,7.7-5.2c-5.2,0.6-10.4,0.6-15.5,0.1c-6.7,0.6-15.3,0.7-19.1,0.6
						c-3.7-0.2-12,3.5-23.4-0.7C235.9,258.4,236.1,258.6,238.4,255.6z"/>
					<path class="st183" d="M275,253.8h14.5C289.5,253.8,287.8,249.6,275,253.8z"/>
					<path class="st184" d="M238.4,255.6c-2.2,2.6-2.5,2.8-2.3,6c1.6,0.6,3.2,0.9,4.7,1.3c-0.1-1.1,0.3-2.2,0.9-3.1
						c0.7-0.9,1.6-1.5,2.7-1.8c1.4-2.2,5.2-4.2,17.2-4.3c0.8-1.8,6.5-4.1,18.1-7.7c-4.6,0.7-9,1.7-13.5,2.7
						C250.5,251.2,240.6,253,238.4,255.6z"/>
					<path class="st176" d="M226,326.5c4.4-7.1,25.7-11.1,47-4.4c-14.8,0.2-30.7,2.1-34.1,11.1c-7.3-1.2-13-1.1-17.1,0.1
						c-10.3-2.5-21-1.4-28.3,0.4C199,324.7,212.7,322.7,226,326.5z"/>
					<path class="st185" d="M252.9,358.2c-1.3-3.2-2.4-6.5-3.2-9.9c-1.4-5.6,2.4-6.3,10.6-5c0,0-0.5-6,5.1-7.9
						c5.5-2,13.1,3.5,21,6.7c0.7-4.4,8.2-4.6,14.3-3.6c-3.7-5.8-4-10.9,2.1-12.1c-2.2-4.3-4.5-15.8,7-13.5
						c-3.6-14,3.6-21.8,15.8-22.5c-1.3-8.5,9.8-9.2,20.5-6.6c0.7-5.9,10.5-6.7,26.5,0V368H241.2
						C237.8,358.8,243.4,358.1,252.9,358.2z"/>
					<path class="st186" d="M97.7,368h11.8c2.7-3.6,5.8-6.9,9.3-9.9c5.4-4.6,8.8-6.4,5.1-6c-3.7,0.5-11.1,3.4-17.6,6
						C99.8,360.6,99.1,364.1,97.7,368z"/>
					<path class="st92" d="M148.9,305.9c-0.2-2.4-0.2-4.9,0-7.3c0.3-4.8,2.8-14.4,9.3-17.6c6.5-3.3,17.7-2.5,26,0s8.1,4.6,8.4,16.1
						c1.4,0.5,8.6,1.9,11.8,11.5C169.8,310.6,148.9,305.9,148.9,305.9z"/>
					<path class="st187" d="M323.3,205.1l0.9,2.1h0.1l0.8-2.1h0.1l2-0.8c0.1-0.1,0.1-0.1,0-0.1l-2-0.9h-0.1l-0.8-2.1h-0.1l-0.9,2.1
						l-2.1,0.9L323.3,205.1L323.3,205.1z"/>
					<path class="st188" d="M345.4,229.5c-0.7,5.3,8.3,10.6,3.8,19.7l1.1-0.6c4.8-5.1,7.9-11.6,8.7-18.6"/>
					<path class="st64" d="M372.6,246.3h-57.4c2.5-5.2,8.2-7.6,20.4-5.9c4.9-10.1,18.1-21.5,37-12.3V246.3z"/>
					<path class="st64" d="M296.4,261.4h60.5v-15h-60.5V261.4z"/>
					<path class="st183" d="M337.2,268.1c0,0,21,0,35.4-2.7v-19h-27.3l-4.4,2.9h-32.2c-10.4,0-15.3,3-18.7,7.1
						c-4,0.4-8.3,2.7-9.3,5.6c4.5,0.2,8.9,0.1,13.4-0.3c-3.9,0.7-5.4,3.5-7.7,5.2c-3.8,0.7-7.4,4.1-8.2,6.5
						c-2.2,0.7-1.9,2.2-1.9,2.2c4.8,0.6,9.7,0.9,14.5,0.9c4.3,0,15.3-2.4,20.4-3.1C316.2,272.8,337.2,268.1,337.2,268.1z"/>
					<path class="st189" d="M372.6,250.1h-32c0.4-3.7,4-7.5,10.1-7.7c0-9.9,2.4-12.3,4.8-13.1c2.3-0.7,6.2,0.8,6.5,9
						c0.7-0.8,1.5-1.5,2.5-1.9s2-0.6,3.1-0.5s2.1,0.4,3,0.9s1.7,1.3,2.2,2.2L372.6,250.1z"/>
					<path class="st74" d="M275,253.8h9.3c-0.5-9.7-2.5-19.1-4.1-22.1C278.6,228.8,276,241.7,275,253.8z"/>
					<path class="st74" d="M288.6,247.9c0.4-5.9,2.4-12.5,3.2-11.6c0.7,0.9,1.5,4.1,2.1,11.6H288.6z"/>
					<path class="st187" d="M347.2,238.2h-28.1v15.5h28.1V238.2z"/>
					<path class="st23" d="M332.1,238.2h-12.9v15.5h12.9V238.2z"/>
					<path class="st190" d="M322,253.9v-5.6c0-0.5,0.2-1,0.5-1.3c0.4-0.3,0.8-0.5,1.3-0.5s1,0.2,1.3,0.5c0.4,0.4,0.5,0.8,0.5,1.3
						v5.6H322L322,253.9z"/>
					<path class="st191" d="M319.1,238.3h6.9l-6.9,7.2V238.3z"/>
					<path class="st192" d="M340.8,233.4h-15.2l-6.5,4.9h28.1L340.8,233.4z"/>
					<path class="st193" d="M319.1,238.3l6.5-4.9l6.5,4.9H319.1z"/>
					<path class="st194" d="M338.5,249c0-0.9-0.7-1.6-1.6-1.6s-1.6,0.7-1.6,1.6c0,0.9,0.7,1.6,1.6,1.6S338.5,249.9,338.5,249z"/>
					<path class="st194" d="M344.5,249c0-0.9-0.7-1.6-1.6-1.6s-1.6,0.7-1.6,1.6c0,0.9,0.7,1.6,1.6,1.6S344.5,249.9,344.5,249z"/>
					<path class="st194" d="M344.5,243.1c0-0.9-0.7-1.6-1.6-1.6s-1.6,0.7-1.6,1.6c0,0.9,0.7,1.6,1.6,1.6S344.5,243.9,344.5,243.1z"
						/>
					<path class="st194" d="M338.5,243.1c0-0.9-0.7-1.6-1.6-1.6s-1.6,0.7-1.6,1.6c0,0.9,0.7,1.6,1.6,1.6
						C337.8,244.6,338.5,243.9,338.5,243.1z"/>
					<path class="st187" d="M300.7,248h7.8v-7.7h-7.8V248z"/>
					<path class="st190" d="M300.7,242.7h7.8v-2.5h-7.8V242.7z"/>
					<path class="st187" d="M314,234.1h-5.4v13.8h5.4V234.1z"/>
					<path class="st64" d="M366.7,257.6c1,0.4,1.9,1,2.6,1.8s1.1,1.8,1.3,2.9h-17.7C352.9,262.4,359,254.5,366.7,257.6L366.7,257.6z
						"/>
					<path class="st65" d="M356.4,234c0,0,1.2,16.6,0.7,28.4h3.6c0,0,0.4-16.2-2.6-29.2L356.4,234z"/>
					<path class="st184" d="M355.6,245.4l-1.4-8.9l-8.1,0.8c1.8-2.4,2.9-4.7,8-4.2l-6.4-4.1c4.8-1.1,8,1.7,9.6,3.6
						c1.3-1,2.9-1.5,4.6-1.6s3.3,0.3,4.8,1.1c0,0-5.4,2.1-7.2,2.5c4.4,1.6,6.5,4.8,5.4,8.6l-6.5-6.7
						C359.7,240.2,355.6,245.4,355.6,245.4z"/>
					<path class="st195" d="M278.2,273.4c1.4-0.5,3-0.7,4.5-0.7c2.3-3.4,8.4-5.2,14.5-5.7c-1.4-0.5-2.9-0.7-4.4-0.6
						c0,0,1.8-4.2,10-6.6c-3-0.6-6.1,0.1-8.7,1.8c-3.9,0.7-5.4,3.5-7.7,5.2C282.6,267.5,279,271,278.2,273.4z"/>
					<path class="st196" d="M264,274.1c-4.2,1.3-5.4,1.7-12.7,2.4c2.3-2.6,6-4.6,11.8-4.9C270,271.3,268.2,272.8,264,274.1z"/>
					<path class="st74" d="M308.6,266.7h16.2C324.8,266.7,322.9,261.9,308.6,266.7z"/>
					<path class="st174" d="M304.3,266.7h14.9c-0.8-4.8-3.7-10.3-6.5-10.6C306.9,255.3,306,260.8,304.3,266.7z"/>
					<path class="st64" d="M257,273.8c0-3.7,2.3-3.9,5-4.1c1.3-1.6,3.5-0.6,4.5,2.2C263.2,274,257,273.8,257,273.8z"/>
					<path class="st197" d="M148.8,301.6c0.4-5.2,6.6-11.2,8.4-11.7c-0.1-3.2,4.7-10.6,11.2-11.1c-3.5,0-7.1,0.7-10.3,2.1
						c-6.5,3.4-9,12.9-9.3,17.6C148.8,299.7,148.8,300.7,148.8,301.6z"/>
					<path class="st198" d="M184.2,280.9c-7.5-0.7-11.5,5.1-12.7,9.2s-2.3,6.5-5,9.1c-2.6,2.6-4.6,5.6-4.6,8.5c4,0.4,8.8,0.7,14.4,1
						c0.7-2.1,1.2-4.4,1.3-6.6c0-4.2,6.2-5.9,8-6.2C182.9,287.9,182,283.3,184.2,280.9z"/>
					<path class="st199" d="M168.4,282.1c0,0-3.1,1.3-2.9,0.7c0.2-0.6,1.3-2,3.9-2.3L168.4,282.1z"/>
					<path class="st104" d="M158.5,310.2h9.2c4.6-3.5,5.4-7.9,2.9-9.3s-4.5,1.5-4.5,1.5c0.1-3.5,1-10.1-2.7-10.4s-4.4,6.3-3.4,12.3
						C157.1,299.6,150.7,303.6,158.5,310.2z"/>
					<path class="st104" d="M145.4,305.6c0,0-5.3-12-8.5-17c-3.2-4.9-3.8-7-1.7-4.5c2.2,2.5,9.2,14,11.4,21.5H145.4z"/>
					<path class="st104" d="M146,305.6h0.7c-0.4-6,1-17.5,1.3-19s-0.4-2.3-0.7,0.6C146.3,293.2,145.9,299.4,146,305.6z"/>
					<path class="st100" d="M185.1,308.9c0.2-1.4,0.9-2.8,2.1-3.7c-0.7-2.1-0.2-4.4,1.4-4.9c1.6-0.6,7.2,1.2,8,4.3
						c2.2,0.9,4.8,2.5,5.8,4h2c-0.7-2.5-2-4.7-3.7-6.6c-7.3-3.3-12.8-4.1-14.8-1.7c-0.6,0.7-1,1.5-1.1,2.4s0,1.8,0.4,2.6
						c-0.8,0.3-1.4,0.8-1.8,1.5c-0.4,0.7-0.6,1.5-0.6,2.3L185.1,308.9z"/>
					<path class="st178" d="M160.1,310.2h7.6c1.6-1.1,2.8-2.6,3.6-4.3c-0.2-3-3-2.3-3.8-1c0.1-2.1-2.6-1.5-3.3,0.7
						c0-6.2-0.1-9-1.1-9.5c-1-0.6-1.8,5.3-1.1,10.8C160,305.8,156.3,305.9,160.1,310.2z"/>
					<path class="st200" d="M332.2,291.4c-2.2-1.9-2.6-6.3-0.3-8.9c-4.2,0.8-6.9,3.2-6.3,7.7c-12.3,0.6-19.4,8.4-15.8,22.4
						c-11.5-2.2-9.3,9.2-7,13.6c-6.1,1.2-5.8,6.3-2.1,12c0,0,0.6-9.5,8.4-3.7c-1.4-5.8-0.8-11.2,4.2-11.2c-0.2-4,1.1-17.1,13-12.2
						C322.6,303.3,323.7,291.3,332.2,291.4z"/>
					<path class="st201" d="M342.1,309c1.5,1.1,2.7,2.6,3.4,4.3c-6.5-2.6-13.6-2.1-16.5,1.3c-1.3-5.8,3.8-7.4,8.1-6.3
						c-0.5-8.9,9-10.5,13.9-7.8C344.7,301.5,341.6,304,342.1,309z"/>
					<path class="st200" d="M299.2,352.5c-6.1-0.4-12.2,0.8-17.6,3.6c1.8,0.7,3.4,1.8,4.8,3.3c-5.7-0.4-15.2,3.6-19.8,8.5
						c0-5.4,2.8-8.8,7.9-9.2c-2.3-3.1-10.8-7.7-15.8-8.3c2.6-1.4,11.8-1.9,17.1,2.4c0.5-1.6,6.4-5.7,15.3-2.4
						c0-4.5,5.9-7.5,13.6-5.1C299.5,346.5,297.9,348.8,299.2,352.5z"/>
					<path class="st202" d="M372.6,338.2c-5.1-3.8-20.4-3.3-28.7,1.2c0,0,2.1,0.9,7.2,9.1c-13.4,0-27.3,10.5-29.8,19.4h-11.4
						c1.2-13.1,11.4-22.7,22.4-23.6c-3.4-13.3,5.7-19,23.3-18.2c0-7.3,4.6-11.2,17.1-7.6v19.7H372.6z"/>
					<path class="st104" d="M118.6,314.6c2.4-6.3,14.7-6.3,18.3-4.3L118.6,314.6z"/>
					<path class="st100" d="M139,313.8c-0.7-6.2,3.7-6.3,6.1-4.9c1.5-0.1,4.5,0.3,6.5,4.3C151.6,313.1,143.1,314.2,139,313.8z"/>
					<path class="st198" d="M149,310.1c-1.1-0.9-2.5-1.4-3.9-1.3c-0.7-0.4-2.6-0.5-3,0.6c-0.2,0.7-0.3,1.4-0.4,2.1
						c0.9-0.7,2.8-1.3,3.8-0.5c0.6,0.7,0.9,1.6,0.9,2.5h2c-0.1-1.6-1.5-2.9-1.3-3.3C147.3,309.9,148.1,309.7,149,310.1L149,310.1z"
						/>
					<path class="st88" d="M159.1,332.3c1.7-0.1,3-0.5,2.9-1c0-0.5-1.4-0.8-3-0.7c-1.7,0.1-3,0.5-2.9,1
						C156.1,332,157.5,332.4,159.1,332.3z"/>
					<path class="st177" d="M232.2,306.3c0-0.5-4.4-0.8-9.8-0.8c-5.4,0-9.8,0.4-9.8,0.8c0,0.5,4.4,0.8,9.8,0.8
						C227.8,307.2,232.2,306.8,232.2,306.3z"/>
					<path class="st104" d="M117.9,312.4c1-0.1,1.7-0.3,1.7-0.5s-0.8-0.3-1.8-0.2s-1.7,0.3-1.7,0.5S116.9,312.5,117.9,312.4z"/>
					<path class="st104" d="M167.5,313.5l6.7-0.3c-0.7-1.1-2.2-1.8-2.9-1C169.7,311.6,168,312.2,167.5,313.5z"/>
					<path class="st88" d="M168.2,323.9l-19.4,1.5c2.1-1.3,5.9-2.3,8-1.8C161.7,322.6,166.6,322.7,168.2,323.9z"/>
					<path class="st104" d="M227.3,303.1c0.9,3.4,1.3,6.9,1.2,10.4C227.1,310.2,226.7,306.6,227.3,303.1z"/>
					<path class="st104" d="M229,313.5c0,0,0.8-6.8,1.3-9.4s0.1-2.2-0.3-1.2c-1,3.5-1.5,7-1.5,10.6H229z"/>
					<path class="st198" d="M185.6,340.8c1.2-6.2,6.8-5.5,12.2-1.3L185.6,340.8z"/>
					<path class="st176" d="M251.2,306.3c4.4-0.7,13.6-1,25.4-0.4c-0.5-12-10.3-12-15.7-8.7c-5.7-2.8-20.8-0.9-20.8,6.7
						C240.2,304,242.9,305.5,251.2,306.3z"/>
					<path class="st178" d="M240.2,304c0.4-2.5,2.9-3,5.1-2.5c0.7-1.8,5.1-6,11.1-5.3C249.6,295.5,240.2,297.9,240.2,304z"/>
					<path class="st177" d="M274.1,305.8c0.7-1.1,0.5-2.7-1.7-2.1c0.9-1.3,0.3-4.4-2.1-3.7c-1.9-2.8-5.3-2.1-6.2-0.1
						c-0.4,0.8-0.5,1.8-0.2,2.7c-0.4-0.2-0.9-0.3-1.3-0.2c-0.5,0.1-0.9,0.3-1.2,0.6c-0.3,0.3-0.5,0.7-0.6,1.2s0,0.9,0.2,1.3
						C264.7,305.6,269.1,305.6,274.1,305.8z"/>
					<path class="st176" d="M282.3,314.2l-14.7-0.7c1.6-1.2,6.4-1.9,10.8-1C282.2,311.5,282.3,314.2,282.3,314.2z"/>
				</g>
			</g>
		</g>
	</g>
</g>
</svg>
