<?xml version="1.0" encoding="utf-8"?>
<!-- Generator: Adobe Illustrator 28.4.1, SVG Export Plug-In . SVG Version: 6.00 Build 0)  -->
<svg version="1.1" id="Layer_1" xmlns="http://www.w3.org/2000/svg" xmlns:xlink="http://www.w3.org/1999/xlink" x="0px" y="0px"
	 viewBox="0 0 5000 400" style="enable-background:new 0 0 5000 400;" xml:space="preserve">
<style type="text/css">
	.st0{clip-path:url(#SVGID_00000013162505545938847200000003834650819771935876_);}
	.st1{fill-rule:evenodd;clip-rule:evenodd;fill:url(#SVGID_00000052084031232484628670000004332712525763496865_);}
	.st2{fill:url(#SVGID_00000150804087126977086310000016506607868235246764_);}
	.st3{fill:url(#SVGID_00000044863341081611630270000000085298996143819912_);}
	.st4{fill:url(#SVGID_00000175287410930465128740000014106662221670478472_);}
	.st5{fill:#89F7FC;}
	.st6{fill:#65F8FC;}
	.st7{fill:#9AF3E3;}
	.st8{fill:url(#SVGID_00000123428000151901993290000016637992880879825315_);}
	.st9{fill:url(#SVGID_00000102513861299831677880000014370289781599633829_);}
	.st10{fill:#67F8FC;}
	.st11{fill:#6FF8FC;}
</style>
<g>
	<defs>
		<rect id="SVGID_1_" y="0" width="5000" height="400"/>
	</defs>
	<clipPath id="SVGID_00000070110443994791012340000002811953843922982071_">
		<use xlink:href="#SVGID_1_"  style="overflow:visible;"/>
	</clipPath>
	<g style="clip-path:url(#SVGID_00000070110443994791012340000002811953843922982071_);">
		
			<linearGradient id="SVGID_00000170984063346256873260000007966347501185844393_" gradientUnits="userSpaceOnUse" x1="2498.645" y1="441.4206" x2="2498.645" y2="-70.6092" gradientTransform="matrix(1 0 0 -1 0 399.8898)">
			<stop  offset="0" style="stop-color:#3AB0F2"/>
			<stop  offset="0.58" style="stop-color:#6CDCEB"/>
			<stop  offset="0.92" style="stop-color:#92E8E0"/>
		</linearGradient>
		<path style="fill-rule:evenodd;clip-rule:evenodd;fill:url(#SVGID_00000170984063346256873260000007966347501185844393_);" d="
			M3357.7-73H1679.2V0H-157v400h1836.2h0h1661h17.4h1796.6V0H3357.7V-73z"/>
		
			<linearGradient id="SVGID_00000034074604017418078610000015850506247350189464_" gradientUnits="userSpaceOnUse" x1="1920.9095" y1="293.9305" x2="1957.5295" y2="448.9227" gradientTransform="matrix(1 0 0 -1 0 399.8898)">
			<stop  offset="0" style="stop-color:#42B9FC"/>
			<stop  offset="1" style="stop-color:#38A9E8"/>
		</linearGradient>
		<path style="fill:url(#SVGID_00000034074604017418078610000015850506247350189464_);" d="M2183.2-72
			C2016,59.4,1614.9,469,1614.9,469L1817-72H2183.2z"/>
		
			<linearGradient id="SVGID_00000176738453505982410560000007334471793249861008_" gradientUnits="userSpaceOnUse" x1="2593.3831" y1="455.6087" x2="2073.3931" y2="60.0367" gradientTransform="matrix(1 0 0 -1 0 399.8898)">
			<stop  offset="0" style="stop-color:#44B5F4"/>
			<stop  offset="0.3" style="stop-color:#50C3F6"/>
			<stop  offset="0.81" style="stop-color:#6DE4FA"/>
			<stop  offset="1" style="stop-color:#79F2FC"/>
		</linearGradient>
		<path style="fill:url(#SVGID_00000176738453505982410560000007334471793249861008_);" d="M2739.4-72
			c-275.2,181.1-692.1,472-692.1,472h-139.2l582.1-472H2739.4z"/>
		
			<linearGradient id="SVGID_00000039821375979512159540000010655606023203641503_" gradientUnits="userSpaceOnUse" x1="2843.5938" y1="350.1304" x2="2556.4836" y2="169.412" gradientTransform="matrix(1 0 0 -1 0 399.8898)">
			<stop  offset="0" style="stop-color:#42B5F2"/>
			<stop  offset="1" style="stop-color:#65DFF2"/>
		</linearGradient>
		<path style="fill:url(#SVGID_00000039821375979512159540000010655606023203641503_);" d="M2922,31
			c-177,91.6-391.6,208.5-391.6,208.5c57.1-51,231.5-175.8,299.8-208.5H2922z"/>
		<path class="st5" d="M2428.1,400.1c61.6-61.6,185.6-64.4,251-47.8c52.7-57,159.6-74.1,225.7-36.4c71.4,40.8,86.5,84.2,86.5,84.2
			H2428.1z"/>
		<path class="st5" d="M2314.6,342c-25.8-49.1-92.2-42.6-135.8-12.6c-78.7-21.5-213.4,9.4-207.9,70.6h555.2
			C2503.4,342.5,2383.4,314.7,2314.6,342z"/>
		<path class="st6" d="M2628.5,400.1c-15.7-25-63-36.2-98.1-29.5c-17.2-32.8-70.1-51-108.9-14.6c-35-3.1-81.4,8.4-85.8,44.1H2628.5z
			"/>
		<path class="st7" d="M2674.2,400h-177.3c23.3-10.7,64-12.9,83.7-6.4C2607.5,380.2,2649.4,379.8,2674.2,400z"/>
		<path class="st7" d="M2243.9,400h92.1C2315.2,391.1,2272.4,391.7,2243.9,400z"/>
		
			<linearGradient id="SVGID_00000083794285211924045500000006854309616883891882_" gradientUnits="userSpaceOnUse" x1="2749.5674" y1="343.0725" x2="2669.4673" y2="301.9329" gradientTransform="matrix(1 0 0 -1 0 399.8898)">
			<stop  offset="0" style="stop-color:#42B5F2"/>
			<stop  offset="1" style="stop-color:#4FC8F2"/>
		</linearGradient>
		<path style="fill:url(#SVGID_00000083794285211924045500000006854309616883891882_);" d="M2669.2,112.3
			c59.4-47.6,95.5-71.1,95.5-71.1C2719.4,49.6,2692.5,75.9,2669.2,112.3z"/>
		
			<linearGradient id="SVGID_00000017497144815705703180000018255170823759687314_" gradientUnits="userSpaceOnUse" x1="42944.4102" y1="33444.1172" x2="21260.918" y2="15859.876" gradientTransform="matrix(1 0 0 -1 0 399.8898)">
			<stop  offset="0" style="stop-color:#42B5F2"/>
			<stop  offset="1" style="stop-color:#4FC8F2"/>
		</linearGradient>
		<path style="fill:url(#SVGID_00000017497144815705703180000018255170823759687314_);" d="M2320.8-73
			c-49,36.8-106.8,81.2-172,133.4c32.1-50,65.9-94.9,104.3-133.4H2320.8z"/>
		<path class="st10" d="M2753.8,77.4l4.3-2c0.1,0,0.1-0.1,0-0.2l-4.3-1.9h-0.1l-2-4.4h-0.2l-1.9,4.4c0,0-0.1,0-0.1,0c0,0,0,0,0,0.1
			l-4.3,1.9c-0.1,0.1-0.1,0.2,0,0.2l4.3,2h0.1l1.9,4.4h0.2L2753.8,77.4L2753.8,77.4z"/>
		<path class="st7" d="M2658.4,322.5l4.4-1.9c0.1-0.1,0.1-0.2,0-0.2l-4.4-2l-2-4.3c0-0.1-0.1-0.1-0.2,0l-1.9,4.3h-0.1l-4.3,2
			c-0.1,0-0.1,0.1,0,0.2l4.3,1.9h0.1l1.9,4.3c0.1,0.1,0.2,0.1,0.2,0L2658.4,322.5L2658.4,322.5z"/>
		<path class="st11" d="M2217.1,56.3h-0.3l-8.3,11.7v0.3l8.3,11.7h0.3c2.8-4,5.3-7.7,8.3-11.7v-0.3
			C2222.4,64,2219.9,60.4,2217.1,56.3z"/>
		<path class="st10" d="M2241,84.4l2.7-1.2c0.1,0,0.1-0.1,0-0.1l-2.7-1.3l-1.3-2.7c0-0.1,0-0.1-0.1,0l-1.2,2.7l-2.8,1.3l2.8,1.2
			l1.2,2.8h0.1L2241,84.4L2241,84.4z"/>
	</g>
</g>
</svg>
