<svg width="17" height="32" viewBox="0 0 17 32" fill="none" xmlns="http://www.w3.org/2000/svg">
<path d="M14.873 14.873C13.434 13.9172 12.2107 12.6711 11.2816 11.2146C10.3525 9.75821 9.73813 8.12364 9.4779 6.41581L8.60301 0.583255C8.60301 0.428566 8.54156 0.280213 8.43218 0.170831C8.3228 0.0614495 8.17445 0 8.01976 0C7.86508 0 7.71673 0.0614495 7.60735 0.170831C7.49797 0.280213 7.43652 0.428566 7.43652 0.583255L6.56163 6.41581C6.3014 8.12364 5.68705 9.75821 4.75795 11.2146C3.82885 12.6711 2.60555 13.9172 1.16654 14.873L0.291646 15.3105C0.201098 15.3784 0.127601 15.4664 0.076983 15.5677C0.0263654 15.6689 0 15.7805 0 15.8937L0.291646 16.477L1.16654 16.9144C2.60555 17.8703 3.82885 19.1164 4.75795 20.5728C5.68705 22.0292 6.3014 23.6638 6.56163 25.3716L7.43652 31.2042C7.43652 31.3589 7.49797 31.5072 7.60735 31.6166C7.71673 31.726 7.86508 31.7874 8.01976 31.7874C8.17445 31.7874 8.3228 31.726 8.43218 31.6166C8.54156 31.5072 8.60301 31.3589 8.60301 31.2042L9.4779 25.3716C9.73813 23.6638 10.3525 22.0292 11.2816 20.5728C12.2107 19.1164 13.434 17.8703 14.873 16.9144L15.7479 16.477C15.8986 16.3142 15.9997 16.1119 16.0395 15.8937C16.0395 15.7805 16.0132 15.6689 15.9625 15.5677C15.9119 15.4664 15.8385 15.3784 15.7479 15.3105L14.873 14.873Z" fill="#4757FF"/>
</svg>
