<svg width="21" height="41" viewBox="0 0 21 41" xmlns="http://www.w3.org/2000/svg">
<path d="M9.29392 1.90228C9.29392 -0.438926 11.5598 -0.422999 11.5598 1.90228C11.9646 5.9495 12.8184 9.94327 14.1066 13.8153C15.7604 18.02 20.7217 17.7333 20.7217 20.186C20.7217 22.129 16.8848 21.7787 14.8176 25.6966C12.7504 29.6145 11.5101 37.9282 11.5101 39.3298C11.5101 39.6254 11.3881 39.9089 11.171 40.118C10.9539 40.3271 10.6596 40.4445 10.3526 40.4445C10.0455 40.4445 9.75084 40.3271 9.53374 40.118C9.31665 39.9089 9.195 39.6254 9.195 39.3298C9.195 39.3298 8.76474 29.6782 6.84638 26.0629C4.79571 22.2087 -2.28882e-05 22.129 -2.28882e-05 20.186C-2.28882e-05 17.5262 4.96127 18.5933 6.61503 13.8153C7.85718 9.92465 8.75323 5.93928 9.29392 1.90228Z" fill="#7CB8F9"/>
</svg>