<?xml version="1.0" encoding="utf-8"?>
<!-- Generator: Adobe Illustrator 28.4.1, SVG Export Plug-In . SVG Version: 6.00 Build 0)  -->
<svg version="1.1" id="Layer_1" xmlns="http://www.w3.org/2000/svg" xmlns:xlink="http://www.w3.org/1999/xlink" x="0px" y="0px"
	 viewBox="0 0 2560 626" style="enable-background:new 0 0 2560 626;" xml:space="preserve">
<style type="text/css">
	.st0{clip-path:url(#SVGID_00000177452510196983329170000013074865814038145720_);}
	.st1{fill:#5865F2;}
	.st2{fill:#91FFAD;}
	.st3{fill:#3F99F2;}
	.st4{fill:#404EED;}
	.st5{fill:#FF78B9;}
	.st6{fill:#FFC619;}
</style>
<g>
	<defs>
		<polyline id="SVGID_1_" points="2560,626 0,626 0,0 2560,0 		"/>
	</defs>
	<clipPath id="SVGID_00000076576709729828892000000004074458161683871384_">
		<use xlink:href="#SVGID_1_"  style="overflow:visible;"/>
	</clipPath>
	<g style="clip-path:url(#SVGID_00000076576709729828892000000004074458161683871384_);">
		<path class="st1" d="M2560,742c-278.6-220.6-407.3-300-638-159.1c-261.9-168-360.9-111.5-642,63.7
			c-140.5-137.3-194.4-194.3-259.5-108.4C860.2,351.5,772.1,290.4,637.8,453c-14.6,17.6-33.9,30.6-55.6,37.5
			c-21.8,6.9-45,7.4-67.1,1.5C312.9,437.1,118.6,667,0,742H2560z"/>
		<path class="st2" d="M596.5,275.9c-1.6-1-2.9-2.3-3.9-3.9c-1-1.6-1.7-3.3-1.9-5.1l-1-6.4c0-0.1-0.1-0.3-0.2-0.4
			c-0.1-0.1-0.2-0.1-0.4-0.1c-0.1,0-0.3,0-0.4,0.1c-0.1,0.1-0.2,0.2-0.2,0.4l-1,6.4c-0.3,1.8-0.9,3.6-1.9,5.1
			c-1,1.6-2.3,2.9-3.9,3.9l-0.8,0.5c-0.1,0-0.2,0.1-0.2,0.2s-0.1,0.2-0.1,0.3c0,0.1,0,0.2,0.1,0.3c0.1,0.1,0.1,0.2,0.2,0.2l0.8,0.5
			c1.5,1,2.9,2.4,3.9,3.9c1,1.6,1.7,3.3,1.9,5.2l1,6.3c0,0.1,0.1,0.3,0.2,0.4c0.1,0.1,0.2,0.1,0.4,0.1c0.1,0,0.3,0,0.4-0.1
			c0.1-0.1,0.2-0.2,0.2-0.4l1-6.3c0.3-1.8,0.9-3.6,1.9-5.2c1-1.6,2.3-2.9,3.9-3.9l0.8-0.5c0.1,0,0.2-0.1,0.2-0.2
			c0.1-0.1,0.1-0.2,0.1-0.3c0-0.1,0-0.2-0.1-0.3c-0.1-0.1-0.1-0.2-0.2-0.2L596.5,275.9z"/>
		<path class="st3" d="M1692.1,177.1c-2.7-1.7-4.9-4-6.6-6.6c-1.7-2.7-2.8-5.6-3.3-8.8l-1.6-10.8c-0.1-0.2-0.2-0.5-0.4-0.6
			c-0.2-0.2-0.4-0.3-0.7-0.3c-0.3,0-0.5,0.1-0.7,0.2c-0.2,0.2-0.3,0.4-0.4,0.7l-1.6,10.8c-0.5,3.1-1.6,6.1-3.3,8.8
			c-1.7,2.7-4,4.9-6.7,6.6l-1.4,0.9c-0.2,0.1-0.3,0.2-0.3,0.4c-0.1,0.2-0.1,0.3-0.2,0.5c0,0.2,0,0.4,0.1,0.5
			c0.1,0.2,0.2,0.3,0.4,0.4l1.4,0.9c2.7,1.7,4.9,4,6.7,6.7c1.7,2.7,2.9,5.7,3.3,8.8l1.6,10.8c0,0.3,0.2,0.5,0.4,0.7
			c0.2,0.2,0.5,0.3,0.7,0.2c0.2,0,0.5-0.1,0.7-0.3c0.2-0.2,0.3-0.4,0.4-0.6l1.6-10.8c0.5-3.1,1.6-6.1,3.3-8.8c1.7-2.7,4-5,6.6-6.7
			l1.5-0.9c0.1-0.1,0.2-0.2,0.3-0.4c0.1-0.2,0.1-0.3,0.1-0.5c0-0.2,0-0.3-0.1-0.5c-0.1-0.2-0.2-0.3-0.3-0.4L1692.1,177.1z"/>
		<path class="st4" d="M2183.7,410.1c-2.1-1.4-4-3.2-5.3-5.4c-1.4-2.2-2.3-4.6-2.7-7.1l-1.4-8.7c0-0.2-0.1-0.4-0.2-0.6
			c-0.2-0.2-0.4-0.2-0.6-0.2c-0.2,0-0.4,0.1-0.6,0.2c-0.2,0.1-0.3,0.4-0.3,0.6l-1.3,8.7c-0.4,2.5-1.3,5-2.7,7.1
			c-1.4,2.2-3.2,4-5.4,5.4l-1.1,0.7c-0.1,0.1-0.2,0.2-0.3,0.3c-0.1,0.1-0.1,0.3-0.1,0.4c0,0.1,0,0.3,0.1,0.4
			c0.1,0.1,0.2,0.2,0.3,0.3l1.1,0.7c2.2,1.4,4,3.2,5.4,5.4c1.4,2.2,2.3,4.6,2.7,7.1l1.3,8.7c0,0.2,0.1,0.4,0.3,0.6
			c0.2,0.1,0.4,0.2,0.6,0.2c0.2,0,0.4-0.1,0.6-0.2c0.1-0.1,0.2-0.4,0.2-0.6l1.4-8.7c0.4-2.5,1.3-4.9,2.7-7.1c1.4-2.2,3.2-4,5.3-5.4
			l1.1-0.7c0.1-0.1,0.2-0.2,0.3-0.3c0.1-0.1,0.1-0.3,0.1-0.4c0-0.1,0-0.3-0.1-0.4c-0.1-0.1-0.2-0.2-0.3-0.3L2183.7,410.1z"/>
		<path class="st5" d="M900.9,413.7c-0.8-0.5-1.5-1.2-2-2c-0.5-0.8-0.9-1.7-1-2.7l-0.5-3.2c0-0.1,0-0.2-0.1-0.2
			c-0.1-0.1-0.1-0.1-0.2-0.1c-0.1,0-0.2,0-0.2,0.1c-0.1,0.1-0.1,0.1-0.1,0.2l-0.5,3.2c-0.1,1-0.5,1.9-1,2.7c-0.5,0.8-1.2,1.5-2,2
			l-0.5,0.3c-0.1,0-0.1,0.2-0.1,0.3c0,0.1,0,0.1,0,0.2c0,0.1,0,0.1,0.1,0.1l0.5,0.2c0.8,0.5,1.5,1.2,2,2c0.5,0.8,0.9,1.7,1,2.7
			l0.5,3.3c0,0.1,0,0.2,0.1,0.2c0.1,0.1,0.1,0.1,0.2,0.1c0.1,0,0.2,0,0.2-0.1c0.1-0.1,0.1-0.1,0.1-0.2l0.5-3.3
			c0.2-0.9,0.5-1.8,1-2.7c0.5-0.8,1.2-1.5,2-2l0.5-0.2c0,0,0.1-0.1,0.1-0.1c0-0.1,0-0.1,0-0.2c0-0.1,0-0.3-0.1-0.3L900.9,413.7z"/>
		<path class="st6" d="M943.1,542c-0.4-0.2-0.8-0.6-1-1c-0.3-0.4-0.5-0.8-0.6-1.3l-0.2-1.7H941l-0.3,1.7c-0.1,0.5-0.2,0.9-0.5,1.3
			c-0.3,0.4-0.6,0.7-1,1l-0.2,0.2c0,0-0.1,0-0.1,0c0,0,0,0,0,0.1c0,0,0,0.1,0,0.1c0,0,0,0,0.1,0l0.2,0.2c0.4,0.3,0.7,0.6,1,1
			c0.3,0.4,0.4,0.8,0.5,1.3l0.3,1.7h0.3l0.2-1.7c0.1-0.5,0.3-0.9,0.6-1.3c0.3-0.4,0.6-0.7,1-1l0.2-0.2L943.1,542z"/>
		<path class="st2" d="M1365.8,532.6c-0.9-0.6-1.7-1.4-2.2-2.3c-0.6-0.9-1-1.9-1.2-3l-0.5-3.6c0-0.2-0.2-0.3-0.4-0.3
			c0,0-0.1,0-0.1,0c0,0-0.1,0-0.1,0.1c0,0-0.1,0.1-0.1,0.1c0,0,0,0.1,0,0.1l-0.6,3.6c-0.1,1.1-0.5,2.1-1.1,3
			c-0.6,0.9-1.3,1.7-2.2,2.3l-0.5,0.3c-0.1,0-0.2,0.1-0.2,0.3c0,0.1,0.1,0.2,0.2,0.3l0.5,0.3c0.9,0.6,1.6,1.4,2.2,2.3
			c0.6,0.9,0.9,1.9,1.1,2.9l0.6,3.6c0,0.1,0,0.2,0.1,0.2c0,0.1,0.1,0.1,0.2,0.1c0.2,0,0.4-0.1,0.4-0.3l0.5-3.6c0.2-1,0.6-2,1.2-2.9
			c0.6-0.9,1.3-1.7,2.2-2.3l0.5-0.3c0,0,0.1-0.1,0.1-0.1c0-0.1,0-0.1,0-0.2c0-0.2,0-0.3-0.1-0.3L1365.8,532.6z"/>
		<path class="st5" d="M330.1,509c-1-0.6-1.8-1.5-2.4-2.5c-0.6-1-1-2.1-1.2-3.2l-0.6-4c-0.1-0.2-0.2-0.4-0.4-0.4
			c-0.1,0-0.2,0-0.3,0.1c-0.1,0.1-0.1,0.2-0.1,0.3l-0.6,4c-0.2,1.2-0.6,2.3-1.3,3.2c-0.6,1-1.5,1.8-2.4,2.5l-0.6,0.3
			c-0.1,0.1-0.1,0.2-0.1,0.4c0,0.1,0,0.3,0.1,0.3l0.6,0.4c1,0.6,1.8,1.5,2.5,2.5c0.6,1,1.1,2.1,1.2,3.2l0.6,4c0,0.2,0.2,0.3,0.4,0.3
			s0.3-0.1,0.4-0.3l0.6-4c0.2-1.2,0.6-2.3,1.2-3.2c0.6-1,1.4-1.8,2.4-2.5l0.6-0.4c0.1,0,0.2-0.2,0.2-0.3c0-0.1,0-0.2-0.1-0.2
			c0-0.1-0.1-0.1-0.1-0.2L330.1,509z"/>
	</g>
</g>
</svg>
