<svg width="152" height="151" viewBox="0 0 152 151" fill="none" xmlns="http://www.w3.org/2000/svg">
<g filter="url(#filter0_d_1483_50249)">
<path d="M78.847 13.057C80.3017 11.5738 82.7398 11.7617 83.9384 13.4494L90.8555 23.1896C91.7204 24.4075 93.2943 24.8959 94.7025 24.3834L106.027 20.2618C107.983 19.5497 110.1 20.7821 110.441 22.8313L112.384 34.526C112.631 36.0094 113.843 37.1393 115.342 37.2819L127.301 38.4204C129.382 38.6186 130.761 40.6638 130.165 42.6698L126.801 53.9927C126.369 55.4468 126.973 57.0054 128.271 57.7841L138.48 63.9088C140.278 64.9879 140.634 67.4454 139.216 69.0003L131.231 77.7561C130.205 78.8817 130.069 80.5565 130.902 81.8254L137.382 91.696C138.533 93.4488 137.788 95.8215 135.838 96.6117L124.773 101.097C123.366 101.667 122.519 103.114 122.712 104.616L124.216 116.314C124.483 118.387 122.793 120.195 120.706 120.072L108.712 119.365C107.209 119.276 105.83 120.206 105.349 121.634L101.552 132.886C100.886 134.858 98.5976 135.75 96.7797 134.747L86.2572 128.942C84.9487 128.22 83.3159 128.462 82.2662 129.532L73.8709 138.092C72.4162 139.575 69.9781 139.387 68.7795 137.7L61.8623 127.959C60.9974 126.741 59.4236 126.253 58.0154 126.766L46.6911 130.887C44.7347 131.599 42.6176 130.367 42.277 128.318L40.3334 116.623C40.0869 115.14 38.8745 114.01 37.3764 113.867L25.4172 112.729C23.3357 112.53 21.9572 110.485 22.5532 108.479L25.9171 97.1563C26.3491 95.7022 25.7447 94.1436 24.4468 93.3649L14.2381 87.2402C12.4395 86.1611 12.0843 83.7036 13.5022 82.1487L21.4867 73.3929C22.5131 72.2673 22.6484 70.5925 21.8154 69.3236L15.3354 59.453C14.1846 57.7002 14.93 55.3275 16.8796 54.5373L27.9452 50.0521C29.352 49.4819 30.1992 48.0352 30.006 46.5329L28.5015 34.8348C28.235 32.7624 29.9247 30.9536 32.0123 31.0767L44.0063 31.7843C45.5088 31.8729 46.8876 30.9427 47.3692 29.5154L51.1662 18.2631C51.8316 16.2915 54.1203 15.3986 55.9382 16.4015L66.4607 22.2068C67.7692 22.9287 69.402 22.6875 70.4517 21.6171L78.847 13.057Z" fill="#212528"/>
</g>
<g filter="url(#filter1_d_1483_50249)">
<path d="M78.2871 19.9873C79.7418 18.504 82.1799 18.6919 83.3785 20.3797L89.1632 28.5253C90.0281 29.7431 91.602 30.2315 93.0102 29.719L102.482 26.2715C104.439 25.5594 106.556 26.7918 106.897 28.841L108.52 38.6117C108.767 40.0951 109.979 41.225 111.477 41.3676L121.474 42.3192C123.555 42.5174 124.934 44.5626 124.338 46.5685L121.53 56.0192C121.098 57.4732 121.703 59.0318 123.001 59.8105L131.525 64.9245C133.323 66.0036 133.678 68.4611 132.26 70.016L125.598 77.322C124.572 78.4475 124.436 80.1224 125.269 81.3912L130.676 89.6274C131.827 91.3803 131.082 93.7529 129.132 94.5432L119.893 98.2881C118.486 98.8584 117.639 100.305 117.832 101.807L119.088 111.571C119.354 113.644 117.664 115.452 115.577 115.329L105.551 114.738C104.049 114.649 102.67 115.579 102.188 117.007L99.016 126.408C98.3507 128.379 96.0619 129.272 94.244 128.269L85.4424 123.413C84.1339 122.691 82.5011 122.933 81.4514 124.003L74.4305 131.162C72.9758 132.645 70.5377 132.457 69.3392 130.769L63.5544 122.624C62.6895 121.406 61.1157 120.917 59.7075 121.43L50.2352 124.877C48.2787 125.59 46.1617 124.357 45.8211 122.308L44.1973 112.537C43.9507 111.054 42.7384 109.924 41.2402 109.781L31.2437 108.83C29.1622 108.632 27.7838 106.586 28.3797 104.58L31.1874 95.1298C31.6194 93.6757 31.0149 92.1171 29.7171 91.3385L21.1931 86.2245C19.3945 85.1454 19.0393 82.6879 20.4572 81.133L27.1195 73.827C28.1459 72.7014 28.2812 71.0266 27.4482 69.7577L22.0412 61.5216C20.8905 59.7687 21.6358 57.396 23.5854 56.6058L32.8249 52.8608C34.2318 52.2906 35.0789 50.8439 34.8857 49.3416L33.63 39.5778C33.3635 37.5054 35.0532 35.6967 37.1408 35.8198L47.1664 36.4112C48.6689 36.4999 50.0477 35.5697 50.5293 34.1424L53.7017 24.7413C54.367 22.7697 56.6557 21.8768 58.4736 22.8798L67.2753 27.7357C68.5837 28.4576 70.2166 28.2163 71.2663 27.146L78.2871 19.9873Z" fill="url(#paint0_linear_1483_50249)"/>
</g>
<defs>
<filter id="filter0_d_1483_50249" x="0.776546" y="0.201229" width="151.165" height="150.746" filterUnits="userSpaceOnUse" color-interpolation-filters="sRGB">
<feFlood flood-opacity="0" result="BackgroundImageFix"/>
<feColorMatrix in="SourceAlpha" type="matrix" values="0 0 0 0 0 0 0 0 0 0 0 0 0 0 0 0 0 0 127 0" result="hardAlpha"/>
<feOffset/>
<feGaussianBlur stdDeviation="5.92649"/>
<feComposite in2="hardAlpha" operator="out"/>
<feColorMatrix type="matrix" values="0 0 0 0 0 0 0 0 0 0 0 0 0 0 0 0 0 0 0.25 0"/>
<feBlend mode="normal" in2="BackgroundImageFix" result="effect1_dropShadow_1483_50249"/>
<feBlend mode="normal" in="SourceGraphic" in2="effect1_dropShadow_1483_50249" result="shape"/>
</filter>
<filter id="filter1_d_1483_50249" x="7.7315" y="7.1314" width="137.255" height="136.886" filterUnits="userSpaceOnUse" color-interpolation-filters="sRGB">
<feFlood flood-opacity="0" result="BackgroundImageFix"/>
<feColorMatrix in="SourceAlpha" type="matrix" values="0 0 0 0 0 0 0 0 0 0 0 0 0 0 0 0 0 0 127 0" result="hardAlpha"/>
<feOffset/>
<feGaussianBlur stdDeviation="5.92649"/>
<feComposite in2="hardAlpha" operator="out"/>
<feColorMatrix type="matrix" values="0 0 0 0 0 0 0 0 0 0 0 0 0 0 0 0 0 0 0.25 0"/>
<feBlend mode="normal" in2="BackgroundImageFix" result="effect1_dropShadow_1483_50249"/>
<feBlend mode="normal" in="SourceGraphic" in2="effect1_dropShadow_1483_50249" result="shape"/>
</filter>
<linearGradient id="paint0_linear_1483_50249" x1="81.0786" y1="17.1411" x2="72.0693" y2="134.041" gradientUnits="userSpaceOnUse">
<stop stop-color="#FF5E9E"/>
<stop offset="1" stop-color="#FA9445"/>
</linearGradient>
</defs>
</svg>
