<?xml version="1.0" encoding="utf-8"?>
<!-- Generator: Adobe Illustrator 28.4.1, SVG Export Plug-In . SVG Version: 6.00 Build 0)  -->
<svg version="1.1" id="Layer_1" xmlns="http://www.w3.org/2000/svg" xmlns:xlink="http://www.w3.org/1999/xlink" x="0px" y="0px"
	 viewBox="0 0 373 368" style="enable-background:new 0 0 373 368;" xml:space="preserve">
<style type="text/css">
	.st0{display:none;}
	.st1{display:inline;}
	.st2{display:inline;clip-path:url(#SVGID_00000109010272354101022280000015311065582655815846_);}
	.st3{fill:#7E61FF;}
	.st4{fill:#9F80FF;}
	.st5{fill:#53A0A3;}
	.st6{fill:#6E4A9B;}
	.st7{fill:#5D4282;}
	.st8{fill:#B783D1;}
	.st9{fill:#76589B;}
	.st10{fill:#A06DBA;}
	.st11{fill:#502D80;}
	.st12{fill:#34466E;}
	.st13{fill:#FADECA;}
	.st14{fill:#D9A551;}
	.st15{fill:#BE73D1;}
	.st16{fill:#59338F;}
	.st17{fill:#FFFFFF;}
	.st18{fill:#3C9186;}
	.st19{fill:#85B386;}
	.st20{fill:#69BA91;}
	.st21{fill:#6356D6;}
	.st22{fill:#5D51C9;}
	.st23{fill:#CCBDFF;}
	.st24{fill:url(#SVGID_00000152961470055325799150000001962592597383374508_);}
	.st25{fill:url(#SVGID_00000056389087345410046100000001289896689061559483_);}
	.st26{fill:#FFFAE6;}
	.st27{fill:#FFF5CF;}
	.st28{fill:#C495DE;}
	.st29{fill:#ADEDFF;}
	.st30{fill:#FFEFC4;}
	.st31{fill:#6C6C96;}
	.st32{fill:#824B6F;}
	.st33{fill:#58A67E;}
	.st34{fill:#5A3C5C;}
	.st35{fill:#754465;}
	.st36{fill:#734163;}
	.st37{fill:#966290;}
	.st38{fill:#6EAC8D;}
	.st39{fill:#629987;}
	.st40{fill:#508F86;}
	.st41{fill:#92D18F;}
	.st42{fill:#85C28D;}
	.st43{fill:#BAD17B;}
	.st44{fill:#6AA88D;}
	.st45{fill:#78426A;}
	.st46{fill:#8F516F;}
	.st47{fill:#BF6172;}
	.st48{fill:#609684;}
	.st49{fill:#4C9677;}
	.st50{fill:#85C286;}
	.st51{fill:#1D2B38;}
	.st52{fill:#854D76;}
	.st53{fill:#8D8CC4;}
	.st54{fill:#82B8E8;}
	.st55{fill:#6238EB;}
	.st56{fill:#437A6D;}
	.st57{fill:#468069;}
	.st58{fill:#BBD0FF;}
	.st59{fill:#827D99;}
	.st60{fill:#D4E1FF;}
	.st61{fill:#23283D;}
	.st62{fill:#4E4766;}
	.st63{fill:#6BA1D1;}
	.st64{fill:#5CAD84;}
	.st65{fill:#4A8C7B;}
	.st66{fill:#AEA3D1;}
	.st67{fill:#7E74A6;}
	.st68{fill:#B3A9D1;}
	.st69{fill:#CFE08B;}
	.st70{fill:#8C7CA6;}
	.st71{fill:#20373D;}
	.st72{fill:#253B47;}
	.st73{fill:#192530;}
	.st74{clip-path:url(#SVGID_00000127763680719650476840000007602906303211067064_);}
	.st75{fill:#6B52FB;}
	.st76{fill:#B8A3FF;}
	.st77{fill:url(#SVGID_00000183960568540663920380000012402511655427255204_);}
	.st78{fill:url(#SVGID_00000037692180137166458460000013305590904932585892_);}
	.st79{fill:url(#SVGID_00000093873950318634087080000014336411536703135151_);}
	.st80{fill:#59A1FF;}
	.st81{fill:#4294FF;}
	.st82{fill:#A3CAFF;}
	.st83{fill:#484294;}
	.st84{fill:#AA7AC2;}
	.st85{fill:#2F5C66;}
	.st86{fill:#7AA9E6;}
	.st87{fill:#F0CA8C;}
	.st88{fill:#FFDFAB;}
	.st89{fill:#E5A16A;}
	.st90{fill:#4F999C;}
	.st91{fill:#FCBDD6;}
	.st92{fill:#D9925B;}
	.st93{fill:#FFF1D9;}
	.st94{fill:#C77BA7;}
	.st95{opacity:0.7;fill:#7381FF;enable-background:new    ;}
	.st96{fill:#B86796;}
	.st97{fill:#D6E3FF;}
	.st98{fill:#398A85;}
	.st99{fill:#59B0A2;}
	.st100{fill:#52A9FF;}
	.st101{fill:#528C75;}
	.st102{fill:#8A66FF;}
	.st103{fill:#8462F5;}
	.st104{fill:#5E6AF2;}
	.st105{fill:#754478;}
	.st106{fill:#443E59;}
	.st107{fill:#276F96;}
	.st108{fill:#7D456E;}
	.st109{fill:#505C80;}
	.st110{fill:#6473A1;}
	.st111{fill:#63A6FF;}
	.st112{fill:#4F9BFF;}
	.st113{fill:#63CBFF;}
	.st114{fill:#33705E;}
	.st115{fill:#856987;}
	.st116{fill:#58AC77;}
	.st117{fill:#2F6653;}
	.st118{opacity:0.63;fill:#9891FF;enable-background:new    ;}
	.st119{fill:#703E64;}
	.st120{fill:#543857;}
	.st121{fill:#AB576F;}
	.st122{fill:#964D66;}
	.st123{fill:#C46375;}
	.st124{fill:#8A475E;}
	.st125{fill:#D66D8A;}
	.st126{fill:#5FA38B;}
	.st127{fill:#B0728D;}
	.st128{fill:#8483B8;}
	.st129{fill:#D3E890;}
	.st130{fill:#9190C9;}
	.st131{fill:#B9E08B;}
	.st132{fill:#7A6D91;}
	.st133{fill:#A293BA;}
	.st134{fill:#549981;}
	.st135{fill:#5C3A5B;}
	.st136{fill:#874D69;}
	.st137{fill:#357562;}
	.st138{fill:#75745B;}
	.st139{fill:#6B6A47;}
	.st140{fill:#3B8264;}
	.st141{fill:#7978A8;}
	.st142{fill:#4F5C7D;}
	.st143{fill:#43435E;}
	.st144{fill:#B85571;}
	.st145{fill:#8B8AC2;}
	.st146{fill:#8181B5;}
	.st147{fill:#67668F;}
	.st148{fill:#5C5B80;}
	.st149{fill:#A5A4DB;}
	.st150{fill:#4B8F69;}
	.st151{fill:#3B826D;}
	.st152{fill:#66A8FF;}
	.st153{fill:#FA4E89;}
</style>
<g class="st0">
	<defs>
		<rect id="SVGID_1_" y="0" width="372.3" height="368"/>
	</defs>
	<clipPath id="SVGID_00000105391364889955777610000013829277344721248904_" class="st1">
		<use xlink:href="#SVGID_1_"  style="overflow:visible;"/>
	</clipPath>
	<g style="display:inline;clip-path:url(#SVGID_00000105391364889955777610000013829277344721248904_);">
		<path class="st3" d="M0.1,50.5c46-24.8,74.2,11.3,89.6,32.2c50-30.2,111,3.4,107.3,67.7c46.6,5.7,104.2,52.4,46.4,141.8H0.1V50.5z
			"/>
		<path class="st4" d="M96.4,186.8c24.1-17.5,65.5-18.7,80.7,0c16.5-4,40.2-3.5,53.8,12.4H96.4V186.8z"/>
		<path class="st5" d="M34.7,91.4c-3.5-0.6-6.9,1.4-7.2,7.5c-1.8-0.7-6.2-0.9-6.8,7.4l20.6-0.2C41.3,95.4,38.3,92,34.7,91.4z"/>
		<path class="st6" d="M26.6,188.2c-0.7-10.8-1.9-27.7-2.2-32.4c-0.3-4.7-2.3-8.6-3.6-11.6c-1.6-3.6-2.6-7.5-2.9-11.4
			c-0.3-4.7-1.6-17.2-1.6-21.4c0-4.2,0.6-4.9,7.9-5.7c7.3-0.8,72.5-0.5,84.7,0c12.2,0.5,19.8,0.6,23.8,1.2c3.9,0.7,4.2,1.5,4.2,3.2
			s-1,22.9-1,26.2s-1.6,13.3-1.9,16.1c-0.3,2.7-2.9,4.9-4.2,6.8c-1.3,2-8.9,10.5-9.7,11.9c-0.8,1.3-1.7,3.5-2.1,8.9
			c-0.4,5.3-1.9,16.2-2.2,18.8c-0.3,2.5-3.8,5.2-7.2,8.3c-3.4,3.1-8.2,6.9-11.4,10.2c-3.2,3.3-12,11.1-19.3,9.2
			c-7.3-1.9-24.2-6.2-30.5-10.6c-6.3-4.5-12.5-12.6-14.8-15.8C30.3,196.9,26.9,195.2,26.6,188.2z"/>
		<path class="st7" d="M58.5,115c1.6,6.5,1.1,16.3,0.9,18.7c-0.2,2.3-0.7,13.9-0.4,15.7c0.3,1.8,0.3,6.1,0.4,9.6
			c0,0.4-0.1,0.8-0.3,1.1c-0.2,0.3-0.5,0.6-0.8,0.8c-0.3,0.2-0.7,0.3-1.1,0.3c-0.4,0-0.8-0.1-1.1-0.3l-14-8c-0.8-0.4-1.5-1.1-2-1.8
			c-0.5-0.8-0.8-1.6-0.8-2.6c-0.2-2.9-0.5-7-0.4-8.3c0.1-1.3-2.3-7.1-3.6-9.2c-1.6-2.9-2.6-6-3-9.2c0-1.9,0.7-11.5,0.7-11.5
			l14.4,0.4L58.5,115z"/>
		<path class="st8" d="M135.8,133.7c0.2-6.7,0.9-22.1,0.9-23.5s-0.2-2.4-3.4-3l-3.3,1.8c0,0,2.2,5.3,2.7,7.2c0.5,1.9,1,7,1,7
			l0.9,10.5H135.8z"/>
		<path class="st7" d="M119.3,124.8c0,0-1-8.8-1.7-13.8l-6.1-3.5l-31,5.4c0,0,0.7,12.7,0.4,16.1c-0.3,3.4-0.7,6.1,0,7.2
			c0.7,1.1,2.8,5.3,4.1,7.6c1.3,2.2,2.6,3.8,2.4,4.9c-0.2,1.1-2.4,11.5-2.4,11.5l1.8,23l29.4,12c0.6-4.5,1.5-11.4,1.7-15.2
			c0.4-5.3,1.3-7.7,2.1-8.9c0.7-1.2,1.8-2.2,3.5-4.3l-2.2-30.1v-5.8L119.3,124.8z"/>
		<path class="st9" d="M106.4,112.4c2.4,1.5,4.6,3.8,5.1,5.1c0.6,1.3,3.8,4.1,4.7,7.7c0.8,3.5,0,2.1,0,2.1c-1.2-1.5-2.6-2.9-4-4.2
			c-1.6-1.2-5.1-3.7-5.7-4.6c-0.8-2-1.5-4-2.1-6.1H106.4z"/>
		<path class="st6" d="M110.1,133.8c17-1.2,40-0.6,47.8-0.1c7.8,0.5,6.9,0.7,8,2c1,1.2,0.7,4.8,0.7,9.1c0.1,4.3-1.2,11.6-1.2,14.3
			c-0.3,4.2-1.3,8.2-2.8,12.1c-1.9,4.8-5,7.1-8.6,10.1c-3.6,3-5.2,2.2-9.8-0.2c-4.6-2.4-10.6-6-11.1-6.3c-0.6-0.3-1.5-0.3-6.7-1
			c-5.2-0.7-9.4-0.8-10.4-3.4c-1.5-4.5-2.8-9.1-3.7-13.7c-0.3-2.1-1.3-4-2.8-5.4c-1-1.1-2.4-2.4-3.3-3.5c-1.1-1.4-1.6-3.1-1.4-4.9
			c0.1-2.1,0.2-5.1,0.4-6.3C105.2,135.5,105.4,134.1,110.1,133.8z"/>
		<path class="st10" d="M158.4,144.8v6.5c0,1.1,1.1,2.7,1.5,4.9c0.4,2.1,0.6,4.2,0.5,6.3c-0.1,2-0.7,0.7-0.9-1.6
			c-0.3-2.2-2.3-4.9-3.6-6.5c-1.1-1.4-1.8-3-1.9-4.8c-0.1-1.9-0.3-3.9-0.7-5.8L158.4,144.8z"/>
		<path class="st5" d="M145.3,139.5c7-1,14.1-1.6,21.1-1.7c0-0.7-0.2-1.5-0.6-2.1c-1-1.2-1.1-1.6-8-2c-6.8-0.4-30.8-1.1-47.8,0.1
			c-4.7,0.3-4.8,1.8-5.1,2.8c-0.3,1-0.1,0.7-0.1,1.2c2.7,0.3,12.3,1.9,13.5,2.1c1.2,0.2,2.5,1,4.4,1.8c1.9,0.7,5.6,2.7,7.6,3
			c4.2,0.6,8.5,0.8,12.7,0.8l15.2-0.7c0.1-0.6,0.1-1.2,0-1.8c-0.3-0.6-1.2-1.5-6.4-2.2C146.9,140,142.4,139.9,145.3,139.5z"/>
		<path class="st5" d="M136.6,108.7c-0.5-0.7-1.4-1.2-4-1.7c-2.6-0.5-11.6-0.8-23.8-1.2l-8-0.6c-19.6-0.4-70-0.3-76.6,0.3
			c-6.6,0.6-6.5,1.2-7.3,2.4l4.3,0.7c1.5,0.3,7.6,1.6,11.9,1.6c2.2,1.6,4.4,3,9.5,3c5.1,0,11.4,1.6,15.9,1.9c4.5,0.3,5.2,1.2,10,1
			h18.9c4.3,0,8.6-0.2,12.8-0.7c4.2-0.6,5.6-2,6.2-3c3.2,0,12.3-1.7,14.8-1.8C126.3,110.5,131.5,109.9,136.6,108.7L136.6,108.7z"/>
		<path class="st11" d="M104.4,72.7H57.1c-0.1,0-0.2,0-0.3,0.1s-0.1,0.2-0.1,0.3l0.5,2.7h46.7L104.4,72.7z"/>
		<path class="st12" d="M113.7,106.1H99.3l0.8-14.8l0.1-1.6h12.4l0.1,1.6L113.7,106.1z"/>
		<path class="st13" d="M107.7,80.2c0,3.2-0.2,6.3-0.7,9.4c-0.2,0.8-0.3,1.7-0.5,2.4c-1,5-3,9.8-6,14h-5.1l8-30.2l0.3-0.8h2.7
			l0.2,0.8l0.4,1.6L107.7,80.2z"/>
		<path class="st13" d="M117.6,106.1h-5.1c-2.9-4.2-5-9-6-14c-0.2-0.8-0.3-1.6-0.4-2.4c-0.5-3.1-0.8-6.3-0.7-9.4l0.7-2.8l0.3-1.6
			l0.2-0.8h2.8l0.2,0.8L117.6,106.1z"/>
		<path class="st14" d="M103.7,75.8c1.5,2.1,3.9,2.1,5.4,0H103.7z"/>
		<path class="st15" d="M104.4,75.8l-0.1,0.6l-3.6,13.3l-0.5,1.6l-4,14.8h-1.7l8.2-30.2H104.4z"/>
		<path class="st15" d="M118.5,106.1h-1.7l-4-14.8l-0.5-1.6l-3.6-13.3l-0.1-0.6h1.7L118.5,106.1z"/>
		<path class="st16" d="M102.7,75.8l-8.2,30.2H48.8l8.3-30.2H102.7z"/>
		<path class="st13" d="M89.6,58.1l2-0.9c0.1,0,0.1-0.1,0-0.1l-2-0.9h-0.1l-0.8-2.1h-0.1l-0.9,2.1l-2.1,0.9l2.1,0.9l0.9,2.1h0.1
			L89.6,58.1L89.6,58.1z"/>
		<path class="st5" d="M72.2,98.8c0.7-5.1,2.2-8.7,3.6-9.8c1.3-1.1,2.6,1.3,3.6,5.5c1.8-0.3,3.2-0.3,4.5,2.6
			c0.7,1.6,1.3,3.2,1.8,4.9c3.4-0.1,7,1.8,7.4,4.8H72.2V98.8z"/>
		<path class="st15" d="M110.3,72.7h-7.6c-0.1,0-0.2,0-0.3,0.1c-0.1,0.1-0.1,0.2-0.1,0.3l0.5,2.7h7.6l0.5-2.7c0-0.1,0-0.2-0.1-0.3
			C110.5,72.7,110.4,72.7,110.3,72.7z"/>
		<path class="st17" d="M71.8,46.7h-3.2v10.4h3.2V46.7z"/>
		<path class="st18" d="M62.4,99c-0.4-1.3-1.2-2.4-2.3-3.3c-1.1-0.8-2.4-1.3-3.8-1.4c-2.8-0.2-5.6,0.7-7.9,2.4
			c-2.2,1.7-3.4,6.1-4.5,9.8h27.4C71.4,100.1,66.6,98.4,62.4,99z"/>
		<path class="st19" d="M60.1,109.3c0.6-5.4,1.9-6.6,2.5-5.2c0.7,1.4,1.2,5.2,1.2,5.2H60.1z"/>
		<path class="st19" d="M80.5,106.1c-0.3-1.6-1.6-2.8-2.4-2.5c-0.8,0.3-1.9,2.2-2.2,5.4h7.4C82.6,107.2,82.7,106.7,80.5,106.1z"/>
		<path class="st7" d="M149,176.9c1.6-0.9,2.9-2.2,3.8-3.7c0.7-1.2,0.7-4,0.5-5.4c-0.2-1.4-6.1-6.5-6.9-7.6c-1.6-2-2.9-4.3-3.9-6.6
			c-0.6-1.9-6.4-4.7-8.3-5c-2-0.4-2.4,1.3-2.4,2.8c0,1.5,0.4,5.9,0,7.2c-0.4,1.3-0.3,3.7,1.1,4.9c2,2.1,3.8,4.3,5.4,6.7
			C139.1,171.5,147.7,177.6,149,176.9z"/>
		<path class="st18" d="M125,128.9c0,0-0.7-4.7-2.4-7.3c-1.8-2.6-4.4-1.7-5.1,0c-0.7,1.7-0.2,2.9-1.2,3.5c-1,0.7-3.9,5.2-4.7,9.3
			h19.2C130.4,130.6,127.7,128.8,125,128.9z"/>
		<path class="st20" d="M136.6,108.7c-3.3,0.8-6.7,1.4-10.1,1.7c-4.2-2.4-11.2-2.7-15-2.8c-3.7-0.1-6.4-1.1-9.9-1.5h15.8
			c7.3,0.3,12.3,0.5,15.2,0.9C135.5,107.5,136.2,107.9,136.6,108.7z"/>
		<path class="st20" d="M165.9,135.6c-1-1.2-1.1-1.6-8-2c-4.7-0.3-14.8-0.7-25.9-0.6c5.1,0.4,10.7,1.2,11.4,2.1
			c5.1-0.6,12.3-0.3,13,0.7c1.9-0.2,3.9,0.1,5.6,0.9c0.2,0.1,0.4,0.2,0.6,0.4c0.2,0.2,0.3,0.4,0.4,0.6h3.4
			C166.4,137.1,166.2,136.3,165.9,135.6L165.9,135.6z"/>
		<path class="st20" d="M144.3,139.7c-2-1.9-4.6-2.9-7.3-2.9c1.9,0.7,2.6,4,2.6,4c1.5-0.1,2.9-0.1,4.4,0c2,0.2,5.5,1.1,6.8,1.2
			c1.3,0.1,3.2,1,3.2,1.8v1.1l4.3-0.2c0.1-0.6,0.1-1.2,0-1.8c-0.3-0.6-1.2-1.5-6.4-2.2C148.3,140.2,144.9,140,144.3,139.7
			L144.3,139.7L144.3,139.7z"/>
		<path class="st21" d="M177.6,233c9.3-1.7,20.4-0.8,25.6,0c0.9,4,0.1,9.6-2.5,11.9c-2.6,2.3-3.7,3-3.9,4.6c-0.2,1.6-1.9,4.9-7.8,3
			c-5.9-2-9.5-3.8-10.6-8.6S174.5,233.5,177.6,233z"/>
		<path class="st22" d="M165.9,111.8c0.1,3.4,0.8,4.2,1.7,4.9c0.8,0.7,1.6-0.4,2.4-1.9c0.6-1.4,0.9-2.9,0.7-4.4c0-0.7-0.6-0.6-2-0.6
			c-0.9-0.1-1.9,0.1-2.7,0.5C165.8,110.6,165.8,110.9,165.9,111.8z"/>
		<path class="st23" d="M244.7,284.7c-10-48-69.3-41.9-87-38.5c-8.7-45.4-47.6-67.7-89.5-72.4c-7.3-18.1-29-40.1-68.1-29v36.4V368
			h372.2C362.7,318.6,326.9,281.7,244.7,284.7z"/>
		
			<linearGradient id="SVGID_00000167355814352626089040000014827989925653342362_" gradientUnits="userSpaceOnUse" x1="121.3019" y1="160.1815" x2="-3.2441" y2="225.6165" gradientTransform="matrix(1 0 0 -1 0 369.2756)">
			<stop  offset="3.000000e-02" style="stop-color:#FFFFFF"/>
			<stop  offset="1" style="stop-color:#CCBDFF"/>
		</linearGradient>
		<path style="fill:url(#SVGID_00000167355814352626089040000014827989925653342362_);" d="M51.7,193.9c45-1.1,86.7,21.4,106,52.3
			c-8.7-45.4-47.6-67.7-89.5-72.4c-4.7-11.7-15.4-25-32.9-30C46.3,155,46.7,164.2,51.7,193.9z"/>
		
			<linearGradient id="SVGID_00000088108457223931490910000001196639848562974090_" gradientUnits="userSpaceOnUse" x1="234.0154" y1="92.6316" x2="331.3534" y2="-31.2054" gradientTransform="matrix(1 0 0 -1 0 369.2756)">
			<stop  offset="0" style="stop-color:#FFFFFF"/>
			<stop  offset="1" style="stop-color:#CCBDFF"/>
		</linearGradient>
		<path style="fill:url(#SVGID_00000088108457223931490910000001196639848562974090_);" d="M244.7,284.7
			c-6.8-32.8-36.8-40.3-60.6-40.7c22.2,2.7,42.8,18.5,43.1,42.8c-40.8,9.1-49.8,22.4-49.8,22.4c64.5-0.7,114.1,10.3,148.3,58.8h46.6
			C362.7,318.6,326.9,281.7,244.7,284.7z"/>
		<path class="st26" d="M312.1,310l2.1-0.9l-2.1-0.9H312l-0.8-2.1c-0.1-0.1-0.1-0.1-0.1,0l-0.9,2.1L308,309l2.1,0.9l0.9,2.1
			c0,0.1,0,0.1,0.1,0L312.1,310L312.1,310z"/>
		<path class="st27" d="M264.3,271.5l2.5-1.1l-2.5-1.1l-1.1-2.4c0-0.1,0-0.1-0.1,0l-1,2.4h-0.1l-2.4,1.1l2.4,1.1h0.1l1,2.4
			c0.1,0.1,0.1,0.1,0.1,0L264.3,271.5z"/>
		<path class="st28" d="M70.6,183.9l2.4-1.1l-2.4-1.1h-0.1l-1-2.4h-0.1l-1.1,2.4l-2.5,1.1l2.5,1.1l1.1,2.4h0.1L70.6,183.9
			L70.6,183.9z"/>
		<path class="st29" d="M177.8,275.3l3.4-1.5c0.1,0,0.1-0.1,0-0.1l-3.4-1.5l-1.5-3.4h-0.2l-1.5,3.4l-3.4,1.5c-0.1,0-0.1,0.1,0,0.1
			l3.4,1.5l1.5,3.4h0.2L177.8,275.3z"/>
		<path class="st30" d="M142.8,292l1.3-0.7l-1.3-0.6l-0.7-1.4h-0.1l-0.6,1.4l-1.4,0.6l1.4,0.7l0.6,1.3h0.1L142.8,292z"/>
		<path class="st31" d="M118.1,250.8c4.5-1.8,6.1-2.6,7.1-1.2c0.7,1,1,2.1,1,3.3L118.1,250.8z"/>
		<path class="st32" d="M120.7,234.9c-4.2,6.7-7.2,16-7.2,16l2,0.7c2.1-6.7,6-16,6-16L120.7,234.9z"/>
		<path class="st33" d="M119.1,236.5l-3.2,3.5c-0.8-2.6,0.1-4.4,2.5-4.8c-1-0.5-4.2-2.5-4.2-2.5c1.5-0.6,3.4-0.3,5.3,1.6
			c0.7-1.1,2.4-2.4,5.2-1.1l-3.4,1.8c2.8,0.4,3.6,2,4.8,3.7l-4.7-1.6l-0.3,5.5C121.2,242.6,118.7,238.7,119.1,236.5z"/>
		<path class="st32" d="M129.6,365.9H0.1V265.4l53.7-9.1l82.8,5.3c0,3.5-2.7,23.6-2.7,23.6c0.7,2.8,2.9,7,4,11.4
			c1.1,4.4,1.5,6.2,1.6,9.6v12.5l1.1,16.1L129.6,365.9z"/>
		<path class="st34" d="M48.2,270.9l2.5,17.4l2.8,8.5l0.8,33.8H0.1v-70.8l48.7,2.7L48.2,270.9z"/>
		<path class="st35" d="M36.4,276.5l5.7,8.6l3.6,13.5l-11.9-4.4l-2.5-10.4c0,0,0.1-5.5,0-6.9C31.2,275.6,34,275.1,36.4,276.5z"/>
		<path class="st36" d="M76.2,274.6l5.2,13.8l5.7,8.3l1.2,10.4l2,11.9l-18.5,3.3v-13.4l1.4-10.4L68,287.8v-16.1L76.2,274.6z"/>
		<path class="st35" d="M101,261.3l1.1,13.1c0,0,3.1,4.2,5.7,7.4c2.6,3.2,8.8,9.6,10.3,11.4c1.5,1.8,1.8,2.1,3.3-3.3
			c1-3.5,1.7-7.1,2.2-10.7c0,0-0.7-4.6-1.4-5.8l-4.9-6.9l-1.7-6.8L101,261.3z"/>
		<path class="st32" d="M121.4,276.5c0,1.3-0.4,6-0.4,6l-0.7,1.4l-1.3-2.9l-1-5.4L121.4,276.5z"/>
		<path class="st37" d="M137.9,296.6c-1.1-4.4-3.3-8.6-4-11.4c0,0,2.7-20.1,2.7-23.6l-2.7-0.2l-2,1.5l-0.5,7.7l0.2,6.7l-2.5,7.3
			c0,0,4.7,10.1,4.8,10.5l2.2,7.8l1.5,7.5l1.9-0.3v-3.8C139.4,302.8,139,301,137.9,296.6z"/>
		<path class="st37" d="M96.4,275.6l0.2,11.2c0,0,5.2,7.8,5.8,9.9l1.1,10.4L93,289.2c0,0,0.6-4.2,0.6-6.1c0-1.9-0.6-7.6-0.6-7.6
			H96.4z"/>
		<path class="st38" d="M0.1,322.2c72.4-11.9,117.4-20.4,148.2-23.8c30.8-3.4,68.3,1.3,105.1,11c15.1,3.9,19.9,9,24.6,28.2
			c4.7,19.2,5.7,30.4,5.7,30.4H0.1V322.2z"/>
		<path class="st39" d="M187.7,326.2c6.3-0.3,11.7,0.7,12.9,3.3L187.7,326.2z"/>
		<path class="st40" d="M61.5,322.3c21.6-1.7,38.7,3,44.7,17.4l-29.9,11.9l-14.8-4.1V322.3z"/>
		<path class="st39" d="M106,356c9-10.3,27.2-17.7,41.7-8.9c14.5,8.9,14.9,12.8,14.9,12.8C149.6,354.5,123.9,352,106,356z"/>
		<path class="st41" d="M221.6,301.7c0.4-8.9,4-12.1,6-13.1c2-0.9,2,2.6-0.4,7.4c5.5-3.5,7.7-2.4,8-0.9c0.3,1.5-4,3.8-6.8,5.1
			c5.8-1,11.4,0.6,3.4,3.4c-8,2.8-10.7,3.3-10.7,3.3L221.6,301.7z"/>
		<path class="st42" d="M277.9,335.2c-4.7-18.1-9.5-22.9-24.6-26.6c-36.8-9.1-74.2-14.3-105.1-11c-17.1,1.9-51.9,8.6-80.3,13.2
			c16.2-0.8,32.3-1,46.8-0.4c19.1-2,38.4,3,48.8,6.4c12.2,0.4,19.7,3.9,19.7,3.9s24.4-9.2,43.3,0c16.1-2.1,29.1-1,41.9,3.6
			C273.8,326.3,274.4,327.6,277.9,335.2z"/>
		<path class="st43" d="M176.2,301.6c-1.1-2.3-5.7-3.3-8.6-1.7L176.2,301.6z"/>
		<path class="st44" d="M229.4,313.9c-3.5,0.3-7.1,0.5-10.7,0.5c-1.6,0-0.7-1.8,4.7-1.8C228.8,312.6,229.4,313.9,229.4,313.9z"/>
		<path class="st38" d="M167.6,297c-2.2-4.1,1.3-6.9,4.5-4.9c0.4-4.7,10.4-8.3,13.8-1.9c3.4,6.4,3.4,7.6,3.4,7.6L167.6,297z"/>
		<path class="st44" d="M210.8,307.8c-18.4,2.7-39.8,4.8-49.4,4.8c-9.6,0-8.2-4,15.5-6.3C200.7,304.1,210.8,307.8,210.8,307.8z"/>
		<path class="st45" d="M273,320.7c-5,12.4-8.2,10.7-14.2,14.4c-29.8,17.1-53.6,32.9-53.6,32.9h79c0,0-0.9-11.7-5.7-31.4
			C276.8,329.6,275.1,324.6,273,320.7z"/>
		<path class="st34" d="M254.1,338.4c3.1,4.1,5.5,8.7,7,13.6l0.7,5.3l1.5,0.7c0,0-0.2-3.5-0.3-5.1c-0.1-1.6-2-7.7-2-7.7l-4.5-8.4
			L254.1,338.4z"/>
		<path class="st34" d="M237.7,348.3c2.3,4.9,3.7,10.1,4.2,15.5l0.8,4.2h-37.6L237.7,348.3z"/>
		<path class="st45" d="M225.6,358l8,4.9c0.4,0.1,0.9,0.1,1.3-0.1c0.4-0.2,0.7-0.6,0.8-1c0.7-1.7-1.6-7-2.2-8.7
			c-0.5-1.1-0.9-2.2-1.1-3.4L225.6,358z"/>
		<path class="st46" d="M278.4,336.6c-1.6-6.8-3.3-11.9-5.4-15.9c-2.3,5.7-6.3,8.4-8.2,10l1.7,2.1c5.2,8.7,6.5,20.2,6.5,20.2
			s5.7,10.2,6.1,14.9h5.1C284.1,368,283.2,356.3,278.4,336.6z"/>
		<path class="st47" d="M280.8,347.4c-0.7-3.3-1.5-6.9-2.4-10.9c-1.6-6.8-3.3-11.9-5.4-15.8c-0.6,1.3-1.3,2.6-2.1,3.8l-0.9,3.7
			c2.3,4.3,5,10.5,5,10.5l3,3.5L280.8,347.4L280.8,347.4z"/>
		<path class="st48" d="M261.4,334.9c-7.8,9.7-17.6,13.9-28.6,16.6c-11,10.7-25.9,16.5-25.9,16.5h-42.4c0,0,34.1-10.2,44.5-17.7
			c13.3-3.4,27-7.9,35.9-15.5c3.9-1.9,24.8-3.6,26.1-16.5c0.8,0.7,1.4,1.6,2,2.5C273,326.5,267.9,331.3,261.4,334.9z"/>
		<path class="st17" d="M76.2,203.8l1.5-0.7l-1.5-0.7l-0.7-1.4l-0.7,1.3l-1.5,0.7l1.5,0.7l0.7,1.5L76.2,203.8L76.2,203.8z"/>
		<path class="st20" d="M64,229.5c10.3-11.6,23-6,25,5c8.5-8.1,17.4-1.6,17.8,9.2c0.4,10.8,0,17.1,0,17.1H60.2L64,229.5z"/>
		<path class="st49" d="M64,229.5c13.5-2.8,18.8-1.3,21.4,7.2c11.4-0.7,15.4,3.5,18.5,11.9L56,242.7L64,229.5z"/>
		<path class="st33" d="M136.6,261.6c-11.4,4.1-19.6,0.5-23.4,0.7c-3.7,0.2-12.3,0-19.1-0.6c-5.2,0.5-10.4,0.5-15.5-0.1
			c3.9,0.7,5.4,3.5,7.7,5.2c3.8,0.7,7.4,4.1,8.2,6.5c2.2,0.7,1.9,2.2,1.9,2.2c-4.8,0.6-9.7,0.9-14.5,0.9c-4.3,0-15.3-2.4-20.4-3.1
			c-5.1-0.7-26-5.4-26-5.4s-21,0-35.4-2.7v-27.2c17.4-1.4,34.9-0.3,51.9,3.4c24,1.2,38.5,3.6,54.4,7.2c15.9,3.5,25.4,3.9,27.8,6.9
			C136.6,258.6,136.8,258.4,136.6,261.6z"/>
		<path class="st49" d="M83.2,253.8h14.5C84.8,249.6,83.2,253.8,83.2,253.8z"/>
		<path class="st50" d="M106.5,248.7c-4.5-1-8.9-2-13.5-2.7c11.6,3.6,17.2,6,18.1,7.7c12,0.1,15.8,2.1,17.2,4.3
			c1.1,0.2,2.1,0.9,2.7,1.8c0.7,0.9,1,2,0.9,3.1c1.5-0.4,3.1-0.7,4.7-1.3c0.2-3.2-0.2-3.4-2.3-6C132.1,253,122.2,251.2,106.5,248.7z
			"/>
		<path class="st39" d="M179.2,333.7c-7.2-1.8-18-2.9-28.3-0.4c-4.1-1.2-9.8-1.3-17.1-0.1c-3.5-9.1-19.4-10.9-34.1-11.1
			c21.2-6.7,42.6-2.7,47,4.4C160,322.7,173.6,324.7,179.2,333.7z"/>
		<path class="st51" d="M131.4,368H0.1v-84.4c16-6.7,25.7-5.9,26.5,0c10.7-2.6,21.8-1.9,20.5,6.6c12.3,0.7,19.4,8.5,15.8,22.5
			c11.5-2.2,9.3,9.2,7,13.5c6.1,1.2,5.8,6.3,2.1,12.1c6.1-0.9,13.6-0.7,14.3,3.6c8-3.2,15.5-8.7,21-6.7c5.5,2,5.1,7.9,5.1,7.9
			c8.1-1.2,12-0.6,10.6,5c-0.8,3.4-1.9,6.7-3.2,9.9C129.3,358.1,134.9,358.8,131.4,368z"/>
		<path class="st52" d="M266.4,358.1c-6.5-2.6-13.8-5.5-17.6-6c-3.7-0.5-0.4,1.4,5.1,6c3.4,3,6.5,6.3,9.3,9.9h11.8
			C273.5,364.1,272.9,360.6,266.4,358.1z"/>
		<path class="st53" d="M168.3,308.6c3.2-9.6,10.4-11,11.8-11.5c0.3-11.6,0.1-13.6,8.4-16.1c8.3-2.5,19.6-3.3,26,0
			c6.5,3.3,9,12.9,9.3,17.6c0.2,2.4,0.2,4.9,0,7.3C223.8,305.9,202.9,310.6,168.3,308.6z"/>
		<path class="st54" d="M49.3,205l2.1-0.8l-2.1-0.9l-0.9-2.1h-0.1l-0.8,2.1h-0.1l-2,0.9c-0.1,0-0.1,0,0,0.1l2,0.8h0.1l0.8,2.1h0.1
			L49.3,205L49.3,205z"/>
		<path class="st55" d="M13.6,230.1c0.8,7,3.9,13.5,8.7,18.6l1.1,0.6c-4.5-9.1,4.6-14.4,3.8-19.7"/>
		<path class="st33" d="M0.1,228.1c19-9.1,32.2,2.2,37,12.3c12.2-1.7,17.9,0.7,20.4,5.9H0.1V228.1z"/>
		<path class="st33" d="M76.2,246.3H15.7v15h60.5V246.3z"/>
		<path class="st49" d="M61.5,273.5c5.1,0.7,16.1,3.1,20.4,3.1c4.8-0.1,9.7-0.4,14.5-0.9c0,0,0.4-1.6-1.9-2.2
			c-0.8-2.4-4.4-5.9-8.2-6.5c-2.2-1.8-3.7-4.5-7.7-5.2c4.4,0.4,8.9,0.5,13.4,0.3c-0.9-2.9-5.2-5.2-9.3-5.6
			c-3.4-4.1-8.3-7.1-18.7-7.1H31.8l-4.4-2.9H0.1v19c14.3,2.7,35.4,2.7,35.4,2.7S56.4,272.8,61.5,273.5z"/>
		<path class="st56" d="M0,238.9c0.6-0.9,1.3-1.6,2.2-2.2c0.9-0.5,1.9-0.8,3-0.9c1.1-0.1,2.1,0.1,3.1,0.5c1,0.4,1.8,1.1,2.5,1.9
			c0.3-8.1,4.1-9.7,6.5-9c2.3,0.7,4.8,3.2,4.8,13.1c6.1,0.3,9.7,4,10.1,7.7h-32L0,238.9z"/>
		<path class="st57" d="M92.5,231.7c-1.6,3-3.6,12.4-4.1,22.1h9.3C96.6,241.7,94,228.8,92.5,231.7z"/>
		<path class="st57" d="M78.9,247.9c0.6-7.5,1.3-10.6,2.1-11.6c0.7-0.9,2.8,5.7,3.2,11.6H78.9z"/>
		<path class="st54" d="M25.4,253.8h28.1v-15.5H25.4V253.8z"/>
		<path class="st58" d="M40.6,253.8h12.9v-15.5H40.6V253.8z"/>
		<path class="st59" d="M50.7,253.9h-3.8v-5.6c0-0.5,0.2-1,0.5-1.3c0.4-0.3,0.8-0.5,1.3-0.5c0.5,0,1,0.2,1.3,0.5
			c0.4,0.4,0.5,0.8,0.5,1.3L50.7,253.9L50.7,253.9z"/>
		<path class="st60" d="M53.5,245.5l-6.9-7.2h6.9V245.5z"/>
		<path class="st61" d="M25.4,238.3h28.1l-6.5-4.9H31.9L25.4,238.3z"/>
		<path class="st62" d="M40.6,238.3l6.5-4.9l6.5,4.9H40.6z"/>
		<path class="st63" d="M35.7,250.6c0.9,0,1.6-0.7,1.6-1.6c0-0.9-0.7-1.6-1.6-1.6s-1.6,0.7-1.6,1.6
			C34.1,249.9,34.9,250.6,35.7,250.6z"/>
		<path class="st63" d="M29.7,250.6c0.9,0,1.6-0.7,1.6-1.6c0-0.9-0.7-1.6-1.6-1.6c-0.9,0-1.6,0.7-1.6,1.6
			C28.2,249.9,28.9,250.6,29.7,250.6z"/>
		<path class="st63" d="M29.7,244.6c0.9,0,1.6-0.7,1.6-1.6c0-0.9-0.7-1.6-1.6-1.6c-0.9,0-1.6,0.7-1.6,1.6
			C28.2,243.9,28.9,244.6,29.7,244.6z"/>
		<path class="st63" d="M35.7,244.6c0.9,0,1.6-0.7,1.6-1.6c0-0.9-0.7-1.6-1.6-1.6s-1.6,0.7-1.6,1.6
			C34.1,243.9,34.9,244.6,35.7,244.6z"/>
		<path class="st54" d="M71.9,240.2h-7.8v7.7h7.8V240.2z"/>
		<path class="st59" d="M71.9,240.2h-7.8v2.5h7.8V240.2z"/>
		<path class="st54" d="M58.7,247.9h5.4v-13.8h-5.4V247.9z"/>
		<path class="st33" d="M6,257.6c7.7-3.1,13.8,4.8,13.8,4.8H2.1c0.2-1.1,0.6-2.1,1.3-2.9S5,258,6,257.6L6,257.6z"/>
		<path class="st32" d="M14.7,233.2c-3,13-2.6,29.2-2.6,29.2h3.6c-0.6-11.8,0.7-28.4,0.7-28.4L14.7,233.2z"/>
		<path class="st50" d="M14.2,236.5l-6.5,6.7c-1.1-3.8,1-7,5.4-8.6c-1.8-0.4-7.2-2.5-7.2-2.5c1.5-0.8,3.1-1.2,4.8-1.1
			c1.7,0.1,3.3,0.7,4.6,1.6c1.6-2,4.9-4.8,9.6-3.6l-6.4,4.1c5.1-0.5,6.2,1.8,8,4.2l-8.1-0.8l-1.4,8.9C17,245.4,13,240.2,14.2,236.5z
			"/>
		<path class="st64" d="M86.3,266.8c-2.2-1.8-3.7-4.5-7.7-5.2c-2.6-1.7-5.7-2.3-8.7-1.8c8.2,2.4,10,6.6,10,6.6c-1.5-0.2-3,0-4.4,0.6
			c6.1,0.5,12.2,2.3,14.5,5.7c1.5,0,3,0.2,4.5,0.7C93.6,271,90.1,267.5,86.3,266.8z"/>
		<path class="st65" d="M109.6,271.7c5.8,0.3,9.4,2.2,11.8,4.9c-7.3-0.7-8.5-1.1-12.7-2.4C104.5,272.8,102.6,271.3,109.6,271.7z"/>
		<path class="st57" d="M47.9,266.7h16.2C49.8,261.9,47.9,266.7,47.9,266.7z"/>
		<path class="st31" d="M60.1,256c-2.8,0.4-5.7,5.9-6.5,10.6h14.9C66.7,260.8,65.8,255.3,60.1,256z"/>
		<path class="st33" d="M106.2,271.9c1-2.8,3.2-3.8,4.5-2.2c2.6,0.2,5,0.4,5,4.1C115.6,273.8,109.4,274,106.2,271.9z"/>
		<path class="st66" d="M223.8,298.6c-0.3-4.8-2.8-14.3-9.3-17.6c-3.2-1.5-6.7-2.2-10.3-2.1c6.5,0.5,11.3,7.9,11.2,11.1
			c1.8,0.5,8,6.4,8.4,11.7C223.9,300.7,223.9,299.7,223.8,298.6z"/>
		<path class="st67" d="M187.1,296.1c1.8,0.3,8,2,8,6.2c0.2,2.3,0.6,4.5,1.3,6.6c5.6-0.3,10.4-0.7,14.4-1c0-2.9-2-5.9-4.6-8.5
			c-2.6-2.6-3.7-5-5-9.1c-1.2-4.1-5.2-9.9-12.7-9.2C190.6,283.3,189.8,287.9,187.1,296.1z"/>
		<path class="st68" d="M203.2,280.5c2.6,0.4,3.7,1.8,3.9,2.3c0.2,0.6-2.9-0.7-2.9-0.7L203.2,280.5z"/>
		<path class="st69" d="M212.6,304.4c1-6.1,0.4-12.6-3.4-12.3c-3.7,0.3-2.8,6.9-2.7,10.4c0,0-2-2.9-4.5-1.5s-1.7,5.9,2.9,9.3h9.2
			C222,303.6,215.5,299.6,212.6,304.4z"/>
		<path class="st69" d="M226,305.6c2.2-7.5,9.3-18.9,11.4-21.5c2.2-2.5,1.5-0.5-1.7,4.5c-3.2,4.9-8.5,17-8.5,17H226z"/>
		<path class="st69" d="M225.4,287.1c-0.3-2.9-0.9-2.1-0.7-0.6c0.3,1.5,1.7,13.1,1.3,19h0.7C226.8,299.4,226.4,293.2,225.4,287.1z"
			/>
		<path class="st70" d="M189.9,309c0.1-0.8-0.2-1.6-0.6-2.3c-0.4-0.7-1.1-1.2-1.8-1.5c0.4-0.8,0.5-1.7,0.4-2.6
			c-0.1-0.9-0.5-1.7-1.1-2.4c-2-2.4-7.5-1.6-14.8,1.7c-1.7,1.9-3,4.2-3.7,6.6h2c1-1.5,3.6-3.1,5.8-4c0.8-3.1,6.5-4.9,8-4.3
			c1.6,0.6,2.2,2.9,1.4,4.9c1.1,1,1.8,2.3,2.1,3.7L189.9,309z"/>
		<path class="st43" d="M210.7,306.9c0.7-5.5-0.1-11.4-1.1-10.8c-1,0.6-1.1,3.4-1.1,9.5c-0.7-2.1-3.4-2.7-3.3-0.7
			c-0.8-1.3-3.6-2-3.8,1c0.8,1.7,2.1,3.2,3.6,4.3h7.6C216.4,305.9,212.6,305.8,210.7,306.9z"/>
		<path class="st71" d="M46.3,311.1c11.9-4.9,13.2,8.2,13,12.2c5.1,0,5.6,5.4,4.2,11.2c7.9-5.8,8.4,3.7,8.4,3.7
			c3.7-5.8,4-10.8-2.1-12c2.2-4.4,4.5-15.9-7-13.6c3.6-14-3.6-21.8-15.8-22.4c0.7-4.5-2.1-6.8-6.3-7.7c2.3,2.5,1.9,7-0.3,8.9
			C48.9,291.3,50,303.3,46.3,311.1z"/>
		<path class="st72" d="M21.6,300.4c5-2.7,14.4-1,13.9,7.8c4.3-1,9.4,0.6,8.1,6.3c-2.9-3.5-10-3.9-16.5-1.3c0.7-1.7,1.9-3.2,3.4-4.3
			C31.1,304,28,301.5,21.6,300.4z"/>
		<path class="st71" d="M68,345.2c7.7-2.3,13.6,0.7,13.6,5.1c9-3.3,14.9,0.8,15.3,2.4c5.3-4.3,14.5-3.8,17.1-2.4
			c-5.1,0.6-13.5,5.2-15.8,8.3c5.1,0.5,7.9,3.8,7.9,9.2c-4.7-4.9-14.1-8.9-19.8-8.5c1.3-1.4,3-2.5,4.8-3.3
			c-5.4-2.8-11.5-4.1-17.6-3.6C74.7,348.8,73.2,346.5,68,345.2z"/>
		<path class="st73" d="M0.1,318.6c12.5-3.6,17.1,0.3,17.1,7.6c17.6-0.8,26.7,4.9,23.3,18.2c10.9,0.9,21.1,10.5,22.4,23.6H51.5
			c-2.5-8.9-16.5-19.4-29.8-19.4c5.1-8.2,7.2-9.1,7.2-9.1c-8.3-4.5-23.7-5-28.7-1.2V318.6z"/>
		<path class="st69" d="M235.7,310.3c3.6-2,15.9-2.1,18.3,4.3L235.7,310.3z"/>
		<path class="st70" d="M221.1,313.1c2.1-4,5.1-4.4,6.5-4.3c2.3-1.3,6.7-1.2,6.1,4.9C229.6,314.2,221.1,313.1,221.1,313.1z"/>
		<path class="st67" d="M223.7,310.1c0.8-0.4,1.7-0.2,1.9,0.2c0.2,0.4-1.2,1.7-1.3,3.3h2c0-0.9,0.3-1.8,0.9-2.5
			c1-0.8,2.9-0.2,3.8,0.5c-0.1-0.7-0.2-1.4-0.4-2.1c-0.4-1-2.2-0.9-3-0.6C226.2,308.7,224.8,309.1,223.7,310.1L223.7,310.1z"/>
		<path class="st42" d="M216.6,331.6c0-0.5-1.3-0.9-2.9-1c-1.7-0.1-3,0.2-3,0.7c0,0.5,1.3,0.9,2.9,1
			C215.2,332.4,216.6,332,216.6,331.6z"/>
		<path class="st40" d="M150.3,307.2c5.4,0,9.8-0.4,9.8-0.8c0-0.5-4.4-0.8-9.8-0.8c-5.4,0-9.8,0.4-9.8,0.8
			C140.5,306.8,144.9,307.2,150.3,307.2z"/>
		<path class="st69" d="M256.6,312.2c0-0.2-0.8-0.4-1.7-0.5s-1.8,0-1.8,0.2c0,0.2,0.8,0.4,1.7,0.5
			C255.7,312.5,256.6,312.4,256.6,312.2z"/>
		<path class="st69" d="M201.3,312.2c-0.7-0.7-2.2-0.1-2.9,1l6.7,0.3C204.7,312.2,203,311.6,201.3,312.2z"/>
		<path class="st42" d="M215.8,323.6c2.2-0.6,6,0.5,8,1.8l-19.4-1.5C206.1,322.7,210.9,322.6,215.8,323.6z"/>
		<path class="st69" d="M144.2,313.5c-0.1-3.5,0.4-7,1.2-10.4C146,306.6,145.6,310.2,144.2,313.5z"/>
		<path class="st69" d="M144.2,313.5c0-3.6-0.5-7.2-1.5-10.6c-0.4-1-0.7-1.4-0.3,1.2c0.5,2.6,1.3,9.4,1.3,9.4H144.2z"/>
		<path class="st67" d="M174.9,339.4c5.3-4.2,10.9-4.9,12.2,1.3L174.9,339.4z"/>
		<path class="st39" d="M132.5,304c0-7.7-15.1-9.5-20.8-6.7c-5.4-3.4-15.2-3.4-15.7,8.7c11.9-0.7,21-0.4,25.4,0.4
			C129.7,305.5,132.5,304,132.5,304z"/>
		<path class="st43" d="M116.3,296.1c6.1-0.7,10.5,3.5,11.1,5.3c2.2-0.5,4.7,0,5.1,2.5C132.5,297.9,123,295.5,116.3,296.1z"/>
		<path class="st40" d="M111.7,305.6c0.2-0.4,0.3-0.9,0.2-1.3c-0.1-0.5-0.3-0.9-0.6-1.2c-0.3-0.3-0.8-0.5-1.2-0.6
			c-0.5-0.1-0.9,0-1.3,0.2c0.3-0.9,0.2-1.9-0.2-2.7c-0.8-2-4.3-2.7-6.2,0.1c-2.3-0.7-3,2.4-2.1,3.7c-2.2-0.7-2.3,0.9-1.7,2.1
			C103.6,305.6,108,305.6,111.7,305.6z"/>
		<path class="st39" d="M94.3,312.5c4.4-0.8,9.2-0.2,10.8,1l-14.7,0.7C90.4,314.2,90.5,311.5,94.3,312.5z"/>
	</g>
</g>
<g>
	<defs>
		<rect id="SVGID_00000012470389186600701400000001385560273096727958_" x="0.3" y="0" width="372.3" height="368"/>
	</defs>
	<clipPath id="SVGID_00000043415291988740037990000014571750169991805887_">
		<use xlink:href="#SVGID_00000012470389186600701400000001385560273096727958_"  style="overflow:visible;"/>
	</clipPath>
	<g style="clip-path:url(#SVGID_00000043415291988740037990000014571750169991805887_);">
		<path class="st75" d="M58.5,44.2c5.2-14.8,14.8-24.6,29.1-26.7c25-3.7,45.2,10.1,45,48.6c21.1,0.9,29.6,19.9,30.4,28.8
			c50.4-12.6,101.9,26.1,72.9,96.4l-31.3,58.6L0.3,153.1V68.8C15.8,46,35.8,42.4,58.5,44.2z"/>
		<path class="st23" d="M0.3,103.5V368h372.3c-10.3-42.7-38.6-61.8-98.8-60.1c20.3-102.8-69.2-133.4-122-94.8
			c-10.9-17.7-28-24.6-48.6-24.9C110,113,49.3,81,0.3,103.5z"/>
		<path class="st76" d="M0.3,202.7h54.3v-16.4c-0.7-37.2-29.9-52.7-54.3-51.7V202.7z"/>
		
			<linearGradient id="SVGID_00000120532154160060531330000008222983913400254345_" gradientUnits="userSpaceOnUse" x1="254.5414" y1="126.9422" x2="210.1444" y2="191.8562" gradientTransform="matrix(-1 0 0 -1 373 369.2756)">
			<stop  offset="3.000000e-02" style="stop-color:#FFFFFF"/>
			<stop  offset="1" style="stop-color:#CCBDFF"/>
		</linearGradient>
		<path style="fill:url(#SVGID_00000120532154160060531330000008222983913400254345_);" d="M51.7,169.6c18.7,16.9,21,29.2,26,57
			c35.6-18.7,67.7-6.2,80.8,3l1,0.7l0.3,0.2c4.4,3.3,9.1,7.2,14.3,11.6c11.1-27.8,45.7-47.1,78.3-25.4
			c-30.4-28.5-76.4-25.4-99.9-4.3c-12.1-19-33-23.9-49.3-24.2C95.5,174.1,85.7,161.5,51.7,169.6z"/>
		
			<linearGradient id="SVGID_00000083779077954874883620000009321325081578489527_" gradientUnits="userSpaceOnUse" x1="107.249" y1="46.3218" x2="13.2502" y2="46.3218" gradientTransform="matrix(-1 0 0 -1 373 369.2756)">
			<stop  offset="0" style="stop-color:#FFFFFF"/>
			<stop  offset="1" style="stop-color:#CCBDFF"/>
		</linearGradient>
		<path style="fill:url(#SVGID_00000083779077954874883620000009321325081578489527_);" d="M359.6,338.3
			c-11.7-19-36.9-32.9-85.7-30.4c-1.9,9.5-4.8,18.7-8.5,27.6C302.3,321.5,344.2,322.7,359.6,338.3z"/>
		
			<linearGradient id="SVGID_00000017506400400770497520000005944580657515274678_" gradientUnits="userSpaceOnUse" x1="112.0625" y1="106.6963" x2="138.0675" y2="131.5773" gradientTransform="matrix(-1 0 0 -1 373 369.2756)">
			<stop  offset="0" style="stop-color:#FFFFFF"/>
			<stop  offset="1" style="stop-color:#CCBDFF"/>
		</linearGradient>
		<path style="fill:url(#SVGID_00000017506400400770497520000005944580657515274678_);" d="M258,265.4c-0.5-12.6-7.9-24.9-26-24.9
			C232,240.5,244.8,252.6,258,265.4z"/>
		<path class="st17" d="M289.2,348.7L289.2,348.7l0.7-1.7h0.1l1.6-0.7l-1.6-0.7h-0.1l-0.7-1.7h-0.1l-0.7,1.7l-1.7,0.7l1.7,0.7
			L289.2,348.7z"/>
		<path class="st5" d="M160.7,222.7l-15.2,0c-0.6-6.3,2.1-5.9,3.1-5c-0.7-6.3,4.7-5.4,5.9-3.3c1.2-0.7,4.8-1.2,6.2,5V222.7z"/>
		<path class="st80" d="M171.1,183.6c0-6.4-5.2-11.7-11.7-11.7c-6.5,0-11.7,5.2-11.7,11.7c0,6.4,5.2,11.7,11.7,11.7
			C165.9,195.3,171.1,190,171.1,183.6z"/>
		<path class="st81" d="M148.4,187.6c0.5,1.5,1.3,2.8,2.4,3.9c1,1.1,2.3,2.1,3.7,2.7c1.4,0.6,2.9,1,4.5,1.1c1.8,0.1,3.5-0.3,5.1-1
			c1-8.5,0.4-17.8-5.7-22.3c-2.8,0.2-5.5,1.5-7.4,3.6c-2,2-3.1,4.7-3.2,7.6C147.7,184.6,147.9,186.1,148.4,187.6z"/>
		<path class="st82" d="M142.9,179.4l0.5,0.7c0.3,0.3,0.6,0.6,0.9,0.7l1.9,1.2l1.6,0.7l2.4,1.1c2.7,1,5.5,1.9,8.3,2.6
			c2.8,0.7,5.6,1.3,8.5,1.7l3.1,0.4h3.6c0.4,0,0.8-0.1,1.2-0.3c0.2,0,0.5-0.1,0.7-0.3c0.2-0.1,0.3-0.2,0.4-0.3
			c0.1-0.1,0.2-0.3,0.2-0.5c0.1-0.2,0.1-0.4,0-0.5c0-0.2-0.1-0.3-0.2-0.5c-0.1-0.2-0.2-0.4-0.4-0.7l-0.9-0.7l-2-1.1l-1.6-0.7
			c0.1,0.4,0.1,0.8,0,1.2v0.2l0.9,0.5c0.6,0.3,1.2,0.7,1.8,1.1l0.7,0.6c0.1,0.1,0.2,0.2,0.2,0.3c0.1-0.1,0.1-0.1,0.1,0h-4.1
			l-3.4-0.4c-2.8-0.5-5.6-1.1-8.3-1.9c-2.7-0.7-5.4-1.5-8.1-2.4L148,181l-1-0.6c-0.6-0.2-1.2-0.5-1.8-0.9c-0.3-0.2-0.5-0.4-0.7-0.7
			l-0.2-0.2h-0.1c0.1-0.1,0.1-0.1,0.1,0h0.3l0.9-0.3h3.5c0.2-0.4,0.4-0.8,0.7-1.2l-2.1-0.2h-2.2c-0.4,0-0.8,0.1-1.2,0.3
			c-0.2,0-0.5,0.1-0.7,0.3c-0.2,0.1-0.3,0.2-0.4,0.3c-0.1,0.1-0.2,0.3-0.2,0.5C142.7,178.7,142.8,179.1,142.9,179.4z"/>
		<path class="st83" d="M158.2,222.3l2.4,0v-27.1h-2.4V222.3z"/>
		<path class="st26" d="M239.2,99.7L239.2,99.7l0.7-1.5l1.5-0.7l-1.5-0.7l-0.7-1.5h-0.1l-0.7,1.5l-1.5,0.7l1.5,0.7L239.2,99.7z"/>
		<path class="st6" d="M188.8,225.9c-0.2,2.4-0.7,9.7-1.8,16.6c-1.1,6.9-7.1,9.1-7.3,9.6c-0.2,0.5-0.8,2.5-4.6,8.1
			c-3.7,5.6-7.7,4.4-12,2.6c-13.8-5.5-21.8-10.5-22.4-16.4c-0.6-6-1.3-19.8-0.9-21c0.4-1.2,1.4-1.5,4.3-2.7
			c2.9-1.2,8.6-2.1,16.1-1.5c0,0,7.3-1.2,19.5,0C189.6,221.8,189,223.5,188.8,225.9z"/>
		<path class="st6" d="M233.8,221.1c0.4,3.5,1.6,4.5,4.3,6.7c2.7,2.2,4.8,2.9,5.2,4c0.5,1.1,1.9,7.8,4.9,9.4c3,1.6,4.6,3.2,8.4,3.2
			c3.8,0,11.9-1.8,15.3-2.8c13.7-6.2,13.4-4.7,15.3-19c7.1-3.5,7.4-7,7.7-10.8s1.8-14.4,2.2-22.9c0.5-8.5-0.6-9.5-2.9-9.7
			c-2.3-0.2-7.4-0.6-14.3-0.8c-12.9-0.5-26.3,0.5-26.3,0.5s-14.9-0.2-19.4,0c-4.5,0.2-6.3,0.7-6.6,2.2c-0.3,1.6-0.1,10.3,0,13.1
			c0.1,2.8,3.1,10.8,3.6,11.9C232.1,207.8,233.4,217.6,233.8,221.1z"/>
		<path class="st7" d="M287.9,193.6c-0.7,0.9-0.7,1-0.7,1.3s0.2,1.9,0.3,2.9c0.1,1,0.1,0.9-0.3,0.6c-0.5-0.4-1-1-1.2-1.6l-1.3-2.9
			l-0.2-3.9C284.4,189.9,288.5,192.6,287.9,193.6z"/>
		<path class="st84" d="M289.7,193.8l0.2,1.8l0.3,1.5l0.7-1.5v-1.2L289.7,193.8z"/>
		<path class="st84" d="M294.7,190.2c0.1,1.7,0.2,2-0.7,5c-0.8,3.1-0.8,2.7-0.8,5.7c0,2.4,0.2,4.7,0.5,7.1c0.3,2.5,0.4,5.1,0.3,7.7
			c0,0.3,0.1,0.5,0.2,0.7c0.5-1.5,0.8-3,0.8-4.6c0.3-3.8,1.8-14.4,2.2-22.9c0.5-8.5,0.5-9.4-2.9-9.7
			C294.6,183.1,294.6,188.5,294.7,190.2z"/>
		<path class="st84" d="M276,186c0,0-0.1,8.1,0.9,10.1c1,2,1.1,1.3,0.1,4.1c-1,2.8-1,2.9-1,4.1c0,1.2,0.4,8.2,0.4,10.6
			c0,2.4,0.5,2.5,0.5,1.2s0.5-6.3,0.6-7.5c0.1-1.1-0.2-0.9,0.8-2.2c1-1.3,1.3-1.2,1.3-2.1c0-0.8,0.4-5.8,0.6-7.6
			c0.2-1.8,0.3-7.2,0.3-9.2L276,186z"/>
		<path class="st7" d="M253.7,178.9l-15.3,0.9c0,0-1.9-1.5-1.7,0.4c-0.4,5.1-0.4,10.3-0.1,15.4c0.5,4.5,2.5,7.4,2.5,11.2
			c0,3.8,1.5,12.1,1.8,16.9c0.3,4.8,5.3,5.3,7.1,7.5c1.6,1.7,3.4,3.1,5.5,4.1c2.1,1.2,4.9,1.4,9.1,1.3l-7.7-5.4
			c-4.4-3.1-3.8-14.3-3.8-18.9c-2.6-2.1-2.4-1.8-2.5-7.1c-0.1-5.3-0.2-5,2.4-10.2c0.1-3.1-0.1-12.5-0.1-12.5L253.7,178.9z"/>
		<path class="st85" d="M246,179.3h-12.3c0,0,0-1.5,0.5-6.8c0.5-5.3,2.6-6,4.1-4.1c1.9-3.3,6.9-3.6,7.7,2.1V179.3z"/>
		<path class="st86" d="M239.7,177.3h-3.3v-6.5l3.3,1.2V177.3z"/>
		<path class="st87" d="M291.4,158.5c0.2,0.2,0.3,0.5,0.3,0.8v18.5h-17.2v-19.6h16.1C290.9,158.2,291.2,158.3,291.4,158.5z"/>
		<path class="st88" d="M277,175.4h1v-14.7h-1V175.4z"/>
		<path class="st88" d="M276.9,175.3h12.3V174h-12.3V175.3z"/>
		<path class="st89" d="M276.9,161.9c0,0,3.8,4.9,7.6,3.5c0.8,3.5,4.7,4.8,4.7,4.8v-9.5h-12.3V161.9z"/>
		<path class="st89" d="M287.7,174l1.5,1.3v-14.7h-1.5V174z"/>
		<path class="st89" d="M262.6,159.4c0-0.1,0-0.3,0.1-0.4c0.1-0.1,0.1-0.3,0.2-0.4s0.2-0.2,0.4-0.2c0.1-0.1,0.3-0.1,0.4-0.1h10.8
			v19.6h-11.9V159.4z"/>
		<path class="st90" d="M228.9,179.5l3.4,0.3c0,0-1.1,1.6,0,1.6c1.1,0,7.9-0.6,10.8-0.5s8,0.7,8,0.7c-0.1,0.2-0.2,0.5-0.2,0.8
			c0,0.3,0.1,0.6,0.2,0.8c0.3,0.6,0.8,1.1,1.4,1.5c0.6,0.4,1.3,0.6,2,0.7c2.7,0.5,5.4,0.7,8.1,0.7c4.1,0.1,8.3,0.4,12.4,0.9
			c5.2,0.7,6.7,1.6,4.3-1c-1.9-1.9-4-3.6-6.2-5.1h6.9c3,0,11.1,0,16.9-0.6c-0.2-1.3,0-2.1-3.8-2.5c-4.5-0.7-9.1-1.1-13.7-1.2
			c-8.5-0.3-17-0.2-25.5,0.4c0,0-14.4-0.2-18.8,0C230.8,177.2,229.1,178,228.9,179.5z"/>
		<path class="st7" d="M267.8,188.9c-1.9,0.7-8.2,2.6-11.2,4c-3,1.4-3.5,0.7-3,3.9c0.5,3.2,1.4,6.8,1.5,7.6c0.1,0.7,2.6-2,4.5-3.6
			c1.9-1.7,5-4.1,8-6.4c0.3-0.2,0.6-0.5,0.8-0.9c0.2-0.3,0.3-0.7,0.3-1.1C268.9,189.4,269.7,188.2,267.8,188.9z"/>
		<path class="st90" d="M139.9,225.5c-0.3,1.1,1.7,0.6,3.4,0.6c1.7,0,7.1-0.6,10.9-0.5c3.8,0.1,3.8-0.2,1.9,1.5
			c-2,1.7-2.2,2.1,3.7,0.9c6-1.2,22.9-4,25.3-3.9c2.3,0.1,3.7,0.5,3.6,0c-0.3-1.4-1.9-2.4-9-2.8c-12.2-1.2-19.5,0-19.5,0
			c-7.5-0.6-13.2,0.3-16.1,1.5C141.5,222.8,140.2,224.3,139.9,225.5z"/>
		<path class="st91" d="M271.7,120.3l0.7-1.3l1.4-0.7l-1.4-0.7l-0.7-1.4l-0.7,1.4l-1.3,0.7l1.3,0.7L271.7,120.3z"/>
		<path class="st91" d="M102.1,71.6l0.7-1.5h0.1l1.5-0.7l-1.5-0.7h-0.1l-0.7-1.5l-0.7,1.5l-1.5,0.7l1.5,0.7L102.1,71.6z"/>
		<path class="st92" d="M264.7,175.4h1v-14.7h-1V175.4z"/>
		<path class="st92" d="M270.7,175.4h1v-14.7h-1V175.4z"/>
		<path class="st92" d="M271.8,161.6v-1h-7.1v1H271.8z"/>
		<path class="st92" d="M271.8,175.3v-1h-7.1v1H271.8z"/>
		<path class="st19" d="M256.6,178.7c0-1.5-0.1-4.6,1.9-4.6c0,0,0-3.8,1.2-5.9c1.2-2.1,2.9,0.3,3.3,3.2c0,0,4.8,0.3,4.8,7.3H256.6z"
			/>
		<path class="st93" d="M276,178.6h9.2v-6.5H276V178.6z"/>
		<path class="st58" d="M275.9,172.3H271v6.5h4.9V172.3z"/>
		<path class="st94" d="M282.4,169.7h-8.3l-3.1,2.5h14.1L282.4,169.7z"/>
		<path class="st95" d="M283.8,175.8c0.1,0.1,0.2,0.3,0.2,0.5v2.4h-1.3v-2.4c0-0.1,0-0.2,0-0.2c0-0.1,0.1-0.2,0.1-0.2
			c0.1-0.1,0.1-0.1,0.2-0.1c0.1,0,0.2,0,0.3,0C283.5,175.6,283.7,175.7,283.8,175.8z"/>
		<path class="st17" d="M281.8,174.8c0-0.3-0.3-0.6-0.6-0.6s-0.6,0.3-0.6,0.6c0,0.3,0.3,0.6,0.6,0.6S281.8,175.1,281.8,174.8z"/>
		<path class="st17" d="M279.5,174.8c0-0.3-0.3-0.6-0.6-0.6c-0.3,0-0.6,0.3-0.6,0.6c0,0.3,0.3,0.6,0.6,0.6
			C279.3,175.4,279.5,175.1,279.5,174.8z"/>
		<path class="st96" d="M276,170.6v-1.5h1v1.4l-0.5,0.7h-2L276,170.6z"/>
		<path class="st58" d="M265.3,176c0.5,0.5,0.7,1.1,0.7,1.8v5.5H261v-5.5c0-0.3,0.1-0.7,0.2-1c0.1-0.3,0.3-0.6,0.5-0.8
			c0.2-0.2,0.5-0.4,0.8-0.5c0.3-0.1,0.6-0.2,1-0.2C264.2,175.3,264.8,175.5,265.3,176z"/>
		<path class="st95" d="M265.2,180.4c0.1,0.1,0.2,0.3,0.2,0.5v2.4h-1.3v-2.4c0-0.1,0-0.2,0-0.2c0-0.1,0.1-0.2,0.1-0.2
			c0.1-0.1,0.1-0.1,0.2-0.1c0.1,0,0.2,0,0.3,0C264.9,180.2,265.1,180.3,265.2,180.4z"/>
		<path class="st97" d="M263.3,178.3c0-0.4-0.3-0.7-0.7-0.7c-0.4,0-0.7,0.3-0.7,0.7c0,0.4,0.3,0.7,0.7,0.7
			C263,179.1,263.3,178.8,263.3,178.3z"/>
		<path class="st98" d="M267.8,181.9c-0.4,0.4-0.6,0.9-0.6,1.4h3.8c0-0.3,0-0.5-0.1-0.7c-0.1-0.2-0.2-0.5-0.4-0.6
			c-0.2-0.2-0.4-0.3-0.6-0.4c-0.2-0.1-0.5-0.2-0.7-0.1C268.6,181.3,268.1,181.5,267.8,181.9z"/>
		<path class="st98" d="M285.2,192.2c0.1,0.3,0.3,0.6,0.6,0.8c0.3,0.2,0.6,0.4,0.9,0.4l1.1,0.2c1.1,0.5,4.4,2.1,2.3-0.2
			c-1.7-1.6-3.6-2.7-5.8-3.5L285.2,192.2z"/>
		<path class="st99" d="M287.4,192.3c0,0,0-0.1,0.1-2.4s0.7-2.9,1-2.7c0.4,0.2-0.2,1.4,0.6,2.1c0.7,0.7,0.4,3.2,0.4,4.1L287.4,192.3
			z"/>
		<path class="st100" d="M244.1,177.9h4.1v-4.6h-4.1V177.9z"/>
		<path class="st100" d="M244.2,175.6H241v2.3h3.2V175.6z"/>
		<path class="st101" d="M247.1,177.9h4.1c0-0.2,0-0.4-0.1-0.5c-0.1-0.2-0.2-0.3-0.3-0.4c-0.1-0.1-0.3-0.2-0.4-0.3
			c-0.2-0.1-0.3-0.1-0.5-0.1c-0.2-1-1.1-1.3-2-0.5C246.9,176.1,247.1,177.1,247.1,177.9z"/>
		<path class="st7" d="M167.3,246.9c-4.2,6.9-6.4,4.2-6.5,3.1c-0.8-3-1.3-6.2-1.3-9.3c-0.2-5.4,2.1-9.4,5.1-10.3
			c3-0.8,10.3-2.1,10.6,3.4C175.2,235.8,171.5,240,167.3,246.9z"/>
		<path class="st19" d="M159.6,222.7l8.2-0.2c0.1-4.9-0.6-12.9-2.4-13c-1.9-0.1-2,4.9-2.1,7.3C161.5,216.7,159,217.3,159.6,222.7z"
			/>
		<path class="st19" d="M166.3,222.6h4c0.7-6.5-0.9-10.4-4-8.9V222.6z"/>
		<path class="st19" d="M177.9,222c0,0,0.2-3.4,0.9-4.1c0.7-0.7,1.9,0,1.9,1.7c0.8,0,2,0.5,2,2.6L177.9,222z"/>
		<path class="st102" d="M127.1,133.2c6.7-3.8,31.5-4.2,38,2.4h-58.9C113.6,131.6,118,131.4,127.1,133.2z"/>
		<path class="st103" d="M139.9,143.4c6.1-5.2,12.7-7.5,22.7-2.4c6.9-4.8,29-13.2,46.1,2.4H139.9z"/>
		<path class="st19" d="M60.9,199.9h15c-0.1-10.6-4.7-11.1-4.7-11.1c0-6.9-4-9.9-7.7-7.8L60.9,199.9z"/>
		<path class="st104" d="M65.6,199.9h16.6v-9.2H65.6V199.9z"/>
		<path class="st105" d="M78,199.7h2.2v-4.5H78V199.7z"/>
		<path class="st106" d="M69.7,188h7.7l4.8,2.7H65.6L69.7,188z"/>
		<path class="st107" d="M27,182.3l-3.1,15.4c0.9,0.7,1.9,1,3,1.1l19.3,1.3l8.2,0.6c0.9,0.1,1.7-0.1,2.5-0.4L27,182.3z"/>
		<path class="st101" d="M34.4,199.1L4,197.9c0.4-4.5,4.6-7.4,8.7-7.5c0.3-5.9,1.8-9.4,6-9.3c0,0,0.4-6.8,4.1-6.6
			c3.7,0.2,5.2,3.7,5.3,14.2c2.2-0.6,7.6,1.5,7.6,7.7L34.4,199.1z"/>
		<path class="st108" d="M25.8,190.3c0,0-0.7,4-0.8,6.9H24c0.2-2.4,0.7-4.9,1.5-7.2L25.8,190.3z"/>
		<path class="st19" d="M23.2,191.8c-0.2,0.4-0.3,0.9-0.3,1.4l2.5-1.7l3.1,1.8c0-0.5-0.2-1-0.4-1.4c-0.2-0.4-0.6-0.8-1-1.2
			c1,0,2.1,0.1,3.1,0.3c-0.2-0.4-0.5-0.7-0.8-1c-0.3-0.3-0.7-0.5-1.1-0.6c-0.4-0.1-0.8-0.1-1.3-0.1c-0.4,0.1-0.8,0.2-1.2,0.4
			c0-0.4-0.1-0.7-0.3-1.1c-0.2-0.3-0.4-0.6-0.7-0.8c-0.3-0.2-0.7-0.4-1-0.4c-0.4-0.1-0.7,0-1.1,0c0.7,0.7,1.3,1.4,1.8,2.2
			c-1.6-0.3-2.7-0.3-3.5,0.6l3.3,0.7C23.9,191.1,23.5,191.4,23.2,191.8z"/>
		<path class="st109" d="M10.2,197.3c0-0.9,0.3-1.8,0.9-2.4c0.9-0.9,2.8,0,3.2,2.4H10.2z"/>
		<path class="st110" d="M8.9,197.5c0.5-1.5,2.5-1.2,3-0.2C11.9,197.3,8.4,199,8.9,197.5z"/>
		<path class="st109" d="M26.6,197.3c0,0,0-0.8-0.9-2c-0.9-1.1-2.3-0.3-2.5,1.7L26.6,197.3z"/>
		<path class="st38" d="M67.8,196.1c0.9,1.3,1.3,2.7,1.3,4.3v1l-13.5-1.2c1.3-6.5,5.2-7.9,8.6-6.8C65.7,193.9,66.9,194.9,67.8,196.1
			z"/>
		<path class="st33" d="M81.2,242.5c0,0-1.1-12.6,3.6-12.6c4.7,0,7.2,3.9,7.2,11.7L81.2,242.5z"/>
		<path class="st32" d="M33.8,196.8c12.5-0.4,37.6,1.1,43,1.3l7.3,0.6c0.5,0,1,0.2,1.4,0.6c0.4,0.4,0.6,0.9,0.6,1.4
			c-0.2,2-0.5,5.3-0.5,7.2C87.2,214.7,88,238,88,238s5.9,19.2,8.2,31.7l-85.1,0.8v-73.2L33.8,196.8z"/>
		<path class="st35" d="M43.3,203.2l4.1,3.9l0.1,4.8l1.1,6.1l-2.8-2.8l-3.1-4.9l-2.2-8L43.3,203.2z"/>
		<path class="st34" d="M0.3,270.6h17.3L61,260.2l-1.1-19.4l-16.7-20.6c-0.7-4.3-5.7-23.2-5.7-23.3h-3.6
			c-12.4,0.4-33.5,0.7-33.5,0.7V270.6z"/>
		<path class="st111" d="M20,196.9c-1.2-0.2-2.5-0.2-3.7,0c-1.1-0.3-2.4-0.3-2.9,0.6c-1.3,3.1-1.5,7-1.4,10.8
			c0.1,3.8,0.2,10.1,0.4,14.2c0.2,4.1,0,19.1,0,19.1h7.5c0,0,0.1-14.5,0-18.2v-14c0.1-6.6-0.2-9.1,3.6-12.3
			C23.4,196.6,21.7,196.7,20,196.9z"/>
		<path class="st112" d="M11.9,208.3c0.1,3.8,0.2,10,0.4,14.2c0.1,1.3,0.1,3.9,0.1,6.7c0.4,0,0.7,0,1.1-0.1s0.7-0.3,1-0.5
			c0.4-3,1.3-5.8,2.6-8.5c0,0-2.8-4.8,0-8.6c-0.5-1.6-1.4-2.9-3.6-5.3c0,0,3.1-5.3,2.2-9.3c-1-0.2-2-0.1-2.4,0.7
			C12,200.5,11.9,204.4,11.9,208.3z"/>
		<path class="st113" d="M14.5,228.5c-0.7,4.6,0.3,9.2,4.2,12.1c0.3,0.3,0.7,0.5,1.1,0.7c0-2,0.1-14.5,0-17.9v-14
			c0.1-6.6-0.2-9.1,3.6-12.3c0-0.3-0.7-0.4-1.8-0.4c-1.9,1.8-3.2,4-3.9,6.5c-0.7,2.5-0.7,5.1,0,7.6l-0.6,0.7c0.3,1,0.5,2,0.6,3.1
			c0.3,3.6,1.2,8.9-2.7,13.4L14.5,228.5z"/>
		<path class="st111" d="M17.1,220c-1.3,2.7-2.2,5.5-2.6,8.5l0.5-0.6c3.9-4.6,3-9.8,2.7-13.4c-0.1-1-0.2-2.1-0.6-3.1
			C14.3,215.3,17.1,220,17.1,220z"/>
		<path class="st114" d="M28,271.5H0.3v-38.2c0-6.8,2.3-11.6,6.9-11.3c4.6,0.3,10.2,3.7,10.4,16c5.9,1,9.7,10.3,10.4,22.5V271.5z"/>
		<path class="st37" d="M64.5,199.8l-0.2-2.3l-4.5-0.2l0.3,4.8l-2.5,15.6c0.8,2,3.2,10.6,3.2,10.6l4.1,17.6h8.9l-2.5-15.7l-3.6-13.4
			l1-14.8L64.5,199.8z"/>
		<path class="st37" d="M76.9,198.1l1.2,8.3l3.5,18v20.7h2.8v-20.4l-2-17.6v-8.8L76.9,198.1z"/>
		<path class="st108" d="M32.4,248.8c0,0,0.3,7.5,1,12.6l-1.6,0.5c-0.5-4.4-0.6-8.9-0.2-13.4L32.4,248.8z"/>
		<path class="st101" d="M28.4,252.4c-0.3,0.8-0.3,1.7,0,2.6l3.8-4l6.1,2c-0.7-1.7-0.7-2.2-3.4-4c1.8-0.5,3.7-0.7,5.5-0.7
			c-1.9-2.5-5.5-2.7-8.1-0.6c-0.7-2.4-4-4.3-6.6-2.8c1.4,1,2.8,2.1,4,3.3c-2.8,0.2-5,0.6-5.9,2.2H30
			C29.3,250.8,28.7,251.5,28.4,252.4z"/>
		<path class="st101" d="M19.3,272.9l55.4,6.6l35.3-4.9c-0.8-36.2-18.4-41-35.3-31.7c-4.6-5-12.1-5.6-14.8,0.8
			c-15-4-19.3,3.1-21.7,15.5C32.2,255.9,21.6,259.5,19.3,272.9z"/>
		<path class="st33" d="M76,251.9c-0.8-1.5-1.8-2.8-3.1-3.9c2.2-0.9,3.9,2.4,3.9,2.4c0.8-0.2,1.7-0.1,2.5,0.3c0.8,0.4,1.4,1,1.8,1.8
			L76,251.9z"/>
		<path class="st115" d="M90.4,249.2c0,0,0.2,9.6,1.1,16.3l-2.1,0.6c0,0-1-9.6,0-17.3L90.4,249.2z"/>
		<path class="st33" d="M93.6,255.4l-4.1-4.7l-4.4,3.4c0.2-2.1,0-3.7,3.1-5.3h-5.1c0.9-0.9,2-1.5,3.2-1.7c1.2-0.2,2.5-0.1,3.7,0.3
			c0.4-1.1,1.2-2,2.1-2.6c0.9-0.6,2.1-1,3.2-1c0,0-2.4,3.2-3.4,4.1c3.2-0.7,5.6,0.5,6.3,3.1l-6.2-1.7
			C94,250.9,93.6,255.4,93.6,255.4z"/>
		<path class="st33" d="M84,264.7c-2.1,0.6-3.1,3.9-2.8,9.6h24.1c-0.2-4.4-2-7.5-6.2-7.2c-1.7-4.9-5.3-7.7-9.9-7
			C85.8,260.6,83.9,262.3,84,264.7z"/>
		<path class="st57" d="M75.9,276.9l-17-1c0,0-0.2-7.2,0-11.1c0.2-3.9,2.3-5.6,5.1-5.6c-0.3-3.5,0.7-9,5.4-8.7s6.5,4.4,6.5,13.2
			V276.9z"/>
		<path class="st35" d="M62.6,232.6c0,0-0.8,24.1,0.4,40.1l-4.9,0.9c0,0-1.1-22.8,2.4-40.5L62.6,232.6z"/>
		<path class="st116" d="M70.6,247.3l-9.4-12l-10.4,9.7c-2-6.3,0.2-10,6.2-14.3c-4.7-1.1-9.4-1.8-14.2-2c7.9-5.3,12-5.6,16.8-3.2
			c5.4-5.2,11.9-5.7,15.9-4.4c0,0-6.5,3.6-9.2,6c7.6,1.7,10.6,3.9,12.6,9.1l-12.4-3.8C71.2,238.2,70.6,247.3,70.6,247.3z"/>
		<path class="st35" d="M31.2,201.4h-2.2v9.6c2.8,1.2,8.7,7.9,8.7,7.9l-1.7-7.8l-3.9-5.5L31.2,201.4z"/>
		<path class="st26" d="M41.1,138L41.1,138l1.2-2.3l2.4-1l-2.4-1l-1.1-2.3c0-0.1,0-0.1-0.1,0l-1,2.3l-2.4,1l2.4,1L41.1,138z"/>
		<path class="st76" d="M17.4,168.8l0.6,1.3l0.7-1.3l1.3-0.6l-1.3-0.6l-0.7-1.3l-0.6,1.3l-1.3,0.6c-0.1,0.1-0.1,0.1,0,0.1
			L17.4,168.8L17.4,168.8z"/>
		<path class="st26" d="M75.8,161.8L75.8,161.8l1-2.1l2.1-0.9l-2.1-0.9l-0.9-2.1h-0.1l-0.9,2.1l-2.1,0.9l2.1,0.9L75.8,161.8z"/>
		<path class="st117" d="M20.5,273.2H1.8c0.3-4,1.5-5.9,3.1-6.2c0-2.9,0-11.8,4.2-13.7c4.2-2,10.9,0.7,11.3,10.7
			C20.6,269.9,20.5,273.2,20.5,273.2z"/>
		<path class="st37" d="M54.1,209.4v6.3L55,218l0.2-1.8l0.9-5.4L54.1,209.4z"/>
		<path class="st37" d="M50.5,208.3v2.2l1.4,1.4v-2.8L50.5,208.3z"/>
		<path class="st38" d="M40.4,202.1c0,0,0-0.1,0-0.1c0-0.1,0-0.1,0.1-0.1c0,0,0.1,0,0.1,0c2.7-1.2,6.1,1.5,7.9,2.1
			c1.8,0.6,6.6,3.5,7.7,6.9c-1.7-0.5-10.8-3.8-10.8-3.8l-4.9-4.8C40.4,202.2,40.4,202.1,40.4,202.1z"/>
		<path class="st101" d="M48.8,204.7l-4-0.7l2.6,1L48.8,204.7z"/>
		<path class="st101" d="M47.4,205.1l0.8-2.4c0,0-0.2-2.9,0.7-3.5c0.8-0.7,1.9-0.4,2,2.3c1.2,0.4,1,2.6,1,5.1L47.4,205.1z"/>
		<path class="st118" d="M75.4,193.1c0-0.5-0.4-0.8-0.8-0.8s-0.8,0.4-0.8,0.8c0,0.5,0.4,0.8,0.8,0.8S75.4,193.6,75.4,193.1z"/>
		<path class="st118" d="M71.9,193.1c0-0.5-0.4-0.8-0.8-0.8s-0.8,0.4-0.8,0.8c0,0.5,0.4,0.8,0.8,0.8S71.9,193.6,71.9,193.1z"/>
		<path class="st45" d="M23.4,274.3c18.6-0.7,35.7-1.5,54.9,0.1c5.3,0.4,10.8-1.4,16.2-1.6c29.9-0.5,86,1.1,116.6,8.2
			c19.7,5.6,31.4,10.2,38.2,16.6h0.1c0,0,0,0,0,0.1c0,0,0,0,0.1,0c3.6,3.5,5.9,8,6.7,12.9c0.7,4.8,0.9,9.6,0.6,14.4
			c0,1-0.1,2.1-0.2,3.2c-0.1,1-0.1,2.2-0.2,3.1c-0.1,0.8-0.3,2.2-0.3,2.8c0,0.6-0.1,1.2-0.1,1.9c-0.1,0.6-0.2,1.3-0.2,2
			c-0.3,3.2-0.7,6.6-1,10.1c-0.2,1.4-0.4,3.5-0.5,4.1c-0.1,0.7,0,0.7-0.2,2.1c-0.2,1.4-0.4,2.8-0.5,4.2c-0.4,3.2-0.8,6.4-1.2,9.7
			H0.3v-94.7C8.4,273.4,16,274.3,23.4,274.3z"/>
		<path class="st119" d="M110.3,295.8l26.7,1.7c2.7,13,0.5,23.2,0.4,25.9c-0.2,4.3-0.2,8.6,0.1,12.9c0.4,3.6,9.3,19.7,9.1,22.8
			c-0.1,3,0,6,0.3,9h-8.9c-0.3-2.5-1-12-1.3-12.9c-0.3-0.8-14.6-12.1-17.1-17.5c-2.4-4.7-3.7-10-3.6-15.3c-0.1-4-0.5-7.9-1.1-11.9
			L110.3,295.8z"/>
		<path class="st46" d="M73.1,290.9l3.7,14c0.8,3.5,0.9,4.7,3,6.3c2.1,1.7,6.6,7.2,8.9,9.3c2.3,2.1,2.4,3.5,2.4,5.5
			c0,2,1.7,7.3,2.2,11.3c0.6,4,3.6,16.4,3.6,16.4l-16.3-6.1c0,0-4.7-20.1-4.9-23.4c-0.2-3.4-0.9-3.5-2.5-5.8c-1.6-2.3-6.2-6.2-6.2-8
			c0-1.9-1-7.5-3.4-16L73.1,290.9z"/>
		<path class="st34" d="M170.6,334c0,0-0.4,6.5-0.2,9c0.2,2.4,0.7,3.4-0.7,5.2c-1.4,1.9-5.8,4.4-10.3,7.9c-4.5,3.5-4.3,2.1-4.6,0
			c-0.5-2.6-1.2-5.2-2.2-7.7c-0.8-2.5-3.7-8.2-3.7-8.2s-0.7-7.8-0.7-12.5L170.6,334z"/>
		<path class="st120" d="M51.1,290.5l0.5,3.4l7.2,51.6L44.4,359l-0.2,9H0.3v-82.6l34.5,3.5L51.1,290.5z"/>
		<path class="st34" d="M21.5,299.2c0.6,0.5,1.2,1,1.5,1.7c0.4,0.7,0.6,1.4,0.7,2.2c0.1,0.8,0,1.5-0.2,2.3
			c-3.6,10.6-6.7,16.2-9.1,21c-2.3,4.8-3.3,3.5-11.8,7.2l-2.3,1v-40.1l19.1,3.8C20.2,298.4,20.9,298.7,21.5,299.2z"/>
		<path class="st121" d="M177.4,308.9v-0.8l-3.1-17.8l74.8,7.3c3.1,3,5.3,6.8,6.3,11c1.2,4.6,1.4,9.9,1,16.4
			c-0.5,10.7-2.3,27.3-4.2,43h-63.4v-0.4c-0.4-10.5-2.2-13.4-3.1-15.3c-0.9-1.9-6.1-6.5-6.3-8.6c-0.2-2.1,0-6.1-0.5-11.3
			c-0.1-0.8-6.6-4.6-6.6-5.4C172.6,322.3,176.3,313.8,177.4,308.9z"/>
		<path class="st45" d="M175.7,314.4c0.9,5.2,2.3,10.1,4.9,11.2c5.7,2.4,4.4-6.2,4.8-23.4l-9.3-1.4l1.3,7.3v0.8
			C176.9,310.8,176.4,312.6,175.7,314.4z"/>
		<path class="st122" d="M222.9,326.1c0.6-3.6,1-7.3,1.1-10.9c0-2.2,0.7-9.1,0.7-9.1h1.2c0.5,5.6,0.6,12.1,0.6,14.5
			c0,2.3-1.1,6.2-1.6,7.9l0.9,7.4c0,0-0.1,7.5-0.2,8.7c-0.1,3.2-0.3,6.4,0,6.8c0.3,0.4,3.6,4,5.1,6.1c1.5,2.1,1.3,3.2,1.3,3.9
			s0.4,3.6,0.7,6.6h-2.5c-0.6-3.3-1-5.9-1.4-7.7c-0.4-1.9-4.4-6.6-4.9-7.4s-0.6-4.2-0.7-7.4c0,0-0.6-3.2-0.6-3.5v-5.1l-1-4.9
			C221.7,330.6,222.4,329.3,222.9,326.1z"/>
		<path class="st122" d="M212.5,362.9c4.5-5.1,9.6-2.2,10.9-1.3c1.3,0.9,2.2,3.7,3,6.4h-17.7C209.8,366.2,211.1,364.4,212.5,362.9z"
			/>
		<path class="st123" d="M190.2,346.8c0,0-1.8,5.5-1.6,6.5c0.2,1-0.1,1.4,0.5,2.8c1.2,2.5,2.7,4.8,4.2,7.1c1.2,2,1.4,2.9,1.4,2.1
			c0-0.8-0.3-3.6-0.6-6.2c-0.2-2.1-0.2-4.2-0.1-6.3c0.1-1.6,0.1-3.3,0-4.9L190.2,346.8z"/>
		<path class="st123" d="M237.4,345.1c0-0.1,0-0.2,0.1-0.3c0.1-0.1,0.1-0.2,0.2-0.2c0.1,0,0.2-0.1,0.3-0.1c0.1,0,0.2,0,0.3,0.1
			c1.2,0.7,2.7,1.5,3.1,3.3c0.4,1.8,0,5.6,0,7.3V368h-2.2c-0.1-0.5-0.2-1.1-0.2-1.6c-0.4-4.2-1.5-7.6-1.6-8.9
			C237.3,356.3,237.4,349.3,237.4,345.1z"/>
		<path class="st122" d="M186.3,301.1c0,0,3.3,10.2,3.6,11c0.4,0.8,3.6,6.5,4.8,9c1.2,2.4,2.4,6,3.9,5.9c1.5-0.1,7-2.4,11.4-4.2
			c4.4-1.8,9.8-3.7,10-5c0.2-1.3,0.7-2.9,2.4-13.3L186.3,301.1z"/>
		<path class="st45" d="M194.3,304c0,0,0.4,17.3,5.7,19.1c5.3,1.9,4.1-4.8,4.4-17.9L194.3,304z"/>
		<path class="st124" d="M219.6,304.2h-19.4c0.7,0.8,1.5,1.4,2.4,1.9c1.3,0.4,2.3,1.8,4.1,2.1c1.8,0.3,3.7,0.4,5.5,0.4
			c1.7-0.3,3.5-0.6,5.2-0.7c0.3,0,0.6-0.1,0.9-0.3c0.3-0.2,0.4-0.5,0.5-0.8L219.6,304.2z"/>
		<path class="st125" d="M246.9,309.6l8.4-1h0.4c0,0.7,0.2,1.4,0.5,2.1c0.2,0.4,0.4,0.8,0.7,1.5c0.1,0.5,0.3,0.9,0.6,1.3
			c0.3,0.5,0.4,1,0.4,1.6c0,2.9-0.9,7-1.1,10c0,1-0.1,2.1-0.2,3.2c-0.1,1-0.1,2.2-0.2,3.1c-0.1,0.8-0.3,2.2-0.3,2.8
			c0,0.6-0.1,1.2-0.1,1.9c-0.1,0.6-0.2,1.3-0.2,2c-0.3,3.2-0.7,6.6-1,10.1c-0.2,1.4-0.4,3.5-0.5,4.1c-0.1,0.7,0,0.7-0.2,2.1
			c-0.2,1.4-0.4,2.8-0.5,4.2c-0.4,3.2-0.8,6.4-1.2,9.7H248c0.3-3.1,0.8-7.5,1.2-11.6c0.4-4.1,2.4-10.5,2.4-12.4
			c-0.1-1.8-0.4-3.7-0.9-5.4c-0.5-2.1-2.5-5.4-3.2-7.7c-0.4-1.6-0.6-3.2-0.7-4.9C246.9,324.9,247,315.4,246.9,309.6z"/>
		<path class="st126" d="M201.7,278.8l17,4.1c2.2-3.4,1.2-10.1-3.7-7.8c-0.8-6.1-6.5-5.1-6.9-1.4
			C204.4,272.2,197.7,272.4,201.7,278.8z"/>
		<path class="st42" d="M120.6,271.3c9.2,0.3,18.3,0.7,27.3,1.3l4,0.3c3.8,0.3,7.7,0.5,11.4,0.8l7.3,0.6l10.8,1.1
			c0.6-0.2,1.2-0.2,1.8-0.2c2.2,0,7.9,0.6,15.5,2.3c7.7,1.8,16.3,3.8,25.7,6.3c0.5,0.1,17,4.2,24.8,13.7h0.1c0,0,0,0,0,0
			c0,0,0,0,0,0s0,0,0,0c0,0,0,0,0,0c4,2.1,5,4.7,6.1,7.8c0.6,1.4,0.5,3,0.7,5.1c-10.4-1-11.9,2.1-19.9,0c-4.6-1.2-9.6-2.8-13.1-3.9
			c-2.7-0.8-5.5-1.2-8.3-1.1c-3.5,0.2-6.9,0.1-10.4-0.3c-6.9-0.8-22.2-2.8-28.3-4c-6.1-1.2-10.5-1.9-21.7-1c-11,0.9-22,0.4-32.8-1.5
			c-11-1.9-41.7-4.7-41.7-4.7c-11.7,1.3-16.9,3.8-25.3,0.8l-3.1-0.9c-5.5-1.3-11.1-2.1-16.7-2.2l-34.4-0.7v-20.4
			C23.5,270.1,72.5,269.2,120.6,271.3z"/>
		<path class="st38" d="M34.8,291.6c5.6,0.2,11.3,0.9,16.7,2.2l3.1,0.9c8.3,3,13.6,0.5,25.3-0.8l4.4,0.5
			c-8.3-11.6-20.5-15.5-44.7-16.1c-3.6-2.1-9.5-6.9-27.4-8l-11.8,0.2v20.4L34.8,291.6z"/>
		<path class="st26" d="M224.3,251.2l0.9,2.2h0.1l1-2.2l2.2-0.9l-2.2-0.9l-1-2.1h-0.1l-0.9,2.1l-2.2,0.9c-0.1,0-0.1,0.1,0,0.1
			L224.3,251.2L224.3,251.2z"/>
		<path class="st38" d="M251.1,304.2c-1.2-3.6-5.1-5.7-13.2-4.7L251.1,304.2z"/>
		<path class="st38" d="M165.6,326.1c0,0,10.9-5.1,21,9.1c10,14.2,9.7,15.5,1,10.8c-8.7-4.7-27.7-11.6-39.3-18.3
			C152.1,314,165.6,326.1,165.6,326.1z"/>
		<path class="st42" d="M172.8,327.7l9.8,9.2C180.6,328.7,177,327.7,172.8,327.7z"/>
		<path class="st101" d="M148.3,327.7c8.7,4.9,21.4,10.1,31,14.4c-0.1-1-0.4-2-0.8-2.9c-0.7-1.7-3-2.6-8.7-5.4
			c0.3-1.4,0.3-3-0.1-4.4c-0.4-1.4-1-2.8-2-3.9c-0.7,0.1-1.4,0.4-2.1,0.7C165.6,326.1,152.1,314,148.3,327.7z"/>
		<path class="st127" d="M240.6,314.1c1.1-0.1,0.7,2.2,0.8,4.9c0.2,2.6-0.7,3.7-1.5,2.1c-1.2-1.8-1.9-3.8-2.2-6
			C237.6,313.8,239.5,314.2,240.6,314.1z"/>
		<path class="st23" d="M202.3,340.8C202.3,340.8,202.3,340.8,202.3,340.8l2,4.3h0.2l1.9-4.3h0.1l4.3-1.9c0.1-0.1,0.1-0.2,0-0.2
			l-4.3-2h-0.1l-1.9-4.4h-0.2l-2,4.4h-0.1l-4.3,2c-0.1,0-0.1,0.1,0,0.2L202.3,340.8C202.3,340.8,202.3,340.8,202.3,340.8z"/>
		<path class="st27" d="M213.7,355.3C213.7,355.3,213.7,355.3,213.7,355.3C213.8,355.3,213.8,355.3,213.7,355.3
			C213.8,355.2,213.8,355.2,213.7,355.3l1.1,2.3h0.1l1.1-2.4l2.5-1l-2.5-1.1l-1.1-2.5h-0.1l-1,2.5h-0.1l-2.4,1.1c-0.1,0-0.1,0,0,0.1
			L213.7,355.3C213.7,355.3,213.7,355.3,213.7,355.3z"/>
		<path class="st38" d="M34.3,288.9h0.6c5-1.1,15.4,0.7,21.9,2.4c3-1.3,7.9,1,12,1.9c3.5-2,13.5-1.5,16.7-1.8
			c3.3-0.3,16.9,1.7,29.6,3.2c5-0.4,15.2,1.2,21.9,2.9c1.2-0.7,8.4-1.6,15.3,0c2-0.3,11.5-3.5,23.4,1.4h0.1
			c2.4-1.4,8.4-1.8,13.6,0.9l6.5,0.9c5.4,0.7,11.7,1.4,18.4,2c3.6,0.4,6.6,0.8,10.9,1.4c4.3,0.6,10.6,2.1,14.5,2.8
			c8.2,1.4,12.9,2,16.5,3.5c-10.4-1-11.9,2.1-19.9,0c-4.6-1.2-9.6-2.8-13.1-3.9c-2.7-0.8-5.5-1.2-8.3-1.1c-3.5,0.2-6.9,0.1-10.4-0.3
			c-6.9-0.8-22.2-2.8-28.3-4c-6.1-1.2-10.5-1.9-21.7-1c-11,0.9-22,0.4-32.8-1.5c-11-1.9-41.7-4.7-41.7-4.7
			c-11.7,1.3-16.9,3.8-25.3,0.8l-3.1-0.9c-5.5-1.3-11.1-2.1-16.7-2.2l-34.4-0.7v-3.8C12.3,287.2,28.5,288.1,34.3,288.9z"/>
		<path class="st38" d="M215.1,287.8c-7.5-1.4-10.3-1.3-10.5-1s2.8,1.9,15.1,4.8C219.7,291.5,222.6,289.2,215.1,287.8z"/>
		<path class="st128" d="M224.3,292.6c10.2,1.9,13.6,2,13.6,2c-0.4-11.1-4-24.6-10.4-24.6c-6.4,0.1-11.7,6-14.7,19.1
			C212.8,289.1,214.2,290.7,224.3,292.6z"/>
		<path class="st53" d="M214.3,290.1h0.4c1.6,0.6,3.3,1,5,1.4c1.5-7.1,6.1-7.7,9.4-6.6c0.3-4.9,0.3-10.5,5-9c-0.4-1-1-2-1.7-2.9
			c-3.6-1.3-7.3,1.7-8.6,4.9C219,278,215.1,284.5,214.3,290.1z"/>
		<path class="st129" d="M206.4,293c1.9-2.7,7.4-1.6,9.2,2.8L206.4,293z"/>
		<path class="st130" d="M233.1,286.4c-0.1,1.7,1.5,2.9,2.1,1.1c0.6-1.8,0.5-4-1-4.7C233,282.3,233.1,284.7,233.1,286.4z"/>
		<path class="st131" d="M224.3,294.5l4.9,1c2.8-1.3,3.7-3.5,2.5-4.6c-1.2-1-2.5,0.3-2.5,0.3c0.5-1.9,1.7-5.2-0.3-5.8
			s-3,2.8-3.1,6.1C224.8,288.7,221,290.1,224.3,294.5z"/>
		<path class="st41" d="M92.8,281.2c2.7-0.6,5.4-1.4,8-2.4c5.9-2.1,1.7-3.3-2.5-2.4c2-1,5.1-2.7,5-3.8c-0.2-1.1-1.7-2-5.8,0.7
			c1.7-3.5,1.6-6.1,0.2-5.4c-1.4,0.7-4.1,3.1-4.4,9.7L92.8,281.2z"/>
		<path class="st70" d="M75.5,278.9c0-4.9,2.7-4.9,5.7-7.8c3-2.9,6.4-4.1,8.5-3.9s3.8,3.1,3.9,6.3c0,0,4.6,1.2,5.3,8.5
			C95.5,284.1,82.1,280.6,75.5,278.9z"/>
		<path class="st132" d="M82.1,280.6c0-0.6,0-1.2,0.1-1.8c0.1-1.7,4.1-3.5,6.1-2c0.1-1.6,0.1-4.1-2.9-4.7c0.9-2.7,4.6-4.3,6.7-3.4
			c-0.3-0.4-0.6-0.8-1-1.1c-0.4-0.3-0.9-0.5-1.4-0.5c-2.1-0.3-5.1,0.9-7.9,3.4c0.1,1.3,0.5,2.6,1.2,3.7c0,0-0.6-0.4-2.6,1.5
			c-0.6,0.5-1,1.1-1.3,1.8c-0.3,0.7-0.4,1.4-0.3,2.2L82.1,280.6z"/>
		<path class="st133" d="M93.7,276.4c1,0.5,2.2,1.4,2.2,1.1s0.1-1.3-1.7-2.2C91.8,274,92.7,275.9,93.7,276.4z"/>
		<path class="st134" d="M18.6,275.5c2.7-2,7.4-1.6,8.8,0.6L18.6,275.5z"/>
		<path class="st69" d="M83.7,287c0.5-3.6,1.1-7.1,2-10.6c1-3.2,1-4.5,0.3-2.8c-1.6,4.4-2.6,9-2.9,13.6L83.7,287z"/>
		<path class="st69" d="M83.4,287.1h-0.4c-1-3.5-2.2-6.9-3.7-10.3c-0.4-0.7-0.2-1.3,0.5,0.3C81.3,280.4,82.5,283.7,83.4,287.1z"/>
		<path class="st38" d="M105.2,289.9c-2.9-6.2-15.1-5.1-18.6-2.8L105.2,289.9z"/>
		<path class="st69" d="M153.9,290.2c0-0.2-0.8-0.5-1.7-0.6c-1-0.1-1.8,0-1.8,0.2c0,0.2,0.8,0.5,1.7,0.6
			C153,290.5,153.8,290.4,153.9,290.2z"/>
		<path class="st42" d="M58.2,287.6l-6.7-0.3c0.8-1,2.2-1.8,2.9-1C56,285.7,57.7,286.4,58.2,287.6z"/>
		<path class="st69" d="M242.7,282.9c-1.6,3.1-2.7,6.4-3.5,9.8C241.3,289.8,242.5,286.4,242.7,282.9z"/>
		<path class="st69" d="M238.8,292.6c0,0,0.7-6.8,0.8-9.4c0.1-2.6,0.3-2.2,0.6-1.1c0.2,3.6-0.1,7.2-0.9,10.6L238.8,292.6z"/>
		<path class="st38" d="M83.3,294.3l-3.2-0.3L83.3,294.3z"/>
		<path class="st134" d="M34.3,289.2c-5.8-0.9-22-1.8-34-2v3.8l34.4,0.7c5.6,0.2,11.3,0.9,16.7,2.2l3.1,0.9c8.3,3,13.6,0.5,25.3-0.8
			h0.3l3.2,0.3h0.9l-2.2-2.9c-4.4,0.1-10.7,0.2-13.3,1.7c-4.1-0.8-9-3.2-12-1.9c-6.5-1.8-16.9-3.5-21.9-2.4L34.3,289.2z"/>
		<path class="st42" d="M38.8,266.2c-0.3-2.5,1.6-4.8,6.5-2.9c0.6-3.8,6.2-2.7,6.2,1.2c4-0.4,3.8,5.4,2.3,7.1H38.1
			C32.9,269.6,32,263.7,38.8,266.2z"/>
		<path class="st101" d="M0.3,282.8H19c0,0,1.8-3.8-7.3-3.6c1.2-6.6-8.3-8.1-11.3-6.7V282.8z"/>
		<path class="st46" d="M60.6,367.6c0.6-4.1,0.9-8.3,0.9-12.5l2.5-0.4c0,0,0.3,8.3,0.3,9.1s-0.1,2.4-0.3,4.1h-3.6L60.6,367.6z"/>
		<path class="st135" d="M110.4,349.4c-0.1,1.3-0.1,2.6,0,3.8c0.5,1.4,1,2.7,1.8,3.9c1,1.8,1.9,2.4,2,1.2c0.1-1.2,0.6-4.5,0.6-7
			L110.4,349.4z"/>
		<path class="st135" d="M75.8,349.9l1.9-0.5c0,0-0.5,8.1-0.4,8.7c0.1,0.6,1.8,5.1,1.8,5.1l0.5,1.4l1.1,3.4H79l-0.7-3.3l-0.4-1.3
			l-2.2-5.1C75.8,358.3,75.7,352.2,75.8,349.9z"/>
		<path class="st135" d="M108.4,351.4v10.8l0.8,5.6v0.2H95.6c-0.1-0.2-0.2-0.5-0.2-0.7c-0.7-2.1-1.6-6.3-2.1-7.3
			c-0.5-1-1.1-9.4-1.1-9.4L108.4,351.4z"/>
		<path class="st136" d="M79,336l-0.7-6.1c0,0-0.8-6.8-1.2-9.1c-0.4-2.2-1.4-3-1.4-4.3c0-1.3-1.2-2.8,0.8-0.6
			c2.1,2.2,2.8,3.2,3.7,4.9c0.9,1.7,2,7.5,2.9,13.4L79,336z"/>
		<path class="st46" d="M118.9,356.8c0.7-2.7,1.8-6.3,1.8-6.3l4.7,2.1c0,0,0,9.4,0,10.2c0,0.7,1.1,3.3,2.2,5.1h-6.7
			c-1.2-2.1-2.5-4.4-2.8-5.1C117.4,361.5,118.2,359.5,118.9,356.8z"/>
		<path class="st137" d="M0.3,348.9c0,0,18.8,0.7,32.5,1.9c0,0,14,2.5,21.8,4.2c9.5,2.1,14.2,2.1,21.1-4.1c8.4-0.3,26.4-0.2,37.8,1
			c11.4,1.2,13.5,2.2,11-1.3c-8.7-12.7-10.8-14.7-28.7-16.6c-5.1-3.5-14.9-5.7-32.3-6.3c-15.2-3.9-34.3-7.5-63.3-7.9v24.2V348.9z"/>
		<path class="st138" d="M14.7,321.9c0,0-7.8-3.7-8.2-9.1c-0.5-5.3,4-5.5,7-3.4c-2.3-5.6,2.5-6.6,6.7-3.1c0.3-6.7,9.3-7,8.8,2
			c5.8-2.1,6.1,7.7,2.2,13.5H14.7z"/>
		<path class="st139" d="M20,320.9c-0.7-0.9-1.3-1.8-1.8-2.9c-0.2-0.4-0.2-0.8-0.1-1.2c0.1-0.4,0.3-0.8,0.6-1c0.5-0.3,1-0.4,1.5-0.4
			s1.1,0.1,1.5,0.4c-0.1-0.8-0.3-1.7-0.5-3.7c-0.2-2.1,0.7-3.1,1.7-3.4c0.3-0.1,0.7-0.1,1,0c0.3,0.1,0.6,0.2,0.9,0.5
			c0.5-0.2,1-0.1,1.4,0.1c0.5,0.3,1.3,1,1.5,3c0.6-0.2,1.3-0.2,2,0.1c0.5,0.3,0.9,0.7,1.1,1.2c0.2,0.5,0.3,1.1,0.3,1.7
			c-0.1,0.1-0.1,0.2-0.2,0.2c-0.1,0.1-0.2,0.1-0.3,0.1c-0.1,0-0.2-0.1-0.3-0.1c-0.1-0.1-0.1-0.2-0.2-0.3c0.1-0.4,0-0.7-0.1-1.1
			c-0.2-0.3-0.4-0.6-0.7-0.8c-0.3-0.1-0.5-0.2-0.8-0.2c-0.3,0-0.6,0.2-0.8,0.3c-0.1,0.1-0.1,0.1-0.2,0.1c-0.1,0-0.2,0-0.2-0.1
			c-0.2-0.1-0.2,1.1-0.3-0.4c-0.1-1.5-0.5-2.6-1.1-3c-0.3-0.1-0.6,0-0.8,0.1c-0.1,0.1-0.2,0.1-0.4,0l-0.3-0.2
			c-0.1-0.2-0.3-0.3-0.4-0.4c-0.2-0.1-0.4-0.1-0.6,0c-0.7,0.3-1.1,1.1-0.9,2.2c0.3,3.2,0.6,4.8,0.6,4.8c0,0.1,0,0.2,0,0.3
			c0,0.1-0.1,0.2-0.2,0.2c-0.1,0-0.2,0.1-0.3,0.1c-0.1,0-0.2,0-0.3-0.1c-1.2-0.9-2.3-0.9-2.8-0.6c-0.1,0.1-0.2,0.1-0.2,0.2
			c-0.1,0.1-0.1,0.2-0.1,0.3c0,0.1,0,0.2,0,0.3c0,0.1,0.1,0.2,0.1,0.3c0.4,1,0.9,1.8,1.6,2.6c0,0,0.1,0.1,0.1,0.2c0,0.1,0,0.1,0,0.2
			c0,0.1,0,0.1-0.1,0.2c0,0.1-0.1,0.1-0.1,0.1l-0.3,0.2L20,320.9z"/>
		<path class="st140" d="M0.4,336.6v12.2c0,0,18.8,0.7,32.5,1.9c0,0,14,2.5,21.8,4.2c9.5,2.1,14.2,2.1,21.1-4.1
			c4.6-0.2,12-0.2,19.6,0v-0.3c-5.2-6-10.6-7.8-15.5-7.7c-2.3-5.3-6.1-9.9-13.5-9c-7.4,0.9-35-5.5-45.9-4.5
			c-10.9,1-12.5,7.2-12.5,7.2H0.4z"/>
		<path class="st117" d="M0.3,341.3v-18.9c12.3-0.5,17.3,10.5,15,18.9H0.3z"/>
		<path class="st128" d="M23,333.7c-0.1-2.3,0-4.7,0.4-7c0.6-5.3,1.6-10,6.8-13.7c2.8-2,12-5.5,12-5.5s7.9-5.2,10.8-5.8
			c5.9-1.1,6.5,1.5,7.4,5.4c1.2,4.9,2,9.9,2.3,14.9c8.8,3,9,8.9,11.4,18.4C44.6,332.9,23,333.7,23,333.7z"/>
		<path class="st141" d="M61.5,313c-0.4-2.1-0.8-4.1-1.2-5.9c-2.6-0.5-7.9,1.1-9.3,4.8c-1.4,3.6-2.5,7.2-2.5,7.2
			c-6.1,0-11.2,0.7-12.4,4.7l-1.9,6.1c-2.4-1.6-8.8-2-11.1,0.7c-0.1,1.1-0.1,2.2-0.1,3.3c7.2-0.1,14.3,0.3,21.4,1.2v-0.5
			c0-4.7,3.9-12.1,8.9-12.2c0-2.7,1.6-8.4,4-9.1C58.7,312.8,60.1,312.8,61.5,313z"/>
		<path class="st142" d="M49.8,339.3l-19.9-1.6c0.6-0.9,3.2-0.9,3.2-0.9s1.7-3.9,4.4-5.6c2.7-1.7,8.1-0.2,11,4.2
			C49.3,336.6,49.3,337.3,49.8,339.3z"/>
		<path class="st117" d="M58.5,342h8.1c2.8-3.6-0.2-8.8-4.7-8.6C57.6,333.7,56.2,339.2,58.5,342z"/>
		<path class="st143" d="M98.7,329.3l-6.1-0.9l2.6,3.1l3.2,1l2.6-1.6L98.7,329.3z"/>
		<path class="st144" d="M80.5,332.9c-7-0.5-7.3-6.4-7.3-6.4c2.5-1.6,3-7.5,6.3-8.3c3.3-0.8,5.4,1.5,5.8,4.2L80.5,332.9z"/>
		<path class="st145" d="M85.3,322.3c4.4-1.5,10.9-0.7,15.7,8.6c-2-0.4-4.1-0.6-6.2-0.7l0.3,0.7c0,0,5.1,1.7,7.1,2.5
			c1,2.5,1.8,5,2.4,7.6c0,0-3.5-0.1-22.6-1.4C77.3,328,79.5,324.2,85.3,322.3z"/>
		<path class="st146" d="M105.1,335.4l-12.4-1c-0.8-2.6-2.6-4.9-5.1-4.3c-2.4,0.7-1.6,3.5-0.6,6.3c0.5,1.3,0.8,2.6,1.2,3.6l18.5,1.2
			C106.6,340.2,105.4,336.3,105.1,335.4z"/>
		<path class="st147" d="M90.2,334.5c0.7-0.3,0.9-1.3,0.5-2.2c-0.4-0.9-1.3-1.4-2-1c-0.7,0.3-0.9,1.3-0.5,2.2
			C88.6,334.3,89.5,334.8,90.2,334.5z"/>
		<path class="st148" d="M103.1,336.4l0.7,3.4l1.2,0.2l-1-3.4L103.1,336.4z"/>
		<path class="st148" d="M100.4,336.3l0.7,3.3l1.1,0.1l-0.7-3.3L100.4,336.3z"/>
		<path class="st117" d="M86.2,340.7c0.1-3,4.1-3.1,5.9-1c1.6-0.8,5.7-0.6,8.4,2.4C100.6,342.1,93.8,341.2,86.2,340.7z"/>
		<path class="st148" d="M97.2,336l0.6,3.3l1.3,0.1l-0.6-3.2L97.2,336z"/>
		<path class="st149" d="M93.9,332.1l8.7,2.5c-0.1-0.4-0.2-0.8-0.4-1.1c-2-0.8-7.1-2.5-7.1-2.5l-0.3-0.7c2.1,0.1,4.1,0.4,6.2,0.7
			l-0.8-1.5c-2.5-0.6-5-1-7.6-1L93.9,332.1z"/>
		<path class="st23" d="M98.1,323.2l0.8-1.8l1.8-0.7c0.1,0,0.1-0.1,0-0.1l-1.8-0.7l-0.8-1.8l-0.8,1.8l-1.8,0.7c-0.1,0-0.1,0.1,0,0.1
			l1.8,0.7L98.1,323.2z"/>
		<path class="st146" d="M86.1,325.8c-1.4,1.2-3,1-2.9-0.1c0.1-1.1,1.1-2.5,3.3-3C89,322.2,87.6,324.6,86.1,325.8z"/>
		<path class="st149" d="M105.2,335.4l1.7,5.9l-1.2-0.1l-1.4-5.8H105.2z"/>
		<path class="st135" d="M78.3,364.5h2.5c2,0,3.8,1.1,5.4,3.5H71.8C73.1,366.2,75.7,365.2,78.3,364.5z"/>
		<path class="st135" d="M20.1,360.6c4.4,2.4,4.8,2.7,6.4,5c0.5,0.7,1,1.5,1.4,2.3H6.2c-1-2.4-1.7-3-5.9-5.4v-10.2
			C7.1,354.7,13.7,357.4,20.1,360.6z"/>
		<path class="st150" d="M121,330.5c-0.5-0.2-1.1-0.2-1.6-0.1c-0.5,0.1-1,0.3-1.5,0.7c-0.4,0.3-0.8,0.8-1,1.3
			c-1.4,3.5-2.4,7.2-2.9,10.9l2,2.4c1.7-3.5,3.8-6.7,6.5-9.6c0.3-0.3,0.6-0.7,0.7-1.1c0.2-0.4,0.3-0.8,0.3-1.3
			c0-0.4-0.1-0.9-0.3-1.3c-0.2-0.4-0.4-0.8-0.7-1.1C122,330.9,121.5,330.7,121,330.5z"/>
		<path class="st150" d="M124.7,339.5c0.3,0.1,0.6,0.2,0.9,0.4c0.3,0.2,0.5,0.4,0.7,0.7c0.2,0.3,0.3,0.6,0.3,0.9
			c0.1,0.3,0,0.7-0.1,1c-0.1,0.3-0.3,0.7-0.5,0.9c-0.2,0.3-0.5,0.5-0.8,0.6c-0.3,0.1-0.7,0.2-1,0.2c-2.8-0.1-5.6,0.4-8.2,1.4l-2-2.4
			c0,0,3.2-2.3,9.7-3.7C124,339.4,124.3,339.4,124.7,339.5z"/>
		<path class="st150" d="M112.9,335.8c0.3-0.5,0.7-0.8,1.2-0.9c0.3-0.1,0.5-0.1,0.8-0.1c0.3,0,0.5,0.1,0.8,0.3
			c0.2,0.1,0.4,0.3,0.6,0.6c0.2,0.2,0.3,0.5,0.3,0.8c0.5,2.4,0.6,4.9,0.3,7.3l-3-0.4c0,0-0.5-2.7-1.3-6
			C112.5,336.8,112.6,336.2,112.9,335.8z"/>
		<path class="st151" d="M115.2,344.1c-0.1,0-0.2-0.1-0.2-0.2c-0.1-0.1-0.1-0.2-0.1-0.3c0.1-0.1,0.3-2.3,4.9-10.5
			c0-0.1,0-0.1,0.1-0.2c0-0.1,0.1-0.1,0.2-0.1s0.1,0,0.2,0c0.1,0,0.1,0.1,0.2,0.1c0.1,0.1,0.2,0.2,0.2,0.3c0,0.1,0,0.2,0,0.4
			c-3,5.3-4.1,8-4.5,9.2c2.7-0.8,5.4-1.4,8.1-1.7c0.1,0,0.2,0,0.3,0.1c0.1,0.1,0.1,0.2,0.1,0.3c0.1,0.2-0.1,0.5-0.4,0.5
			c-3,0.3-5.9,1-8.7,2h-0.2H115.2z"/>
		<path class="st151" d="M115.2,344c-0.1-0.1-0.2-0.2-0.2-0.3c0,0-0.2-3.9-0.7-7.6c0-0.1,0-0.3,0.1-0.4c0.1-0.1,0.2-0.2,0.3-0.2
			c0.1,0,0.2,0,0.3,0.1c0.1,0.1,0.1,0.2,0.1,0.3c0.6,3.6,0.8,7.6,0.8,7.6c0,0.1,0,0.3-0.1,0.4c-0.1,0.1-0.2,0.2-0.3,0.2
			C115.4,344.1,115.3,344.1,115.2,344z"/>
		<path class="st139" d="M13.8,313.2c-0.6-1-0.7-1.6-0.3-2.1c0.4-0.6,1.2-0.7,2.2-0.6c0-0.3,0.2-0.7,0.4-0.9
			c0.2-0.3,0.5-0.4,0.9-0.5c1-0.1,2.3,0.8,2.8,2.7c0,0.1,0,0.3,0,0.4c-0.1,0.1-0.1,0.2-0.3,0.3c-0.1,0-0.3,0-0.4-0.1
			c-0.1-0.1-0.2-0.2-0.3-0.3c-0.4-1.5-1.4-2.1-1.8-2.1c-0.4,0.1-0.5,0.7-0.5,0.9c0,0.1-0.1,0.3-0.2,0.3c-0.1,0.1-0.2,0.1-0.4,0.1
			h-0.2c-0.6,0-1.4,0.2-1.5,0.2c-0.1,0-0.2,0.3,0.3,1.2c0,0.1,0,0.1,0,0.2c0,0.1,0,0.1,0,0.2c0,0.1-0.1,0.1-0.1,0.2
			c-0.1,0-0.1,0.1-0.2,0.1h-0.2C14,313.5,14.4,314.2,13.8,313.2z"/>
		<path class="st152" d="M207.3,314"/>
		<path class="st152" d="M206.2,309.9"/>
		<path class="st23" d="M187.5,227.6c0.6-0.7,0.3-1.8-0.6-2.6c-0.9-0.8-2.1-0.9-2.7-0.2c-0.6,0.7-0.3,1.8,0.6,2.6
			C185.7,228.2,186.9,228.2,187.5,227.6z"/>
		<path class="st17" d="M247.9,354.7c0-1.6-1.3-2.9-2.9-2.9c-1.6,0-2.9,1.3-2.9,2.9c0,1.6,1.3,2.9,2.9,2.9
			C246.6,357.6,247.9,356.3,247.9,354.7z"/>
		<path class="st153" d="M247.2,352.8h-4.3l-0.6,0.9h5.4C247.6,353.4,247.5,353,247.2,352.8z"/>
	</g>
</g>
</svg>
