<svg width="280" height="313" viewBox="0 0 280 313" fill="none" xmlns="http://www.w3.org/2000/svg">
<path d="M70.4246 253.808L185.796 68.3486L220.122 90.5645L76.7025 278.744L70.4246 253.808Z" fill="url(#paint0_linear_722_15215)" fill-opacity="0.4"/>
<path d="M218.772 86.9823C217.022 82.9548 216.132 78.6058 216.161 74.2144C216.19 69.8229 217.136 65.486 218.94 61.4819L225.129 47.8262C225.343 47.4961 225.416 47.0946 225.334 46.7101C225.252 46.3256 225.02 45.9896 224.69 45.7759C224.36 45.5622 223.958 45.4885 223.574 45.5708C223.189 45.6532 222.853 45.8849 222.64 46.215L212.716 57.4538C209.802 60.739 206.233 63.3788 202.239 65.2037C198.244 67.0285 193.913 67.9982 189.521 68.0504L187.05 67.7755C186.763 67.7954 186.485 67.8818 186.237 68.0279C185.989 68.174 185.778 68.3758 185.622 68.6174L185.439 70.2649L186.702 72.4069C188.452 76.4344 189.342 80.7834 189.313 85.1748C189.284 89.5663 188.337 93.9032 186.534 97.9073L180.345 111.563C180.131 111.893 180.057 112.295 180.14 112.679C180.222 113.064 180.454 113.4 180.784 113.613C181.114 113.827 181.516 113.901 181.9 113.818C182.285 113.736 182.621 113.504 182.834 113.174L192.758 101.935C195.672 98.6501 199.241 96.0104 203.235 94.1855C207.23 92.3607 211.561 91.391 215.953 91.3388L218.424 91.6137C218.97 91.4745 219.466 91.1824 219.852 90.7717C220.008 90.5302 220.106 90.2555 220.138 89.9696C220.17 89.6836 220.135 89.3942 220.035 89.1242L218.772 86.9823Z" fill="#FFE75C"/>
<defs>
<linearGradient id="paint0_linear_722_15215" x1="207.499" y1="73.829" x2="27.7051" y2="209.448" gradientUnits="userSpaceOnUse">
<stop stop-color="#FFE75C"/>
<stop offset="1" stop-color="#FFE75C" stop-opacity="0"/>
</linearGradient>
</defs>
</svg>
