<svg width="181" height="356" viewBox="0 0 181 356" fill="none" xmlns="http://www.w3.org/2000/svg">
<path d="M142.764 349.37L18.4443 70.501L71.4622 50.2202L164.142 341.192L142.764 349.37Z" fill="url(#paint0_linear_1604_19957)" fill-opacity="0.4"/>
<path d="M66.0928 49.2399C60.2921 47.9369 54.828 45.4357 50.0509 41.8967C45.2738 38.3578 41.2892 33.8593 38.3529 28.6898L28.3694 11.0182C28.1792 10.521 27.7993 10.1197 27.3133 9.90258C26.8272 9.68549 26.2748 9.67037 25.7776 9.86056C25.2804 10.0508 24.8791 10.4307 24.662 10.9167C24.4449 11.4028 24.4298 11.9552 24.62 12.4524L28.9793 32.2755C30.2427 38.0848 30.2778 44.0941 29.0821 49.9178C27.8865 55.7415 25.4867 61.251 22.0365 66.0926L19.7623 68.5744C19.5547 68.904 19.4267 69.2774 19.3885 69.665C19.3503 70.0527 19.4028 70.4439 19.542 70.8077L21.1965 72.3238L24.5465 72.6542C30.3471 73.9572 35.8113 76.4584 40.5884 79.9974C45.3655 83.5363 49.3499 88.0349 52.2862 93.2043L62.2697 110.876C62.4599 111.373 62.8398 111.774 63.3259 111.992C63.812 112.209 64.3643 112.224 64.8615 112.034C65.3587 111.843 65.76 111.463 65.9771 110.977C66.1942 110.491 66.2093 109.939 66.0191 109.442L61.6599 89.6187C60.3964 83.8093 60.3615 77.7999 61.5571 71.9762C62.7528 66.1526 65.1526 60.6431 68.6027 55.8015L70.877 53.3197C71.1612 52.6114 71.2376 51.8367 71.0972 51.0864C70.958 50.7226 70.736 50.3962 70.4488 50.1331C70.1617 49.8699 69.8173 49.6772 69.4428 49.5702L66.0928 49.2399Z" fill="#4757FF"/>
<defs>
<linearGradient id="paint0_linear_1604_19957" x1="44.9532" y1="60.3606" x2="162.587" y2="307.504" gradientUnits="userSpaceOnUse">
<stop stop-color="#4757FF"/>
<stop offset="1" stop-color="#4757FF" stop-opacity="0"/>
</linearGradient>
</defs>
</svg>
