<svg width="25" height="49" viewBox="0 0 25 49" xmlns="http://www.w3.org/2000/svg">
<path d="M10.7584 2.08209C10.7584 -0.714887 13.432 -0.699105 13.432 2.16108C13.9026 6.99239 14.8958 11.7601 16.394 16.383C18.3313 21.4397 24.1748 21.1236 24.1748 24.0154C24.1748 26.3541 19.6922 26.0064 17.2907 30.6364C15.0332 34.9662 13.48 45.3167 13.48 47.0075C13.48 47.3637 13.3366 47.7053 13.0813 47.9572C12.8261 48.2091 12.4803 48.3506 12.1194 48.3506C11.7585 48.3506 11.4123 48.2091 11.1571 47.9572C10.9018 47.7053 10.7584 47.3637 10.7584 47.0075C10.7584 47.0075 10.2621 35.4087 8.00463 31.0631C5.60309 26.4489 -0.000514984 26.3225 -0.000514984 24.0154C-0.000514984 20.855 5.87505 22.1666 7.78027 16.383C9.1771 11.7068 10.1734 6.92299 10.7584 2.08209Z" fill="#57F287"/>
</svg>