<?xml version="1.0" encoding="utf-8"?>
<!-- Generator: Adobe Illustrator 28.4.1, SVG Export Plug-In . SVG Version: 6.00 Build 0)  -->
<svg version="1.1" xmlns="http://www.w3.org/2000/svg" xmlns:xlink="http://www.w3.org/1999/xlink" x="0px" y="0px"
	 viewBox="0 0 615 360" style="enable-background:new 0 0 615 360;" xml:space="preserve">
<style type="text/css">
	.st0{display:none;}
	.st1{display:inline;fill:#404EED;}
	.st2{display:inline;fill:#5865F2;}
	.st3{display:inline;fill:#4B59F2;}
	.st4{display:inline;fill:#3543DE;}
	.st5{display:inline;fill:#FFF4B3;}
	.st6{display:inline;fill:#29CC7A;}
	.st7{display:inline;fill:#8CD9FF;}
	.st8{display:inline;fill:#BAE8FF;}
	.st9{display:inline;}
	.st10{display:inline;fill:#EB459F;}
	.st11{display:inline;stroke:#D11583;stroke-width:2;stroke-linecap:round;stroke-miterlimit:10;}
	.st12{display:inline;stroke:#FFFFFF;stroke-width:2;stroke-miterlimit:10;}
	.st13{display:inline;fill:#912869;}
	.st14{display:inline;fill:#611B46;}
	.st15{display:inline;stroke:#000000;stroke-width:2;stroke-linecap:round;stroke-linejoin:round;}
	.st16{display:inline;stroke:#FFFFFF;stroke-width:2;stroke-linecap:round;stroke-miterlimit:10;}
	.st17{display:inline;stroke:#000000;stroke-width:2;stroke-linecap:round;stroke-miterlimit:10;}
	.st18{display:inline;fill:#FFFFFF;}
	.st19{display:inline;stroke:#2835BD;stroke-width:8;stroke-linecap:round;stroke-linejoin:round;}
	.st20{display:inline;fill:#D11583;}
	.st21{display:inline;stroke:#FFC619;stroke-width:2;stroke-linecap:round;stroke-miterlimit:10;}
	.st22{display:inline;fill:#2A39D4;}
	.st23{display:inline;fill:#2331B5;}
	.st24{display:inline;fill:#3442D9;}
	.st25{display:inline;fill:#FF78B9;}
	.st26{display:inline;stroke:#3442D9;stroke-width:2;stroke-miterlimit:10;}
	.st27{display:inline;stroke:#66BCFF;stroke-width:4;stroke-linecap:round;stroke-miterlimit:10;}
	.st28{display:inline;fill:#FFE75C;}
	.st29{display:inline;fill:#45AAF7;}
	.st30{display:inline;fill:#3F99F2;}
	.st31{display:inline;fill:#DE3A93;}
	.st32{display:inline;fill:#66BCFF;}
	.st33{display:inline;stroke:#2330BF;stroke-width:2;stroke-miterlimit:10;}
	.st34{display:inline;stroke:#2467D4;stroke-width:2;stroke-linecap:round;stroke-linejoin:round;}
	.st35{display:inline;stroke:#A3D7FF;stroke-width:2;stroke-linecap:round;stroke-linejoin:round;}
	.st36{display:inline;fill:#ADB4FF;}
	.st37{display:inline;fill:#15AD75;}
	.st38{display:inline;stroke:#15AD75;stroke-width:2;stroke-linecap:round;stroke-linejoin:round;}
	.st39{display:inline;fill:#FFC619;}
	.st40{display:inline;stroke:#FFC619;stroke-width:2;stroke-linecap:round;stroke-linejoin:round;}
	.st41{display:inline;stroke:#BAE8FF;stroke-width:2;stroke-linecap:round;stroke-linejoin:round;}
	.st42{display:inline;stroke:#5865F2;stroke-width:2;stroke-miterlimit:10;}
	.st43{clip-path:url(#SVGID_00000136390658366252958830000006875867348281900222_);}
	.st44{fill:#FFFFFF;}
	.st45{fill:#FCBDD6;}
	.st46{fill:#528C75;}
	.st47{fill:#7D456E;}
	.st48{fill:#85B386;}
	.st49{fill:#505C80;}
	.st50{fill:#6473A1;}
	.st51{fill:#58A67E;}
	.st52{fill:#824B6F;}
	.st53{fill:#754465;}
	.st54{fill:#5A3C5C;}
	.st55{fill:#33705E;}
	.st56{fill:#966290;}
	.st57{fill:#856987;}
	.st58{fill:#468069;}
	.st59{fill:#58AC77;}
	.st60{fill:#FFFAE6;}
	.st61{fill:#B8A3FF;}
	.st62{fill:#2F6653;}
	.st63{fill:#6EAC8D;}
	.st64{fill:#78426A;}
	.st65{fill:#703E64;}
	.st66{fill:#8F516F;}
	.st67{fill:#543857;}
	.st68{fill:#AB576F;}
	.st69{fill:#964D66;}
	.st70{fill:#C46375;}
	.st71{fill:#8A475E;}
	.st72{fill:#D66D8A;}
	.st73{fill:#85C28D;}
	.st74{fill:#B0728D;}
	.st75{fill:#CCBDFF;}
	.st76{fill:#FFF5CF;}
	.st77{fill:#D3E890;}
	.st78{fill:#9190C9;}
	.st79{fill:#B9E08B;}
	.st80{fill:#A293BA;}
	.st81{fill:#549981;}
	.st82{fill:#CFE08B;}
	.st83{fill:#5C3A5B;}
	.st84{fill:#874D69;}
	.st85{fill:#357562;}
	.st86{fill:#75745B;}
	.st87{fill:#6B6A47;}
	.st88{fill:#3B8264;}
	.st89{fill:#4B8F69;}
	.st90{fill:#3B826D;}
	.st91{fill:#66A8FF;}
	.st92{clip-path:url(#SVGID_00000043450929516034944900000009498944218980896409_);}
	.st93{fill:#53A0A3;}
	.st94{fill:#6E4A9B;}
	.st95{fill:#5D4282;}
	.st96{fill:#AA7AC2;}
	.st97{fill:#4F999C;}
	.st98{fill:#398A85;}
	.st99{fill:#59B0A2;}
	.st100{fill:#63A6FF;}
	.st101{fill:#4F9BFF;}
	.st102{fill:#63CBFF;}
	.st103{fill:#5FA38B;}
	.st104{fill:#8483B8;}
	.st105{fill:#8D8CC4;}
	.st106{fill:#92D18F;}
	.st107{fill:#8C7CA6;}
	.st108{fill:#7A6D91;}
	.st109{fill:#7978A8;}
	.st110{fill:#4F5C7D;}
</style>
<g id="Layer_1" class="st0">
	<path class="st1" d="M614.2,359.4H449.3v-51.5c38.4-36.6,82.2-11.4,85.1,15.8C578.1,295.3,619.2,318,614.2,359.4z"/>
	<path class="st2" d="M449.3,223.5H13.7v135.9h435.6V223.5z"/>
	<path class="st3" d="M13.7,265.5l435.6-35.1v-6.9H13.7V265.5z"/>
	<path class="st4" d="M449.3,223.5h-3.2v135.9h3.2V223.5z"/>
	<path class="st4" d="M410,223.5h-3.2v135.9h3.2V223.5z"/>
	<path class="st4" d="M370.7,223.5h-3.2v135.9h3.2V223.5z"/>
	<path class="st4" d="M331.4,223.5h-3.2v135.9h3.2V223.5z"/>
	<path class="st4" d="M292,223.5h-3.2v135.9h3.2V223.5z"/>
	<path class="st4" d="M252.7,223.5h-3.2v135.9h3.2V223.5z"/>
	<path class="st4" d="M213.4,223.5h-3.2v135.9h3.2V223.5z"/>
	<path class="st4" d="M174.1,223.5h-3.2v135.9h3.2V223.5z"/>
	<path class="st4" d="M134.8,223.5h-3.2v135.9h3.2V223.5z"/>
	<path class="st4" d="M95.5,223.5h-3.2v135.9h3.2V223.5z"/>
	<path class="st4" d="M56.2,223.5H53v135.9h3.2V223.5z"/>
	<path class="st4" d="M16.9,223.5h-3.2v135.9h3.2V223.5z"/>
	<path class="st5" d="M131.9,97.8c-4.1-13.6-6.3-20.1,1.1-24.1c7.4-4,29.9-1.3,40.4,1.2s12,5.1,5.1,15.4L131.9,97.8z"/>
	<path class="st6" d="M127.1,220.1c-1.6-40.4-0.6-74,0.7-91.9c-6.7-4.4-9.8-7.8-11.1-9.7c-0.3-0.4-0.4-0.8-0.4-1.3
		c0-0.5,0.2-0.9,0.5-1.2c10.6-13.3,19.7-24.9,29.2-30.3c9.5-5.4,22.5-6.8,43.2,13.8c0.2,0.3,0.3,0.6,0.3,0.9c0,0.3-0.2,0.6-0.4,0.9
		c-1.6,1.6-3.4,3.2-5.2,4.6c4.2,7.5,10.3,18.9,10.3,18.9h4.8c3.1,0,6,1.2,8.2,3.4c2.2,2.2,3.4,5.1,3.4,8.2
		c0.1,9.3-2.1,20.5-6.4,34.9c19.2,15.6,14.5,48.7,14.5,48.7L127.1,220.1z"/>
	<path class="st7" d="M204.2,171.3c0.6-2.1,1.2-4,1.7-6l-15.1,8.4c0,0-23.9-16.1-64-26.1c-0.7,18.6-0.8,43.8,0.3,72.5h91.6
		C218.7,220.1,223.4,186.9,204.2,171.3z"/>
	<path class="st8" d="M208,175c-1.2-1.3-2.4-2.6-3.8-3.7c0.6-2.1,1.2-4,1.7-6l-15.1,8.4c0,0-23.9-16.1-64-26.1
		c-0.1,2.3-0.2,4.8-0.2,7.3c30.7,12.7,47.2,34.5,49.1,65.2h22.7C202.4,202.5,205.6,187.1,208,175z"/>
	<path class="st9" d="M138.9,135.9h0.4c0.2-0.2,0.4-0.3,0.5-0.6l8.7-28.1c0.1-0.1,0.1-0.2,0.1-0.4c0-0.1,0-0.3-0.1-0.4
		c-0.1-0.1-0.1-0.2-0.2-0.3c-0.1-0.1-0.2-0.2-0.3-0.2c-0.1,0-0.3,0-0.4,0c-0.1,0-0.3,0.1-0.4,0.1c-0.1,0.1-0.2,0.2-0.3,0.3
		c-0.1,0.1-0.1,0.2-0.1,0.4l-8.4,27.2c-3.6-1.5-7.1-3.4-10.4-5.6h-0.2c0,0.6-0.1,1.3-0.1,1.9c3.5,2.2,7.1,4.1,10.9,5.7H138.9z"/>
	<path class="st9" d="M176.1,90.7l-35.8,2.6C180.3,100.9,182,102,176.1,90.7z"/>
	<path class="st10" d="M195.9,195.5l-3.8-35.5c-0.1-0.6-0.4-1.2-0.9-1.6c-0.5-0.4-1.1-0.6-1.7-0.6h-3.8l-1.7-3.3
		c-0.5-0.9-1.4-1.6-2.3-1.9c-1-0.3-2.1-0.3-3.1,0c-1,0.4-1.8,1.2-2.3,2.2c-7.5,16.1-11.2,42.6-11.9,47.6c0,0.2,0,0.5,0.2,0.7
		c0.1,0.2,0.3,0.3,0.5,0.4l21.6,6.9c0.1,0.1,0.3,0.1,0.4,0.1c0.1,0,0.3-0.1,0.4-0.1c0.1-0.1,0.2-0.2,0.2-0.3c0-0.1,0-0.3,0-0.4
		l-0.8-10.1l8-2.5c0.3-0.1,0.6-0.3,0.8-0.6C195.9,196.2,195.9,195.8,195.9,195.5z"/>
	<path class="st11" d="M177.4,167.2l-3.3,34.5"/>
	<path class="st9" d="M167.2,116.7c1.4-0.6,1.6-3.2,0.6-5.8c-1.1-2.7-3.1-4.4-4.5-3.8c-1.4,0.6-1.6,3.2-0.6,5.8
		C163.8,115.6,165.8,117.3,167.2,116.7z"/>
	<path class="st12" d="M177.5,122.2c1.8-3.4,1.6-7-0.5-8.1c-2.1-1.1-5.2,0.8-6.9,4.1c-1.8,3.4-1.6,7,0.5,8.1
		C172.6,127.5,175.7,125.6,177.5,122.2z"/>
	<path class="st12" d="M192.2,122.3c1.8-3.4,1.6-7-0.5-8.1c-2.1-1.1-5.2,0.8-6.9,4.1c-1.8,3.4-1.6,7,0.5,8.1
		S190.4,125.6,192.2,122.3z"/>
	<path class="st9" d="M182.1,116.2c0.9-0.4,0.8-2.7-0.2-5.3c-1-2.6-2.6-4.3-3.5-4c-0.9,0.4-0.8,2.7,0.2,5.3
		C179.6,114.8,181.2,116.6,182.1,116.2z"/>
	<path class="st13" d="M191.6,142.4c-7.7,0-15.2-2.6-21.2-7.5c-6.2-5.1-3.7-5.7,0.2-5.8c3.9-0.1,22.6,0.6,28,1.4
		C204,131.3,205,142,191.6,142.4z"/>
	<path class="st14" d="M191.6,142.4c-7.7,0-15.2-2.6-21.2-7.5c-6.2-5.1-3.7-5.7,0.2-5.8c3.9-0.1,22.6,0.6,28,1.4
		C204,131.3,205,142,191.6,142.4z"/>
	<path class="st15" d="M191.2,153.6l-0.4-3.7c2.8-0.2,5.6-1,8.1-2.3"/>
	<path class="st10" d="M195.3,141.9c-5.4-5.2-12.7-9.1-26.2-8.2C180.7,144.4,192.8,142.6,195.3,141.9z"/>
	<path class="st12" d="M178.1,118.7h6.1"/>
	<path class="st16" d="M168.9,119.9l-25.8-10.5c-0.5-0.2-1.1-0.3-1.7-0.2c-0.6,0.1-1.1,0.3-1.6,0.6c-0.5,0.3-0.9,0.8-1.2,1.3
		c-0.3,0.5-0.4,1.1-0.4,1.7l0,0c0,0.7,0.2,1.4,0.6,1.9c0.4,0.6,0.9,1,1.5,1.3l1.7,0.8"/>
	<path class="st17" d="M163.5,106.8c2,0.1,4.1-0.2,6-0.8"/>
	<path class="st17" d="M178.5,106.8c1.3,0,2.5-0.2,3.7-0.8"/>
	<path class="st5" d="M135.3,94.3c35.7-0.5,47.8-4.5,58-8.2c10.2-3.7,9.2-6.6,1.4-6.3C186.9,80.1,160.2,90.3,135.3,94.3z"/>
	<path class="st6" d="M126.5,158.1l-0.2,9.8l4.9-1.9c0,0,26.1-10.9,32.3-12.4c6.2-1.5,12.1,1.4,21,4.8c8.9,3.4,6.6,6.5,3.8,9.5
		c-2.8,3-2.7,2.8-17.4,2.8c-28.1,20.3-36.7,32.2-48.2,32.2c-6.9,0-12.8-3.1-17.2-16.7C101.1,172.6,109.3,166.4,126.5,158.1z"/>
	<path class="st18" d="M224.4,169.3l-15-18.1l-25.6,25.5l18.1,15.1c-0.2,1.7,0,3,0.9,3.9c2.7,2.7,10.6-0.8,17.7-7.8
		c7.1-7,10.5-15,7.8-17.7C227.4,169.3,226.1,169.1,224.4,169.3z"/>
	<path class="st18" d="M200,167.4c7-7,11.2-14.2,9.3-16.1c-1.9-1.9-9.1,2.3-16.1,9.3c-7,7-11.2,14.2-9.3,16.1
		C185.7,178.6,192.9,174.4,200,167.4z"/>
	<path class="st8" d="M198.2,165.7c6.4-6.4,10.6-12.4,9.5-13.5c-1.1-1.1-7.1,3.2-13.5,9.5c-6.4,6.4-10.6,12.4-9.5,13.5
		C185.8,176.3,191.9,172,198.2,165.7z"/>
	<path class="st6" d="M223,161.7c4.3,0.6,6,4.5,4.3,9.7c-0.2,0.6-0.5,1-1,1.4c-0.4,0.4-1,0.7-1.5,0.8c-0.6,0.1-1.2,0.1-1.7-0.1
		c-0.6-0.2-1.1-0.5-1.5-0.9c-1-1-1.6-2.4-1.7-3.8c-0.1-1.4,0.3-2.9,1.1-4.1L223,161.7z"/>
	<path class="st6" d="M215.5,158.7c-0.2,3.7-2.4,7.4-4,9.8c-0.4,0.7-0.6,1.5-0.6,2.3c0.1,0.8,0.4,1.5,1,2.1l0.8,0.7
		c0.3,0.3,0.6,0.5,0.9,0.6c0.3,0.1,0.7,0.2,1.1,0.2c0.4,0,0.7-0.1,1.1-0.2c0.3-0.1,0.7-0.4,0.9-0.6c3-2.8,5.1-6.3,6.1-10.3
		c1.2-5.4-2.7-9.2-9.5-7.4L215.5,158.7z"/>
	<path class="st5" d="M135.3,94.3l12.2-1l29.3-5.8l-7.3-7.2h-34.9L135.3,94.3z"/>
	<path class="st18" d="M194.4,131.2l-7-0.4c0.8,4.2,2.8,6.4,4.5,5.7S194.2,132.1,194.4,131.2z"/>
	<path class="st18" d="M172.8,130.3c0.9,4.8,2.7,7.3,4.4,6.5s2.1-4.8,2.4-6.4L172.8,130.3z"/>
	<path class="st19" d="M465.4,223.5H4.3"/>
	<path class="st10" d="M184.4,174.7c0.1,0.2,0.2,0.4,0.4,0.5c0.1,0,0.1,0,0.1,0.1c0,0.1,7.2-3.5,13.4-9.7v-0.2l-3.9-3.8l-3.2-3.3
		l-4.2,0.2l-8.2-3.1l-0.3,0.7C182,157.3,182.7,169.9,184.4,174.7z"/>
	<path class="st20" d="M185.7,157.9c1.7,3.4,3.2,6.9,4.5,10.5c0.1,0.2,0.2,0.3,0.3,0.4c0.1,0.1,0.3,0.2,0.5,0.2h0.3
		c0.2-0.1,0.4-0.2,0.5-0.4c0.1-0.2,0.1-0.4,0.1-0.7c-0.1-0.3-2.3-6.1-4.3-10H185.7z"/>
	<path class="st20" d="M186.9,199.7h-0.2L179,202c-0.1,0-0.3,0.1-0.4,0.2c-0.1,0.1-0.2,0.2-0.2,0.4c0,0.2,0,0.3,0,0.5
		c0.1,0.2,0.1,0.3,0.3,0.4l6.8,5.9c0,0.1,0.1,0.2,0.2,0.2c0.1,0.1,0.2,0.1,0.3,0.1c0.1,0,0.3,0,0.4-0.1c0.1-0.1,0.2-0.1,0.3-0.2
		c0.1-0.1,0.1-0.2,0.2-0.3c0-0.1,0.1-0.2,0-0.4c0-0.1,0-0.2-0.1-0.3c-0.1-0.1-0.1-0.2-0.2-0.3l-5.6-4.9l6-1.8L186.9,199.7z"/>
	<path class="st15" d="M126,167.6l-14.1,6.7"/>
	<path class="st21" d="M180.9,82.8c-15.4,4.1-31,7.4-46.8,9.9"/>
	<path class="st8" d="M193.4,178.6l10.8,9.9c0.3,0.3,0.8,0.5,1.2,0.5c0.4,0,0.9-0.1,1.3-0.3c0.2-0.2,0.4-0.4,0.6-0.7
		c0.1-0.3,0.2-0.5,0.2-0.8s0-0.6-0.1-0.9c-0.1-0.3-0.3-0.5-0.5-0.7l-10.5-10.1c-0.3-0.3-0.7-0.5-1.2-0.5c-0.4-0.1-0.9,0-1.2,0.2
		l-0.3,0.2c-0.3,0.2-0.5,0.4-0.7,0.6c-0.2,0.3-0.3,0.6-0.3,0.9c0,0.3,0,0.6,0.1,0.9C193,178.1,193.2,178.4,193.4,178.6z"/>
	<path class="st15" d="M220.5,170.5c1.8-2.4,3-5.3,3.3-8.3"/>
	<path class="st22" d="M309.2,32.2c0.9-4.3-1.9-8.6-6.4-9.5c-4.4-0.9-8.8,1.8-9.7,6.1c-0.9,4.3,1.9,8.6,6.4,9.5
		C303.9,39.3,308.3,36.6,309.2,32.2z"/>
	<path class="st23" d="M362.7,106.5c7.3,0.4,16.1,3.4,27.1,15.6c6.2-6.2,9.2-4.5,17.5,2.6c8.3,7.1,26.1,20.6,30.5,25.1
		c4.4,4.5,7.7,14.2-4.3,21.5s-33.3-6.1-44.5-13.9c-11.2-7.8-26.3-16.9-26.3-16.9V106.5z"/>
	<path class="st24" d="M404,121.9c2.9,4.8,5.4,9.8,7.3,15.1c2.3,7.2-0.6,11.4-6.5,16.3c-5.9,4.9-8.3,3.8-11.4,1.3
		c-0.2-0.1-0.4-0.1-0.6-0.1c-0.2,0-0.4,0.2-0.5,0.3c-0.1,0.2-0.2,0.4-0.2,0.6c0,0.2,0.1,0.4,0.2,0.6c1.6,1.4,3.6,2.2,5.7,2.3
		c2.5,0,5-1.2,8-3.7c5.1-4.3,9.9-9.2,6.9-18.2c-1.1-3.2-2.5-6.4-4.1-9.4c-0.6-1.2-1.5-2.3-2.5-3.2L404,121.9z"/>
	<path class="st17" d="M388.9,151.8c5.4,5.2,18.3,14.4,18.3,14.4"/>
	<path class="st25" d="M335.9,105.2c25.9-7.4,41.5-32.2,34.8-55.6c-6.6-23.3-33-36.2-58.9-28.9C286,28.2,270.4,53,277,76.3
		C283.7,99.7,310,112.6,335.9,105.2z"/>
	<path class="st18" d="M289.8,58.2c0,9.6,4.6,18.1,10.3,19c5.7,0.9,7.1-4.1,7.3-13.4c0-2.4,0.1-4.8,0.3-7.3
		c0.6-8.6-2.5-13.3-7.6-14.1S289.8,48.6,289.8,58.2z"/>
	<path class="st20" d="M332.2,58.8c-1-1.3-1.6-2.8-1.7-4.5c-0.1-1.6,0.3-3.2,1.1-4.6c8-13.6,15.3-14.1,20.5-13.8s9.2,5.2,4.9,17.6
		c6.1,6.6,3.6,12.7-5.1,13.5C343.2,67.8,338.5,67.1,332.2,58.8z"/>
	<path class="st23" d="M389.4,192.1c1.2-32.8-9.3-37-10.3-46.8s-2-23-12.8-37.2c0,0,1.3-13.3,2-22.2c0-0.4,0-0.7-0.2-1
		c-0.1-0.3-0.3-0.6-0.6-0.9c-0.3-0.2-0.6-0.4-0.9-0.5c-0.3-0.1-0.7-0.1-1-0.1c-7,1.1-14.1,1.6-21.2,1.3
		c-12.2-0.4-28.7-1.6-46.3,15.5l5.7,8l-0.4,0.7c-0.3,0.5-0.5,1-0.5,1.6c-0.1,0.6,0,1.1,0.2,1.6c0.2,0.5,0.5,1,0.9,1.4
		c0.4,0.4,0.9,0.7,1.4,0.9l1.1,0.4c0,0-16.1,9.7-11.3,31.6c4.8,21.9-0.3,43.1,7.8,49.6c1.6,1.3,3.6,2.2,5.7,2.5
		c2.1,0.3,4.2,0.1,6.1-0.6l37.1,19.8c13.5,14.9,32.7,31.6,32.7,31.6l-14.8,35.3l15.6,39.3c13.3-32.6,30.8-64.6,33.9-79.4
		C422.4,229.7,412.4,221,389.4,192.1z"/>
	<path class="st26" d="M374.8,303.8c7.4-22.9,15.7-43.6,18.2-49.6c0.2-0.5,0.3-1.1,0.1-1.7c-0.1-0.6-0.4-1.1-0.8-1.4
		c-21.6-20.7-26.7-27.8-26.7-27.8"/>
	<path class="st9" d="M317.7,178l-13.4-9.1c0,0,8.1-11.1,12.6-17.8l1.1-1.7c0-0.1,0.1-0.2,0.2-0.3c0.1-0.1,0.2-0.1,0.3-0.2
		c0.1,0,0.2-0.1,0.3,0c0.1,0,0.2,0,0.3,0.1c0.2,0.1,0.3,0.2,0.4,0.4c0.1,0.2,0.1,0.4,0.1,0.6C316.7,167.7,317.7,178,317.7,178z"/>
	<path class="st24" d="M368.1,87.6c-7.1,2.4-16.5,2.3-27.7,2c-11.2-0.3-22.5-0.6-41,12.4l3,4.3c17.1-12.1,26.3-11.8,37.9-11.5
		c11.6,0.3,19.8,0.4,27.4-1.6C367.8,91.3,368,89.4,368.1,87.6z"/>
	<path class="st9" d="M362.7,190.5c0.2,0,0.4-0.1,0.6-0.2c0.2-0.1,0.3-0.4,0.3-0.6c0.2-16.1-5.9-32.5-8.5-38.8
		c-2.7-6.5-4.4-13.4-4.9-20.4c-0.8-9.1-2.7-16.2-3.9-19l3.4-26.8h-1.8l-3.4,27.1v0.2c1.1,2.4,3.1,9.5,3.9,18.7
		c0.5,7.2,2.2,14.2,4.9,20.9c2.7,6.2,8.7,22.3,8.5,38c0,0.2,0.1,0.5,0.3,0.6C362.2,190.4,362.5,190.5,362.7,190.5z"/>
	<path class="st23" d="M420.5,346.5c-0.4-0.5-0.8-1-1.4-1.3c-0.6-0.3-1.2-0.5-1.8-0.5c0.6-3.6-0.1-6.6-4.8-7.7
		c-5.4-1.2-11.1-1-16.4,0.5c-9.2-23.6-27.4-85.8-40.1-131.2l-41.2-8.4c-0.4,11.3,7,36.2,12.4,57.6s17.3,66.2,20.6,82.4
		c2,9.8,4.9,21.5,4.9,21.5h38.2c11.2,0,25.6-4.4,28.4-6.6C422.1,350.6,421.5,348.3,420.5,346.5z"/>
	<path class="st26" d="M359.2,336.3c-11.8-37.2-29-87.2-39.5-138"/>
	<path class="st23" d="M339.6,192.1c0.2-2.9-3.8-13.8-8.6-21.7c-4.8-7.9-7.2-13.5-11.7-10.9s-15,9.4-15,9.4s8.1-11.1,12.6-17.8
		c9.7-14.6,6.3-34.7-10.4-36.3c-13.7,7.6-15.8,14.1-28.8,37s-20.7,47.3-6.7,57.4c14,10.1,27.5,3.1,52.7-8
		C334.6,196.5,339.5,195.1,339.6,192.1z"/>
	<path class="st24" d="M323.9,199.7c-2.8-1.3-5.3-5.5-8.3-14.1c-5-14.5-6.3-18.9-3.2-21.9l-1.9,1.2c-0.4,0.3-0.8,0.7-1.1,1.1
		c-0.3,0.5-0.4,1-0.4,1.5c-0.1,3.8,1.8,9.4,5,18.7c2,5.8,3.8,9.7,5.7,12.1c0.7,1,1.8,1.8,3,2.1c1.2,0.3,2.5,0.2,3.6-0.3
		C325.5,200.2,324.6,200,323.9,199.7z"/>
	<path class="st17" d="M331,170.4c-4.7-7.9-7.2-13.5-11.7-10.9s-27.5,17.1-27.5,17.1"/>
	<path class="st27" d="M382.7,112.9c-3.1-20.8-4.3-41.8-3.5-62.8c0-0.7-0.1-1.3-0.4-1.9c-0.3-0.6-0.7-1.1-1.2-1.6
		c-0.5-0.4-1.1-0.7-1.8-0.8c-0.7-0.1-1.3-0.1-2,0.1l-24.9,7"/>
	<path class="st18" d="M366.7,114.6c2.4,4.6,6.7,12.8,7.6,15.5c0.3,4.2,0.1,11.4,0.1,13.6c0,0.2,0.1,0.4,0.2,0.6
		c0.1,0.2,0.3,0.3,0.5,0.3c6.8,1,9.7,1.1,12.5,0.8c2.8-0.3,6.7-1.6,9.4-2.4c0.3-0.1,0.5-0.3,0.6-0.6c0.1-0.3,0.1-0.6,0.1-0.9
		c-2.5-8.2-4.2-14.1-4.2-14.1c-0.5-10.2-0.6-18.3-0.6-21c0-0.3-0.1-0.5-0.3-0.7c-0.2-0.2-0.4-0.3-0.7-0.3
		c-9.3-0.6-12.5-0.6-15.9-0.4s-4.5,2.2-9.2,7.8c-0.2,0.2-0.3,0.6-0.4,0.9C366.4,114,366.5,114.3,366.7,114.6z"/>
	<path class="st28" d="M396.7,142.2c0,0,1.1,0.4,0.3,0.8c0.3-0.1,0.5-0.3,0.6-0.6c0.1-0.3,0.1-0.6,0.1-0.9
		c-2.5-8.2-4.2-14.1-4.2-14.1c-0.5-10.2-0.6-18.3-0.6-21c0-0.3-0.1-0.5-0.3-0.7c-0.2-0.2-0.4-0.3-0.7-0.3
		c-9.3-0.6-12.5-0.6-15.9-0.4c-0.7,0-1.4,0.2-2.1,0.5l8.8,18.6l-0.6,17.1L396.7,142.2z"/>
	<path class="st25" d="M383.2,141.7c1.7,6.1,3.2,10.4,7,11.2c3.8,0.8,8.3-3.1,14.1-8.9c5.8-5.8,3.8-10.7,1.3-15.3
		c-2.5-4.6-2.9-10.4-6-12.8c-3.8-2.8-8-5.2-12.3-7.2c-3.5-1.5-5.6-1.5-10.9,4.5c-5.3,6-8.4,9.5-7.5,11.9c0.9,2.4,2.4,5,2.4,5
		c-2.4,2.4-2.4,4.4-1.4,6.9s1.4,4.8,6.5,4.8L383.2,141.7z"/>
	<path class="st17" d="M371.5,129l14-13.2"/>
	<path class="st18" d="M384.3,134.2c-3.1,2-6.4,3.8-9.8,5.3c-0.1,1.9-0.1,3.4-0.1,4.2c0,0.2,0.1,0.4,0.2,0.6
		c0.1,0.2,0.3,0.3,0.5,0.3c6.8,1,9.7,1.1,12.5,0.8c2.8-0.3,6.7-1.6,9.4-2.4c0.3-0.1,0.5-0.3,0.6-0.6c0.1-0.3,0.1-0.6,0.1-0.9l-0.6-2
		C392.6,138.3,388.3,136.5,384.3,134.2z"/>
	<path class="st28" d="M397.1,139.5c-4.5-1.2-8.8-3-12.8-5.3l-2,1.3l-0.2,5.5c0,0.1,0.1,0.1,0.1,0.2c0.1,0.1,0.1,0.1,0.2,0.1
		l14.3,0.9c0,0,1.1,0.4,0.3,0.8c0.3-0.1,0.5-0.3,0.7-0.6c0-0.1,0.1-0.3,0.1-0.4c0-0.2,0-0.3-0.1-0.5l-0.6-1.9V139.5z"/>
	<path class="st25" d="M322.8,162c3.1-3.7,5.5-8,6.8-12.6c1-3,2.1-7.3,2.5-8.9s2.3-2.5,4.6-2c2.3,0.5,3.3,0.9,2.9,5
		s-1.3,13.8-1.3,13.8L322.8,162z"/>
	<path class="st25" d="M368.8,164.4c-1.5-4.1-2.2-6.2-3.5-7.9c-1.3-1.7-2.5-2-8.3-2.3c-2.3-0.1-6.7,0-9.6,0.1
		c5.7-1.5,11.8-2.8,13.1-3.2c1.3-0.4,3.9-0.8,3-3.3s-1.7-3.1-3.1-3.1c-3.6-0.1-7.2,0.2-10.7,0.9c-5.1,1-10.2,2.4-15.1,4.3
		c-2.9,1.2-6.6,6.6-11.8,12.1c2.3,8.1,7.8,20.5,13.4,26.4c7.4-2.9,11.8-9.3,13.6-11.7c9.3-1.6,12.5-0.6,17.7,0.1
		c3.2,0.4,3.5-1.9,3.7-3C371.4,172.7,370.1,168.2,368.8,164.4z"/>
	<path class="st9" d="M292.8,58.3c-0.3,4.2,1.1,7.7,3.1,7.9c2,0.2,3-1.4,3.1-5.3c0-1.6,0.2-3.3,0.6-4.9c0.7-3.5-0.8-4.8-2.5-4.9
		C295.4,51,293.1,54.2,292.8,58.3z"/>
	<path class="st22" d="M327.1,8.9c2.1-0.4,4.2-0.1,6.1,1c1.8,1,3.2,2.7,3.9,4.7c1.5,4.7,2.8,11.8-5.2,13.1c-3.4,0.5-6.9-1-12.3-5.2
		c-3.9-3.1-8.1-4.2-17.2,0.5c-4.9-3.4-2.5-12.1,10.8-7.7c-5.8-7.5-4.1-12.7,0.1-14.2C317.5-0.4,323.8,0.4,327.1,8.9z"/>
	<path class="st9" d="M327.1,23.3c-2.9-3.6-5.3-8.4-7.3-12.5c-2-4.1-4-8.4-6.2-9.7h-0.3c-0.8,0.3-1.5,0.7-2.1,1.3l0.7-0.2
		c1.9,0.2,4,4.6,6.3,9.3c2.3,4.7,4.5,9.1,7.5,12.9c1,1.2,2.1,2.3,3.4,3.2c0.9,0.2,1.9,0.2,2.8,0.1h0.1
		C330.2,26.5,328.5,25,327.1,23.3z"/>
	<path class="st9" d="M337.2,24.7c-0.4,0.6-1,1.2-1.6,1.6c-0.5-6.6-3.4-12.9-8.3-17.4c0.8-0.2,1.5-0.2,2.3-0.1
		C333.8,13.1,336.5,18.7,337.2,24.7z"/>
	<path class="st29" d="M347.4,335.7c0.1,0.8,0.3,1.5,0.4,2.2c2,9.8,4.9,21.5,4.9,21.5h38.2c11.2,0,25.6-4.4,28.4-6.6
		c2.8-2.2,2.2-4.5,1.2-6.3c-0.4-0.5-0.8-1-1.4-1.3c-0.6-0.3-1.2-0.5-1.8-0.5c0.6-3.6-0.1-6.6-4.8-7.7c-5.4-1.2-11.1-1-16.4,0.5
		c-1.4-3.7-3.1-8.3-4.9-13.6C374.4,323.6,357.3,322.2,347.4,335.7z"/>
	<path class="st29" d="M347.4,335.7c0.1,0.8,0.3,1.5,0.4,2.2c2,9.8,4.9,21.5,4.9,21.5h38.2c11.2,0,25.6-4.4,28.4-6.6
		c2.8-2.2,2.2-4.5,1.2-6.3c-0.4-0.5-0.8-1-1.4-1.3c-0.6-0.3-1.2-0.5-1.8-0.5c0.6-3.6-0.1-6.6-4.8-7.7c-5.4-1.2-11.1-1-16.4,0.5
		c-1.4-3.7-3.1-8.3-4.9-13.6C374.4,323.6,357.3,322.2,347.4,335.7z"/>
	<path class="st7" d="M396.1,337.5l-1.3,0.3h-0.2l-10.9,2.2c-0.2-0.2-0.3-0.5-0.3-0.8c-0.8-2.8-1.3-5.8-1.3-8.7
		c-0.1-6.1-3.3-6.7-8.8-6.6l0.3-0.7c0.7-1.9,2.1-3.6,3.8-4.8c1.7-1.2,3.8-1.8,5.8-1.7h9.1c0.5,0,1.1,0.1,1.5,0.4
		c0.5,0.2,0.9,0.6,1.2,1c0.3,0.4,0.6,0.9,0.7,1.4c0.1,0.5,0.2,1.1,0.1,1.6c-1.1,4.7-1.4,10.5-0.3,14.8
		C395.7,336.4,395.9,337,396.1,337.5z"/>
	<path class="st2" d="M357.5,343.6c-1.4-0.5-2.8-0.6-4.2-0.5c-1.4,0.1-2.8,0.5-4.1,1.2c0.1,0.6,0.2,1.2,0.4,1.8
		c1.1-0.7,2.3-1.1,3.6-1.3c1.3-0.2,2.5,0,3.7,0.4c5.6,1.9,9.7,9.2,11.8,14.2h1.9C368.4,354.2,364,345.8,357.5,343.6z"/>
	<path class="st9" d="M420.2,351.9l-0.9,0.9c-2.8,2.2-17.2,6.6-28.4,6.6h-22.8V359c26.2-0.4,44-11.3,50.1-11.3
		C420.2,347.7,421.4,350.7,420.2,351.9z"/>
	<path class="st17" d="M395.1,138.1c1.4,1.9,3.5,3.3,5.8,3.8"/>
	<path class="st28" d="M351.2,130.4c-1,0-2-0.4-2.7-1c-0.7-0.7-1.2-1.6-1.3-2.6l-0.8-9.1h1.8l5.3,8.7c0.2,0.4,0.3,0.9,0.3,1.3
		c0,0.5-0.1,0.9-0.4,1.3c-0.2,0.4-0.6,0.7-1,1C352.1,130.3,351.7,130.4,351.2,130.4z"/>
	<path class="st17" d="M306.5,114.8h9.8"/>
	<path class="st9" d="M362.2,228.4c-1.2-4.3-3-10.4-3-10.4c8-5.2,15.7-11.1,22.9-17.4c0,0-8.3,18.4-12,35.5L362.2,228.4z"/>
	<path class="st17" d="M384.6,249.3l9.7-0.4"/>
	<path class="st9" d="M396.1,337.5l-1.3,0.3h-0.2c-4.3,1-8.6,2.3-12.8,3.9h-0.3c-0.2,0-0.3-0.1-0.5-0.2c-0.1-0.1-0.2-0.3-0.3-0.4
		c0-0.1-0.1-0.2-0.1-0.3c0-0.1,0-0.2,0.1-0.3c0-0.1,0.1-0.2,0.2-0.3c0.1-0.1,0.2-0.1,0.3-0.2l2.2-0.9c4-1.4,8.1-2.5,12.2-3.4
		C395.7,336.3,395.9,336.9,396.1,337.5z"/>
	<path class="st9" d="M369.1,165.2l-0.3-0.8l-0.4-1c-8.7-0.9-17.8-1.5-26.7-0.6c-0.1,0-0.2,0.1-0.3,0.1c-0.1,0.1-0.2,0.1-0.3,0.2
		c-0.1,0.1-0.1,0.2-0.2,0.3c0,0.1,0,0.2,0,0.4s0.1,0.2,0.1,0.3c0.1,0.1,0.1,0.2,0.2,0.3c0.1,0.1,0.2,0.1,0.3,0.2c0.1,0,0.2,0,0.4,0
		C350.9,163.6,360.2,164.3,369.1,165.2z"/>
	<path class="st18" d="M301.2,53.8l-5.8,2.8l8.1,3.7L301.2,53.8z"/>
	<path class="st18" d="M420.2,351.9c0.6-0.8-0.1-1.3-2-1.3c-6.1,0-23.9,8.4-50.1,8.8h-15.4l-1.1-4.4c12,0,25.1-0.2,37.3-4.1
		c12.2-3.9,20.3-7.2,28.4-6.2c0.6,0,1.3,0.2,1.8,0.5c0.6,0.3,1,0.8,1.4,1.3c0.5,0.8,0.8,1.8,0.8,2.8
		C421.2,350.2,420.8,351.2,420.2,351.9z"/>
	<path class="st24" d="M388.9,319.9h1.2c2.8,0,4.7,0.1,5.3,0.8c0.6,0.7,0.3,1,0.1,2c0.1-0.6,0.2-1.1,0.4-1.7
		c0.1-0.6-0.1-1.3-0.4-1.8c-0.4-0.5-0.9-0.8-1.6-0.9h-5c-4.6,0-9.8,0-12.5,5.9c0.6,0,1.2,0.1,1.8,0.3
		C380.5,319.8,384.6,319.9,388.9,319.9z"/>
	<path class="st15" d="M351.2,48.3c-1.3,2.1-3.6,4.5-8.7,5.5c7-0.8,10,3.1,10,3.1"/>
	<path class="st29" d="M220.9,359.4h-66.5v-14c0-3.6,1.4-7.1,3.9-9.7l6.6-6.4c0.8-0.8,1.5-1.8,2-2.8c0.5-1.1,0.7-2.2,0.7-3.4v-16
		c0-3.2,1.1-6.3,3.1-8.8c2-2.5,4.8-4.3,7.9-5c10.7-2.7,21.8-3.2,30.9-1.4c3.2,0.7,6.1,2.4,8.2,5c2.1,2.6,3.2,5.7,3.2,9V359.4z"/>
	<path class="st8" d="M171.5,332.6h0.4c0.2,0,0.3,0,0.5-0.1c0.1-0.1,0.3-0.2,0.3-0.3c3-5.8,3-14.8,3-24.4c0-9.6,0.9-13.2,7.3-15.6
		l-3.4,0.7c-0.9,0.2-1.7,0.6-2.4,1.1c-0.7,0.6-1.3,1.3-1.7,2.1c-1.4,2.8-1.6,6.5-1.6,11.7c0,9.4,0,18.2-2.8,23.6
		c-0.1,0.1-0.1,0.2-0.1,0.3c0,0.1,0,0.2,0,0.4c0,0.1,0.1,0.2,0.2,0.3C171.3,332.5,171.4,332.6,171.5,332.6z"/>
	<path class="st30" d="M220.9,305.9c0-3.3-1.2-6.5-3.2-9.1c-2.1-2.6-5-4.3-8.2-4.9c-5.3-0.9-10.8-1.2-16.2-0.9
		c-12.8,0.9-10.9,9-10.9,20.8v10.1c0,3.4-0.9,6.7-2.6,9.6c-1.9,3.1-2.4,6.9-2.4,14.3v13.6h43.6V305.9z"/>
	<path class="st4" d="M204.9,343.3c-0.6-17.4-8.5-32.6-16.5-47.1c-0.2-0.3-0.3-0.6-0.3-1c0-0.4,0.1-0.7,0.2-1
		c0.2-0.3,0.4-0.6,0.7-0.7c0.3-0.2,0.7-0.3,1-0.3h2c0.4,0,0.8,0.1,1.2,0.4c0.4,0.2,0.7,0.5,0.9,0.8c8.2,15.1,16.8,30.8,17.4,48.9
		c0.3,9.1-6.6,16.1-15.8,16.1h-6.6C198.3,359.4,205.2,352.4,204.9,343.3z"/>
	<path class="st4" d="M223.7,343.3c-0.6-17.4-8.6-32.6-16.5-47.1c-0.2-0.3-0.3-0.6-0.3-1c0-0.4,0.1-0.7,0.2-1
		c0.2-0.3,0.4-0.6,0.7-0.7c0.3-0.2,0.7-0.3,1-0.3h2c0.4,0,0.8,0.1,1.2,0.3c0.4,0.2,0.6,0.5,0.8,0.9c8.3,15.1,16.8,30.8,17.5,48.9
		c0.1,2.1-0.2,4.2-1,6.2c-0.8,2-1.9,3.8-3.4,5.3c-1.5,1.5-3.3,2.7-5.2,3.5c-2,0.8-4.1,1.2-6.2,1.1h-6.6c2.1,0.1,4.2-0.3,6.2-1.1
		c2-0.8,3.7-2,5.2-3.5c1.5-1.5,2.6-3.3,3.4-5.3S223.8,345.4,223.7,343.3z"/>
	<path class="st31" d="M207.4,316.3l20.3,3.5c1.6,4.2,2.4,7,2.6,9.7s-2.4,4.2-6.4,5.8c-2.9,1.2-5.5,2.9-7.8,5
		c-5.8,5.1-10.7,8.2-19.2,8.2c-1.7,0-2.9,0.1-3.9-1c-1.1-1.2-1.7-2.7-1.8-4.3c-0.1-1.6,0.4-3.2,1.3-4.5c1-1.4,2.3-2.6,3.7-3.6
		c3-2,5.6-4.6,7.5-7.6c1.9-3.1,3.1-6.5,3.5-10.1C207.3,316.9,207.3,316.6,207.4,316.3z"/>
	<path class="st9" d="M223.9,335.3c1.7-0.6,3.3-1.5,4.7-2.6c1.9-1.8,1.1-3.5-3-3.4c-4.1,0.1-8.4,3.3-17,8.6
		c-8.6,5.3-21.4,10.6-11.7,10.6s13.4-3.1,19.2-8.2C218.4,338.2,221,336.5,223.9,335.3z"/>
	<path class="st32" d="M205.2,310.2c-1.5,0.3-1.3,2-0.5,3.7c-1.6,3-0.6,4.2,2.2,5.4c5.7,1.9,11.6,2.7,17.6,2.4
		c6.1-0.6,5.7-2.6,5.1-4.6c2.1-1.8,1.8-3.9-0.3-4.8C227.2,311.4,215.9,307.9,205.2,310.2z"/>
	<path class="st18" d="M250.3,205.8h-26.2v14.3h26.2V205.8z"/>
	<path class="st32" d="M303.6,206.1c0.5,2,0.5,4.2,0.1,6.2c-0.4,2-1.3,4-2.6,5.6c-1.3,1.6-2.9,3-4.8,3.9s-3.9,1.4-6,1.4h-28.6
		l-13.4,7.5v-0.4c-6.1,0-9.6-2-6.9-24.4c-1.2-6.3-6.8-31.1-9.9-49.6c-2.8-16.9,3.5-23.1,20.9-32.9c7.4-22,26.6-20.7,30.3-7.5
		C286.3,129.1,298.5,185.2,303.6,206.1z"/>
	<path class="st24" d="M249.9,237.8l-4.6,0.8c-0.2,0-0.4,0.1-0.6,0.3c-0.2,0.1-0.3,0.3-0.5,0.5c-0.1,0.2-0.2,0.4-0.2,0.6
		c0,0.2,0,0.5,0.1,0.7l1,2.5c-13.9,0.8-26,2-30.8,6.2c-4.8,4.2-4.8,10.6-7,29.7c-2.2,19.1-5.8,30.5,0,33.1
		c5.9,2.5,12.3,3.5,18.7,2.8c6.4-0.6,7-3.9,8.3-13.8c1.3-9.9,4.4-31.9,4.4-31.9h50.5c12.5,0,19.9-8.2,21.6-15.2
		c1.2-5-0.4-16.8-3.3-30.8h-45.9l-13.4,7.5l1,4.3L249.9,237.8z"/>
	<path class="st33" d="M292,223.5c5,25,6,43.8-13,52.4"/>
	<path class="st34" d="M252.7,210.9c0,0,2.1,12.3,5,26.9c3.3,16.8,2.4,16.2-20.5,17.7c-20.1,1.3-18.3,0.3-22.5,23.2
		c-1.6,9-4.4,25.3-3.6,34.3c0,0-0.9,5.3-0.7,6.4"/>
	<path class="st15" d="M238.7,269.3c-11.1-1.7-16.5-11.7-16.5-11.7"/>
	<path class="st15" d="M238.7,269.3c-2.3-1.3-4.3-3.1-5.8-5.2c-1.6-2.1-2.7-4.5-3.4-7.1"/>
	<path class="st10" d="M303.6,206.1c-2.6-10.8-7.2-30.8-11.5-49.5l-22.4-1.7l-17.3,12.2l-10,13.4l-5.1,6.9
		c1.8,8.6,3.3,15.6,3.9,18.6c-2.7,22.4,0.8,24.4,6.9,24.4l17.7-7.5l41-2.9C305.8,215.5,304.7,210.8,303.6,206.1z"/>
	<path class="st9" d="M257.8,194.8c1.3-7.5,0.6-13.8-1.5-14.1c-2.1-0.3-4.8,5.4-6,12.9c-1.3,7.5-0.6,13.8,1.5,14.1
		C253.8,208.1,256.5,202.3,257.8,194.8z"/>
	<path class="st20" d="M244.7,176.3c1-1.8,2.1-3.6,3.2-5.2c11.3-16.3,21.9-20.7,32.1-20.7h12.7c0.2,0,0.4,0.1,0.5,0.1
		c0.2,0.1,0.3,0.2,0.4,0.4c0.1,0.2,0.2,0.3,0.2,0.5c0,0.2,0,0.4-0.1,0.6l-1.7,4.6c-19.5,0-26.4-0.6-42.6,16.4l-7.1,7.5L244.7,176.3z
		"/>
	<path class="st9" d="M306.8,220h-33.1c-7.4,0-16.5-0.4-25.6,10.4l1.1,4.7c5.3-5.1,10.2-7.3,20.8-7.3h38.4L306.8,220z"/>
	<path class="st18" d="M249.5,173.6c-6.7,1.2-12,4.7-15,10.9c-0.9,1.7-2.1,3.2-3.6,4.4l-18,13.1c-2,1.4-3.4,3.6-4,6
		c-0.5,2.4-0.1,5,1.2,7.1c0.9,1.5,2.1,2.7,3.6,3.6c1.5,0.9,3.2,1.3,5,1.3h7.5c15.6-8.7,22.8-14.6,26.5-18s7.8-9.5,7.1-16.5
		C259.1,178.5,257.1,172.2,249.5,173.6z"/>
	<path class="st32" d="M255.1,121.9c-2.4-4-5.6-9.3-6.8-11.8s-4.1-1.9,0,9.3c-10-3.8-12.1-2.4-12.6-1s1.7,2.1,5.9,4.5
		c4.2,2.4,8.7,5.3,8.7,5.3L255.1,121.9z"/>
	<path class="st9" d="M265.5,122.2c1.7-2.1,2.3-4.4,1.3-5.2s-2.1-0.4-3.6,1.6c-0.6,0.8-1.3,1.6-2.1,2.3c-1.7,1.6-1.3,2.8-0.5,3.5
		C261.4,125.1,263.8,124.3,265.5,122.2z"/>
	<path class="st24" d="M282.5,116c0,0-11.9-5.4-17-8.7c-5.1-3.3-7.7-8.2-5.4-9.5c2.3-1.3,6.7,1.8,9.8,5.8c-0.1-7.1,1.1-8.6,3-8.7
		s2.1,2.7,2.2,6.7s0.8,5.6,3.8,8.3C280.7,111.5,282,113.6,282.5,116z"/>
	<path class="st18" d="M238.8,149.2c-2.8,0-5.2-2.4-3-6.6c2.2-4.2,9.4-8.4,12.9-10c3.5-1.6,5.1,0,5.2,1.2s-0.4,3-2.9,6.2
		S243.9,149.2,238.8,149.2z"/>
	<path class="st7" d="M241,148.9l-1.7,0.3l-2.4-8.2l1.4-1.5L241,148.9z"/>
	<path class="st7" d="M247.2,144.5l-1.4,1.4l-2.8-10.1l1.5-1L247.2,144.5z"/>
	<path class="st7" d="M252.8,137.5l-1.3,1.8l-2-7l1.7-0.3L252.8,137.5z"/>
	<path class="st15" d="M250.6,131.1c1.9,0.9,3.8,1.7,5.7,2.3"/>
	<path class="st15" d="M248.1,242.5l11,13.4"/>
	<path class="st24" d="M256.7,238.5h-3.9l-1.2-5.5l-1.1-5.1c1-1,2.1-1.9,3.2-2.8l1.3,5.6L256.7,238.5z"/>
	<path class="st24" d="M274,233.2h-3.9l-1.2-5.4l-1.6-7.6h3.9l1.6,7.7L274,233.2z"/>
	<path class="st24" d="M305.9,233H302l-1.2-5.2l-1.6-7.8h3.9l1.6,7.8L305.9,233z"/>
	<path class="st18" d="M295.2,169.8c-1.9-1.5-4.3-2.4-6.7-2.5c-5.2,0-8.1,5.1-9.1,10c-0.2,0.8-0.6,1.5-1.2,2
		c-0.6,0.5-1.4,0.8-2.2,0.8h-0.7c-0.5-0.1-0.9-0.3-1.3-0.5c-0.4-0.3-0.7-0.6-1-1c-0.3-0.4-0.4-0.8-0.5-1.3c-0.1-0.5-0.1-0.9,0-1.4
		c1.9-9.5,8.1-15.6,15.9-15.6c1.3,0,2.5,0.5,3.5,1.3c1,0.8,1.7,1.9,2,3.2L295.2,169.8z"/>
	<path class="st23" d="M303.6,206.1c0.2,0.9,0.3,1.8,0.1,2.7c-0.1,0.9-0.5,1.8-1,2.6s-1.1,1.4-1.9,2c-0.8,0.5-1.6,0.9-2.5,1.1
		l-2.5,0.2c-5.7,0-11.6-3.4-16.2-9.3c-0.3-0.4-0.5-0.8-0.6-1.2c-0.1-0.4-0.1-0.9-0.1-1.4s0.2-0.9,0.5-1.3c0.2-0.4,0.5-0.7,0.9-1
		c0.4-0.3,0.8-0.5,1.2-0.6c0.4-0.1,0.9-0.1,1.4-0.1c0.5,0.1,0.9,0.2,1.3,0.5c0.4,0.2,0.7,0.6,1,0.9c3.2,4.1,7.1,6.6,10.6,6.6
		s5.6-2,7.1-4.6C303.1,204.2,303.4,205.2,303.6,206.1z"/>
	<path class="st2" d="M296.9,177.5c-0.7,0-1.4,0.2-2,0.6c-0.6,0.4-1,1-1.2,1.7l-4.2,11.3c-0.4,1.1-0.4,2.2,0,3.3
		c0.4,1.1,1.1,1.9,2.1,2.5c0.4,0.3,0.9,0.4,1.4,0.5c0.5,0.1,1,0,1.5-0.2c0.5-0.2,0.9-0.5,1.3-0.8c0.4-0.4,0.6-0.8,0.8-1.3l2.7-7.3
		C298.6,184.5,297.8,181.1,296.9,177.5z"/>
	<path class="st28" d="M291.6,196.9c-1-0.6-1.7-1.5-2.1-2.5c-0.4-1.1-0.4-2.2,0-3.3l1.2-3.1c0.2-0.5,0.5-1,0.9-1.4
		c0.4-0.4,0.9-0.7,1.4-0.9c0.5-0.2,1.1-0.3,1.7-0.2c0.6,0,1.1,0.2,1.6,0.5c0.8,0.5,1.5,1.2,1.8,2.1c0.3,0.9,0.3,1.9,0,2.8l-1.6,4.3
		c-0.2,0.5-0.4,0.9-0.8,1.3c-0.4,0.4-0.8,0.6-1.3,0.8c-0.5,0.2-1,0.2-1.5,0.2C292.5,197.3,292,197.2,291.6,196.9z"/>
	<path class="st35" d="M238.6,212.9c-3.2,2.2-6.8,3.8-10.6,4.7"/>
	<path class="st36" d="M277.3,359.4h-17.5c-10.7,0-20.6-8.6-22.1-19.2c-1.5-10.6,5.3-16.2,16.8-18.7l2-0.5c1.6-0.3,3-1.3,4-2.6
		c0.9-1.4,1.3-3,1.1-4.7c-0.2-1.6-0.9-3.1-2.1-4.2c-1.1-1.1-2.6-1.8-4.2-2l-2.9-0.3c-12.4-1.3-20.6-8.6-22.1-19.2
		s5.9-18.7,16.3-18.7h17.5c10.7,0,20.6,8.6,22.1,19.2l7.4,52.2C295,351,287.7,359.4,277.3,359.4z"/>
	<path class="st18" d="M297.6,359.4h-17.5c-10.7,0-20.6-8.6-22.1-19.2c-0.6-3.9,0.2-7.9,2.4-11.2s5.4-5.7,9.2-6.8
		c1.4-0.4,2.6-1.3,3.4-2.5c0.8-1.2,1.1-2.7,0.9-4.1l-0.5-3.8c-0.2-1.2-0.7-2.3-1.6-3.2c-0.8-0.9-1.9-1.5-3.1-1.8
		c-9.1-1.9-16.8-9.6-18.1-18.8c-1.3-9.2,5.9-18.7,16.3-18.7h17.5c10.7,0,20.6,8.6,22.1,19.2l7.4,52.2
		C315.3,351,308,359.4,297.6,359.4z"/>
	<path class="st32" d="M293.2,286.9c0.1,0.5,0,1-0.1,1.5c-0.1,0.5-0.4,0.9-0.7,1.3c-0.3,0.4-0.7,0.7-1.2,0.9c-0.5,0.2-1,0.3-1.5,0.3
		h-18.4c-1.1,0-2.2-0.4-3-1.2s-1.4-1.7-1.6-2.8v-0.6c-0.1-0.5-0.1-1,0.1-1.5c0.1-0.5,0.4-0.9,0.7-1.3s0.7-0.7,1.2-0.9
		c0.5-0.2,1-0.3,1.5-0.3h18.5c1.1,0,2.2,0.4,3,1.1c0.8,0.7,1.4,1.7,1.6,2.8V286.9z"/>
	<path class="st32" d="M285.2,294.3c0.1,0.5,0.1,1-0.1,1.5c-0.1,0.5-0.4,0.9-0.7,1.3c-0.3,0.4-0.7,0.7-1.2,0.9s-1,0.3-1.5,0.3h-0.5
		c-1.1,0-2.2-0.4-3-1.2c-0.8-0.7-1.4-1.7-1.6-2.8l-2.2-15.4c-0.1-0.5,0-1,0.1-1.5c0.1-0.5,0.4-0.9,0.7-1.3c0.3-0.4,0.7-0.7,1.2-0.9
		c0.5-0.2,1-0.3,1.5-0.3h0.5c1.1,0,2.2,0.4,3,1.1c0.8,0.7,1.4,1.7,1.6,2.8L285.2,294.3z"/>
	<path class="st36" d="M287.5,317.5c0,0.2,0,0.4,0,0.6c-0.1,0.2-0.2,0.4-0.3,0.5c-0.1,0.2-0.3,0.3-0.5,0.4c-0.2,0.1-0.4,0.1-0.6,0.2
		h-0.3c-0.5,0-0.9-0.2-1.2-0.5c-0.3-0.3-0.6-0.7-0.7-1.2l-0.9-6.4c0-0.2,0-0.4,0-0.6c0.1-0.2,0.2-0.4,0.3-0.5
		c0.1-0.2,0.3-0.3,0.5-0.3c0.2-0.1,0.4-0.1,0.6-0.1h0.2c0.5,0,0.9,0.2,1.2,0.4c0.3,0.3,0.6,0.7,0.7,1.2L287.5,317.5z"/>
	<path class="st32" d="M287.1,337.7c-1.1,0-2.2-0.4-3-1.1c-0.8-0.7-1.4-1.7-1.6-2.8v-0.6c-0.1-0.5-0.1-1,0.1-1.5
		c0.1-0.5,0.4-0.9,0.7-1.3c0.3-0.4,0.7-0.7,1.2-0.9c0.5-0.2,1-0.3,1.5-0.3h0.5c1.1,0,2.1,0.4,3,1.1c0.8,0.7,1.4,1.6,1.6,2.7v0.7
		c0.1,0.5,0,1-0.1,1.5c-0.1,0.5-0.4,0.9-0.7,1.3c-0.3,0.4-0.7,0.7-1.2,0.9c-0.5,0.2-1,0.3-1.5,0.3H287.1z"/>
	<path class="st25" d="M289.7,352.6h-0.5c-1.1,0-2.2-0.4-3-1.1c-0.8-0.7-1.4-1.7-1.6-2.8v-0.9c0-0.5,0-1,0.2-1.4
		c0.2-0.5,0.4-0.9,0.7-1.2c0.3-0.3,0.7-0.6,1.2-0.8c0.4-0.2,0.9-0.3,1.4-0.3h0.5c1.1,0,2.1,0.4,3,1.1c0.8,0.7,1.4,1.6,1.6,2.7v0.7
		c0.1,0.5,0.1,1-0.1,1.5c-0.1,0.5-0.4,0.9-0.7,1.3c-0.3,0.4-0.8,0.7-1.2,0.9C290.7,352.5,290.2,352.6,289.7,352.6z"/>
	<path class="st2" d="M287.6,337.7h-0.5c-1.1,0-2.2-0.4-3-1.1c-0.8-0.7-1.4-1.7-1.6-2.8v-0.6c-0.1-0.5-0.1-1,0.1-1.5
		c0.1-0.5,0.4-0.9,0.7-1.3c0.3-0.4,0.7-0.7,1.2-0.9c0.5-0.2,1-0.3,1.5-0.3h0.5c1.1,0,2.1,0.4,3,1.1c0.8,0.7,1.4,1.6,1.6,2.7v0.7
		c0.1,0.5,0,1-0.1,1.5c-0.1,0.5-0.4,0.9-0.7,1.3c-0.3,0.4-0.7,0.7-1.2,0.9C288.6,337.6,288.1,337.7,287.6,337.7z"/>
	<path class="st32" d="M297.1,345.1c-1.1,0-2.2-0.4-3-1.1c-0.8-0.7-1.4-1.7-1.6-2.8v-0.6c-0.1-0.5-0.1-1,0.1-1.5
		c0.1-0.5,0.4-0.9,0.7-1.3c0.3-0.4,0.7-0.7,1.2-0.9c0.5-0.2,1-0.3,1.5-0.3h0.5c1.1,0,2.1,0.4,3,1.1c0.8,0.7,1.4,1.6,1.6,2.7v0.7
		c0.1,0.5,0.1,1-0.1,1.5s-0.4,0.9-0.7,1.3c-0.3,0.4-0.7,0.7-1.2,0.9c-0.5,0.2-1,0.3-1.5,0.3H297.1z"/>
	<path class="st2" d="M297.6,345.1h-0.5c-1.1,0-2.2-0.4-3-1.1c-0.8-0.7-1.4-1.7-1.6-2.8v-0.6c-0.1-0.5-0.1-1,0.1-1.5
		c0.1-0.5,0.4-0.9,0.7-1.3c0.3-0.4,0.7-0.7,1.2-0.9c0.5-0.2,1-0.3,1.5-0.3h0.5c1.1,0,2.1,0.4,3,1.1c0.8,0.7,1.4,1.6,1.6,2.7v0.7
		c0.1,0.5,0.1,1-0.1,1.5s-0.4,0.9-0.7,1.3c-0.3,0.4-0.7,0.7-1.2,0.9C298.6,345,298.1,345.1,297.6,345.1z"/>
	<path class="st25" d="M279.7,345.3h-0.6c-1.1,0-2.2-0.5-3-1.2c-0.8-0.7-1.4-1.7-1.5-2.8v-0.9c-0.1-0.5,0-1,0.1-1.4
		c0.1-0.5,0.4-0.9,0.7-1.2c0.3-0.4,0.7-0.6,1.2-0.8c0.4-0.2,0.9-0.3,1.4-0.3h0.6c1.1,0,2.1,0.5,2.9,1.2c0.8,0.7,1.4,1.7,1.6,2.7v0.6
		c0.1,0.5,0.1,1,0,1.5c-0.1,0.5-0.4,1-0.7,1.4c-0.3,0.4-0.7,0.7-1.2,0.9C280.7,345.2,280.2,345.3,279.7,345.3z"/>
	<path class="st6" d="M117.4,339.4l-9.7-5.4c7.6-12.5,16-24.6,25.1-36.1c-17.9,6.5-36.7,14.6-57.5,14.6H40.5
		c-2.1-4.3-2.7-8.7-2.7-15.3l42.5-15.5l16.1,3.3l0.5,4.6c15.4-3.9,31.3-8.4,42.8-11.1c14.5-3.4,19.4,3.9,11,16.1
		C134.5,318.2,117.4,339.4,117.4,339.4z"/>
	<path class="st37" d="M50.1,293.2c0,8.5,0,14.5,4.1,17.9c1,0.9,2.3,1.4,3.6,1.4H62c-10.2-1.7-10.2-7.2-10.1-19.3v-0.8
		c0-0.1-0.1-0.2-0.1-0.3l-1.7,0.6V293.2z"/>
	<path class="st38" d="M117.4,334.9c15.6-20.6,25.6-34.9,29.8-41.6c4.2-6.7,5.6-10.9-15.6-3.7c-21.2,7.2-37.3,13.7-42,11.9
		s-3-6.6-2.7-15.1"/>
	<path class="st28" d="M55,237.8c-7.2-11-13.1-22.8-17.6-35.2c-0.6-2.1-0.8-4.2-0.4-6.4c0.4-2.1,1.2-4.1,2.5-5.8
		c7.3-8.8,16.9-13.5,29.7-15.7c1.4-0.2,2.8,0.2,3.9,1.1c15.2,13.3,19.7,28.3,22.3,42.9c0.1,0.8-0.1,1.7-0.4,2.5
		c-0.3,0.8-0.9,1.4-1.6,1.9c-7.5,4.6-11.5,6-11.5,6l1.5,11.1L55,237.8z"/>
	<path class="st28" d="M69.5,200.5c7.5,0.7,14.9,1.8,22.3,3.4l4.1,1.1c0.2,0,0.3,0.1,0.4,0.2c0.1,0.1,0.2,0.2,0.2,0.4
		c0,0.2,0,0.3,0,0.5c0,0.2-0.1,0.3-0.2,0.4l-0.9,0.8l1.6,6.2c0.5,1.9,0.4,3.9-0.4,5.7s-2.1,3.3-3.8,4.3l-3.7,2.1L69.5,200.5z"/>
	<path class="st25" d="M72.7,207.9c1.9-1.3,1.5-5.2-0.8-8.6c-2.4-3.4-5.8-5.1-7.7-3.7c-1.9,1.3-1.5,5.2,0.8,8.6
		C67.3,207.5,70.8,209.2,72.7,207.9z"/>
	<path class="st9" d="M84.5,194c-1.2-1.1-2.5-1.4-3-0.9s-0.2,1.3,0.9,2.1l1.3,1.3c0.9,1,1.6,0.8,2,0.3S85.7,195,84.5,194z"/>
	<path class="st28" d="M44.8,185.1c-1.6-16.1,0-21.5,3.4-26.2c3.4-4.7,5.4-3.3,4.8,2.9c-0.4,4.9-0.3,9.7,0.1,14.6
		c3-7.6,7.3-14.6,12.7-20.6c1.6-2,3.8-3.4,6.2-4.1c2.4-0.6,3.7,0.8,3,3.1c-1.2,3.9-4.1,10.1-11.9,21.2l0.8,4.4L44.8,185.1z"/>
	<path class="st23" d="M91.5,247.3c8.5,2.9,2.5,29.5,2.5,29.5l1.2,0.9c1,0.8,1.7,1.8,2,3c0.3,1.2,0.2,2.5-0.4,3.6l-0.4,0.7
		c-5.9,0-9.8,0.5-17.8,6.2c-8,5.7-13.1,6-21.3,6H37.8v-6.6c-7.3-2.9-7.9-6.4-5.1-10.9c1.5-2.6,3.9-6.2,5.7-8.9
		c0.7-1,1.2-2.2,1.4-3.4c0.2-1.2,0.2-2.5,0-3.7c-1.6-8.6-0.3-13.7-0.3-13.7l21.2-5.7l26.9-1.1L91.5,247.3z"/>
	<path class="st9" d="M90.9,271.8c2.6-0.7,3.5-5.7,2-11.2c-1.5-5.5-4.7-9.4-7.3-8.7s-3.5,5.7-2,11.2
		C85.1,268.6,88.3,272.5,90.9,271.8z"/>
	<path class="st18" d="M103.9,334.6c2.4-2.5,7.6-6.7,7.6-6.7c3.3,0,8.3,0.6,10.5,9.7l2.7,10.7c10.3,1.9,10.4,4.8,9,8.6v1.7
		c0,0.2-0.1,0.4-0.2,0.6c-0.2,0.2-0.4,0.2-0.6,0.2h-17.2L103.9,334.6z"/>
	<path class="st25" d="M132.9,359.4c0.2,0,0.4-0.1,0.6-0.2c0.1-0.1,0.2-0.4,0.2-0.6v-1.7c-6.8,0-11.8,0.7-14.3-3.7
		c-2.7-5.3-5.1-10.8-7.1-16.4c-0.9-2.6-2.8-5.7-5.7-4.8l-2.7,2.6l11.8,24.8H132.9z"/>
	<path class="st9" d="M125.6,359.4c-1.8,0-3.6-0.4-5.2-1.3c-1.6-0.9-2.9-2.1-3.9-3.6c-3.7-5.6-6-12.3-7.4-16.4s-5.9-5.7-6.3-0.5
		c-0.4,5.2,2.3,9.2,6.5,19.6c0.2,0.7,0.7,1.2,1.2,1.6c0.6,0.4,1.3,0.6,2,0.6H125.6z"/>
	<path class="st28" d="M91.5,247.3l15.8,5.4c1.6-22.1,8.3-28.4,16.1-46c5.6-12.5,8.2-18.2,9.3-20.4c0.2-0.4,0.4-0.7,0.8-0.9
		c0.3-0.2,0.7-0.3,1.1-0.3h0.6c0.3,0,0.6,0.1,0.9,0.2c0.3,0.1,0.5,0.3,0.7,0.5s0.4,0.5,0.5,0.8c0.1,0.3,0.1,0.6,0.1,0.9
		c-1,5.9-2.6,11.7-4.7,17.3c4.7-3.2,6.8-3.2,9,0.1c5.4-2.8,7.4-2.9,9.3,1.3s1.6,5,0.6,8.4c-1,3.4-2.5,3.7-4.8,3.7
		c0,23.2-1.5,31.9-12.4,47.5c-9.7,13.9-10.2,12.2-23.4,8c-7.6-2.4-15.1-5.1-20-7c-2.8-1-5.2-3-6.7-5.6c-1.5-2.6-2.1-5.7-1.6-8.7
		C83.6,248.3,86.4,245.6,91.5,247.3z"/>
	<path class="st18" d="M91.5,247.3c0.5-0.6,1-1.3,1.5-2c0.3-0.4,0.5-0.8,0.5-1.2c0.1-0.4,0.1-0.9,0-1.4c-0.1-0.4-0.3-0.9-0.6-1.2
		c-0.3-0.4-0.6-0.7-1-0.9c-27.3-15-36.9-16.8-51.9-16.8c-9.7,0-9.2,2.5-8.3,7.1c-6.9,6.4-6.8,8.6-2,14.9s6.3,8.8,10.8,8.8
		s15,0.1,24.2-4.6S78.3,242.9,91.5,247.3z"/>
	<path class="st9" d="M91.1,202c-11.1-1.9-22.4-3.1-22.5-3.1c-0.1,0-0.2,0-0.3,0c-0.1,0-0.2,0.1-0.3,0.2c-0.1,0.1-0.2,0.2-0.2,0.3
		c0,0.1-0.1,0.2-0.1,0.3c0,0.2,0,0.5,0.2,0.6c0.1,0.2,0.3,0.3,0.5,0.4c0.2,0,12,1.2,23.4,3.2C91.6,203.3,91.4,202.7,91.1,202z"/>
	<path class="st15" d="M68.8,198.4c-0.6,0.9-1.1,1.8-1.6,2.7"/>
	<path class="st15" d="M107.3,252.7l6.6,1.9"/>
	<path class="st39" d="M50.4,183.7c-0.1,0.4-0.2,0.7-0.4,1.1c-0.1,0.2-0.2,0.3-0.3,0.4c-0.1,0.1-0.3,0.2-0.5,0.2h-0.3
		c-0.1,0-0.2-0.1-0.3-0.2c-0.1-0.1-0.2-0.2-0.2-0.3c0-0.1-0.1-0.2-0.1-0.3c0-0.1,0-0.2,0.1-0.3c0.1-0.3,2.2-6.5,4.1-10.9
		c0.1-0.2,0.2-0.3,0.4-0.4c0,1.2,0.1,2.3,0.2,3.5C53.2,177.7,51,181.9,50.4,183.7z"/>
	<path class="st5" d="M143.8,248c0.4-1.1,0.5-2.2,0.3-3.3c-0.2-1.1-0.6-2.2-1.2-3.1c-0.4-0.5-0.9-1-1.5-1.4c-1.2-0.7-2.7-1.1-4.1-1
		c-1.4,0.1-2.8,0.5-4,1.3c0.6-3.4,1.4-9.6,0.8-14.3c-0.6-4.7-2.4-4.1-3.5-4.3c-3.2-0.6-7.6,2.8-11.5,8.9c-0.7-3.3-1.7-4.9-3.3-5.3
		c-0.4-0.1-0.9,0-1.3,0.2c-0.4,0.2-0.7,0.5-0.9,0.9l-1.5,3.6c2-3,3.1-3,3.4-3s1.6,0.8,2.3,6.2c0,0.2,0.1,0.3,0.2,0.5
		s0.3,0.2,0.5,0.2c0.2,0,0.4,0,0.6-0.1c0.2-0.1,0.3-0.2,0.4-0.3c4.1-7.5,8.5-10.5,10.8-10.1c2.3,0.4,1.9,1.7,2,2.9
		c0.9,6.1-1.1,15.8-1.1,15.9c0,0.2,0,0.4,0.1,0.5c0.1,0.2,0.2,0.3,0.3,0.4c0.2,0.1,0.4,0.1,0.6,0.1c0.2,0,0.4-0.1,0.5-0.2
		c2.2-2.3,5.6-2.9,7.7-1.5c2.1,1.4,3.1,6.5,0.8,12.8C142.3,252.4,143.1,250.2,143.8,248z"/>
	<path class="st40" d="M127.2,207.1c3.4-1.9,4.6-3,7.6,0c4-2.1,4.8-2.1,7,1.1"/>
	<path class="st9" d="M148.6,217.9c-0.1-2.8-0.4-7.1-0.5-7.2c0-0.1,0-0.2-0.1-0.3c0-0.1-0.1-0.2-0.2-0.3c-0.1-0.1-0.2-0.1-0.3-0.2
		c-0.1,0-0.2,0-0.3,0c-0.1,0-0.2,0-0.3,0.1c-0.1,0-0.2,0.1-0.3,0.2c-0.1,0.1-0.1,0.2-0.2,0.3c0,0.1,0,0.2,0,0.3
		c0,0.1,0.4,4.4,0.4,7.2c0,0.1,0,0.1,0,0.2c0,0.1,0,0.1,0.1,0.1h1.6L148.6,217.9z"/>
	<path class="st9" d="M149.7,214.5h-2.2c-0.1,0-0.2,0-0.3-0.1c-0.1,0-0.2-0.1-0.3-0.2c-0.1-0.1-0.1-0.2-0.2-0.3
		c0-0.1-0.1-0.2-0.1-0.3c0-0.2,0.1-0.4,0.3-0.6c0.2-0.1,0.4-0.2,0.6-0.2h2.2c0.2,0,0.4,0.1,0.6,0.2c0.2,0.1,0.3,0.4,0.3,0.6
		c0,0.1,0,0.2-0.1,0.3c0,0.1-0.1,0.2-0.2,0.3c-0.1,0.1-0.2,0.2-0.3,0.2C149.9,214.5,149.8,214.5,149.7,214.5z"/>
	<path class="st40" d="M118.5,272.4c2.1-0.1,4.2-0.3,6.3-0.6"/>
	<path class="st9" d="M54.5,294.2c-11.4-1.4-16.5-3.5-16.6-3.5h-0.1v1.8c1.7,0.6,6.8,2.2,16.5,3.5h0.1c0.2,0,0.4-0.1,0.6-0.2
		c0.2-0.1,0.3-0.4,0.3-0.6c0-0.1,0-0.2,0-0.4c0-0.1-0.1-0.2-0.2-0.3c-0.1-0.1-0.2-0.2-0.3-0.2C54.7,294.2,54.6,294.2,54.5,294.2z"/>
	<path class="st15" d="M96.9,289.6c-2.6,0.8-4.9,2.3-6.7,4.2"/>
	<path class="st15" d="M133.7,297.9c4-1.8,8-3.9,11.7-6.2"/>
	<path class="st15" d="M135.7,297l5.3,0.2"/>
	<path class="st41" d="M32.6,230.4c16.6-1.6,28.4,2.2,44.7,9.5c-16.3-1.1-35.5-1.7-35.5-1.7"/>
	<path class="st7" d="M28.1,312.5h66.6c1,0,1.9,0.4,2.5,1.1c0.7,0.7,1.1,1.6,1.1,2.5v43.3H24.5v-43.3c0-1,0.4-1.9,1.1-2.5
		C26.2,312.9,27.1,312.5,28.1,312.5z"/>
	<path class="st29" d="M91.7,312.5h3c1,0,1.9,0.4,2.5,1.1c0.7,0.7,1.1,1.6,1.1,2.5v43.3H88.1v-43.3c0-0.5,0.1-0.9,0.3-1.4
		c0.2-0.4,0.4-0.8,0.8-1.2c0.3-0.3,0.7-0.6,1.2-0.8C90.8,312.6,91.2,312.5,91.7,312.5z"/>
	<path class="st29" d="M34.3,345.6h44c0.8,0,1.6,0.3,2.1,0.9c0.6,0.6,0.9,1.3,0.9,2.1v10.8H31.4v-10.8c0-0.8,0.3-1.5,0.8-2.1
		C32.8,346,33.5,345.6,34.3,345.6z"/>
	<path class="st42" d="M36.3,312.5v46.9"/>
	<path class="st42" d="M76.2,312.5v46.9"/>
	<path class="st9" d="M78.7,316.1H33.8c-1.4,0-2.5,1.1-2.5,2.5v16c0,1.4,1.1,2.5,2.5,2.5h44.9c1.4,0,2.5-1.1,2.5-2.5v-16
		C81.2,317.2,80.1,316.1,78.7,316.1z"/>
	<path class="st2" d="M87.2,319.5c-0.1,0-0.3,0-0.4,0c-0.1,0-0.2,0.1-0.3,0.2c-0.1,0.1-0.2,0.2-0.2,0.3c0,0.1-0.1,0.3,0,0.4
		c0,0.3,0.1,0.5,0.3,0.7c0.2,0.2,0.4,0.3,0.7,0.3h11.1v-2H87.2z"/>
	<path class="st2" d="M86.2,324.8c0,0.1,0,0.3,0,0.4c0,0.1,0.1,0.2,0.2,0.3c0.1,0.1,0.2,0.2,0.3,0.2c0.1,0,0.3,0.1,0.4,0h11.1v-2
		H87.2c-0.3,0-0.5,0.1-0.7,0.3C86.3,324.3,86.2,324.5,86.2,324.8z"/>
	<path class="st2" d="M86.2,329.2c0,0.3,0.1,0.5,0.3,0.7c0.2,0.2,0.4,0.3,0.7,0.3h11.1v-2H87.2c-0.1,0-0.3,0-0.4,0
		c-0.1,0-0.2,0.1-0.3,0.2c-0.1,0.1-0.2,0.2-0.2,0.3C86.2,328.9,86.2,329.1,86.2,329.2z"/>
	<path class="st2" d="M26.3,320.5c0,0.3-0.1,0.5-0.3,0.7c-0.2,0.2-0.4,0.3-0.7,0.3h-0.8v-2h0.8c0.3,0,0.5,0.1,0.7,0.3
		C26.2,320,26.3,320.2,26.3,320.5z"/>
	<path class="st2" d="M26.3,324.8c0,0.3-0.1,0.5-0.3,0.7c-0.2,0.2-0.4,0.3-0.7,0.3h-0.8v-2h0.8c0.3,0,0.5,0.1,0.7,0.3
		C26.2,324.3,26.3,324.5,26.3,324.8z"/>
	<path class="st2" d="M26.3,329.2c0,0.3-0.1,0.5-0.3,0.7c-0.2,0.2-0.4,0.3-0.7,0.3h-0.8v-2h0.8c0.3,0,0.5,0.1,0.7,0.3
		C26.2,328.7,26.3,328.9,26.3,329.2z"/>
	<path class="st5" d="M65.9,317.6H36.6c-0.7,0-1.3,0.6-1.3,1.3v13.9c0,0.7,0.6,1.3,1.3,1.3h29.3c0.7,0,1.3-0.6,1.3-1.3v-13.9
		C67.2,318.2,66.6,317.6,65.9,317.6z"/>
	<path class="st25" d="M78.3,334.1h-8c-0.5,0-0.9,0.4-0.9,0.9v1.2c0,0.5,0.4,0.9,0.9,0.9h8c0.5,0,0.9-0.4,0.9-0.9V335
		C79.2,334.5,78.8,334.1,78.3,334.1z"/>
	<path class="st6" d="M47.1,319.5c0,2.4,1,4.8,2.7,6.5c1.7,1.7,4.1,2.7,6.5,2.7c2.4,0,4.8-1,6.5-2.7c1.7-1.7,2.7-4.1,2.7-6.5
		c0-0.6-0.1-1.3-0.2-1.9h-18C47.1,318.2,47.1,318.9,47.1,319.5z"/>
	<path class="st6" d="M38,334.1h15c-0.9-1.2-2-2.2-3.3-2.8c-1.3-0.7-2.8-1-4.2-1s-2.9,0.4-4.2,1C40,331.9,38.9,332.9,38,334.1z"/>
</g>
<g id="Layer_2_copy">
	<g>
		<g>
			<defs>
				<rect id="SVGID_1_" x="371" y="-98.4" width="491.5" height="485.9"/>
			</defs>
			<clipPath id="SVGID_00000054984434397605569160000013598934223172660892_">
				<use xlink:href="#SVGID_1_"  style="overflow:visible;"/>
			</clipPath>
			<g style="clip-path:url(#SVGID_00000054984434397605569160000013598934223172660892_);">
				<path class="st44" d="M752.5,362L752.5,362l0.9-2.2h0.1l2.1-0.9l-2.1-0.9h-0.1l-0.9-2.2h-0.1l-0.9,2.2l-2.2,0.9l2.2,0.9
					L752.5,362z"/>
				<path class="st45" d="M472.8,91.2l0.7-1.5h0.1l1.5-0.7l-1.5-0.7h-0.1l-0.7-1.5l-0.7,1.5l-1.5,0.7l1.5,0.7L472.8,91.2z"/>
				<path class="st46" d="M416,164.5l-40.1-1.6c0.5-5.9,6.1-9.8,11.5-9.9c0.4-7.8,2.4-12.4,7.9-12.3c0,0,0.5-9,5.4-8.7
					c4.9,0.3,6.9,4.9,7,18.7c2.9-0.8,10,2,10,10.2L416,164.5z"/>
				<path class="st47" d="M404.7,152.9c0,0-0.9,5.3-1.1,9.1h-1.3c0.3-3.2,0.9-6.5,2-9.5L404.7,152.9z"/>
				<path class="st48" d="M401.3,154.8c-0.3,0.5-0.4,1.2-0.4,1.8l3.3-2.2l4.1,2.4c0-0.7-0.3-1.3-0.5-1.8c-0.3-0.5-0.8-1.1-1.3-1.6
					c1.3,0,2.8,0.1,4.1,0.4c-0.3-0.5-0.7-0.9-1.1-1.3c-0.4-0.4-0.9-0.7-1.5-0.8s-1.1-0.1-1.7-0.1c-0.5,0.1-1.1,0.3-1.6,0.5
					c0-0.5-0.1-0.9-0.4-1.5c-0.3-0.4-0.5-0.8-0.9-1.1c-0.4-0.3-0.9-0.5-1.3-0.5c-0.5-0.1-0.9,0-1.5,0c0.9,0.9,1.7,1.8,2.4,2.9
					c-2.1-0.4-3.6-0.4-4.6,0.8l4.4,0.9C402.2,153.9,401.7,154.3,401.3,154.8z"/>
				<path class="st49" d="M384.1,162.1c0-1.2,0.4-2.4,1.2-3.2c1.2-1.2,3.7,0,4.2,3.2H384.1z"/>
				<path class="st50" d="M382.4,162.4c0.7-2,3.3-1.6,4-0.3C386.3,162.1,381.7,164.3,382.4,162.4z"/>
				<path class="st49" d="M405.8,162.1c0,0,0-1.1-1.2-2.6c-1.2-1.5-3-0.4-3.3,2.2L405.8,162.1z"/>
				<path class="st51" d="M477.8,221.8c0,0-1.5-16.6,4.8-16.6c6.2,0,9.5,5.1,9.5,15.4L477.8,221.8z"/>
				<path class="st52" d="M415.3,161.4c16.5-0.5,49.6,1.5,56.8,1.7l9.6,0.8c0.7,0,1.3,0.3,1.8,0.8s0.8,1.2,0.8,1.8
					c-0.3,2.6-0.7,7-0.7,9.5c2.1,9,3.2,39.7,3.2,39.7s7.8,25.3,10.8,41.9l-112.4,1.1v-96.6L415.3,161.4z"/>
				<path class="st53" d="M427.8,169.9l5.4,5.1l0.1,6.3l1.5,8.1l-3.7-3.7l-4.1-6.5l-2.9-10.6L427.8,169.9z"/>
				<path class="st54" d="M371,258.9h22.8l57.3-13.7l-1.5-25.6l-22-27.2c-0.9-5.7-7.5-30.6-7.5-30.8h-4.8
					c-16.4,0.5-44.2,0.9-44.2,0.9v96.4H371z"/>
				<path class="st55" d="M407.6,260.1H371v-50.4c0-9,3-15.3,9.1-14.9s13.5,4.9,13.7,21.1c7.8,1.3,12.8,13.6,13.7,29.7V260.1z"/>
				<path class="st56" d="M455.8,165.4l-0.3-3l-5.9-0.3l0.4,6.3l-3.3,20.6c1.1,2.6,4.2,14,4.2,14l5.4,23.2h11.8l-3.3-20.7l-4.8-17.7
					l1.3-19.5L455.8,165.4z"/>
				<path class="st56" d="M472.2,163.2l1.6,11l4.6,23.8v27.3h3.7v-26.9l-2.6-23.2v-11.6L472.2,163.2z"/>
				<path class="st47" d="M413.4,230.1c0,0,0.4,9.9,1.3,16.6l-2.1,0.7c-0.7-5.8-0.8-11.8-0.3-17.7L413.4,230.1z"/>
				<path class="st46" d="M408.1,234.8c-0.4,1.1-0.4,2.2,0,3.4l5-5.3l8.1,2.6c-0.9-2.2-0.9-2.9-4.5-5.3c2.4-0.7,4.9-0.9,7.3-0.9
					c-2.5-3.3-7.3-3.6-10.7-0.8c-0.9-3.2-5.3-5.7-8.7-3.7c1.8,1.3,3.7,2.8,5.3,4.4c-3.7,0.3-6.6,0.8-7.8,2.9h8.2
					C409.3,232.7,408.5,233.7,408.1,234.8z"/>
				<path class="st51" d="M471,234.2c-1.1-2-2.4-3.7-4.1-5.1c2.9-1.2,5.1,3.2,5.1,3.2c1.1-0.3,2.2-0.1,3.3,0.4s1.8,1.3,2.4,2.4
					L471,234.2z"/>
				<path class="st57" d="M491.4,252.1l-2.8,0.8c0,0-1.3-12.7,0-22.8l1.3,0.5"/>
				<path class="st58" d="M470.8,267.2l-22.4-1.3c0,0-0.3-9.5,0-14.7c0.3-5.1,3-7.4,6.7-7.4c-0.4-4.6,0.9-11.9,7.1-11.5
					c6.2,0.4,8.6,5.8,8.6,17.4V267.2z"/>
				<path class="st53" d="M453.3,208.7c0,0-1.1,31.8,0.5,52.9l-6.5,1.2c0,0-1.5-30.1,3.2-53.5L453.3,208.7z"/>
				<path class="st59" d="M463.8,228.1l-12.4-15.8l-13.7,12.8c-2.6-8.3,0.3-13.2,8.2-18.9c-6.2-1.5-12.4-2.4-18.7-2.6
					c10.4-7,15.8-7.4,22.2-4.2c7.1-6.9,15.7-7.5,21-5.8c0,0-8.6,4.8-12.1,7.9c10,2.2,14,5.1,16.6,12l-16.4-5
					C464.6,216.1,463.8,228.1,463.8,228.1z"/>
				<path class="st53" d="M411.8,167.5h-2.9v12.7c3.7,1.6,11.5,10.4,11.5,10.4l-2.2-10.3l-5.1-7.3L411.8,167.5z"/>
				<path class="st60" d="M411.8,157.6L411.8,157.6l1.2-2.3l2.4-1l-2.4-1l-1.1-2.3c0-0.1,0-0.1-0.1,0l-1,2.3l-2.4,1l2.4,1
					L411.8,157.6z"/>
				<path class="st61" d="M393.6,124.5l0.8,1.7l0.9-1.7l1.7-0.8l-1.7-0.8l-0.9-1.7l-0.8,1.7l-1.7,0.8c-0.1,0.1-0.1,0.1,0,0.1
					L393.6,124.5L393.6,124.5z"/>
				<path class="st60" d="M470.7,115.2L470.7,115.2l1.3-2.8l2.8-1.2l-2.8-1.2l-1.2-2.8h-0.1l-1.2,2.8l-2.8,1.2l2.8,1.2L470.7,115.2z
					"/>
				<path class="st62" d="M397.7,262.3H373c0.4-5.3,2-7.8,4.1-8.2c0-3.8,0-15.6,5.5-18.1c5.5-2.6,14.4,0.9,14.9,14.1
					C397.8,257.9,397.7,262.3,397.7,262.3z"/>
				<path class="st56" d="M442.1,178.1v8.3l1.2,3l0.3-2.4l1.2-7.1L442.1,178.1z"/>
				<path class="st56" d="M437.3,176.6v2.9l1.8,1.8v-3.7L437.3,176.6z"/>
				<path class="st63" d="M424,168.4v-0.1c0-0.1,0-0.1,0.1-0.1h0.1c3.6-1.6,8.1,2,10.4,2.8c2.4,0.8,8.7,4.6,10.2,9.1
					c-2.2-0.7-14.3-5-14.3-5l-6.5-6.3C424,168.6,424,168.4,424,168.4z"/>
				<path class="st46" d="M435.1,171.9l-5.3-0.9l3.4,1.3L435.1,171.9z"/>
				<path class="st46" d="M433.2,172.4l1.1-3.2c0,0-0.3-3.8,0.9-4.6c1.1-0.9,2.5-0.5,2.6,3c1.6,0.5,1.3,3.4,1.3,6.7L433.2,172.4z"/>
				<path class="st64" d="M401.5,263.8c24.6-0.9,47.1-2,72.5,0.1c7,0.5,14.3-1.8,21.4-2.1c39.5-0.7,113.5,1.5,153.9,10.8
					c26,7.4,41.5,13.5,50.4,21.9h0.1c0,0,0,0,0,0.1c0,0,0,0,0.1,0c4.8,4.6,7.8,10.6,8.8,17c0.9,6.3,1.2,12.7,0.8,19
					c0,1.3-0.1,2.8-0.3,4.2c-0.1,1.3-0.1,2.9-0.3,4.1c-0.1,1.1-0.4,2.9-0.4,3.7c0,0.8-0.1,1.6-0.1,2.5c-0.1,0.8-0.3,1.7-0.3,2.6
					c-0.4,4.2-0.9,8.7-1.3,13.3c-0.3,1.8-0.5,4.6-0.7,5.4c-0.1,0.9,0,0.9-0.3,2.8s-0.5,3.7-0.7,5.5c-0.5,4.2-1.1,8.4-1.6,12.8H371
					v-125C381.7,262.6,391.8,263.8,401.5,263.8z"/>
				<path class="st65" d="M516.3,292.1l35.3,2.2c3.6,17.2,0.7,30.6,0.5,34.2c-0.3,5.7-0.3,11.4,0.1,17c0.5,4.8,12.3,26,12,30.1
					c-0.1,4,0,7.9,0.4,11.9h-11.8c-0.4-3.3-1.3-15.8-1.7-17c-0.4-1.1-19.3-16-22.6-23.1c-3.2-6.2-4.9-13.2-4.8-20.2
					c-0.1-5.3-0.7-10.4-1.5-15.7L516.3,292.1z"/>
				<path class="st66" d="M467.1,285.7l4.9,18.5c1.1,4.6,1.2,6.2,4,8.3c2.8,2.2,8.7,9.5,11.8,12.3c3,2.8,3.2,4.6,3.2,7.3
					c0,2.6,2.2,9.6,2.9,14.9c0.8,5.3,4.8,21.7,4.8,21.7l-21.5-8.1c0,0-6.2-26.5-6.5-30.9c-0.3-4.5-1.2-4.6-3.3-7.7
					c-2.1-3-8.2-8.2-8.2-10.6c0-2.5-1.3-9.9-4.5-21.1L467.1,285.7z"/>
				<path class="st54" d="M595.9,342.6c0,0-0.5,8.6-0.3,11.9c0.3,3.2,0.9,4.5-0.9,6.9c-1.8,2.5-7.7,5.8-13.6,10.4s-5.7,2.8-6.1,0
					c-0.7-3.4-1.6-6.9-2.9-10.2c-1.1-3.3-4.9-10.8-4.9-10.8s-0.9-10.3-0.9-16.5L595.9,342.6z"/>
				<path class="st67" d="M438.1,285.1l0.7,4.5l9.5,68.1l-19,17.8l-0.3,11.9h-58V278.4l45.5,4.6L438.1,285.1z"/>
				<path class="st54" d="M399,296.6c0.8,0.7,1.6,1.3,2,2.2c0.5,0.9,0.8,1.8,0.9,2.9c0.1,1.1,0,2-0.3,3c-4.8,14-8.8,21.4-12,27.7
					c-3,6.3-4.4,4.6-15.6,9.5l-3,1.3v-52.9l25.2,5C397.3,295.6,398.2,296,399,296.6z"/>
				<path class="st68" d="M604.8,309.4v-1.1l-4.1-23.5l98.8,9.6c4.1,4,7,9,8.3,14.5c1.6,6.1,1.8,13.1,1.3,21.7
					c-0.7,14.1-3,36-5.5,56.8h-83.7v-0.5c-0.5-13.9-2.9-17.7-4.1-20.2s-8.1-8.6-8.3-11.4c-0.3-2.8,0-8.1-0.7-14.9
					c-0.1-1.1-8.7-6.1-8.7-7.1C598.5,327.1,603.4,315.9,604.8,309.4z"/>
				<path class="st64" d="M602.6,316.7c1.2,6.9,3,13.3,6.5,14.8c7.5,3.2,5.8-8.2,6.3-30.9l-12.3-1.8l1.7,9.6v1.1
					C604.2,311.9,603.5,314.3,602.6,316.7z"/>
				<path class="st69" d="M664.9,332.1c0.8-4.8,1.3-9.6,1.5-14.4c0-2.9,0.9-12,0.9-12h1.6c0.7,7.4,0.8,16,0.8,19.1
					c0,3-1.5,8.2-2.1,10.4l1.2,9.8c0,0-0.1,9.9-0.3,11.5c-0.1,4.2-0.4,8.4,0,9c0.4,0.5,4.8,5.3,6.7,8.1c2,2.8,1.7,4.2,1.7,5.1
					s0.5,4.8,0.9,8.7h-3.3c-0.8-4.4-1.3-7.8-1.8-10.2c-0.5-2.5-5.8-8.7-6.5-9.8c-0.7-1.1-0.8-5.5-0.9-9.8c0,0-0.8-4.2-0.8-4.6v-6.7
					l-1.3-6.5C663.3,338.1,664.3,336.4,664.9,332.1z"/>
				<path class="st69" d="M651.2,380.7c5.9-6.7,12.7-2.9,14.4-1.7c1.7,1.2,2.9,4.9,4,8.4h-23.4C647.6,385.1,649.3,382.7,651.2,380.7
					z"/>
				<path class="st70" d="M621.7,359.5c0,0-2.4,7.3-2.1,8.6c0.3,1.3-0.1,1.8,0.7,3.7c1.6,3.3,3.6,6.3,5.5,9.4
					c1.6,2.6,1.8,3.8,1.8,2.8c0-1.1-0.4-4.8-0.8-8.2c-0.3-2.8-0.3-5.5-0.1-8.3c0.1-2.1,0.1-4.4,0-6.5L621.7,359.5z"/>
				<path class="st70" d="M684.1,357.2c0-0.1,0-0.3,0.1-0.4c0.1-0.1,0.1-0.3,0.3-0.3s0.3-0.1,0.4-0.1s0.3,0,0.4,0.1
					c1.6,0.9,3.6,2,4.1,4.4c0.5,2.4,0,7.4,0,9.6v16.9h-2.9c-0.1-0.7-0.3-1.5-0.3-2.1c-0.5-5.5-2-10-2.1-11.8
					C683.9,372,684.1,362.8,684.1,357.2z"/>
				<path class="st69" d="M616.6,299.1c0,0,4.4,13.5,4.8,14.5c0.5,1.1,4.8,8.6,6.3,11.9c1.6,3.2,3.2,7.9,5.1,7.8
					c2-0.1,9.2-3.2,15.1-5.5c5.8-2.4,12.9-4.9,13.2-6.6c0.3-1.7,0.9-3.8,3.2-17.6L616.6,299.1z"/>
				<path class="st64" d="M627.2,303c0,0,0.5,22.8,7.5,25.2c7,2.5,5.4-6.3,5.8-23.6L627.2,303z"/>
				<path class="st71" d="M660.6,303.2h-25.6c0.9,1.1,2,1.8,3.2,2.5c1.7,0.5,3,2.4,5.4,2.8s4.9,0.5,7.3,0.5c2.2-0.4,4.6-0.8,6.9-0.9
					c0.4,0,0.8-0.1,1.2-0.4c0.4-0.3,0.5-0.7,0.7-1.1L660.6,303.2z"/>
				<path class="st72" d="M696.6,310.4l11.1-1.3h0.5c0,0.9,0.3,1.8,0.7,2.8c0.3,0.5,0.5,1.1,0.9,2c0.1,0.7,0.4,1.2,0.8,1.7
					c0.4,0.7,0.5,1.3,0.5,2.1c0,3.8-1.2,9.2-1.5,13.2c0,1.3-0.1,2.8-0.3,4.2c-0.1,1.3-0.1,2.9-0.3,4.1c-0.1,1.1-0.4,2.9-0.4,3.7
					s-0.1,1.6-0.1,2.5c-0.1,0.8-0.3,1.7-0.3,2.6c-0.4,4.2-0.9,8.7-1.3,13.3c-0.3,1.8-0.5,4.6-0.7,5.4c-0.1,0.9,0,0.9-0.3,2.8
					s-0.5,3.7-0.7,5.5c-0.5,4.2-1.1,8.4-1.6,12.8h-5.8c0.4-4.1,1.1-9.9,1.6-15.3s3.2-13.9,3.2-16.4c-0.1-2.4-0.5-4.9-1.2-7.1
					c-0.7-2.8-3.3-7.1-4.2-10.2c-0.5-2.1-0.8-4.2-0.9-6.5C696.6,330.6,696.7,318,696.6,310.4z"/>
				<path class="st73" d="M529.9,259.8c12.1,0.4,24.2,0.9,36,1.7l5.3,0.4c5,0.4,10.2,0.7,15.1,1.1l9.6,0.8l14.3,1.5
					c0.8-0.3,1.6-0.3,2.4-0.3c2.9,0,10.4,0.8,20.5,3c10.2,2.4,21.5,5,33.9,8.3c0.7,0.1,22.4,5.5,32.7,18.1h0.1l0,0l0,0l0,0l0,0
					c5.3,2.8,6.6,6.2,8.1,10.3c0.8,1.8,0.7,4,0.9,6.7c-13.7-1.3-15.7,2.8-26.3,0c-6.1-1.6-12.7-3.7-17.3-5.1
					c-3.6-1.1-7.3-1.6-11-1.5c-4.6,0.3-9.1,0.1-13.7-0.4c-9.1-1.1-29.3-3.7-37.4-5.3c-8.1-1.6-13.9-2.5-28.6-1.3
					c-14.5,1.2-29,0.5-43.3-2c-14.5-2.5-55.1-6.2-55.1-6.2c-15.4,1.7-22.3,5-33.4,1.1l-4.1-1.2c-7.3-1.7-14.7-2.8-22-2.9l-45.4-0.9
					v-26.9C401.7,258.2,466.4,257,529.9,259.8z"/>
				<path class="st63" d="M416.6,286.6c7.4,0.3,14.9,1.2,22,2.9l4.1,1.2c11,4,18,0.7,33.4-1.1l5.8,0.7c-11-15.3-27.1-20.5-59-21.3
					c-4.8-2.8-12.5-9.1-36.2-10.6l-15.6,0.3v26.9L416.6,286.6z"/>
				<path class="st63" d="M702.1,303.2c-1.6-4.8-6.7-7.5-17.4-6.2L702.1,303.2z"/>
				<path class="st63" d="M589.3,332.1c0,0,14.4-6.7,27.7,12c13.2,18.7,12.8,20.5,1.3,14.3c-11.5-6.2-36.6-15.3-51.9-24.2
					C571.4,316.2,589.3,332.1,589.3,332.1z"/>
				<path class="st73" d="M598.8,334.3l12.9,12.1C609.1,335.6,604.3,334.3,598.8,334.3z"/>
				<path class="st46" d="M566.4,334.3c11.5,6.5,28.3,13.3,40.9,19c-0.1-1.3-0.5-2.6-1.1-3.8c-0.9-2.2-4-3.4-11.5-7.1
					c0.4-1.8,0.4-4-0.1-5.8c-0.5-1.8-1.3-3.7-2.6-5.1c-0.9,0.1-1.8,0.5-2.8,0.9C589.3,332.1,571.4,316.2,566.4,334.3z"/>
				<path class="st74" d="M688.3,316.3c1.5-0.1,0.9,2.9,1.1,6.5c0.3,3.4-0.9,4.9-2,2.8c-1.6-2.4-2.5-5-2.9-7.9
					C684.3,315.9,686.8,316.4,688.3,316.3z"/>
				<path class="st75" d="M637.7,351.6L637.7,351.6l2.6,5.7h0.3l2.5-5.7h0.1l5.7-2.5c0.1-0.1,0.1-0.3,0-0.3l-5.7-2.6h-0.1l-2.5-5.8
					h-0.3l-2.6,5.8h-0.1l-5.7,2.6c-0.1,0-0.1,0.1,0,0.3L637.7,351.6L637.7,351.6z"/>
				<path class="st76" d="M652.8,370.7L652.8,370.7C652.9,370.7,652.9,370.7,652.8,370.7C652.9,370.6,652.9,370.6,652.8,370.7l1.5,3
					h0.1l1.5-3.2l3.3-1.3l-3.3-1.5l-1.5-3.3h-0.1l-1.3,3.3h-0.1l-3.2,1.5c-0.1,0-0.1,0,0,0.1L652.8,370.7L652.8,370.7z"/>
				<path class="st63" d="M415.9,283h0.8c6.6-1.5,20.3,0.9,28.9,3.2c4-1.7,10.4,1.3,15.8,2.5c4.6-2.6,17.8-2,22-2.4
					c4.4-0.4,22.3,2.2,39.1,4.2c6.6-0.5,20.1,1.6,28.9,3.8c1.6-0.9,11.1-2.1,20.2,0c2.6-0.4,15.2-4.6,30.9,1.8h0.1
					c3.2-1.8,11.1-2.4,18,1.2l8.6,1.2c7.1,0.9,15.4,1.8,24.3,2.6c4.8,0.5,8.7,1.1,14.4,1.8c5.7,0.8,14,2.8,19.1,3.7
					c10.8,1.8,17,2.6,21.8,4.6c-13.7-1.3-15.7,2.8-26.3,0c-6.1-1.6-12.7-3.7-17.3-5.1c-3.6-1.1-7.3-1.6-11-1.5
					c-4.6,0.3-9.1,0.1-13.7-0.4c-9.1-1.1-29.3-3.7-37.4-5.3c-8.1-1.6-13.9-2.5-28.6-1.3c-14.5,1.2-29,0.5-43.3-2
					c-14.5-2.5-55.1-6.2-55.1-6.2c-15.4,1.7-22.3,5-33.4,1.1l-4.1-1.2c-7.3-1.7-14.7-2.8-22-2.9l-45.4-0.9v-5
					C386.9,280.8,408.3,282,415.9,283z"/>
				<path class="st63" d="M654.6,281.6c-9.9-1.8-13.6-1.7-13.9-1.3c-0.3,0.4,3.7,2.5,19.9,6.3C660.7,286.5,664.5,283.4,654.6,281.6z
					"/>
				<path class="st77" d="M643.1,288.4c2.5-3.6,9.8-2.1,12.1,3.7L643.1,288.4z"/>
				<path class="st78" d="M678.4,279.7c-0.1,2.2,2,3.8,2.8,1.5s0.7-5.3-1.3-6.2C678.3,274.3,678.4,277.5,678.4,279.7z"/>
				<path class="st79" d="M666.8,290.4l6.5,1.3c3.7-1.7,4.9-4.6,3.3-6.1c-1.6-1.3-3.3,0.4-3.3,0.4c0.7-2.5,2.2-6.9-0.4-7.7
					c-2.6-0.8-4,3.7-4.1,8.1C667.4,282.8,662.4,284.6,666.8,290.4z"/>
				<path class="st80" d="M494.3,266.5c1.3,0.7,2.9,1.8,2.9,1.5s0.1-1.7-2.2-2.9C491.8,263.4,493,265.9,494.3,266.5z"/>
				<path class="st81" d="M395.2,265.3c3.6-2.6,9.8-2.1,11.6,0.8L395.2,265.3z"/>
				<path class="st82" d="M481.1,280.5c0.7-4.8,1.5-9.4,2.6-14c1.3-4.2,1.3-5.9,0.4-3.7c-2.1,5.8-3.4,11.9-3.8,18L481.1,280.5z"/>
				<path class="st82" d="M480.7,280.7h-0.5c-1.3-4.6-2.9-9.1-4.9-13.6c-0.5-0.9-0.3-1.7,0.7,0.4C478,271.8,479.6,276.2,480.7,280.7
					z"/>
				<path class="st63" d="M509.5,284.4c-3.8-8.2-19.9-6.7-24.6-3.7L509.5,284.4z"/>
				<path class="st82" d="M573.8,284.7c0-0.3-1.1-0.7-2.2-0.8c-1.3-0.1-2.4,0-2.4,0.3s1.1,0.7,2.2,0.8
					C572.6,285.1,573.7,285,573.8,284.7z"/>
				<path class="st73" d="M447.5,281.3l-8.8-0.4c1.1-1.3,2.9-2.4,3.8-1.3C444.6,278.8,446.8,279.7,447.5,281.3z"/>
				<path class="st82" d="M691.1,275.1c-2.1,4.1-3.6,8.4-4.6,12.9C689.2,284.2,690.8,279.7,691.1,275.1z"/>
				<path class="st82" d="M685.9,287.9c0,0,0.9-9,1.1-12.4c0.1-3.4,0.4-2.9,0.8-1.5c0.3,4.8-0.1,9.5-1.2,14L685.9,287.9z"/>
				<path class="st63" d="M480.6,290.2l-4.2-0.4L480.6,290.2z"/>
				<path class="st73" d="M421.9,253.1c-0.4-3.3,2.1-6.3,8.6-3.8c0.8-5,8.2-3.6,8.2,1.6c5.3-0.5,5,7.1,3,9.4h-20.7
					C414.1,257.6,412.9,249.8,421.9,253.1z"/>
				<path class="st66" d="M450.6,386.9c0.8-5.4,1.2-11,1.2-16.5l3.3-0.5c0,0,0.4,11,0.4,12c0,1.1-0.1,3.2-0.4,5.4h-4.8L450.6,386.9z
					"/>
				<path class="st83" d="M481.1,369c-0.1,1.3-0.1,2.6,0,3.8c0.5,1.4,1,2.7,1.8,3.9c1,1.8,1.9,2.4,2,1.2c0.1-1.2,0.6-4.5,0.6-7
					L481.1,369z"/>
				<path class="st83" d="M470.7,363.6l2.5-0.7c0,0-0.7,10.7-0.5,11.5c0.1,0.8,2.4,6.7,2.4,6.7l0.7,1.8l1.5,4.5h-2.2l-0.9-4.4
					l-0.5-1.7l-2.9-6.7C470.7,374.7,470.6,366.6,470.7,363.6z"/>
				<path class="st83" d="M513.7,365.5v14.3l1.1,7.4v0.3h-18c-0.1-0.3-0.3-0.7-0.3-0.9c-0.9-2.8-2.1-8.3-2.8-9.6
					c-0.7-1.3-1.5-12.4-1.5-12.4L513.7,365.5z"/>
				<path class="st84" d="M474.9,345.2l-0.9-8.1c0,0-1.1-9-1.6-12c-0.5-2.9-1.8-4-1.8-5.7c0-1.7-1.6-3.7,1.1-0.8
					c2.8,2.9,3.7,4.2,4.9,6.5s2.6,9.9,3.8,17.7L474.9,345.2z"/>
				<path class="st66" d="M489.6,376.4c0.7-2.7,1.8-6.3,1.8-6.3l4.7,2.1c0,0,0,9.4,0,10.2c0,0.7,1.1,3.3,2.2,5.1h-6.7
					c-1.2-2.1-2.5-4.4-2.8-5.1C488.1,381.1,488.9,379.1,489.6,376.4z"/>
				<path class="st85" d="M371,362.2c0,0,24.8,0.9,42.9,2.5c0,0,18.5,3.3,28.8,5.5c12.5,2.8,18.7,2.8,27.9-5.4
					c11.1-0.4,34.9-0.3,49.9,1.3c15.1,1.6,17.8,2.9,14.5-1.7c-11.5-16.8-14.3-19.4-37.9-21.9c-6.7-4.6-19.7-7.5-42.6-8.3
					c-20.1-5.1-45.3-9.9-83.6-10.4v32v6.5H371z"/>
				<path class="st86" d="M390,326.6c0,0-10.3-4.9-10.8-12c-0.7-7,5.3-7.3,9.2-4.5c-3-7.4,3.3-8.7,8.8-4.1
					c0.4-8.8,12.3-9.2,11.6,2.6c7.7-2.8,8.1,10.2,2.9,17.8H390V326.6z"/>
				<path class="st87" d="M400.9,320.1c-0.1,0-0.3,0.1-0.4,0.1c-0.1,0-0.3,0-0.4-0.1c-1.6-1.2-3-1.2-3.7-0.8
					c-0.1,0.1-0.3,0.1-0.3,0.3c-0.1,0.1-0.1,0.3-0.1,0.4c0,0.1,0,0.3,0,0.4c0,0.1,0.1,0.3,0.1,0.4c0.5,1.3,1.2,2.4,2.1,3.4
					c0,0,0.1,0.1,0.1,0.3c0,0.1,0,0.1,0,0.3c0,0.1,0,0.1-0.1,0.3c0,0.1-0.1,0.1-0.1,0.1l-0.4,0.3l-0.7-0.1c-0.9-1.2-1.7-2.4-2.4-3.8
					c-0.3-0.5-0.3-1.1-0.1-1.6c0.1-0.5,0.4-1.1,0.8-1.3c0.7-0.4,1.3-0.5,2-0.5"/>
				<path class="st87" d="M398.6,313.7c-0.3-2.8,0.9-4.1,2.2-4.5c0.4-0.1,0.9-0.1,1.3,0c0.4,0.1,0.8,0.3,1.2,0.7
					c0.7-0.3,1.3-0.1,1.8,0.1c0.7,0.4,1.7,1.3,2,4c0.8-0.3,1.7-0.3,2.6,0.1c0.7,0.4,1.2,0.9,1.5,1.6c0.3,0.7,0.4,1.5,0.4,2.2
					c-0.1,0.1-0.1,0.3-0.3,0.3c-0.1,0.1-0.3,0.1-0.4,0.1s-0.3-0.1-0.4-0.1c-0.1-0.1-0.1-0.3-0.3-0.4c0.1-0.5,0-0.9-0.1-1.5
					c-0.3-0.4-0.5-0.8-0.9-1.1c-0.4-0.1-0.7-0.3-1.1-0.3c-0.4,0-0.8,0.3-1.1,0.4c-0.1,0.1-0.1,0.1-0.3,0.1s-0.3,0-0.3-0.1
					c-0.3-0.1-0.3,1.5-0.4-0.5c-0.1-2-0.7-3.4-1.5-4c-0.4-0.1-0.8,0-1.1,0.1c-0.1,0.1-0.3,0.1-0.5,0l-0.4-0.3
					c-0.1-0.3-0.4-0.4-0.5-0.5c-0.3-0.1-0.5-0.1-0.8,0c-0.9,0.4-1.5,1.5-1.2,2.9c0.4,4.2,0.8,6.3,0.8,6.3"/>
				<path class="st88" d="M371.2,346v16.1c0,0,24.8,0.9,42.9,2.5c0,0,18.5,3.3,28.8,5.5c12.5,2.8,18.7,2.8,27.9-5.4
					c6.1-0.3,15.8-0.3,25.9,0v-0.4c-6.9-7.9-14-10.3-20.5-10.2c-3-7-8.1-13.1-17.8-11.9s-46.2-7.3-60.6-5.9
					c-14.4,1.3-16.5,9.5-16.5,9.5h-10V346z"/>
				<path class="st62" d="M484.4,351.4c0.1-4,5.4-4.1,7.8-1.3c2.1-1.1,7.5-0.8,11.1,3.2C503.5,353.3,494.5,352.1,484.4,351.4z"/>
				<path class="st75" d="M500.2,328.3l1.1-2.4l2.4-0.9c0.1,0,0.1-0.1,0-0.1l-2.4-0.9l-1.1-2.4l-1.1,2.4l-2.4,0.9
					c-0.1,0-0.1,0.1,0,0.1l2.4,0.9L500.2,328.3z"/>
				<path class="st83" d="M474,382.8h3.3c2.6,0,5,1.5,7.1,4.6h-19C467.1,385.1,470.6,383.8,474,382.8z"/>
				<path class="st83" d="M397.2,377.7c5.8,3.2,6.3,3.6,8.4,6.6c0.7,0.9,1.3,2,1.8,3h-28.6c-1.3-3.2-2.2-4-7.8-7.1v-13.5
					C380,369.9,388.7,373.5,397.2,377.7z"/>
				<path class="st89" d="M491.7,350.1c-0.5-0.2-1.1-0.2-1.6-0.1s-1,0.3-1.5,0.7c-0.4,0.3-0.8,0.8-1,1.3c-1.4,3.5-2.4,7.2-2.9,10.9
					l2,2.4c1.7-3.5,3.8-6.7,6.5-9.6c0.3-0.3,0.6-0.7,0.7-1.1c0.2-0.4,0.3-0.8,0.3-1.3c0-0.4-0.1-0.9-0.3-1.3
					c-0.2-0.4-0.4-0.8-0.7-1.1C492.7,350.5,492.2,350.3,491.7,350.1z"/>
				<path class="st89" d="M495.4,359.1c0.3,0.1,0.6,0.2,0.9,0.4c0.3,0.2,0.5,0.4,0.7,0.7c0.2,0.3,0.3,0.6,0.3,0.9
					c0.1,0.3,0,0.7-0.1,1s-0.3,0.7-0.5,0.9c-0.2,0.3-0.5,0.5-0.8,0.6c-0.3,0.1-0.7,0.2-1,0.2c-2.8-0.1-5.6,0.4-8.2,1.4l-2-2.4
					c0,0,3.2-2.3,9.7-3.7C494.7,359,495,359,495.4,359.1z"/>
				<path class="st89" d="M483.6,355.4c0.3-0.5,0.7-0.8,1.2-0.9c0.3-0.1,0.5-0.1,0.8-0.1c0.3,0,0.5,0.1,0.8,0.3
					c0.2,0.1,0.4,0.3,0.6,0.6c0.2,0.2,0.3,0.5,0.3,0.8c0.5,2.4,0.6,4.9,0.3,7.3l-3-0.4c0,0-0.5-2.7-1.3-6
					C483.2,356.4,483.3,355.8,483.6,355.4z"/>
				<path class="st90" d="M485.9,363.7c-0.1,0-0.2-0.1-0.2-0.2c-0.1-0.1-0.1-0.2-0.1-0.3c0.1-0.1,0.3-2.3,4.9-10.5
					c0-0.1,0-0.1,0.1-0.2c0-0.1,0.1-0.1,0.2-0.1s0.1,0,0.2,0c0.1,0,0.1,0.1,0.2,0.1c0.1,0.1,0.2,0.2,0.2,0.3c0,0.1,0,0.2,0,0.4
					c-3,5.3-4.1,8-4.5,9.2c2.7-0.8,5.4-1.4,8.1-1.7c0.1,0,0.2,0,0.3,0.1c0.1,0.1,0.1,0.2,0.1,0.3c0.1,0.2-0.1,0.5-0.4,0.5
					c-3,0.3-5.9,1-8.7,2h-0.2h-0.2V363.7z"/>
				<path class="st90" d="M485.9,363.6c-0.1-0.1-0.2-0.2-0.2-0.3c0,0-0.2-3.9-0.7-7.6c0-0.1,0-0.3,0.1-0.4c0.1-0.1,0.2-0.2,0.3-0.2
					s0.2,0,0.3,0.1s0.1,0.2,0.1,0.3c0.6,3.6,0.8,7.6,0.8,7.6c0,0.1,0,0.3-0.1,0.4s-0.2,0.2-0.3,0.2S486,363.7,485.9,363.6z"/>
				<path class="st87" d="M388.9,315.1c-0.8-1.3-0.9-2.1-0.4-2.8c0.5-0.8,1.6-0.9,2.9-0.8c0-0.4,0.3-0.9,0.5-1.2
					c0.3-0.4,0.7-0.5,1.2-0.7c1.3-0.1,3,1.1,3.7,3.6c0,0.1,0,0.4,0,0.5c-0.1,0.1-0.1,0.3-0.4,0.4c-0.1,0-0.4,0-0.5-0.1
					c-0.1-0.1-0.3-0.3-0.4-0.4c-0.5-2-1.8-2.8-2.4-2.8c-0.5,0.1-0.7,0.9-0.7,1.2c0,0.1-0.1,0.4-0.3,0.4c-0.1,0.1-0.3,0.1-0.5,0.1
					h-0.3c-0.8,0-1.8,0.3-2,0.3s-0.3,0.4,0.4,1.6c0,0.1,0,0.1,0,0.3c0,0.1,0,0.1,0,0.3c0,0.1-0.1,0.1-0.1,0.3
					c-0.1,0-0.1,0.1-0.3,0.1h-0.3C389.1,315.5,389.6,316.4,388.9,315.1z"/>
				<path class="st91" d="M644.3,316.2"/>
				<path class="st91" d="M642.9,310.8"/>
			</g>
		</g>
	</g>
</g>
<g id="Layer_2">
	<g>
		<g>
			<defs>
				<rect id="SVGID_00000150823673269289442490000013349517306926014379_" x="-120" y="-98.4" width="491.5" height="485.9"/>
			</defs>
			<clipPath id="SVGID_00000144304470454848568280000002840964228474488993_">
				<use xlink:href="#SVGID_00000150823673269289442490000013349517306926014379_"  style="overflow:visible;"/>
			</clipPath>
			<g style="clip-path:url(#SVGID_00000144304470454848568280000002840964228474488993_);">
				<path class="st44" d="M-8.9,359.7l2.2-0.9l-2.2-0.9l-0.9-2.2h-0.1l-0.9,2.2H-11l-2.1,0.9l2.1,0.9h0.1l0.9,2.2l0,0L-8.9,359.7z"
					/>
				<path class="st93" d="M170.8,180.2c1.4-6.2,5-5.7,6.2-5c1.2-2.1,6.6-3,5.9,3.3c1-0.9,3.7-1.3,3.1,5h-15.2V180.2z"/>
				<path class="st60" d="M171.6,157.1l1.5-0.7l-1.5-0.7l-0.7-1.5h-0.1l-0.7,1.5l-1.5,0.7l1.5,0.7l0.7,1.5l0,0L171.6,157.1z"/>
				<path class="st94" d="M151.8,182c12.2-1.2,19.5,0,19.5,0c7.5-0.6,13.2,0.3,16.1,1.5c2.9,1.2,3.9,1.5,4.3,2.7
					c0.4,1.2-0.3,15-0.9,21c-0.6,5.9-8.6,10.9-22.4,16.4c-4.3,1.8-8.3,3-12-2.6c-3.8-5.6-4.4-7.6-4.6-8.1s-6.2-2.7-7.3-9.6
					c-1.1-6.9-1.6-14.2-1.8-16.6S141.9,182.6,151.8,182z"/>
				<path class="st94" d="M125.9,149.1c0.5-1.1,3.5-9.1,3.6-11.9s0.3-11.5,0-13.1c-0.3-1.5-2.1-2-6.6-2.2s-19.4,0-19.4,0
					s-13.4-1-26.3-0.5c-6.9,0.2-12,0.6-14.3,0.8c-2.3,0.2-3.4,1.2-2.9,9.7c0.4,8.5,1.9,19.1,2.2,22.9s0.6,7.3,7.7,10.8
					c1.9,14.3,1.6,12.8,15.3,19c3.4,1,11.5,2.8,15.3,2.8c3.8,0,5.4-1.6,8.4-3.2c3-1.6,4.4-8.3,4.9-9.4c0.4-1.1,2.5-1.8,5.2-4
					s3.9-3.2,4.3-6.7C123.7,160.6,125,150.8,125.9,149.1z"/>
				<path class="st95" d="M72.6,133l-0.2,3.9l-1.3,2.9c-0.2,0.6-0.7,1.2-1.2,1.6c-0.4,0.3-0.4,0.4-0.3-0.6c0.1-1,0.3-2.6,0.3-2.9
					s0-0.4-0.7-1.3C68.6,135.6,72.7,132.9,72.6,133z"/>
				<path class="st96" d="M66.2,137.4v1.2l0.7,1.5l0.3-1.5l0.2-1.8L66.2,137.4z"/>
				<path class="st96" d="M62.8,122.2c-3.4,0.3-3.4,1.2-2.9,9.7c0.4,8.5,1.9,19.1,2.2,22.9c0,1.6,0.3,3.1,0.8,4.6
					c0.1-0.2,0.2-0.4,0.2-0.7c-0.1-2.6,0-5.2,0.3-7.7c0.3-2.4,0.5-4.7,0.5-7.1c0-3,0-2.6-0.8-5.7c-0.9-3-0.8-3.3-0.7-5
					S62.5,126.1,62.8,122.2z"/>
				<path class="st96" d="M76.6,130.5c0,2,0.1,7.4,0.3,9.2s0.6,6.8,0.6,7.6c0,0.9,0.3,0.8,1.3,2.1s0.7,1.1,0.8,2.2
					c0.1,1.2,0.6,6.2,0.6,7.5s0.5,1.2,0.5-1.2c0-2.4,0.4-9.4,0.4-10.6c0-1.2,0-1.3-1-4.1s-0.9-2.1,0.1-4.1s0.9-10.1,0.9-10.1
					L76.6,130.5z"/>
				<path class="st95" d="M106.2,125.5c0,0-0.2,9.4-0.1,12.5c2.6,5.2,2.5,4.9,2.4,10.2s0.1,5-2.5,7.1c0,4.6,0.6,15.8-3.8,18.9
					l-7.7,5.4c4.2,0.1,7-0.1,9.1-1.3c2.1-1,3.9-2.4,5.5-4.1c1.8-2.2,6.8-2.7,7.1-7.5c0.3-4.8,1.8-13.1,1.8-16.9s2-6.7,2.5-11.2
					c0.3-5.1,0.3-10.3-0.1-15.4c0.2-1.9-1.7-0.4-1.7-0.4l-15.3-0.9L106.2,125.5z"/>
				<path class="st97" d="M122,120c-4.4-0.2-18.8,0-18.8,0c-8.5-0.6-17-0.7-25.5-0.4c-4.6,0.1-9.2,0.5-13.7,1.2
					c-3.8,0.4-3.6,1.2-3.8,2.5c5.8,0.6,13.9,0.6,16.9,0.6H84c-2.2,1.5-4.3,3.2-6.2,5.1c-2.4,2.6-0.9,1.7,4.3,1
					c4.1-0.5,8.3-0.8,12.4-0.9c2.7,0,5.4-0.2,8.1-0.7c0.7-0.1,1.4-0.3,2-0.7c0.6-0.4,1.1-0.9,1.4-1.5c0.1-0.2,0.2-0.5,0.2-0.8
					s-0.1-0.6-0.2-0.8c0,0,5.1-0.6,8-0.7s9.7,0.5,10.8,0.5s0-1.6,0-1.6l3.4-0.3C128,121,126.3,120.2,122,120z"/>
				<path class="st95" d="M88.4,135.4c0,0.4,0.1,0.8,0.3,1.1c0.2,0.4,0.5,0.7,0.8,0.9c3,2.3,6.1,4.7,8,6.4c1.9,1.6,4.4,4.3,4.5,3.6
					c0.1-0.8,1-4.4,1.5-7.6s0-2.5-3-3.9s-9.3-3.3-11.2-4C87.4,131.2,88.2,132.4,88.4,135.4z"/>
				<path class="st97" d="M187.4,183.6c-2.9-1.2-8.6-2.1-16.1-1.5c0,0-7.3-1.2-19.5,0c-7.1,0.4-8.7,1.4-9,2.8
					c-0.1,0.5,1.3,0.1,3.6,0c2.4-0.1,19.3,2.7,25.3,3.9c5.9,1.2,5.7,0.8,3.7-0.9c-1.9-1.7-1.9-1.4,1.9-1.5c3.8-0.1,9.2,0.5,10.9,0.5
					s3.7,0.5,3.4-0.6C191.3,185.1,190,183.6,187.4,183.6z"/>
				<path class="st45" d="M139,177.9l1.3-0.7l-1.3-0.7l-0.7-1.4l-0.7,1.4l-1.4,0.7l1.4,0.7l0.7,1.3L139,177.9z"/>
				<path class="st45" d="M270.4,89.7l1.5-0.7l-1.5-0.7l-0.7-1.5l-0.7,1.5h-0.1l-1.5,0.7l1.5,0.7h0.1l0.7,1.5L270.4,89.7z"/>
				<path class="st48" d="M89.3,121.7c0-7,4.8-7.3,4.8-7.3c0.4-2.9,2.1-5.3,3.3-3.2c1.2,2.1,1.2,5.9,1.2,5.9c2,0,1.9,3.1,1.9,4.6
					H89.3z"/>
				<path class="st98" d="M87.9,124.5c-0.2-0.1-0.5,0-0.7,0.1c-0.2,0.1-0.4,0.2-0.6,0.4c-0.2,0.1-0.3,0.4-0.4,0.6s-0.1,0.4-0.1,0.7
					h3.8c0-0.5-0.2-1-0.6-1.4C89,124.5,88.5,124.3,87.9,124.5z"/>
				<path class="st98" d="M72.8,132.9c-2.2,0.8-4.1,1.9-5.8,3.5c-2.1,2.3,1.2,0.7,2.3,0.2l1.1-0.2c0.3,0,0.6-0.2,0.9-0.4
					c0.3-0.2,0.5-0.5,0.6-0.8L72.8,132.9z"/>
				<path class="st99" d="M67.6,136.4c0-0.9-0.3-3.4,0.4-4.1c0.8-0.7,0.2-1.9,0.6-2.1c0.3-0.2,0.9,0.4,1,2.7s0.1,2.4,0.1,2.4
					L67.6,136.4z"/>
				<path class="st46" d="M109.2,119.1c-0.9-0.8-1.8-0.5-2,0.5c-0.2,0-0.3,0-0.5,0.1c-0.1,0.1-0.3,0.2-0.4,0.3
					c-0.1,0.1-0.2,0.2-0.3,0.4c-0.1,0.1-0.1,0.3-0.1,0.5h4.1C110,120.1,110.2,119.1,109.2,119.1z"/>
				<path class="st95" d="M156.3,194.6c0.3-5.5,7.6-4.2,10.6-3.4c3,0.9,5.3,4.9,5.1,10.3c0,3.1-0.5,6.3-1.3,9.3
					c-0.1,1.1-2.3,3.8-6.5-3.1S156.3,196.6,156.3,194.6z"/>
				<path class="st48" d="M168.2,177.6c-0.1-2.4-0.2-7.4-2.1-7.3c-1.8,0.1-2.5,8.1-2.4,13l8.2,0.2
					C172.5,178.1,170,177.5,168.2,177.6z"/>
				<path class="st48" d="M165.2,174.5c-3.1-1.5-4.7,2.4-4,8.9h4V174.5z"/>
				<path class="st48" d="M148.8,183c0-2.1,1.2-2.6,2-2.6c0-1.7,1.2-2.4,1.9-1.7c0.7,0.7,0.9,4.1,0.9,4.1L148.8,183z"/>
				<path class="st47" d="M338.2,152.5c1.1,3,1.7,6.3,2,9.5h-1.3c-0.1-3.8-1.1-9.1-1.1-9.1L338.2,152.5z"/>
				<path class="st48" d="M339.8,153.6l4.4-0.9c-1.1-1.2-2.5-1.2-4.6-0.8c0.7-1.1,1.5-2,2.4-2.9c-0.5,0-0.9-0.1-1.5,0
					c-0.4,0-0.9,0.3-1.3,0.5c-0.4,0.3-0.7,0.7-0.9,1.1c-0.3,0.5-0.4,0.9-0.4,1.5c-0.5-0.3-1.1-0.4-1.6-0.5c-0.7,0-1.2,0-1.7,0.1
					c-0.5,0.1-1.1,0.4-1.5,0.8c-0.4,0.4-0.8,0.8-1.1,1.3c1.3-0.3,2.8-0.4,4.1-0.4c-0.5,0.5-1.1,1.1-1.3,1.6
					c-0.3,0.5-0.5,1.2-0.5,1.8l4.1-2.4l3.3,2.2c0-0.7-0.1-1.3-0.4-1.8C340.9,154.3,340.3,153.9,339.8,153.6z"/>
				<path class="st49" d="M353,162.1c0.5-3.2,3-4.4,4.2-3.2c0.8,0.8,1.2,2,1.2,3.2H353z"/>
				<path class="st50" d="M356.2,162.1c0.7-1.3,3.3-1.7,4,0.3C360.8,164.3,356.2,162.1,356.2,162.1z"/>
				<path class="st49" d="M341.3,161.7c-0.3-2.6-2.1-3.7-3.3-2.2c-1.2,1.6-1.2,2.6-1.2,2.6L341.3,161.7z"/>
				<path class="st51" d="M250.4,220.6c0-10.3,3.3-15.4,9.5-15.4c6.2,0,4.8,16.6,4.8,16.6L250.4,220.6z"/>
				<path class="st52" d="M357.2,162.1v96.6l-112.4-1.1c3-16.5,10.8-41.9,10.8-41.9s1.1-30.8,3.2-39.7c0-2.5-0.4-6.9-0.7-9.5
					c0-0.7,0.3-1.3,0.8-1.8s1.2-0.8,1.8-0.8l9.6-0.8c7.1-0.3,40.3-2.2,56.8-1.7L357.2,162.1z"/>
				<path class="st53" d="M318.4,168.7l-2.9,10.6l-4.1,6.5l-3.7,3.7l1.5-8.1l0.1-6.3l5.4-5.1L318.4,168.7z"/>
				<path class="st54" d="M371.4,258.9v-96.4c0,0-27.9-0.4-44.2-0.9h-4.8c0,0.1-6.6,25.1-7.5,30.8l-22,27.2l-1.5,25.6l57.3,13.7
					h22.8H371.4z"/>
				<path class="st100" d="M340.9,161.8c5,4.2,4.6,7.5,4.8,16.2v18.5c-0.1,4.9,0,24,0,24h9.9c0,0-0.3-19.8,0-25.2
					c0.3-5.4,0.4-13.7,0.5-18.7c0.1-5-0.1-10.2-1.8-14.3c-0.7-1.2-2.4-1.2-3.8-0.8c-1.6-0.3-3.3-0.3-4.9,0
					C343.2,161.3,341,161.2,340.9,161.8z"/>
				<path class="st101" d="M354.3,162.5c-0.5-1.1-1.8-1.2-3.2-0.9c-1.2,5.3,2.9,12.3,2.9,12.3c-2.9,3.2-4.1,4.9-4.8,7
					c3.7,5,0,11.4,0,11.4c1.7,3.6,2.9,7.3,3.4,11.2c0.4,0.3,0.8,0.5,1.3,0.7s0.9,0.1,1.5,0.1c0-3.7,0-7.1,0.1-8.8
					c0.3-5.5,0.4-13.7,0.5-18.7C356.2,171.5,356.1,166.3,354.3,162.5z"/>
				<path class="st102" d="M352.1,202.6c-5.1-5.9-4-12.9-3.6-17.7c0.1-1.5,0.4-2.8,0.8-4.1l-0.8-0.9c0.9-3.3,0.9-6.7,0-10
					s-2.6-6.2-5.1-8.6c-1.5,0-2.4,0.1-2.4,0.5c5,4.2,4.6,7.5,4.8,16.2v18.5c-0.1,4.5,0,21,0,23.6c0.5-0.3,1.1-0.5,1.5-0.9
					c5.1-3.8,6.5-9.9,5.5-16L352.1,202.6z"/>
				<path class="st100" d="M349.3,180.7c-0.5,1.3-0.7,2.8-0.8,4.1c-0.4,4.8-1.6,11.6,3.6,17.7l0.7,0.8c-0.5-4-1.7-7.7-3.4-11.2
					C349.3,192.1,353,185.9,349.3,180.7z"/>
				<path class="st55" d="M334.9,245.5c0.9-16.1,5.9-28.4,13.7-29.7c0.3-16.2,7.7-20.7,13.7-21.1c6.1-0.4,9.1,5.9,9.1,14.9v50.4
					h-36.6V245.5z"/>
				<path class="st56" d="M281.2,168.3l1.3,19.5l-4.8,17.7l-3.3,20.7h11.8l5.4-23.2c0,0,3.2-11.4,4.2-14l-3.3-20.6l0.4-6.3l-5.9,0.3
					l-0.3,3L281.2,168.3z"/>
				<path class="st56" d="M263.1,163.4V175l-2.6,23.2v26.9h3.7v-27.3l4.6-23.8l1.6-11L263.1,163.4z"/>
				<path class="st47" d="M330.2,229.7c0.5,5.9,0.4,11.9-0.3,17.7l-2.1-0.7c0.9-6.7,1.3-16.6,1.3-16.6L330.2,229.7z"/>
				<path class="st46" d="M332.3,232.2h8.2c-1.2-2.1-4.1-2.6-7.8-2.9c1.6-1.6,3.4-3,5.3-4.4c-3.4-2-7.8,0.5-8.7,3.7
					c-3.4-2.8-8.2-2.5-10.7,0.8c2.4,0,4.9,0.3,7.3,0.9c-3.6,2.4-3.6,3-4.5,5.3l8.1-2.6l5,5.3c0.4-1.2,0.4-2.4,0-3.4
					C334,233.7,333.2,232.7,332.3,232.2z"/>
				<path class="st46" d="M321.5,243.8c-3.2-16.4-8.8-25.7-28.6-20.5c-3.6-8.4-13.5-7.7-19.5-1.1c-22.3-12.3-45.5-5.9-46.6,41.9
					l46.6,6.5l73.1-8.7C343.4,244.2,329.4,239.5,321.5,243.8z"/>
				<path class="st51" d="M264.8,235c0.5-1.1,1.3-1.8,2.4-2.4s2.2-0.7,3.3-0.4c0,0,2.2-4.4,5.1-3.2c-1.7,1.5-3,3.2-4.1,5.1
					L264.8,235z"/>
				<path class="st57" d="M253.9,230.1c1.3,10.2,0,22.8,0,22.8l-2.8-0.8c1.2-8.8,1.5-21.5,1.5-21.5L253.9,230.1z"/>
				<path class="st51" d="M250.4,230.8l-8.2,2.2c0.9-3.4,4.1-5,8.3-4.1c-1.3-1.2-4.5-5.4-4.5-5.4c1.5,0,3,0.5,4.2,1.3
					c1.2,0.8,2.2,2,2.8,3.4c1.6-0.5,3.3-0.7,4.9-0.4c1.6,0.3,3,1.1,4.2,2.2h-6.7c4.1,2.1,3.8,4.2,4.1,7l-5.8-4.5l-5.4,6.2
					C248.3,238.8,247.8,232.9,250.4,230.8z"/>
				<path class="st51" d="M254.1,245c-6.1-0.9-10.8,2.8-13.1,9.2c-5.5-0.4-7.9,3.7-8.2,9.5h31.8c0.4-7.5-0.9-11.9-3.7-12.7
					C261.1,247.9,258.6,245.7,254.1,245z"/>
				<path class="st58" d="M271.7,249.8c0-11.6,2.4-17,8.6-17.4c6.2-0.4,7.5,6.9,7.1,11.5c3.7,0,6.5,2.2,6.7,7.4
					c0.3,5.1,0,14.7,0,14.7l-22.4,1.3V249.8z"/>
				<path class="st53" d="M329.5,173.1l-5.1,7.3l-2.2,10.3c0,0,7.8-8.8,11.5-10.4v-12.7h-2.9L329.5,173.1z"/>
				<path class="st60" d="M331.7,155.3l2.4-1l-2.4-1l-1-2.3c-0.1-0.1-0.1-0.1-0.1,0l-1.1,2.3l-2.4,1l2.4,1l1.2,2.3l0,0L331.7,155.3z
					"/>
				<path class="st61" d="M348.9,124.5l1.7-0.7c0.1,0,0.1,0,0-0.1l-1.7-0.8l-0.8-1.7l-0.9,1.7l-1.7,0.8l1.7,0.8l0.9,1.7L348.9,124.5
					L348.9,124.5z"/>
				<path class="st60" d="M273,112.5l2.8-1.2l-2.8-1.2l-1.2-2.8h-0.1l-1.2,2.8l-2.8,1.2l2.8,1.2l1.3,2.8l0,0L273,112.5z"/>
				<path class="st62" d="M345,250.2c0.5-13.2,9.4-16.8,14.9-14.1c5.5,2.5,5.5,14.3,5.5,18.1c2.1,0.4,3.7,2.9,4.1,8.2h-24.7
					C344.8,262.3,344.7,257.9,345,250.2z"/>
				<path class="st56" d="M297.8,179.9l1.2,7.1l0.3,2.4l1.2-3v-8.3L297.8,179.9z"/>
				<path class="st56" d="M303.4,177.7v3.7l1.8-1.8v-2.9L303.4,177.7z"/>
				<path class="st63" d="M318.4,168.7L312,175c0,0-12,4.4-14.3,5c1.5-4.5,7.8-8.3,10.2-9.1c2.4-0.8,6.9-4.4,10.4-2.8h0.1
					c0.1,0,0.1,0,0.1,0.1v0.1C318.6,168.4,318.6,168.6,318.4,168.7z"/>
				<path class="st46" d="M309.3,172.3l3.4-1.3l-5.3,0.9L309.3,172.3z"/>
				<path class="st46" d="M303.4,174.4c0-3.3-0.3-6.2,1.3-6.7c0.1-3.6,1.6-4,2.6-3c1.2,0.8,0.9,4.6,0.9,4.6l1.1,3.2L303.4,174.4z"/>
				<path class="st64" d="M371.5,262.7v125H38.7c-0.5-4.4-1.1-8.6-1.6-12.8c-0.1-1.8-0.4-3.7-0.7-5.5s-0.1-1.8-0.3-2.8
					c-0.1-0.8-0.4-3.6-0.7-5.4c-0.4-4.6-0.9-9.1-1.3-13.3c0-0.9-0.1-1.8-0.3-2.6c0-0.9-0.1-1.7-0.1-2.5c0-0.8-0.3-2.6-0.4-3.7
					c-0.1-1.2-0.1-2.8-0.3-4.1c-0.1-1.5-0.3-2.9-0.3-4.2c-0.4-6.3-0.1-12.7,0.8-19c1.1-6.5,4.1-12.4,8.8-17c0.1,0,0.1,0,0.1,0
					c0-0.1,0-0.1,0-0.1h0.1c9-8.4,24.4-14.5,50.4-21.9c40.4-9.4,114.5-11.5,153.9-10.8c7.1,0.3,14.4,2.6,21.4,2.1
					c25.3-2.1,47.9-1.1,72.5-0.1C350.8,263.8,360.8,262.6,371.5,262.7z"/>
				<path class="st65" d="M220.2,311.6c-0.8,5.3-1.3,10.4-1.5,15.7c0.1,7-1.6,14-4.8,20.2c-3.3,7.1-22.2,22-22.6,23.1
					c-0.4,1.2-1.3,13.7-1.7,17h-11.8c0.4-4,0.5-7.9,0.4-11.9c-0.3-4.1,11.5-25.3,12-30.1c0.4-5.7,0.4-11.4,0.1-17
					c-0.1-3.6-3-17,0.5-34.2l35.3-2.2L220.2,311.6z"/>
				<path class="st66" d="M287.9,290.3c-3.2,11.2-4.5,18.6-4.5,21.1c0,2.4-6.1,7.5-8.2,10.6c-2.1,3-3,3.2-3.3,7.7
					c-0.3,4.4-6.5,30.9-6.5,30.9l-21.5,8.1c0,0,4-16.4,4.8-21.7c0.7-5.3,2.9-12.3,2.9-14.9c0-2.6,0.1-4.5,3.2-7.3
					c3-2.8,9-10,11.8-12.3c2.8-2.1,2.9-3.7,4-8.3l4.9-18.5L287.9,290.3z"/>
				<path class="st67" d="M325.9,283l45.5-4.6v109.1h-58l-0.3-11.9l-19-17.8l9.5-68.1l0.7-4.5L325.9,283z"/>
				<path class="st54" d="M346.3,295.4l25.2-5v52.9l-3-1.3c-11.2-4.9-12.5-3.2-15.6-9.5c-3.2-6.3-7.3-13.7-12-27.7
					c-0.3-1.1-0.4-2-0.3-3c0.1-1.1,0.4-2,0.9-2.9c0.4-0.9,1.2-1.6,2-2.2C344.3,296,345.2,295.6,346.3,295.4z"/>
				<path class="st68" d="M144.4,333.3c0,1.1-8.6,6.1-8.7,7.1c-0.7,6.9-0.4,12.1-0.7,14.9c-0.3,2.8-7.1,8.8-8.3,11.4
					c-1.2,2.5-3.6,6.3-4.1,20.2v0.5H38.9c-2.5-20.7-4.9-42.6-5.5-56.8c-0.5-8.6-0.3-15.6,1.3-21.7c1.3-5.5,4.2-10.6,8.3-14.5
					l98.8-9.6l-4.1,23.5v1.1C139.1,315.9,144,327.1,144.4,333.3z"/>
				<path class="st64" d="M137.7,309.4v-1.1l1.7-9.6l-12.3,1.8c0.5,22.7-1.2,34.1,6.3,30.9c3.4-1.5,5.3-7.9,6.5-14.8
					C139,314.3,138.3,311.9,137.7,309.4z"/>
				<path class="st69" d="M96.4,387.5H73c1.1-3.6,2.2-7.3,4-8.4c1.7-1.2,8.4-5,14.4,1.7C93.2,382.7,94.9,385.1,96.4,387.5z"/>
				<path class="st70" d="M115.8,360.9c-0.1,2.1-0.1,4.4,0,6.5c0.1,2.8,0.1,5.5-0.1,8.3c-0.4,3.4-0.8,7.1-0.8,8.2
					c0,1.1,0.3-0.1,1.8-2.8c2-3,4-6.1,5.5-9.4c0.8-1.8,0.4-2.4,0.7-3.7c0.3-1.3-2.1-8.6-2.1-8.6L115.8,360.9z"/>
				<path class="st70" d="M58.5,373.6c-0.1,1.7-1.6,6.2-2.1,11.8c0,0.7-0.1,1.5-0.3,2.1h-2.9v-16.9c0-2.2-0.5-7.3,0-9.6
					c0.5-2.4,2.5-3.4,4.1-4.4c0.1-0.1,0.3-0.1,0.4-0.1s0.3,0.1,0.4,0.1c0.1,0,0.1,0.1,0.3,0.3c0.1,0.1,0.1,0.3,0.1,0.4
					C58.5,362.8,58.6,372,58.5,373.6z"/>
				<path class="st64" d="M102,304.6c0.4,17.3-1.2,26.1,5.8,23.6c7-2.4,7.5-25.2,7.5-25.2L102,304.6z"/>
				<path class="st71" d="M83,306.7c0.1,0.4,0.3,0.8,0.7,1.1c0.4,0.3,0.8,0.4,1.2,0.4c2.2,0.1,4.6,0.5,6.9,0.9
					c2.4,0,4.9-0.1,7.3-0.5s3.7-2.2,5.4-2.8c1.2-0.7,2.2-1.5,3.2-2.5H82L83,306.7z"/>
				<path class="st72" d="M46.1,332.4c-0.1,2.2-0.4,4.4-0.9,6.5c-0.9,3-3.6,7.4-4.2,10.2c-0.7,2.2-1.1,4.8-1.2,7.1
					c0,2.5,2.6,11,3.2,16.4s1.2,11.2,1.6,15.3h-5.8c-0.5-4.4-1.1-8.6-1.6-12.8c-0.1-1.8-0.4-3.7-0.7-5.5c-0.3-1.8-0.1-1.8-0.3-2.8
					c-0.1-0.8-0.4-3.6-0.7-5.4c-0.4-4.6-0.9-9.1-1.3-13.3c0-0.9-0.1-1.8-0.3-2.6c0-0.9-0.1-1.7-0.1-2.5s-0.3-2.6-0.4-3.7
					c-0.1-1.2-0.1-2.8-0.3-4.1c-0.1-1.5-0.3-2.9-0.3-4.2c-0.3-4-1.5-9.4-1.5-13.2c0-0.8,0.1-1.5,0.5-2.1c0.4-0.5,0.7-1.1,0.8-1.7
					c0.4-0.9,0.7-1.5,0.9-2c0.4-0.9,0.7-1.8,0.7-2.8h0.5l11.1,1.3C45.8,318,45.9,330.6,46.1,332.4z"/>
				<path class="st103" d="M97.1,263c-0.5-4.9-8.1-6.2-9.1,1.8c-6.5-3-7.8,5.8-4.9,10.3l22.4-5.4C110.9,261.2,102,261,97.1,263z"/>
				<path class="st73" d="M371.4,258.7v26.9l-45.4,0.9c-7.4,0.1-14.8,1.2-22,2.9l-4.1,1.2c-11.1,4-18,0.7-33.4-1.1
					c0,0-40.5,3.7-55.1,6.2c-14.3,2.5-28.8,3.2-43.3,2c-14.8-1.2-20.6-0.3-28.6,1.3c-8.1,1.6-28.3,4.2-37.4,5.3
					c-4.6,0.5-9.1,0.7-13.7,0.4c-3.7-0.1-7.4,0.4-11,1.5c-4.6,1.5-11.2,3.6-17.3,5.1c-10.6,2.8-12.5-1.3-26.3,0
					c0.3-2.8,0.1-4.9,0.9-6.7c1.5-4.1,2.8-7.5,8.1-10.3l0,0l0,0l0,0l0,0h0.1c10.3-12.5,32.1-18,32.7-18.1
					c12.4-3.3,23.8-5.9,33.9-8.3c10-2.2,17.6-3,20.5-3c0.8,0,1.6,0,2.4,0.3l14.3-1.5l9.6-0.8c4.9-0.4,10-0.7,15.1-1.1l5.3-0.4
					c11.9-0.8,23.9-1.3,36-1.7C276.2,257,340.9,258.2,371.4,258.7z"/>
				<path class="st63" d="M372.4,285.7v-26.9l-15.6-0.3c-23.6,1.5-31.4,7.8-36.2,10.6c-32,0.8-48.1,5.9-59,21.3l5.8-0.7
					c15.4,1.7,22.4,5,33.4,1.1l4.1-1.2c7.1-1.7,14.7-2.6,22-2.9L372.4,285.7z"/>
				<path class="st60" d="M132.8,194.2l2.2-0.8c0.1,0,0.1-0.1,0-0.1l-2.2-0.9l-0.9-2.1h-0.1l-1,2.1l-2.2,0.9l2.2,0.9l1,2.2h0.1
					L132.8,194.2L132.8,194.2z"/>
				<path class="st63" d="M57.8,297c-10.7-1.3-15.8,1.5-17.4,6.2L57.8,297z"/>
				<path class="st74" d="M58.1,317.6c-0.4,2.9-1.3,5.5-2.9,7.9c-1.1,2.1-2.2,0.7-2-2.8c0.1-3.6-0.4-6.6,1.1-6.5
					C55.7,316.4,58.2,315.9,58.1,317.6z"/>
				<path class="st75" d="M104.8,351.6l5.8-2.5c0.1-0.1,0.1-0.3,0-0.3l-5.7-2.6h-0.1l-2.6-5.8h-0.3l-2.5,5.8h-0.1l-5.7,2.6
					c-0.1,0-0.1,0.1,0,0.3l5.7,2.5h0.1l2.5,5.7h0.3L104.8,351.6L104.8,351.6L104.8,351.6z"/>
				<path class="st76" d="M89.8,370.7l3.2-1.3c0.1-0.1,0.1-0.1,0-0.1l-3.2-1.5h-0.1l-1.3-3.3h-0.1l-1.5,3.3l-3.3,1.5l3.3,1.3
					l1.5,3.2h0.1L89.8,370.7C89.6,370.6,89.6,370.6,89.8,370.7C89.6,370.7,89.6,370.7,89.8,370.7L89.8,370.7L89.8,370.7z"/>
				<path class="st63" d="M371.2,280.7v5l-45.4,0.9c-7.4,0.1-14.8,1.2-22,2.9l-4.1,1.2c-11.1,4-18,0.7-33.4-1.1
					c0,0-40.5,3.7-55.1,6.2c-14.3,2.5-28.8,3.2-43.3,2c-14.8-1.2-20.6-0.3-28.6,1.3c-8.1,1.6-28.3,4.2-37.4,5.3
					c-4.6,0.5-9.1,0.7-13.7,0.4c-3.7-0.1-7.4,0.4-11,1.5c-4.6,1.5-11.2,3.6-17.3,5.1c-10.6,2.8-12.5-1.3-26.3,0
					c4.8-2,11-2.8,21.8-4.6c5.1-0.9,13.5-2.9,19.1-3.7c5.7-0.8,9.6-1.3,14.4-1.8c8.8-0.8,17.2-1.7,24.3-2.6l8.6-1.2
					c6.9-3.6,14.8-3,18-1.2h0.1c15.7-6.5,28.3-2.2,30.9-1.8c9.1-2.1,18.6-0.9,20.2,0c8.8-2.2,22.3-4.4,28.9-3.8
					c16.8-2,34.7-4.6,39.1-4.2c4.2,0.4,17.4-0.3,22,2.4c5.4-1.2,11.9-4.2,15.8-2.5c8.6-2.2,22.3-4.6,28.9-3.2h0.8
					C334.3,282,355.7,280.8,371.2,280.7z"/>
				<path class="st63" d="M81.8,286.6c16.2-3.8,20.2-5.9,19.9-6.3c-0.3-0.4-4-0.5-13.9,1.3C78,283.4,81.8,286.5,81.8,286.6z"/>
				<path class="st104" d="M90.9,283.3c-4-17.3-11-25.1-19.4-25.2c-8.4,0-13.2,17.8-13.7,32.5c0,0,4.5-0.1,18-2.6
					C89.1,285.4,90.9,283.3,90.9,283.3z"/>
				<path class="st105" d="M76.4,268.5c-1.7-4.2-6.6-8.2-11.4-6.5c-0.9,1.2-1.7,2.5-2.2,3.8c6.2-2,6.2,5.4,6.6,11.9
					c4.4-1.5,10.4-0.7,12.4,8.7c2.2-0.5,4.5-1.1,6.6-1.8H89C87.9,277.2,82.8,268.6,76.4,268.5z"/>
				<path class="st77" d="M87.2,292.1c2.4-5.8,9.6-7.3,12.1-3.7L87.2,292.1z"/>
				<path class="st78" d="M62.7,275c-2,0.9-2.1,3.8-1.3,6.2s2.9,0.8,2.8-1.5C64.1,277.5,64.3,274.3,62.7,275z"/>
				<path class="st79" d="M73.8,286.5c-0.1-4.4-1.5-8.8-4.1-8.1c-2.6,0.8-1.1,5.1-0.4,7.7c0,0-1.7-1.7-3.3-0.4
					c-1.6,1.5-0.4,4.4,3.3,6.1l6.5-1.3C80.1,284.6,75.1,282.8,73.8,286.5z"/>
				<path class="st106" d="M248.7,268.1c-0.4-8.7-4-11.9-5.8-12.8c-1.8-0.9-2,2.5,0.3,7.1c-5.4-3.6-7.4-2.4-7.7-0.9
					c-0.1,1.5,4,3.7,6.6,5c-5.5-1.2-11.1,0.4-3.3,3.2c3.4,1.3,7,2.4,10.6,3.2L248.7,268.1z"/>
				<path class="st107" d="M241.3,273.9c0.9-9.6,7-11.2,7-11.2c0.1-4.2,2.4-8.1,5.1-8.3s7.3,1.3,11.2,5.1c4,3.8,7.5,3.8,7.5,10.3
					C263.5,272.1,245.8,276.7,241.3,273.9z"/>
				<path class="st108" d="M267.9,270.9c0.1-1.1,0-2-0.4-2.9c-0.4-0.9-0.9-1.7-1.7-2.4c-2.6-2.5-3.4-2-3.4-2
					c0.9-1.5,1.5-3.2,1.6-4.9c-3.7-3.3-7.7-4.9-10.4-4.5c-0.7,0-1.3,0.3-1.8,0.7c-0.5,0.4-0.9,0.9-1.3,1.5c2.8-1.2,7.7,0.9,8.8,4.5
					c-4,0.8-4,4.1-3.8,6.2c2.6-2,7.9,0.4,8.1,2.6c0.1,0.8,0.1,1.6,0.1,2.4L267.9,270.9z"/>
				<path class="st80" d="M247.5,265.1c-2.4,1.2-2.2,2.5-2.2,2.9s1.6-0.8,2.9-1.5C249.5,265.9,250.7,263.4,247.5,265.1z"/>
				<path class="st81" d="M335.7,266.1c1.8-2.9,8.1-3.4,11.6-0.8L335.7,266.1z"/>
				<path class="st82" d="M262.2,280.8c-0.4-6.1-1.7-12.1-3.8-18c-0.9-2.2-0.9-0.5,0.4,3.7c1.2,4.6,2,9.2,2.6,14L262.2,280.8z"/>
				<path class="st82" d="M266.5,267.5c0.9-2.1,1.2-1.3,0.7-0.4c-2,4.5-3.6,9-4.9,13.6h-0.5C263,276.2,264.6,271.8,266.5,267.5z"/>
				<path class="st63" d="M257.6,280.7c-4.6-3-20.7-4.5-24.6,3.7L257.6,280.7z"/>
				<path class="st82" d="M171.1,285c1.2-0.1,2.2-0.5,2.2-0.8s-1.1-0.4-2.4-0.3c-1.2,0.1-2.2,0.5-2.2,0.8
					C168.8,285,169.9,285.1,171.1,285z"/>
				<path class="st73" d="M300.1,279.6c0.9-1.1,2.8,0,3.8,1.3l-8.8,0.4C295.7,279.7,298,278.8,300.1,279.6z"/>
				<path class="st82" d="M56.1,288.1c-1.1-4.5-2.5-8.8-4.6-12.9C51.7,279.7,53.3,284.2,56.1,288.1z"/>
				<path class="st82" d="M56,288.1c-1.1-4.5-1.5-9.2-1.2-14c0.4-1.5,0.7-2,0.8,1.5c0.1,3.4,1.1,12.4,1.1,12.4L56,288.1z"/>
				<path class="st63" d="M266.1,289.8l-4.2,0.4L266.1,289.8z"/>
				<path class="st73" d="M321.6,260.2h-20.7c-2-2.2-2.2-9.9,3-9.4c0-5.1,7.4-6.6,8.2-1.6c6.5-2.5,9,0.5,8.6,3.8
					C329.6,249.8,328.5,257.6,321.6,260.2z"/>
				<path class="st66" d="M292.1,387.3h-4.8c-0.3-2.2-0.4-4.4-0.4-5.4c0-1.1,0.4-12,0.4-12l3.3,0.5c0,5.5,0.4,11.1,1.2,16.5
					L292.1,387.3z"/>
				<path class="st83" d="M257,370.9c0,2.5,0.5,5.8,0.6,7c0.1,1.2,1,0.6,2-1.2c0.8-1.2,1.3-2.5,1.8-3.9c0.1-1.2,0.1-2.5,0-3.8
					L257,370.9z"/>
				<path class="st83" d="M271.9,374.7l-2.9,6.7l-0.5,1.7l-0.9,4.4h-2.2l1.5-4.5l0.7-1.8c0,0,2.2-5.9,2.4-6.7
					c0.1-0.8-0.5-11.5-0.5-11.5l2.5,0.7C271.9,366.6,271.8,374.7,271.9,374.7z"/>
				<path class="st83" d="M250.2,364.5c0,0-0.8,11.1-1.5,12.4c-0.7,1.3-1.8,6.9-2.8,9.6c0,0.3-0.1,0.7-0.3,0.9h-18v-0.3l1.1-7.4
					v-14.3L250.2,364.5z"/>
				<path class="st84" d="M262.2,342.8c1.2-7.8,2.6-15.4,3.8-17.7s2.1-3.6,4.9-6.5c2.6-2.9,1.1-0.9,1.1,0.8c0,1.7-1.3,2.8-1.8,5.7
					c-0.5,3-1.6,12-1.6,12l-0.9,8.1L262.2,342.8z"/>
				<path class="st66" d="M253.7,382.4c-0.3,0.7-1.6,3-2.8,5.1h-6.7c1.1-1.8,2.2-4.4,2.2-5.1c0-0.8,0-10.2,0-10.2l4.7-2.1
					c0,0,1.1,3.6,1.8,6.3C253.6,379.1,254.4,381.1,253.7,382.4z"/>
				<path class="st85" d="M371.6,362.2v-6.5v-32c-38.3,0.5-63.5,5.3-83.6,10.4c-23,0.8-35.9,3.7-42.6,8.3
					c-23.6,2.5-26.4,5.1-37.9,21.9c-3.3,4.6-0.5,3.3,14.5,1.7c15.1-1.6,38.8-1.7,49.9-1.3c9.1,8.2,15.3,8.2,27.9,5.4
					c10.3-2.2,28.8-5.5,28.8-5.5c18.1-1.6,42.9-2.5,42.9-2.5H371.6z"/>
				<path class="st88" d="M371.4,345.9h-10c0,0-2.1-8.2-16.5-9.5c-14.4-1.3-50.8,7.1-60.6,5.9c-9.8-1.2-14.8,4.9-17.8,11.9
					c-6.5-0.1-13.6,2.2-20.5,10.2v0.4c10-0.3,19.8-0.3,25.9,0c9.1,8.2,15.3,8.2,27.9,5.4c10.3-2.2,28.8-5.5,28.8-5.5
					c18.1-1.6,42.9-2.5,42.9-2.5V346V345.9z"/>
				<path class="st104" d="M274.1,351c3.2-12.5,3.4-20.3,15.1-24.3c0.4-6.6,1.5-13.2,3-19.7c1.2-5.1,2-8.6,9.8-7.1
					c3.8,0.8,14.3,7.7,14.3,7.7s12.1,4.6,15.8,7.3c6.9,4.9,8.2,11.1,9,18.1c0.5,3,0.7,6.2,0.5,9.2C341.5,342.2,313,341.1,274.1,351z
					"/>
				<path class="st109" d="M296.2,315.2c3.2,0.9,5.3,8.4,5.3,12c6.6,0.1,11.8,9.9,11.8,16.1v0.7c9.4-1.2,18.7-1.7,28.3-1.6
					c0-1.5,0-2.9-0.1-4.4c-3-3.6-11.5-3-14.7-0.9l-2.5-8.1c-1.6-5.3-8.3-6.2-16.4-6.2c0,0-1.5-4.8-3.3-9.5c-1.8-4.9-8.8-7-12.3-6.3
					c-0.5,2.4-1.1,5-1.6,7.8C292.5,314.6,294.4,314.6,296.2,315.2z"/>
				<path class="st110" d="M307.9,344.4c3.8-5.8,11-7.8,14.5-5.5c3.6,2.2,5.8,7.4,5.8,7.4s3.4,0,4.2,1.2l-26.3,2.1
					C306.8,346.9,306.8,346,307.9,344.4z"/>
				<path class="st62" d="M290.2,341.8c-5.9-0.3-9.9,6.6-6.2,11.4h10.7C297.7,349.4,295.8,342.2,290.2,341.8z"/>
				<path class="st62" d="M239.2,353.3c3.6-4,9-4.2,11.1-3.2c2.4-2.8,7.7-2.6,7.8,1.3C248.1,352.1,239.1,353.3,239.2,353.3z"/>
				<path class="st75" d="M243.4,325.9l2.4-0.9c0.1,0,0.1-0.1,0-0.1l-2.4-0.9l-1.1-2.4l-1.1,2.4l-2.4,0.9c-0.1,0-0.1,0.1,0,0.1
					l2.4,0.9l1.1,2.4L243.4,325.9z"/>
				<path class="st83" d="M277.1,387.5h-19c2.1-3.2,4.5-4.6,7.1-4.6h3.3C271.9,383.8,275.4,385.1,277.1,387.5z"/>
				<path class="st83" d="M371.5,366.7v13.5c-5.5,3.2-6.5,4-7.8,7.1h-28.6c0.5-1.1,1.2-2.1,1.8-3c2.1-3,2.6-3.4,8.4-6.6
					C353.8,373.5,362.5,369.9,371.5,366.7z"/>
				<path class="st89" d="M249.3,350.9c-0.3,0.3-0.5,0.7-0.7,1.1c-0.2,0.4-0.3,0.9-0.3,1.3c0,0.5,0.1,0.9,0.3,1.3
					c0.1,0.4,0.4,0.8,0.7,1.1c2.7,2.9,4.8,6.1,6.5,9.6l2-2.4c-0.5-3.7-1.5-7.4-2.9-10.9c-0.2-0.5-0.6-1-1-1.3
					c-0.5-0.4-1-0.6-1.5-0.7s-1.1-0.1-1.6,0.1S249.8,350.5,249.3,350.9z"/>
				<path class="st89" d="M248.1,359.1c6.5,1.4,9.7,3.7,9.7,3.7l-2,2.4c-2.6-1-5.4-1.5-8.2-1.4c-0.3,0-0.7-0.1-1-0.2
					s-0.6-0.3-0.8-0.6c-0.2-0.2-0.4-0.6-0.5-0.9c-0.1-0.3-0.2-0.7-0.1-1c0-0.3,0.1-0.6,0.3-0.9c0.2-0.3,0.4-0.5,0.7-0.7
					c0.3-0.2,0.6-0.3,0.9-0.4C247.5,359,247.8,359,248.1,359.1z"/>
				<path class="st89" d="M259.2,357c-0.8,3.3-1.3,6-1.3,6l-3,0.4c-0.3-2.4-0.2-4.9,0.3-7.3c0-0.3,0.1-0.6,0.3-0.8
					c0.2-0.3,0.4-0.5,0.6-0.6c0.3-0.2,0.5-0.3,0.8-0.3c0.3,0,0.5,0,0.8,0.1c0.5,0.1,0.9,0.4,1.2,0.9
					C259.2,355.8,259.3,356.4,259.2,357z"/>
				<path class="st90" d="M256.6,363.6h-0.2h-0.2c-2.8-1-5.7-1.7-8.7-2c-0.3,0-0.5-0.3-0.4-0.5c0-0.1,0-0.2,0.1-0.3s0.2-0.1,0.3-0.1
					c2.7,0.3,5.4,0.9,8.1,1.7c-0.4-1.2-1.5-3.9-4.5-9.2c0-0.2,0-0.3,0-0.4c0-0.1,0.1-0.2,0.2-0.3c0.1,0,0.1-0.1,0.2-0.1
					c0.1,0,0.1,0,0.2,0c0.1,0,0.2,0,0.2,0.1c0.1,0.1,0.1,0.1,0.1,0.2c4.6,8.2,4.8,10.4,4.9,10.5c0,0.1,0,0.2-0.1,0.3
					c0,0.1-0.1,0.2-0.2,0.2V363.6z"/>
				<path class="st90" d="M256.3,363.7c-0.1,0-0.2-0.1-0.3-0.2c-0.1-0.1-0.1-0.3-0.1-0.4c0,0,0.2-4,0.8-7.6c0-0.1,0-0.2,0.1-0.3
					s0.2-0.1,0.3-0.1s0.2,0.1,0.3,0.2s0.1,0.3,0.1,0.4c-0.5,3.7-0.7,7.6-0.7,7.6c0,0.1-0.1,0.2-0.2,0.3S256.4,363.7,256.3,363.7z"/>
				<path class="st91" d="M98.2,316.2"/>
				<path class="st91" d="M99.7,310.8"/>
			</g>
		</g>
	</g>
</g>
</svg>
