<svg width="17" height="33" viewBox="0 0 17 33" fill="none" xmlns="http://www.w3.org/2000/svg">
<path d="M7.62471 1.43323C7.62471 -0.48426 9.4836 -0.471216 9.4836 1.43323C9.81571 4.74797 10.5162 8.01894 11.573 11.1902C12.9298 14.6339 17 14.3991 17 16.4079C17 17.9993 13.8523 17.7123 12.1563 20.9212C10.4604 24.13 9.44286 30.9391 9.44286 32.087C9.44286 32.3291 9.34273 32.5613 9.16462 32.7326C8.98652 32.9038 8.74509 33 8.49321 33C8.24133 33 7.99957 32.9038 7.82146 32.7326C7.64336 32.5613 7.54356 32.3291 7.54356 32.087C7.54356 32.087 7.19058 24.1822 5.61676 21.2212C3.9344 18.0645 0 17.9993 0 16.4079C0 14.2295 4.07022 15.1035 5.42696 11.1902C6.44602 8.00368 7.18114 4.7396 7.62471 1.43323Z" fill="white"/>
</svg>
