<svg width="30" height="58" viewBox="0 0 30 58" xmlns="http://www.w3.org/2000/svg">
<path d="M13.4554 2.51901C13.4554 -0.851123 16.7358 -0.828197 16.7358 2.51901C17.3218 8.34491 18.558 14.0939 20.423 19.6677C22.8173 25.7202 30 25.3075 30 28.8381C30 31.6351 24.4452 31.1308 21.4524 36.7706C18.4596 42.4104 16.6639 54.3778 16.6639 56.3953C16.6639 56.8209 16.4872 57.229 16.1729 57.53C15.8586 57.8309 15.4325 58 14.988 58C14.5435 58 14.1169 57.8309 13.8026 57.53C13.4883 57.229 13.3122 56.8209 13.3122 56.3953C13.3122 56.3953 12.6893 42.502 9.91193 37.2978C6.94306 31.7497 0 31.6351 0 28.8381C0 25.0094 7.18274 26.5455 9.57699 19.6677C11.3753 14.0671 12.6726 8.33021 13.4554 2.51901Z" fill="#7CB8F9"/>
</svg>