<svg width="14" height="27" viewBox="0 0 14 27" fill="none" xmlns="http://www.w3.org/2000/svg">
<path d="M6.2305 1.16268C6.2305 -0.399208 7.77878 -0.390395 7.77878 1.20679C8.05136 3.9047 8.62647 6.56711 9.49412 9.1486C10.616 11.9724 14 11.7959 14 13.4107C14 14.7167 11.4041 14.5225 10.0134 17.108C8.70609 19.5259 7.80663 25.3058 7.80663 26.25C7.80663 26.4489 7.72354 26.6396 7.57574 26.7803C7.42795 26.921 7.22769 27 7.01867 27C6.80966 27 6.60918 26.921 6.46138 26.7803C6.31359 26.6396 6.2305 26.4489 6.2305 26.25C6.2305 26.25 5.9431 19.773 4.63581 17.3463C3.24506 14.7696 -9.53674e-07 14.6991 -9.53674e-07 13.4107C-9.53674e-07 11.6459 3.40256 12.3783 4.50588 9.1486C5.31478 6.53731 5.89175 3.86594 6.2305 1.16268Z" fill="#FEE557"/>
</svg>
