<svg width="20" height="40" viewBox="0 0 20 40" fill="none" xmlns="http://www.w3.org/2000/svg">
<path d="M18.5455 18.7156C16.7511 17.5128 15.2258 15.9447 14.0673 14.112C12.9088 12.2793 12.1427 10.2225 11.8182 8.07339L10.7273 0.733944C10.7273 0.53929 10.6506 0.352608 10.5142 0.214967C10.3779 0.0773256 10.1929 0 10 0C9.80712 0 9.62214 0.0773256 9.48575 0.214967C9.34936 0.352608 9.27274 0.53929 9.27274 0.733944L8.18182 8.07339C7.85734 10.2225 7.0913 12.2793 5.93278 14.112C4.77427 15.9447 3.24892 17.5128 1.45458 18.7156L0.363659 19.2661C0.250753 19.3515 0.159108 19.4623 0.0959917 19.5897C0.0328756 19.7171 0 19.8576 0 20L0.363659 20.7339L1.45458 21.2844C3.24892 22.4872 4.77427 24.0553 5.93278 25.888C7.0913 27.7207 7.85734 29.7775 8.18182 31.9266L9.27274 39.2661C9.27274 39.4607 9.34936 39.6474 9.48575 39.785C9.62214 39.9227 9.80712 40 10 40C10.1929 40 10.3779 39.9227 10.5142 39.785C10.6506 39.6474 10.7273 39.4607 10.7273 39.2661L11.8182 31.9266C12.1427 29.7775 12.9088 27.7207 14.0673 25.888C15.2258 24.0553 16.7511 22.4872 18.5455 21.2844L19.6364 20.7339C19.8243 20.5292 19.9504 20.2746 20 20C20 19.8576 19.9671 19.7171 19.904 19.5897C19.8409 19.4623 19.7493 19.3515 19.6364 19.2661L18.5455 18.7156Z" fill="white"/>
</svg>
