<svg width="10" height="20" viewBox="0 0 10 20" fill="none" xmlns="http://www.w3.org/2000/svg">
<path d="M9.01234 9.01233C8.14037 8.43314 7.39911 7.67805 6.83612 6.79553C6.27313 5.91301 5.90084 4.92254 5.74315 3.88767L5.21301 0.353424C5.21301 0.25969 5.17578 0.169795 5.1095 0.103515C5.04322 0.0372354 4.95333 0 4.85959 0C4.76586 0 4.67597 0.0372354 4.60969 0.103515C4.54341 0.169795 4.50617 0.25969 4.50617 0.353424L3.97603 3.88767C3.81835 4.92254 3.44608 5.91301 2.88309 6.79553C2.3201 7.67805 1.57884 8.43314 0.706866 9.01233L0.176723 9.2774C0.121856 9.31855 0.0773199 9.37191 0.046648 9.43325C0.0159762 9.4946 0 9.56224 0 9.63083L0.176723 9.98425L0.706866 10.2493C1.57884 10.8285 2.3201 11.5836 2.88309 12.4661C3.44608 13.3486 3.81835 14.3391 3.97603 15.374L4.50617 18.9082C4.50617 19.002 4.54341 19.0919 4.60969 19.1581C4.67597 19.2244 4.76586 19.2617 4.85959 19.2617C4.95333 19.2617 5.04322 19.2244 5.1095 19.1581C5.17578 19.0919 5.21301 19.002 5.21301 18.9082L5.74315 15.374C5.90084 14.3391 6.27313 13.3486 6.83612 12.4661C7.39911 11.5836 8.14037 10.8285 9.01234 10.2493L9.54249 9.98425C9.63379 9.88564 9.69507 9.76304 9.71918 9.63083C9.71918 9.56224 9.70321 9.4946 9.67253 9.43325C9.64186 9.37191 9.59735 9.31855 9.54249 9.2774L9.01234 9.01233Z" fill="white"/>
</svg>
