<svg width="7" height="14" viewBox="0 0 7 14" fill="none" xmlns="http://www.w3.org/2000/svg">
<path d="M3.10951 0.605144C3.10951 -0.208823 3.88321 -0.201652 3.88321 0.626658C4.01937 2.03476 4.30804 3.4244 4.74418 4.77179C5.3036 6.23478 7 6.13079 7 6.9842C7 7.66191 5.6959 7.5615 4.99844 8.90257C4.34458 10.1576 3.90867 13.1589 3.90867 13.6465C3.89925 13.7433 3.85365 13.8331 3.78078 13.8984C3.70791 13.9638 3.613 14 3.51454 14C3.41609 14 3.32118 13.9638 3.24831 13.8984C3.17544 13.8331 3.12984 13.7433 3.12042 13.6465C3.12042 13.6465 2.97514 10.2831 2.32127 9.02809C1.62382 7.68701 4.76837e-07 7.66191 4.76837e-07 6.9842C4.76837e-07 6.05907 1.70367 6.44634 2.25946 4.77179C2.66056 3.40887 2.94493 2.01508 3.10951 0.605144Z" fill="white"/>
</svg>
