<svg width="10" height="19" viewBox="0 0 10 19" fill="none" xmlns="http://www.w3.org/2000/svg">
<path d="M8.93089 7.91427C7.94437 7.56412 7.04196 7.01162 6.28153 6.2922C5.52111 5.57278 4.91947 4.70234 4.51523 3.73674L3.14283 0.43697C3.12007 0.346041 3.06212 0.267877 2.98173 0.219673C2.90134 0.17147 2.8051 0.157174 2.71417 0.179933C2.62324 0.202692 2.54508 0.260639 2.49688 0.341029C2.44867 0.421419 2.43438 0.517664 2.45714 0.608593L2.80099 4.1658C2.8993 5.20798 2.77866 6.2592 2.4468 7.25201C2.11494 8.24482 1.5792 9.15729 0.873946 9.93087L0.424028 10.3167C0.380794 10.37 0.350546 10.4325 0.335687 10.4995C0.320827 10.5665 0.321754 10.636 0.338406 10.7025L0.595654 11.0024L1.17429 11.1308C2.1608 11.481 3.06322 12.0335 3.82364 12.7529C4.58407 13.4723 5.18568 14.3428 5.58992 15.3084L6.96233 18.6081C6.98508 18.6991 7.04303 18.7772 7.12342 18.8254C7.20381 18.8736 7.30005 18.8879 7.39098 18.8652C7.48191 18.8424 7.56007 18.7845 7.60827 18.7041C7.65648 18.6237 7.67077 18.5275 7.64801 18.4365L7.30416 14.8793C7.20585 13.8371 7.32652 12.7859 7.65838 11.7931C7.99024 10.8003 8.52598 9.88782 9.23123 9.11424L9.68115 8.72838C9.74578 8.61055 9.77546 8.47674 9.76675 8.34263C9.75009 8.2761 9.71817 8.21436 9.67352 8.1623C9.62887 8.11024 9.57274 8.06928 9.50952 8.04268L8.93089 7.91427Z" fill="#FFE75C"/>
</svg>
