<svg width="19" height="37" viewBox="0 0 19 37" xmlns="http://www.w3.org/2000/svg">
<path d="M8.14404 1.58492C8.14404 -0.546922 10.1704 -0.528142 10.1704 1.64126C10.527 5.32917 11.2831 8.96875 12.4253 12.4977C13.8905 16.3293 18.3335 16.057 18.3335 18.2921C18.3335 20.0671 14.918 19.8041 13.0913 23.3165C11.3788 26.6034 10.2371 34.464 10.2371 35.7413C10.2124 35.9946 10.093 36.2298 9.90213 36.401C9.71128 36.5721 9.4627 36.667 9.20484 36.667C8.94698 36.667 8.69841 36.5721 8.50755 36.401C8.31669 36.2298 8.19728 35.9946 8.17261 35.7413C8.17261 35.7413 7.7921 26.9322 6.07958 23.6452C4.25289 20.1328 3.8147e-06 20.0671 3.8147e-06 18.2921C3.8147e-06 15.8691 4.46204 16.8834 5.91768 12.4977C6.96819 8.92807 7.71298 5.27764 8.14404 1.58492Z" fill="#FEE75C"/>
</svg>