<?xml version="1.0" encoding="utf-8"?>
<!-- Generator: Adobe Illustrator 27.6.1, SVG Export Plug-In . SVG Version: 6.00 Build 0)  -->
<svg version="1.1" id="Layer_1" xmlns="http://www.w3.org/2000/svg" xmlns:xlink="http://www.w3.org/1999/xlink" x="0px" y="0px"
	 viewBox="0 0 823 500" style="enable-background:new 0 0 823 500;" xml:space="preserve">
<style type="text/css">
	.st0{clip-path:url(#SVGID_00000094586106408442733520000014878787168046542269_);}
	.st1{fill:#FFE55C;}
	.st2{fill:none;stroke:#FFC419;stroke-width:4.0185;stroke-linecap:round;stroke-miterlimit:10;}
	.st3{fill:none;stroke:#FF601A;stroke-width:6;stroke-linecap:round;stroke-miterlimit:10;stroke-dasharray:18.69,18.69;}
	.st4{fill:none;stroke:#FF601A;stroke-width:9;stroke-linecap:round;stroke-miterlimit:10;stroke-dasharray:60,17;}
	.st5{fill:none;stroke:#FFC419;stroke-width:6;stroke-linecap:round;stroke-miterlimit:10;stroke-dasharray:18.69,18.69;}
	.st6{fill:none;stroke:#FFE55C;}
	.st7{fill:url(#SVGID_00000060025965400811628210000015042084529486511256_);}
	.st8{fill:#CF1581;}
	.st9{fill:url(#SVGID_00000148652844738641086280000011307596086329776796_);}
	.st10{fill:#3442D7;}
	.st11{fill:url(#SVGID_00000031178537110932662650000001843716775645066405_);}
	.st12{fill:#5865F0;}
	.st13{fill:none;stroke:#0C1AAB;stroke-width:4.0185;stroke-linecap:round;stroke-miterlimit:10;}
	.st14{fill:#FF78B7;}
	.st15{fill:url(#SVGID_00000098942231912403441880000001034140672299180674_);}
	.st16{fill:#FFFFFF;}
	.st17{fill:#8AD7FF;}
	.st18{fill:none;stroke:#29CA7A;stroke-width:4.0185;stroke-linecap:round;stroke-miterlimit:10;}
	.st19{enable-background:new    ;}
</style>
<g>
	<g>
		<defs>
			<rect id="SVGID_1_" width="823" height="500"/>
		</defs>
		<clipPath id="SVGID_00000136375565056045376080000012202481742993857185_">
			<use xlink:href="#SVGID_1_"  style="overflow:visible;"/>
		</clipPath>
		<g style="clip-path:url(#SVGID_00000136375565056045376080000012202481742993857185_);">
			<path class="st1" d="M788,402.2l-145.6,90.4H183.5L41.1,402.2l27.3-132.8l92.1,49.4l333.4-0.5l106.5-48.9L788,402.2z"/>
			<path class="st2" d="M641.7,490.4L492.9,320.2"/>
			<path class="st2" d="M183.8,491.2l-23.1-169.4"/>
			<path class="st3" d="M685.3,342.6c-64.8,6.4-115,102.1-201.2,12.8c-27-28.6-120.8-31.3-72,66.9"/>
			<path class="st4" d="M454.1,447.3l-49.9,1.1"/>
			<path class="st4" d="M421.1,470.1l14.2-43.6"/>
			<path class="st5" d="M736.6,375.5c0,0-109.6-26-55.7,39.1c48.2,58.3-145.5,64.3-194.1,12.8c-27-28.6-191.6-36.7-142.8,61.5"/>
			<path class="st5" d="M264.5,326.9c0,0-22.5,48.5,91.4,43c99.4-4.8-5.9,61.6-116,30.4c-98.8-27.9-105.3-32.8-95.2,0
				c6,19.8-47.9,32.5-93.5,5.6"/>
			<path class="st5" d="M528.2,305.3c0,0,64.2,32.7,27,48C361.6,387,462.7,312,373.9,325.7"/>
			<path class="st5" d="M132.3,308.8c-0.1,3,37.9,87.9-73.7,30.7"/>
			<path class="st6" d="M160.5,319.5h-0.2l-0.2-0.1L69,270.6L42.1,401.8l141.6,89.9h458.4l144.4-89.6L600.3,270.3l-106,48.7
				l-0.2,0.1h-0.2L160.5,319.5z"/>
			
				<linearGradient id="SVGID_00000135668807409200754720000001767744195340335263_" gradientUnits="userSpaceOnUse" x1="352.1252" y1="283.9834" x2="291.5558" y2="455.0777" gradientTransform="matrix(-1.1487 0 0 1 758.4966 -38)">
				<stop  offset="0" style="stop-color:#E9459D"/>
				<stop  offset="3.847620e-02" style="stop-color:#EA489E"/>
				<stop  offset="0.7087" style="stop-color:#FF78B7"/>
			</linearGradient>
			<path style="fill:url(#SVGID_00000135668807409200754720000001767744195340335263_);" d="M373,274.5l21.3,81.2
				c0.7,2.9,3.1,5.4,5.9,6.4c10.5,3.4,34.2,12.2,26.1,17c-10.2,6.1-39-2.8-43-10.2c-5.2-9.2-33.6-95.6-33.6-95.6L373,274.5z"/>
			<path class="st8" d="M378.7,296.1c-1.5,5.3-11.6,7.7-19.8,4.5c-4.8-14.3-8.5-25.6-9.1-27.3l23.4,1.4L378.7,296.1z"/>
			
				<linearGradient id="SVGID_00000042008974093929625560000005301663143079992253_" gradientUnits="userSpaceOnUse" x1="391.372" y1="325.5278" x2="412.9091" y2="425.2998" gradientTransform="matrix(-1.1487 0 0 1 758.4966 -38)">
				<stop  offset="0" style="stop-color:#E9459D"/>
				<stop  offset="7.149660e-02" style="stop-color:#EA489E"/>
				<stop  offset="0.7087" style="stop-color:#FF78B7"/>
			</linearGradient>
			<path style="fill:url(#SVGID_00000042008974093929625560000005301663143079992253_);" d="M316.2,274.7l-26.3,100.4
				c-1,3.7-3.7,6.6-7.4,7.9c-12.9,4.3-42.3,15-32.2,21c12.7,7.6,48.2-3.6,53.2-12.7c6.4-11.4,41.6-118.2,41.6-118.2L316.2,274.7z"/>
			<path class="st8" d="M310.1,298.3l6.1-23.6l28.9-1.6c0,0-3.9,11.8-9.3,28C329.1,306.4,313.9,301.4,310.1,298.3z"/>
			<path class="st10" d="M367.6,95.6c0,0-31.5,13.5-57.9,2.7c-7.1-2.9-13.4,5.9-8.1,11.6c5.8,6.3,14.4,11.4,27.3,12.3L367.6,95.6z"
				/>
			
				<linearGradient id="SVGID_00000119834119329561151780000017640540412462553256_" gradientUnits="userSpaceOnUse" x1="361.264" y1="310.1259" x2="334.8618" y2="144.7092" gradientTransform="matrix(-1.1487 0 0 1 758.4966 -38)">
				<stop  offset="0.2968" style="stop-color:#3442D7"/>
				<stop  offset="0.3425" style="stop-color:#3A48DB"/>
				<stop  offset="0.5455" style="stop-color:#505DEA"/>
				<stop  offset="0.676" style="stop-color:#5865F0"/>
			</linearGradient>
			<path style="fill:url(#SVGID_00000119834119329561151780000017640540412462553256_);" d="M381,238.8c0,0,96.6,5,105.5-72.3
				c9-78.3-82.6-105.2-130.8-64.6c-25,21-70.8,13.9-96.1,3.7c-6.6-2.7-13,4.3-9.6,10.6c10.5,19.5,35.8,44.2,95.5,31.3
				c61.4-13.3,10.2,45.6-17.7,40.6L381,238.8z"/>
			<path class="st12" d="M435.3,157.8c0,0-11.1-17.8-38-7.6c-32.6,12.4-55.1,6.5-69.3-2c-5.7-3.4-3.1-12,3.6-11.8
				c11.6,0.4,26.6-2.9,43-16.7c16.1-13.4,31.5-13.2,42.8-9.8"/>
			<path class="st13" d="M435.3,157.8c0,0-11.1-17.8-38-7.6c-32.6,12.4-55.1,6.5-69.3-2c-5.7-3.4-3.1-12,3.6-11.8
				c11.6,0.4,26.6-2.9,43-16.7c16.1-13.4,31.5-13.2,42.8-9.8"/>
			<path class="st14" d="M542.4,203.2c0.6,2,0.7,3.2,0.7,3.2c43.2,32.9,2.6,91.3,2.6,91.3c-8-9.6-17.7-18.6-29.6-25.4
				C509.5,214.1,527.6,203.1,542.4,203.2z"/>
			
				<linearGradient id="SVGID_00000090997196994073177130000005606759174666392489_" gradientUnits="userSpaceOnUse" x1="390.3413" y1="354.2762" x2="333.9637" y2="47.6817" gradientTransform="matrix(-1.1487 0 0 1 758.4966 -38)">
				<stop  offset="9.475340e-02" style="stop-color:#57F085"/>
				<stop  offset="0.1771" style="stop-color:#5EF28A"/>
				<stop  offset="0.2976" style="stop-color:#72F797"/>
				<stop  offset="0.4303" style="stop-color:#8FFFAB"/>
			</linearGradient>
			<path style="fill:url(#SVGID_00000090997196994073177130000005606759174666392489_);" d="M213.4,8.5
				c36.9,1.5,50.8,35.5,43.2,60.8c-8,26.4-19.8,39.8-22.3,53.6c-2.3,13.4,7.1,26.4,20.7,27c22.4,1.1,56.1-21.5,87.8-17.3
				c47,6.4,33,38,109.1,25.3c69.2-11.6,86.9,32.7,90.5,45c-14.9-0.1-33,10.9-26.3,68.9c-26.1-14.9-62.7-19.2-115,5.2
				C324.9,312.6,254,251.7,254,251.7l-21.5-64.6c0,0-94.3-29-76.1-129.3C161.4,30.2,181.7,7.3,213.4,8.5z"/>
			<path class="st12" d="M186.6,194.7c-4.8-6,0.9-14.7,8.4-12.9c19.2,4.9,52.3,7.9,86.9-13.6c53.2-32.9,112.5,8.5,98.9,58.3
				c-15.2,55.8-116.7,78.5-149.6,17.7c0,0-27.9-7.6-25.3-35.5C205.8,208.9,195.1,205.3,186.6,194.7z"/>
			<path class="st16" d="M478.4,243c-7.7,0-14-9.9-14-22.1c0-12.2,6.3-22.1,14-22.1s14,9.9,14,22.1S486.1,243,478.4,243z"/>
			<path d="M478.6,248.1c-5.8,0-10.5-7.4-10.5-16.6s4.7-16.6,10.5-16.6s10.5,7.4,10.5,16.6S484.4,248.1,478.6,248.1z"/>
			<path class="st8" d="M527.9,188.6c22.9-5,25.3,27.9,25.3,27.9s-12.7-20.3-27.9,0.6c-4.4,6.1-5.5,14.1-6.1,21.8
				c-0.7,9.2-1,23.5,2.5,36.7c-2.3-1.6-4.8-3.1-7.4-4.4C506.9,244.5,500.4,194.7,527.9,188.6z"/>
			<path class="st13" d="M258.9,222.5c0,0-32.7,2.6-53.2-15.2"/>
			<path class="st13" d="M326.5,253.3c-21.9,6.8-63.9,14.7-94.6-10.4"/>
			<path class="st1" d="M606.6,228.2c1.6-1,3.1-2.5,4.1-4.1c1.1-1.6,1.7-3.4,2-5.4l1-6.5c0-0.1,0.1-0.2,0.2-0.4
				c0.1-0.1,0.2-0.1,0.4-0.1c0.1,0,0.4,0.1,0.4,0.1c0.1,0.1,0.2,0.2,0.2,0.4l1,6.5c0.2,2,1,3.7,2,5.4c1.1,1.6,2.5,2.9,4.1,4.1
				l0.9,0.5c0.1,0.1,0.1,0.1,0.2,0.2c0,0.1,0.1,0.2,0.1,0.4c0,0.1,0,0.2-0.1,0.4c0,0.1-0.1,0.1-0.2,0.2l-0.9,0.5
				c-1.6,1.1-3,2.5-4.1,4.1s-1.7,3.4-2,5.4l-1,6.5c0,0.1-0.1,0.2-0.2,0.4s-0.2,0.1-0.4,0.1c-0.1,0-0.2,0-0.4-0.1
				c-0.1-0.1-0.2-0.2-0.2-0.4l-1-6.5c-0.2-2-1-3.7-2-5.4c-1.1-1.6-2.5-2.9-4.1-4.1l-0.9-0.5c-0.1-0.1-0.1-0.1-0.2-0.2
				c0-0.1-0.1-0.2-0.1-0.4c0-0.1,0-0.2,0.1-0.4c0-0.1,0.1-0.1,0.2-0.2L606.6,228.2z"/>
			<path class="st1" d="M127.1,245.1c1.6-1,3.1-2.5,4.1-4.1c1.1-1.6,1.7-3.4,2-5.4l1-6.5c0-0.1,0.1-0.2,0.2-0.4
				c0.1-0.1,0.2-0.1,0.4-0.1c0.1,0,0.4,0.1,0.4,0.1c0.1,0.1,0.2,0.2,0.2,0.4l1,6.5c0.2,2,1,3.7,2,5.4c1.1,1.6,2.5,2.9,4.1,4.1
				l0.9,0.5c0.1,0.1,0.1,0.1,0.2,0.2c0,0.1,0.1,0.2,0.1,0.4c0,0.1,0,0.2-0.1,0.4c0,0.1-0.1,0.1-0.2,0.2l-0.9,0.5
				c-1.6,1.1-3,2.5-4.1,4.1s-1.7,3.4-2,5.4l-1,6.5c0,0.1-0.1,0.2-0.2,0.4c-0.1,0.1-0.2,0.1-0.4,0.1c-0.1,0-0.2,0-0.4-0.1
				c-0.1-0.1-0.2-0.2-0.2-0.4l-1-6.5c-0.2-2-1-3.7-2-5.4c-1.1-1.6-2.5-2.9-4.1-4.1l-0.9-0.5c-0.1-0.1-0.1-0.1-0.2-0.2
				c0-0.1-0.1-0.2-0.1-0.4c0-0.1,0-0.2,0.1-0.4c0-0.1,0.1-0.1,0.2-0.2L127.1,245.1z"/>
			<path class="st14" d="M641.7,285.3c2.6-1.6,4.7-3.8,6.4-6.3c1.6-2.6,2.7-5.4,3.1-8.4l1.6-10.3c0-0.2,0.1-0.5,0.4-0.6
				c0.1-0.1,0.4-0.2,0.6-0.2s0.5,0.1,0.6,0.2s0.2,0.4,0.4,0.6l1.6,10.3c0.5,2.9,1.5,5.9,3.2,8.4c1.6,2.6,3.8,4.7,6.3,6.4l1.4,0.9
				c0.1,0.1,0.2,0.2,0.4,0.4c0.1,0.1,0.1,0.4,0.1,0.5s0,0.4-0.1,0.5s-0.2,0.2-0.4,0.4l-1.4,0.9c-2.6,1.6-4.7,3.8-6.3,6.4
				s-2.7,5.4-3.2,8.4l-1.6,10.3c0,0.2-0.1,0.5-0.4,0.6c-0.1,0.1-0.4,0.2-0.6,0.2s-0.5-0.1-0.6-0.2c-0.2-0.1-0.2-0.4-0.4-0.6
				l-1.6-10.3c-0.4-2.9-1.5-5.9-3.1-8.4c-1.6-2.6-3.8-4.7-6.4-6.3l-1.4-0.9c-0.1-0.1-0.2-0.2-0.4-0.4c-0.1-0.1-0.1-0.4-0.1-0.5
				s0-0.4,0.1-0.5s0.2-0.2,0.4-0.4L641.7,285.3z"/>
			<path class="st14" d="M137.7,191.8c2.6-1.6,4.7-3.8,6.4-6.3c1.6-2.6,2.7-5.4,3.1-8.4l1.6-10.3c0-0.2,0.1-0.5,0.4-0.6
				c0.1-0.1,0.4-0.2,0.6-0.2s0.5,0.1,0.6,0.2c0.1,0.1,0.2,0.4,0.4,0.6l1.6,10.3c0.5,2.9,1.5,5.9,3.2,8.4c1.6,2.6,3.8,4.7,6.3,6.4
				l1.4,0.9c0.1,0.1,0.2,0.2,0.4,0.4c0.1,0.1,0.1,0.4,0.1,0.5s0,0.4-0.1,0.5s-0.2,0.2-0.4,0.4l-1.4,0.9c-2.6,1.6-4.7,3.8-6.3,6.4
				s-2.7,5.4-3.2,8.4l-1.6,10.3c0,0.2-0.1,0.5-0.4,0.6c-0.1,0.1-0.4,0.2-0.6,0.2s-0.5-0.1-0.6-0.2c-0.2-0.1-0.2-0.4-0.4-0.6
				l-1.6-10.3c-0.4-2.9-1.5-5.9-3.1-8.4c-1.6-2.6-3.8-4.7-6.4-6.3l-1.4-0.9c-0.1-0.1-0.2-0.2-0.4-0.4c-0.1-0.1-0.1-0.4-0.1-0.5
				s0-0.4,0.1-0.5s0.2-0.2,0.4-0.4L137.7,191.8z"/>
			<path class="st17" d="M163.7,270.1c2.6-1.6,4.7-3.8,6.4-6.3c1.6-2.6,2.7-5.4,3.1-8.4l1.6-10.3c0-0.2,0.1-0.5,0.4-0.6
				c0.1-0.1,0.4-0.2,0.6-0.2s0.5,0.1,0.6,0.2c0.1,0.1,0.2,0.4,0.4,0.6l1.6,10.3c0.5,2.9,1.5,5.9,3.2,8.4c1.6,2.6,3.8,4.7,6.3,6.4
				l1.4,0.9c0.1,0.1,0.2,0.2,0.4,0.4s0.1,0.4,0.1,0.5s0,0.4-0.1,0.5s-0.2,0.2-0.4,0.4l-1.4,0.9c-2.6,1.6-4.7,3.8-6.3,6.4
				s-2.7,5.4-3.2,8.4l-1.6,10.3c0,0.2-0.1,0.5-0.4,0.6c-0.1,0.1-0.4,0.2-0.6,0.2s-0.5-0.1-0.6-0.2c-0.2-0.1-0.2-0.4-0.4-0.6
				l-1.6-10.3c-0.4-2.9-1.5-5.9-3.1-8.4c-1.6-2.6-3.8-4.7-6.4-6.3l-1.4-0.9c-0.1-0.1-0.2-0.2-0.4-0.4c-0.1-0.1-0.1-0.4-0.1-0.5
				s0-0.4,0.1-0.5s0.2-0.2,0.4-0.4L163.7,270.1z"/>
			<path class="st18" d="M255.2,43.6c0,0-40.6,0-48.2,63.4"/>
			<path class="st18" d="M201.1,11.8c0,0-40.6,50.8-17.7,111.6"/>
		</g>
	</g>
</g>
<g class="st19">
	<path class="st12" d="M530.2,160.7c-0.3-1.4-0.1-2.8,0.7-4.2c0.8-1.4,1.8-2.3,3.1-2.6s2.6-0.1,3.9,0.8c1.3,0.9,2.1,2,2.4,3.4
		c0.3,1.4,0.1,2.8-0.7,4.2c-0.8,1.4-1.8,2.3-3.1,2.6c-1.3,0.3-2.6,0.1-3.9-0.8C531.3,163.2,530.5,162.1,530.2,160.7z M541.2,141.3
		c2.7,1.3,4.9,1.8,6.6,1.7c1.7-0.2,3-1.1,4-2.7c0.7-1.3,1-2.6,0.7-3.9c-0.3-1.3-1.1-2.3-2.4-3.2c-1.3-0.9-2.7-1.2-4.1-1.1
		c-1.4,0.1-2.9,0.5-4.6,1.3l-2.3-7.6c2.2-1.1,4.6-1.6,7.2-1.6c2.6,0,5.3,0.9,8,2.7c2.1,1.4,3.7,3,4.8,5s1.6,4,1.6,6.1
		c0,2.2-0.6,4.3-1.8,6.4c-1.6,2.9-3.7,4.6-6.2,5.2c-2.5,0.6-5.1,0.3-7.9-0.8l-2.4,3.8l-5.3-3.5L541.2,141.3z"/>
</g>
<g class="st19">
	<path class="st1" d="M524.5,133c1.8,0.1,3.2-0.1,4.2-0.6c1-0.5,1.5-1.3,1.7-2.5c0.2-0.9,0.1-1.8-0.4-2.4c-0.4-0.7-1.1-1.1-2-1.3
		s-1.8-0.1-2.6,0.3c-0.8,0.4-1.6,1-2.4,1.8l-2.8-3.9c1.1-1.1,2.3-2,3.9-2.6c1.5-0.6,3.2-0.7,5.2-0.3c1.5,0.3,2.7,0.9,3.8,1.8
		c1,0.9,1.7,1.9,2.1,3.2c0.4,1.3,0.5,2.6,0.2,4.1c-0.4,2-1.2,3.5-2.5,4.4c-1.3,0.9-2.9,1.4-4.7,1.4l-0.6,2.8l-3.7-0.8L524.5,133z
		 M521.9,146.7c-0.5-0.7-0.6-1.6-0.4-2.6c0.2-1,0.6-1.7,1.3-2.2c0.7-0.5,1.5-0.6,2.4-0.4c0.9,0.2,1.6,0.7,2.1,1.4
		c0.5,0.7,0.6,1.6,0.4,2.6c-0.2,1-0.6,1.7-1.3,2.2c-0.7,0.5-1.5,0.6-2.4,0.5C523.1,147.9,522.4,147.4,521.9,146.7z"/>
</g>
<g class="st19">
	<path class="st14" d="M547.5,161.4c0.3-0.8,0.9-1.4,1.8-1.8c0.9-0.4,1.7-0.4,2.4,0c0.7,0.4,1.3,1,1.6,1.9c0.3,0.9,0.3,1.8,0,2.6
		c-0.3,0.8-0.9,1.4-1.8,1.8c-0.9,0.4-1.7,0.4-2.4,0c-0.7-0.4-1.3-1-1.6-1.9C547.2,163.1,547.2,162.2,547.5,161.4z M559.6,156.4
		c0.9,1.7,1.8,2.9,2.7,3.5c0.9,0.6,1.9,0.7,2.9,0.3c0.8-0.4,1.4-0.9,1.7-1.6c0.3-0.7,0.3-1.6-0.1-2.5c-0.3-0.9-0.9-1.7-1.6-2.2
		c-0.7-0.5-1.6-0.9-2.7-1.2l1.5-4.6c1.4,0.4,2.8,1.1,4.1,2.2c1.3,1.1,2.3,2.6,3,4.6c0.6,1.5,0.8,3,0.6,4.4c-0.1,1.4-0.6,2.6-1.3,3.6
		c-0.8,1-1.8,1.8-3.1,2.4c-1.8,0.8-3.4,0.8-4.8,0c-1.4-0.7-2.6-1.9-3.6-3.6l-2.5,0.9l-1.4-3.8L559.6,156.4z"/>
</g>
</svg>
