<?xml version="1.0" encoding="utf-8"?>
<svg width="480" height="330" viewBox="0 0 480 330" fill="none" xmlns="http://www.w3.org/2000/svg">
  <g transform="matrix(-1.364819, 0, 0, 1.364819, 590.1604, 10.713669)" style="">
    <g>
      <path class="st0" d="M400,7.2c-18.5-2.5-36,0.1-50.4,4.2c-17.6,5-30.5,12.3-34.1,14.8l16.2,14.2l1.2,1L346.1,53l9.9,8.6 c1.7-2,3.1-4.2,4.1-6.6c2.8-5.7,4-12,3.5-18.3l0,0c0.5-0.3,1.4-0.9,2.8-1.6c7.7-4.4,27.8-15.4,34.2-20.3c1.1-0.8,3.6-2.6,3.6-4.3 S402.8,7.6,400,7.2z" style="fill: rgb(71, 142, 176);"/>
      <path class="st1" d="M350,46.1c1-2.6,1.5-5.3,1.4-8.1c0-3.8-1.4-7.5-3.9-10.3c4.5-6.6,4.8-12.6,2.1-16.3 c-17.6,5-30.5,12.3-34.1,14.8L346.1,53l9.9,8.6c1.7-2,3.1-4.2,4.1-6.6L350,46.1z" style="fill: rgb(255, 218, 162);"/>
      <path class="st2" d="M366.4,35.1c-1.4,0.7-2.3,1.3-2.8,1.6c-0.4-3.5-1.2-6.9-2.4-10.1c-0.3-0.8,0.1-1.6,0.8-2c0.8-0.3,1.6,0,2,0.8 c0,0,0,0,0,0C365.2,28.5,366,31.8,366.4,35.1z" style="fill: rgb(0, 143, 183);"/>
      <path class="st3" d="M341.8,20.7c-0.9,2.9-2.7,5.4-5.1,7.2c-2.5,2-5.7,2.7-8.8,2.1c-1-0.3-1.9-0.9-2.5-1.7 c-2.1-2.9-0.5-7.8,3.5-10.7s10.1-4.2,12.4-1.3C342.2,17.4,342.2,19,341.8,20.7z" style="fill: rgb(255, 120, 185);"/>
      <path class="st4" d="M341.8,20.7c-0.9,2.9-2.7,5.4-5.1,7.2c-2.5,2-5.7,2.7-8.8,2.1c-0.7-2.5,0.7-5.8,3.6-8l0.9-0.6 c1.5-0.9,3.1-1.5,4.8-1.8C339,19.4,340.7,19.6,341.8,20.7z" style="fill: rgb(255, 46, 162);"/>
      <circle class="st5" cx="334.3" cy="19.2" r="2.9" style="fill: rgb(255, 255, 255);"/>
      <path class="st6" d="M418.9,10.5l-5.2,4.9c-1.9,1.7-4.7,2.1-6.9,0.8l-4-2.4c-2.2-1.2-2.9-4-1.7-6.1c0.1-0.2,0.3-0.5,0.5-0.7l3-3.7 c1.6-1.9,4.3-2.6,6.6-1.6l6.6,2.8c1.1,0.5,1.9,1.5,2.1,2.7C420.1,8.4,419.7,9.6,418.9,10.5z" style="fill: rgb(40, 89, 209);"/>
      <path class="st7" d="M418.9,10.5l-5.2,4.9c-0.7,0.7-1.6,1.2-2.6,1.4l-1-5.5c-0.2-1.2,0.6-2.3,1.8-2.6l8-1.5 C420.1,8.4,419.7,9.6,418.9,10.5z" style="fill: rgb(40, 40, 198);"/>
    </g>
    <g>
      <path class="st8" d="M353.1,75.2c-7.5,1.5-12.4,8.7-10.9,16.2c0,0,0,0,0,0l27.1-5.3C367.8,78.6,360.6,73.8,353.1,75.2z" style="fill: rgb(215, 218, 221);"/>
      <path class="st8" d="M284.1,76.2c0,7.6,6.2,13.8,13.8,13.8V62.4C290.3,62.4,284.1,68.6,284.1,76.2z" style="fill: rgb(215, 218, 221);"/>
    </g>
    <linearGradient id="SVGID_1_" gradientUnits="userSpaceOnUse" x1="335.75" y1="133.8756" x2="335.75" y2="54.6456" gradientTransform="matrix(1 0 0 -1 0 231.2756)">
      <stop offset="0.42" style="stop-color:#4A6792"/>
      <stop offset="0.67" style="stop-color:#313F76"/>
      <stop offset="0.87" style="stop-color:#313F76"/>
    </linearGradient>
    <polygon class="st9" points="304.5,91.4 302.2,175.2 368,175.2 369.3,89.7 &#9;" style="fill: url(&quot;#SVGID_1_&quot;);"/>
    <path class="st0" d="M305.3,159.9c10.2,0,21-5.7,28.8-14.2c4-4.4,11.7-15.3,17.5-25.2s22.1-38.8,22.1-38.8L300,91.4l-22.9,57.2 L305.3,159.9z" style="fill: rgb(71, 142, 176);"/>
    <path class="st0" d="M297.1,141.5c0,0,17.1-4.5,31-23.7l-38-0.9L297.1,141.5z" style="fill: rgb(71, 142, 176);"/>
    <g>
      <path class="st10" d="M194.9,152.5c0.1,14.3,2.7,35.6,6.9,39.2s34.2,18.5,49.3,22.5c15.1,4,66.3-6.8,89.1-14.6L194.9,152.5z" style="fill: rgb(49, 63, 118);"/>
      <path d="M200.1,154.3c-0.6,8.5,2,27.8,4.3,32.5c0,0,8.1,1.3,8.7-6.8s-3.5-22.6-3.5-22.6L200.1,154.3z"/>
      <path class="st11" d="M213.1,165.1l-42.3-16.6c-0.6-0.3-1.4-0.2-2,0.1c-4.3,2.3-20.3,11.4-24,12.1s-6.6-1.7-9.6-4l-1.8-4.3 l-1.8-3.1l-2.2,0.6c-5.4,1.4-19.8,5.1-23.7,4.8c-2.7,0.2-5.1-1.5-5.8-4.1c-0.1-0.2-0.1-0.5-0.2-0.7c-0.3-2.1,0.9-4.3,4.5-5.3 l15.4-4.6l12.5-3.8c10.6-3.2,21.3-10,21.3-10l-14.4-9.4h-0.1l-0.2-0.2h0.1l-0.4-0.3c-1.4-1-3.3-2.5-3.3-4.7 c-0.2-2.3,1.5-4.4,3.8-4.6c0.2,0,0.5,0,0.7,0c2.1,0,10.8,3.3,24.5,9.1l7.1,3c5.9,2.5,9.7,4.1,13.4,6c7.4,3.8,19.9,10.9,19.9,10.9 L213.1,165.1z" style="fill: rgb(214, 117, 107);"/>
      <path class="st12" d="M130.5,139.3l-0.6,5.7l-0.5,4.9c-5.4,1.4-19.8,5.1-23.7,4.8c-2.7,0.2-5.1-1.5-5.8-4.1 c-0.1-0.2-0.1-0.5-0.2-0.7c-0.3-2.1,0.9-4.3,4.5-5.3l15.4-4.6L130.5,139.3z" style="fill: rgb(198, 92, 71);"/>
      <path class="st13" d="M171.2,119.2c-0.7,3.2-1.9,8.3-3.7,14.1s-4.1,6.4-16.3,8.2l-21.3,3.5c-11.4,2-23.8,4-30.2,4.9 c-0.3-2.1,0.9-4.3,4.5-5.3l15.4-4.6l12.5-3.8c10.6-3.2,21.3-10,21.3-10l-14.4-9.4h-0.1l-0.2-0.2h0.1l-0.4-0.3 c-1.4-1-3.3-2.5-3.3-4.7c-0.2-2.3,1.5-4.4,3.8-4.6c0.2,0,0.5,0,0.7,0c2.1,0,10.8,3.3,24.5,9.1L171.2,119.2z" style="fill: rgb(221, 175, 175);"/>
      <path class="st12" d="M154.4,142.1v9.9l-7.6,5.4l-8.9,1.3c0,0-20.9-15.2-23.5-17.4s-8.5-6.9-8.5-9.6s3.7-6.6,6.4-6s7,2.6,10.4,4.6 s6,3.8,7,4.5l0.3,0.2c-1.7-2.3-3.1-4.8-4.3-7.4c-1-2.4,3.5-5.3,6.1-5C136.3,123,143.3,130.6,154.4,142.1z" style="fill: rgb(198, 92, 71);"/>
      <path class="st14" d="M141.9,152.5c-0.3,0.2-0.6,0.4-1,0.4c-0.4,0-0.8-0.2-1.1-0.6c-7.2-8.2-15.2-19.3-17.1-22 c3.3,1.9,6,3.8,7,4.5c3.4,4.6,8,10.6,12.4,15.6C142.6,151,142.5,152,141.9,152.5z" style="fill: rgb(132, 40, 37);"/>
    </g>
    <path class="st11" d="M316.6,25.5c0,0-27.4,16.8-26.2,35.9c0.5,4.2,1.9,8.2,4.2,11.8l32.8,5.4l16.6-29L316.6,25.5z" style="fill: rgb(214, 117, 107);"/>
    <path class="st8" d="M356.7,60.7l-13.9-12.1L325.9,77l-7-6.6c-7.6-7.2-19.6-6.9-26.9,0.7c-1,1.1-1.9,2.2-2.6,3.5l-8,13.4 c-7.1,12.8-3.1,28.9,9.2,36.9c12.9,8.3,30.2,4.2,38.6-8.6L357,74.1C361.2,67.8,361.9,65.3,356.7,60.7z" style="fill: rgb(215, 218, 221);"/>
    <path class="st11" d="M353.7,67.8c0.3-2.5-3.8-5.7-9.6-5.4l-2.2,13.5C347.9,74.6,353.3,70.5,353.7,67.8z" style="fill: rgb(214, 117, 107);"/>
    <g>
      <path class="st8" d="M330.1,45.5c0,3.1-4,3.4-8.8,3.4s-8.9-0.3-8.9-3.4s4-5.6,8.9-5.6S330.1,42.4,330.1,45.5z" style="fill: rgb(215, 218, 221);"/>
      <path class="st8" d="M306.5,45.5c0,3.1-4,3.4-8.8,3.4s-8.9-0.3-8.9-3.4s4-5.6,8.9-5.6S306.5,42.4,306.5,45.5z" style="fill: rgb(215, 218, 221);"/>
      <ellipse cx="319" cy="54.4" rx="2.5" ry="3.5"/>
      <ellipse cx="297.5" cy="54.4" rx="2.5" ry="3.5"/>
      <path class="st15" d="M313.8,65.5c0.4,4-5.2,5.7-9.3,5.7s-7.8-2-7.8-5.4s5-8.9,9-8.2S313.6,62.8,313.8,65.5z" style="fill: rgb(200, 60, 56);"/>
    </g>
    <path d="M318.9,80.2c-0.4,0.8-0.9,1.6-1.4,2.3c-3.2,4.4-9,8-12.6,7.1c-0.6-0.1-1.1-0.3-1.5-0.8c-1.3-1.3-0.8-3.8-2.3-5.5 s-3.3-3.7-2.1-4.5s1.9,0,3.3,0.5c0.8,0.4,1.6,0.6,2.5,0.7c4.1,0.4,8.4-1.4,11.1-2.5h0.3C318.8,76.4,319.7,78.6,318.9,80.2z"/>
    <path class="st4" d="M317.5,82.5c-3.2,4.4-9,8-12.6,7.1c-0.6-0.1-1.1-0.3-1.5-0.8c1.5-2.9,4.1-5.1,7.2-6.1 C312.8,81.9,315.2,81.9,317.5,82.5z" style="fill: rgb(255, 46, 162);"/>
    <path class="st5" d="M315.9,77.5c-1.9,2.3-4.6,3.8-7.6,4.3c-3.3,0.5-5.3-0.8-6-2.5c0.8,0.4,1.6,0.6,2.5,0.7 C308.9,80.4,313.2,78.6,315.9,77.5z" style="fill: rgb(255, 255, 255);"/>
    <path class="st3" d="M311.6,171.4l-47.1,11.1c0.9,2.3,0.4,4.9-1.2,6.8c-1.6,2.2-4.2,3.4-6.9,3.5H250c-2.6,0-4.7-1.3-5.4-3.5 c-0.1,0-0.1,0-0.1-0.1v0l-3.5-8.6l-31.6-9.2c-0.7-0.1-0.9-0.4-1.2-1l-21.5-53.3l5-1.6l37.1,13.2l-3.4,8.6l14.2,0.5l2.5-8.6l1.1-0.4 l2.8-0.9l45.2-15.1l21.8,56.7C313.3,170.4,312.5,171.1,311.6,171.4z" style="fill: rgb(255, 120, 185);"/>
    <path class="st4" d="M250.5,145.8H250c-0.6,0-1.2-0.4-1.4-1l-5.4-16.1l2.8-0.9l5.4,16c0.4,0.7,0.1,1.5-0.6,1.9 C250.7,145.7,250.6,145.8,250.5,145.8z" style="fill: rgb(255, 46, 162);"/>
    <path class="st1" d="M191.6,115.5l5-7.5c0,0,24.8,0.9,30.8,4.2s7.5,10.2,7.5,10.2s4.1-8.2,15-11.6c10.9-3.4,35-2.8,35-2.8l2.1,6.3 l-44.9,14.9l-2.5,8.6l-14.2-0.5l3.4-8.6L191.6,115.5z" style="fill: rgb(255, 218, 162);"/>
    <path class="st16" d="M235.7,141.1h-6.5c-2.4,0.2-4.6-1.3-5.4-3.5c-0.6-2.4,0-4.9,1.7-6.7l-38.2-13.2c-0.6-0.2-0.9-0.9-0.7-1.5 c0-0.1,0.1-0.3,0.2-0.4l1.1-2c0.3-0.8,1.2-1.2,2-0.9l40.9,14.1c0.8,0.3,1.4,1,1.5,1.9c0.1,1-0.3,2-1.1,2.7l-1.9,1.9 c-0.5,0.4-0.7,1.1-0.5,1.7c0.2,0.5,0.7,0.9,1.3,0.9h6.9c0.7,0,1.3-0.4,1.7-0.9c0.4-0.5,0.5-1.1,0.2-1.7l-1.1-1.9 c-0.4-0.9-0.4-1.9,0.1-2.7c0.5-0.9,1.3-1.7,2.3-2l49.4-14.8c0.6-0.2,1.3,0.1,1.5,0.7c0,0.1,0,0.1,0.1,0.2l0.2,2.1 c0,0.8-0.5,1.6-1.3,1.8l-46.3,13.9c0.9,2.1,0.4,4.6-1.2,6.8C240.9,139.7,238.4,141,235.7,141.1z M228.1,131.8L228.1,131.8z" style="fill: rgb(255, 174, 215);"/>
    <g>
      <path class="st17" d="M396.4,192.8c-3.1,11.8-11.2,21.4-34.6,27.8s-48.8,13.6-56,5.8s-9.9-46.1-10.5-57.1c-0.1-1.6,32-1,50.9,2.1 h0.7c-0.2-0.5-0.3-1.1-0.4-1.6l0,0c-0.1-0.5-0.1-1-0.1-1.5c0-2.5,1.4-4.8,4-7.2c0.9-0.9,1.5-2.1,1.7-3.3c0,0,0.9-17.1,6.3-33 c0.8-2.6,1.8-5.4,2.8-8.3c0.4-1-0.8-11.3-0.8-11.3l13.3-23.6c10.2-1.8,14.1,5.6,14.5,13.6c0.8,16.4,0.2,25.3,2.7,48.8 c0.7,6.1,1.6,11.6,2.5,16.6s1.9,9.3,2.6,13.4l0,0c0.1,0.6,0.2,1.3,0.4,1.9l0,0C397.4,182.4,397.8,187.8,396.4,192.8z" style="fill: rgb(74, 103, 146);"/>
      <path d="M379.2,180.6c-8.1-7.5-19.5-9.9-32.5-12.2h-0.3c0,0.5,0,1,0.1,1.5l0,0c0.1,0.5,0.2,1.1,0.4,1.6l8,1.5 c7.1,1.5,13.5,3.5,18.6,6.9h0.1c1.3,0.8,2.5,1.8,3.6,2.8c0.3,0.2,0.6,0.4,1,0.4c0.4,0,0.8-0.2,1.1-0.5 C379.8,182,379.8,181.1,379.2,180.6C379.2,180.6,379.2,180.6,379.2,180.6z"/>
      <path d="M302.3,190.4c1,8.9,3.9,25.1,5.5,28.9s3.6,4.3,5.9,4.7c2.4,0.3,4.7,0.3,7.1,0.1l-9.6-34L302.3,190.4z"/>
      <path class="st11" d="M314.2,200.8l-34.3-12.2c-1.2-0.4-2.5-0.2-3.6,0.3c-5.4,2.6-22.6,10.4-30.9,8.9c-3-0.5-6.5-2.7-7.2-6.4 c-0.5-2.6,0.2-5.4,2-7.4c0.5-0.5,0.5-1.4,0-2c-0.1-0.1-0.2-0.2-0.3-0.2c-3-1.7-4.9-4.8-5-8.2v-0.3c0-0.9,0.2-1.8,0.4-2.7v-0.3 l-11.2-5.6c-2.8-1.3-7.5-3.9-8.1-7.1s1-6.5,4.6-7c2.6,0,5.2,0.5,7.6,1.6l18.7,7.4c1.7,0.7,3.5,1,5.3,0.8l10.8-0.9 c0,0-5-15.7-5.7-19.6s1.1-7.4,4.9-7.7s6.6,2.2,8.5,6.9s6.9,15.9,9.9,22.3c1.1,2.5,3.3,4.4,6,5.1l7,2.1c7.7,2.3,13.7,8.4,15.9,16.2 L314.2,200.8z" style="fill: rgb(214, 117, 107);"/>
      <path class="st18" d="M245.2,175.1c-0.7,0.2-1.4,0.3-2.1,0.3c-2.8-0.2-5.6-0.8-8.2-1.8v-0.3c0-0.9,0.2-1.8,0.4-2.7 c3.1,1.1,6.9,2.2,9.3,1.6c0.8-0.2,1.6,0.3,1.8,1.1C246.6,174.1,246.1,174.9,245.2,175.1C245.2,175.1,245.2,175.1,245.2,175.1z" style="fill: rgb(128, 52, 37);"/>
    </g>
    <path class="st19" d="M306.8,114.8c-2.2,0.1-4.3-0.5-6.2-1.6c-0.8-0.3-1.1-1.2-0.8-2c0.3-0.8,1.2-1.1,2-0.8 c0.1,0.1,0.3,0.1,0.4,0.2c4.1,2.7,13.9,0.1,16.9-4.4c0.5-0.7,1.4-0.9,2.1-0.5c0.7,0.5,0.9,1.4,0.4,2.1c0,0,0,0,0,0 C319,111.8,312.5,114.8,306.8,114.8z" style="fill: rgb(173, 172, 172);"/>
    <path class="st20" d="M136.1,210.1c-2-1.3-3.4-3.4-3.8-5.7l-0.6-4.1c0-0.2-0.2-0.3-0.4-0.3l0,0c-0.2,0-0.3,0.1-0.4,0.3l-0.6,4.1 c-0.4,2.3-1.7,4.4-3.7,5.7l-0.5,0.4c-0.2,0.1-0.2,0.2-0.2,0.3l0,0c0,0.2,0,0.3,0.2,0.4l0.5,0.3c2,1.3,3.4,3.4,3.7,5.8l0.6,4.1 c0.1,0.2,0.2,0.3,0.4,0.3l0,0c0.2,0,0.4-0.1,0.4-0.3l0.6-4.1c0.4-2.4,1.8-4.5,3.8-5.8l0.5-0.3c0.1-0.1,0.2-0.2,0.2-0.4l0,0 c0-0.1-0.1-0.2-0.2-0.3L136.1,210.1z" style="fill: rgb(128, 138, 255);"/>
    <path class="st16" d="M168.8,187.7c-3-1.9-5-5-5.5-8.5l-0.9-6c0-0.3-0.3-0.5-0.6-0.5l0,0c-0.3,0-0.6,0.2-0.6,0.5l-0.8,6 c-0.6,3.5-2.6,6.6-5.6,8.5l-0.7,0.5c-0.2,0.1-0.3,0.3-0.3,0.5l0,0c0,0.2,0.1,0.4,0.3,0.5l0.7,0.5c3,2,5,5.1,5.6,8.6l0.8,5.9 c0,0.3,0.3,0.5,0.6,0.5l0,0c0.3,0,0.6-0.2,0.6-0.5l0.9-5.9c0.5-3.5,2.5-6.6,5.5-8.6l0.8-0.5c0.2-0.1,0.3-0.3,0.3-0.5l0,0 c0-0.2-0.1-0.4-0.3-0.5L168.8,187.7z" style="fill: rgb(255, 174, 215);"/>
    <path class="st21" d="M399.2,57.2c-2-1.3-3.4-3.4-3.8-5.8l-0.6-4.1c0-0.2-0.2-0.3-0.4-0.3l0,0c-0.2,0-0.3,0.1-0.4,0.3l-0.6,4.1 c-0.3,2.4-1.7,4.5-3.7,5.8l-0.5,0.3c-0.2,0.1-0.2,0.2-0.2,0.3l0,0c0,0.1,0,0.2,0.2,0.3l0.5,0.3c2,1.3,3.4,3.4,3.7,5.8l0.6,4.1 c0.1,0.2,0.2,0.3,0.4,0.3l0,0c0.2,0,0.4-0.1,0.4-0.3l0.6-4.1c0.4-2.4,1.8-4.5,3.8-5.8l0.5-0.3c0.1-0.1,0.2-0.2,0.2-0.3l0,0 l-0.2-0.3L399.2,57.2z" style="fill: rgb(255, 231, 92);"/>
    <path class="st22" d="M286,20.2c-2-1.3-3.4-3.4-3.8-5.8l-0.6-4c0-0.2-0.2-0.4-0.4-0.4l0,0c-0.2,0-0.3,0.2-0.4,0.4l-0.6,4 c-0.3,2.4-1.7,4.5-3.7,5.8l-0.5,0.4c-0.2,0-0.2,0.2-0.2,0.3l0,0c0,0.2,0,0.3,0.2,0.4l0.5,0.3c2,1.3,3.4,3.4,3.7,5.8l0.6,4 c0.1,0.2,0.2,0.4,0.4,0.4l0,0c0.2,0,0.4-0.2,0.4-0.4l0.6-4c0.4-2.4,1.8-4.5,3.8-5.8l0.5-0.3c0.1-0.1,0.2-0.2,0.2-0.4l0,0 c0-0.1-0.1-0.3-0.2-0.3L286,20.2z" style="fill: rgb(52, 244, 207);"/>
  </g>
  <ellipse class="cls-1" cx="184.281" cy="80.411" rx="2.5" ry="3.5" style="stroke-width: 0px;"/>
  <ellipse class="cls-1" cx="162.781" cy="80.411" rx="2.5" ry="3.5" style="stroke-width: 0px;"/>
  <ellipse style="stroke: rgb(0, 0, 0); fill: rgb(0, 0, 0);" cx="155.017" cy="90.987" rx="3.828" ry="6.405"/>
  <ellipse style="stroke: rgb(0, 0, 0); fill-rule: nonzero; fill: rgb(0, 0, 0);" cx="188.946" cy="88.313" rx="3.291" ry="6.099"/>
</svg>