<?xml version="1.0" encoding="utf-8"?>
<svg width="480" height="332" viewBox="0 0 480 332" fill="none" xmlns="http://www.w3.org/2000/svg">
  <g id="_x32_zenc4.tif" transform="matrix(-1, 0, 0, 1, 479.980255, -0.368416)" style="">
    <g>
      <path class="st0" d="M114,231.5c-0.4-3.3-0.8-6.5-1.1-9.8c-0.7-7.7-0.7-15.5,0-23.3c0.8-9.1,2.6-18.1,5.3-26.8 c5-15.9,12.8-30.3,23.4-43.1c10.1-12.3,22.1-22.4,36-30.3c14.6-8.2,30.2-13.5,46.9-15.6c7.5-1,14.9-1.1,22.4-0.9 c0.4,0,0.8,0,1.2-0.1c31.9,2.1,59.6,13.9,82.6,36c18.8,18.1,30.9,40,36.5,65.4c0.9,3.9,1.4,7.8,2,11.7c0.6,0.6,0.4,1.3,0.2,1.9 c-0.5,1.8-0.6,3.5-0.6,5.4c0.1,4.7-0.3,9.5-0.5,14.2c-0.3,4.6-0.7,9.2-1.5,13.8c-1.2,7-3.4,13.7-6.7,20c-0.3,0.5-0.5,1-1,1.3 c-1,0.5-1.7,0.1-2.4-0.6c-4.7-4.1-9-8.6-13.3-13c-0.7-0.7-1.2-1.5-1.5-2.4c0.1-2.2-0.4-4.3-1.3-6.3c-0.8-1.7-0.1-2.6,1.8-2.5 c1.7,0.1,3.5,0.5,5.2,0.6c4.5,0.1,8.1-2.3,9.6-6c1.9-4.8-0.2-9.1-2.7-11.3c-3.4-2.8-8.1-3.1-11.9-0.7c-0.9,0.6-1.8,1.2-2.8,1.7 c-1.5,0.7-2.3,0.2-2.1-1.5c0.3-3.9,1-7.7,1.6-11.6c0.8-5.7,1.6-11.3,2.5-17c0.7-4.9-3.8-8.5-8.5-7c-2.1,0.7-4.1,1.8-6.2,2.2 c-2.1,0.5-3.9,0.1-5.7-1c-1.4-0.9-2.7-1.9-4-2.9c-2-1.7-4.3-2.4-6.8-1.5c-2.7,1-4,3-4.4,5.8c-0.2,1.9-0.6,3.7-0.8,5.6 c-0.1,0.8-0.2,1.6-0.8,2.2c-1.4,0.5-1.8-0.6-2.3-1.5c-1.7-3-3.3-5.9-4.8-9c-3.1-6.3-6.1-12.6-8.8-19.1c-4-9.6-7.4-19.5-10.2-29.5 c-0.1-0.3-0.1-0.6-0.2-0.8c-0.3-0.9-0.8-1.6-1.9-1.3c-1,0.3-1.2,1.1-1,2c0.6,3.1,1.5,6.1,2.4,9.2c3.2,11.1,7,22,11.4,32.7 c3.6,8.8,7.4,17.4,11.8,25.8c0.7,1.3,1,2.8,1.9,4c0.2,3.1-0.4,6.2-1.1,9.2c-0.3,1.5-1.3,1.7-2.5,0.7c-1.6-1.4-2.7-3.2-4.3-4.6 c-3.5-3.3-8.6-3.7-12.5-1c-0.7,0.5-1.4,1.2-2.3,1.3c-0.9,0-1.4-0.6-1.8-1.4c-3.1-7.4-5.8-14.9-8.2-22.5c-1.1-3.5-2.1-7.1-3.1-10.6 c-0.3-1-0.7-2-2-1.7c-1.2,0.3-1.2,1.4-1,2.4c1.5,6,3.1,11.8,4.9,17.7c2.2,7.2,4.8,14.2,7.3,21.2c0.9,2.5,1.9,4.8,2.8,7.3 c1.1,2.9,2.5,5.6,3.8,8.5c1.1,2.6,2.1,5.2,2.9,7.9c0.2,3.1,1.7,5.5,3.7,7.7c0.6,0.7,1.3,1.2,1.7,2.1c0.1,1.2,1.1,2.1,1.2,3.4 c-0.3,1.6-1.5,2.8-2,4.3c-1.3,3.8-0.5,7.3,1.5,10.7c1.3,2.2,1.1,2.7-1,3.9c-2.1,1.2-3.9,2.6-5.6,4.4c-0.7,0.7-1.2,1.5-2.3,1.7 c-1.2,0-1.9-0.9-2.6-1.7c-7.5-8.9-12.7-19.2-17-29.9c-4.5-11.4-7.7-23.1-10.4-35c-2.5-11-4.3-22.1-5.9-33.3 c-1-7.2-1.8-14.4-2.6-21.6c-0.7-7.1-1.4-14.2-1.9-21.3c-0.3-3.6-0.7-7.1-0.8-10.7c0-0.3,0-0.6-0.1-0.8c-0.1-0.4-0.1-0.9-0.6-0.9 c-0.6-0.1-0.7,0.5-0.8,0.9c-0.2,1.7-0.3,3.4-0.4,5.1c-0.4,5.8-1,11.5-1.5,17.3c-0.7,6.5-1.3,13-2.2,19.4c-1,7.5-1.9,14.9-3.2,22.4 c-1.7,10.5-3.8,20.9-6.3,31.2c-2.6,10.5-5.7,20.9-9.8,31c-4,9.8-8.9,19.1-15.6,27.4c-1.2,1.5-2.6,3-4.1,4.3 c-0.2,0.2-0.4,0.4-0.7,0.5c-0.5,0.2-0.9,0.1-1.3-0.1c-3.3-1.5-6.9-1.8-10.4-2.6c-0.7-0.2-1.6-0.3-1.7-1.2 c-0.1-0.9,0.7-1.2,1.4-1.5c2-0.9,4.1-1.8,6.1-2.6c3.7-1.6,5.3-5.1,3.9-8.9c-1.1-3-2.3-5.9-3.4-8.9c-0.2-0.6-0.5-1.3-0.5-2 c0.9-4.4,3.1-8.3,4.7-12.4c5-12.7,9.4-25.5,13.1-38.6c4-14.3,7.1-28.7,9.3-43.4c1.1-7,1.7-14,2.4-21.1c0-0.2,0-0.5,0-0.7 c0-1.1-0.1-2.2-1.5-2.3c-1.3-0.1-1.6,1-1.7,2.1c-1.5,14.9-4.1,29.5-8,43.9c-3.3,12.2-7.5,24.2-12.5,35.8c-2.9,6.8-6,13.5-9.6,19.9 c-0.4,0.7-0.7,1.5-1.6,1.6c-1-0.2-1.3-1-1.6-1.8c-1.3-3.6-2.8-7.2-4.2-10.8c-0.6-1.7-0.5-3,0.7-4.4s2.5-2.8,3.6-4.3 c1.2-1.5,1.2-2-0.4-3c-4.2-2.8-8.7-4.6-13.8-4.7c-1.1,0-2.3,0.3-3.3-0.5c-0.7-1,0-1.9,0.4-2.7c2.4-4.8,4.7-9.7,6.8-14.6 c0.2-0.4,0.3-0.7,0.4-1.1c0.1-0.6,0-1.1-0.5-1.5c-0.6-0.4-1.2-0.3-1.7,0.1c-0.5,0.4-0.7,0.9-0.9,1.4c-2.5,5.6-5.3,11.2-8.3,16.6 c-0.5,1-1.3,1.8-1.7,2.9c-1,1.3-2.7,1.4-4.1,1.9c-3,1.3-5.9,3-8.6,4.8c-1.6,1.1-1.6,1.5,0,2.7c1.5,1.2,3.4,1.8,4.2,3.8 c-0.1,2.1-1.6,3.5-2.6,5c-4.8,7.3-10.1,14.2-15.6,20.9c-2.1,2.6-4.3,5.1-6.5,7.6c-0.4,0.4-0.8,0.8-1.4,0.9c-1,0-1.7-0.6-2.4-1.2 c-0.4-0.3-0.6-0.7-1-0.9c-3.1-1.5-4.3-4.3-5.3-7.3c-0.7-2.4-1.8-4.7-3.2-6.8C114.1,232.8,113.6,232.2,114,231.5z" style="fill: rgb(254, 238, 143);"/>
      <path class="st1" d="M280,201.9c5.4-5.1,11.9-4.8,16.8,0.8c1.3,1.4,2.5,2.9,4,4.5c0.6-3.7,1.2-7,1.5-10.5c-0.8-2.6,0.2-5,0.4-7.6 c0.1-1.2,0.3-2.4,0.5-3.5c0.1-0.6,0.3-1.2,1-1.5c0.4-2.6,0.8-5.3,1.1-7.9c0.4-3,1.8-5.3,4.6-6.4c2.8-1,5.3-0.4,7.7,1.4 c1.9,1.5,3.6,3.3,6.1,4c1.7,0.4,3.4,0.1,5-0.6c1.3-0.5,2.6-1,3.8-1.5c2.7-1.2,5.2-0.7,7.4,1c2.4,1.8,3,4.4,2.6,7.3 c-1.5,9.7-2.9,19.5-4.3,29.6c1.6-1,3-1.9,4.4-2.7c5.2-3,11.9-1.3,14.8,3.8c3,5.2,1.2,11.7-4.1,14.7c-2.2,1.3-4.6,1.4-7.1,1.1 c-1.8-0.2-3.6-0.5-5.7-0.7c1.5,2.8,2.3,5.5,2.1,8.4c0.4,3.8-1.9,6.3-4.5,8.5c-1.4,1.2-1.5,1.2-0.5,2.7c1.9,2.7,2.7,5.7,2.6,8.9 c-0.4,1.7-0.5,3.5-1.3,5.1c-0.5,0.9,0.3,0.9,0.9,0.8c1.4-0.2,2.8-0.3,4.2-0.5c4.4-1.3,8.2-3.5,11.3-6.9c1-1.1,1.6-2.5,3.1-3 c3.2-5.1,5.1-10.7,6.5-16.5c2.1-8.5,2.6-17.1,2.9-25.8c0.1-2.9,0.2-5.8,0-8.7c-0.1-2,0.6-3.8,1.3-5.6c2-2.8,4.4-4.8,7.9-5.3 c6.4-1,12.4,3.8,12.5,10.4c0,6.6-0.5,13.2-1.4,19.8c-1,7.4-2.1,14.8-4.4,22c-3.5,10.9-8.3,21-17.2,28.7c-0.8,0.7-1.5,1.3-2.3,2 c-0.2,0.8-0.7,1.4-1.4,1.8c-4.2,2.8-8.8,4.6-13.7,5.7c-1.5,0.3-2.2,0.9-2.1,2.5c0.1,1,0,2-1,2.5c-1,0.3-2,0.2-3,0.2 c-20.9,0-41.8,0-62.6,0c-1,0-2,0.1-3-0.3c-0.6-0.4-0.9-1-0.9-1.7c0.3-3.6,1.1-7,3-10.1c0.5-0.6,0.7-1.5,1.1-2.2 c0.7-1,1.4-1.9,2.6-2.2c2.3-2.9,5.1-5.1,8.4-6.8c0.6-0.3,1.1-0.4,0.5-1.3c-4-5.9-4-10.6,0-16.5c0.7-1.5-0.9-2.1-1.4-3.1 c-2.9-2.7-5.2-5.9-5.7-10c0.1-0.4,0.2-0.8,0.1-1.2c-0.9-3.6,0.9-6.2,3.3-8.5c0.2-0.2,0.5-0.2,0.6-0.5c0-0.4-0.3-0.4-0.6-0.4 c-0.4-0.1-0.9,0.1-1.3,0c-3.9-0.5-6.9-2.3-8.5-6c-1.1-2.7-2.5-5.4-1.5-8.4C277.6,204.3,278,202.5,280,201.9z" style="fill: rgb(13, 63, 146);"/>
      <path class="st1" d="M417.7,272.4c0.2,4,0,8-1.4,11.9c-0.7,1.1-1.8,0.8-2.8,0.8c-7.1,0.1-14.2,0-21.2,0c-3.7,0-7.5,0-11.2,0 c-0.9,0-1.8,0.1-2.7-0.4c-1.3-1-1.3-2.6-1.6-4c-0.4-2.1-0.4-4.2-0.1-6.3c0.1-0.7,0.4-1.3,0.9-1.8c0.9-3.6,2.1-7,4.4-10 c2.6-3.4,6-5.9,10-7.4c1.4-0.5,1.3-0.9,0.5-2c-1.3-1.6-2.4-3.3-3.1-5.3c-1.1-3,0.2-4.8,3.3-4.9c1.2-0.1,2.5-0.1,3.7,0.2 c1.4,0.5,2.3,0.1,2.8-1.4c0.7-2,1.8-3.9,3.2-5.6c0.5-0.6,1-1.2,1.6-1.8c1.9-1.6,3.8-1.4,5.2,0.7c1.5,2.2,2.2,4.6,2.7,7.1 c0.3,1.3,0.7,1.6,2,1.1c2.4-1,4.8-1.8,7.4-1.7c2.7,0,3.9,1.6,3.5,4.2c-0.5,2.9-1.9,5.5-3.5,7.9c-0.7,1-0.8,1.7,0.2,2.6 c1.1,1,2,2.2,2.7,3.5c1.5,2.8,0.7,4.6-2.3,5.4c-1.7,0.5-3.5,0.5-5.2,0.5c-1.1,0-1.1,0.3-0.8,1.2 C416.9,268.7,417.4,270.5,417.7,272.4z" style="fill: rgb(13, 63, 146);"/>
      <path class="st2" d="M394.3,95.9c0.9,4.9,3.9,7.8,9.1,8.7c-1.7,1.3-3.2,1.9-4.6,2.4c-1.3,0.5-2.2,1.3-2.6,2.6 c-0.4,1.1-0.9,2.2-1.4,3.3c-0.1,0.3-0.2,0.9-0.7,0.9c-0.4,0-0.5-0.4-0.6-0.7c-1-4.2-3.9-6.4-7.9-7.4c-0.2,0-0.3-0.2-0.5-0.4 c1.9-1.4,4.5-1.4,5.9-3.2c1.3-1.7,1.9-3.9,2.8-5.9C393.9,96,394.1,95.9,394.3,95.9z" style="fill: rgb(110, 252, 232);"/>
      <path class="st3" d="M279.9,49.7c-3.6-2-7-2-10.5,0.2c1.9-3.6,2.1-7-0.3-10.5c3.7,2.1,7.1,1.9,10.7-0.2 C277.9,42.7,277.8,46.1,279.9,49.7z" style="fill: rgb(254, 115, 189);"/>
      <path class="st4" d="M430,189.5c1.4-2.5,1.4-4.8-0.1-7.2c2.4,1.1,4.8,1.5,7.3,0c-1.2,2.5-1.3,4.7,0.1,7.2 C434.8,188.1,432.5,188.1,430,189.5z" style="fill: rgb(253, 142, 114);"/>
      <path class="st1" d="M166.6,200.4c5.1-0.2,10,0.5,14.5,3c1.5,0.8,2.8,1.7,4.1,2.7c1,0.8,1,1.5,0.2,2.4c-1.7,1.9-3.3,3.9-4.9,5.9 c-0.4,0.5-0.9,1-0.5,1.8c1.8,4.6,3.6,9.3,5.4,13.9c0.8,0.2,1.1,0.9,1.4,1.6c1.3,3.3,2.5,6.8,3.9,10.1c0.5,1.2,0.3,2.4,0.6,3.6 c1.2,3.3,2.3,6.6,3.7,9.8c2.2,5-0.4,9.5-4.4,10.8c-2.5,0.8-4.8,2-7.6,3.2c4.8,1,9.3,1.5,13.4,3.3c1.9,0,3.3,1,4.7,2.1 c2.7,2.2,5.1,4.6,6.8,7.6c0.6,0.9,0.9,1.9-0.3,2.6c-1.1,0.3-2.1,0.2-3.2,0.2c-46.8,0-93.5,0-140.3,0c-1.3,0-2.8,0.5-3.8-0.8 c1-4.4,3.1-8.2,6.2-11.5c3.4-3,7.3-4.7,11.9-5c1.6-0.1,3.2,0.1,4.7,0.3c1.4,0.2,1.5-0.2,1.2-1.4c-1.4-7.5-2.6-15-3.9-22.4 c-0.3-1.4-0.3-2.8-0.3-4.2c0-1-0.4-1.7-1.3-2.1c-1.2-0.6-2.4-1.2-3.4-2.3c-2.3-2.5-2.2-6.8,0.3-8.9c3-2.6,7.8-2.5,9.6,0.7 c1.6,2.7,3.1,3.1,6,2.1c4.1-1.4,8.5-1.8,12.9-1.4c2.2,0.3,4.5-0.2,6.5,1.1c1.2,0.7,2.1,1.6,3.2,2.4c2.7,3.3,4,7.3,5.4,11.2 c0.4,1.2,1,2.1,2.2,2.9c1.6,1.1,3.1,2.4,4.6,3.7c0.7-0.1,1.1,0.4,1.6,0.8c1.4,1.5,2.5,3.2,3.3,5c0.2,0.5,0.4,1,0.8,1.5 c1.7,4.6,2.3,9.2,0.6,13.9c-0.2,0.5-0.3,1.1-0.7,1.5c-1,1.5-1.9,3.2-3.3,4.5c-0.7,0.6-0.2,1,0.3,1.3c1.7,1.1,3.3,2.3,4.7,3.6 c0.9,0.8,1.3,0.6,1.7-0.4c1-2.5,2.3-4.8,4-6.9c0.6-0.7,1.5-1.1,1.8-2c2.9-2.7,6.1-4.8,10-6.2c-1.3-1.2-2.7-1.9-3.7-3.1 c-3.1-3.9-3.4-8.2-2-12.8c1.7-5.7,3.1-11.5,4.6-17.2c0.5-1.8,1.5-3.4,1.6-5.3c0.3-2.6,1.3-5.1,1.9-7.7c0.3-1.4,0.6-2.6-0.8-3.6 c-0.3-0.2-0.3-0.7-0.5-1c-1.7-1.3-3.3-2.5-5-3.8c-1.6-1.2-1.6-1.6-0.1-2.7c4.1-3.1,8.6-5.4,13.5-7 C162.3,200,164.3,199.5,166.6,200.4z" style="fill: rgb(13, 63, 146);"/>
      <path class="st3" d="M26.6,203.2c-1.4-2.8-2.6-5.2-3.9-7.7c-0.2-0.4-0.1-0.8,0.1-1.1c1.2-2.4,2.4-4.9,3.8-7.6 c1.4,2.8,2.7,5.3,3.9,7.8c0.2,0.3,0.1,0.7-0.1,1C29.2,198,28,200.4,26.6,203.2z" style="fill: rgb(254, 115, 189);"/>
      <path class="st5" d="M94.7,70.1c0-0.7,0-1.5,0-2.2c0-0.9,0.7-1.5,1.5-1.5c0.9-0.1,1.6,0.4,1.7,1.3c0.1,1.7,0.1,3.4,0,5.1 c-0.1,0.9-0.8,1.3-1.7,1.3c-0.8-0.1-1.4-0.6-1.5-1.4C94.6,71.8,94.7,70.9,94.7,70.1L94.7,70.1z" style="fill: rgb(251, 206, 5);"/>
      <path class="st6" d="M102.8,75c0.8,0,1.6,0,2.4,0c0.8,0.1,1.3,0.6,1.4,1.4c0.1,0.9-0.4,1.6-1.3,1.7c-1.7,0.2-3.4,0.2-5.1,0 c-0.9-0.1-1.4-0.8-1.3-1.7c0-0.9,0.6-1.5,1.5-1.5C101.2,75,102,75,102.8,75L102.8,75z" style="fill: rgb(252, 207, 3);"/>
      <path class="st7" d="M94.7,83c0-0.7,0-1.5,0-2.2c0.1-0.9,0.6-1.5,1.5-1.6c1-0.1,1.7,0.5,1.8,1.4c0.1,1.5,0.1,3.1,0,4.6 c-0.1,1-0.8,1.6-1.7,1.5c-0.9,0-1.5-0.6-1.5-1.5C94.6,84.5,94.7,83.8,94.7,83z" style="fill: rgb(252, 206, 4);"/>
      <path class="st7" d="M90,75c0.7,0,1.5-0.1,2.2,0c0.8,0.1,1.3,0.6,1.4,1.4c0.1,0.9-0.3,1.6-1.3,1.7c-1.6,0.2-3.2,0.2-4.8,0 c-0.9-0.1-1.5-0.7-1.4-1.6c0-1,0.6-1.6,1.6-1.6C88.5,75,89.3,75,90,75L90,75z" style="fill: rgb(252, 206, 4);"/>
      <path class="st8" d="M60.4,284.2c0.7,0,1.5,0.1,2.2,0.1c47.8,0,95.6,0,143.4,0c0.7,0,1.5,0,2.2-0.1c0.1,0,0.2,0,0.3-0.1 c2.8-0.1,5.7,0,8.5,0c19,0,38.1,0,57.1,0c0.9,0,1.7,0,2.6,0.1c0.1,0,0.2,0,0.3,0.1c22,0,44,0,66,0c1.1,0,2.3-0.1,3.4-0.1l-0.1,0.1 c0.3,0.3,0.8,0.2,1.1,0.2c9.9,0,19.9,0,29.8,0c0.4,0,0.8,0.1,1.1-0.2l-0.1-0.1c12.7,0,25.3,0,38,0l0,0c2.5,0.4,4.9,0.1,7.4,0.2 c2,0,3.9,0.2,5.9-0.1c7.1,0.3,12.5,6,12.6,13.5c0.1,4.3,0,8.6,0,12.9c0.7,0,0.8-0.5,1-0.9c6.4-9.1,18.6-10.7,27.2-3.6 c8.1,6.7,8.6,19.3,1,27.1c-0.2,0.2-0.4,0.4-0.5,0.6c-0.7,0-1.4,0.1-2,0.1c-152.5,0-305,0-457.5,0c-0.7,0-1.4,0-2-0.1 c-3.3-3.2-5.3-7.1-5.9-11.8c-1.3-9.9,6.6-19.6,16.5-20.2c7.2-0.5,13,2.2,17.2,8.1c0.2,0.3,0.4,0.5,0.7,0.8c0.4-0.5,0.3-1,0.3-1.5 c0-3.9,0-7.8,0-11.8c0-7.6,5.8-13.3,13.4-13.4C54.4,284.2,57.4,284.2,60.4,284.2z" style="fill: rgb(4, 38, 96);"/>
      <path class="st9" d="M429.6,284.3c-1.2,0.6-2.5,0.2-3.7,0.3c-2.6,0.1-5.2,0-7.8,0c-0.6,0-1.3,0.1-1.8-0.3 C420.7,284.3,425.2,284.3,429.6,284.3z" style="fill: rgb(2, 31, 83);"/>
      <path class="st10" d="M283.2,268.6c-1.1,1.4-2.2,2.8-3,4.4c-2.3,0.2-4.5,0.1-6.8,0.1c-24,0-48,0-72,0c-1.6,0-3.2,0-4.6-0.8 c5.1-5.4,9.4-11.4,12.9-17.9c5.8-10.7,10-22.1,13.4-33.8c5-17.1,8.3-34.5,10.8-52.1c2-13.7,3.5-27.5,4.6-41.2 c0.3-4.3,0.7-8.6,1.1-12.9c0-0.2,0-0.3,0.1-0.5c0.1-0.9,0.3-1.7,1.4-1.7c1.2,0,1.3,0.8,1.4,1.7c0.2,3.1,0.5,6.2,0.7,9.3 c0.9,13.4,2.2,26.8,3.9,40.1c1.6,12.6,3.6,25.1,6.4,37.5c2.9,13.1,6.5,26,11.6,38.4c4.2,10.1,9.3,19.7,16.5,28.1 C282.1,267.9,282.4,268.6,283.2,268.6z" style="fill: rgb(45, 94, 173);"/>
      <path class="st11" d="M191.4,245.4c-2.2-5-4-10.2-6-15.3c5.1-9.1,9.4-18.6,13.3-28.3c4.8-11.9,8.6-24.1,11.6-36.6 c2.2-9.2,4-18.5,5.1-27.9c0.3-2.9,0.8-5.8,1-8.8c0.1-1.5,1.2-2.6,2.5-2.5s2.4,1.2,2.3,2.7c-0.2,2.9-0.4,5.8-0.7,8.6 c-0.9,7.9-1.9,15.9-3.3,23.7c-1.6,8.9-3.5,17.8-5.8,26.6c-2.2,8.4-4.6,16.7-7.4,24.9c-3.3,9.9-7,19.7-11.2,29.2 C192.2,242.9,191.5,244,191.4,245.4z" style="fill: rgb(248, 223, 95);"/>
      <path class="st11" d="M304.3,184.2c-0.7,4.2-1,8.4-1.9,12.6c-2.6-4.4-4.7-9-6.9-13.7c-4-8.5-7.6-17.1-10.8-25.9 c-3.2-8.8-6.3-17.8-8.6-26.9c-0.5-1.8-1.1-3.5-1.4-5.3c-0.3-1.7,0.3-2.9,1.7-3.1c1.5-0.3,2.3,0.6,2.7,2c1.5,5.5,3.2,10.9,5.1,16.2 c3.3,9.6,7.2,19,11.7,28.1c2.5,5.1,5.1,10.1,7.9,15.1C303.8,183.6,304,183.9,304.3,184.2z" style="fill: rgb(248, 223, 95);"/>
      <path class="st11" d="M358.5,251.3c-3.4,5.3-8,8.9-14.2,10.4c-2.5-1.3-3.8-3.5-4.7-6c-0.2-3.7-1.1-7-3.7-9.8 c-0.6-0.6-0.4-0.9,0.2-1.3c3.5-2,5.4-5.2,6.5-9c0.1,0.2,0.1,0.5,0.3,0.6c5,5.1,10,10.2,15.4,14.9 C358.3,251.2,358.4,251.2,358.5,251.3z" style="fill: rgb(248, 223, 95);"/>
      <path class="st11" d="M131.2,256.7c-1.2-2.7-3-5.1-4.9-7.4c4.8-5.8,9.7-11.5,14.2-17.5c3.8-5.1,7.5-10.2,10.9-15.6 c0.2-0.4,0.4-0.8,0.6-1.2c0.2,0.1,0.5,0.3,0.7,0.4c1.7,0.9,2.2,2,1.5,4c-1,2.6-1.5,5.3-2.3,8c-5.3,9.9-12.1,18.9-18.8,27.9 C132.6,256,132.2,256.8,131.2,256.7z" style="fill: rgb(248, 223, 95);"/>
      <path class="st11" d="M280,201.9c-3,3.9-3.3,8.1-1.2,12.5c0.1,0.2,0.1,0.3-0.1,0.5c-1.1-1.5-1.5-3.3-2.2-5 c-5.2-13.4-9.7-27.1-13.1-41.1c0-0.1,0-0.1,0-0.2c-0.4-1.8,0.1-3.1,1.5-3.5c1.5-0.4,2.5,0.5,3.1,2.4c1.3,4.4,2.5,8.7,3.9,13 c2.1,6.8,4.7,13.5,7.4,20.1C279.4,201.2,279.6,201.6,280,201.9z" style="fill: rgb(248, 223, 95);"/>
      <path class="st11" d="M166.6,200.4c-2.1,0.4-4.1,0.7-6.2,1.1c2.9-5.7,6-11.3,8.7-17.1c0.5-1.1,0.9-2.2,1.5-3.2 c0.8-1.4,2-1.9,3.2-1.3c1.2,0.6,1.5,1.8,0.8,3.4C172.2,189,169.5,194.8,166.6,200.4z" style="fill: rgb(248, 223, 95);"/>
      <path class="st11" d="M278.8,214.8c0-0.2,0-0.3,0.1-0.5c2.1,3.1,4.9,4.8,8.6,5.3c1,0.2,2,0.4,1.6,1.9c-2.6,2.6-3.9,5.8-4,9.4 c-0.2-2.8-1.8-5.1-2.8-7.6C281.1,220.5,279.6,217.8,278.8,214.8z" style="fill: rgb(248, 223, 95);"/>
      <path class="st12" d="M290.8,240.9c0.5,0.3,0.9,0.7,1.4,1c1.3,0.7,1.1,1.4,0,2.1C291.6,243,290.9,242.1,290.8,240.9z" style="fill: rgb(234, 214, 99);"/>
      <path class="st13" d="M339.6,255.7c1.7,1.9,3.3,3.9,4.7,6c-2.3,0.6-4.5,0.8-7.2,0.7C338.5,260.2,339.3,258,339.6,255.7z" style="fill: rgb(252, 236, 143);"/>
      <path class="st14" d="M289,221.5c-0.4-0.8-0.7-1.5-1.6-1.9c1,0.1,2.1,0.2,3.3,0.3C290.2,220.8,289.6,221.2,289,221.5z" style="fill: rgb(232, 220, 142);"/>
      <path class="st9" d="M378.4,284.3c-0.6,0.5-1.3,0.3-2,0.3c-9.4,0-18.8,0-28.1,0c-0.7,0-1.4,0.1-2-0.4 C357,284.2,367.7,284.3,378.4,284.3z" style="fill: rgb(2, 31, 83);"/>
      <path class="st0" d="M131.2,256.7c7.1-9.2,13.8-18.8,19.9-28.7c0.2-0.3,0.3-0.8,0.9-0.6c-1.4,5.5-2.9,11.1-4.3,16.6 c-0.7,2.6-1.4,5.1-2.1,7.7c-1.4,5.8,0.9,10.7,6.2,13.5c0.4,0.2,0.9,0.2,1.2,0.9c-4.4,1.2-8.1,3.6-11.5,6.5 c-0.9,0.6-1.9,0.8-2.9,0.8c-1.9,0-3.9,0-5.8,0c-0.8,0-1.6-0.1-1.9-1.1C133.7,267.2,133.1,261.9,131.2,256.7z" style="fill: rgb(254, 238, 143);"/>
      <path class="st9" d="M208.2,284.3c23,0,45.9,0,68.9,0c-0.6,0.5-1.3,0.3-2,0.3c-21.7,0-43.3,0-65,0 C209.5,284.6,208.8,284.7,208.2,284.3z" style="fill: rgb(2, 31, 83);"/>
    </g>
  </g>
</svg>