<?xml version="1.0" encoding="utf-8"?>
<!-- Generator: Adobe Illustrator 28.4.1, SVG Export Plug-In . SVG Version: 6.00 Build 0)  -->
<svg version="1.1" id="Layer_2_00000124863569196042102610000004875073211404526762_"
	 xmlns="http://www.w3.org/2000/svg" xmlns:xlink="http://www.w3.org/1999/xlink" x="0px" y="0px" viewBox="0 0 600 1000"
	 style="enable-background:new 0 0 600 1000;" xml:space="preserve">
<style type="text/css">
	.st0{display:none;fill:#FFFFFF;stroke:#000000;stroke-miterlimit:10;}
	.st1{fill:#161621;}
	.st2{fill:#989AAD;}
	.st3{fill:#ACADBD;}
	.st4{opacity:0.5;fill:#292841;enable-background:new    ;}
	.st5{fill:#FFFFFF;}
	.st6{fill:none;}
</style>
<g>
	<path class="st0" d="M587,923.4H13.1c-20.1,0-36.4-16.3-36.4-36.4V113.2c0-20.1,16.3-36.4,36.4-36.4h573.8
		c20.1,0,36.4,16.3,36.4,36.4V887C623.4,907,607,923.4,587,923.4z"/>
	<g>
		<path class="st1" d="M446.9,81h-299c-28.4,0-51.6,23.2-51.6,51.6v734.6c0,28.6,23,51.6,51.6,51.6h299c28.4,0,51.6-23.2,51.6-51.6
			V132.6C498.3,104.1,475.3,81,446.9,81z"/>
		<path class="st2" d="M447.7,82c6.5,0,13,1.4,19,3.7c6,2.6,11.4,6.2,16,10.8c4.6,4.6,8.2,10.1,10.6,16.2c2.4,6,3.7,12.5,3.7,19
			v736.5c0,6.5-1.2,13-3.7,19c-2.5,6-6,11.4-10.8,16c-4.6,4.6-10.1,8.2-16,10.8c-6,2.5-12.4,3.7-18.8,3.7H146.7
			c-13.1,0-25.8-5.3-35-14.4c-9.3-9.3-14.5-21.8-14.7-35V131.7c0-13.2,5.3-25.9,14.5-35.2S133.5,82,146.7,82H447.7z M447.7,76.6
			H146.7c-14.5,0-28.6,5.8-38.9,16.2c-10.4,10.4-16.2,24.4-16.2,38.9v736.5c0,7.3,1.5,14.4,4.2,21c2.8,6.8,6.9,12.8,12,17.8
			c5.1,5.1,11.1,9.1,17.9,11.9c6.8,2.6,13.9,4.2,21,4h300.9c14.5,0,28.4-5.8,38.8-16c10.2-10.2,16-24.2,16-38.8V131.7
			c0-7.3-1.4-14.4-4-21c-2.6-6.8-6.8-12.8-11.9-17.9s-11.1-9.1-17.8-12C461.9,78.2,454.8,76.6,447.7,76.6L447.7,76.6z"/>
		<path d="M319,103.9h-43.5c-2,0-3.7,1.6-3.7,3.7c0,2,1.6,3.7,3.7,3.7H319c2,0,3.7-1.6,3.7-3.7C322.7,105.5,321.1,103.9,319,103.9z"
			/>
		<path d="M336.1,113.8c3.5,0,6.5-2.8,6.5-6.5c0-3.7-2.8-6.5-6.5-6.5c-3.5,0-6.5,2.8-6.5,6.5C329.6,111,332.7,113.8,336.1,113.8z"/>
		<path class="st3" d="M504,350h-1.6V246.9h1.6c1.1,0,2.3,0.4,3.1,1.2c0.8,0.8,1.2,1.9,1.2,3.1v94.2c0,1.2-0.4,2.3-1.2,3.1
			C506.3,349.3,505.2,349.9,504,350z"/>
	</g>
	<g>
		<path class="st4" d="M483.7,134.7v730.5c0,9.4-3.7,18.5-10.5,25.3c-6.8,6.8-15.8,10.5-25.3,10.5H146.5c-9.6,0-18.5-3.7-25.3-10.5
			c-6.8-6.8-10.5-15.8-10.6-25.3V134.7c0-9.6,3.7-18.7,10.5-25.5c6.8-6.8,15.9-10.5,25.5-10.5h50.8c2.2,0,4.2,0.9,5.7,2.5
			c1.5,1.5,2.5,3.5,2.5,5.7v3.7c0,1.9,0.3,3.7,0.9,5.4c0.6,1.7,1.7,3.4,2.9,4.6c1.4,1.4,2.8,2.5,4.6,3.1c1.7,0.6,3.5,1.1,5.4,1.1
			h155.5c3.7,0,7.4-1.5,10.1-4.2c2.6-2.6,4.2-6.3,4.2-10.1v-3.7c0.1-2.2,0.9-4.2,2.5-5.7c1.5-1.5,3.5-2.5,5.7-2.5h50.8
			c4.8,0,9.4,0.9,13.7,2.6c4.3,1.7,8.3,4.5,11.6,7.9c3.4,3.4,5.9,7.3,7.7,11.7C482.7,125.4,483.7,130,483.7,134.7z"/>
	</g>
	<g id="Layer_3">
		<g>
			<g>
				<path class="st5" d="M449.4,588.8c-0.1,0.6-0.3,1.2-0.4,1.9c-1.5,6.5-8.5,10.1-14.7,7.9c-0.5-0.3-0.9-0.1-1.4,0.3
					c-12,11.1-25.6,19.9-41.2,25.3c-8,2.8-16.3,4.5-24.8,4.6c-6.2,0.1-12.2-0.4-18.4-1.7c-0.1,0-0.1,0-0.3,0c-0.8,1.7-2,3.4-3.7,4.5
					c-4.3,3.1-10.2,2.8-14.2-0.6c-0.3-0.3-0.5-0.5-1.1-0.3c-5.7,3.4-11.6,5.9-17.6,8.3c-0.6,0.3-0.9,0.5-0.8,1.2
					c0.5,6-3.7,11.3-10,12.2c-5.8,0.6-11.3-3.7-12.2-9.4c-0.1-0.9-0.1-1.9-0.1-2.8c0-0.6-0.1-0.8-0.6-0.9c-4.5-1.9-8.8-3.9-13.2-5.9
					c-1.6-0.8-3.1-1.6-4.8-2.6c-0.4-0.1-0.5-0.3-0.9,0.1c-5.5,5.1-14.5,3.7-17.9-3.5c0,0,0-0.1-0.1-0.1c-1.9,0.3-3.7,0.6-5.5,0.9
					c-5.9,0.9-11.9,1.1-17.8,0.5c-18.2-1.7-34.3-9-48.9-19.4c-4.3-3.1-8.5-6.6-12.4-10.2c-0.4-0.4-0.6-0.4-1.2-0.3
					c-6,2.2-12.8-1.2-14.5-7.3c-1.9-6.3,1.9-12.8,8.3-14.2c1.5-0.3,2.9-0.1,4.5,0c0.5,0,0.8-0.1,1.2-0.5c3.2-3.7,6.5-7.6,9.9-10.9
					c2.6-2.6,5.7-5,8.6-7.4c0.3-0.3,0.5-0.4,0.4-0.9c-0.6-4,0.4-7.4,3.4-10.2c0.1-0.1,0.1-0.1,0.3-0.3c-1.5-2.2-2.9-4.3-4.5-6.5
					c-5.5-8.2-10.6-16.7-14.2-26.1c-2.6-7-4.3-14.2-5.5-21.4c-0.1-0.5-0.3-0.8-0.8-0.9c-5.1-1.4-8.6-6-8.3-11.1
					c0.3-5.5,4-10,9.4-10.8c4.2-0.6,7.9,0.8,10.5,4.2c0.4,0.4,0.6,0.5,1.2,0.4c8.2-2.6,16.5-4.5,25.2-5.7c8.6-1.2,17.3-1.6,25.9-0.8
					c3.7,0.4,7.3,1.2,11.1,1.7c0.1,0,0.3,0.1,0.3,0c1.1-1.2,2-2.6,3.2-3.7c2.2-1.9,4.8-2.6,7.6-2.6c0.5,0,0.8-0.1,1.1-0.6
					c5.8-19.4,15.3-36.9,28-52.7c3.7-4.6,7.7-8.9,11.6-13.3c0.3-0.4,0.3-0.6,0.1-1.1c-2.2-6.5,1.6-13.2,8.3-14.7
					c8.2-1.7,15.5,6.2,13,14.3c-0.3,0.8,0,1.2,0.4,1.7c9,9.3,16.8,19.4,23.6,30.4s12,22.7,15.8,35c0.1,0.3,0.1,0.4,0.3,0.6
					c5-0.3,8.8,1.9,11.1,6.2c2.6-0.4,5-0.9,7.6-1.4c6.3-0.9,12.7-1.1,19-0.6c9.7,0.5,19.1,2.2,28.4,4.6c2.6,0.6,5,1.4,7.4,2.2
					c0.5,0.1,0.8,0.1,1.2-0.4c2.9-3.7,6.8-5,11.3-4c4.5,0.9,7.3,3.9,8.3,8.3c1.5,5.7-2,11.6-7.7,13.2c-0.8,0.3-1.1,0.6-1.2,1.5
					c-0.9,5.7-2.3,11.3-4,16.8c-2.5,7.7-5.8,15-10.1,21.7c-2.9,4.8-6.2,9.6-9.3,14.3c-0.1,0.3-0.4,0.5-0.5,0.8
					c0.3,0.3,0.6,0.6,0.9,0.9c2.3,2.6,3.2,5.8,2.6,9.3c-0.1,0.6,0,1.1,0.5,1.5c5.8,4,10.6,9.1,15.3,14.4c1.1,1.4,2.2,2.6,3.2,3.9
					c0.1,0.1,0.5,0.3,0.8,0.3c6.9-1.4,13,3.7,13.4,9.9c0,0.1,0.1,0.1,0.1,0.3C449.4,587.8,449.4,588.3,449.4,588.8z M317.7,625.4
					L317.7,625.4c3.1-1.6,6.2-3.2,9.1-5c0.3-0.1,0.4-0.5,0.5-0.8c1.2-4.5,4.2-7.3,8.6-8.2c4.6-0.9,8.3,0.6,11.3,4.3
					c0.3,0.3,0.5,0.5,0.9,0.6c5,1.5,10.1,2.2,15.3,2.3c7.1,0.1,14-0.8,20.9-2.8c16.3-4.8,30.3-13.4,42.6-25c0.1-0.1,0.3-0.5,0.3-0.8
					c-0.3-1.9-0.1-3.9,0.4-5.8c0.1-0.3,0-0.6-0.1-0.9c-1.2-1.5-2.5-2.9-3.7-4.5c-4.2-4.8-8.6-9.3-14-13.1c-0.4-0.3-0.8-0.3-1.2-0.1
					c-1.7,0.6-3.7,0.8-5.5,0.4c-4.8-0.9-8.6-5-9-9.7c-0.4-5.4,2.3-9.9,7.1-11.9c0.4-0.1,0.8-0.4,1.1-0.8c2.6-3.7,5.3-7.4,7.7-11.1
					c4.3-6.5,8.3-13.2,11.1-20.6c2.8-7.3,4.6-14.8,5.8-22.5c0-0.3-0.1-0.5-0.3-0.8c-0.6-1.1-1.5-2.2-2.3-3.4
					c-0.1-0.3-0.4-0.5-0.6-0.6c-14.5-4.6-29.3-7.6-44.6-7c-5.7,0.1-11.1,0.9-16.5,2.5c-0.4,0.1-0.9,0.4-1.2,0.8
					c-2.3,2.9-5.3,4.8-9,4.8c-8,0.1-13.6-8.2-10.5-15.6c0.1-0.4,0.3-0.9,0.1-1.4c-0.5-2.2-1.2-4.3-1.9-6.3
					c-5.3-16-13.2-30.6-23.6-43.9c-0.1-0.1-0.3-0.3-0.3-0.4c0,0.3,0,0.5,0.1,0.8c5.4,15,10,30.1,13.7,45.4
					c3.9,16.3,6.9,32.7,8.5,49.4c0.9,10.4,1.5,20.6,1.1,31c-0.3,11.1-1.4,22.4-3.7,33.3c-2.6,12.7-6.5,24.9-12.4,36.4
					C321.7,618.3,319.6,622,317.7,625.4z M302.9,431.8L302.9,431.8c-0.1,0.1-0.1,0.1-0.1,0.3c-1.4,8.2-3.1,16.4-5.1,24.5
					c-4,15.1-9.3,29.8-16.7,43.5c-7.1,13.2-15.9,25.2-27,35.3c-13.7,12.5-29.8,20.7-47.8,25c-0.6,0.1-0.9,0.4-1.4,0.9
					c-2.6,3.9-6.5,5.5-11.1,5c-2-1.1-3.5,0.1-5,1.2c-6,4.6-10.9,10.2-15.6,16.2c-0.1,0.1-0.1,0.5-0.1,0.8c0.5,1.7,0.6,3.4,0.4,5.1
					c-0.1,0.6,0,1.1,0.5,1.5c5.4,5,11.1,9.6,17.4,13.4c12.2,7.7,25.2,12.8,39.7,13.9c7.3,0.5,14.4-0.1,21.6-2.2
					c0.3-0.1,0.5-0.3,0.8-0.5c2.3-3.1,5.4-4.8,9.1-4.8c0.3,0,0.6-0.1,0.9-0.4c0.9-1.1,1.9-2.2,2.6-3.2
					c12.5-15.3,21.4-32.7,27.9-51.4c5-14.7,8.2-29.8,10.1-45.1c1.4-11.4,2.2-22.9,2.2-34.4c0-6-0.1-12.2-0.4-18.2
					c-0.5-7.9-1.2-15.8-1.9-23.8C303.2,433.7,303,432.7,302.9,431.8z M205,550.1c0.3,0,0.5-0.1,0.8-0.1
					c18.5-4.8,34.3-14.4,47.3-28.3c9.3-10,16.5-21.3,22.4-33.7c8.6-18.2,13.9-37.5,17.1-57.3c1.2-7.4,1.9-14.8,2.6-22.2
					c0.1-1.1,0.1-2,0.3-3.1c0,0-0.1,0-0.1-0.1c0,0.1-0.1,0.1-0.1,0.3c-6.8,7.1-13,14.8-18.4,23c-8.2,12.5-14.5,26-18.5,40.6
					c-0.1,0.4,0,0.9,0.1,1.4c0.6,1.7,1.1,3.7,0.8,5.7c-0.5,4.8-3.9,8.6-8.3,9.7c-4.6,1.1-9.4-0.6-12-4.6c-0.3-0.4-0.6-0.6-1.1-0.8
					c-6.2-1.9-12.5-2.5-18.8-2.6c-4.8,0-9.7,0.3-14.5,0.8c-9.4,1.2-18.5,3.2-27.6,6.2c-0.3,0.1-0.5,0.4-0.8,0.6
					c-0.8,1.1-1.5,2.3-2.3,3.4c-0.1,0.3-0.3,0.6-0.3,0.9c0.3,1.4,0.4,2.6,0.6,4.2c1.7,9.6,4.8,18.8,9.4,27.5c4,7.4,8.8,14.2,13.4,21
					c0.9,1.4,1.7,2.6,3.4,2.9c0,0,0.1,0,0.1,0.1C202.5,546.5,204,548.1,205,550.1z M314.8,447.3
					C314.8,447.3,314.6,447.3,314.8,447.3c-0.1,0.1-0.1,0.3-0.1,0.4c0.4,7.3,0.8,14.5,1.1,21.9c0.1,6.2,0,12.5-0.3,18.7
					c-0.4,13.1-1.9,26.1-4.2,38.9c-2.3,12.5-5.5,24.9-10,36.9c-6.9,18.7-16.4,36.1-29.2,51.4c-0.5,0.6-0.6,1.2-0.1,1.9
					c0.3,0.3,0.4,0.6,0.4,1.1c0.1,1.6,1.4,2.5,2.6,3.1c0.1,0,0.1,0.1,0.3,0.1c6.3,3.7,13.1,6.5,19.8,9.1c0.3,0.1,0.6,0,0.9,0
					c1.7-0.6,3.5-0.9,5.4-0.8c0.5,0.1,0.8-0.1,1.1-0.5c8.5-10.8,14.7-22.7,19.1-35.8c5.3-15.8,7.6-31.9,8-48.5
					c0.3-9.4,0-18.8-0.9-28.3c-0.8-8.5-1.9-17-3.4-25.3c-2.2-12.4-5-24.8-8.3-36.9C316.2,452.2,315.4,449.8,314.8,447.3z"/>
				<path class="st5" d="M386.6,347.4c0.6,0.6,1.5,1.2,1.9,2.2c1.2,2.8,2.5,5.8,3.4,8.8c1.7,4.8,3.2,9.9,4.8,14.8
					c1.1,3.5,3.4,5.8,6.8,7c5.3,1.9,10.4,3.7,15.6,5.5c2.9,1.1,5.8,2.2,8.8,3.2c0.8,0.3,1.6,0.8,2.5,1.4c0.9,0.6,0.9,1.4,0,2
					c-0.9,0.6-1.7,1.2-2.8,1.6c-4.6,1.6-9.1,3.2-13.6,4.8c-3.9,1.5-7.9,2.9-11.7,4.5c-2.3,0.8-3.7,2.6-4.6,4.8
					c-1.5,4-2.8,7.9-4.2,12c-1.2,3.7-2.5,7.3-3.7,10.9c-0.4,1.1-1.1,2.2-1.7,3.2c-0.9,1.4-2,1.4-2.8,0c-1.1-1.7-2-3.7-2.6-5.5
					c-1.7-5-3.2-10-4.8-15.1c-0.6-2.2-1.6-4.2-2.5-6.2c-0.6-1.6-1.9-2.9-3.5-3.7c-3.7-1.5-7.4-2.9-11.1-4.3c-4.8-1.7-9.6-3.4-14.4-5
					c-1.2-0.4-2.3-1.1-3.4-1.7c-1.2-0.8-1.2-1.6,0-2.3c1.5-0.8,2.9-1.6,4.6-2.2c5.7-2,11.3-3.9,16.8-5.9c2.5-0.8,4.8-1.9,7.1-2.9
					c1.7-0.8,2.8-2,3.7-3.7c1.7-3.7,2.9-7.7,4.2-11.7c1.2-3.9,2.6-7.7,3.9-11.6c0.3-0.9,0.6-1.7,1.2-2.6s1.2-1.4,1.9-2
					C386.1,347.4,386.3,347.4,386.6,347.4z"/>
				<path class="st6" d="M317.7,625.4c2-3.7,4-7.1,5.9-10.8c5.8-11.6,9.9-23.8,12.4-36.4c2.2-11.1,3.4-22.1,3.7-33.3
					c0.3-10.4-0.1-20.7-1.1-31c-1.6-16.7-4.6-33.2-8.5-49.4c-3.7-15.3-8.3-30.6-13.7-45.4c-0.1-0.3-0.1-0.4-0.1-0.8
					c0.1,0.1,0.3,0.3,0.3,0.4c10.2,13.3,18.4,27.9,23.6,43.9c0.6,2.2,1.4,4.2,1.9,6.3c0.1,0.4,0,0.9-0.1,1.4
					c-3.2,7.6,2.3,15.8,10.5,15.6c3.7,0,6.8-1.7,9-4.8c0.3-0.4,0.6-0.6,1.2-0.8c5.4-1.6,10.9-2.3,16.5-2.5c15.3-0.5,30.1,2.5,44.6,7
					c0.3,0.1,0.5,0.4,0.6,0.6c0.8,1.1,1.5,2.2,2.3,3.4c0.1,0.3,0.4,0.5,0.3,0.8c-1.2,7.7-2.9,15.3-5.8,22.5
					c-2.8,7.3-6.9,14-11.1,20.6c-2.6,3.7-5.1,7.6-7.7,11.1c-0.3,0.4-0.6,0.6-1.1,0.8c-4.8,1.9-7.6,6.5-7.1,11.9
					c0.4,4.8,4.2,8.8,9,9.7c1.9,0.4,3.7,0.3,5.5-0.4c0.5-0.1,0.8-0.1,1.2,0.1c5.3,3.7,9.9,8.2,14,13.1c1.2,1.5,2.5,2.9,3.7,4.5
					c0.1,0.3,0.3,0.6,0.1,0.9c-0.6,1.9-0.8,3.7-0.4,5.8c0,0.3,0,0.6-0.3,0.8c-12.2,11.6-26.1,20.4-42.6,25
					c-6.9,1.9-13.7,2.9-20.9,2.8c-5.3-0.1-10.4-0.8-15.3-2.3c-0.3-0.1-0.6-0.4-0.9-0.6c-2.9-3.7-6.8-5.3-11.3-4.3
					c-4.5,0.9-7.4,3.7-8.6,8.2c-0.1,0.3-0.3,0.6-0.5,0.8C323.9,622.2,320.8,623.9,317.7,625.4L317.7,625.4z"/>
				<path class="st6" d="M302.9,431.8c0.1,0.9,0.3,2,0.4,2.9c0.6,7.9,1.5,15.8,1.9,23.8c0.4,6,0.4,12.2,0.4,18.2
					c0,11.6-0.6,23-2.2,34.4c-1.9,15.3-5.1,30.4-10.1,45.1c-6.3,18.7-15.3,36.1-27.9,51.4c-0.9,1.1-1.7,2.2-2.6,3.2
					c-0.1,0.3-0.5,0.4-0.9,0.4c-3.9,0-6.9,1.6-9.1,4.8c-0.1,0.3-0.4,0.4-0.8,0.5c-7,2-14.2,2.6-21.6,2.2
					c-14.4-1.1-27.5-6.3-39.7-13.9c-6.2-3.9-12-8.5-17.4-13.4c-0.5-0.4-0.6-0.8-0.5-1.5c0.3-1.7,0.1-3.5-0.4-5.1
					c-0.1-0.3,0-0.6,0.1-0.8c4.8-5.8,9.7-11.4,15.6-16.2c1.5-1.2,2.9-2.3,5-1.2c4.8,0.5,8.5-1.1,11.1-5c0.4-0.5,0.6-0.8,1.4-0.9
					c18.1-4.3,34.1-12.5,47.8-25c11.1-10.1,19.9-22.1,27-35.3c7.4-13.7,12.8-28.4,16.7-43.5c2.2-8,3.7-16.3,5.1-24.5
					c0-0.1,0-0.1,0-0.3C302.7,431.8,302.7,431.8,302.9,431.8z"/>
				<path class="st6" d="M205,550.1c-1.1-2-2.6-3.5-4.6-4.6l-0.1-0.1c-1.6-0.4-2.5-1.7-3.4-2.9c-4.8-6.9-9.4-13.7-13.4-21
					c-4.8-8.6-7.7-17.8-9.4-27.5c-0.3-1.4-0.5-2.6-0.6-4.2c0-0.3,0.1-0.6,0.3-0.9c0.6-1.2,1.5-2.3,2.3-3.4c0.1-0.3,0.5-0.5,0.8-0.6
					c9-2.9,18.2-5,27.6-6.2c4.8-0.5,9.7-0.9,14.5-0.8c6.3,0.1,12.7,0.6,18.8,2.6c0.4,0.1,0.8,0.4,1.1,0.8c2.6,3.9,7.4,5.8,12,4.6
					c4.6-1.1,7.9-5,8.3-9.7c0.3-1.9-0.1-3.7-0.8-5.7c-0.1-0.4-0.3-0.9-0.1-1.4c3.9-14.5,10.2-28,18.5-40.6
					c5.4-8.2,11.4-15.9,18.4-23c0.1-0.1,0.1-0.1,0.1-0.3c0,0,0.1,0,0.1,0.1c0,1.1-0.1,2-0.3,3.1c-0.9,7.4-1.6,14.8-2.6,22.2
					c-3.2,19.8-8.5,39.1-17.1,57.3c-5.8,12.2-13.1,23.8-22.4,33.7c-13.1,14-28.7,23.5-47.3,28.3C205.6,550.1,205.3,550.1,205,550.1z
					"/>
				<path class="st6" d="M314.8,447.3c0.6,2.5,1.5,5,2.2,7.4c3.4,12.2,6.2,24.5,8.3,36.9c1.5,8.3,2.6,16.8,3.4,25.3
					c0.8,9.4,1.2,18.8,0.9,28.3c-0.5,16.5-2.8,32.7-8,48.5c-4.3,13-10.5,25-19.1,35.8c-0.3,0.4-0.5,0.5-1.1,0.5
					c-1.9-0.3-3.7,0.1-5.4,0.8c-0.3,0.1-0.6,0.1-0.9,0c-6.8-2.6-13.4-5.4-19.8-9.1c-0.1,0-0.1-0.1-0.3-0.1c-1.4-0.6-2.5-1.5-2.6-3.1
					c0-0.4-0.3-0.6-0.4-1.1c-0.5-0.6-0.4-1.2,0.1-1.9c12.8-15.3,22.4-32.7,29.2-51.4c4.5-12,7.7-24.2,10-36.9
					c2.3-13,3.7-25.9,4.2-38.9c0.3-6.2,0.4-12.5,0.3-18.7c-0.1-7.3-0.6-14.5-1.1-21.9C314.6,447.6,314.6,447.4,314.8,447.3
					C314.6,447.3,314.8,447.3,314.8,447.3z"/>
			</g>
		</g>
	</g>
</g>
</svg>
