<?xml version="1.0" encoding="utf-8"?>
<!-- Generator: Adobe Illustrator 28.4.1, SVG Export Plug-In . SVG Version: 6.00 Build 0)  -->
<svg version="1.1" id="Layer_1" xmlns="http://www.w3.org/2000/svg" xmlns:xlink="http://www.w3.org/1999/xlink" x="0px" y="0px"
	 viewBox="0 0 232 242" style="enable-background:new 0 0 232 242;" xml:space="preserve">
<style type="text/css">
	.st0{display:none;fill:#808AFF;}
	.st1{display:none;fill:#FFFFFF;stroke:#000000;stroke-miterlimit:10;}
	.st2{fill:#161621;}
	.st3{fill:#989AAD;}
	.st4{fill:#ACADBD;}
	.st5{opacity:0.5;fill:#292841;enable-background:new    ;}
	.st6{fill:#FFFFFF;}
	.st7{fill:none;}
</style>
<g>
	<path class="st0" d="M-3.5,32c0-17.7,14.3-32,32-32h168c17.7,0,32,14.3,32,32v210h-232V32z"/>
	<g>
		<path class="st1" d="M264.1,437.1H-32.1c-10.4,0-18.8-8.4-18.8-18.8V18.9c0-10.4,8.4-18.8,18.8-18.8h296.2
			c10.4,0,18.8,8.4,18.8,18.8v399.4C282.9,428.6,274.5,437.1,264.1,437.1z"/>
		<g>
			<path class="st2" d="M191.8,2.3H37.5c-14.7,0-26.6,12-26.6,26.6v379.2c0,14.8,11.9,26.6,26.6,26.6h154.3
				c14.7,0,26.6-12,26.6-26.6V28.9C218.4,14.2,206.5,2.3,191.8,2.3z"/>
			<path class="st3" d="M192.2,2.8c3.4,0,6.7,0.7,9.8,1.9c3.1,1.3,5.9,3.2,8.3,5.6c2.4,2.4,4.2,5.2,5.5,8.4c1.2,3.1,1.9,6.5,1.9,9.8
				v380.2c0,3.4-0.6,6.7-1.9,9.8c-1.3,3.1-3.1,5.9-5.6,8.3c-2.4,2.4-5.2,4.2-8.3,5.6c-3.1,1.3-6.4,1.9-9.7,1.9H36.9
				c-6.8,0-13.3-2.7-18.1-7.4c-4.8-4.8-7.5-11.3-7.6-18.1V28.4c0-6.8,2.7-13.4,7.5-18.2s11.4-7.5,18.2-7.5H192.2z M192.2,0H36.9
				c-7.5,0-14.8,3-20.1,8.4C11.4,13.7,8.4,21,8.4,28.4v380.2c0,3.8,0.8,7.4,2.2,10.8c1.4,3.5,3.6,6.6,6.2,9.2
				c2.6,2.6,5.7,4.7,9.2,6.1c3.5,1.3,7.2,2.2,10.8,2.1h155.3c7.5,0,14.7-3,20-8.3c5.3-5.3,8.3-12.5,8.3-20V28.4
				c0-3.8-0.7-7.4-2.1-10.8c-1.3-3.5-3.5-6.6-6.1-9.2c-2.6-2.6-5.7-4.7-9.2-6.2C199.6,0.8,195.9,0,192.2,0L192.2,0z"/>
			<path d="M125.8,14.1h-22.5c-1,0-1.9,0.8-1.9,1.9c0,1,0.8,1.9,1.9,1.9h22.5c1,0,1.9-0.8,1.9-1.9S126.9,14.1,125.8,14.1z"/>
			<path d="M134.6,19.2c1.8,0,3.4-1.4,3.4-3.4s-1.4-3.4-3.4-3.4c-1.8,0-3.4,1.4-3.4,3.4S132.9,19.2,134.6,19.2z"/>
			<path class="st4" d="M221.3,141.1h-0.8V87.9h0.8c0.6,0,1.2,0.2,1.6,0.6c0.4,0.4,0.6,1,0.6,1.6v48.6c0,0.6-0.2,1.2-0.6,1.6
				C222.5,140.8,221.9,141.1,221.3,141.1z"/>
		</g>
		<g>
			<path class="st5" d="M210.8,30v377.1c0,4.9-1.9,9.5-5.4,13.1c-3.5,3.5-8.2,5.4-13.1,5.4H36.8c-5,0-9.5-1.9-13.1-5.4
				c-3.5-3.5-5.4-8.2-5.5-13.1V30c0-5,1.9-9.7,5.4-13.2s8.2-5.4,13.2-5.4H63c1.1,0,2.2,0.5,2.9,1.3c0.8,0.8,1.3,1.8,1.3,2.9v1.9
				c0,1,0.2,1.9,0.5,2.8c0.3,0.9,0.9,1.8,1.5,2.4c0.7,0.7,1.4,1.3,2.4,1.6c0.9,0.3,1.8,0.6,2.8,0.6h80.3c1.9,0,3.8-0.8,5.2-2.2
				c1.3-1.3,2.2-3.3,2.2-5.2v-1.9c0.1-1.1,0.5-2.2,1.3-2.9c0.8-0.8,1.8-1.3,2.9-1.3h26.2c2.5,0,4.9,0.5,7.1,1.3
				c2.2,0.9,4.3,2.3,6,4.1c1.8,1.8,3,3.8,4,6C210.3,25.2,210.8,27.6,210.8,30z"/>
		</g>
		<g id="Layer_3">
			<g>
				<g>
					<path class="st6" d="M193.1,173.4c-0.1,0.3-0.2,0.6-0.2,1c-0.8,3.4-4.4,5.2-7.6,4.1c-0.3-0.2-0.5-0.1-0.7,0.2
						c-6.2,5.7-13.2,10.3-21.3,13.1c-4.1,1.4-8.4,2.3-12.8,2.4c-3.2,0.1-6.3-0.2-9.5-0.9c-0.1,0-0.1,0-0.2,0c-0.4,0.9-1,1.8-1.9,2.3
						c-2.2,1.6-5.3,1.4-7.3-0.3c-0.2-0.2-0.3-0.3-0.6-0.2c-2.9,1.8-6,3-9.1,4.3c-0.3,0.2-0.5,0.3-0.4,0.6c0.3,3.1-1.9,5.8-5.2,6.3
						c-3,0.3-5.8-1.9-6.3-4.9c-0.1-0.5-0.1-1-0.1-1.4c0-0.3-0.1-0.4-0.3-0.5c-2.3-1-4.5-2-6.8-3c-0.8-0.4-1.6-0.8-2.5-1.3
						c-0.2-0.1-0.3-0.2-0.5,0.1c-2.8,2.6-7.5,1.9-9.2-1.8c0,0,0-0.1-0.1-0.1c-1,0.2-1.9,0.3-2.8,0.5c-3,0.5-6.1,0.6-9.2,0.3
						c-9.4-0.9-17.7-4.6-25.2-10c-2.2-1.6-4.4-3.4-6.4-5.3c-0.2-0.2-0.3-0.2-0.6-0.2c-3.1,1.1-6.6-0.6-7.5-3.8c-1-3.3,1-6.6,4.3-7.3
						c0.8-0.2,1.5-0.1,2.3,0c0.3,0,0.4-0.1,0.6-0.3c1.7-1.9,3.4-3.9,5.1-5.6c1.3-1.3,2.9-2.6,4.4-3.8c0.2-0.2,0.3-0.2,0.2-0.5
						c-0.3-2.1,0.2-3.8,1.8-5.3c0.1-0.1,0.1-0.1,0.2-0.2c-0.8-1.1-1.5-2.2-2.3-3.4c-2.8-4.2-5.5-8.6-7.3-13.5
						c-1.3-3.6-2.2-7.3-2.8-11c-0.1-0.3-0.2-0.4-0.4-0.5c-2.6-0.7-4.4-3.1-4.3-5.7c0.2-2.8,2.1-5.2,4.9-5.6c2.2-0.3,4.1,0.4,5.4,2.2
						c0.2,0.2,0.3,0.3,0.6,0.2c4.2-1.3,8.5-2.3,13-2.9c4.4-0.6,8.9-0.8,13.4-0.4c1.9,0.2,3.8,0.6,5.7,0.9c0.1,0,0.2,0.1,0.2,0
						c0.6-0.6,1-1.3,1.7-1.9c1.1-1,2.5-1.3,3.9-1.3c0.3,0,0.4-0.1,0.6-0.3c3-10,7.9-19,14.5-27.2c1.9-2.4,4-4.6,6-6.9
						c0.2-0.2,0.2-0.3,0.1-0.6c-1.1-3.4,0.8-6.8,4.3-7.6c4.2-0.9,8,3.2,6.7,7.4c-0.2,0.4,0,0.6,0.2,0.9c4.6,4.8,8.7,10,12.2,15.7
						c3.5,5.7,6.2,11.7,8.2,18.1c0.1,0.2,0.1,0.2,0.2,0.3c2.6-0.2,4.5,1,5.7,3.2c1.3-0.2,2.6-0.5,3.9-0.7c3.3-0.5,6.6-0.6,9.8-0.3
						c5,0.3,9.9,1.1,14.7,2.4c1.3,0.3,2.6,0.7,3.8,1.1c0.3,0.1,0.4,0.1,0.6-0.2c1.5-1.9,3.5-2.6,5.8-2.1c2.3,0.5,3.8,2,4.3,4.3
						c0.8,2.9-1,6-4,6.8c-0.4,0.2-0.6,0.3-0.6,0.8c-0.5,2.9-1.2,5.8-2.1,8.7c-1.3,4-3,7.7-5.2,11.2c-1.5,2.5-3.2,5-4.8,7.4
						c-0.1,0.2-0.2,0.3-0.3,0.4c0.2,0.2,0.3,0.3,0.5,0.5c1.2,1.3,1.7,3,1.3,4.8c-0.1,0.3,0,0.6,0.3,0.8c3,2.1,5.5,4.7,7.9,7.4
						c0.6,0.7,1.1,1.3,1.7,2c0.1,0.1,0.3,0.2,0.4,0.2c3.6-0.7,6.7,1.9,6.9,5.1c0,0.1,0.1,0.1,0.1,0.2
						C193.1,172.9,193.1,173.1,193.1,173.4z M125.1,192.3L125.1,192.3c1.6-0.8,3.2-1.7,4.7-2.6c0.2-0.1,0.2-0.3,0.3-0.4
						c0.6-2.3,2.2-3.8,4.4-4.2c2.4-0.5,4.3,0.3,5.8,2.2c0.2,0.2,0.3,0.3,0.5,0.3c2.6,0.8,5.2,1.1,7.9,1.2c3.7,0.1,7.2-0.4,10.8-1.4
						c8.4-2.5,15.6-6.9,22-12.9c0.1-0.1,0.2-0.3,0.2-0.4c-0.2-1-0.1-2,0.2-3c0.1-0.2,0-0.3-0.1-0.5c-0.6-0.8-1.3-1.5-1.9-2.3
						c-2.2-2.5-4.4-4.8-7.2-6.8c-0.2-0.2-0.4-0.2-0.6-0.1c-0.9,0.3-1.9,0.4-2.8,0.2c-2.5-0.5-4.4-2.6-4.6-5
						c-0.2-2.8,1.2-5.1,3.7-6.1c0.2-0.1,0.4-0.2,0.6-0.4c1.3-1.9,2.7-3.8,4-5.7c2.2-3.4,4.3-6.8,5.7-10.6c1.4-3.8,2.4-7.6,3-11.6
						c0-0.2-0.1-0.3-0.2-0.4c-0.3-0.6-0.8-1.1-1.2-1.8c-0.1-0.2-0.2-0.3-0.3-0.3c-7.5-2.4-15.1-3.9-23-3.6c-2.9,0.1-5.7,0.5-8.5,1.3
						c-0.2,0.1-0.5,0.2-0.6,0.4c-1.2,1.5-2.7,2.5-4.6,2.5c-4.1,0.1-7-4.2-5.4-8.1c0.1-0.2,0.2-0.5,0.1-0.7c-0.3-1.1-0.6-2.2-1-3.3
						c-2.7-8.3-6.8-15.8-12.2-22.7c-0.1-0.1-0.2-0.2-0.2-0.2c0,0.2,0,0.3,0.1,0.4c2.8,7.7,5.2,15.5,7.1,23.4
						c2,8.4,3.6,16.9,4.4,25.5c0.5,5.4,0.8,10.6,0.6,16c-0.2,5.7-0.7,11.6-1.9,17.2c-1.3,6.6-3.4,12.9-6.4,18.8
						C127.2,188.6,126.1,190.5,125.1,192.3z M117.5,92.3L117.5,92.3c-0.1,0.1-0.1,0.1-0.1,0.2c-0.7,4.2-1.6,8.5-2.6,12.6
						c-2.1,7.8-4.8,15.4-8.6,22.5c-3.7,6.8-8.2,13-13.9,18.2c-7.1,6.5-15.4,10.7-24.7,12.9c-0.3,0.1-0.5,0.2-0.7,0.5
						c-1.3,2-3.4,2.8-5.7,2.6c-1-0.6-1.8,0.1-2.6,0.6c-3.1,2.4-5.6,5.3-8.1,8.4c-0.1,0.1-0.1,0.3-0.1,0.4c0.3,0.9,0.3,1.8,0.2,2.6
						c-0.1,0.3,0,0.6,0.3,0.8c2.8,2.6,5.7,5,9,6.9c6.3,4,13,6.6,20.5,7.2c3.8,0.3,7.4-0.1,11.1-1.1c0.2-0.1,0.3-0.2,0.4-0.3
						c1.2-1.6,2.8-2.5,4.7-2.5c0.2,0,0.3-0.1,0.5-0.2c0.5-0.6,1-1.1,1.3-1.7c6.5-7.9,11-16.9,14.4-26.5c2.6-7.6,4.2-15.4,5.2-23.3
						c0.7-5.9,1.1-11.8,1.1-17.8c0-3.1-0.1-6.3-0.2-9.4c-0.3-4.1-0.6-8.2-1-12.3C117.7,93.3,117.5,92.8,117.5,92.3z M67,153.4
						c0.2,0,0.3-0.1,0.4-0.1c9.5-2.5,17.7-7.4,24.4-14.6c4.8-5.2,8.5-11,11.6-17.4c4.4-9.4,7.2-19.4,8.8-29.6
						c0.6-3.8,1-7.6,1.3-11.5c0.1-0.6,0.1-1,0.2-1.6c0,0-0.1,0-0.1-0.1c0,0.1-0.1,0.1-0.1,0.2c-3.5,3.7-6.7,7.6-9.5,11.9
						c-4.2,6.5-7.5,13.4-9.5,21c-0.1,0.2,0,0.5,0.1,0.7c0.3,0.9,0.6,1.9,0.4,2.9c-0.3,2.5-2,4.4-4.3,5c-2.4,0.6-4.9-0.3-6.2-2.4
						c-0.2-0.2-0.3-0.3-0.6-0.4c-3.2-1-6.5-1.3-9.7-1.3c-2.5,0-5,0.2-7.5,0.4c-4.9,0.6-9.5,1.7-14.2,3.2c-0.2,0.1-0.3,0.2-0.4,0.3
						c-0.4,0.6-0.8,1.2-1.2,1.8c-0.1,0.2-0.2,0.3-0.2,0.5c0.2,0.7,0.2,1.3,0.3,2.2c0.9,5,2.5,9.7,4.9,14.2c2.1,3.8,4.5,7.3,6.9,10.8
						c0.5,0.7,0.9,1.3,1.8,1.5c0,0,0.1,0,0.1,0.1C65.7,151.6,66.4,152.4,67,153.4z M123.6,100.3
						C123.6,100.3,123.5,100.3,123.6,100.3c-0.1,0.1-0.1,0.2-0.1,0.2c0.2,3.8,0.4,7.5,0.6,11.3c0.1,3.2,0,6.5-0.2,9.7
						c-0.2,6.8-1,13.5-2.2,20.1c-1.2,6.5-2.8,12.9-5.2,19c-3.6,9.7-8.5,18.6-15.1,26.5c-0.3,0.3-0.3,0.6-0.1,1
						c0.2,0.2,0.2,0.3,0.2,0.6c0.1,0.8,0.7,1.3,1.3,1.6c0.1,0,0.1,0.1,0.2,0.1c3.3,1.9,6.8,3.4,10.2,4.7c0.2,0.1,0.3,0,0.5,0
						c0.9-0.3,1.8-0.5,2.8-0.4c0.3,0.1,0.4-0.1,0.6-0.3c4.4-5.6,7.6-11.7,9.9-18.5c2.7-8.2,3.9-16.5,4.1-25c0.2-4.9,0-9.7-0.5-14.6
						c-0.4-4.4-1-8.8-1.8-13.1c-1.1-6.4-2.6-12.8-4.3-19C124.4,102.9,123.9,101.6,123.6,100.3z"/>
					<path class="st6" d="M160.7,48.8c0.3,0.3,0.8,0.6,1,1.1c0.6,1.4,1.3,3,1.8,4.5c0.9,2.5,1.7,5.1,2.5,7.6c0.6,1.8,1.8,3,3.5,3.6
						c2.7,1,5.4,1.9,8.1,2.8c1.5,0.6,3,1.1,4.5,1.7c0.4,0.2,0.8,0.4,1.3,0.7c0.5,0.3,0.5,0.7,0,1c-0.5,0.3-0.9,0.6-1.4,0.8
						c-2.4,0.8-4.7,1.7-7,2.5c-2,0.8-4.1,1.5-6,2.3c-1.2,0.4-1.9,1.3-2.4,2.5c-0.8,2.1-1.4,4.1-2.2,6.2c-0.6,1.9-1.3,3.8-1.9,5.6
						c-0.2,0.6-0.6,1.1-0.9,1.7c-0.5,0.7-1,0.7-1.4,0c-0.6-0.9-1-1.9-1.3-2.8c-0.9-2.6-1.7-5.2-2.5-7.8c-0.3-1.1-0.8-2.2-1.3-3.2
						c-0.3-0.8-1-1.5-1.8-1.9c-1.9-0.8-3.8-1.5-5.7-2.2c-2.5-0.9-5-1.8-7.4-2.6c-0.6-0.2-1.2-0.6-1.8-0.9c-0.6-0.4-0.6-0.8,0-1.2
						c0.8-0.4,1.5-0.8,2.4-1.1c2.9-1,5.8-2,8.7-3c1.3-0.4,2.5-1,3.7-1.5c0.9-0.4,1.4-1,1.9-1.9c0.9-1.9,1.5-4,2.2-6c0.6-2,1.3-4,2-6
						c0.2-0.5,0.3-0.9,0.6-1.3c0.3-0.5,0.6-0.7,1-1C160.4,48.8,160.5,48.8,160.7,48.8z"/>
					<path class="st7" d="M125.1,192.3c1-1.9,2.1-3.7,3-5.6c3-6,5.1-12.3,6.4-18.8c1.1-5.7,1.8-11.4,1.9-17.2
						c0.2-5.4-0.1-10.7-0.6-16c-0.8-8.6-2.4-17.1-4.4-25.5c-1.9-7.9-4.3-15.8-7.1-23.4c-0.1-0.2-0.1-0.2-0.1-0.4
						c0.1,0.1,0.2,0.2,0.2,0.2c5.3,6.9,9.5,14.4,12.2,22.7c0.3,1.1,0.7,2.2,1,3.3c0.1,0.2,0,0.5-0.1,0.7c-1.7,3.9,1.2,8.2,5.4,8.1
						c1.9,0,3.5-0.9,4.6-2.5c0.2-0.2,0.3-0.3,0.6-0.4c2.8-0.8,5.6-1.2,8.5-1.3c7.9-0.3,15.5,1.3,23,3.6c0.2,0.1,0.3,0.2,0.3,0.3
						c0.4,0.6,0.8,1.1,1.2,1.8c0.1,0.2,0.2,0.3,0.2,0.4c-0.6,4-1.5,7.9-3,11.6c-1.4,3.8-3.6,7.2-5.7,10.6c-1.3,1.9-2.6,3.9-4,5.7
						c-0.2,0.2-0.3,0.3-0.6,0.4c-2.5,1-3.9,3.4-3.7,6.1c0.2,2.5,2.2,4.5,4.6,5c1,0.2,1.9,0.2,2.8-0.2c0.3-0.1,0.4-0.1,0.6,0.1
						c2.7,1.9,5.1,4.2,7.2,6.8c0.6,0.8,1.3,1.5,1.9,2.3c0.1,0.2,0.2,0.3,0.1,0.5c-0.3,1-0.4,1.9-0.2,3c0,0.2,0,0.3-0.2,0.4
						c-6.3,6-13.5,10.5-22,12.9c-3.6,1-7.1,1.5-10.8,1.4c-2.7-0.1-5.4-0.4-7.9-1.2c-0.2-0.1-0.3-0.2-0.5-0.3
						c-1.5-1.9-3.5-2.7-5.8-2.2c-2.3,0.5-3.8,1.9-4.4,4.2c-0.1,0.2-0.2,0.3-0.3,0.4C128.3,190.6,126.7,191.5,125.1,192.3
						L125.1,192.3z"/>
					<path class="st7" d="M117.5,92.3c0.1,0.5,0.2,1,0.2,1.5c0.3,4.1,0.8,8.2,1,12.3c0.2,3.1,0.2,6.3,0.2,9.4c0,6-0.3,11.9-1.1,17.8
						c-1,7.9-2.6,15.7-5.2,23.3c-3.3,9.7-7.9,18.6-14.4,26.5c-0.5,0.6-0.9,1.1-1.3,1.7c-0.1,0.2-0.3,0.2-0.5,0.2
						c-2,0-3.6,0.8-4.7,2.5c-0.1,0.2-0.2,0.2-0.4,0.3c-3.6,1-7.3,1.3-11.1,1.1c-7.4-0.6-14.2-3.3-20.5-7.2c-3.2-2-6.2-4.4-9-6.9
						c-0.3-0.2-0.3-0.4-0.3-0.8c0.2-0.9,0.1-1.8-0.2-2.6c-0.1-0.2,0-0.3,0.1-0.4c2.5-3,5-5.9,8.1-8.4c0.8-0.6,1.5-1.2,2.6-0.6
						c2.5,0.3,4.4-0.6,5.7-2.6c0.2-0.3,0.3-0.4,0.7-0.5c9.3-2.2,17.6-6.5,24.7-12.9c5.7-5.2,10.3-11.4,13.9-18.2
						c3.8-7.1,6.6-14.7,8.6-22.5c1.1-4.1,1.9-8.4,2.6-12.6c0-0.1,0-0.1,0-0.2C117.4,92.3,117.4,92.3,117.5,92.3z"/>
					<path class="st7" d="M67,153.4c-0.6-1-1.3-1.8-2.4-2.4l-0.1-0.1c-0.8-0.2-1.3-0.9-1.8-1.5c-2.5-3.6-4.9-7.1-6.9-10.8
						c-2.5-4.4-4-9.2-4.9-14.2c-0.2-0.7-0.3-1.3-0.3-2.2c0-0.2,0.1-0.3,0.2-0.5c0.3-0.6,0.8-1.2,1.2-1.8c0.1-0.2,0.3-0.3,0.4-0.3
						c4.6-1.5,9.4-2.6,14.2-3.2c2.5-0.3,5-0.5,7.5-0.4c3.3,0.1,6.6,0.3,9.7,1.3c0.2,0.1,0.4,0.2,0.6,0.4c1.3,2,3.8,3,6.2,2.4
						c2.4-0.6,4.1-2.6,4.3-5c0.2-1-0.1-1.9-0.4-2.9c-0.1-0.2-0.2-0.5-0.1-0.7c2-7.5,5.3-14.5,9.5-21c2.8-4.2,5.9-8.2,9.5-11.9
						c0.1-0.1,0.1-0.1,0.1-0.2c0,0,0.1,0,0.1,0.1c0,0.6-0.1,1-0.2,1.6c-0.5,3.8-0.8,7.6-1.3,11.5c-1.7,10.2-4.4,20.2-8.8,29.6
						c-3,6.3-6.8,12.3-11.6,17.4c-6.8,7.2-14.8,12.1-24.4,14.6C67.3,153.4,67.1,153.4,67,153.4z"/>
					<path class="st7" d="M123.6,100.3c0.3,1.3,0.8,2.6,1.1,3.8c1.8,6.3,3.2,12.6,4.3,19c0.8,4.3,1.3,8.7,1.8,13.1
						c0.4,4.9,0.6,9.7,0.5,14.6c-0.3,8.5-1.4,16.9-4.1,25c-2.2,6.7-5.4,12.9-9.9,18.5c-0.2,0.2-0.3,0.3-0.6,0.3
						c-1-0.2-1.9,0.1-2.8,0.4c-0.2,0.1-0.3,0.1-0.5,0c-3.5-1.3-6.9-2.8-10.2-4.7c-0.1,0-0.1-0.1-0.2-0.1c-0.7-0.3-1.3-0.8-1.3-1.6
						c0-0.2-0.2-0.3-0.2-0.6c-0.3-0.3-0.2-0.6,0.1-1c6.6-7.9,11.6-16.9,15.1-26.5c2.3-6.2,4-12.5,5.2-19c1.2-6.7,1.9-13.4,2.2-20.1
						c0.2-3.2,0.2-6.5,0.2-9.7c-0.1-3.8-0.3-7.5-0.6-11.3C123.5,100.5,123.5,100.4,123.6,100.3C123.5,100.3,123.6,100.3,123.6,100.3
						z"/>
				</g>
			</g>
		</g>
	</g>
</g>
</svg>
