<?xml version="1.0" encoding="utf-8"?>
<!-- Generator: Adobe Illustrator 28.4.1, SVG Export Plug-In . SVG Version: 6.00 Build 0)  -->
<svg version="1.1" id="art" xmlns="http://www.w3.org/2000/svg" xmlns:xlink="http://www.w3.org/1999/xlink" x="0px" y="0px"
	 viewBox="0 0 214.9 146.5" style="enable-background:new 0 0 214.9 146.5;" xml:space="preserve">
<style type="text/css">
	.st0{display:none;}
	.st1{display:inline;}
	.st2{fill:#8FFFAB;}
	.st3{fill:#29CA7A;}
	.st4{display:inline;fill:#E8459C;}
	.st5{display:inline;fill:#FF78B6;}
	.st6{display:inline;fill:#FFFFFF;}
	.st7{display:inline;fill:#4B7DFF;}
	.st8{display:inline;fill:#2C52F0;}
	.st9{fill:#FFFFFF;}
	.st10{fill:#FF2EA0;}
	.st11{fill:#4B7DFF;}
	.st12{fill:#FF78B6;}
	.st13{fill:#5765F1;}
	.st14{fill:#91FFAC;}
	.st15{fill:#66BBFF;}
	.st16{fill:#899FC2;}
	.st17{fill:#CAD6E3;}
	.st18{fill:#8AB9FF;}
	.st19{fill:#BACDE3;}
	.st20{fill:#92B3FF;}
	.st21{fill:#6E98FF;}
	.st22{fill:#628CF5;}
	.st23{fill:#FBECCE;}
	.st24{fill:#FAD2AF;}
	.st25{fill:#A16881;}
	.st26{fill:#B57590;}
	.st27{fill:#FAC6A8;}
	.st28{fill:#703D55;}
	.st29{fill:#A15F74;}
	.st30{fill:#B2D0D9;}
	.st31{fill:#F67C9D;}
	.st32{fill:#4568E6;}
	.st33{fill:#FFD69C;}
	.st34{fill:#FFDEA8;}
	.st35{fill:#FCA895;}
	.st36{fill:url(#SVGID_1_);}
	.st37{fill:url(#SVGID_00000003064389506211121620000002018917713101606827_);}
	.st38{fill:#FAF3C3;}
	.st39{fill:#FCC7AB;}
	.st40{fill:#F5AD98;}
	.st41{fill:#6592FF;}
	.st42{fill:#5B85FC;}
	.st43{fill:#FCAF97;}
	.st44{fill:#FCB89D;}
	.st45{fill:#4070EF;}
	.st46{fill:#82A7FF;}
	.st47{fill:#4D2C42;}
	.st48{fill:#5F354C;}
	.st49{fill:#6B3B54;}
	.st50{fill:#C46464;}
	.st51{fill:#903256;}
	.st52{fill:#A14166;}
	.st53{fill:#D6AE69;}
	.st54{fill:#EC824F;}
	.st55{fill:#DE7166;}
	.st56{fill:#3C2439;}
	.st57{fill:#A9E0DC;}
	.st58{fill:#7DDBD7;}
	.st59{fill:#62C7C3;}
	.st60{fill:#542E43;}
	.st61{fill:#D7265D;}
	.st62{fill:#B07081;}
	.st63{fill:#537CF2;}
	.st64{fill:#69A5FF;}
	.st65{fill:#EB366D;}
	.st66{fill:#3E63E6;}
	.st67{fill:#E8C572;}
	.st68{fill:#C98B51;}
	.st69{fill:#4A9DA8;}
	.st70{fill:#54BABC;}
	.st71{fill:#50AEB5;}
	.st72{fill:#4DA1B0;}
	.st73{fill:#E66EA6;}
	.st74{opacity:0.43;}
	.st75{display:inline;fill:url(#SVGID_00000138575136246661747060000010222462024985402028_);}
	.st76{display:inline;fill:#ADBAFD;}
	.st77{fill:none;stroke:#ADBAFD;stroke-linecap:round;stroke-linejoin:round;stroke-miterlimit:10;}
	.st78{opacity:0.31;}
	.st79{display:inline;fill:url(#SVGID_00000048487241073053442940000004888857003972195232_);}
	.st80{fill:#ADBAFD;}
	.st81{fill:none;stroke:#ADBAFD;stroke-width:2;stroke-linecap:round;stroke-linejoin:round;stroke-miterlimit:10;}
</style>
<g class="st0">
	<g class="st1">
		<polygon class="st2" points="98.1,111.9 95.9,116.5 91,120.4 47.4,135.5 40.9,134.7 12.7,59.3 6.6,43.2 10.2,36.6 51,18.9 
			59.3,18.9 95.9,106.9 		"/>
		<path class="st3" d="M10.9,30.9L10.9,30.9c-1.4,0.6-2.7,1.4-3.8,2.4c-1.1,1-2,2.3-2.6,3.7s-0.9,2.9-1,4.4c0,1.5,0.2,3,0.8,4.5
			L37.9,132c0.5,1.4,1.4,2.7,2.4,3.8c1.1,1.1,2.3,2,3.7,2.6s2.9,0.9,4.4,1s3-0.2,4.4-0.8L92.8,123c1.4-0.6,2.7-1.4,3.8-2.4
			c1.6-1.6,2.8-3.6,3.2-5.8c0.5-2.2,0.3-4.5-0.6-6.7L65.7,21.9c-0.5-1.4-1.4-2.7-2.4-3.8c-1-1.1-2.3-2-3.7-2.6c-1.4-0.6-2.9-1-4.4-1
			s-3,0.2-4.4,0.8L10.9,30.9L10.9,30.9z M44.5,130.1L10.4,42.7c-0.4-1-0.3-2.1,0.1-3c0.4-1,1.2-1.7,2.2-2.1l7.9-3.1
			c0.3-0.1,0.6-0.2,0.9-0.2c0.3,0,0.7,0,1,0.2c0.3,0.1,0.6,0.3,0.8,0.5c0.2,0.2,0.4,0.5,0.5,0.8c0.1,0.3,0.3,0.5,0.5,0.8
			c0.2,0.2,0.5,0.4,0.7,0.5c0.3,0.1,0.6,0.2,0.9,0.2c0.3,0,0.6,0,0.9-0.1l16.4-6.4c0.6-0.2,1.1-0.7,1.3-1.2s0.3-1.2,0.1-1.8
			c-0.2-0.6-0.2-1.2,0-1.8c0.2-0.6,0.7-1,1.3-1.2l8-3.1c1-0.3,2-0.3,3,0.1c1,0.4,1.7,1.2,2.1,2.1l34.1,87.5c0.4,1,0.4,2.1-0.1,3
			s-1.2,1.7-2.2,2.1l-41.3,16.1c-0.5,0.2-1,0.3-1.6,0.3c-0.5,0-1-0.1-1.5-0.3C45.7,131.9,44.9,131.1,44.5,130.1L44.5,130.1z"/>
	</g>
	<path class="st1" d="M65.7,33.7c0.9,7.6-0.4,15.1-2.7,16.8c-1.7,1.2-4.2-2.2-9.1-10c-2.8-4.4-1.5-8.2,1.7-10.2
		c2.9-1.9,7.9-1.1,9.7,1.9C65.5,32.6,65.7,33.1,65.7,33.7L65.7,33.7z"/>
	<ellipse transform="matrix(0.974 -0.2267 0.2267 0.974 -7.8225 14.8458)" class="st4" cx="60.7" cy="41.5" rx="5.9" ry="4.8"/>
	<path class="st4" d="M82.7,86.1c2,1.4,4,2.9,5.9,4.5c1.3,1.4,2.2,4.8-5.7,7.9l-6.4-12.3L82.7,86.1z"/>
	<path class="st5" d="M32.5,78c-1.9,2.7-3.1,6.2-4,11l16,41.1c0.4,1,1.2,1.8,2.1,2.2c0.5,0.2,1,0.3,1.5,0.3c0.5,0,1.1-0.1,1.6-0.3
		l37.7-14.7c0.9-3.4,1.3-6.9,1.3-10.5c-0.2-15.6-10.8-21.8-28.9-29.8C40.7,69.1,37,71.7,32.5,78L32.5,78z"/>
	<path class="st6" d="M46,72.6l8.5,13.8c2.4,17.8-3.2,45.5-3.2,45.5l29.9-11.7c2-11.8,1.7-22.4-1.7-31.9
		c-4.8-3.9-11.5-7.2-19.6-10.8C53.9,74.9,49.4,73.3,46,72.6L46,72.6z"/>
	<path class="st5" d="M23,75.1l10,25.7c3.8,0.4,8.6,1.9,10.4,0.9L50.9,74C35.5,69,29.8,68.1,23,75.1z"/>
	<path class="st7" d="M79.4,88.3c-4.8-3.9-11.5-7.2-19.6-10.8c-5.9-2.6-10.4-4.2-13.8-4.8l8.5,13.8l0.5,5.2
		c3.6,5.4,8.7,11.1,14.9,13.4s11.4,0.2,11.8-8.1C81.4,93.9,80.6,91,79.4,88.3L79.4,88.3z"/>
	<path class="st7" d="M66.7,88.7c7.7,5,13.8,4,21.1-5.4c6-7.7,0.2-15.8-2.2-18.6c1.6-8.7,1.1-14.2-5.1-19.5s-18.3-9.6-26.3-2.7
		c-8,7-8,13.4-11.4,30.7L66.7,88.7L66.7,88.7L66.7,88.7z"/>
	<path class="st8" d="M50.3,79.8C60.8,87.9,72.3,91,77.5,90.6C76.2,105.5,58.2,92.6,50.3,79.8z"/>
	<path class="st1" d="M78.1,53.8c2.6,0.4,4.4,2.8,4,4c-0.4,1.4-2.2,0.1-5-0.4s-5,0-4.6-1.3C72.9,54.8,75.5,53.4,78.1,53.8L78.1,53.8
		z"/>
	<path class="st5" d="M36.2,82.4l5.6-11.1c6.6,4,11.6,7.6,15.4,10.4c1.6,1.2,1.6,1.7-1.8,5.9c-0.5,0.6-0.7,1.3-0.7,2.1l0.3,3.2
		l-9.6-3.1L36.2,82.4L36.2,82.4z"/>
	<path class="st4" d="M57,85.4c1.7-2.3,1.8-2.6,0.5-3.7c-3.5-3-8.1-6.6-14-10.8c-0.9-0.7-2.1-0.6-3,0.1l0,0
		c0.3,1.8,0.4,6.3,2.1,10.7c1.7,4.3,3.2,7,4,7s2.7-1.4,4-2.4c5.1-3.5,6.3-3.8,6.9-3.3S58,84,57,85.4L57,85.4z"/>
	<path class="st1" d="M47.8,50.4l0.4,2.4c8.2,1.9,11.3-3.6,12.4-6.6c0.3-0.9,1.4-1.3,2.2-0.9C78.3,52.7,83,50.6,83.2,48
		c-0.7-0.9-1.6-1.9-2.6-2.8c-6.2-5.3-18.3-9.6-26.3-2.7C51.3,45,49.3,47.5,47.8,50.4z"/>
	<path class="st7" d="M49.9,62.1l3.2-8.1c-5.4-5.8-12.2-12.1-13.8-11.3c-1.5,0.8-0.7,4.3,2.2,13.6c0.1,0.5,0.1,1.1-0.1,1.6
		c-1.2,3.1-0.3,5.7,1.8,6.9c2.4,1.2,5.2,0.2,6.4-2.1C49.7,62.4,49.8,62.2,49.9,62.1L49.9,62.1z"/>
	<path class="st8" d="M50.3,59.2c0.3-0.3,0.4-0.8,0.2-1.1c-0.1-0.1-4.2-6.5-6.6-9.8c-0.3-0.4-0.9-0.5-1.3-0.2
		c-0.4,0.3-0.5,0.9-0.2,1.3l4,5.9c-1.8,2.2-2.1,4.3-0.9,6l0.2,0.2c0.4,0.3,1,0.3,1.3-0.1c0.4-0.4,0.3-1-0.1-1.3
		c-0.8-1-0.2-2.3,0.5-3.2L49,59l0.3,0.2C49.6,59.4,50,59.4,50.3,59.2L50.3,59.2z"/>
	<g class="st1">
		<path d="M81.8,69.4c1.2,0.3,2.3,2,1.2,4.2c-0.3,0.6-0.8,1.2-1.4,1.7c-0.1-0.5-0.2-1-0.4-1.5c-0.5-1.2-1.2-1-1.6,0.1l-0.8,1.8
			c-1.8-2-4.9-3.5-8-3.7c-1.2-0.1-2.3,0.1-3.3,0.4c-0.1-0.5-0.2-1-0.3-1.5c-0.1-1.3,0.6-2.7,1.7-3.2c0.6,2.3,3.8,3.6,6.5,3.8
			c2.7,0.3,5,0,5.7-2.2C81.4,69.3,81.6,69.4,81.8,69.4L81.8,69.4z"/>
		<path class="st9" d="M79.6,73.9c0.4-1.1,1.1-1.3,1.6-0.1c0.2,0.5,0.3,1,0.4,1.5c-0.6,0.5-1.2,1-2,1.3c-0.2-0.3-0.4-0.6-0.7-0.9
			L79.6,73.9L79.6,73.9z"/>
		<path class="st10" d="M70.9,72c3.2,0.2,6.2,1.6,8,3.7c0.3,0.3,0.5,0.6,0.7,0.9c-1.4,0.7-2.9,1-4.3,0.8c-1.1-0.1-2.1-0.3-3-0.7
			c0,0,0-0.1,0-0.1c0.1-1.3-0.1-2.3-0.5-3.2c-0.5-1.2-1.2-1-1.6,0.1l-0.7,1.7c-0.9-0.8-1.6-1.7-1.9-2.9C68.5,72.1,69.6,72,70.9,72
			L70.9,72z"/>
		<path class="st9" d="M71.8,73.5c0.3,0.9,0.6,1.9,0.5,3.2c0,0,0,0.1,0,0.1c-1-0.4-1.9-0.9-2.7-1.5l0.7-1.7
			C70.6,72.6,71.3,72.3,71.8,73.5L71.8,73.5z"/>
		<path class="st9" d="M69,67.6c0.6-0.3,1.5-0.4,2.4-0.1c1.9,0.6,3.5,2.1,5.4,2.2c1.5,0.1,2.6-0.8,4.3-0.5c-0.7,2.1-3,2.4-5.7,2.2
			C72.9,71.2,69.7,69.9,69,67.6z"/>
	</g>
	<path class="st1" d="M79.7,64c-0.5,0-0.9-0.3-1.1-0.7c0,0-0.6-1.2-1.6-1.5c-1-0.2-2.2,0.6-3,1.3c-0.5,0.5-1.3,0.4-1.8-0.1
		c-0.4-0.5-0.4-1.3,0.1-1.8c1.8-1.6,3.6-2.2,5.2-1.8c2.3,0.5,3.3,2.8,3.4,2.8c0.3,0.6,0,1.3-0.6,1.6C80.1,64,79.9,64,79.7,64
		L79.7,64z"/>
	<g class="st1">
		<path class="st11" d="M85.6,116.5c-0.2,0.3-0.1,0.9,0.9,2.7c3.3,2,6.7,3.9,10.2,5.7c2.3,1.2,5.2,0.2,6.3-2.1
			c0.2-0.4,0.3-0.8,0.4-1.2l2.7-13.3c0,0-4.6-3-9.7-6.2l-0.4,0c-1.9,0.3-2.3,0.4-2.4,0.6c0.1,0.6,0.2,1.3,0.5,1.9
			c0.3,1.1,0.6,2.2,0.5,2.5c-0.1,0.3-0.5,0.3-2.6,0.4c-1,0-2,0.2-2.9,0.5c-0.1,0.3-0.1,0.6,0.3,1.9c0.4,1.1,0.6,2.2,0.8,3.3
			c0,0.3-0.5,0.6-2,1.3C87.3,115.2,86.4,115.8,85.6,116.5L85.6,116.5z"/>
		<path class="st12" d="M85.3,94.8c0.1,5.3-0.8,18.1-3.8,25.2c2.3-0.7,3.5-1.6,5.1-0.6c0,0,0-0.1-0.1-0.1c-1-1.8-1.2-2.4-0.9-2.7
			c0.8-0.7,1.7-1.3,2.6-1.8c1.5-0.8,2-1,2-1.3c-0.2-1.1-0.5-2.2-0.8-3.3c-0.4-1.3-0.5-1.7-0.3-1.9c0.9-0.3,1.9-0.5,2.9-0.5
			c2.1-0.2,2.5-0.2,2.6-0.4c0.1-0.2-0.2-1.4-0.5-2.5c-0.2-0.6-0.4-1.2-0.5-1.9c0.1-0.2,0.4-0.3,2.4-0.6l0.4,0
			C96.4,102.1,88.5,96.8,85.3,94.8L85.3,94.8z"/>
	</g>
	<path class="st7" d="M116.1,118.7c-1.5,7.4-9.7,11.3-16.4,7.8l-5.1-2.7l15.2-37.7l12.4,1.5C122.4,87.6,116.1,118.7,116.1,118.7z"/>
	<g class="st1">
		<path class="st11" d="M104.5,89c0.1,0.1,0.1,0.2,0.2,0.3c0.3,0.6,0.6,1.1,0.9,1.4c2.3,2.8,12.7,4.9,20,1.4c1.9-0.9,2.9-3,3.3-5.7
			c0.1-0.9,0.2-1.8,0.2-2.8c0-3.9-0.8-8.3-1.7-11.6c-0.2-0.8-0.5-1.4-0.9-2.1c-0.2-0.3-0.4-0.6-0.7-0.9c-0.5-0.5-1.1-1-1.7-1.4
			c-0.8-0.4-1.7-0.7-2.6-0.8c1.1,3.1,2.2,7.3,2.5,12.1c0,0.7-0.5,1.3-1.2,1.3c0,0-0.1,0-0.1,0c-0.7,0-1.2-0.5-1.2-1.2
			c-0.3-5-1.6-9.4-2.7-12.4l-4.6-0.1c1.1,3.1,2.3,7.4,2.6,12.3c0,0.7-0.5,1.3-1.2,1.3c0,0-0.1,0-0.1,0c-0.7,0-1.2-0.5-1.2-1.2
			c-0.3-5.1-1.7-9.6-2.8-12.6l-1.4,0c-1.7,0-2.9,1.5-2.5,3.1c0.1,0.3,0.2,0.7,0.2,1c0,0.1,0,0.2,0.1,0.3c0.1,0.3,0.1,0.6,0.2,0.9
			c0,0.1,0,0.2,0.1,0.3c0.1,0.4,0.1,0.8,0.2,1.2c0,0.1,0,0.2,0,0.2c0.1,0.3,0.1,0.7,0.2,1.1c0,0.1,0,0.3,0.1,0.4
			c0.1,0.4,0.1,0.7,0.2,1.1c0,0.1,0,0.1,0,0.2c0.1,0.4,0.1,0.9,0.2,1.3c0,0.1,0,0.2,0,0.3c0,0.3,0.1,0.6,0.1,0.9c0,0.1,0,0.2,0,0.3
			c0,0.4,0.1,0.7,0.1,1l0,0l0,0c0.1,1.3,0.2,2.1,0.2,2.1s-0.4-0.9-0.9-2c-0.1-0.2-0.2-0.4-0.2-0.5c0,0,0-0.1,0-0.1
			c-0.1-0.2-0.2-0.3-0.2-0.5c0-0.1-0.1-0.1-0.1-0.2c-0.1-0.1-0.1-0.2-0.2-0.4c0-0.1-0.1-0.2-0.1-0.2c-0.1-0.1-0.1-0.2-0.2-0.3
			c0-0.1-0.1-0.2-0.1-0.2c-0.1-0.1-0.1-0.2-0.2-0.3c0-0.1-0.1-0.2-0.1-0.2c-0.1-0.1-0.1-0.2-0.2-0.3c0-0.1-0.1-0.1-0.1-0.2
			c-0.1-0.1-0.1-0.2-0.2-0.3c0-0.1-0.1-0.1-0.1-0.2c-0.1-0.1-0.2-0.3-0.3-0.4c-1-1.4-2.9-1.9-4.5-1.3l-0.1,0
			c-0.2,0.1-0.3,0.2-0.5,0.2c-0.2,0.1-0.4,0.3-0.5,0.5c-0.6,0.7-0.9,1.7-0.5,2.7c0.4,1.1,0.9,2.4,1.4,3.7c0.1,0.3,0.3,0.7,0.4,1
			c0.6,1.5,1.2,2.9,1.8,4.2C104,87.9,104.2,88.5,104.5,89L104.5,89z"/>
		<path d="M115.6,80.4c0.7-0.1,1.2-0.6,1.2-1.3c-0.3-4.9-1.5-9.2-2.6-12.3l-2.7-0.1c1.1,3,2.5,7.5,2.8,12.6
			C114.3,79.9,114.9,80.4,115.6,80.4C115.5,80.4,115.6,80.4,115.6,80.4L115.6,80.4z"/>
		<path d="M124,79c-0.3-4.8-1.4-9-2.5-12.1c-0.2,0-0.4-0.1-0.6-0.1l-2.1,0c1.1,3,2.4,7.4,2.7,12.4c0,0.7,0.6,1.2,1.2,1.2
			c0,0,0.1,0,0.1,0C123.5,80.3,124.1,79.7,124,79z"/>
	</g>
	<path class="st8" d="M101.9,105.6c-0.7-0.4-1.4-0.9-2.2-1.4l-2.4,6.1c-0.3,0.6,0.1,1.4,0.7,1.6c0.2,0.1,0.3,0.1,0.5,0.1
		c0.5,0,1-0.3,1.2-0.8L101.9,105.6L101.9,105.6z"/>
</g>
<g>
	<path class="st13" d="M188.3,20c-1.9-1.2-3.2-3.2-3.5-5.5l-0.6-3.9c0-0.2-0.2-0.3-0.4-0.3l0,0c-0.2,0-0.4,0.1-0.4,0.3l-0.6,3.9
		c-0.3,2.2-1.6,4.3-3.5,5.5l-0.5,0.3c-0.1,0.1-0.2,0.2-0.2,0.3l0,0c0,0.1,0.1,0.2,0.2,0.3l0.5,0.3c1.9,1.3,3.2,3.3,3.5,5.5l0.6,3.9
		c0,0.2,0.2,0.3,0.4,0.3l0,0c0.2,0,0.4-0.1,0.4-0.3l0.6-3.9c0.3-2.2,1.6-4.2,3.5-5.5l0.5-0.3c0.1-0.1,0.2-0.2,0.2-0.3l0,0
		c0-0.1-0.1-0.2-0.2-0.3C188.8,20.3,188.3,20,188.3,20z"/>
	<path class="st14" d="M205.7,118c-1.9-1.2-3.2-3.2-3.5-5.5l-0.6-3.9c0-0.2-0.2-0.3-0.4-0.3l0,0c-0.2,0-0.4,0.1-0.4,0.3l-0.6,3.9
		c-0.3,2.2-1.6,4.3-3.5,5.5l-0.5,0.3c-0.1,0.1-0.2,0.2-0.2,0.3l0,0c0,0.1,0.1,0.2,0.2,0.3l0.5,0.3c1.9,1.3,3.2,3.3,3.5,5.5l0.6,3.9
		c0,0.2,0.2,0.3,0.4,0.3l0,0c0.2,0,0.4-0.1,0.4-0.3l0.6-3.9c0.3-2.2,1.6-4.2,3.5-5.5l0.5-0.3c0.1-0.1,0.2-0.2,0.2-0.3l0,0
		c0-0.1-0.1-0.2-0.2-0.3L205.7,118z"/>
	<path class="st15" d="M157.8,36.1c-1.3-0.9-2.2-2.2-2.4-3.8l-0.4-2.7c0-0.1-0.1-0.2-0.3-0.2l0,0c-0.1,0-0.3,0.1-0.3,0.2l-0.4,2.7
		c-0.2,1.6-1.1,3-2.4,3.8l-0.3,0.2c-0.1,0.1-0.1,0.1-0.1,0.2l0,0c0,0.1,0.1,0.1,0.1,0.2l0.3,0.2c1.3,0.9,2.2,2.3,2.4,3.8l0.4,2.7
		c0,0.1,0.1,0.2,0.3,0.2l0,0c0.1,0,0.3-0.1,0.3-0.2l0.4-2.7c0.2-1.5,1.1-2.9,2.4-3.8l0.4-0.2c0.1-0.1,0.1-0.1,0.1-0.2l0,0
		c0-0.1-0.1-0.1-0.1-0.2L157.8,36.1z"/>
</g>
<g>
	<g>
		<g>
			<path class="st16" d="M151.8,122.4h-1.4V121c0-0.2,0.1-0.4,0.2-0.5c0.1-0.1,0.3-0.2,0.5-0.2l0,0c0.2,0,0.4,0.1,0.5,0.2
				c0.1,0.1,0.2,0.3,0.2,0.5V122.4z"/>
			<path class="st17" d="M149.3,93.2c0,0,0.1,0,0.1,0c0,0,0,0.1,0,0.1v5.1h-0.4v-5.1c0,0,0-0.1,0-0.1
				C149.2,93.2,149.2,93.2,149.3,93.2L149.3,93.2z"/>
			<path class="st18" d="M149.4,93.5v1.3c0.7-0.3,1,0.5,1.9-0.2C150.5,94.3,150.3,93.5,149.4,93.5z"/>
			<path class="st19" d="M46.3,120.1h-1.7v-2.2c0-0.2,0.1-0.4,0.2-0.6c0.2-0.2,0.4-0.2,0.6-0.2c0.2,0,0.4,0.1,0.6,0.2
				c0.2,0.2,0.2,0.4,0.2,0.6L46.3,120.1L46.3,120.1z"/>
			<path class="st19" d="M46.3,129.3h-1.7v-2.2c0-0.2,0.1-0.4,0.2-0.6c0.2-0.2,0.4-0.2,0.6-0.2l0,0c0.2,0,0.4,0.1,0.6,0.2
				c0.2,0.2,0.2,0.4,0.2,0.6L46.3,129.3L46.3,129.3z"/>
			<path class="st19" d="M46.3,138.5h-1.7v-2.2c0-0.2,0.1-0.4,0.2-0.6c0.2-0.2,0.4-0.2,0.6-0.2l0,0c0.2,0,0.4,0.1,0.6,0.2
				c0.2,0.2,0.2,0.4,0.2,0.6L46.3,138.5L46.3,138.5z"/>
			<path class="st20" d="M173.2,104.3h-68.7V82.3h55.2L173.2,104.3z"/>
			<path class="st21" d="M128.6,104.3h-16l12.1-22.1h12.8L128.6,104.3z"/>
			<path class="st22" d="M104.5,105.5h67.7l1-1.1h-68.7V105.5z"/>
			<path class="st23" d="M172.2,105.5h-67.7v41.4h67.7V105.5z"/>
			<path class="st24" d="M172.2,109.5l-67.7,6v-10h67.7V109.5z"/>
			<path class="st25" d="M120.7,110.5c0-1.3-0.8-2.4-1.7-2.4s-1.7,1.1-1.7,2.4v3.4h3.4L120.7,110.5L120.7,110.5z"/>
			<path class="st25" d="M131.6,110.5c0-1.3-0.8-2.4-1.7-2.4c-1,0-1.7,1.1-1.7,2.4v3.4h3.4L131.6,110.5L131.6,110.5z"/>
			<path class="st26" d="M131.6,110.5v3.4h-1v-3.4c0-1.1-0.5-2-1.2-2.3c0.2-0.1,0.3-0.1,0.5-0.1
				C130.8,108.1,131.6,109.2,131.6,110.5z"/>
			<path class="st26" d="M120.7,110.5v3.4h-1v-3.4c0-1.1-0.5-2-1.2-2.3c0.2-0.1,0.3-0.1,0.5-0.1
				C119.9,108.1,120.7,109.2,120.7,110.5z"/>
			<path class="st25" d="M141.2,110.5c0-1.3-0.8-2.4-1.7-2.4c-0.9,0-1.7,1.1-1.7,2.4v3.4h3.4V110.5z"/>
			<path class="st26" d="M141.2,110.5v3.4h-1v-3.4c0-1.1-0.5-2-1.2-2.3c0.2-0.1,0.3-0.1,0.5-0.1
				C140.5,108.1,141.2,109.2,141.2,110.5z"/>
			<path class="st25" d="M150.7,110.5c0-1.3-0.8-2.4-1.7-2.4c-1,0-1.7,1.1-1.7,2.4v3.4h3.4L150.7,110.5L150.7,110.5z"/>
			<path class="st26" d="M150.7,110.5v3.4h-1v-3.4c0-1.1-0.5-2-1.2-2.3c0.2-0.1,0.3-0.1,0.5-0.1
				C149.9,108.1,150.7,109.2,150.7,110.5z"/>
			<path class="st25" d="M120.7,120.7c0-1.3-0.8-2.4-1.7-2.4s-1.7,1.1-1.7,2.4v3.4h3.4L120.7,120.7L120.7,120.7z"/>
			<path class="st25" d="M131.6,120.7c0-1.3-0.8-2.4-1.7-2.4c-1,0-1.7,1.1-1.7,2.4v3.4h3.4L131.6,120.7L131.6,120.7z"/>
			<path class="st25" d="M141.2,120.7c0-1.3-0.8-2.4-1.7-2.4c-0.9,0-1.7,1.1-1.7,2.4v3.4h3.4V120.7z"/>
			<path class="st25" d="M150.7,120.7c0-1.3-0.8-2.4-1.7-2.4c-1,0-1.7,1.1-1.7,2.4v3.4h3.4L150.7,120.7L150.7,120.7z"/>
			<path class="st23" d="M137.6,71.4h-12.8v10.9h12.8V71.4z"/>
			<path class="st24" d="M124.8,71.4h12.8v1l-12.8,1.9V71.4L124.8,71.4z"/>
			<path class="st27" d="M129.5,71.4h-4.7v10.9h4.7V71.4z"/>
			<path class="st28" d="M138.3,70.7h-14.2l0.7,0.7h12.8L138.3,70.7z"/>
			<path class="st29" d="M138.7,69.6h-15c-0.3,0-0.6,0.2-0.6,0.6s0.2,0.6,0.6,0.6h15c0.3,0,0.6-0.2,0.6-0.6
				C139.3,69.9,139,69.6,138.7,69.6z"/>
			<path class="st30" d="M131.7,41.6h-1v28.1h1V41.6z"/>
			<path class="st30" d="M131.9,41.1h-1.4c-0.2,0-0.3,0.1-0.3,0.2s0.1,0.2,0.3,0.2h1.4c0.2,0,0.3-0.1,0.3-0.2
				C132.2,41.2,132,41.1,131.9,41.1z"/>
			<path class="st30" d="M131.2,41.4c0.6,0,1.1-0.5,1.1-1.1c0-0.6-0.5-1.1-1.1-1.1c-0.6,0-1.1,0.5-1.1,1.1
				C130.1,40.9,130.6,41.4,131.2,41.4z"/>
			<path class="st31" d="M147.6,44.1c-8.5,2.8-8.5-2.7-15.7-1.5v10.9c7.3-1.2,7.3,4.3,15.7,1.5c-0.7-1.5-1.2-3.1-1.7-4.7
				C147,47.6,147.6,44.1,147.6,44.1z"/>
			<path class="st21" d="M160.9,89.7C160.8,89.7,160.8,89.7,160.9,89.7c-0.1,0-0.2,0-0.2,0c0,0-0.1,0-0.1,0c0,0,0,0-0.1,0
				c-0.2,0.2-0.6,0.4-0.9,0.4c-0.3,0.1-0.7,0.2-1,0.2c-0.4,0-0.7,0-1-0.2s-0.6-0.2-0.9-0.4c0,0,0,0-0.1,0c0,0-0.1,0-0.1,0
				c0,0-0.1,0-0.1,0s-0.1,0-0.1,0c-0.2,0.2-0.6,0.4-0.9,0.4c-0.3,0.1-0.7,0.2-1,0.2c-0.4,0-0.7,0-1-0.2c-0.3-0.1-0.6-0.2-0.9-0.4
				c0,0,0,0-0.1,0c0,0-0.1,0-0.1,0c0,0-0.1,0-0.1,0c0,0-0.1,0-0.1,0c-0.2,0.2-0.6,0.4-0.9,0.4c-0.3,0.1-0.7,0.2-1,0.2
				c-0.4,0-0.7,0-1-0.2s-0.6-0.2-0.9-0.4c0,0,0,0-0.1,0c0,0-0.1,0-0.1,0c0,0-0.1,0-0.1,0c0,0-0.1,0-0.1,0c-0.2,0.2-0.6,0.4-0.9,0.4
				c-0.3,0.1-0.7,0.2-1,0.2c-0.4,0-0.7,0-1-0.2c-0.3-0.1-0.6-0.2-0.9-0.4c0,0,0,0-0.1,0c0,0-0.1,0-0.1,0c0,0-0.1,0-0.1,0
				c0,0-0.1,0-0.1,0c-0.2,0.2-0.6,0.4-0.9,0.4c-0.3,0.1-0.7,0.2-1,0.2c-0.4,0-0.7,0-1-0.2s-0.6-0.2-0.9-0.4c0,0,0,0-0.1,0
				c0,0-0.1,0-0.1,0c0,0-0.1,0-0.1,0c0,0-0.1,0-0.1,0c-0.2,0.2-0.6,0.4-0.9,0.4c-0.3,0.1-0.7,0.2-1,0.2s-0.7,0-1-0.2
				c-0.3-0.1-0.6-0.2-0.9-0.4c0,0,0,0-0.1,0s-0.1,0-0.1,0c0,0-0.1,0-0.1,0c0,0-0.1,0-0.1,0c-0.2,0.2-0.6,0.4-0.9,0.4
				c-0.3,0.1-0.7,0.2-1,0.2c-0.4,0-0.7,0-1-0.2c-0.3-0.1-0.6-0.2-0.9-0.4c0,0,0,0-0.1,0s-0.1,0-0.1,0c0,0-0.1,0-0.1,0
				c0,0-0.1,0-0.1,0c-0.2,0.2-0.6,0.4-0.9,0.4c-0.3,0.1-0.7,0.2-1,0.2s-0.7,0-1-0.2c-0.3-0.1-0.6-0.2-0.9-0.4c0,0,0,0-0.1,0
				c0,0-0.1,0-0.1,0c0,0-0.1,0-0.1,0c0,0-0.1,0-0.1,0c-0.2,0.2-0.6,0.4-0.9,0.4c-0.3,0.1-0.7,0.2-1,0.2c-0.4,0-0.7,0-1-0.2
				c-0.3-0.1-0.6-0.2-0.9-0.4c0,0,0,0-0.1,0c0,0-0.1,0-0.1,0s-0.1,0-0.1,0c0,0-0.1,0-0.1,0c-0.2,0.2-0.6,0.4-0.9,0.4
				c-0.3,0.1-0.7,0.2-1,0.2c-0.4,0-0.7,0-1-0.2c-0.3-0.1-0.6-0.2-0.9-0.4c0,0,0,0-0.1,0c0,0-0.1,0-0.1,0c0,0-0.1,0-0.1,0
				c0,0-0.1,0-0.1,0c-0.2,0.2-0.6,0.4-0.9,0.4c-0.3,0.1-0.7,0.2-1,0.2c-0.4,0-0.7,0-1-0.2c-0.3-0.1-0.6-0.2-0.9-0.4c0,0,0,0-0.1,0
				s-0.1,0-0.1,0c0,0-0.1,0-0.1,0c0,0,0,0-0.1,0c-0.2,0.2-0.6,0.4-0.9,0.4c-0.3,0.1-0.7,0.2-1,0.2c-0.4,0-0.7,0-1-0.2
				c-0.3-0.1-0.6-0.2-0.9-0.4c0,0,0,0-0.1,0c0,0-0.1,0-0.1,0c0,0-0.1,0-0.1,0c0,0-0.1,0-0.1,0c-0.2,0.2-0.6,0.4-0.9,0.4
				c-0.3,0.1-0.7,0.2-1,0.2c-0.4,0-0.7,0-1-0.2c-0.3-0.1-0.6-0.2-0.9-0.4c0,0,0,0-0.1,0s-0.1,0-0.1,0c0,0-0.1,0-0.1,0
				c0,0-0.1,0-0.1,0c-0.2,0.2-0.5,0.3-0.8,0.4v0.5c0.4-0.1,0.7-0.3,1-0.5c0.6,0.4,1.4,0.6,2.1,0.6c0.8,0,1.5-0.2,2.1-0.6
				c0.6,0.4,1.4,0.6,2.1,0.6c0.8,0,1.5-0.2,2.1-0.6c0.6,0.4,1.4,0.6,2.1,0.6c0.8,0,1.5-0.2,2.1-0.6c0.6,0.4,1.4,0.6,2.1,0.6
				c0.8,0,1.5-0.2,2.1-0.6c0.6,0.4,1.4,0.6,2.1,0.6c0.8,0,1.5-0.2,2.1-0.6c0.6,0.4,1.4,0.6,2.1,0.6c0.8,0,1.5-0.2,2.1-0.6
				c0.6,0.4,1.4,0.6,2.1,0.6c0.8,0,1.5-0.2,2.1-0.6c0.6,0.4,1.3,0.6,2.1,0.6c0.8,0,1.5-0.2,2.1-0.6c0.6,0.4,1.4,0.6,2.1,0.6
				s1.5-0.2,2.1-0.6c0.6,0.4,1.4,0.6,2.1,0.6s1.5-0.2,2.1-0.6c0.6,0.4,1.4,0.6,2.1,0.6c0.8,0,1.5-0.2,2.1-0.6
				c0.6,0.4,1.4,0.6,2.1,0.6c0.8,0,1.5-0.2,2.1-0.6c0.6,0.4,1.4,0.6,2.1,0.6c0.8,0,1.5-0.2,2.1-0.6c0.6,0.4,1.3,0.6,2.1,0.6
				c0.6,0,1.1-0.1,1.6-0.3l-0.2-0.4c-0.5,0.2-1.1,0.3-1.7,0.2C161.9,90.2,161.3,90,160.9,89.7L160.9,89.7z"/>
			<path class="st21" d="M160.6,85.5c-0.5,0.4-1.2,0.6-1.9,0.6c-0.4,0-0.7,0-1-0.2c-0.3-0.1-0.6-0.2-0.9-0.4c0,0,0,0-0.1,0
				c0,0-0.1,0-0.1,0c0,0-0.1,0-0.1,0c0,0-0.1,0-0.1,0c-0.5,0.4-1.2,0.6-1.9,0.6c-0.7,0-1.4-0.2-1.9-0.6c0,0,0,0-0.1,0
				c0,0-0.1,0-0.1,0s-0.1,0-0.1,0c0,0-0.1,0-0.1,0c-0.2,0.2-0.6,0.4-0.9,0.4c-0.3,0.1-0.7,0.2-1,0.2c-0.4,0-0.7,0-1-0.2
				c-0.3-0.1-0.6-0.2-0.9-0.4c0,0,0,0-0.1,0c0,0-0.1,0-0.1,0c0,0-0.1,0-0.1,0c0,0-0.1,0-0.1,0c-0.2,0.2-0.6,0.4-0.9,0.4
				c-0.3,0.1-0.7,0.2-1,0.2c-0.4,0-0.7,0-1-0.2c-0.3-0.1-0.6-0.2-0.9-0.4c0,0,0,0-0.1,0c0,0-0.1,0-0.1,0s-0.1,0-0.1,0
				c0,0-0.1,0-0.1,0c-0.2,0.2-0.6,0.4-0.9,0.4c-0.3,0.1-0.7,0.2-1,0.2c-0.4,0-0.7,0-1-0.2c-0.3-0.1-0.6-0.2-0.9-0.4c0,0,0,0-0.1,0
				c0,0-0.1,0-0.1,0c0,0-0.1,0-0.1,0c0,0-0.1,0-0.1,0c-0.2,0.2-0.6,0.4-0.9,0.4c-0.3,0.1-0.7,0.2-1,0.2s-0.7,0-1-0.2
				c-0.3-0.1-0.6-0.2-0.9-0.4c0,0,0,0-0.1,0c0,0-0.1,0-0.1,0s-0.1,0-0.1,0c0,0-0.1,0-0.1,0c-0.5,0.4-1.2,0.6-1.9,0.6
				c-0.4,0-0.7,0-1-0.2c-0.3-0.1-0.6-0.2-0.9-0.4c0,0,0,0-0.1,0s-0.1,0-0.1,0c0,0-0.1,0-0.1,0c0,0-0.1,0-0.1,0
				c-0.2,0.2-0.6,0.4-0.9,0.4c-0.3,0.1-0.7,0.2-1,0.2c-0.4,0-0.7,0-1-0.2c-0.3-0.1-0.6-0.2-0.9-0.4c0,0,0,0-0.1,0c0,0-0.1,0-0.1,0
				s-0.1,0-0.1,0c0,0-0.1,0-0.1,0c-0.2,0.2-0.6,0.4-0.9,0.4c-0.3,0.1-0.7,0.2-1,0.2c-0.4,0-0.7,0-1-0.2c-0.3-0.1-0.6-0.2-0.9-0.4
				c0,0,0,0-0.1,0c0,0-0.1,0-0.1,0s-0.1,0-0.1,0c0,0-0.1,0-0.1,0c-0.5,0.4-1.2,0.6-1.9,0.6c-0.7,0-1.4-0.2-1.9-0.6c0,0,0,0-0.1,0
				c0,0-0.1,0-0.1,0c0,0-0.1,0-0.1,0c0,0-0.1,0-0.1,0c-0.2,0.2-0.6,0.4-0.9,0.4c-0.3,0.1-0.7,0.2-1,0.2c-0.7,0-1.4-0.2-1.9-0.6
				c0,0,0,0-0.1,0c0,0-0.1,0-0.1,0c0,0-0.1,0-0.1,0c0,0,0,0-0.1,0c-0.5,0.4-1.2,0.6-1.9,0.6c-0.4,0-0.7,0-1-0.2
				c-0.3-0.1-0.6-0.2-0.9-0.4c0,0,0,0-0.1,0c0,0-0.1,0-0.1,0c0,0-0.1,0-0.1,0c0,0-0.1,0-0.1,0c-0.5,0.4-1.2,0.6-1.9,0.6
				s-1.4-0.2-1.9-0.6c0,0,0,0-0.1,0c0,0-0.1,0-0.1,0c0,0-0.1,0-0.1,0c0,0-0.1,0-0.1,0c-0.2,0.2-0.5,0.3-0.8,0.4v0.4
				c0.4-0.1,0.7-0.2,1-0.4c0.6,0.4,1.4,0.6,2.1,0.6c0.8,0,1.5-0.2,2.1-0.6c0.6,0.4,1.4,0.6,2.1,0.6c0.8,0,1.5-0.2,2.1-0.6
				c0.6,0.4,1.4,0.6,2.1,0.6s1.5-0.2,2.1-0.6c0.6,0.4,1.4,0.6,2.1,0.6s1.5-0.2,2.1-0.6c0.6,0.4,1.4,0.6,2.1,0.6s1.5-0.2,2.1-0.6
				c0.6,0.4,1.4,0.6,2.1,0.6s1.5-0.2,2.1-0.6c0.6,0.4,1.4,0.6,2.1,0.6c0.8,0,1.5-0.2,2.1-0.6c0.6,0.4,1.3,0.6,2.1,0.6
				c0.8,0,1.5-0.2,2.1-0.6c0.6,0.4,1.4,0.6,2.1,0.6s1.5-0.2,2.1-0.6c0.6,0.4,1.4,0.6,2.1,0.6s1.5-0.2,2.1-0.6
				c0.6,0.4,1.4,0.6,2.1,0.6c0.8,0,1.5-0.2,2.1-0.6c0.6,0.4,1.4,0.6,2.1,0.6c0.8,0,1.5-0.2,2.1-0.6c0.6,0.4,1.4,0.6,2.1,0.6
				c0.8,0,1.5-0.2,2.1-0.6c0.4,0.2,0.8,0.4,1.2,0.5l-0.4-0.5c-0.3-0.1-0.5-0.2-0.8-0.4c0,0,0,0-0.1,0c0,0-0.1,0-0.1,0
				c0,0-0.1,0-0.1,0C160.6,85.5,160.6,85.5,160.6,85.5L160.6,85.5z"/>
			<path class="st21" d="M107.7,96.4c0.6,0.4,1.4,0.6,2.1,0.6c0.8,0,1.5-0.2,2.1-0.6c0.6,0.4,1.3,0.6,2.1,0.6c0.8,0,1.5-0.2,2.1-0.6
				c0.6,0.4,1.4,0.6,2.1,0.6c0.8,0,1.6-0.2,2.1-0.6c0.6,0.4,1.4,0.6,2.1,0.6c0.8,0,1.5-0.2,2.1-0.6c0.6,0.4,1.4,0.6,2.1,0.6
				c0.8,0,1.5-0.2,2.1-0.6c0.6,0.4,1.4,0.6,2.1,0.6c0.8,0,1.5-0.2,2.1-0.6c0.6,0.4,1.3,0.6,2.1,0.6c0.8,0,1.5-0.2,2.1-0.6
				c0.6,0.4,1.3,0.6,2.1,0.6c0.8,0,1.5-0.2,2.1-0.6c0.6,0.4,1.4,0.6,2.1,0.6c0.8,0,1.5-0.2,2.1-0.6c0.6,0.4,1.4,0.6,2.1,0.6
				c0.8,0,1.5-0.2,2.1-0.6c0.6,0.4,1.4,0.6,2.1,0.6c0.8,0,1.5-0.2,2.1-0.6c0.6,0.4,1.3,0.6,2.1,0.6c0.8,0,1.5-0.2,2.1-0.6
				c0.6,0.4,1.3,0.6,2.1,0.6c0.8,0,1.5-0.2,2.1-0.6c0.6,0.4,1.4,0.6,2.1,0.6c0.8,0,1.6-0.2,2.1-0.6c0.4,0.2,0.8,0.4,1.3,0.5
				l-0.3-0.5c-0.3-0.1-0.6-0.3-0.8-0.4c0,0,0,0-0.1,0s-0.1,0-0.1,0s-0.1,0-0.1,0c0,0-0.1,0-0.1,0c-0.2,0.2-0.6,0.4-0.9,0.4
				c-0.3,0.1-0.7,0.2-1,0.2c-0.7,0-1.4-0.2-1.9-0.6c0,0,0,0-0.1,0c0,0-0.1,0-0.1,0c0,0-0.1,0-0.1,0c0,0-0.1,0-0.1,0
				c-0.2,0.2-0.6,0.4-0.9,0.4c-0.3,0.1-0.7,0.2-1,0.2c-0.4,0-0.7,0-1-0.2c-0.3-0.1-0.6-0.2-0.9-0.4c0,0,0,0-0.1,0s-0.1,0-0.1,0
				s-0.1,0-0.1,0c0,0-0.1,0-0.1,0c-0.5,0.4-1.2,0.6-1.9,0.6c-0.4,0-0.7,0-1-0.2c-0.3-0.1-0.6-0.2-0.9-0.4c0,0,0,0-0.1,0
				c0,0-0.1,0-0.1,0c0,0-0.1,0-0.1,0c0,0-0.1,0-0.1,0c-0.2,0.2-0.6,0.4-0.9,0.4c-0.3,0.1-0.7,0.2-1,0.2c-0.4,0-0.7,0-1-0.2
				c-0.3-0.1-0.6-0.2-0.9-0.4c0,0,0,0-0.1,0c0,0-0.1,0-0.1,0s-0.1,0-0.1,0c0,0-0.1,0-0.1,0c-0.2,0.2-0.6,0.4-0.9,0.4
				c-0.3,0.1-0.7,0.2-1,0.2c-0.4,0-0.7,0-1-0.2c-0.3-0.1-0.6-0.2-0.9-0.4c0,0,0,0-0.1,0c0,0-0.1,0-0.1,0c0,0-0.1,0-0.1,0
				c0,0-0.1,0-0.1,0c-0.5,0.4-1.2,0.6-1.9,0.6c-0.7,0-1.4-0.2-1.9-0.6c0,0,0,0-0.1,0c0,0-0.1,0-0.1,0s-0.1,0-0.1,0c0,0-0.1,0-0.1,0
				c-0.2,0.2-0.6,0.4-0.9,0.4c-0.3,0.1-0.7,0.2-1,0.2c-0.7,0-1.4-0.2-1.9-0.6c0,0,0,0-0.1,0c0,0-0.1,0-0.1,0c0,0-0.1,0-0.1,0
				c0,0,0,0-0.1,0c-0.5,0.4-1.2,0.6-1.9,0.6c-0.4,0-0.7,0-1-0.2c-0.3-0.1-0.6-0.2-0.9-0.4c0,0,0,0-0.1,0c0,0-0.1,0-0.1,0
				c0,0-0.1,0-0.1,0s-0.1,0-0.1,0c-0.5,0.4-1.2,0.6-1.9,0.6c-0.7,0-1.4-0.2-1.9-0.6c0,0,0,0-0.1,0s-0.1,0-0.1,0s-0.1,0-0.1,0
				c0,0-0.1,0-0.1,0c-0.2,0.2-0.6,0.4-0.9,0.4c-0.3,0.1-0.7,0.2-1,0.2c-0.4,0-0.7,0-1-0.2c-0.3-0.1-0.6-0.2-0.9-0.4c0,0,0,0-0.1,0
				s-0.1,0-0.1,0c0,0-0.1,0-0.1,0c0,0-0.1,0-0.1,0c-0.2,0.2-0.6,0.4-0.9,0.4c-0.3,0.1-0.7,0.2-1,0.2c-0.4,0-0.7,0-1-0.2
				c-0.3-0.1-0.6-0.2-0.9-0.4c0,0,0,0-0.1,0c0,0-0.1,0-0.1,0c0,0-0.1,0-0.1,0c0,0-0.1,0-0.1,0c-0.2,0.2-0.6,0.4-0.9,0.4
				c-0.3,0.1-0.7,0.2-1,0.2c-0.7,0-1.4-0.2-1.9-0.6c0,0,0,0-0.1,0s-0.1,0-0.1,0c0,0-0.1,0-0.1,0c0,0-0.1,0-0.1,0
				c-0.2,0.2-0.6,0.4-0.9,0.4c-0.3,0.1-0.7,0.2-1,0.2c-0.4,0-0.7,0-1-0.2c-0.3-0.1-0.6-0.2-0.9-0.4c0,0,0,0-0.1,0s-0.1,0-0.1,0
				c0,0-0.1,0-0.1,0c0,0-0.1,0-0.1,0c-0.2,0.2-0.6,0.4-0.9,0.4c-0.3,0.1-0.7,0.2-1,0.2c-0.4,0-0.7,0-1-0.2c-0.3-0.1-0.6-0.2-0.9-0.4
				c0,0,0,0-0.1,0c0,0-0.1,0-0.1,0c0,0-0.1,0-0.1,0c0,0-0.1,0-0.1,0c-0.4,0.3-0.8,0.5-1.4,0.6s-1,0-1.6-0.1v0.4
				c0.3,0.1,0.6,0.1,1,0.1C106.3,97,107.1,96.8,107.7,96.4z"/>
			<path class="st21" d="M172,102.9c-0.4,0.1-0.9,0.1-1.4,0c-0.4-0.1-0.9-0.3-1.2-0.5c0,0,0,0-0.1,0c0,0-0.1,0-0.1,0
				c0,0-0.1,0-0.1,0s-0.1,0-0.1,0c-0.2,0.2-0.6,0.4-0.9,0.4c-0.3,0.1-0.7,0.2-1,0.2c-0.4,0-0.7,0-1-0.2c-0.3-0.1-0.6-0.2-0.9-0.4
				c0,0,0,0-0.1,0s-0.1,0-0.1,0s-0.1,0-0.1,0c0,0-0.1,0-0.1,0c-0.2,0.2-0.6,0.4-0.9,0.4c-0.3,0.1-0.7,0.2-1,0.2c-0.4,0-0.7,0-1-0.2
				c-0.3-0.1-0.6-0.2-0.9-0.4c0,0,0,0-0.1,0c0,0-0.1,0-0.1,0c0,0-0.1,0-0.1,0c0,0,0,0-0.1,0c-0.2,0.2-0.6,0.4-0.9,0.4
				c-0.3,0.1-0.7,0.2-1,0.2c-0.4,0-0.7,0-1-0.2c-0.3-0.1-0.6-0.2-0.9-0.4c0,0,0,0-0.1,0s-0.1,0-0.1,0c0,0-0.1,0-0.1,0s-0.1,0-0.1,0
				c-0.2,0.2-0.6,0.4-0.9,0.4c-0.3,0.1-0.7,0.2-1,0.2c-0.4,0-0.7,0-1-0.2c-0.3-0.1-0.6-0.2-0.9-0.4c0,0,0,0-0.1,0s-0.1,0-0.1,0
				c0,0-0.1,0-0.1,0c0,0-0.1,0-0.1,0c-0.2,0.2-0.6,0.4-0.9,0.4c-0.3,0.1-0.7,0.2-1,0.2c-0.4,0-0.7,0-1-0.2c-0.3-0.1-0.6-0.2-0.9-0.4
				c0,0,0,0-0.1,0s-0.1,0-0.1,0c0,0-0.1,0-0.1,0s-0.1,0-0.1,0c-0.2,0.2-0.6,0.4-0.9,0.4c-0.3,0.1-0.7,0.2-1,0.2c-0.4,0-0.7,0-1-0.2
				c-0.3-0.1-0.6-0.2-0.9-0.4c0,0,0,0-0.1,0s-0.1,0-0.1,0c0,0-0.1,0-0.1,0c0,0-0.1,0-0.1,0c-0.2,0.2-0.6,0.4-0.9,0.4
				c-0.3,0.1-0.7,0.2-1,0.2c-0.4,0-0.7,0-1-0.2s-0.6-0.2-0.9-0.4c0,0,0,0-0.1,0s-0.1,0-0.1,0c0,0-0.1,0-0.1,0s-0.1,0-0.1,0
				c-0.2,0.2-0.6,0.4-0.9,0.4c-0.3,0.1-0.7,0.2-1,0.2s-0.7,0-1-0.2c-0.3-0.1-0.6-0.2-0.9-0.4c0,0,0,0-0.1,0s-0.1,0-0.1,0
				c0,0-0.1,0-0.1,0c0,0-0.1,0-0.1,0c-0.2,0.2-0.6,0.4-0.9,0.4c-0.3,0.1-0.7,0.2-1,0.2s-0.7,0-1-0.2c-0.3-0.1-0.6-0.2-0.9-0.4
				c0,0,0,0-0.1,0s-0.1,0-0.1,0c0,0-0.1,0-0.1,0c0,0-0.1,0-0.1,0c-0.2,0.2-0.6,0.4-0.9,0.4c-0.3,0.1-0.7,0.2-1,0.2s-0.7,0-1-0.2
				c-0.3-0.1-0.6-0.2-0.9-0.4c0,0,0,0-0.1,0c0,0-0.1,0-0.1,0c0,0-0.1,0-0.1,0c0,0-0.1,0-0.1,0c-0.2,0.2-0.6,0.4-0.9,0.4
				c-0.3,0.1-0.7,0.2-1,0.2c-0.4,0-0.7,0-1-0.2c-0.3-0.1-0.6-0.2-0.9-0.4c0,0,0,0-0.1,0c0,0-0.1,0-0.1,0s-0.1,0-0.1,0
				c0,0-0.1,0-0.1,0c-0.2,0.2-0.6,0.4-0.9,0.4c-0.3,0.1-0.7,0.2-1,0.2c-0.4,0-0.7,0-1-0.2c-0.3-0.1-0.6-0.2-0.9-0.4c0,0,0,0-0.1,0
				s-0.1,0-0.1,0c0,0-0.1,0-0.1,0c0,0-0.1,0-0.1,0c-0.2,0.2-0.6,0.4-0.9,0.4c-0.3,0.1-0.7,0.2-1,0.2c-0.4,0-0.7,0-1-0.2
				c-0.3-0.1-0.6-0.2-0.9-0.4c0,0,0,0-0.1,0s-0.1,0-0.1,0c0,0-0.1,0-0.1,0c0,0,0,0-0.1,0c-0.2,0.2-0.6,0.4-0.9,0.4
				c-0.3,0.1-0.7,0.2-1,0.2s-0.7,0-1-0.2c-0.3-0.1-0.6-0.2-0.9-0.4c0,0,0,0-0.1,0c0,0-0.1,0-0.1,0c0,0-0.1,0-0.1,0c0,0-0.1,0-0.1,0
				c-0.2,0.2-0.6,0.4-0.9,0.4c-0.3,0.1-0.7,0.2-1,0.2c-0.4,0-0.7,0-1-0.2c-0.3-0.1-0.6-0.2-0.9-0.4c0,0,0,0-0.1,0s-0.1,0-0.1,0
				c0,0-0.1,0-0.1,0c0,0-0.1,0-0.1,0c-0.2,0.2-0.5,0.3-0.8,0.4v0.4c0.4-0.1,0.7-0.2,1-0.4c0.6,0.4,1.4,0.6,2.1,0.6
				c0.8,0,1.5-0.2,2.1-0.6c0.6,0.4,1.4,0.6,2.1,0.6c0.8,0,1.5-0.2,2.1-0.6c0.6,0.4,1.4,0.6,2.1,0.6c0.8,0,1.5-0.2,2.1-0.6
				c0.6,0.4,1.4,0.6,2.1,0.6c0.8,0,1.5-0.2,2.1-0.6c0.6,0.4,1.4,0.6,2.1,0.6c0.8,0,1.5-0.2,2.1-0.6c0.6,0.4,1.4,0.6,2.1,0.6
				c0.8,0,1.5-0.2,2.1-0.6c0.6,0.4,1.4,0.6,2.1,0.6c0.8,0,1.5-0.2,2.1-0.6c0.6,0.4,1.3,0.6,2.1,0.6c0.8,0,1.5-0.2,2.1-0.6
				c0.6,0.4,1.4,0.6,2.1,0.6s1.5-0.2,2.1-0.6c0.6,0.4,1.4,0.6,2.1,0.6s1.5-0.2,2.1-0.6c0.6,0.4,1.4,0.6,2.1,0.6
				c0.8,0,1.5-0.2,2.1-0.6c0.6,0.4,1.4,0.6,2.1,0.6c0.8,0,1.5-0.2,2.1-0.6c0.6,0.4,1.4,0.6,2.1,0.6c0.8,0,1.5-0.2,2.1-0.6
				c0.6,0.4,1.3,0.6,2.1,0.6c0.8,0,1.5-0.2,2.1-0.6c0.6,0.4,1.4,0.6,2.1,0.6c0.8,0,1.5-0.2,2.1-0.6c0.6,0.4,1.4,0.6,2.1,0.6
				c0.3,0,0.6,0,0.9-0.1L172,102.9z"/>
			<path class="st21" d="M104.5,84.3c0.3,0.1,0.6,0.1,1,0.1c0.8,0,1.5-0.2,2.1-0.6c0.6,0.4,1.4,0.6,2.1,0.6c0.8,0,1.5-0.2,2.1-0.6
				c0.6,0.4,1.3,0.6,2.1,0.6c0.8,0,1.5-0.2,2.1-0.6c0.6,0.4,1.4,0.6,2.1,0.6c0.8,0,1.6-0.2,2.1-0.6c0.6,0.4,1.4,0.6,2.1,0.6
				c0.8,0,1.5-0.2,2.1-0.6c0.6,0.4,1.4,0.6,2.1,0.6c0.8,0,1.5-0.2,2.1-0.6c0.6,0.4,1.4,0.6,2.1,0.6c0.8,0,1.5-0.2,2.1-0.6
				c0.6,0.4,1.3,0.6,2.1,0.6c0.8,0,1.5-0.2,2.1-0.6c0.6,0.4,1.3,0.6,2.1,0.6c0.8,0,1.5-0.2,2.1-0.6c0.6,0.4,1.4,0.6,2.1,0.6
				s1.5-0.2,2.1-0.6c0.6,0.4,1.4,0.6,2.1,0.6c0.8,0,1.5-0.2,2.1-0.6c0.6,0.4,1.4,0.6,2.1,0.6c0.8,0,1.5-0.2,2.1-0.6
				c0.6,0.4,1.3,0.6,2.1,0.6c0.8,0,1.5-0.2,2.1-0.6c0.6,0.4,1.4,0.6,2.1,0.6l-0.2-0.4c-0.6,0-1.2-0.3-1.7-0.6c0,0,0,0-0.1,0
				c0,0-0.1,0-0.1,0c0,0-0.1,0-0.1,0c0,0-0.1,0-0.1,0c-0.2,0.2-0.6,0.4-0.9,0.4c-0.3,0.1-0.7,0.2-1,0.2c-0.4,0-0.7,0-1-0.2
				c-0.3-0.1-0.6-0.3-0.9-0.5c0,0,0,0-0.1,0c0,0-0.1,0-0.1,0c0,0-0.1,0-0.1,0s-0.1,0-0.1,0c-0.2,0.2-0.6,0.4-0.9,0.4
				c-0.3,0.1-0.7,0.2-1,0.2c-0.4,0-0.7,0-1-0.2c-0.3-0.1-0.6-0.2-0.9-0.4c0,0,0,0-0.1,0c0,0-0.1,0-0.1,0c0,0-0.1,0-0.1,0
				c0,0-0.1,0-0.1,0c-0.2,0.2-0.6,0.4-0.9,0.4c-0.3,0.1-0.7,0.2-1,0.2c-0.4,0-0.7,0-1-0.2s-0.6-0.2-0.9-0.4c0,0,0,0-0.1,0
				c0,0-0.1,0-0.1,0c0,0-0.1,0-0.1,0c0,0-0.1,0-0.1,0c-0.2,0.2-0.6,0.4-0.9,0.4c-0.3,0.1-0.7,0.2-1,0.2c-0.4,0-0.7,0-1-0.2
				c-0.3-0.1-0.6-0.2-0.9-0.4c0,0,0,0-0.1,0c0,0-0.1,0-0.1,0c0,0-0.1,0-0.1,0c0,0-0.1,0-0.1,0c-0.2,0.2-0.6,0.4-0.9,0.5
				c-0.3,0.1-0.7,0.2-1,0.2c-0.4,0-0.7,0-1-0.2c-0.3-0.1-0.6-0.2-0.9-0.4c0,0,0,0-0.1,0c0,0-0.1,0-0.1,0c0,0-0.1,0-0.1,0
				c0,0,0,0-0.1,0c-0.2,0.2-0.6,0.4-0.9,0.4c-0.3,0.1-0.7,0.2-1,0.2c-0.4,0-0.7,0-1-0.2c-0.3-0.1-0.6-0.3-0.9-0.5c0,0,0,0-0.1,0
				s-0.1,0-0.1,0c0,0-0.1,0-0.1,0c0,0-0.1,0-0.1,0c-0.2,0.2-0.6,0.4-0.9,0.4c-0.3,0.1-0.7,0.2-1,0.2c-0.4,0-0.7,0-1-0.2
				c-0.3-0.1-0.6-0.3-0.9-0.4c0,0,0,0-0.1,0s-0.1,0-0.1,0s-0.1,0-0.1,0c0,0-0.1,0-0.1,0c-0.2,0.2-0.6,0.4-0.9,0.4
				c-0.3,0.1-0.7,0.2-1,0.2c-0.4,0-0.7,0-1-0.2c-0.3-0.1-0.6-0.2-0.9-0.4c0,0,0,0-0.1,0s-0.1,0-0.1,0c0,0-0.1,0-0.1,0
				c0,0-0.1,0-0.1,0c-0.2,0.2-0.6,0.4-0.9,0.4c-0.3,0.1-0.7,0.2-1,0.2c-0.4,0-0.7,0-1-0.2s-0.6-0.2-0.9-0.4c0,0,0,0-0.1,0
				c0,0-0.1,0-0.1,0c0,0-0.1,0-0.1,0c0,0-0.1,0-0.1,0c-0.2,0.2-0.6,0.4-0.9,0.5c-0.3,0.1-0.7,0.2-1,0.2c-0.4,0-0.7,0-1-0.2
				c-0.3-0.1-0.6-0.2-0.9-0.4c0,0,0,0-0.1,0c0,0-0.1,0-0.1,0s-0.1,0-0.1,0c0,0-0.1,0-0.1,0c-0.2,0.2-0.6,0.4-0.9,0.4
				c-0.3,0.1-0.7,0.2-1,0.2c-0.4,0-0.7,0-1-0.2c-0.3-0.1-0.6-0.2-0.9-0.4c0,0,0,0-0.1,0c0,0-0.1,0-0.1,0c0,0-0.1,0-0.1,0
				c0,0-0.1,0-0.1,0c-0.2,0.2-0.6,0.4-0.9,0.4c-0.3,0.1-0.7,0.2-1,0.2c-0.4,0-0.7,0-1-0.2c-0.3-0.1-0.6-0.2-0.9-0.4c0,0,0,0-0.1,0
				s-0.1,0-0.1,0c0,0-0.1,0-0.1,0c0,0-0.1,0-0.1,0c-0.2,0.2-0.6,0.4-0.9,0.4c-0.3,0.1-0.7,0.2-1,0.2c-0.3,0-0.7,0-1-0.2L104.5,84.3
				L104.5,84.3z"/>
			<path class="st21" d="M165.1,93.9C165.1,93.9,165.1,93.9,165.1,93.9c-0.1,0-0.2,0-0.2,0c0,0-0.1,0-0.1,0s-0.1,0-0.1,0
				c-0.2,0.2-0.6,0.4-0.9,0.5c-0.3,0.1-0.7,0.2-1,0.2c-0.4,0-0.7,0-1-0.2c-0.3-0.1-0.6-0.2-0.9-0.4c0,0,0,0-0.1,0c0,0-0.1,0-0.1,0
				c0,0-0.1,0-0.1,0c0,0,0,0-0.1,0c-0.2,0.2-0.6,0.4-0.9,0.4c-0.3,0.1-0.7,0.2-1,0.2c-0.4,0-0.7,0-1-0.2c-0.3-0.1-0.6-0.3-0.9-0.5
				c0,0,0,0-0.1,0c0,0-0.1,0-0.1,0c0,0-0.1,0-0.1,0c0,0-0.1,0-0.1,0c-0.2,0.2-0.6,0.4-0.9,0.4c-0.3,0.1-0.7,0.2-1,0.2
				c-0.4,0-0.7,0-1-0.2c-0.3-0.1-0.6-0.3-0.9-0.4c0,0,0,0-0.1,0c0,0-0.1,0-0.1,0s-0.1,0-0.1,0c0,0-0.1,0-0.1,0
				c-0.2,0.2-0.6,0.4-0.9,0.4c-0.3,0.1-0.7,0.2-1,0.2c-0.4,0-0.7,0-1-0.2c-0.3-0.1-0.6-0.2-0.9-0.4c0,0,0,0-0.1,0c0,0-0.1,0-0.1,0
				c0,0-0.1,0-0.1,0c0,0-0.1,0-0.1,0c-0.2,0.2-0.6,0.4-0.9,0.4c-0.3,0.1-0.7,0.2-1,0.2c-0.4,0-0.7,0-1-0.2c-0.3-0.1-0.6-0.2-0.9-0.4
				c0,0,0,0-0.1,0c0,0-0.1,0-0.1,0s-0.1,0-0.1,0c0,0-0.1,0-0.1,0c-0.2,0.2-0.6,0.4-0.9,0.4c-0.3,0.1-0.7,0.2-1,0.2
				c-0.4,0-0.7,0-1-0.2c-0.3-0.1-0.6-0.2-0.9-0.4c0,0,0,0-0.1,0c0,0-0.1,0-0.1,0c0,0-0.1,0-0.1,0c0,0-0.1,0-0.1,0
				c-0.2,0.2-0.6,0.4-0.9,0.4c-0.3,0.1-0.7,0.2-1,0.2s-0.7,0-1-0.2c-0.3-0.1-0.6-0.2-0.9-0.4c0,0,0,0-0.1,0c0,0-0.1,0-0.1,0
				s-0.1,0-0.1,0c0,0-0.1,0-0.1,0c-0.2,0.2-0.6,0.4-0.9,0.4c-0.3,0.1-0.7,0.2-1,0.2s-0.7,0-1-0.2c-0.3-0.1-0.6-0.3-0.9-0.5
				c0,0,0,0-0.1,0c0,0-0.1,0-0.1,0s-0.1,0-0.1,0s-0.1,0-0.1,0c-0.2,0.2-0.6,0.4-0.9,0.4c-0.3,0.1-0.7,0.2-1,0.2s-0.7,0-1-0.2
				c-0.3-0.1-0.6-0.2-0.9-0.4c0,0,0,0-0.1,0s-0.1,0-0.1,0c0,0-0.1,0-0.1,0c0,0-0.1,0-0.1,0c-0.2,0.2-0.6,0.4-0.9,0.4
				c-0.3,0.1-0.7,0.2-1,0.2c-0.4,0-0.7,0-1-0.2s-0.6-0.2-0.9-0.4c0,0,0,0-0.1,0c0,0-0.1,0-0.1,0c0,0-0.1,0-0.1,0c0,0-0.1,0-0.1,0
				c-0.2,0.2-0.6,0.4-0.9,0.4c-0.3,0.1-0.7,0.2-1,0.2c-0.4,0-0.7,0-1-0.2c-0.3-0.1-0.6-0.2-0.9-0.4c0,0,0,0-0.1,0c0,0-0.1,0-0.1,0
				c0,0-0.1,0-0.1,0c0,0-0.1,0-0.1,0c-0.2,0.2-0.6,0.4-0.9,0.5c-0.3,0.1-0.7,0.2-1,0.2c-0.4,0-0.7,0-1-0.2c-0.3-0.1-0.6-0.2-0.9-0.4
				c0,0,0,0-0.1,0c0,0-0.1,0-0.1,0c0,0-0.1,0-0.1,0c0,0,0,0-0.1,0c-0.2,0.2-0.6,0.4-0.9,0.4c-0.3,0.1-0.7,0.2-1,0.2
				c-0.4,0-0.7,0-1-0.2c-0.3-0.1-0.6-0.3-0.9-0.5c0,0,0,0-0.1,0c0,0-0.1,0-0.1,0c0,0-0.1,0-0.1,0c0,0-0.1,0-0.1,0
				c-0.2,0.2-0.6,0.4-0.9,0.4c-0.3,0.1-0.7,0.2-1,0.2c-0.4,0-0.7,0-1-0.2c-0.3-0.1-0.6-0.3-0.9-0.4c0,0,0,0-0.1,0c0,0-0.1,0-0.1,0
				c0,0-0.1,0-0.1,0c0,0-0.1,0-0.1,0c-0.2,0.2-0.5,0.3-0.8,0.4v0.4c0.4-0.1,0.7-0.3,1-0.4c0.6,0.4,1.4,0.6,2.1,0.6
				c0.8,0,1.5-0.2,2.1-0.6c0.6,0.4,1.4,0.6,2.1,0.6c0.8,0,1.5-0.2,2.1-0.6c0.6,0.4,1.4,0.6,2.1,0.6c0.8,0,1.5-0.2,2.1-0.6
				c0.6,0.4,1.4,0.6,2.1,0.6c0.8,0,1.5-0.2,2.1-0.6c0.6,0.4,1.4,0.6,2.1,0.6c0.8,0,1.5-0.2,2.1-0.6c0.6,0.4,1.4,0.6,2.1,0.6
				c0.8,0,1.5-0.2,2.1-0.6c0.6,0.4,1.4,0.6,2.1,0.6c0.8,0,1.5-0.2,2.1-0.6c0.6,0.4,1.3,0.6,2.1,0.6c0.8,0,1.5-0.2,2.1-0.6
				c0.6,0.4,1.4,0.6,2.1,0.6c0.8,0,1.5-0.2,2.1-0.6c0.6,0.4,1.4,0.6,2.1,0.6s1.5-0.2,2.1-0.6c0.6,0.4,1.4,0.6,2.1,0.6
				s1.5-0.2,2.1-0.6c0.6,0.4,1.4,0.6,2.1,0.6s1.5-0.2,2.1-0.6c0.6,0.4,1.4,0.6,2.1,0.6c0.8,0,1.5-0.2,2.1-0.6
				c0.6,0.4,1.3,0.6,2.1,0.6c0.8,0,1.5-0.2,2.1-0.6c0.6,0.4,1.4,0.6,2.1,0.6h0.1l-0.2-0.4C166.3,94.5,165.6,94.3,165.1,93.9
				L165.1,93.9z"/>
			<path class="st21" d="M160.7,88.2c-0.4,0-0.7,0-1-0.2c-0.3-0.1-0.6-0.3-0.9-0.5c0,0-0.1,0-0.2,0c-0.1,0-0.1,0-0.2,0
				c-0.2,0.2-0.6,0.4-0.9,0.4c-0.3,0.1-0.7,0.2-1,0.2c-0.4,0-0.7,0-1-0.2c-0.3-0.1-0.6-0.3-0.9-0.5c0,0-0.1,0-0.2,0
				c-0.1,0-0.1,0-0.2,0c-0.2,0.2-0.6,0.4-0.9,0.4c-0.3,0.1-0.7,0.2-1,0.2c-0.4,0-0.7,0-1-0.2c-0.3-0.1-0.6-0.2-0.9-0.4
				c0,0-0.1,0-0.2,0c-0.1,0-0.1,0-0.2,0c-0.2,0.2-0.6,0.4-0.9,0.4c-0.3,0.1-0.7,0.2-1,0.2c-0.4,0-0.7,0-1-0.2
				c-0.3-0.1-0.6-0.2-0.9-0.4c0,0-0.1,0-0.2,0s-0.1,0-0.2,0c-0.2,0.2-0.6,0.4-0.9,0.4c-0.3,0.1-0.7,0.2-1,0.2c-0.4,0-0.7,0-1-0.2
				c-0.3-0.1-0.6-0.2-0.9-0.4c0,0-0.1,0-0.2,0c-0.1,0-0.1,0-0.2,0c-0.2,0.2-0.6,0.4-0.9,0.5c-0.3,0.1-0.7,0.2-1,0.2
				c-0.4,0-0.7,0-1-0.2c-0.3-0.1-0.6-0.2-0.9-0.4c0,0-0.1,0-0.2,0c-0.1,0-0.1,0-0.2,0c-0.2,0.2-0.6,0.4-0.9,0.4
				c-0.3,0.1-0.7,0.2-1,0.2c-0.4,0-0.7,0-1-0.2c-0.3-0.1-0.6-0.3-0.9-0.5c0,0-0.1,0-0.2,0c-0.1,0-0.1,0-0.2,0
				c-0.2,0.2-0.6,0.4-0.9,0.4c-0.3,0.1-0.7,0.2-1,0.2c-0.4,0-0.7,0-1-0.2c-0.3-0.1-0.6-0.3-0.9-0.4c0,0-0.1,0-0.2,0
				c-0.1,0-0.1,0-0.2,0c-0.2,0.2-0.6,0.4-0.9,0.4c-0.3,0.1-0.7,0.2-1,0.2c-0.4,0-0.7,0-1-0.2c-0.3-0.1-0.6-0.2-0.9-0.4
				c0,0-0.1,0-0.2,0c-0.1,0-0.1,0-0.2,0c-0.2,0.2-0.6,0.4-0.9,0.4c-0.3,0.1-0.7,0.2-1,0.2c-0.4,0-0.7,0-1-0.2
				c-0.3-0.1-0.6-0.2-0.9-0.4c0,0-0.1,0-0.2,0c-0.1,0-0.1,0-0.2,0c-0.2,0.2-0.6,0.4-0.9,0.5c-0.3,0.1-0.7,0.2-1,0.2
				c-0.4,0-0.7,0-1-0.2c-0.3-0.1-0.6-0.2-0.9-0.4c0,0-0.1,0-0.2,0c-0.1,0-0.1,0-0.2,0c-0.2,0.2-0.6,0.4-0.9,0.4
				c-0.3,0.1-0.7,0.2-1,0.2c-0.4,0-0.7,0-1-0.2c-0.3-0.1-0.6-0.2-0.9-0.4c0,0-0.1,0-0.2,0s-0.1,0-0.2,0c-0.2,0.2-0.6,0.4-0.9,0.4
				c-0.3,0.1-0.7,0.2-1,0.2c-0.4,0-0.7,0-1-0.2c-0.3-0.1-0.6-0.2-0.9-0.4c0,0-0.1,0-0.2,0c-0.1,0-0.1,0-0.2,0
				c-0.2,0.2-0.6,0.4-0.9,0.4c-0.3,0.1-0.7,0.2-1,0.2c-0.3,0-0.7,0-1-0.2v0.4c0.3,0.1,0.6,0.1,1,0.1c0.8,0,1.5-0.2,2.1-0.6
				c0.6,0.4,1.4,0.6,2.1,0.6c0.8,0,1.5-0.2,2.1-0.6c0.6,0.4,1.3,0.6,2.1,0.6c0.8,0,1.5-0.2,2.1-0.6c0.6,0.4,1.4,0.6,2.1,0.6
				c0.8,0,1.5-0.2,2.1-0.6c0.6,0.4,1.4,0.6,2.1,0.6c0.8,0,1.5-0.2,2.1-0.6c0.6,0.4,1.4,0.6,2.1,0.6c0.8,0,1.5-0.2,2.1-0.6
				c0.6,0.4,1.4,0.6,2.1,0.6c0.8,0,1.5-0.2,2.1-0.6c0.6,0.4,1.4,0.6,2.1,0.6c0.8,0,1.5-0.2,2.1-0.6c0.6,0.4,1.3,0.6,2.1,0.6
				c0.8,0,1.5-0.2,2.1-0.6c0.6,0.4,1.4,0.6,2.1,0.6s1.5-0.2,2.1-0.6c0.6,0.4,1.4,0.6,2.1,0.6c0.8,0,1.5-0.2,2.1-0.6
				c0.6,0.4,1.4,0.6,2.1,0.6c0.8,0,1.5-0.2,2.1-0.6c0.6,0.4,1.4,0.6,2.1,0.6c0.8,0,1.5-0.2,2.1-0.6c0.6,0.4,1.3,0.6,2.1,0.6
				c0.8,0,1.5-0.2,2.1-0.6l0.2,0.1l-0.4-0.5h0c-0.2,0.2-0.5,0.4-0.9,0.4C161.4,88.1,161.1,88.2,160.7,88.2L160.7,88.2z"/>
			<path class="st21" d="M107.7,100.6c0.6,0.4,1.4,0.6,2.1,0.6c0.8,0,1.5-0.2,2.1-0.6c0.6,0.4,1.3,0.6,2.1,0.6
				c0.8,0,1.5-0.2,2.1-0.6c0.6,0.4,1.4,0.6,2.1,0.6c0.8,0,1.6-0.2,2.1-0.6c0.6,0.4,1.4,0.6,2.1,0.6c0.8,0,1.5-0.2,2.1-0.6
				c0.6,0.4,1.4,0.6,2.1,0.6c0.8,0,1.5-0.2,2.1-0.6c0.6,0.4,1.4,0.6,2.1,0.6c0.8,0,1.5-0.2,2.1-0.6c0.6,0.4,1.3,0.6,2.1,0.6
				c0.8,0,1.5-0.2,2.1-0.6c0.6,0.4,1.3,0.6,2.1,0.6c0.8,0,1.5-0.2,2.1-0.6c0.6,0.4,1.4,0.6,2.1,0.6c0.8,0,1.5-0.2,2.1-0.6
				c0.6,0.4,1.4,0.6,2.1,0.6c0.8,0,1.5-0.2,2.1-0.6c0.6,0.4,1.4,0.6,2.1,0.6c0.8,0,1.5-0.2,2.1-0.6c0.6,0.4,1.3,0.6,2.1,0.6
				c0.8,0,1.5-0.2,2.1-0.6c0.6,0.4,1.3,0.6,2.1,0.6c0.8,0,1.5-0.2,2.1-0.6c0.6,0.4,1.4,0.6,2.1,0.6c0.8,0,1.6-0.2,2.1-0.6
				c0.6,0.4,1.4,0.6,2.1,0.6c0.6,0,1.1-0.1,1.6-0.3l-0.2-0.4c-0.4,0.2-0.9,0.3-1.4,0.3c-0.4,0-0.7,0-1-0.2c-0.3-0.1-0.6-0.2-0.9-0.4
				c0,0,0,0-0.1,0c0,0-0.1,0-0.1,0c0,0-0.1,0-0.1,0c0,0-0.1,0-0.1,0c-0.2,0.2-0.6,0.4-0.9,0.5c-0.3,0.1-0.7,0.2-1,0.2
				c-0.4,0-0.7,0-1-0.2c-0.3-0.1-0.6-0.2-0.9-0.4c0,0,0,0-0.1,0s-0.1,0-0.1,0c0,0-0.1,0-0.1,0s-0.1,0-0.1,0
				c-0.2,0.2-0.6,0.4-0.9,0.4c-0.3,0.1-0.7,0.2-1,0.2c-0.4,0-0.7,0-1-0.2c-0.3-0.1-0.6-0.2-0.9-0.4c0,0,0,0-0.1,0s-0.1,0-0.1,0
				c0,0-0.1,0-0.1,0c0,0-0.1,0-0.1,0c-0.2,0.2-0.6,0.4-0.9,0.4c-0.3,0.1-0.7,0.2-1,0.2c-0.4,0-0.7,0-1-0.2c-0.3-0.1-0.6-0.3-0.9-0.5
				c0,0,0,0-0.1,0s-0.1,0-0.1,0c0,0-0.1,0-0.1,0s-0.1,0-0.1,0c-0.2,0.2-0.6,0.4-0.9,0.4c-0.3,0.1-0.7,0.2-1,0.2c-0.4,0-0.7,0-1-0.2
				c-0.3-0.1-0.6-0.2-0.9-0.4c0,0,0,0-0.1,0s-0.1,0-0.1,0c0,0-0.1,0-0.1,0c0,0-0.1,0-0.1,0c-0.2,0.2-0.6,0.4-0.9,0.4
				c-0.3,0.1-0.7,0.2-1,0.2c-0.4,0-0.7,0-1-0.2c-0.3-0.1-0.6-0.2-0.9-0.4c0,0,0,0-0.1,0s-0.1,0-0.1,0c0,0-0.1,0-0.1,0s-0.1,0-0.1,0
				c-0.2,0.2-0.6,0.4-0.9,0.4c-0.3,0.1-0.7,0.2-1,0.2c-0.4,0-0.7,0-1-0.2c-0.3-0.1-0.6-0.2-0.9-0.4c0,0,0,0-0.1,0s-0.1,0-0.1,0
				c0,0-0.1,0-0.1,0c0,0-0.1,0-0.1,0c-0.2,0.2-0.6,0.4-0.9,0.5c-0.3,0.1-0.7,0.2-1,0.2c-0.4,0-0.7,0-1-0.2c-0.3-0.1-0.6-0.2-0.9-0.4
				c0,0,0,0-0.1,0c0,0-0.1,0-0.1,0c0,0-0.1,0-0.1,0c0,0,0,0-0.1,0c-0.2,0.2-0.6,0.4-0.9,0.4c-0.3,0.1-0.7,0.2-1,0.2
				c-0.4,0-0.7,0-1-0.2c-0.3-0.1-0.6-0.3-0.9-0.5c0,0,0,0-0.1,0s-0.1,0-0.1,0c0,0-0.1,0-0.1,0c0,0-0.1,0-0.1,0
				c-0.2,0.2-0.6,0.4-0.9,0.4c-0.3,0.1-0.7,0.2-1,0.2c-0.4,0-0.7,0-1-0.2c-0.3-0.1-0.6-0.3-0.9-0.4c0,0,0,0-0.1,0s-0.1,0-0.1,0
				s-0.1,0-0.1,0c0,0-0.1,0-0.1,0c-0.2,0.2-0.6,0.4-0.9,0.4c-0.3,0.1-0.7,0.2-1,0.2c-0.4,0-0.7,0-1-0.2c-0.3-0.1-0.6-0.2-0.9-0.4
				c0,0,0,0-0.1,0c0,0-0.1,0-0.1,0c0,0-0.1,0-0.1,0c0,0-0.1,0-0.1,0c-0.2,0.2-0.6,0.4-0.9,0.4c-0.3,0.1-0.7,0.2-1,0.2
				c-0.4,0-0.7,0-1-0.2c-0.3-0.1-0.6-0.2-0.9-0.4c0,0,0,0-0.1,0c0,0-0.1,0-0.1,0c0,0-0.1,0-0.1,0c0,0-0.1,0-0.1,0
				c-0.2,0.2-0.6,0.4-0.9,0.5c-0.3,0.1-0.7,0.2-1,0.2c-0.4,0-0.7,0-1-0.2c-0.3-0.1-0.6-0.2-0.9-0.4c0,0,0,0-0.1,0c0,0-0.1,0-0.1,0
				s-0.1,0-0.1,0c0,0-0.1,0-0.1,0c-0.2,0.2-0.6,0.4-0.9,0.4c-0.3,0.1-0.7,0.2-1,0.2c-0.4,0-0.7,0-1-0.2c-0.3-0.1-0.6-0.2-0.9-0.4
				c0,0,0,0-0.1,0s-0.1,0-0.1,0c0,0-0.1,0-0.1,0c0,0-0.1,0-0.1,0c-0.2,0.2-0.6,0.4-0.9,0.4c-0.3,0.1-0.7,0.2-1,0.2
				c-0.4,0-0.7,0-1-0.2c-0.3-0.1-0.6-0.2-0.9-0.4c0,0,0,0-0.1,0s-0.1,0-0.1,0c0,0-0.1,0-0.1,0c0,0-0.1,0-0.1,0
				c-0.2,0.2-0.6,0.4-0.9,0.4c-0.3,0.1-0.7,0.2-1,0.2c-0.3,0-0.7,0-1-0.2v0.4c0.3,0.1,0.6,0.1,1,0.1
				C106.3,101.3,107.1,101,107.7,100.6L107.7,100.6z"/>
			<path class="st21" d="M163,91.8C163,91.8,163,91.8,163,91.8c-0.1,0-0.2,0-0.2,0c0,0-0.1,0-0.1,0c0,0-0.1,0-0.1,0
				c-0.2,0.2-0.6,0.4-0.9,0.4c-0.3,0.1-0.7,0.2-1,0.2c-0.4,0-0.7,0-1-0.2c-0.3-0.1-0.6-0.2-0.9-0.4c0,0,0,0-0.1,0s-0.1,0-0.1,0
				c0,0-0.1,0-0.1,0c0,0-0.1,0-0.1,0c-0.5,0.4-1.2,0.6-1.9,0.6c-0.4,0-0.7,0-1-0.2s-0.6-0.2-0.9-0.4c0,0,0,0-0.1,0c0,0-0.1,0-0.1,0
				c0,0-0.1,0-0.1,0c0,0-0.1,0-0.1,0c-0.2,0.2-0.6,0.4-0.9,0.4c-0.3,0.1-0.7,0.2-1,0.2c-0.4,0-0.7,0-1-0.2c-0.3-0.1-0.6-0.2-0.9-0.4
				c0,0,0,0-0.1,0s-0.1,0-0.1,0c0,0-0.1,0-0.1,0c0,0-0.1,0-0.1,0c-0.2,0.2-0.6,0.4-0.9,0.4c-0.3,0.1-0.7,0.2-1,0.2
				c-0.4,0-0.7,0-1-0.2s-0.6-0.2-0.9-0.4c0,0,0,0-0.1,0c0,0-0.1,0-0.1,0s-0.1,0-0.1,0c0,0-0.1,0-0.1,0c-0.5,0.4-1.2,0.6-1.9,0.6
				c-0.7,0-1.4-0.2-1.9-0.6c0,0,0,0-0.1,0s-0.1,0-0.1,0c0,0-0.1,0-0.1,0c0,0-0.1,0-0.1,0c-0.2,0.2-0.6,0.4-0.9,0.4
				c-0.3,0.1-0.7,0.2-1,0.2c-0.7,0-1.4-0.2-1.9-0.6c0,0,0,0-0.1,0c0,0-0.1,0-0.1,0c0,0-0.1,0-0.1,0c0,0,0,0-0.1,0
				c-0.5,0.4-1.2,0.6-1.9,0.6c-0.4,0-0.7,0-1-0.2c-0.3-0.1-0.6-0.2-0.9-0.4c0,0,0,0-0.1,0s-0.1,0-0.1,0c0,0-0.1,0-0.1,0
				c0,0-0.1,0-0.1,0c-0.5,0.4-1.2,0.6-1.9,0.6c-0.7,0-1.4-0.2-1.9-0.6c0,0,0,0-0.1,0c0,0-0.1,0-0.1,0c0,0-0.1,0-0.1,0s-0.1,0-0.1,0
				c-0.2,0.2-0.6,0.4-0.9,0.4c-0.3,0.1-0.7,0.2-1,0.2c-0.4,0-0.7,0-1-0.2s-0.6-0.2-0.9-0.4c0,0,0,0-0.1,0c0,0-0.1,0-0.1,0
				c0,0-0.1,0-0.1,0c0,0-0.1,0-0.1,0c-0.2,0.2-0.6,0.4-0.9,0.4c-0.3,0.1-0.7,0.2-1,0.2c-0.4,0-0.7,0-1-0.2c-0.3-0.1-0.6-0.2-0.9-0.4
				c0,0,0,0-0.1,0c0,0-0.1,0-0.1,0c0,0-0.1,0-0.1,0c0,0-0.1,0-0.1,0c-0.2,0.2-0.6,0.4-0.9,0.4c-0.3,0.1-0.7,0.2-1,0.2
				c-0.7,0-1.4-0.2-1.9-0.6c0,0,0,0-0.1,0s-0.1,0-0.1,0c0,0-0.1,0-0.1,0c0,0-0.1,0-0.1,0c-0.2,0.2-0.6,0.4-0.9,0.4
				c-0.3,0.1-0.7,0.2-1,0.2c-0.4,0-0.7,0-1-0.2c-0.3-0.1-0.6-0.2-0.9-0.4c0,0,0,0-0.1,0c0,0-0.1,0-0.1,0c0,0-0.1,0-0.1,0
				c0,0-0.1,0-0.1,0c-0.2,0.2-0.6,0.4-0.9,0.4c-0.3,0.1-0.7,0.2-1,0.2c-0.4,0-0.7,0-1-0.2s-0.6-0.2-0.9-0.4c0,0,0,0-0.1,0
				c0,0-0.1,0-0.1,0c0,0-0.1,0-0.1,0s-0.1,0-0.1,0c-0.4,0.3-0.8,0.5-1.4,0.6s-1,0-1.6-0.1v0.4c0.3,0.1,0.6,0.2,1,0.2
				c0.8,0,1.5-0.2,2.1-0.6c0.6,0.4,1.4,0.6,2.1,0.6c0.8,0,1.5-0.2,2.1-0.6c0.6,0.4,1.3,0.6,2.1,0.6c0.8,0,1.5-0.2,2.1-0.6
				c0.6,0.4,1.4,0.6,2.1,0.6c0.8,0,1.5-0.2,2.1-0.6c0.6,0.4,1.4,0.6,2.1,0.6c0.8,0,1.5-0.2,2.1-0.6c0.6,0.4,1.4,0.6,2.1,0.6
				c0.8,0,1.5-0.2,2.1-0.6c0.6,0.4,1.4,0.6,2.1,0.6s1.5-0.2,2.1-0.6c0.6,0.4,1.4,0.6,2.1,0.6c0.8,0,1.5-0.2,2.1-0.6
				c0.6,0.4,1.3,0.6,2.1,0.6c0.8,0,1.5-0.2,2.1-0.6c0.6,0.4,1.4,0.6,2.1,0.6s1.5-0.2,2.1-0.6c0.6,0.4,1.4,0.6,2.1,0.6
				c0.8,0,1.5-0.2,2.1-0.6c0.6,0.4,1.4,0.6,2.1,0.6c0.8,0,1.5-0.2,2.1-0.6c0.6,0.4,1.4,0.6,2.1,0.6c0.8,0,1.5-0.2,2.1-0.6
				c0.6,0.4,1.3,0.6,2.1,0.6c0.8,0,1.5-0.2,2.1-0.6c0.6,0.4,1.4,0.6,2.1,0.6c0.3,0,0.6,0,0.9-0.1l-0.2-0.4l-0.6,0
				C164.2,92.4,163.5,92.2,163,91.8L163,91.8z"/>
			<path class="st21" d="M107.7,99.1c0.8,0,1.5-0.2,2.1-0.6c0.6,0.4,1.4,0.6,2.1,0.6c0.8,0,1.5-0.2,2.1-0.6c0.6,0.4,1.4,0.6,2.1,0.6
				s1.5-0.2,2.1-0.6c0.6,0.4,1.4,0.6,2.1,0.6s1.5-0.2,2.1-0.6c0.6,0.4,1.4,0.6,2.1,0.6s1.5-0.2,2.1-0.6c0.6,0.4,1.4,0.6,2.1,0.6
				s1.5-0.2,2.1-0.6c0.6,0.4,1.4,0.6,2.1,0.6c0.8,0,1.5-0.2,2.1-0.6c0.6,0.4,1.3,0.6,2.1,0.6c0.8,0,1.5-0.2,2.1-0.6
				c0.6,0.4,1.4,0.6,2.1,0.6c0.8,0,1.5-0.2,2.1-0.6c0.6,0.4,1.4,0.6,2.1,0.6s1.5-0.2,2.1-0.6c0.6,0.4,1.4,0.6,2.1,0.6
				c0.8,0,1.5-0.2,2.1-0.6c0.6,0.4,1.4,0.6,2.1,0.6s1.5-0.2,2.1-0.6c0.6,0.4,1.4,0.6,2.1,0.6c0.8,0,1.5-0.2,2.1-0.6
				c0.6,0.4,1.3,0.6,2.1,0.6c0.8,0,1.5-0.2,2.1-0.6c0.6,0.4,1.4,0.6,2.1,0.6c0.8,0,1.5-0.2,2.1-0.6l0.3,0.2l-0.4-0.6h-0.1
				c-0.2,0.2-0.6,0.4-0.9,0.4c-0.3,0.1-0.7,0.2-1,0.2c-0.4,0-0.7,0-1-0.2c-0.3-0.1-0.6-0.2-0.9-0.4c0,0-0.1,0-0.2,0s-0.1,0-0.2,0
				c-0.2,0.2-0.6,0.4-0.9,0.5c-0.3,0.1-0.7,0.2-1,0.2c-0.4,0-0.7,0-1-0.2c-0.3-0.1-0.6-0.2-0.9-0.4c0,0-0.1,0-0.2,0
				c-0.1,0-0.1,0-0.2,0c-0.2,0.2-0.6,0.4-0.9,0.4c-0.3,0.1-0.7,0.2-1,0.2c-0.4,0-0.7,0-1-0.2c-0.3-0.1-0.6-0.3-0.9-0.5
				c0,0-0.1,0-0.2,0c-0.1,0-0.1,0-0.2,0c-0.2,0.2-0.6,0.4-0.9,0.4c-0.3,0.1-0.7,0.2-1,0.2c-0.4,0-0.7,0-1-0.2
				c-0.3-0.1-0.6-0.3-0.9-0.4c0,0-0.1,0-0.2,0s-0.1,0-0.2,0c-0.2,0.2-0.6,0.4-0.9,0.4c-0.3,0.1-0.7,0.2-1,0.2c-0.4,0-0.7,0-1-0.2
				c-0.3-0.1-0.6-0.2-0.9-0.4c0,0-0.1,0-0.2,0c-0.1,0-0.1,0-0.2,0c-0.2,0.2-0.6,0.4-0.9,0.4c-0.3,0.1-0.7,0.2-1,0.2
				c-0.4,0-0.7,0-1-0.2c-0.3-0.1-0.6-0.2-0.9-0.4c0,0-0.1,0-0.2,0c-0.1,0-0.1,0-0.2,0c-0.2,0.2-0.6,0.4-0.9,0.4
				c-0.3,0.1-0.7,0.2-1,0.2c-0.4,0-0.7,0-1-0.2c-0.3-0.1-0.6-0.2-0.9-0.4c0,0-0.1,0-0.2,0c-0.1,0-0.1,0-0.2,0
				c-0.2,0.2-0.6,0.4-0.9,0.4c-0.3,0.1-0.7,0.2-1,0.2c-0.4,0-0.7,0-1-0.2c-0.3-0.1-0.6-0.2-0.9-0.4c0,0-0.1,0-0.2,0
				c-0.1,0-0.1,0-0.2,0c-0.2,0.2-0.6,0.4-0.9,0.4c-0.3,0.1-0.7,0.2-1,0.2s-0.7,0-1-0.2c-0.3-0.1-0.6-0.3-0.9-0.5c0,0-0.1,0-0.2,0
				s-0.1,0-0.2,0c-0.2,0.2-0.6,0.4-0.9,0.4c-0.3,0.1-0.7,0.2-1,0.2s-0.7,0-1-0.2c-0.3-0.1-0.6-0.2-0.9-0.4c0,0-0.1,0-0.2,0
				s-0.1,0-0.2,0c-0.2,0.2-0.6,0.4-0.9,0.4c-0.3,0.1-0.7,0.2-1,0.2s-0.7,0-1-0.2c-0.3-0.1-0.6-0.2-0.9-0.4c0,0-0.1,0-0.2,0
				s-0.1,0-0.2,0c-0.2,0.2-0.6,0.4-0.9,0.4c-0.3,0.1-0.7,0.2-1,0.2c-0.4,0-0.7,0-1-0.2c-0.3-0.1-0.6-0.2-0.9-0.4c0,0-0.1,0-0.2,0
				c-0.1,0-0.1,0-0.2,0c-0.2,0.2-0.6,0.4-0.9,0.5s-0.7,0.2-1,0.2c-0.4,0-0.7,0-1-0.2c-0.3-0.1-0.6-0.2-0.9-0.4c0,0-0.1,0-0.2,0
				c-0.1,0-0.1,0-0.2,0c-0.2,0.2-0.6,0.4-0.9,0.4c-0.3,0.1-0.7,0.2-1,0.2c-0.4,0-0.7,0-1-0.2c-0.3-0.1-0.6-0.3-0.9-0.5
				c0,0-0.1,0-0.2,0s-0.1,0-0.2,0c-0.2,0.2-0.6,0.4-0.9,0.4c-0.3,0.1-0.7,0.2-1,0.2c-0.4,0-0.7,0-1-0.2c-0.3-0.1-0.6-0.3-0.9-0.4
				c0,0-0.1,0-0.2,0c-0.1,0-0.1,0-0.2,0c-0.2,0.2-0.5,0.3-0.8,0.4V99c0.4-0.1,0.7-0.2,1-0.4C106.1,98.9,106.9,99.1,107.7,99.1
				L107.7,99.1z"/>
			<path class="st22" d="M129.8,100.2L129.8,100.2c-0.1,0-0.1,0-0.1,0s0,0-0.1,0s0,0,0,0c-0.2,0.2-0.4,0.4-0.7,0.4
				c-0.2,0.1-0.5,0.2-0.8,0.2c-0.3,0-0.6,0-0.8-0.2c-0.2-0.1-0.5-0.3-0.7-0.5c0,0,0,0-0.1,0c0,0,0,0-0.1,0s0,0-0.1,0c0,0,0,0-0.1,0
				c-0.2,0.2-0.4,0.4-0.7,0.4c-0.2,0.1-0.5,0.2-0.8,0.2c-0.3,0-0.6,0-0.8-0.2c-0.2-0.1-0.5-0.3-0.7-0.4c0,0,0,0-0.1,0s0,0-0.1,0
				c0,0,0,0-0.1,0s0,0-0.1,0c-0.2,0.2-0.4,0.4-0.7,0.4c-0.2,0.1-0.5,0.2-0.8,0.2c-0.3,0-0.6,0-0.8-0.2c-0.2-0.1-0.5-0.2-0.7-0.4
				c0,0,0,0-0.1,0c0,0,0,0-0.1,0s0,0-0.1,0c0,0,0,0-0.1,0c-0.2,0.2-0.4,0.4-0.7,0.4c-0.2,0.1-0.5,0.2-0.8,0.2c-0.3,0-0.6,0-0.8-0.2
				c-0.2-0.1-0.5-0.2-0.7-0.4c0,0,0,0-0.1,0s0,0-0.1,0c0,0,0,0-0.1,0s0,0-0.1,0c-0.2,0.2-0.4,0.4-0.7,0.5c-0.2,0.1-0.5,0.2-0.8,0.2
				h-0.4l-0.1,0.4l0.6,0c0.6,0,1.2-0.2,1.6-0.6c0.4,0.4,1,0.6,1.6,0.6s1.2-0.2,1.6-0.6c0.4,0.4,1,0.6,1.6,0.6s1.2-0.2,1.6-0.6
				c0.4,0.4,1,0.6,1.6,0.6c0.6,0,1.2-0.2,1.6-0.6c0.4,0.4,1,0.6,1.6,0.6s1.2-0.2,1.6-0.6l0.4,0.3l0.2-0.4L129.8,100.2z"/>
			<path class="st22" d="M123.1,86.5c0.6,0,1.2-0.2,1.6-0.6c0.4,0.4,1,0.6,1.6,0.6s1.2-0.2,1.6-0.6c0.4,0.4,1,0.6,1.6,0.6
				s1.2-0.2,1.6-0.6c0.4,0.4,1,0.6,1.6,0.6c0.6,0,1.2-0.2,1.6-0.6c0.4,0.3,0.9,0.6,1.4,0.6l0.2-0.4c-0.5,0-1-0.2-1.4-0.6
				c0,0,0,0-0.1,0c0,0,0,0-0.1,0s0,0-0.1,0s0,0-0.1,0c-0.2,0.2-0.4,0.4-0.7,0.4c-0.2,0.1-0.5,0.2-0.8,0.2c-0.3,0-0.6,0-0.8-0.2
				c-0.2-0.1-0.5-0.2-0.7-0.4c0,0,0,0-0.1,0s0,0-0.1,0s0,0-0.1,0c0,0,0,0-0.1,0c-0.2,0.2-0.4,0.4-0.7,0.4c-0.2,0.1-0.5,0.2-0.8,0.2
				c-0.3,0-0.6,0-0.8-0.2c-0.2-0.1-0.5-0.2-0.7-0.4c0,0,0,0-0.1,0s0,0-0.1,0c0,0,0,0-0.1,0c0,0,0,0-0.1,0c-0.4,0.4-0.9,0.6-1.5,0.6
				c-0.3,0-0.6,0-0.8-0.2c-0.2-0.1-0.5-0.2-0.7-0.4c0,0,0,0-0.1,0c0,0,0,0-0.1,0s0,0-0.1,0c0,0,0,0-0.1,0c-0.4,0.4-0.9,0.6-1.5,0.6
				l-0.4,0l-0.2,0.4C122.7,86.5,122.9,86.5,123.1,86.5L123.1,86.5z"/>
			<path class="st22" d="M129.2,102.9c-0.4-0.1-0.8-0.2-1.1-0.6c0,0,0,0-0.1,0s0,0-0.1,0c0,0,0,0-0.1,0c0,0,0,0-0.1,0
				c-0.2,0.2-0.4,0.4-0.7,0.4c-0.2,0.1-0.5,0.2-0.8,0.2c-0.3,0-0.6,0-0.8-0.2s-0.5-0.2-0.7-0.4c0,0,0,0-0.1,0s0,0-0.1,0
				c0,0,0,0-0.1,0s0,0-0.1,0c-0.2,0.2-0.4,0.4-0.7,0.4c-0.2,0.1-0.5,0.2-0.8,0.2c-0.3,0-0.6,0-0.8-0.2c-0.2-0.1-0.5-0.2-0.7-0.4
				c0,0,0,0-0.1,0c0,0,0,0-0.1,0s0,0-0.1,0c0,0,0,0-0.1,0c-0.2,0.2-0.4,0.4-0.7,0.4c-0.2,0.1-0.5,0.2-0.8,0.2c-0.3,0-0.6,0-0.8-0.2
				s-0.5-0.2-0.7-0.4c0,0,0,0-0.1,0s0,0-0.1,0c0,0,0,0-0.1,0s0,0-0.1,0c-0.2,0.2-0.4,0.4-0.7,0.4c-0.2,0.1-0.5,0.2-0.8,0.2
				c-0.3,0-0.6,0-0.8-0.2c-0.2-0.1-0.5-0.2-0.7-0.4c0,0,0,0-0.1,0c0,0,0,0-0.1,0s0,0-0.1,0c0,0,0,0-0.1,0c-0.4,0.4-0.9,0.6-1.4,0.6
				l-0.2,0.4h0.2c0.6,0,1.2-0.2,1.6-0.6c0.4,0.4,1,0.6,1.6,0.6s1.2-0.2,1.6-0.6c0.4,0.4,1,0.6,1.6,0.6c0.6,0,1.2-0.2,1.6-0.6
				c0.4,0.4,1,0.6,1.6,0.6c0.6,0,1.2-0.2,1.6-0.6c0.4,0.4,1,0.6,1.6,0.6s1.2-0.2,1.6-0.6c0.3,0.2,0.6,0.4,1,0.5L129.2,102.9z"/>
			<path class="st22" d="M131.2,96.6c-0.6,0-1.1-0.2-1.5-0.6l0,0c0,0,0,0-0.1,0s0,0-0.1,0s0,0,0,0c-0.4,0.4-0.9,0.6-1.5,0.6
				c-0.3,0-0.6,0-0.8-0.2c-0.2-0.1-0.5-0.2-0.7-0.4c0,0,0,0-0.1,0s0,0-0.1,0c0,0,0,0-0.1,0c0,0,0,0-0.1,0c-0.4,0.4-0.9,0.6-1.5,0.6
				c-0.6,0-1.1-0.2-1.5-0.6c0,0,0,0-0.1,0c0,0,0,0-0.1,0s0,0-0.1,0c0,0,0,0-0.1,0c-0.2,0.2-0.4,0.4-0.7,0.4
				c-0.2,0.1-0.5,0.2-0.8,0.2c-0.3,0-0.6,0-0.8-0.2c-0.2-0.1-0.5-0.2-0.7-0.4c0,0,0,0-0.1,0s0,0-0.1,0c0,0,0,0-0.1,0c0,0,0,0-0.1,0
				c-0.4,0.4-0.9,0.6-1.5,0.6c-0.4,0-0.8-0.1-1.2-0.4l-0.2,0.4c0.4,0.2,0.9,0.4,1.4,0.4c0.6,0,1.2-0.2,1.6-0.6
				c0.4,0.4,1,0.6,1.6,0.6c0.6,0,1.2-0.2,1.6-0.6c0.4,0.4,1,0.6,1.6,0.6c0.6,0,1.2-0.2,1.6-0.6c0.4,0.4,1,0.6,1.6,0.6
				s1.2-0.2,1.6-0.6c0.4,0.4,1,0.6,1.6,0.6h0.4l0.2-0.5C131.6,96.6,131.4,96.6,131.2,96.6L131.2,96.6z"/>
			<path class="st22" d="M124.8,84.4c0.6,0,1.2-0.2,1.6-0.6c0.4,0.4,1,0.6,1.6,0.6c0.6,0,1.2-0.2,1.6-0.6c0.4,0.4,1,0.6,1.6,0.6
				s1.2-0.2,1.6-0.6c0.4,0.4,1,0.6,1.6,0.6s1.2-0.2,1.6-0.6c0.2,0.2,0.4,0.3,0.7,0.4l0.2-0.4c-0.3-0.1-0.5-0.3-0.7-0.5
				c0,0,0,0-0.1,0c0,0,0,0-0.1,0s0,0-0.1,0c0,0,0,0-0.1,0c-0.2,0.2-0.4,0.4-0.7,0.4c-0.2,0.1-0.5,0.2-0.8,0.2c-0.3,0-0.6,0-0.8-0.2
				c-0.2-0.1-0.5-0.2-0.7-0.4c0,0,0,0-0.1,0s0,0-0.1,0s0,0-0.1,0c0,0,0,0-0.1,0c-0.2,0.2-0.4,0.4-0.7,0.5c-0.2,0.1-0.5,0.2-0.8,0.2
				c-0.3,0-0.6,0-0.8-0.2c-0.2-0.1-0.5-0.2-0.7-0.4l0,0c0,0,0,0-0.1,0s0,0-0.1,0c0,0,0,0,0,0c-0.2,0.2-0.4,0.4-0.7,0.4
				c-0.2,0.1-0.5,0.2-0.8,0.2c-0.3,0-0.6,0-0.8-0.2s-0.5-0.3-0.7-0.5c0,0,0,0-0.1,0s0,0-0.1,0c0,0,0,0-0.1,0s0,0-0.1,0
				c-0.2,0.2-0.4,0.4-0.7,0.4c-0.2,0.1-0.5,0.2-0.8,0.2c-0.3,0-0.6,0-0.8-0.2l-0.2,0.4C124.1,84.3,124.4,84.4,124.8,84.4L124.8,84.4
				z"/>
			<path class="st22" d="M133,87.6c0,0-0.1,0-0.2,0c-0.1,0-0.1,0-0.2,0c-0.2,0.2-0.4,0.4-0.7,0.5c-0.2,0.1-0.5,0.2-0.8,0.2
				c-0.3,0-0.6,0-0.8-0.2c-0.2-0.1-0.5-0.2-0.7-0.4c0,0-0.1,0-0.1,0c0,0-0.1,0-0.1,0c-0.2,0.2-0.4,0.4-0.7,0.4
				c-0.2,0.1-0.5,0.2-0.8,0.2s-0.6,0-0.8-0.2c-0.2-0.1-0.5-0.3-0.7-0.5c0,0-0.1,0-0.2,0s-0.1,0-0.2,0c-0.2,0.2-0.4,0.4-0.7,0.4
				c-0.2,0.1-0.5,0.2-0.8,0.2c-0.3,0-0.6,0-0.8-0.2c-0.2-0.1-0.5-0.3-0.7-0.4c0,0-0.1,0-0.2,0s-0.1,0-0.2,0
				c-0.2,0.2-0.4,0.4-0.6,0.4c-0.2,0.1-0.5,0.2-0.8,0.2l-0.2,0.4h0.2c0.6,0,1.2-0.2,1.6-0.6c0.4,0.4,1,0.6,1.6,0.6s1.2-0.2,1.6-0.6
				c0.4,0.4,1,0.6,1.6,0.6c0.6,0,1.2-0.2,1.6-0.6c0.4,0.4,1,0.6,1.6,0.6s1.2-0.2,1.6-0.6c0.4,0.4,1,0.6,1.6,0.6c0.2,0,0.4,0,0.6,0
				l0.2-0.5c-0.2,0.1-0.5,0.2-0.8,0.2c-0.3,0-0.6,0-0.8-0.2C133.4,87.9,133.2,87.8,133,87.6z"/>
			<path class="st22" d="M118.3,98.5c0.4,0.4,1,0.6,1.6,0.6s1.2-0.2,1.6-0.6c0.4,0.4,1,0.6,1.6,0.6s1.2-0.2,1.6-0.6
				c0.4,0.4,1,0.6,1.6,0.6c0.6,0,1.2-0.2,1.6-0.6c0.4,0.4,1,0.6,1.6,0.6c0.4,0,0.9-0.1,1.2-0.3l0.3-0.7h-0.1
				c-0.2,0.2-0.4,0.4-0.7,0.4c-0.2,0.1-0.5,0.2-0.8,0.2s-0.6,0-0.8-0.2s-0.5-0.2-0.7-0.4c0,0-0.1,0-0.2,0c0,0-0.1,0-0.2,0
				c-0.2,0.2-0.4,0.4-0.7,0.4c-0.2,0.1-0.5,0.2-0.8,0.2c-0.3,0-0.6,0-0.8-0.2c-0.2-0.1-0.5-0.3-0.7-0.5c0,0-0.1,0-0.2,0
				c0,0-0.1,0-0.2,0c-0.2,0.2-0.4,0.4-0.7,0.4c-0.2,0.1-0.5,0.2-0.8,0.2c-0.3,0-0.6,0-0.8-0.2c-0.2-0.1-0.5-0.2-0.7-0.4
				c0,0-0.1,0-0.2,0c0,0-0.1,0-0.2,0c-0.2,0.2-0.4,0.4-0.7,0.4c-0.2,0.1-0.5,0.2-0.8,0.2c-0.3,0-0.6,0-0.8-0.2
				c-0.2-0.1-0.5-0.2-0.7-0.4c0,0-0.1,0-0.2,0s-0.1,0-0.2,0c-0.2,0.2-0.4,0.4-0.7,0.4c-0.2,0.1-0.5,0.2-0.8,0.2
				c-0.3,0-0.5,0-0.8-0.2l-0.2,0.4c0.3,0.1,0.6,0.2,1,0.2C117.2,99.1,117.8,98.9,118.3,98.5L118.3,98.5z"/>
			<path class="st22" d="M119.9,92.2c0.4,0.4,1,0.6,1.6,0.6c0.6,0,1.2-0.2,1.6-0.6c0.4,0.4,1,0.6,1.6,0.6s1.2-0.2,1.6-0.6
				c0.4,0.4,1,0.6,1.6,0.6c0.6,0,1.2-0.2,1.6-0.6c0.4,0.4,1,0.6,1.6,0.6s1.2-0.2,1.6-0.6c0.2,0.1,0.4,0.2,0.6,0.4l0.2-0.4
				c-0.2-0.1-0.4-0.2-0.6-0.4c0,0,0,0-0.1,0c0,0,0,0-0.1,0s0,0-0.1,0s0,0-0.1,0c-0.2,0.2-0.4,0.4-0.7,0.4c-0.2,0.1-0.5,0.2-0.8,0.2
				c-0.6,0-1.1-0.2-1.5-0.6l0,0c0,0,0,0-0.1,0s0,0-0.1,0c0,0,0,0,0,0c-0.4,0.4-0.9,0.6-1.5,0.6c-0.3,0-0.6,0-0.8-0.2
				c-0.2-0.1-0.5-0.2-0.7-0.4c0,0,0,0-0.1,0c0,0,0,0-0.1,0c0,0,0,0-0.1,0s0,0-0.1,0c-0.4,0.4-0.9,0.6-1.5,0.6
				c-0.6,0-1.1-0.2-1.5-0.6c0,0,0,0-0.1,0c0,0,0,0-0.1,0s0,0-0.1,0c0,0,0,0-0.1,0c-0.2,0.2-0.4,0.4-0.7,0.4
				c-0.2,0.1-0.5,0.2-0.8,0.2c-0.3,0-0.6,0-0.8-0.2c-0.2-0.1-0.5-0.2-0.7-0.4c0,0,0,0-0.1,0c0,0,0,0-0.1,0c0,0,0,0-0.1,0s0,0-0.1,0
				l-0.3,0.3l-0.4,0.6C119.4,92.6,119.7,92.4,119.9,92.2L119.9,92.2z"/>
			<path class="st22" d="M134.4,89.7c-0.2,0.2-0.4,0.4-0.7,0.4c-0.2,0.1-0.5,0.2-0.8,0.2c-0.3,0-0.6,0-0.8-0.2s-0.5-0.2-0.7-0.4
				c0,0,0,0-0.1,0s0,0-0.1,0s0,0-0.1,0s0,0-0.1,0c-0.2,0.2-0.4,0.4-0.7,0.4c-0.2,0.1-0.5,0.2-0.8,0.2c-0.3,0-0.6,0-0.8-0.2
				c-0.2-0.1-0.5-0.2-0.7-0.4c0,0,0,0-0.1,0s0,0-0.1,0c0,0,0,0-0.1,0s0,0-0.1,0c-0.2,0.2-0.4,0.4-0.7,0.4c-0.2,0.1-0.5,0.2-0.8,0.2
				c-0.3,0-0.6,0-0.8-0.2c-0.2-0.1-0.5-0.2-0.7-0.4c0,0,0,0-0.1,0c0,0,0,0-0.1,0s0,0-0.1,0c0,0,0,0-0.1,0c-0.2,0.2-0.4,0.4-0.7,0.4
				c-0.2,0.1-0.5,0.2-0.8,0.2c-0.3,0-0.6,0-0.8-0.2s-0.5-0.2-0.7-0.4c0,0,0,0-0.1,0s0,0-0.1,0c0,0,0,0-0.1,0c0,0,0,0-0.1,0
				c-0.2,0.2-0.6,0.4-0.9,0.5l-0.3,0.5c0.5,0,1-0.2,1.3-0.6c0.4,0.4,1,0.6,1.6,0.6s1.2-0.2,1.6-0.6c0.4,0.4,1,0.6,1.6,0.6
				c0.6,0,1.2-0.2,1.6-0.6c0.4,0.4,1,0.6,1.6,0.6s1.2-0.2,1.6-0.6c0.4,0.4,1,0.6,1.6,0.6c0.6,0,1.1-0.2,1.5-0.5l0.2-0.5
				C134.5,89.7,134.4,89.7,134.4,89.7C134.5,89.6,134.4,89.7,134.4,89.7L134.4,89.7z"/>
			<path class="st22" d="M119.9,94.9c0.6,0,1.2-0.2,1.6-0.6c0.4,0.4,1,0.6,1.6,0.6s1.2-0.2,1.6-0.6c0.4,0.4,1,0.6,1.6,0.6
				c0.6,0,1.2-0.2,1.6-0.6c0.4,0.4,1,0.6,1.6,0.6c0.6,0,1.2-0.2,1.6-0.6c0.4,0.3,0.8,0.5,1.2,0.6l0.2-0.4c-0.5-0.1-0.9-0.3-1.2-0.6
				c0,0,0,0-0.1,0c0,0,0,0-0.1,0s0,0-0.1,0s0,0-0.1,0c-0.2,0.2-0.4,0.4-0.7,0.4c-0.2,0.1-0.5,0.2-0.8,0.2c-0.3,0-0.6,0-0.8-0.2
				c-0.2-0.1-0.5-0.2-0.7-0.4c0,0,0,0-0.1,0s0,0-0.1,0c0,0,0,0-0.1,0s0,0-0.1,0c-0.2,0.2-0.4,0.4-0.7,0.4c-0.2,0.1-0.5,0.2-0.8,0.2
				c-0.3,0-0.6,0-0.8-0.2c-0.2-0.1-0.5-0.3-0.7-0.5c0,0,0,0-0.1,0c0,0,0,0-0.1,0s0,0-0.1,0c0,0,0,0-0.1,0c-0.2,0.2-0.4,0.4-0.7,0.4
				c-0.2,0.1-0.5,0.2-0.8,0.2c-0.3,0-0.6,0-0.8-0.2c-0.2-0.1-0.5-0.2-0.7-0.4c0,0,0,0-0.1,0c0,0,0,0-0.1,0c0,0,0,0-0.1,0s0,0-0.1,0
				c-0.2,0.2-0.4,0.4-0.7,0.4c-0.2,0.1-0.5,0.2-0.8,0.2c-0.3,0-0.6,0-0.8-0.2c-0.2-0.1-0.5-0.2-0.7-0.4l0,0l-0.3,0.6l0.2-0.1
				C118.7,94.7,119.3,94.9,119.9,94.9L119.9,94.9z"/>
			<path class="st26" d="M131.6,120.7v3.4h-1v-3.4c0-1.1-0.5-2-1.2-2.3c0.2,0,0.3-0.1,0.5-0.1C130.8,118.3,131.6,119.4,131.6,120.7z
				"/>
			<path class="st26" d="M120.7,120.7v3.4h-1v-3.4c0-1.1-0.5-2-1.2-2.3c0.2,0,0.3-0.1,0.5-0.1C119.9,118.3,120.7,119.4,120.7,120.7z
				"/>
			<path class="st26" d="M141.2,120.7v3.4h-1v-3.4c0-1.1-0.5-2-1.2-2.3c0.2,0,0.3-0.1,0.5-0.1C140.5,118.3,141.2,119.4,141.2,120.7z
				"/>
			<path class="st26" d="M150.7,120.7v3.4h-1v-3.4c0-1.1-0.5-2-1.2-2.3c0.2,0,0.3-0.1,0.5-0.1C149.9,118.3,150.7,119.4,150.7,120.7z
				"/>
			<path class="st31" d="M146.8,114.5l-0.1-0.4v-0.2h4.6v0.2h-0.2c-0.1,0.1-0.2,0.3-0.3,0.5H146.8z"/>
			<path class="st31" d="M146.8,114.1l0.1,0.4h4.1c0-0.2,0.2-0.3,0.3-0.5L146.8,114.1L146.8,114.1z"/>
			<path class="st31" d="M146.8,124.8l-0.1-0.4v-0.2h4.6v0.2h-0.2c-0.1,0.1-0.2,0.3-0.3,0.5H146.8z"/>
			<path class="st31" d="M146.8,124.3l0.1,0.4h4.1c0-0.2,0.2-0.3,0.3-0.5L146.8,124.3L146.8,124.3z"/>
			<path class="st25" d="M159.9,110.5c0-1.3-0.8-2.4-1.7-2.4c-1,0-1.7,1.1-1.7,2.4v3.4h3.4L159.9,110.5L159.9,110.5z"/>
			<path class="st26" d="M159.9,110.5v3.4h-1v-3.4c0-1.1-0.5-2-1.2-2.3c0.2-0.1,0.3-0.1,0.5-0.1
				C159.2,108.1,159.9,109.2,159.9,110.5z"/>
			<path class="st25" d="M159.9,120.7c0-1.3-0.8-2.4-1.7-2.4c-1,0-1.7,1.1-1.7,2.4v3.4h3.4L159.9,120.7L159.9,120.7z"/>
			<path class="st26" d="M159.9,120.7v3.4h-1v-3.4c0-1.1-0.5-2-1.2-2.3c0.2,0,0.3-0.1,0.5-0.1C159.2,118.3,159.9,119.4,159.9,120.7z
				"/>
			<path class="st31" d="M156.1,114.5l-0.1-0.4v-0.2h4.6v0.2h-0.2c-0.1,0.1-0.2,0.3-0.3,0.5H156.1z"/>
			<path class="st31" d="M156,114.1l0.1,0.4h4.1c0-0.2,0.2-0.3,0.3-0.5L156,114.1L156,114.1z"/>
			<path class="st31" d="M156.1,124.8l-0.1-0.4v-0.2h4.6v0.2h-0.2c-0.1,0.1-0.2,0.3-0.3,0.5H156.1z"/>
			<path class="st31" d="M156,124.3l0.1,0.4h4.1c0-0.2,0.2-0.3,0.3-0.5L156,124.3L156,124.3z"/>
			<path class="st25" d="M169.1,110.5c0-1.3-0.8-2.4-1.7-2.4c-1,0-1.7,1.1-1.7,2.4v3.4h3.4L169.1,110.5L169.1,110.5z"/>
			<path class="st26" d="M169.1,110.5v3.4h-1v-3.4c0-1.1-0.5-2-1.2-2.3c0.2-0.1,0.3-0.1,0.5-0.1
				C168.4,108.1,169.1,109.2,169.1,110.5z"/>
			<path class="st25" d="M169.1,120.7c0-1.3-0.8-2.4-1.7-2.4c-1,0-1.7,1.1-1.7,2.4v3.4h3.4L169.1,120.7L169.1,120.7z"/>
			<path class="st26" d="M169.1,120.7v3.4h-1v-3.4c0-1.1-0.5-2-1.2-2.3c0.2,0,0.3-0.1,0.5-0.1C168.4,118.3,169.1,119.4,169.1,120.7z
				"/>
			<path class="st31" d="M165.3,114.5l-0.1-0.4v-0.2h4.6v0.2h-0.2c-0.1,0.1-0.2,0.3-0.3,0.5H165.3z"/>
			<path class="st31" d="M165.2,114.1l0.1,0.4h4.1c0-0.2,0.2-0.3,0.3-0.5L165.2,114.1L165.2,114.1z"/>
			<path class="st31" d="M165.3,124.8l-0.1-0.4v-0.2h4.6v0.2h-0.2c-0.1,0.1-0.2,0.3-0.3,0.5H165.3z"/>
			<path class="st31" d="M165.2,124.3l0.1,0.4h4.1c0-0.2,0.2-0.3,0.3-0.5L165.2,124.3L165.2,124.3z"/>
			<path class="st31" d="M137.5,114.5l-0.1-0.4v-0.2h4.6v0.2h-0.2c-0.1,0.1-0.2,0.3-0.2,0.5H137.5z"/>
			<path class="st31" d="M137.4,114.1l0.1,0.4h4.1c0-0.2,0.1-0.3,0.2-0.5L137.4,114.1L137.4,114.1z"/>
			<path class="st31" d="M137.5,124.8l-0.1-0.4v-0.2h4.6v0.2h-0.2c-0.1,0.1-0.2,0.3-0.2,0.5H137.5z"/>
			<path class="st31" d="M137.4,124.3l0.1,0.4h4.1c0-0.2,0.1-0.3,0.2-0.5L137.4,124.3L137.4,124.3z"/>
			<path class="st31" d="M127.8,114.5l-0.1-0.4v-0.2h4.6v0.2h-0.1c-0.2,0.1-0.2,0.3-0.3,0.5H127.8z"/>
			<path class="st31" d="M127.8,114.1l0.1,0.4h4.1c0-0.2,0.1-0.4,0.3-0.5L127.8,114.1L127.8,114.1z"/>
			<path class="st31" d="M127.8,124.8l-0.1-0.4v-0.2h4.6v0.2h-0.1c-0.2,0.1-0.2,0.3-0.3,0.5H127.8z"/>
			<path class="st31" d="M127.8,124.3l0.1,0.4h4.1c0-0.2,0.1-0.4,0.3-0.5L127.8,124.3L127.8,124.3z"/>
			<path class="st31" d="M116.8,114.5l-0.1-0.4v-0.2h4.6v0.2h-0.2c-0.1,0.1-0.2,0.3-0.3,0.5H116.8z"/>
			<path class="st31" d="M116.7,114.1l0.1,0.4h4.1c0-0.2,0.2-0.3,0.3-0.5L116.7,114.1L116.7,114.1z"/>
			<path class="st31" d="M116.8,124.8l-0.1-0.4v-0.2h4.6v0.2h-0.2c-0.1,0.1-0.2,0.3-0.3,0.5H116.8z"/>
			<path class="st31" d="M116.7,124.3l0.1,0.4h4.1c0-0.2,0.2-0.3,0.3-0.5L116.7,124.3L116.7,124.3z"/>
			<path class="st25" d="M120.7,131.7c0-1.3-0.8-2.4-1.7-2.4s-1.7,1.1-1.7,2.4v3.4h3.4L120.7,131.7L120.7,131.7z"/>
			<path class="st25" d="M131.6,131.7c0-1.3-0.8-2.4-1.7-2.4c-1,0-1.7,1.1-1.7,2.4v3.4h3.4L131.6,131.7L131.6,131.7z"/>
			<path class="st25" d="M141.2,131.7c0-1.3-0.8-2.4-1.7-2.4c-0.9,0-1.7,1.1-1.7,2.4v3.4h3.4V131.7z"/>
			<path class="st25" d="M150.7,131.7c0-1.3-0.8-2.4-1.7-2.4c-1,0-1.7,1.1-1.7,2.4v3.4h3.4L150.7,131.7L150.7,131.7z"/>
			<path class="st26" d="M131.6,131.7v3.4h-1v-3.4c0-1.1-0.5-2-1.2-2.3c0.2,0,0.3-0.1,0.5-0.1C130.8,129.2,131.6,130.3,131.6,131.7z
				"/>
			<path class="st26" d="M120.7,131.7v3.4h-1v-3.4c0-1.1-0.5-2-1.2-2.3c0.2,0,0.3-0.1,0.5-0.1C119.9,129.2,120.7,130.3,120.7,131.7z
				"/>
			<path class="st26" d="M141.2,131.7v3.4h-1v-3.4c0-1.1-0.5-2-1.2-2.3c0.2,0,0.3-0.1,0.5-0.1C140.5,129.2,141.2,130.3,141.2,131.7z
				"/>
			<path class="st26" d="M150.7,131.7v3.4h-1v-3.4c0-1.1-0.5-2-1.2-2.3c0.2,0,0.3-0.1,0.5-0.1C149.9,129.2,150.7,130.3,150.7,131.7z
				"/>
			<path class="st31" d="M146.8,135.7l-0.1-0.4V135h4.6v0.2h-0.2c-0.1,0.1-0.2,0.3-0.3,0.5H146.8z"/>
			<path class="st31" d="M146.8,135.2l0.1,0.4h4.1c0-0.2,0.2-0.3,0.3-0.5L146.8,135.2L146.8,135.2z"/>
			<path class="st25" d="M159.9,131.7c0-1.3-0.8-2.4-1.7-2.4c-1,0-1.7,1.1-1.7,2.4v3.4h3.4L159.9,131.7L159.9,131.7z"/>
			<path class="st26" d="M159.9,131.7v3.4h-1v-3.4c0-1.1-0.5-2-1.2-2.3c0.2,0,0.3-0.1,0.5-0.1C159.2,129.2,159.9,130.3,159.9,131.7z
				"/>
			<path class="st31" d="M156.1,135.7l-0.1-0.4V135h4.6v0.2h-0.2c-0.1,0.1-0.2,0.3-0.3,0.5H156.1z"/>
			<path class="st31" d="M156,135.2l0.1,0.4h4.1c0-0.2,0.2-0.3,0.3-0.5L156,135.2L156,135.2z"/>
			<path class="st25" d="M169.1,131.7c0-1.3-0.8-2.4-1.7-2.4c-1,0-1.7,1.1-1.7,2.4v3.4h3.4L169.1,131.7L169.1,131.7z"/>
			<path class="st26" d="M169.1,131.7v3.4h-1v-3.4c0-1.1-0.5-2-1.2-2.3c0.2,0,0.3-0.1,0.5-0.1C168.4,129.2,169.1,130.3,169.1,131.7z
				"/>
			<path class="st31" d="M165.3,135.7l-0.1-0.4V135h4.6v0.2h-0.2c-0.1,0.1-0.2,0.3-0.3,0.5H165.3z"/>
			<path class="st31" d="M165.2,135.2l0.1,0.4h4.1c0-0.2,0.2-0.3,0.3-0.5L165.2,135.2L165.2,135.2z"/>
			<path class="st31" d="M137.5,135.7l-0.1-0.4V135h4.6v0.2h-0.2c-0.1,0.1-0.2,0.3-0.2,0.5H137.5z"/>
			<path class="st31" d="M137.4,135.2l0.1,0.4h4.1c0-0.2,0.1-0.3,0.2-0.5L137.4,135.2L137.4,135.2z"/>
			<path class="st31" d="M127.8,135.7l-0.1-0.4V135h4.6v0.2h-0.1c-0.2,0.1-0.2,0.3-0.3,0.5H127.8z"/>
			<path class="st31" d="M127.8,135.2l0.1,0.4h4.1c0-0.2,0.1-0.4,0.3-0.5L127.8,135.2L127.8,135.2z"/>
			<path class="st31" d="M116.8,135.7l-0.1-0.4V135h4.6v0.2h-0.2c-0.1,0.1-0.2,0.3-0.3,0.5H116.8z"/>
			<path class="st31" d="M116.7,135.2l0.1,0.4h4.1c0-0.2,0.2-0.3,0.3-0.5L116.7,135.2L116.7,135.2z"/>
			<path class="st32" d="M37,69.5l1.5-10.6l2.3,10.6H37z"/>
			<path class="st33" d="M110.2,55.7h-69v91.1h69V55.7z"/>
			<path class="st34" d="M106.2,55.7H93.8v91.1h12.4V55.7z"/>
			<path class="st35" d="M101.5,121.3l-3.6-3.9l-3.6,3.9l-0.3-5.1c-0.2-2.8-0.3-5.6-0.3-8.5v-5.6h7.2v5.6c0,2.8,0.1,5.7,0.2,8.5
				L101.5,121.3z"/>
			
				<linearGradient id="SVGID_1_" gradientUnits="userSpaceOnUse" x1="41.1788" y1="385.9964" x2="64.4368" y2="385.9964" gradientTransform="matrix(1 0 0 -1 0 487.2756)">
				<stop  offset="0" style="stop-color:#FCAF97"/>
				<stop  offset="0.17" style="stop-color:#FCB097;stop-opacity:0.99"/>
				<stop  offset="0.3" style="stop-color:#FCB197;stop-opacity:0.95"/>
				<stop  offset="0.42" style="stop-color:#FCB498;stop-opacity:0.88"/>
				<stop  offset="0.53" style="stop-color:#FDB898;stop-opacity:0.79"/>
				<stop  offset="0.64" style="stop-color:#FDBD99;stop-opacity:0.67"/>
				<stop  offset="0.74" style="stop-color:#FDC399;stop-opacity:0.53"/>
				<stop  offset="0.84" style="stop-color:#FECA9A;stop-opacity:0.35"/>
				<stop  offset="0.93" style="stop-color:#FFD29B;stop-opacity:0.16"/>
				<stop  offset="1" style="stop-color:#FFD99C;stop-opacity:0"/>
			</linearGradient>
			<path class="st36" d="M64.4,55.7H41.2v91.1h23.3V55.7z"/>
			
				<linearGradient id="SVGID_00000077289564556757687410000009852246937278097080_" gradientUnits="userSpaceOnUse" x1="41140.543" y1="408.4677" x2="58845.9375" y2="408.4677" gradientTransform="matrix(1 0 0 -1 0 487.2756)">
				<stop  offset="0" style="stop-color:#FCAF97"/>
				<stop  offset="0.17" style="stop-color:#FCB097;stop-opacity:0.99"/>
				<stop  offset="0.3" style="stop-color:#FCB197;stop-opacity:0.95"/>
				<stop  offset="0.42" style="stop-color:#FCB498;stop-opacity:0.88"/>
				<stop  offset="0.53" style="stop-color:#FDB898;stop-opacity:0.79"/>
				<stop  offset="0.64" style="stop-color:#FDBD99;stop-opacity:0.67"/>
				<stop  offset="0.74" style="stop-color:#FDC399;stop-opacity:0.53"/>
				<stop  offset="0.84" style="stop-color:#FECA9A;stop-opacity:0.35"/>
				<stop  offset="0.93" style="stop-color:#FFD29B;stop-opacity:0.16"/>
				<stop  offset="1" style="stop-color:#FFD99C;stop-opacity:0"/>
			</linearGradient>
			<path style="fill:url(#SVGID_00000077289564556757687410000009852246937278097080_);" d="M110.2,71.8
				C90.1,84,66.6,88.3,41.2,88.1V69.5h68.9V71.8z"/>
			<path class="st38" d="M120.7,94.2H74.5v6.2h46.2V94.2z"/>
			<path class="st39" d="M120.7,98.9H74.5v0.2h46.2V98.9z"/>
			<path class="st39" d="M120.7,97.6H74.5v0.2h46.2V97.6z"/>
			<path class="st39" d="M120.7,94.2H74.6v4.9l46.1-3.4V94.2z"/>
			<path class="st40" d="M95.2,97.6H74.6v0.3h17.2L95.2,97.6z"/>
			<path class="st40" d="M120.7,94.9H74.5v0.2h46.2V94.9z"/>
			<path class="st41" d="M41.2,48.9c-0.1-4.6,0.6-9.2,2.3-13.5c1.7-4.3,4.2-8.2,7.4-11.5c3.2-3.3,7.1-5.9,11.3-7.7s8.8-2.7,13.4-2.7
				s9.2,0.9,13.4,2.7c4.3,1.8,8.1,4.4,11.3,7.7c3.2,3.3,5.7,7.2,7.4,11.5c1.7,4.3,2.4,8.9,2.3,13.5v19.2h-69V48.9z"/>
			<path class="st42" d="M110.2,48.9v19.2h-69V48.9c0-6,1.5-11.8,4.5-17c2.9-5.2,7.2-9.5,12.3-12.6c0.9,6.2,8.8,14.6,20.2,20.7
				c14,7.5,28,8.7,31.3,2.6c0,0,0-0.1,0-0.2C110,44.5,110.2,46.7,110.2,48.9L110.2,48.9z"/>
			<path class="st43" d="M74.4,69.5H62.7l5.9-13.8L74.4,69.5z"/>
			<path class="st32" d="M68.5,55.7l-3.8,12.8c-0.1,0.3-0.3,0.6-0.5,0.8c-0.2,0.2-0.6,0.3-0.9,0.3h-4.1L64,53.6h3.9L68.5,55.7z"/>
			<path class="st44" d="M110.2,69.5v-13l-4.4,13H110.2z"/>
			<path class="st45" d="M113.7,69.5h-3.6V56.7l0.3-1L113.7,69.5z"/>
			<path class="st45" d="M73.3,50.9h-6.6c-0.1,0-0.1,0-0.2,0c0,0-0.1,0.1-0.2,0.1s-0.1,0.1-0.1,0.2c0,0.1,0,0.1,0,0.2l0.4,1h6.5
				l0.4-1c0-0.1,0-0.1,0-0.2c0-0.1,0-0.1-0.1-0.2c0,0-0.1-0.1-0.2-0.1C73.5,50.9,73.4,50.9,73.3,50.9L73.3,50.9z"/>
			<path class="st45" d="M42.9,50.9h-4.7v1.6H43l0.4-1c0-0.1,0-0.1,0-0.2c0-0.1,0-0.1-0.1-0.2c0,0-0.1-0.1-0.2-0.1
				C43.1,50.9,43,50.9,42.9,50.9L42.9,50.9z"/>
			<path class="st41" d="M38.8,50.9h-1.2c-0.1,0-0.1,0-0.2,0c-0.1,0-0.1,0.1-0.2,0.1c0,0-0.1,0.1-0.1,0.2c0,0.1,0,0.1,0,0.2l0.4,1
				h1.3l0.4-1c0-0.1,0-0.1,0-0.2c0-0.1,0-0.1-0.1-0.2c0,0-0.1-0.1-0.2-0.1C38.9,50.9,38.9,50.9,38.8,50.9L38.8,50.9z"/>
			<path class="st41" d="M70.3,50.9h-6.6c-0.1,0-0.1,0-0.2,0c0,0-0.1,0.1-0.2,0.1c0,0-0.1,0.1-0.1,0.2c0,0.1,0,0.1,0,0.2l0.4,1h6.5
				l0.4-1c0-0.1,0-0.1,0-0.2c0-0.1,0-0.1-0.1-0.2c0,0-0.1-0.1-0.2-0.1C70.4,50.9,70.3,50.9,70.3,50.9L70.3,50.9z"/>
			<path class="st45" d="M109.4,50.9h-5c-0.1,0-0.1,0-0.2,0c0,0-0.1,0.1-0.2,0.1c0,0-0.1,0.1-0.1,0.2c0,0.1,0,0.1,0,0.2l0.4,1h4.9
				l0.4-1c0-0.1,0-0.1,0-0.2c0-0.1,0-0.1-0.1-0.2c0,0-0.1-0.1-0.1-0.1C109.5,50.9,109.5,50.9,109.4,50.9L109.4,50.9z"/>
			<path class="st46" d="M111.1,50.9h-1.8c-0.1,0-0.1,0-0.2,0c0,0-0.1,0.1-0.2,0.1c0,0-0.1,0.1-0.1,0.2c0,0.1,0,0.1,0,0.2l0.4,1h1.7
				l0.4-1c0-0.1,0-0.1,0-0.2c0-0.1,0-0.1-0.1-0.2c0,0-0.1-0.1-0.2-0.1C111.2,50.9,111.2,50.9,111.1,50.9L111.1,50.9z"/>
			<path class="st45" d="M77.5,66.9l-4.2-14.4h-3.1l4.2,14.4L77.5,66.9L77.5,66.9z"/>
			<path class="st45" d="M45.5,66.9L43,52.5h-4.2l2.5,14.4L45.5,66.9L45.5,66.9z"/>
			<path class="st45" d="M100.1,66.9l4.4-14.4h4.9L105,66.9H100.1L100.1,66.9z"/>
			<path class="st47" d="M74.5,80.1c0-3.4-2.2-6.2-5.1-6.2s-5.1,2.8-5.1,6.2v12.4h10.1V80.1z"/>
			<path class="st48" d="M70.3,74c-2.4,0.5-4.3,3-4.3,6.1v12.4h-1.6V80.1c0-3.4,2.2-6.2,5.1-6.2C69.8,73.9,70,73.9,70.3,74L70.3,74z
				"/>
			<path class="st47" d="M107.3,80.1c0-3.4-1.2-6.2-2.8-6.2s-2.8,2.8-2.8,6.2v12.4h5.6V80.1z"/>
			<path class="st49" d="M107.3,80.1v12.4h-2V80.1c0-2.7-0.8-4.9-1.8-5.9c0.3-0.2,0.6-0.4,1-0.4C106.1,73.9,107.3,76.7,107.3,80.1z"
				/>
			<path class="st47" d="M44.9,80.1c0-3.4-0.5-6.2-1.1-6.2c-0.6,0-1.1,2.8-1.1,6.2v12.4h2.2L44.9,80.1L44.9,80.1z"/>
			<path class="st48" d="M44.5,75.6c-0.2,1.5-0.4,3-0.4,4.5v12.4h-1.5V80.1c0-3.4,0.5-6.2,1.1-6.2C44.4,73.9,44.3,74.6,44.5,75.6z"
				/>
			<path class="st50" d="M121.6,94v-1.4c0,0,0-0.1,0-0.1s-0.1,0-0.1,0H36.2c-0.1,0-0.2,0-0.4,0.1c-0.1,0-0.2,0.1-0.3,0.2
				c-0.9,1.4-1.3,3-1.3,4.7c0,1.6,0.6,3.2,1.5,4.6h85.7c0,0,0.1,0,0.1,0c0,0,0-0.1,0-0.1v-1.4c0,0,0-0.1,0-0.1c0,0-0.1,0-0.1,0H74.5
				v-6.2h46.9c0,0,0.1,0,0.1,0C121.6,94.1,121.6,94.1,121.6,94L121.6,94z"/>
			<path class="st51" d="M97,100.4h-2.4v1.7H97V100.4z"/>
			<path class="st52" d="M71.7,92.5H36.2c-0.1,0-0.2,0-0.4,0.1c-0.1,0-0.2,0.1-0.3,0.2c-0.8,1.4-1.3,2.9-1.3,4.5
				c0,1.6,0.4,3.2,1.3,4.5c0.1,0.1,0.2,0.2,0.3,0.2c0.1,0,0.2,0.1,0.4,0.1h35.5c-1-1.4-1.5-3.1-1.5-4.8
				C70.2,95.6,70.8,93.9,71.7,92.5z"/>
			<path class="st53" d="M69,102.1h-1c-1-1.4-1.5-3.1-1.5-4.8c0-1.7,0.5-3.4,1.5-4.8h1c-1,1.4-1.5,3.1-1.5,4.8
				C67.5,99,68.1,100.7,69,102.1L69,102.1z"/>
			<path class="st53" d="M39,102.1h-0.9c-1-1.4-1.5-3.1-1.5-4.8c0-1.7,0.5-3.4,1.5-4.8H39c-1,1.4-1.5,3.1-1.5,4.8
				C37.5,99,38,100.7,39,102.1L39,102.1z"/>
			<path class="st54" d="M96.4,112.6c-0.4-4-3.6-7.1-7.4-7.1c-3.8,0-6.9,3-7.4,6.9c-4.4,2.8-7.4,8.1-7.4,14v20.5h29.2v-20.5
				C103.4,120.6,100.6,115.5,96.4,112.6z"/>
			<path class="st55" d="M96.4,112.6c-0.2-2-1.1-3.8-2.6-5.2v0.4c0,2.8,0.1,5.7,0.3,8.5l0.3,5.1l3.6-3.9l3.6,3.9l-0.2-3.1
				C100.2,116,98.5,114.1,96.4,112.6L96.4,112.6z"/>
			<path class="st55" d="M89,105.5c-3.7,0-6.9,3-7.4,6.9c-3.4,2.2-5.8,5.6-6.8,9.5c7.8-2,15.4-4.9,22.5-8.6l-0.9-0.6
				C96,108.6,92.8,105.5,89,105.5z"/>
			<path class="st56" d="M100.5,126.4c0-6.9-5.1-12.6-11.3-12.6c-6.3,0-11.3,5.6-11.3,12.6v20.5h22.7L100.5,126.4L100.5,126.4z"/>
			<path class="st56" d="M89.2,118.2c2.3,0,4.3-2.1,4.3-4.7c0-2.6-1.9-4.7-4.3-4.7c-2.3,0-4.3,2.1-4.3,4.7
				C84.9,116.1,86.9,118.2,89.2,118.2z"/>
			<path class="st48" d="M93.3,114.7c0.1-0.4,0.2-0.8,0.2-1.2c0-2.6-1.9-4.7-4.3-4.7c-0.8,0-1.5,0.2-2.1,0.6c0.7,0.4,1.2,1,1.6,1.8
				c0.4,0.7,0.6,1.5,0.6,2.3v0.3c0,0.3-0.1,0.6-0.1,0.8c1.2,0.5,2.2,1.2,3.2,2.1c2.5,2.3,4.1,5.8,4.1,9.6v20.5h4.3v-20.5
				C100.5,121.1,97.5,116.5,93.3,114.7z"/>
			<path class="st56" d="M60.5,119.1c0-2.9-1.4-5.3-3.1-5.3c-1.7,0-3,2.4-3,5.3v6.4h6.1L60.5,119.1L60.5,119.1z"/>
			<path class="st48" d="M58.6,114.3c-1.1,0.8-1.9,2.7-1.9,4.9v6.4h-2.4v-6.4c0-2.9,1.4-5.3,3-5.3C57.8,113.9,58.3,114,58.6,114.3
				L58.6,114.3z"/>
			<path class="st57" d="M89,2.1h-9.1l-7.4,10.5h9.1L89,2.1z"/>
			<path class="st58" d="M73.9,10.4c0-2.9,2.2-6.5,4.5-7.3h8l-5.2,7.3H73.9z"/>
			<path class="st59" d="M84.7,3c-2.2,0.9-4.5,4.5-4.5,7.3c0-2.9-2.2-6.5-4.5-7.3h-1.6l6.1,8.7L86.4,3C86.4,3,84.7,3,84.7,3z"/>
			<path class="st60" d="M93.3,114.7c0.1-0.4,0.2-0.8,0.2-1.2c0-2.6-1.9-4.7-4.3-4.7c-0.8,0-1.5,0.2-2.1,0.6c0.7,0.4,1.2,1,1.6,1.8
				c0.4,0.7,0.6,1.5,0.6,2.3v0.3c0,0.3-0.1,0.6-0.1,0.8c1.2,0.5,2.2,1.2,3.2,2.1c1.8,1.7,3,3.9,3.6,6.3h4.3
				C99.2,119.2,96.6,116.1,93.3,114.7z"/>
			<path class="st48" d="M89.1,114.7h4.2c0.1-0.4,0.2-0.8,0.2-1.2c0-0.3,0-0.6-0.1-0.9h-4.3c0,0.3,0.1,0.6,0.1,0.9v0.3
				C89.1,114.1,89.1,114.4,89.1,114.7L89.1,114.7z"/>
			<path class="st61" d="M104,118l-4-4l-4,4l-0.3-5.2c-0.2-2.9-0.3-5.8-0.3-8.7v-3.7c0-0.3-0.2-0.6-0.4-0.9
				c-0.2-0.2-0.6-0.4-0.9-0.4h-3.8v-0.3h11.6c0.4,0,0.8,0.2,1,0.4c0.3,0.3,0.4,0.6,0.4,1v3.7c0,2.9,0.1,5.8,0.3,8.7L104,118z"/>
			<path class="st53" d="M103.8,114.5l-4-4l-4,4l0,1.3l4-4l4,4L103.8,114.5z"/>
			<path class="st62" d="M58.5,94.9c-0.5,1.6-0.5,3.2,0,4.8h6.7c-0.5-1.6-0.5-3.2,0-4.8H58.5z"/>
			<path class="st63" d="M85.6,15.8H65.8l-0.2-0.5c-0.1-0.3-0.1-0.6-0.1-1c0-0.3,0.2-0.6,0.4-0.9c0.2-0.3,0.4-0.5,0.7-0.6
				c0.3-0.2,0.6-0.2,0.9-0.2h16.4c0.3,0,0.6,0.1,0.9,0.2c0.3,0.2,0.5,0.4,0.7,0.6c0.2,0.3,0.3,0.6,0.4,0.9c0,0.3,0,0.6-0.1,1
				L85.6,15.8z"/>
			<path class="st41" d="M74.7,13.6c0,0.3,0.1,0.5,0.3,0.7c0.2,0.2,0.4,0.3,0.7,0.3h10.1c0-0.5-0.2-1-0.6-1.4
				c-0.4-0.4-0.9-0.6-1.4-0.6h-8.1c-0.3,0-0.5,0.1-0.7,0.3C74.8,13.1,74.7,13.4,74.7,13.6L74.7,13.6z"/>
			<path class="st45" d="M65.8,15.8h19.8l0.2-0.5H65.5L65.8,15.8z"/>
			<path class="st64" d="M98.7,28.8c0.8-1.3-2.1-4.5-6.5-7.3c-4.4-2.8-8.6-4-9.4-2.7c-0.8,1.3,2.1,4.5,6.5,7.3
				C93.7,28.8,97.9,30,98.7,28.8z"/>
			<path class="st41" d="M115.6,67.4v1.6c0,0.1,0,0.3-0.2,0.4c-0.1,0.1-0.2,0.2-0.4,0.2h-1.5c-0.1,0-0.1,0-0.2-0.1
				c-0.1,0-0.1-0.1-0.1-0.2l-2.9-13.6l-0.8,3l-2.6,9.8c-0.1,0.3-0.2,0.5-0.5,0.7c-0.2,0.2-0.5,0.3-0.8,0.3H73.6
				c-0.3,0-0.6-0.1-0.8-0.3c-0.2-0.2-0.4-0.4-0.5-0.7L71,64.5l-2.6-8.7l-0.6-2.1h-2.1l-4.2,14.6c-0.1,0.4-0.3,0.7-0.6,0.9
				c-0.3,0.2-0.7,0.4-1.1,0.4H40.5c-0.2,0-0.3,0-0.4-0.2c-0.1-0.1-0.2-0.2-0.2-0.4l-1.4-10L37.9,69c0,0.2-0.1,0.3-0.2,0.4
				c-0.1,0.1-0.2,0.2-0.4,0.2h-1c-0.1,0-0.2-0.1-0.4-0.2c-0.1-0.1-0.2-0.2-0.2-0.4v-1.6c0-0.1,0-0.3,0.2-0.4
				c0.1-0.1,0.2-0.2,0.4-0.2h0.4l0.8-14.4h1.3l2.5,14.4h18.2l4.2-14.4h6.5l4.2,14.4h30.6l4.4-14.4h1.7l3.3,14.4h0.7
				c0.1,0,0.3,0,0.4,0.2C115.6,67.1,115.6,67.3,115.6,67.4L115.6,67.4z"/>
			<path class="st45" d="M111.8,68.7h1.4l-2.8-12.9l-0.8,3L111.8,68.7z"/>
			<path class="st65" d="M95.4,100.4v0.8h8v-0.9c0-0.2-0.1-0.5-0.2-0.7h-8.1C95.3,99.9,95.4,100.1,95.4,100.4L95.4,100.4z"/>
			<path class="st48" d="M104.5,73.9c-0.4,0-0.7,0.2-1,0.4c0.8,0.7,1.4,2,1.7,3.8h2C106.8,75.7,105.7,73.9,104.5,73.9z"/>
			<path class="st32" d="M43,52.5h-4.2l0.4-1h4.2L43,52.5z"/>
			<path class="st66" d="M73.7,51.4h-3.1l-0.4,1h3.1L73.7,51.4z"/>
			<path class="st66" d="M109.3,52.5h-4.9l-0.4-1h4.9L109.3,52.5z"/>
			<path class="st67" d="M101.9,113.9l-0.1-1.3l-2-2l0.1,1.3L101.9,113.9z"/>
			<path class="st68" d="M96.9,113.4l0.1,1.3l0.8-0.8l-0.1-1.3L96.9,113.4z"/>
			<path class="st46" d="M115.1,66.9h-0.7l-3.3-14.4h-1.7L105,66.9H89.3v2.7h16.4c0.3,0,0.6-0.1,0.8-0.3c0.2-0.2,0.4-0.4,0.5-0.7
				l2.6-9.8l0.8-3l2.9,13.6c0,0.1,0,0.1,0.1,0.2c0.1,0,0.1,0.1,0.2,0.1h1.5c0.1,0,0.3,0,0.4-0.2c0.1-0.1,0.2-0.2,0.2-0.4v-1.6
				c0-0.1,0-0.3-0.2-0.4C115.4,66.9,115.2,66.9,115.1,66.9L115.1,66.9z"/>
			<path class="st69" d="M78.9,12.6h-9.1L62.4,2.1h9.1L78.9,12.6z"/>
			<path class="st70" d="M89,2.1l-7.4,10.5h-2.7L71.5,2.1h2l6.8,9.6L87,2.1H89z"/>
			<path class="st42" d="M63.9,16.4c1.2,3.2,6.8,4.5,10.5,5c0.2,0,0.4,0,0.6-0.1s0.4-0.2,0.5-0.4c0.8-1.1,2.6-3.5,4.8-5.1H65.8
				L63.9,16.4z"/>
			<path class="st71" d="M74.4,3l5.9,8.3L86.1,3h0.4l-6.1,8.7L74.1,3H74.4z"/>
			<path class="st72" d="M72.9,5.6h-7.5c0,0,0,0-0.1,0c0,0,0,0-0.1,0.1c0,0,0,0,0,0.1s0,0,0,0.1l3.5,5c0.1,0.1,0.2,0.2,0.2,0.2
				c0.1,0,0.2,0.1,0.3,0.1h7.5c0,0,0,0,0.1,0c0,0,0,0,0,0c0,0,0,0,0-0.1c0,0,0,0,0-0.1l-3.5-5c-0.1-0.1-0.2-0.2-0.2-0.2
				C73.1,5.7,73,5.6,72.9,5.6L72.9,5.6z"/>
			<path class="st56" d="M86.4,136.5c0.2,0,0.3-0.4,0.2-0.7c-0.1-0.4-0.3-0.6-0.4-0.6c-0.2,0-0.3,0.4-0.2,0.7
				C86,136.3,86.3,136.5,86.4,136.5z"/>
			<path class="st9" d="M71.7,142.4l-0.8,1.1l0.8,1.1l0.8-1.1L71.7,142.4z"/>
			<path class="st70" d="M132.9,137.7l-0.7,1l0.7,1l0.7-1L132.9,137.7z"/>
			<path class="st73" d="M121.4,144.3l0.7-0.3l-0.7-0.3l-0.3-0.6c0,0,0,0,0,0l-0.3,0.6h0l-0.6,0.3c0,0,0,0,0,0l0.6,0.3h0l0.3,0.7h0
				L121.4,144.3L121.4,144.3z"/>
			<g id="Layer_3" class="st74">
				<g>
					<g>
						<g>
							<path class="st9" d="M143,46.7c0,0.1-0.7,0.4-0.9,0.5c-0.1,0.1-0.2,0.8-0.4,0.8l0,0c-0.1,0-0.2-0.7-0.4-0.8
								c-0.1-0.1-0.9-0.5-0.9-0.6l0,0c0-0.1,0.7,0,0.9-0.1c0.1-0.1,0.2-0.7,0.4-0.7c0.1,0,0.2,0.7,0.4,0.8
								C142.3,46.6,143,46.6,143,46.7"/>
						</g>
						<g id="Logo_00000037685836964242065910000009592398461620708746_" class="st0">
							
								<linearGradient id="SVGID_00000122697531657795954260000013559802326853953696_" gradientUnits="userSpaceOnUse" x1="136.277" y1="437.7424" x2="142.6237" y2="437.7424" gradientTransform="matrix(1 0 0 -1 0 487.2756)">
								<stop  offset="0" style="stop-color:#576FEA"/>
								<stop  offset="0.2119" style="stop-color:#576FEA"/>
								<stop  offset="0.4686" style="stop-color:#576FEA"/>
								<stop  offset="0.7314" style="stop-color:#5870EA"/>
								<stop  offset="1" style="stop-color:#5970EB"/>
							</linearGradient>
							<path style="display:inline;fill:url(#SVGID_00000122697531657795954260000013559802326853953696_);" d="M139.5,52.9
								c0,0-0.1,0-0.1-0.1c-0.3-0.2-0.6-0.4-0.8-0.6c0,0-0.1-0.1-0.2-0.1c0,0,0,0-0.1,0l0,0c-0.2,0-0.4,0-0.6,0l0,0
								c-0.8-0.1-1.5-0.4-2-0.6c0,0,0-0.1,0.1-0.2c0.2-0.4,0.4-0.8,0.8-1.1c0,0,0.1-0.1,0.1-0.1c0,0,0-0.1,0-0.1
								c-0.5-0.7-0.7-0.9-0.8-1.7c0.4-0.4,1-0.6,1.4-0.6c0.2,0,0.3,0,0.4,0.1s0.2,0.1,0.3,0.2l0,0c0,0,0,0,0.1,0c0,0,0.1,0,0.1-0.1
								c0.2-0.8,0.6-1.4,1.3-1.7c0.7,1,1.1,1.8,1.3,2.6c0,0,0,0.1,0.1,0.1c0,0,0,0,0.1,0h0c0.1,0,0.2,0,0.3,0s0.3,0,0.4,0
								c0.4,0,0.9,0,1.4,0c-0.1,0.8-0.2,1.2-0.8,2c0,0,0,0.1,0,0.1c0,0,0,0,0.1,0.1c0.3,0.1,0.6,0.2,0.8,0.4c0,0,0,0,0.1,0
								c-0.4,0.7-1.2,1.4-2,1.4c-0.2,0-0.4-0.1-0.6-0.2l0,0c0,0,0,0-0.1,0c0,0-0.1,0-0.2,0c-0.2,0.1-0.5,0.2-0.8,0.2
								C139.5,52.9,139.5,52.9,139.5,52.9z"/>
							<path class="st76" d="M139.5,46.4c0.6,0.9,1,1.7,1.2,2.4c0,0.1,0.1,0.2,0.2,0.2c0,0,0.1,0,0.1,0.1c0,0,0.1,0,0.1,0
								c0.1,0,0.2,0,0.3,0c0.1,0,0.2,0,0.4,0c0.4,0,0.8,0,1.2,0c0,0.3-0.1,0.6-0.2,0.8c-0.1,0.3-0.3,0.6-0.6,1c0,0.1-0.1,0.2,0,0.2
								c0,0.1,0.1,0.1,0.2,0.2c0.3,0.1,0.5,0.2,0.8,0.4l0,0c-0.2,0.3-0.5,0.6-0.7,0.8c-0.4,0.3-0.7,0.4-1.1,0.4
								c-0.2,0-0.4-0.1-0.6-0.2l0,0c0,0-0.1,0-0.1,0c-0.1,0-0.2,0-0.2,0c-0.2,0.1-0.5,0.2-0.8,0.2c0,0,0,0-0.1,0c0,0,0,0-0.1,0
								c-0.2-0.2-0.6-0.4-0.8-0.6c-0.1-0.1-0.2-0.1-0.2-0.2c0,0-0.1,0-0.1,0l0,0c-0.2,0-0.4,0-0.6,0c-0.4,0-0.7-0.1-1.1-0.2
								c-0.3-0.1-0.5-0.2-0.7-0.3l0,0c0.2-0.4,0.4-0.8,0.8-1c0.1,0,0.1-0.1,0.2-0.2c0-0.1,0-0.2,0-0.2c-0.3-0.4-0.4-0.6-0.6-0.8
								c-0.1-0.2-0.2-0.4-0.2-0.8c0.4-0.3,0.8-0.5,1.2-0.4c0.2,0,0.3,0,0.4,0.1c0.1,0,0.2,0.1,0.3,0.2c0,0,0.1,0,0.1,0
								c0,0,0.1,0,0.1,0c0.1,0,0.1-0.1,0.2-0.2C138.4,47.3,138.9,46.7,139.5,46.4 M139.5,46c-0.7,0.3-1.2,1-1.4,1.8
								c-0.1-0.1-0.2-0.1-0.4-0.2c-0.2,0-0.3-0.1-0.4-0.1c-0.5,0-1.1,0.2-1.5,0.7c0.1,1,0.3,1.2,0.8,1.8c-0.4,0.4-0.7,0.8-1,1.5
								c0.5,0.3,1.3,0.6,2.2,0.6c0.2,0,0.4,0,0.7,0l0,0c0,0,0,0,0,0c0.2,0.3,0.7,0.6,1,0.8c0.3,0,0.8-0.1,1-0.2h0l0,0
								c0.2,0.1,0.4,0.2,0.7,0.2c0.8,0.1,1.6-0.7,2.2-1.6c-0.3-0.1-0.6-0.3-1-0.4c0.6-0.9,0.7-1.3,0.8-2.2c-0.4,0.1-1,0.1-1.5,0
								c-0.2,0-0.3,0-0.4,0c-0.1,0-0.2,0-0.4,0C140.7,47.9,140.1,46.9,139.5,46L139.5,46z"/>
						</g>
						<g id="Logo_00000105392865929157511450000016291922043708584341_">
							<g>
								<path class="st9" d="M139.5,52.9c0,0-0.1,0-0.1-0.1c-0.3-0.2-0.6-0.4-0.8-0.6c0,0-0.1-0.1-0.2-0.1c0,0,0,0-0.1,0l0,0
									c-0.2,0-0.4,0-0.6,0l0,0c-0.8-0.1-1.5-0.4-2-0.6c0,0,0-0.1,0.1-0.2c0.2-0.4,0.4-0.8,0.8-1.1c0,0,0.1-0.1,0.1-0.1
									c0,0,0-0.1,0-0.1c-0.5-0.7-0.7-0.9-0.8-1.7c0.4-0.4,1-0.6,1.4-0.6c0.2,0,0.3,0,0.4,0.1s0.2,0.1,0.3,0.2l0,0c0,0,0,0,0.1,0
									c0,0,0.1,0,0.1-0.1c0.2-0.8,0.6-1.4,1.3-1.7c0.7,1,1.1,1.8,1.3,2.6c0,0,0,0.1,0.1,0.1c0,0,0,0,0.1,0h0c0.1,0,0.2,0,0.3,0
									s0.3,0,0.4,0c0.4,0,0.9,0,1.4,0c-0.1,0.8-0.2,1.2-0.8,2c0,0,0,0.1,0,0.1c0,0,0,0,0.1,0.1c0.3,0.1,0.6,0.2,0.8,0.4
									c0,0,0,0,0.1,0c-0.4,0.7-1.2,1.4-2,1.4c-0.2,0-0.4-0.1-0.6-0.2l0,0c0,0,0,0-0.1,0c0,0-0.1,0-0.2,0c-0.2,0.1-0.5,0.2-0.8,0.2
									C139.5,52.9,139.5,52.9,139.5,52.9z"/>
							</g>
							<path class="st9" d="M139.5,46.4c0.6,0.9,1,1.7,1.2,2.4c0,0.1,0.1,0.2,0.2,0.2c0,0,0.1,0,0.1,0.1c0,0,0.1,0,0.1,0
								c0.1,0,0.2,0,0.3,0c0.1,0,0.2,0,0.4,0c0.4,0,0.8,0,1.2,0c0,0.3-0.1,0.6-0.2,0.8c-0.1,0.3-0.3,0.6-0.6,1c0,0.1-0.1,0.2,0,0.2
								c0,0.1,0.1,0.1,0.2,0.2c0.3,0.1,0.5,0.2,0.8,0.4l0,0c-0.2,0.3-0.5,0.6-0.7,0.8c-0.4,0.3-0.7,0.4-1.1,0.4
								c-0.2,0-0.4-0.1-0.6-0.2l0,0c0,0-0.1,0-0.1,0c-0.1,0-0.2,0-0.2,0c-0.2,0.1-0.5,0.2-0.8,0.2c0,0,0,0-0.1,0c0,0,0,0-0.1,0
								c-0.2-0.2-0.6-0.4-0.8-0.6c-0.1-0.1-0.2-0.1-0.2-0.2c0,0-0.1,0-0.1,0l0,0c-0.2,0-0.4,0-0.6,0c-0.4,0-0.7-0.1-1.1-0.2
								c-0.3-0.1-0.5-0.2-0.7-0.3l0,0c0.2-0.4,0.4-0.8,0.8-1c0.1,0,0.1-0.1,0.2-0.2c0-0.1,0-0.2,0-0.2c-0.3-0.4-0.4-0.6-0.6-0.8
								c-0.1-0.2-0.2-0.4-0.2-0.8c0.4-0.3,0.8-0.5,1.2-0.4c0.2,0,0.3,0,0.4,0.1c0.1,0,0.2,0.1,0.3,0.2c0,0,0.1,0,0.1,0
								c0,0,0.1,0,0.1,0c0.1,0,0.1-0.1,0.2-0.2C138.4,47.3,138.9,46.7,139.5,46.4 M139.5,46c-0.7,0.3-1.2,1-1.4,1.8
								c-0.1-0.1-0.2-0.1-0.4-0.2c-0.2,0-0.3-0.1-0.4-0.1c-0.5,0-1.1,0.2-1.5,0.7c0.1,1,0.3,1.2,0.8,1.8c-0.4,0.4-0.7,0.8-1,1.5
								c0.5,0.3,1.3,0.6,2.2,0.6c0.2,0,0.4,0,0.7,0l0,0c0,0,0,0,0,0c0.2,0.3,0.7,0.6,1,0.8c0.3,0,0.8-0.1,1-0.2h0l0,0
								c0.2,0.1,0.4,0.2,0.7,0.2c0.8,0.1,1.6-0.7,2.2-1.6c-0.3-0.1-0.6-0.3-1-0.4c0.6-0.9,0.7-1.3,0.8-2.2c-0.4,0.1-1,0.1-1.5,0
								c-0.2,0-0.3,0-0.4,0c-0.1,0-0.2,0-0.4,0C140.7,47.9,140.1,46.9,139.5,46L139.5,46z"/>
						</g>
						<path class="st77" d="M136.6,50.2"/>
						<path class="st77" d="M139.5,46.2"/>
						<path class="st77" d="M138.3,52.1"/>
						<path class="st77" d="M139.5,46.3"/>
						<path class="st77" d="M139.4,52.9"/>
						<path class="st77" d="M139.5,46.3"/>
						<g>
							<g>
								<path class="st9" d="M135.7,51.2c0.2-0.1,0.3,0,0.3,0.2c0,0.2-0.1,0.4-0.3,0.5c-0.2,0.1-0.3,0.1-0.3-0.1
									C135.4,51.5,135.5,51.3,135.7,51.2z"/>
							</g>
							<g>
								<path class="st9" d="M138.4,51.9c0.2,0,0.3,0.2,0.3,0.4c0,0.2-0.1,0.3-0.3,0.2c-0.2,0-0.3-0.2-0.3-0.4
									C138.1,51.9,138.3,51.8,138.4,51.9z"/>
							</g>
							<g>
								<path class="st9" d="M139.5,52.6c0.2,0,0.3,0.2,0.3,0.4c0,0.2-0.1,0.3-0.3,0.2c-0.2,0-0.3-0.2-0.3-0.4
									C139.1,52.7,139.3,52.6,139.5,52.6z"/>
							</g>
							<g>
								<path class="st9" d="M136.6,49.9c0.2,0,0.3,0.1,0.3,0.3c0,0.2-0.1,0.3-0.3,0.4c-0.2,0-0.3-0.1-0.3-0.2
									C136.3,50.1,136.4,49.9,136.6,49.9z"/>
							</g>
							<g>
								<path class="st9" d="M135.8,47.9c0.2-0.1,0.3,0,0.3,0.2s-0.1,0.4-0.3,0.5c-0.2,0.1-0.3,0-0.3-0.2
									C135.5,48.2,135.6,48,135.8,47.9z"/>
							</g>
							<g>
								<path class="st9" d="M138,47.6c0.2,0,0.3,0.2,0.3,0.4s-0.1,0.3-0.3,0.2c-0.2,0-0.3-0.2-0.3-0.4
									C137.7,47.7,137.9,47.6,138,47.6z"/>
							</g>
							<g>
								<path class="st9" d="M139.5,45.8c0.2,0.1,0.3,0.3,0.3,0.4s-0.1,0.2-0.3,0.2c-0.2-0.1-0.3-0.3-0.3-0.4S139.3,45.8,139.5,45.8
									z"/>
							</g>
						</g>
						<g>
							<g>
								<path class="st9" d="M143.2,51.2c0.2-0.1,0.3-0.1,0.3,0c0,0.2-0.1,0.4-0.3,0.5c-0.2,0.1-0.3,0-0.3-0.1
									C142.9,51.5,143.1,51.3,143.2,51.2z"/>
							</g>
							<g>
								<path class="st9" d="M140.5,52.4c0.2,0,0.3,0.2,0.3,0.4s-0.1,0.3-0.3,0.2c-0.2,0-0.3-0.2-0.3-0.4
									C140.2,52.5,140.3,52.4,140.5,52.4z"/>
							</g>
							<g>
								<path class="st9" d="M142.3,50.7c0.2,0,0.3,0,0.3,0.2c0,0.2-0.1,0.3-0.3,0.4c-0.2,0-0.3-0.1-0.3-0.2
									C142,50.9,142.2,50.8,142.3,50.7z"/>
							</g>
							<g>
								<path class="st9" d="M143.1,48.6c0.2-0.1,0.3,0,0.3,0.1c0,0.2-0.1,0.4-0.3,0.4c-0.2,0.1-0.3,0-0.3-0.2
									C142.8,48.8,143,48.7,143.1,48.6z"/>
							</g>
							<g>
								<path class="st9" d="M140.9,48.6c0.2,0,0.3,0.2,0.3,0.4s-0.1,0.3-0.3,0.2c-0.2,0-0.3-0.2-0.3-0.4
									C140.5,48.6,140.7,48.5,140.9,48.6z"/>
							</g>
						</g>
					</g>
				</g>
			</g>
			<g id="Layer_3_00000139251940701512506960000018058053463495274154_" class="st78">
				<g>
					<g>
						<g>
							<path class="st9" d="M94.6,50.7c0,0.2-0.8,0.4-1,0.6c-0.1,0.2-0.1,1.3-0.2,1.3l0,0c-0.2,0-0.5-1.1-0.7-1.3
								c-0.2-0.2-1.2-0.4-1.2-0.6l0,0c0-0.2,0.9-0.4,1-0.6c0.1-0.2,0.1-1.3,0.2-1.3c0.1,0,0.5,1.1,0.7,1.3
								C93.6,50.4,94.6,50.6,94.6,50.7"/>
						</g>
						<g id="Logo_00000174595741603916002400000010484582293756412556_" class="st0">
							
								<linearGradient id="SVGID_00000017491400707490268600000013309263550230884245_" gradientUnits="userSpaceOnUse" x1="85.8193" y1="430.9284" x2="95.8468" y2="430.9284" gradientTransform="matrix(1 0 0 -1 0 487.2756)">
								<stop  offset="0" style="stop-color:#576FEA"/>
								<stop  offset="0.2119" style="stop-color:#576FEA"/>
								<stop  offset="0.4686" style="stop-color:#576FEA"/>
								<stop  offset="0.7314" style="stop-color:#5870EA"/>
								<stop  offset="1" style="stop-color:#5970EB"/>
							</linearGradient>
							<path style="display:inline;fill:url(#SVGID_00000017491400707490268600000013309263550230884245_);" d="M91,61.6
								c-0.1,0-0.2,0-0.2-0.1c-0.4-0.2-1.1-0.4-1.4-0.6c0,0-0.2-0.1-0.2-0.1c0,0-0.1,0-0.1,0l0,0c-0.3,0.1-0.7,0.2-1,0.2l0,0
								c-1.3,0-2.5-0.8-3.2-1.5c0,0,0.1-0.1,0.1-0.2c0.4-0.5,0.7-0.8,1.2-1.2c0,0,0.1-0.1,0.1-0.1c0,0,0-0.1,0-0.2
								c-0.8-1.2-1-1.6-1.1-2.8c0.6-0.3,1.4-0.5,2-0.5c0.2,0,0.4,0,0.6,0c0.2,0,0.3,0.1,0.5,0.1c0,0,0,0,0.1,0s0,0,0.1,0
								c0,0,0.1-0.1,0.1-0.2c0.2-1.3,0.7-2.5,1.5-3.5c1,1,1.8,2.2,2.2,3.4c0,0,0,0.1,0.1,0.2c0,0,0,0,0.1,0c0,0,0,0,0.1,0
								c0.1-0.1,0.2-0.1,0.4-0.2c0.2,0,0.4-0.1,0.6-0.1c0.6,0,1.3,0.1,2,0.4c0.1,1.3,0,1.8-0.6,3c0,0,0,0.1,0,0.2
								c0,0,0.1,0.1,0.1,0.2c0.6,0.2,1,0.7,1.4,1.2c0,0,0.1,0.1,0.2,0.2c-0.6,0.8-1.6,1.6-2.9,1.6c-0.4,0-0.7,0-1.1-0.2l0,0
								c0,0-0.1,0-0.1,0c-0.1,0-0.2,0-0.2,0.1c-0.2,0.2-0.8,0.5-1.2,0.6C91.1,61.6,91.1,61.6,91,61.6z"/>
							<path class="st76" d="M90.1,51.3c0.9,0.9,1.6,2,2,3.2c0,0.1,0.1,0.2,0.2,0.3c0,0,0.1,0,0.2,0s0.1,0,0.2,0
								c0.1,0,0.2-0.1,0.4-0.2c0.2,0,0.3,0,0.6-0.1c0.5,0,1.2,0.1,1.8,0.3c0,0.6,0,0.9,0,1.2c-0.1,0.4-0.2,0.8-0.6,1.4
								c0,0.1,0,0.2,0,0.4c0,0.1,0.2,0.2,0.3,0.3c0.6,0.2,0.9,0.6,1.4,1.1l0,0c-0.2,0.4-0.6,0.7-1,0.9c-0.5,0.3-1.1,0.5-1.6,0.5
								c-0.3,0-0.6,0-1-0.2l0,0c0,0-0.1,0-0.2,0c-0.2,0-0.3,0-0.4,0.2c-0.2,0.2-0.8,0.5-1.2,0.6c0,0-0.1,0-0.1,0c0,0-0.1,0-0.1,0
								c-0.4-0.2-1-0.4-1.3-0.6c-0.1-0.1-0.2-0.2-0.4-0.2c0,0-0.1,0-0.2,0l0,0c-0.3,0.1-0.6,0.2-0.9,0.2c-0.6,0-1.2-0.2-1.7-0.5
								c-0.4-0.2-0.8-0.5-1.2-0.9l0,0c0.4-0.5,0.7-0.8,1.2-1.1c0.1,0,0.2-0.2,0.2-0.3s0-0.2,0-0.4c-0.4-0.6-0.6-1-0.8-1.4
								c-0.1-0.3-0.2-0.7-0.2-1.2c0.6-0.2,1.2-0.4,1.8-0.4c0.2,0,0.4,0,0.6,0c0.2,0,0.3,0.1,0.4,0.1c0,0,0.1,0,0.2,0
								c0,0,0.1,0,0.2,0c0.1,0,0.2-0.2,0.2-0.3C88.9,53.4,89.4,52.3,90.1,51.3 M90.1,50.7c-0.8,1-1.5,2.3-1.7,3.8
								c-0.2-0.1-0.3-0.1-0.5-0.2c-0.2,0-0.4,0-0.6,0c-0.7,0-1.5,0.2-2.2,0.6c0.1,1.4,0.3,1.9,1.1,3.1c-0.7,0.4-1.1,0.9-1.6,1.5
								c0.8,1,2.1,1.8,3.4,1.8c0.4,0,0.8,0,1.1-0.2h0c0,0,0,0,0.1,0c0.4,0.4,1.2,0.6,1.8,0.8c0.5-0.2,1.3-0.5,1.6-0.8c0,0,0,0,0.1,0
								h0c0.4,0.1,0.8,0.2,1.2,0.2c1.4,0,2.5-0.8,3.1-1.8c-0.6-0.6-1.1-1.2-1.8-1.5c0.6-1.3,0.7-1.8,0.6-3.3
								c-0.7-0.3-1.5-0.5-2.2-0.5c-0.2,0-0.4,0-0.6,0.1c-0.2,0-0.3,0.1-0.5,0.2C91.9,52.9,91.1,51.7,90.1,50.7L90.1,50.7z"/>
						</g>
						<g id="Logo_00000168807009150770323710000001922443273270138774_">
							<g>
								<path class="st9" d="M91,61.6c-0.1,0-0.2,0-0.2-0.1c-0.4-0.2-1.1-0.4-1.4-0.6c0,0-0.2-0.1-0.2-0.1c0,0-0.1,0-0.1,0l0,0
									c-0.3,0.1-0.7,0.2-1,0.2l0,0c-1.3,0-2.5-0.8-3.2-1.5c0,0,0.1-0.1,0.1-0.2c0.4-0.5,0.7-0.8,1.2-1.2c0,0,0.1-0.1,0.1-0.1
									c0,0,0-0.1,0-0.2c-0.8-1.2-1-1.6-1.1-2.8c0.6-0.3,1.4-0.5,2-0.5c0.2,0,0.4,0,0.6,0c0.2,0,0.3,0.1,0.5,0.1c0,0,0,0,0.1,0
									s0,0,0.1,0c0,0,0.1-0.1,0.1-0.2c0.2-1.3,0.7-2.5,1.5-3.5c1,1,1.8,2.2,2.2,3.4c0,0,0,0.1,0.1,0.2c0,0,0,0,0.1,0
									c0,0,0,0,0.1,0c0.1-0.1,0.2-0.1,0.4-0.2c0.2,0,0.4-0.1,0.6-0.1c0.6,0,1.3,0.1,2,0.4c0.1,1.3,0,1.8-0.6,3c0,0,0,0.1,0,0.2
									c0,0,0.1,0.1,0.1,0.2c0.6,0.2,1,0.7,1.4,1.2c0,0,0.1,0.1,0.2,0.2c-0.6,0.8-1.6,1.6-2.9,1.6c-0.4,0-0.7,0-1.1-0.2l0,0
									c0,0-0.1,0-0.1,0c-0.1,0-0.2,0-0.2,0.1c-0.2,0.2-0.8,0.5-1.2,0.6C91.1,61.6,91.1,61.6,91,61.6z"/>
							</g>
							<path class="st80" d="M90.1,51.3c0.9,0.9,1.6,2,2,3.2c0,0.1,0.1,0.2,0.2,0.3c0,0,0.1,0,0.2,0s0.1,0,0.2,0
								c0.1,0,0.2-0.1,0.4-0.2c0.2,0,0.3,0,0.6-0.1c0.5,0,1.2,0.1,1.8,0.3c0,0.6,0,0.9,0,1.2c-0.1,0.4-0.2,0.8-0.6,1.4
								c0,0.1,0,0.2,0,0.4c0,0.1,0.2,0.2,0.3,0.3c0.6,0.2,0.9,0.6,1.4,1.1l0,0c-0.2,0.4-0.6,0.7-1,0.9c-0.5,0.3-1.1,0.5-1.6,0.5
								c-0.3,0-0.6,0-1-0.2l0,0c0,0-0.1,0-0.2,0c-0.2,0-0.3,0-0.4,0.2c-0.2,0.2-0.8,0.5-1.2,0.6c0,0-0.1,0-0.1,0c0,0-0.1,0-0.1,0
								c-0.4-0.2-1-0.4-1.3-0.6c-0.1-0.1-0.2-0.2-0.4-0.2c0,0-0.1,0-0.2,0l0,0c-0.3,0.1-0.6,0.2-0.9,0.2c-0.6,0-1.2-0.2-1.7-0.5
								c-0.4-0.2-0.8-0.5-1.2-0.9l0,0c0.4-0.5,0.7-0.8,1.2-1.1c0.1,0,0.2-0.2,0.2-0.3s0-0.2,0-0.4c-0.4-0.6-0.6-1-0.8-1.4
								c-0.1-0.3-0.2-0.7-0.2-1.2c0.6-0.2,1.2-0.4,1.8-0.4c0.2,0,0.4,0,0.6,0c0.2,0,0.3,0.1,0.4,0.1c0,0,0.1,0,0.2,0
								c0,0,0.1,0,0.2,0c0.1,0,0.2-0.2,0.2-0.3C88.9,53.4,89.4,52.3,90.1,51.3 M90.1,50.7c-0.8,1-1.5,2.3-1.7,3.8
								c-0.2-0.1-0.3-0.1-0.5-0.2c-0.2,0-0.4,0-0.6,0c-0.7,0-1.5,0.2-2.2,0.6c0.1,1.4,0.3,1.9,1.1,3.1c-0.7,0.4-1.1,0.9-1.6,1.5
								c0.8,1,2.1,1.8,3.4,1.8c0.4,0,0.8,0,1.1-0.2h0c0,0,0,0,0.1,0c0.4,0.4,1.2,0.6,1.8,0.8c0.5-0.2,1.3-0.5,1.6-0.8c0,0,0,0,0.1,0
								h0c0.4,0.1,0.8,0.2,1.2,0.2c1.4,0,2.5-0.8,3.1-1.8c-0.6-0.6-1.1-1.2-1.8-1.5c0.6-1.3,0.7-1.8,0.6-3.3
								c-0.7-0.3-1.5-0.5-2.2-0.5c-0.2,0-0.4,0-0.6,0.1c-0.2,0-0.3,0.1-0.5,0.2C91.9,52.9,91.1,51.7,90.1,50.7L90.1,50.7z"/>
						</g>
						<path class="st81" d="M86.4,58.2"/>
						<path class="st81" d="M90.1,51.1"/>
						<path class="st81" d="M89.1,61"/>
						<path class="st81" d="M90.1,51.2"/>
						<path class="st81" d="M90.9,61.8"/>
						<path class="st81" d="M90.1,51.2"/>
						<g>
							<g>
								<path class="st9" d="M84.9,59c0.2,0,0.5,0.2,0.5,0.5c0,0.2-0.2,0.5-0.5,0.5s-0.5-0.2-0.5-0.5C84.4,59.3,84.6,59,84.9,59z"/>
							</g>
						</g>
					</g>
				</g>
			</g>
		</g>
	</g>
</g>
</svg>
