<?xml version="1.0" encoding="utf-8"?>
<!-- Generator: Adobe Illustrator 28.4.1, SVG Export Plug-In . SVG Version: 6.00 Build 0)  -->
<svg version="1.1" id="Layer_1" xmlns="http://www.w3.org/2000/svg" xmlns:xlink="http://www.w3.org/1999/xlink" x="0px" y="0px"
	 viewBox="0 0 232 242" style="enable-background:new 0 0 232 242;" xml:space="preserve">
<style type="text/css">
	.st0{display:none;fill:#FFFFFF;stroke:#000000;stroke-miterlimit:10;}
	.st1{fill:#08CFFC;}
	.st2{opacity:0.16;}
	.st3{fill:#3B0078;}
	.st4{fill:#F4375B;}
	.st5{fill:#FFFFFF;}
	.st6{fill:#FDD906;}
	.st7{fill:#11BF10;}
	.st8{opacity:0.55;}
	.st9{fill:none;stroke:#3B0078;stroke-width:24.0564;stroke-linecap:round;stroke-linejoin:round;stroke-miterlimit:10;}
</style>
<path class="st0" d="M193.2,242H31.6c-5.7,0-10.2-4.6-10.2-10.2V13.8c0-5.7,4.6-10.2,10.2-10.2h161.6c5.7,0,10.2,4.6,10.2,10.2
	v217.9C203.4,237.4,198.8,242,193.2,242z"/>
<g>
	<g>
		<g>
			<path class="st1" d="M5.2,99.6c0,0,67.9-58.9,120.8-93.1c4.3-2.8,10-1.8,13.2,2.2L180.7,61c1.6,2,1.9,4.6,1,6.9l-4.3,10.6
				c-0.8,1.9-0.5,3.9,0.7,5.5l48.2,64.8c0.8,1.1,0.8,2.7-0.2,3.7l-12.9,13.6l-58.6,14.6"/>
		</g>
		<g class="st2">
			<g>
				<path class="st3" d="M32.4,76.7c0,0,82.5-59.8,99.4-67.6c0,0,2.9-0.3,6,4.1c3,4.4,38.8,49.3,38.8,49.3s2.9,2.8-2,12.3
					c-4.9,9.4,2.9,17.3,2.9,17.3l-75.4,39.7L22.7,94.5L15.3,91"/>
			</g>
		</g>
		<g>
			<path class="st3" d="M154.5,182.2c-0.6,0-1.2-0.4-1.4-1.1c-0.2-0.8,0.3-1.5,1-1.7l58.2-14.5l12.6-13.3c0.5-0.5,0.5-1.3,0.1-1.9
				l-48.2-64.8c-1.5-2-1.8-4.6-0.9-6.9l4.3-10.6c0.8-1.9,0.5-3.9-0.8-5.5L138.1,9.6c-2.7-3.5-7.6-4.2-11.3-1.9
				C74.6,41.4,6.8,100.1,6.2,100.6c-0.6,0.5-1.5,0.5-2-0.2s-0.5-1.5,0.2-2c0.7-0.6,68.6-59.4,121-93.2c4.9-3.2,11.4-2.1,15.1,2.5
				l41.4,52.3c1.9,2.4,2.3,5.6,1.2,8.3L178.7,79c-0.6,1.4-0.3,3,0.5,4.2l48.2,64.8c1.3,1.7,1.1,4-0.3,5.5l-12.9,13.6
				c-0.2,0.2-0.4,0.3-0.7,0.4l-58.6,14.6C154.8,182.1,154.6,182.2,154.5,182.2z"/>
		</g>
		<g>
			<path class="st4" d="M162.5,72.7l-1.1-1.4c-0.6-0.7-0.5-1.7,0.2-2.4l6.4-5.8l-8-10.6l-6.9,5c-0.8,0.6-1.9,0.4-2.6-0.4l0,0
				l2.6,9.2L162.5,72.7z"/>
		</g>
		<g>
			<polyline class="st5" points="115.3,23.4 121.5,19.1 222.1,150.8 214.9,158 192.3,155.3 105.2,30.4 			"/>
		</g>
		<g>
			<path class="st3" d="M214.9,159c0,0-0.1,0-0.1,0l-22.6-2.7c-0.3,0-0.5-0.2-0.7-0.4L104.3,31c-0.3-0.5-0.2-1.1,0.3-1.4
				c0.5-0.3,1.1-0.2,1.4,0.3l86.8,124.4l21.7,2.6l6.2-6.2L121.3,20.5l-5.3,3.8c-0.5,0.3-1.1,0.2-1.4-0.3c-0.3-0.5-0.2-1.1,0.3-1.4
				l6.1-4.3c0.5-0.3,1.1-0.2,1.4,0.2l100.6,131.8c0.3,0.4,0.3,1-0.1,1.3l-7.2,7.1C215.4,158.9,215.1,159,214.9,159z"/>
		</g>
		<g>
			<path class="st6" d="M131.7,45.2c0,0,1.7,1.1,2.4,0.5l8-6.6l9,12.7l-7.5,6.9c-0.6,0.6-0.7,1.5-0.2,2.2l0.7,0.9"/>
		</g>
		<g>
			<polygon class="st5" points="109.2,27.7 115.3,23.4 190.3,123 160.9,139.6 94.9,37.6 			"/>
		</g>
		<g>
			<path class="st3" d="M160.9,140.6c-0.3,0-0.6-0.2-0.8-0.5l-66-102c-0.3-0.5-0.2-1.1,0.3-1.4l14.2-10l0,0l6.2-4.2
				c0.5-0.3,1.1-0.2,1.4,0.2l74.9,99.5c0.2,0.2,0.2,0.5,0.2,0.8c-0.1,0.3-0.2,0.5-0.5,0.7l-29.3,16.7
				C161.2,140.6,161.1,140.6,160.9,140.6z M96.3,37.9l64.9,100.4l27.5-15.6l-73.6-97.9l-5.4,3.7L96.3,37.9z"/>
		</g>
		<g>
			<polygon class="st5" points="15.3,93.3 109.2,27.7 204.3,154.4 114.8,218.3 			"/>
		</g>
		<g>
			<path class="st3" d="M114.8,219.2c-0.3,0-0.6-0.1-0.8-0.4L14.5,93.9c-0.2-0.2-0.3-0.5-0.2-0.8c0-0.3,0.2-0.5,0.4-0.7l93.9-65.6
				c0.5-0.3,1.1-0.2,1.4,0.2l95.1,126.8c0.2,0.2,0.2,0.5,0.2,0.8c0,0.3-0.2,0.5-0.4,0.7L115.5,219
				C115.3,219.2,115.1,219.2,114.8,219.2z M16.7,93.5L115,216.9l87.8-62.6L108.9,29.1L16.7,93.5z"/>
		</g>
		<g>
			<polygon class="st7" points="116.1,36.9 125.1,29.5 133.7,41.6 124.9,48.6 			"/>
		</g>
		<g>
			<path class="st3" d="M124.9,49.6c0,0-0.1,0-0.1,0c-0.3,0-0.5-0.2-0.7-0.4l-8.8-11.7c-0.3-0.4-0.3-1.1,0.2-1.4l9-7.4
				c0.2-0.2,0.5-0.3,0.8-0.2c0.3,0,0.5,0.2,0.7,0.4l8.6,12.1c0.3,0.5,0.2,1-0.2,1.4l-8.8,7C125.4,49.5,125.1,49.6,124.9,49.6z
				 M117.5,37.1l7.5,10.1l7.2-5.8L124.9,31L117.5,37.1z"/>
		</g>
		<g>
			<g>
				<path class="st1" d="M213.1,166.2c-20.3,16.6-72,57.7-106.9,74.4l-101-141l8.2-5.1l86.4-54c5.2-3.3,12.1-2,15.8,3l37.5,51.3
					c2.2,3,5.8,4.9,9.5,4.9h9.8c1.4,0,2.9,0.3,4.2,0.8c2.1,0.8,4,2.2,5.3,4.1l33.1,45.6C218.9,155.1,218,162.2,213.1,166.2z"/>
			</g>
			<g class="st2">
				<g>
					<path class="st3" d="M217.3,155.8c-0.7,2-1.9,3.8-3.6,5.2c-20.3,16.6-72,57.7-106.9,74.4L8.2,97.7l5.2-3.3
						c92.8,166.7,169.5,105.7,174.3,46.5c1.2-14.9-2.2-29.7-11-40.7l0,0c2.1,0.8,4,2.2,5.3,4.1l2.5,3.5l30.6,42.1
						C216.4,151.8,217.2,153.8,217.3,155.8z"/>
				</g>
			</g>
			<g class="st8">
				<path class="st5" d="M183.2,111.1l-2.2-3c-1.4-1.9-3.2-3.3-5.3-4.1c-1.3-0.5-2.7-0.8-4.2-0.8h-9.8c-3.8,0-7.3-1.8-9.5-4.9
					l-37.5-51.3c-3.6-5-10.5-6.3-15.8-3L14.7,96.7c-0.4-0.8-0.8-1.5-1.3-2.2l86.4-54c5.2-3.3,12.1-2,15.8,3l37.5,51.3
					c2.2,3,5.8,4.9,9.5,4.9h9.8c1.4,0,2.9,0.3,4.2,0.8C179.3,103.6,181.5,107.2,183.2,111.1z"/>
			</g>
			<g>
				<path class="st3" d="M106.2,242c-0.5,0-0.9-0.2-1.1-0.6l-101-141c-0.2-0.3-0.3-0.7-0.2-1.1c0.1-0.4,0.3-0.7,0.6-0.9l94.7-59.2
					c5.8-3.6,13.6-2.2,17.7,3.4l37.5,51.3c1.9,2.7,5.1,4.2,8.4,4.2h9.8c4.2,0,8.2,2,10.7,5.5l33.1,45.6c4.1,5.7,3.1,13.6-2.3,18
					c-20.6,16.8-72.2,57.9-107.2,74.6C106.6,242,106.4,242,106.2,242z M7.3,100l99.4,138.8c34.6-17,85.2-57.2,105.5-73.7
					c4.2-3.5,5-9.7,1.8-14.2l-33.1-45.6c-1.9-2.7-5.1-4.3-8.4-4.3h-9.8c-4.2,0-8.2-2-10.7-5.4l-37.5-51.3c-3.2-4.4-9.3-5.5-13.9-2.7
					L7.3,100z"/>
			</g>
			<g>
				<path class="st5" d="M43.4,87.1L95,55.4c1.3-0.8,3-0.5,3.9,0.8l23,31.2c1,1.4,0.6,3.3-0.8,4.2l-52,31.7c-1.3,0.8-3,0.5-3.9-0.8
					L42.5,91.3C41.5,89.9,41.9,88,43.4,87.1z"/>
			</g>
			<g>
				<path class="st3" d="M67.5,124.9c-1.3,0-2.5-0.6-3.4-1.7L41.5,92c-0.7-0.9-0.9-2.1-0.7-3.2c0.2-1.1,0.9-2.1,1.9-2.7l0,0
					l51.6-31.7c1.9-1.1,4.2-0.7,5.5,1.1l23,31.2c0.7,0.9,0.9,2.1,0.7,3.3c-0.2,1.1-0.9,2.1-1.9,2.7l-51.9,31.7
					C69,124.7,68.3,124.9,67.5,124.9z M44,88.1L44,88.1c-0.4,0.3-0.7,0.6-0.8,1.1c-0.1,0.5,0,0.9,0.3,1.3l22.6,31.2
					c0.5,0.7,1.5,0.9,2.3,0.5l51.9-31.7c0.4-0.3,0.7-0.6,0.8-1.1c0.1-0.5,0-0.9-0.3-1.3l-23-31.2c-0.5-0.7-1.5-0.9-2.2-0.5L44,88.1z
					"/>
			</g>
			<g>
				<g>
					<path class="st7" d="M62.7,64.2l1.9-1.7L61.1,59l-6.3,4.6c0,0,10.7,17.5,15.4,16.7C75,79.4,62.7,64.2,62.7,64.2z"/>
				</g>
				<g class="st8">
					<path class="st5" d="M58.4,67.5c0,0,0.6-3.4,4.3-3.4l4.1,5.5c0,0-2.5,4.2-5,3.1C59.3,71.6,58.4,67.5,58.4,67.5z"/>
				</g>
				<g>
					<path class="st3" d="M69.9,81.5c-1.7,0-4.6-1.3-10.1-8.5c-3.3-4.2-5.9-8.6-6-8.7c-0.3-0.5-0.2-1.3,0.3-1.6l6.3-4.6
						c0.5-0.3,1.1-0.3,1.6,0.1l3.5,3.5c0.2,0.2,0.4,0.6,0.3,0.9c0,0.3-0.2,0.6-0.4,0.9l-1.1,0.9c2.9,3.7,9.3,12.3,8,15.6
						c-0.3,0.8-1,1.4-1.9,1.5C70.3,81.5,70.1,81.5,69.9,81.5z M56.4,63.9C61.3,71.7,67.7,79.4,70,79c0,0,0.1,0,0.1,0
						c0.1-0.2,0.2-1.9-3.6-7.6c-2.2-3.4-4.7-6.4-4.7-6.5c-0.4-0.5-0.3-1.3,0.2-1.7l0.9-0.8L61,60.6L56.4,63.9z"/>
				</g>
			</g>
			<g>
				<path class="st3" d="M62.1,102.4c-1.2,0-2.4-0.3-3.4-0.8c-1.9-0.9-3.2-2.4-3.9-4.4c-0.6-1.9-0.4-4,0.6-5.8
					c1-1.8,2.7-3.1,4.7-3.8c4.2-1.3,8.6,0.8,9.8,4.7c0.6,1.9,0.4,4-0.6,5.8c-1,1.8-2.7,3.1-4.7,3.8C63.8,102.2,63,102.4,62.1,102.4z
					 M62.7,89.8c-0.6,0-1.2,0.1-1.8,0.3c-1.4,0.5-2.6,1.4-3.3,2.6c-0.7,1.2-0.8,2.6-0.4,3.8c0.4,1.3,1.3,2.3,2.6,2.9
					c1.3,0.6,2.8,0.7,4.2,0.3c1.4-0.5,2.6-1.4,3.3-2.6c0.7-1.2,0.8-2.6,0.4-3.8C67,91.1,64.9,89.8,62.7,89.8z"/>
			</g>
			<g>
				<path class="st3" d="M56.5,99c-0.1,0-0.3,0-0.4-0.1c-4.5-1.9-8.2-5.6-8.3-8.5c0-1.1,0.4-2,1.3-2.5c3-1.6,7.2,2.8,8.1,3.8
					c0.4,0.4,0.3,1.1-0.1,1.4c-0.4,0.4-1.1,0.3-1.4-0.1c-1.6-1.7-4.4-4-5.6-3.3c-0.2,0.1-0.3,0.2-0.3,0.6c0.1,1.6,2.7,4.8,7.1,6.7
					c0.5,0.2,0.8,0.8,0.5,1.3C57.2,98.7,56.8,99,56.5,99z"/>
			</g>
			<g>
				<path class="st3" d="M60.1,90.1c-0.3,0-0.5-0.1-0.7-0.3c-1.8-1.8-5.8-6.3-3.6-8.4c0.8-0.8,1.9-1.2,3.1-1
					c2.4,0.4,4.8,3.2,7.1,8.2c0.2,0.5,0,1.1-0.5,1.3c-0.5,0.2-1.1,0-1.3-0.5c-2.7-5.9-4.8-6.9-5.6-7c-0.5-0.1-0.9,0-1.3,0.4
					c-0.4,0.4,1.1,3,3.6,5.5c0.4,0.4,0.4,1,0,1.4C60.6,90,60.3,90.1,60.1,90.1z"/>
			</g>
			<g>
				<circle class="st3" cx="60.2" cy="95.5" r="1"/>
			</g>
			<g>
				<circle class="st3" cx="63.2" cy="92.6" r="1"/>
			</g>
			<g>
				<path class="st3" d="M66,93.9c0.8,1.9-0.6,4.1-2.6,4.4c-0.7,0.2-2.6-0.1-2.1-1.1c0.1-0.2,0.4-0.3,0.6-0.3c1.6,0.3,3.1-1.1,3-2.8
					C64.8,93.5,65.7,93.3,66,93.9L66,93.9z"/>
			</g>
			<g>
				<path class="st3" d="M63.8,104.5c3.3-3.1,8.4-6.4,13.1-4.2c3.5,1.7,5.3,5.9,4.3,9.6c-0.6,2.5-2.5,4.3-4.7,5.6
					c-4.5,2.8-11.6,2.9-11.5-3.9c0.1-2.4,0.8-4.9,2.3-6.8c0.8-1,1.7-1.8,2.9-2.3c0.3-0.1,0.6,0,0.8,0.3s0,0.6-0.3,0.8
					c-0.9,0.5-1.7,1.2-2.4,2c-1.3,1.7-1.9,3.9-1.9,6c-0.1,3.8,3.1,4.7,6.3,3.8c2.9-0.9,6-2.8,6.9-5.9c1.2-4-2.1-8.7-6.3-8.5
					c-3.3,0.3-6.2,2.2-8.6,4.3C64.1,105.8,63.3,105,63.8,104.5L63.8,104.5z"/>
			</g>
			<g>
				<path class="st3" d="M68.1,108.6c2-0.1,4.2-0.2,6.2-0.2l-0.9,0.9c0-4,0.1-8,0.3-12.1c0.1-1.3,0.2-2.7,0.3-4
					c0-0.4,0.4-0.7,0.8-0.7c0.4,0,0.6,0.3,0.7,0.7c0.2,5.3,0.1,10.7-0.1,16.1c0,0.5-0.5,0.9-0.9,0.9c-2,0-4.2-0.1-6.2-0.2
					C67.2,110,67.2,108.7,68.1,108.6L68.1,108.6z"/>
			</g>
			<g>
				<path class="st3" d="M97.4,69.5C90.2,75,82.7,80.3,75,85.1c-0.8,0.5-1.5-0.6-0.8-1.2c5.4-4.1,11-8.1,16.7-11.9
					c1.7-1.1,4.1-2.7,5.7-3.7C97.4,67.9,98.1,69,97.4,69.5L97.4,69.5z"/>
			</g>
			<g>
				<path class="st3" d="M102.3,77.4c-7.2,5.5-14.8,10.7-22.4,15.6c-0.8,0.5-1.5-0.6-0.8-1.2c5.4-4.1,11-8.1,16.7-11.9
					c1.7-1.1,4.1-2.7,5.7-3.7C102.2,75.7,103,76.8,102.3,77.4L102.3,77.4z"/>
			</g>
			<g>
				<path class="st3" d="M107.3,85.4c-7.2,5.5-14.8,10.7-22.4,15.6c-0.8,0.5-1.5-0.6-0.8-1.2c5.4-4.1,11-8.1,16.7-11.9
					c1.7-1.1,4.1-2.7,5.7-3.7C107.3,83.7,108.1,84.8,107.3,85.4L107.3,85.4z"/>
			</g>
		</g>
		<g>
			<path class="st3" d="M144.1,62.7c-0.3,0-0.6-0.2-0.8-0.4l-0.7-0.9c-0.8-1.1-0.7-2.6,0.3-3.5l6.9-6.3l-7.9-11l-7.2,5.9
				c-0.6,0.5-1.3,0.6-2,0.6s-1.3-0.5-1.8-1l-0.2-0.2c-0.3-0.5-0.3-1.1,0.2-1.4c0.5-0.3,1.1-0.3,1.4,0.2l0.2,0.2
				c0.1,0.2,0.3,0.2,0.4,0.2c0.1,0,0.3,0,0.5-0.1l8-6.6c0.2-0.2,0.5-0.3,0.8-0.2c0.3,0,0.5,0.2,0.7,0.4l9,12.7
				c0.3,0.4,0.2,1-0.2,1.3l-7.5,6.9c-0.2,0.2-0.3,0.5-0.1,0.8l0.7,0.9c0.3,0.5,0.3,1.1-0.2,1.4C144.6,62.6,144.4,62.7,144.1,62.7z"
				/>
		</g>
		<g>
			<path class="st9" d="M131.7,52.4"/>
		</g>
		<g>
			<path class="st3" d="M162.5,73.8c-0.3,0-0.6-0.2-0.8-0.4l-1.1-1.4c-0.9-1.1-0.8-2.7,0.2-3.7l0,0l5.8-5.2l-6.8-9.1l-6.1,4.4
				c-1.3,0.9-3,0.6-3.9-0.6c-0.3-0.5-0.3-1.1,0.2-1.4c0.5-0.3,1.1-0.3,1.4,0.2c0.3,0.3,0.8,0.4,1.2,0.2l6.9-5
				c0.5-0.3,1.1-0.2,1.4,0.2l8,10.6c0.3,0.4,0.3,1-0.1,1.4l-6.4,5.8c-0.3,0.3-0.3,0.8,0,1.1l1.1,1.4c0.3,0.5,0.3,1.1-0.2,1.4
				C163,73.7,162.8,73.8,162.5,73.8z"/>
		</g>
	</g>
</g>
</svg>
