<?xml version="1.0" encoding="utf-8"?>
<!-- Generator: Adobe Illustrator 28.4.1, SVG Export Plug-In . SVG Version: 6.00 Build 0)  -->
<svg version="1.1" id="Layer_2_00000124863569196042102610000004875073211404526762_"
	 xmlns="http://www.w3.org/2000/svg" xmlns:xlink="http://www.w3.org/1999/xlink" x="0px" y="0px" viewBox="0 0 600 1000"
	 style="enable-background:new 0 0 600 1000;" xml:space="preserve">
<style type="text/css">
	.st0{display:none;fill:#FFFFFF;stroke:#000000;stroke-miterlimit:10;}
	.st1{fill:#08CFFC;}
	.st2{opacity:0.16;}
	.st3{fill:#3B0078;}
	.st4{fill:#F4375B;}
	.st5{fill:#FFFFFF;}
	.st6{fill:#FDD906;}
	.st7{fill:#11BF10;}
	.st8{opacity:0.55;}
	.st9{fill:none;stroke:#3B0078;stroke-width:24.0564;stroke-linecap:round;stroke-linejoin:round;stroke-miterlimit:10;}
</style>
<path class="st0" d="M513,687H87c-14.9,0-27-12.1-27-27V85.6c0-14.9,12.1-27,27-27h426c14.9,0,27,12.1,27,27V660
	C540,674.9,527.9,687,513,687z"/>
<g>
	<g>
		<g>
			<path class="st1" d="M8,439c0,0,178.9-155.3,318.4-245.4c11.4-7.3,26.4-4.8,34.8,5.8l109.3,137.8c4.1,5.2,5.1,12.2,2.6,18.3
				l-11.4,28c-2,4.9-1.3,10.4,1.9,14.6l127,170.8c2.2,3,2,7.1-0.6,9.8l-33.9,35.8l-154.5,38.4"/>
		</g>
		<g class="st2">
			<g>
				<path class="st3" d="M79.6,378.8c0,0,217.4-157.6,261.9-178.2c0,0,7.7-0.7,15.7,10.8c7.9,11.5,102.2,130,102.2,130
					s7.6,7.5-5.4,32.4s7.6,45.7,7.6,45.7L262.9,524.2L54.2,425.5l-19.6-9.1"/>
			</g>
		</g>
		<g>
			<path class="st3" d="M401.6,656.7c-1.7,0-3.2-1.1-3.6-2.8c-0.5-2,0.7-4,2.7-4.5L554,611.2l33.2-35c1.3-1.4,1.4-3.5,0.3-5
				l-127-170.8c-3.9-5.2-4.8-12.2-2.3-18.3l11.4-28c2-4.9,1.2-10.4-2.1-14.6L358.3,201.7c-7.2-9.1-20.1-11.2-29.8-4.9
				c-137.7,88.9-316.2,243.5-318,245c-1.6,1.4-3.9,1.2-5.3-0.4c-1.4-1.6-1.2-3.9,0.4-5.3c1.8-1.6,180.7-156.5,318.9-245.7
				c13-8.4,30.1-5.6,39.8,6.6l109.2,137.8c4.9,6.2,6.1,14.7,3.1,22l-11.4,28c-1.5,3.6-0.9,7.8,1.4,11l127,170.8
				c3.3,4.4,2.9,10.6-0.9,14.6L558.8,617c-0.5,0.5-1.1,0.9-1.8,1.1l-154.4,38.5C402.2,656.6,401.9,656.7,401.6,656.7z"/>
		</g>
		<g>
			<path class="st4" d="M422.7,368.2l-2.8-3.7c-1.5-1.9-1.3-4.6,0.4-6.3l17-15.4l-21.1-28L398,328c-2.1,1.6-5.1,1.1-6.8-1l0,0
				l6.8,24.3L422.7,368.2z"/>
		</g>
		<g>
			<polyline class="st5" points="298.3,238.1 314.5,226.8 579.6,574.1 560.7,593 501.1,585.8 271.5,256.7 			"/>
		</g>
		<g>
			<path class="st3" d="M560.7,595.7c-0.1,0-0.2,0-0.3,0l-59.6-7.2c-0.8-0.1-1.4-0.5-1.9-1.1L269.3,258.3c-0.8-1.2-0.5-2.9,0.7-3.7
				c1.2-0.8,2.9-0.5,3.7,0.7l228.9,328l57.1,6.9l16.3-16.3L313.9,230.5l-14.1,9.9c-1.2,0.8-2.9,0.6-3.7-0.7
				c-0.8-1.2-0.6-2.9,0.7-3.7l16.2-11.3c1.2-0.8,2.8-0.6,3.7,0.6l265.1,347.3c0.8,1.1,0.7,2.6-0.2,3.5l-19,18.8
				C562.1,595.4,561.4,595.7,560.7,595.7z"/>
		</g>
		<g>
			<path class="st6" d="M341.5,295.6c0,0,4.6,2.8,6.4,1.2l21.2-17.3l23.7,33.4l-19.9,18.2c-1.6,1.5-1.8,3.9-0.5,5.7l1.8,2.4"/>
		</g>
		<g>
			<polygon class="st5" points="282,249.4 298.3,238.1 495.8,500.6 418.4,544.5 244.5,275.6 			"/>
		</g>
		<g>
			<path class="st3" d="M418.4,547.2c-0.9,0-1.7-0.4-2.2-1.2l-174-268.9c-0.8-1.2-0.5-2.8,0.7-3.6l37.5-26.3l0,0l16.3-11.2
				c1.2-0.8,2.8-0.6,3.7,0.6L497.9,499c0.5,0.6,0.6,1.4,0.5,2.1c-0.2,0.8-0.6,1.4-1.3,1.8l-77.3,43.9
				C419.3,547,418.9,547.2,418.4,547.2z M248.1,276.3l171.2,264.6l72.5-41.2l-194.1-258l-14.2,9.8L248.1,276.3z"/>
		</g>
		<g>
			<polygon class="st5" points="34.6,422.4 282,249.4 532.9,583.6 297,751.8 			"/>
		</g>
		<g>
			<path class="st3" d="M297,754.4c-0.8,0-1.6-0.3-2.1-1L32.5,424.1c-0.5-0.6-0.7-1.3-0.6-2c0.1-0.7,0.5-1.4,1.1-1.8l247.5-173
				c1.2-0.8,2.8-0.6,3.7,0.6L535,582.2c0.4,0.6,0.6,1.3,0.5,2s-0.5,1.3-1.1,1.8L298.6,753.9C298.1,754.3,297.6,754.4,297,754.4z
				 M38.4,423l259.1,325.2L529,583.1l-247.6-330L38.4,423z"/>
		</g>
		<g>
			<polygon class="st7" points="300.3,273.8 324,254.3 346.6,286.1 323.5,304.6 			"/>
		</g>
		<g>
			<path class="st3" d="M323.5,307.3c-0.1,0-0.2,0-0.3,0c-0.7-0.1-1.4-0.5-1.8-1l-23.1-30.8c-0.9-1.1-0.7-2.8,0.4-3.7l23.7-19.4
				c0.6-0.5,1.3-0.7,2-0.6s1.4,0.5,1.8,1.1l22.6,31.8c0.8,1.2,0.6,2.7-0.5,3.6l-23.1,18.5C324.7,307.1,324.1,307.3,323.5,307.3z
				 M304,274.2l19.9,26.6l19-15.2l-19.4-27.4L304,274.2z"/>
		</g>
		<g>
			<g>
				<path class="st1" d="M556,614.5c-53.4,43.7-189.8,152-281.8,196.2L8,439l21.7-13.5l227.8-142.4c13.8-8.7,32-5.2,41.7,8
					l98.9,135.2c5.9,8,15.2,12.8,25.1,12.8H449c3.8,0,7.6,0.7,11.1,2c5.6,2.1,10.5,5.8,14.1,10.8l87.3,120.2
					C571.2,585.4,568.8,604,556,614.5z"/>
			</g>
			<g class="st2">
				<g>
					<path class="st3" d="M567.2,587.1c-1.8,5.2-5.1,10-9.6,13.7C504.2,644.5,367.8,752.9,275.8,797l-260-362.9l13.8-8.6
						C274.1,864.9,476.3,704,489,548.2c3.2-39.3-5.7-78.3-29-107.2l0,0c5.6,2.1,10.5,5.8,14.1,10.8l6.7,9.3l80.6,111
						C564.8,576.6,566.7,581.8,567.2,587.1z"/>
				</g>
			</g>
			<g class="st8">
				<path class="st5" d="M477.1,469.4l-5.7-7.8c-3.6-5-8.5-8.7-14.1-10.8c-3.5-1.3-7.2-2-11.1-2h-25.8c-9.9,0-19.3-4.7-25.1-12.8
					l-98.9-135.2c-9.6-13.2-27.8-16.7-41.7-8L33,431.4c-1.1-2-2.2-4-3.3-5.9l227.8-142.4c13.8-8.7,32-5.2,41.7,8l98.9,135.2
					c5.9,8,15.2,12.8,25.1,12.8H449c3.8,0,7.6,0.7,11.1,2C467,449.7,472.7,459.2,477.1,469.4z"/>
			</g>
			<g>
				<path class="st3" d="M274.2,814.4c-1.2,0-2.3-0.6-3-1.6L5,441.2c-0.6-0.8-0.8-1.9-0.6-2.9c0.2-1,0.8-1.9,1.7-2.4l249.5-156
					c15.4-9.6,35.9-5.7,46.7,9l98.9,135.2c5.1,7,13.4,11.2,22.1,11.2h25.8c11.1,0,21.7,5.4,28.2,14.4l87.3,120.2
					c10.8,14.9,8.2,35.8-6.1,47.5C504.3,661.8,368.1,769.9,276,814.1C275.3,814.3,274.8,814.4,274.2,814.4z M13.4,440.1L275.5,806
					c91.3-44.8,224.6-150.7,278.1-194.4c11.2-9.2,13.3-25.6,4.8-37.3l-87.3-120.2c-5.1-7.1-13.4-11.3-22.2-11.3h-25.8
					c-11.1,0-21.6-5.3-28.2-14.3L296,293.3c-8.4-11.5-24.5-14.6-36.7-7.1L13.4,440.1z"/>
			</g>
			<g>
				<path class="st5" d="M108.6,406.1l136-83.5c3.4-2.1,7.8-1.2,10.2,2l60.7,82.3c2.7,3.6,1.7,8.8-2.2,11.1l-137.1,83.5
					c-3.4,2.1-7.9,1.2-10.2-2.1l-59.7-82.3C103.8,413.5,104.8,408.4,108.6,406.1z"/>
			</g>
			<g>
				<path class="st3" d="M172.3,505.7c-3.4,0-6.7-1.6-8.9-4.5l-59.7-82.3c-1.8-2.4-2.5-5.6-1.9-8.5c0.6-3,2.4-5.6,5-7.2l0,0
					l136-83.5c4.9-3,11.1-1.8,14.5,2.8l60.7,82.3c1.8,2.5,2.5,5.6,1.9,8.6s-2.4,5.6-5,7.2L178,504.2
					C176.2,505.2,174.3,505.7,172.3,505.7z M110.3,408.8L110.3,408.8c-1.1,0.7-1.8,1.7-2,2.9s0,2.5,0.8,3.5l59.7,82.3
					c1.4,1.9,4,2.4,6,1.2l136.9-83.5c1.1-0.7,1.8-1.7,2.1-3c0.2-1.2,0-2.5-0.8-3.5l-60.7-82.3c-1.4-1.9-3.9-2.4-5.9-1.2L110.3,408.8
					z"/>
			</g>
			<g>
				<g>
					<path class="st7" d="M159.5,345.6l5.1-4.4l-9.2-9.2l-16.7,12.1c0,0,28.1,46.1,40.7,43.9C192,385.7,159.5,345.6,159.5,345.6z"/>
				</g>
				<g class="st8">
					<path class="st5" d="M148.1,354.5c0,0,1.6-8.9,11.4-8.9l10.7,14.4c0,0-6.7,11.1-13.2,8.1C150.5,365.2,148.1,354.5,148.1,354.5z
						"/>
				</g>
				<g>
					<path class="st3" d="M178.4,391.2c-4.5,0-12-3.4-26.6-22.4c-8.6-11.2-15.5-22.6-15.8-23c-0.9-1.4-0.5-3.3,0.9-4.3l16.7-12.1
						c1.3-0.9,3-0.8,4.1,0.3l9.2,9.2c0.6,0.6,1,1.5,0.9,2.4c0,0.9-0.4,1.7-1.1,2.3l-2.8,2.4c7.7,9.8,24.4,32.4,21.1,41.1
						c-0.8,2.2-2.6,3.6-5.1,4C179.5,391.2,179,391.2,178.4,391.2z M143,344.9c12.8,20.5,29.6,41,35.8,39.9c0.1,0,0.2,0,0.2,0
						c0.2-0.6,0.6-4.9-9.5-20.1c-5.9-8.9-12.5-17-12.5-17.1c-1.1-1.3-0.9-3.3,0.4-4.4l2.5-2.2l-4.8-4.8L143,344.9z"/>
				</g>
			</g>
			<g>
				<path class="st3" d="M158,446.4c-3.1,0-6.2-0.7-9-2c-4.9-2.3-8.5-6.4-10.2-11.5c-1.6-5.1-1-10.5,1.7-15.2
					c2.6-4.7,7-8.2,12.3-9.9c11-3.5,22.6,2.1,25.9,12.4c1.6,5.1,1,10.5-1.7,15.2c-2.6,4.7-7,8.2-12.3,9.9
					C162.5,446,160.3,446.4,158,446.4z M159.5,413.2c-1.6,0-3.2,0.2-4.7,0.7c-3.7,1.2-6.8,3.6-8.6,6.9c-1.8,3.2-2.2,6.8-1.1,10.1
					c1.1,3.3,3.5,6,6.8,7.6c3.4,1.6,7.3,1.8,11,0.7c3.7-1.2,6.8-3.6,8.6-6.9c1.8-3.2,2.2-6.8,1.1-10.1
					C170.8,416.7,165.4,413.2,159.5,413.2z"/>
			</g>
			<g>
				<path class="st3" d="M143.1,437.4c-0.3,0-0.7-0.1-1-0.2c-11.9-5-21.6-14.8-21.9-22.3c-0.1-2.8,1.1-5.2,3.5-6.5
					c7.9-4.3,19.1,7.5,21.3,9.9c1,1.1,0.9,2.8-0.2,3.8c-1.1,1-2.8,0.9-3.8-0.2c-4.1-4.6-11.6-10.5-14.8-8.8
					c-0.4,0.2-0.7,0.5-0.7,1.5c0.2,4.1,7,12.7,18.7,17.7c1.4,0.6,2,2.1,1.4,3.5C145.1,436.7,144.1,437.4,143.1,437.4z"/>
			</g>
			<g>
				<path class="st3" d="M152.6,413.9c-0.7,0-1.4-0.3-1.9-0.8c-4.8-4.8-15.2-16.5-9.5-22.2c2.2-2.2,5.1-3.2,8.2-2.6
					c6.3,1.1,12.6,8.4,18.6,21.5c0.6,1.3,0,2.9-1.3,3.5s-2.9,0-3.5-1.3c-7.1-15.6-12.6-18.1-14.7-18.5c-1.3-0.2-2.4,0.1-3.4,1.1
					s2.9,7.9,9.6,14.6c1,1,1,2.7,0,3.8C154,413.7,153.3,413.9,152.6,413.9z"/>
			</g>
			<g>
				<circle class="st3" cx="153" cy="428.1" r="2.7"/>
			</g>
			<g>
				<circle class="st3" cx="160.9" cy="420.5" r="2.7"/>
			</g>
			<g>
				<path class="st3" d="M168.2,424c2.1,4.9-1.6,10.9-6.8,11.7c-1.8,0.4-6.9-0.2-5.6-3c0.3-0.5,1-0.8,1.6-0.7c4.2,0.8,8.1-3,7.8-7.3
					C165.1,423,167.5,422.4,168.2,424L168.2,424z"/>
			</g>
			<g>
				<path class="st3" d="M162.5,451.9c8.8-8.3,22.1-17,34.4-11.1c9.1,4.4,14,15.6,11.3,25.3c-1.7,6.5-6.7,11.4-12.4,14.7
					c-11.8,7.3-30.5,7.7-30.3-10.3c0.2-6.4,2-12.9,6.1-17.9c2.1-2.6,4.6-4.7,7.7-6.1c0.8-0.3,1.7,0,2,0.8s0,1.6-0.8,2
					c-2.4,1.2-4.6,3.2-6.3,5.4c-3.4,4.5-4.9,10.3-4.9,15.9c-0.3,10.1,8.2,12.5,16.6,10c7.7-2.4,15.9-7.3,18.2-15.5
					c3.2-10.5-5.5-23-16.7-22.3c-8.6,0.7-16.3,5.9-22.7,11.4C163.2,455.5,161.1,453.3,162.5,451.9L162.5,451.9z"/>
			</g>
			<g>
				<path class="st3" d="M173.7,462.8c5.4-0.3,11-0.5,16.4-0.6l-2.5,2.5c0-10.6,0.2-21.2,0.8-31.8c0.2-3.5,0.4-7.1,0.7-10.6
					c0.1-1.1,1-1.8,2.1-1.8c1,0.1,1.7,0.9,1.8,1.8c0.6,14.1,0.3,28.2-0.2,42.4c0,1.4-1.2,2.5-2.5,2.5c-5.4-0.1-11-0.3-16.4-0.6
					C171.4,466.5,171.4,463,173.7,462.8L173.7,462.8z"/>
			</g>
			<g>
				<path class="st3" d="M251.1,359.8c-19,14.5-38.9,28.3-59.1,41.1c-2,1.2-4-1.6-2.2-3.1c14.2-10.9,29.1-21.4,44-31.3
					c4.4-2.9,10.7-7.1,15.1-9.8C250.9,355.5,252.9,358.4,251.1,359.8L251.1,359.8z"/>
			</g>
			<g>
				<path class="st3" d="M264,380.4c-19,14.5-38.9,28.3-59.1,41.1c-2,1.2-4-1.6-2.2-3.1c14.2-10.9,29.1-21.4,44-31.3
					c4.4-2.9,10.7-7.1,15.1-9.8C263.8,376.1,265.8,378.9,264,380.4L264,380.4z"/>
			</g>
			<g>
				<path class="st3" d="M277.2,401.5c-19,14.5-38.9,28.3-59.1,41.1c-2,1.2-4-1.6-2.2-3.1c14.2-10.9,29.1-21.4,44-31.3
					c4.4-2.9,10.7-7.1,15.1-9.8C277.1,397.2,279.1,400,277.2,401.5L277.2,401.5z"/>
			</g>
		</g>
		<g>
			<path class="st3" d="M374.2,341.7c-0.8,0-1.6-0.4-2.1-1.1l-1.8-2.4c-2.1-2.9-1.8-6.8,0.9-9.2l18.1-16.6l-20.7-29.1l-19,15.5
				c-1.5,1.2-3.3,1.7-5.2,1.5s-3.5-1.2-4.7-2.7l-0.4-0.5c-0.9-1.2-0.7-2.9,0.5-3.7c1.2-0.9,2.9-0.7,3.7,0.5l0.4,0.5
				c0.3,0.5,0.8,0.6,1.1,0.6c0.2,0,0.7,0,1.2-0.3l21.2-17.3c0.6-0.5,1.3-0.7,2-0.6s1.4,0.5,1.8,1.1l23.7,33.4
				c0.8,1.1,0.6,2.6-0.4,3.5L374.6,333c-0.6,0.5-0.7,1.4-0.2,2.1l1.8,2.4c0.9,1.2,0.7,2.9-0.5,3.7
				C375.4,341.6,374.8,341.7,374.2,341.7z"/>
		</g>
		<g>
			<path class="st9" d="M341.5,314.7"/>
		</g>
		<g>
			<path class="st3" d="M422.7,370.9c-0.8,0-1.6-0.4-2.1-1.1l-2.8-3.7c-2.3-3-2-7.1,0.6-9.8l0.1-0.1l15.2-13.8l-18-23.9l-16,11.7
				c-3.3,2.4-8,1.7-10.4-1.5c-0.9-1.2-0.7-2.8,0.5-3.7c1.2-0.9,2.8-0.7,3.7,0.5c0.7,0.9,2.1,1.1,3.1,0.4l18.2-13.2
				c1.2-0.9,2.8-0.6,3.7,0.6l21.1,28c0.8,1.1,0.7,2.7-0.3,3.6l-16.9,15.4c-0.7,0.8-0.8,2-0.1,2.8l2.8,3.7c0.9,1.2,0.7,2.8-0.5,3.7
				C423.9,370.7,423.3,370.9,422.7,370.9z"/>
		</g>
	</g>
</g>
</svg>
