<?xml version="1.0" encoding="utf-8"?>
<!-- Generator: Adobe Illustrator 28.4.1, SVG Export Plug-In . SVG Version: 6.00 Build 0)  -->
<svg version="1.1" id="Layer_1" xmlns="http://www.w3.org/2000/svg" xmlns:xlink="http://www.w3.org/1999/xlink" x="0px" y="0px"
	 viewBox="0 0 300 250" style="enable-background:new 0 0 300 250;" xml:space="preserve">
<style type="text/css">
	.st0{display:none;}
	.st1{display:inline;}
	.st2{fill:#4C7DFF;}
	.st3{fill:#2859D1;}
	.st4{fill:#FF8C19;}
	.st5{fill:#8F473B;}
	.st6{fill:#ED5F00;}
	.st7{fill:url(#SVGID_1_);}
	.st8{opacity:0.5;fill:#FFFFFF;enable-background:new    ;}
	.st9{fill:#8CD9FF;}
	.st10{fill:#6B2F34;}
	.st11{fill:url(#SVGID_00000040553955978885361130000015894582862006597776_);}
	.st12{display:inline;fill:#FFDAA2;}
	.st13{display:inline;fill:#FFC619;}
	.st14{display:inline;fill:#FF78B9;}
	.st15{display:inline;fill:#FF2EA2;}
	.st16{display:inline;fill:#4C7DFF;}
	.st17{display:inline;fill:#8F473B;}
	.st18{display:inline;fill:#6B2F34;}
	.st19{fill:url(#SVGID_00000165227658924687770480000016709111295165365928_);}
	.st20{fill:#FFC619;}
	.st21{fill:#464B90;}
	.st22{fill:#FF2EA2;}
	.st23{fill:#AA5F44;}
	.st24{fill:#FF78B9;}
	.st25{fill:#FFAED7;}
	.st26{fill:#242145;}
	.st27{fill:#66BCFF;}
	.st28{fill:#FFFFFF;}
	.st29{fill:#D18D5E;}
	.st30{fill:#FFE75C;}
	.st31{display:inline;fill:#8CD9FF;}
	.st32{display:inline;fill:#808AFF;}
	.st33{display:inline;fill:#FFE75C;}
	.st34{display:inline;fill:#34F4CF;}
	.st35{display:inline;fill:#FFAED7;}
	.st36{fill:url(#SVGID_00000101782701248450582340000000377923456272315829_);}
	.st37{fill:#C5C5C5;}
	.st38{fill:#B3B3B3;}
	.st39{fill:#9E9E9E;}
	.st40{fill:url(#SVGID_00000018959266439438565820000005578074292572750500_);}
	.st41{fill:#AA85FE;}
	.st42{fill:#8859FF;}
	.st43{fill:url(#SVGID_00000072968070405463635640000006156457403288610220_);}
	.st44{fill:url(#SVGID_00000147193661439716319560000010640213635537267337_);}
	.st45{fill:#D11583;}
	.st46{fill:#FFFEFB;}
	.st47{fill:#FFA8D2;}
</style>
<g class="st0">
	<g class="st1">
		<path class="st2" d="M338.5,195.8c0,0-22.2,31.3-34.7,41.3c-9.7,7.8-16.4,7.9-23.3,0.2c-9.3-10.6-32.4-46.6-32.4-46.6
			c-5.5-8.8-2.8-20.4,6-25.9c8.8-5.5,20.9-2.8,26.3,6l12.7,21.2l1.3,2.2l0.3,0.4l23.2-20.8L338.5,195.8z"/>
		<path class="st3" d="M294.5,194.2c-2.3,2.8-4.4,5.8-6,9c-0.2,0.4-0.6,0.7-1,0.7l-0.6-0.2c-0.6-0.3-0.8-1-0.6-1.6
			c1.9-3.6,4.2-7,6.9-10.2L294.5,194.2z"/>
		<g>
			<polygon class="st4" points="366.6,179.4 342.5,131 340.9,127.7 330.1,132 333.6,139.5 354.8,185 			"/>
			<path class="st5" d="M340.7,152.2l0.6-3.1c0.5-3.3-1.4-6.4-4.6-7.3c-3.4-1-5.9,0.6-7.7,3.4s-5.6,9.4-5.6,13.5
				c0.1,1.8,0.5,3.6,1.2,5.3l-10.8,10c-0.8,0.9-0.8,2.1,0,3c5,5.4,23,23.7,26,24.7s4.2-0.2,5.6-1.9l10.2-17.2L340.7,152.2z"/>
			<path class="st5" d="M358.6,140c0,0-10.7-1.6-12.6-2.3l13.9,39c0,0,9.3-4.9,12.3-11.1c3.1-6.2,1.1-9.5-1.3-12.3s-3.1-3.8-3.5-6.7
				C366.7,139.2,358.6,140,358.6,140z"/>
			<polygon points="342.5,131 333.6,139.5 330.1,132 340.9,127.7 			"/>
			<polygon class="st6" points="371,183.5 354.8,191.2 349.7,184.7 369.1,175.4 			"/>
			<polygon class="st3" points="345.6,128.2 327.8,136.8 320.6,128.2 343.2,117.3 			"/>
			
				<linearGradient id="SVGID_1_" gradientUnits="userSpaceOnUse" x1="384.3136" y1="472.7745" x2="285.5383" y2="520.148" gradientTransform="matrix(1 0 0 1 0 -398.2756)">
				<stop  offset="0" style="stop-color:#8CD9FF"/>
				<stop  offset="0.32" style="stop-color:#79CBFF"/>
				<stop  offset="0.69" style="stop-color:#6BC0FF"/>
				<stop  offset="1" style="stop-color:#66BCFF"/>
			</linearGradient>
			<polygon class="st7" points="373.6,100.9 371.3,107.7 341.6,122 339.4,123.1 295.8,144 288.9,141.7 272.3,106.9 274.6,100.1 
				350.2,63.8 356.9,66.2 			"/>
			<polygon class="st2" points="320.4,83.7 337.1,118.5 339.4,123.1 341.6,122 339.3,117.4 322.6,82.7 			"/>
			<polygon class="st8" points="310.2,133.9 297.9,138.7 300.9,91.5 313.3,86.3 			"/>
			<polygon class="st2" points="373.6,100.9 371.3,107.7 341.6,122 339.4,123.1 295.8,144 288.9,141.7 298,137.3 310.4,131.4 
				337.1,118.5 339.3,117.4 			"/>
			<polygon class="st9" points="356.9,66.2 322.6,82.7 320.4,83.7 313.3,87.1 300.9,93.1 272.3,106.9 274.6,100.1 350.2,63.8 			"/>
			<g>
				<path class="st5" d="M363.2,150.9l-2.8,2.6l-4-10.2c0,0-6.9,5.6-9.7,9c-2.7,3.4-0.9,8.4,3.1,9.7c0.9,0.3,1.9,0.4,2.9,0.3
					c0.5-0.1,0.9,0.2,1,0.7v0.1c0.1,2.5,1.8,4.7,4.3,5.5c5.2,1.5,11-5.1,11-5.1L363.2,150.9z"/>
				<path class="st5" d="M359.1,141.4c0.7-1.1,3.6-7.2-0.2-11.8c-3.9-4.6-7.3-2.3-9.5-1c-2.3,1.2-5.5,7.7-7.2,11.9
					c-1.7,4.3,1.5,9.9,6,10.1C354.5,150.8,358.4,142.5,359.1,141.4z"/>
				<path class="st10" d="M362.6,140.5l-7.3,8.8c-1.8,2-4.3,3.2-7,3.2h-2.2c-0.4,0-0.8-0.2-1-0.6l0,0l1.5-1.5l-0.5-0.2h1.9
					c2.1,0.1,4.1-0.7,5.5-2.3l6.4-7.7C360.8,140.1,361.7,140.2,362.6,140.5z"/>
				<path class="st10" d="M369.8,163.4c-1.4,3.4-4.1,6.1-7.4,7.6l-1.1-2.2c2.8-1.2,5.1-3.5,6.3-6.3c0.2-0.6,0.9-0.9,1.4-0.7h0.1
					C369.7,162,370,162.7,369.8,163.4z"/>
				
					<linearGradient id="SVGID_00000172409873789886527870000000225675512535971979_" gradientUnits="userSpaceOnUse" x1="360.4784" y1="560.3698" x2="310.6154" y2="534.7414" gradientTransform="matrix(1 0 0 1 0 -398.2756)">
					<stop  offset="6.000000e-02" style="stop-color:#AA5F44"/>
					<stop  offset="0.29" style="stop-color:#A15741"/>
					<stop  offset="0.59" style="stop-color:#8F473B"/>
				</linearGradient>
				<path style="fill:url(#SVGID_00000172409873789886527870000000225675512535971979_);" d="M349.9,152.6c2.3,2.7,2.4,6.8-0.4,8.9
					c-2.8,2.2-6.1,0.7-9.9-1.2s-6.4-3.5-8.9-6.4c-2.4-2.8-3.5-6.5-1.1-9.7s6.9-3.9,10.2-1.6C343.2,144.9,348,150.4,349.9,152.6z"/>
			</g>
		</g>
	</g>
	<path class="st12" d="M288.2,187.1c-5.8,5.4-25.5,20.2-28.5,22.3s-5.8,3.5-8,0.5l-1.2-1.7l-1.5-2l-0.8,1.1l0,0L247,209
		c-1.8,2.6-3.9,5-6.3,7.1c0,0-2,13.5-6.1,24.7c-1.9,5-6.6,8.3-11.9,8.3h-87.3c-4.2,0-9-6-7.5-12.5c14.9-62.6,29-101,29-101
		s17.5,2.3,27.3,3.9l67.2,7.3c15.3,3.1,19.7,7.8,37.4,35C289.7,183.2,290.4,185.1,288.2,187.1z"/>
	<path class="st13" d="M247.3,208.6c0.2-0.5,0.5-0.9,0.9-1.3L247,209C247,208.9,247.1,208.7,247.3,208.6z"/>
	<path class="st13" d="M262,187.9c-2.2,6-6.2,13.1-11.4,20.3l-1.5-2c4.9-6.8,8.7-13.5,10.7-19.2c0.3-0.6,0.9-0.9,1.5-0.7
		C261.9,186.6,262.2,187.3,262,187.9z"/>
	<path class="st14" d="M251.2,174.8L251.2,174.8c0,1,0,2.1-0.2,3.1c-1.2,11-11,19.9-23,21.2c-5.2,0.6-12.8-0.5-17.9-3.1
		c-13.3-7.2-22.6-19.1-27.8-25.8s-8.1-12-8.6-16.5c-1-9.4,6.8-17.1,16.2-18c23.4-2.2,51.4,2.3,58.7,5.3s11.1,7.6,12.2,14.3
		S256.3,171.2,251.2,174.8z"/>
	<path class="st15" d="M251.2,174.8c0,1,0,2.1-0.2,3.1c-7.2,5.2-15.7,8-24.6,8.1l0,0c-0.7,0-1.2-0.5-1.2-1.2s0.5-1.2,1.2-1.2l0,0
		C235.4,183.5,244.1,180.4,251.2,174.8z"/>
	<path class="st16" d="M165.2,191.1c8.3,1.8,13.5,10,11.7,18.3c-1.6,7.5-8.5,12.6-16.1,12c0,0-55.1,9.7-69.1,7.1
		s-11.1-16.1-5.6-30.8s8.7-15.3,19.1-14.4L165.2,191.1z"/>
	<path class="st17" d="M217.2,203.6l-3.1,0.6h-0.2c0.7,0.6,1.3,1.4,1.6,2.3c0.4,1.3,0.6,2.6,0.5,3.9c-0.1,2.4-1.2,4.7-3.1,6.2
		c-0.9,0.8-1.2,2.1-0.7,3.2c1,2.3,0.9,6.3-1.2,8.5c-2.1,2.2-5.6,3-10.1,3s-11.6-2.6-17.6-4.1s-6.4-1.5-9.3-1.5l-21-0.5l10.2-35.9
		l14.6,0.2c0,0,15.5-7.4,21.8-8s6.9,1.3,7.7,5.2c0.2,0.7,0.3,1.5,0.3,2.3h8.1c4.4,0.2,6.9,2.7,7.4,6.2S220.4,202.8,217.2,203.6z"/>
	<path class="st18" d="M211,189.1h-0.4c0,0-3.8,0.1-7.3,0.4h-0.2c-0.7,0-1.2-0.5-1.2-1.2s0.5-1.2,1.2-1.2l3.9-0.2
		c0.2,0.7,0.3,1.5,0.3,2.3h3.7V189.1z"/>
	<path class="st18" d="M215.4,206.5l-5.4,0.3h-0.1c-0.6,0-1.2-0.4-1.2-1l0,0c-0.1-0.6,0.3-1.2,1-1.3h0.1l4.3-0.3h-0.2
		C214.5,204.8,215.1,205.6,215.4,206.5z"/>
	<path class="st18" d="M192.9,223.8c-0.6,0-1.1-0.5-1.2-1c-0.1-0.7,0.4-1.3,1-1.4h0.1c1.7-0.2,3.2-1.1,4.3-2.4
		c1.1-1.3,1.6-3,1.4-4.8c-0.1-0.6-0.2-1.3-0.5-1.9c-0.7-1.8-0.1-3.9,1.4-5.1c1.7-1.4,2.7-3.5,2.4-5.7c-0.2-1.7-1-3.3-2.4-4.4
		c-1.3-1.1-3-1.6-4.8-1.4c-0.6,0-1.2-0.4-1.3-1c-0.1-0.7,0.4-1.3,1-1.4l0,0c2.3-0.3,4.7,0.4,6.5,1.9s3,3.6,3.3,6
		c0.4,3-0.9,6-3.3,7.9c-0.7,0.5-1,1.4-0.6,2.3c0.3,0.8,0.6,1.7,0.6,2.6c0.3,2.3-0.4,4.7-1.9,6.5S195.3,223.5,192.9,223.8
		L192.9,223.8z"/>
	<g class="st1">
		<g>
			
				<linearGradient id="SVGID_00000150068570549517000850000009335909989076215973_" gradientUnits="userSpaceOnUse" x1="138.1871" y1="530.681" x2="204.2602" y2="491.3562" gradientTransform="matrix(1 3.000000e-02 -3.000000e-02 1 36.9642 -407.3856)">
				<stop  offset="0" style="stop-color:#FF2EA2"/>
				<stop  offset="0.36" style="stop-color:#FF4EAC"/>
				<stop  offset="0.77" style="stop-color:#FF78B9"/>
			</linearGradient>
			<path style="fill:url(#SVGID_00000150068570549517000850000009335909989076215973_);" d="M223,97.8c-20.5,14.1-37,25.3-58,38.8
				c-11.9,7.3-22.8-11.1-10.6-18.1c21.6-12.6,39.9-23.8,62.4-33.9c4.3-1.9,8.2-0.6,9.3,2.7s-1.1,5.4-1.1,5.4S226.1,95.4,223,97.8z"
				/>
			<path class="st20" d="M155,116.4l0.8,32.5l21.4-12.9c1.9-1.2,2.7-3.6,1.9-5.6l-9.8-23L155,116.4z"/>
		</g>
		<path class="st21" d="M118.6,129.4l39.2,1.4c1.2,17.2-1.3,36.8-1.3,36.8l-49.5-1.3C107.6,159.6,114.2,134.3,118.6,129.4z"/>
		<path d="M122.3,165.5v20c0,0.8,0.6,1.5,1.5,1.5l25,1.8c0.8,0,1.5,0.8,1.4,1.6c0,0.1,0,0.3-0.1,0.4l-6.4,18.9l17.8,5.3l12.8-29.1
			c3.9-9-1-18.8-12.2-19.2L124,164c-0.8-0.1-1.5,0.4-1.7,1.2C122.3,165.3,122.2,165.4,122.3,165.5z"/>
		<path class="st20" d="M152.3,131.1c-0.9,2.1-2.1,4-3.5,5.8c-2.3,3-4.8,5.8-7.5,8.5c0,0-2.9-4.1-6.6-8.8c-1.5-1.9-3.2-4-4.8-5.9
			L152.3,131.1z"/>
		<path class="st22" d="M152.3,131.1c-0.9,2.1-2.1,4-3.5,5.8c-1.8,0.5-3.6,0.8-5.5,0.9c-2.9,0.1-5.8-0.3-8.6-1.2
			c-1.5-1.9-3.2-4-4.8-5.9L152.3,131.1z"/>
		<path class="st23" d="M168.6,215c-2.7-1.5-8.2-3.1-8.2-3.1l-21.2-5.5l-3.3,11c-1.4,4.5,1.4,9.3,6.1,10.7l20.9,5.9
			c5.9,1.8,9.8-2.4,11.1-6.6C175.3,223.2,173,217.5,168.6,215z"/>
		<g>
			<g>
				<path class="st24" d="M70.8,89.1c7.9-7.7,36.3-12.1,49.5-4.4l-7.4,10.9c-11.7,0-30.7,3.2-37.3,3.7C69,99.9,64.7,95,70.8,89.1z"
					/>
				<path class="st25" d="M80.5,89.2c5-2.1,19-5.9,33.3-3.1l-4.6,6c-8.3-0.1-24.8,2.1-28.8,2.3S75.8,91.3,80.5,89.2z"/>
				<path class="st24" d="M82.5,65.1c10.2-4.3,38.2,2.3,47.6,14.4l-11,7.3c-10.8-4.4-29.6-8.5-35.9-10.5
					C77,74.3,74.8,68.3,82.5,65.1z"/>
				<path class="st25" d="M91.6,68.8c5.4-0.1,19.8,1.6,32.1,9.5l-6.5,3.9c-7.7-3.1-23.8-7.3-27.6-8.5C85.8,72.5,86.4,68.9,91.6,68.8
					z"/>
			</g>
			<g>
				<path class="st24" d="M163.3,77.5l-40.1-1.8c-7.8-0.3-14.4,6.2-14.7,14.5c-0.3,8.3,5.7,15.4,13.5,15.5l40.3,1
					c7.3,0.2,13.5-6.2,13.7-14.2S170.6,77.9,163.3,77.5z"/>
				<path class="st24" d="M164,101.6l-45.9-1.3c-8.2-0.2-15.3,6.8-15.6,15.7c-0.3,8.9,6,16.1,14.3,16.2l46.2,0.4
					c7.7,0.1,14.2-6.8,14.4-15.3C177.6,108.7,171.7,101.8,164,101.6z"/>
			</g>
			<ellipse transform="matrix(0.7157 -0.6984 0.6984 0.7157 -30.1413 127.5418)" cx="141.6" cy="100.8" rx="1.9" ry="3.5"/>
			<ellipse transform="matrix(0.7157 -0.6984 0.6984 0.7157 -25.8466 139.7357)" cx="158.7" cy="101.6" rx="3.5" ry="1.9"/>
			<path d="M152.1,110c-0.2,1.6-0.8,3.2-1.7,4.6c-1.2,1.9-2.8,3.1-4.3,2.8s-3.4-3.5-3.5-6.4c-0.1-1.1,0.1-2.2,0.4-3.2L152.1,110z"/>
			<path class="st22" d="M150.4,114.6c-1.2,1.9-2.8,3.1-4.3,2.8c-1.5-0.3-3.4-3.5-3.5-6.4C146.2,111.2,149.2,112.6,150.4,114.6z"/>
		</g>
		<path class="st26" d="M155.4,181.6c-0.6,1.6-13.1,34.7-13.1,34.7l-21.9-2.4l7.1-23.8h-0.1l-2.5-0.2l-9.8-0.5
			c-6.9-0.4-12.1-6.3-11.7-13.2c0-0.6,0.1-1.1,0.2-1.7l2.5-12l40.8,3.2C153.3,166.9,158.2,173.5,155.4,181.6z"/>
		<path d="M129.8,183.3l-2.3,6.8l-2.5-0.2l2.5-7.3c0.2-0.6,0.9-1,1.5-0.8C129.7,182,130,182.7,129.8,183.3L129.8,183.3L129.8,183.3z
			"/>
		<g>
			<path class="st24" d="M124.4,140.2c-2.1-0.9-6.1-0.6-6.1-0.6l-0.2,4.6c2.1-0.2,8.5-0.2,8.5-0.2S126.8,141.3,124.4,140.2z"/>
			<path class="st24" d="M126.8,143.6c-5.6-0.2-11.4-0.6-17.2-0.3l-2,19.7c6-1.5,12-2.7,17.9-4.3c2.4-0.6,4.3-4.1,5.2-7.3
				C131.7,148.3,131.4,143.8,126.8,143.6z"/>
		</g>
		<g>
			<path class="st27" d="M109.8,117c-7,1.2-13.9-3.1-15.7-10l-1.3-4.5l-43.7,9.7l0.7,4.7c1.2,7-3.1,13.9-10,15.7l-4.5,1.3l5.1,22.9
				c7.3,32.5,47.2,43.2,48.9,43.7l2.4,0.6l2-1.6c5.9-5.1,11.1-11,15.5-17.5c9.7-14.3,13.3-29.2,10.3-42.7l-5.1-22.9L109.8,117z"/>
			<path class="st9" d="M119.5,139.2l-5.1-22.9l-4.7,0.7c-7,1.2-13.9-3.1-15.7-10l-1.3-4.5L49,112.2l0.7,4.7c1.2,7-3.1,13.9-10,15.7
				l-4.5,1.3l5.1,22.9c7.3,32.5,47.2,43.2,48.9,43.7l2.4,0.6l2-1.6c5.9-5.1,11.1-11,15.5-17.5C118.9,167.5,122.5,152.7,119.5,139.2z
				 M91.3,196.5l-0.5,0.3l0,0l-0.6-0.2c-0.4-0.2-39.5-10.6-46.2-40.8l-4.4-19.3l1.1-0.3c8.7-2.4,14.2-11,12.6-19.9l-0.2-1.2
				l36.7-8.1l0.3,1.1c2.4,8.7,11.1,14.2,20,12.6l1.1-0.2l4.3,19.4C122.6,170.3,91.6,196.2,91.3,196.5L91.3,196.5z"/>
			<path class="st28" d="M87.9,141.4c-1.9-0.4-3.8-0.6-5.7-0.5c-0.2,0.5-0.2,1-0.4,1.5l-2.8,0.4c-1,0.2-2.1,0.6-3.1,1
				c-0.3-0.5-0.7-0.9-1-1.3c-1.8,0.7-3.5,1.7-5,2.8c-2.1,5-2.3,10.5-0.6,15.6c2.3,1,4.8,1.6,7.3,1.8c0.3-0.8,0.6-1.7,0.9-2.6
				c-0.8-0.1-1.6-0.3-2.4-0.6l0.4-0.5c4.6,0.9,9.4-0.1,13.1-2.9l0.6,0.2c-0.6,0.6-1.3,1.1-2,1.5c0.6,0.7,1.2,1.4,1.9,2
				c2.2-1.3,4.1-2.9,5.8-4.8C94.4,149.9,91.9,144.9,87.9,141.4z M77.2,156c-1.4,0.2-2.7-0.7-2.9-2c-0.4-1.4,0.4-2.8,1.8-3.1
				c1.5-0.1,2.8,0.9,2.9,2.4C79.1,154.5,78.4,155.6,77.2,156z M85.8,154.1c-1.3,0.3-2.6-0.5-2.9-1.9c0-0.1,0-0.1,0-0.2
				c-0.4-1.4,0.4-2.8,1.8-3.1c1.4-0.2,2.7,0.7,2.9,2c0,0,0,0,0,0.1c0.4,1.3-0.3,2.6-1.6,3C85.9,154.1,85.9,154.1,85.8,154.1z"/>
		</g>
		<path class="st29" d="M151.3,217.7c-2.7-1.5-8.3-3.1-8.3-3.1l-21.2-5.4l-3.3,11c-1.2,4.6,1.5,9.4,6.2,10.6l0,0l20.9,6
			c5.9,1.8,9.8-2.4,11.1-6.6C158.1,225.9,155.8,220.1,151.3,217.7z"/>
	</g>
	<g class="st1">
		<path class="st26" d="M214.4,111.5c-3.2,2.6-10.2-0.5-15.4-4.1c-1.9-1.3-3.6-2.9-5.2-4.6c-3.6-4.7-1.1-9.2,3.5-12.9
			c4.6-3.7,9.7-5,13.3-0.4c1.3,1.8,2.4,3.7,3.2,5.8C216.3,101.2,217.7,109,214.4,111.5z"/>
		<path d="M214.4,111.5c-3.2,2.6-10.2-0.5-15.4-4.1c3.4-6,8.2-10.7,14.8-12.1C216.3,101.2,217.7,109,214.4,111.5z"/>
		<path class="st3" d="M237.9,126.3c4.1-8.5,16.6-21.2,17-16.9c0.7,7.4-2.2,21.1-11.9,29.3L237.9,126.3z"/>
		<path class="st2" d="M200.6,123.9c-4.3-8.5-16.9-21-17.2-16.8c-0.6,7.5,2.5,21.1,12.3,29.2L200.6,123.9z"/>
		<path class="st30" d="M191.7,128.8c-0.6,0.9-1.3,1.8-2,2.6l-1,1.2c-0.4,0.4-0.6,0.9-1.5,0.9c-1-0.1-1.8-0.9-1.9-1.9
			c0-0.8,0.5-1,0.8-1.5l1.2-1.1c0.8-0.7,1.6-1.4,2.5-2.1c0.6-0.4,1.4-0.3,1.9,0.3C191.9,127.7,191.9,128.3,191.7,128.8z"/>
		<path class="st2" d="M250.8,152.4c-0.6,9.4-11.4,20.5-28.2,20.5c-15,0-33.4-7.7-33-27.1c0.2-6.7,4.7-18.3,7.1-25
			c0.4-1.1,0.8-2.1,1-2.9c2.1-6.8,5.7-13.2,11-17.1l0.7-0.4c3.8-2.6,8.5-3.7,13.1-3.1c8.2,1,12.9,4.6,15.6,8.9
			c2.7,4.4,3.8,11.4,4.1,15.7c0.3,4.4,1.1,8.2,3.4,12.2C247.8,138.2,251.2,145,250.8,152.4z"/>
		<path class="st26" d="M238,106.4c-2.7-4.4-7.4-7.9-15.6-8.9c-4.6-0.6-9.2,0.5-13.1,3.1l-0.7,0.4c-5.2,3.9-8.9,10.3-11,17.1
			c-0.3,0.8-0.6,1.8-1,2.9c5.7,1.7,12.2-1.5,14.6-7.5c1.3-3.1,1.3-6.7,0-9.8c4.1,3.2,10.9,5.3,17.1,5.3
			C232.5,108.9,235.7,107.9,238,106.4z"/>
		<path class="st30" d="M247,130.6c0.6,0.9,1.3,1.8,2,2.6l1,1.2c0.4,0.4,0.6,0.9,1.5,0.9c1-0.1,1.8-0.9,1.9-1.9
			c0-0.8-0.5-1.1-0.8-1.5l-1.2-1.1l-2.5-2c-0.6-0.4-1.5-0.2-1.9,0.3C246.8,129.6,246.8,130.2,247,130.6z"/>
	</g>
	<path class="st31" d="M190,77.1c-1.6-1.1-2.7-2.8-3-4.7l-0.5-3.2c0-0.2-0.1-0.3-0.3-0.3l0,0c-0.2,0-0.3,0.1-0.3,0.3l-0.5,3.2
		c-0.3,1.9-1.4,3.6-3,4.7l-0.5,0.2c-0.1,0.1-0.2,0.2-0.2,0.3l0,0c0,0.1,0.1,0.2,0.2,0.2l0.5,0.3c1.6,1.1,2.7,2.8,3,4.7l0.5,3.2
		c0,0.2,0.1,0.3,0.3,0.3l0,0c0.2,0,0.3-0.1,0.3-0.3l0.5-3.2c0.3-1.9,1.4-3.6,3-4.7l0.5-0.3c0.1,0,0.2-0.2,0.2-0.2l0,0
		c0-0.1-0.1-0.2-0.2-0.3L190,77.1z"/>
	<path class="st32" d="M54.7,82.9c-1.6-1.1-2.7-2.8-3-4.7L51.2,75c0-0.2-0.1-0.3-0.3-0.3l0,0c-0.2,0-0.3,0.1-0.3,0.3l-0.5,3.2
		c-0.3,1.9-1.4,3.6-3,4.7l-0.5,0.2c-0.1,0.1-0.2,0.2-0.2,0.3l0,0c0,0.1,0.1,0.2,0.2,0.2l0.5,0.3c1.6,1.1,2.7,2.8,3,4.7l0.5,3.2
		c0,0.2,0.2,0.2,0.3,0.2l0,0c0.2,0,0.3-0.1,0.3-0.2l0.5-3.2c0.3-1.9,1.4-3.6,3-4.7l0.5-0.3c0.1,0,0.2-0.2,0.2-0.2l0,0
		c0-0.1-0.1-0.2-0.2-0.3L54.7,82.9z"/>
	<path class="st33" d="M261.1,75.9c-2.4-1.5-4-4-4.4-6.8l-0.7-4.8c0-0.2-0.2-0.4-0.5-0.4l0,0c-0.2,0-0.4,0.2-0.5,0.4l-0.7,4.8
		c-0.4,2.8-2,5.3-4.4,6.8l-0.6,0.4c-0.2,0.1-0.3,0.2-0.2,0.4l0,0c0,0.2,0.1,0.3,0.2,0.4l0.6,0.4c2.4,1.6,4,4.1,4.4,6.9l0.7,4.8
		c0,0.2,0.2,0.4,0.5,0.4l0,0c0.2,0,0.4-0.2,0.5-0.4l0.7-4.8c0.4-2.8,2-5.4,4.4-6.9l0.6-0.4c0.2-0.1,0.3-0.2,0.2-0.4l0,0
		c0-0.2-0.1-0.3-0.2-0.4L261.1,75.9z"/>
	<path class="st34" d="M58,223.4c-2.4-1.6-4-4-4.4-6.8l-0.7-4.8c0-0.2-0.2-0.4-0.5-0.4l0,0c-0.2,0-0.4,0.2-0.5,0.4l-0.6,4.8
		c-0.5,2.8-2.1,5.3-4.5,6.8l-0.6,0.4c-0.2,0.1-0.3,0.2-0.2,0.4l0,0c0,0.2,0.1,0.3,0.2,0.4l0.6,0.4c2.4,1.6,4,4.1,4.5,6.9l0.6,4.8
		c0,0.2,0.2,0.4,0.5,0.4l0,0c0.2,0,0.4-0.2,0.5-0.4l0.7-4.8c0.5-2.8,2.1-5.3,4.4-6.9l0.6-0.4c0.2-0.1,0.3-0.2,0.2-0.4l0,0
		c0-0.2-0.1-0.3-0.2-0.4L58,223.4z"/>
	<path class="st35" d="M356.8,218.6c-1.6-1.1-2.7-2.8-3-4.7l-0.5-3.2c0-0.2-0.1-0.3-0.3-0.3l0,0c-0.2,0-0.3,0.1-0.3,0.3l-0.5,3.2
		c-0.3,1.9-1.4,3.6-3.1,4.7l-0.4,0.2c-0.1,0.1-0.2,0.2-0.2,0.3l0,0c0,0.1,0.1,0.2,0.2,0.2l0.4,0.3c1.7,1,2.8,2.7,3.1,4.7l0.5,3.2
		c0,0.2,0.2,0.2,0.3,0.2l0,0c0.2,0,0.3-0.1,0.3-0.2l0.5-3.2c0.3-1.9,1.4-3.6,3-4.7l0.5-0.3c0.1,0,0.1-0.2,0.1-0.2l0,0
		c0-0.2,0-0.2-0.1-0.3L356.8,218.6z"/>
	<g class="st1">
		<ellipse class="st28" cx="225.7" cy="128.2" rx="5.7" ry="8"/>
		<ellipse cx="227.4" cy="127.7" rx="2.9" ry="4"/>
		<path d="M238.8,151.8c-0.8,1.6-1.8,3.1-3.1,4.4c-1.4,1.4-3,2.6-4.8,3.5l-1.5,0.6c-2,0.7-4.1,1.1-6.2,1c-2.1-0.1-4.2-0.6-6.1-1.4
			c-1.9-0.8-3.7-1.9-5.3-3.2c-2-1.7-3.5-3.8-4.5-6.2c-0.4-1-0.6-2.1-0.8-3.1c-0.5-2.7,0.2-5.6,2.5-6.8s2.9-0.9,5-0.3
			c4.2,1.2,7.7,4.3,11.9,4.3c2.9,0,5-1.7,8.2-1.6l2.3,0.2C238.9,143.9,241.1,147,238.8,151.8z"/>
		<path class="st28" d="M235.7,156.2c-1.4,1.4-3,2.6-4.8,3.5l-1.5,0.6c0-0.1,0-0.2,0.1-0.3l0.5-1.5l1.7-4.5c0.6-2.2,2-2.7,3.1-0.3
			C235.2,154.5,235.5,155.3,235.7,156.2z"/>
		<path class="st22" d="M230.9,159.6l-1.5,0.6c-2,0.7-4.1,1.1-6.2,1c-2.1-0.1-4.2-0.6-6.1-1.4c-1.9-0.8-3.7-1.9-5.3-3.2
			c-2-1.7-3.5-3.8-4.5-6.2c1.3-0.2,2.6-0.3,3.9-0.3c7.5,0,14.8,3.4,18.8,8.3C230.4,158.9,230.7,159.2,230.9,159.6z"/>
		<path class="st28" d="M217.2,160c-1.9-0.8-3.7-1.9-5.3-3.2l1-2.7c0.6-2.2,2.1-2.7,3.1-0.3C216.8,155.7,217.2,157.8,217.2,160z"/>
		<path class="st28" d="M234.2,143c-1.2,4.4-5.9,5.3-11.4,5c-5.6-0.3-12.2-2.7-13.7-7.3c1.2-0.7,2.9-0.9,5-0.3
			c4.2,1.2,7.7,4.3,11.9,4.3C228.8,144.6,230.9,142.9,234.2,143z"/>
		<path class="st26" d="M233.5,116.1c0,2.7-3.5,5.5-7.8,5.5s-7.9-2.9-7.9-5.6s3.5-1.9,7.9-1.9S233.5,113.3,233.5,116.1z"/>
	</g>
</g>
<g>
	<g>
		<path class="st28" d="M205.6,134.7c2.7,3.5,9.9,4.6,9.9,4.6l55.9,7.6l11-32.8l-66-8.3l-3.2,3.2l-4.6,8.2
			C206.3,124,204.1,132.6,205.6,134.7z"/>
		
			<linearGradient id="SVGID_00000014615967252982880830000004800276110373970069_" gradientUnits="userSpaceOnUse" x1="67.6904" y1="117.6118" x2="67.6904" y2="147.637" gradientTransform="matrix(-1 0 0 -1 300.8 251.2756)">
			<stop  offset="0.2" style="stop-color:#F5CEB7"/>
			<stop  offset="0.37" style="stop-color:#F3C7B5"/>
			<stop  offset="0.6" style="stop-color:#F2B7AD"/>
			<stop  offset="0.85" style="stop-color:#F09B9F"/>
			<stop  offset="1" style="stop-color:#ED8796"/>
		</linearGradient>
		<path style="fill:url(#SVGID_00000014615967252982880830000004800276110373970069_);" d="M258.1,121.6c-3.5,3-8.1,4.3-12.7,3.8
			c-4.7-0.6-6.5-6.7-11.9-7.6c-5.4-0.8-16.1,12.9-22.6,15.1c-6.4,2.3-16.8-0.7-12-16.3c4.8-15.6,14.2-12.9,14.2-12.9l53.5,6.6
			c0.6,0.1,1.2,0.4,1.5,0.9c0.7,1,0.4,2.3-0.6,3C264.2,116.5,261.1,119,258.1,121.6z"/>
		<path class="st37" d="M288.5,134.4c3-9.1,0.3-18.1-6.2-20.3s-14.1,3.5-17.2,12.5c-3,9.1-0.3,18.1,6.2,20.3
			C277.8,149,285.5,143.4,288.5,134.4z"/>
		<path class="st38" d="M283,132.5c1.6-4.8,0.8-9.5-1.9-10.4c-2.7-0.9-6.1,2.3-7.8,7.2c-1.6,4.8-0.8,9.5,1.9,10.4
			C277.9,140.6,281.4,137.3,283,132.5z"/>
		<path class="st39" d="M220.9,180.5C220.9,180.5,220.9,180.5,220.9,180.5c-1.4-0.6-2.1-2.2-1.5-3.6l6.4-15.1
			c2-4.5,6.8-7.1,11.6-6.2l18.9,3.6c3.3,0.6,6.6-1,8-4l11.5-23.7c0.7-1.4,2.4-2,3.8-1.3c1.4,0.7,2,2.4,1.3,3.8l-11.5,23.7
			c-2.6,5.2-8.4,8.1-14.1,7l-18.9-3.6c-2.2-0.4-4.5,0.8-5.4,2.8l-6.4,15.1c-0.4,1-1.4,1.7-2.5,1.7
			C221.7,180.8,221.3,180.7,220.9,180.5z"/>
		
			<linearGradient id="SVGID_00000074433971818820590770000011547014553596246960_" gradientUnits="userSpaceOnUse" x1="89.4102" y1="75.2219" x2="76.9356" y2="53.5335" gradientTransform="matrix(-1 0 0 -1 300.8 251.2756)">
			<stop  offset="0.2" style="stop-color:#AA85FE"/>
			<stop  offset="0.73" style="stop-color:#9469FF"/>
			<stop  offset="1" style="stop-color:#8859FF"/>
		</linearGradient>
		<path style="fill:url(#SVGID_00000074433971818820590770000011547014553596246960_);" d="M206.3,196.4l1.3,3.3
			c0.7,1.8,2.6,2.9,4.5,2.5l4.6-0.9c1.2-0.2,2.2-1,2.8-2l9.9-18.4c0-0.1,0.1-0.2,0.1-0.3c0.9-2,0-4.4-2.1-5.3
			c-2.9-1.2-5.9-2.1-9-2.5c-1.8-0.2-3.6,0.8-4.3,2.5l-7.8,18.2C206,194.5,206,195.5,206.3,196.4z"/>
		<path class="st41" d="M137.6,286.9l-9.1-78.7c0,0-74,1.5-89.7,20.5c-12.8,15.4-12.9,44.2-12.5,54.4c0.1,2.1,1.9,3.8,4,3.8
			L137.6,286.9z"/>
		<path class="st42" d="M33.8,236.3c1.5,0.2,3.1,0.2,4.8,0.2c16.6-0.5,33-3.7,48.5-9.6c5-2.1,19.4-8,21.7-8.6c0.2,0,0.3-0.1,0.5-0.1
			c2-0.7,3.1-2.8,2.4-4.8c-0.7-2-2.8-3.1-4.8-2.4c-3.6,0.9-22.6,9-22.8,9c-14.6,5.5-30,8.6-45.6,9C36.7,231.2,35.1,233.7,33.8,236.3
			z"/>
		<path d="M141.3,232.4c0-16.5-10.9-29.9-24.4-29.9s-24.4,13.4-24.4,29.9s10.9,29.9,24.4,29.9S141.3,248.9,141.3,232.4z"/>
		<path class="st41" d="M24.4,214.2c0,24.6,39.6,15.9,61.2,6.7c21.6-9.2,36.8-1.7,46.8-10.5c9.9-8.8,0-14.3,0-14.3l-83.3-2.3
			C49.1,193.9,24.4,189.7,24.4,214.2z"/>
		
			<linearGradient id="SVGID_00000065070873116478950530000012468486181005041813_" gradientUnits="userSpaceOnUse" x1="292.1711" y1="165.0722" x2="217.4108" y2="165.0722" gradientTransform="matrix(-1 0 0 -1 300.8 251.2756)">
			<stop  offset="0.2" style="stop-color:#FFFEFB"/>
			<stop  offset="0.43" style="stop-color:#FEFCF7"/>
			<stop  offset="0.58" style="stop-color:#FAF7ED"/>
			<stop  offset="0.71" style="stop-color:#F3EDDB"/>
			<stop  offset="0.82" style="stop-color:#E9DEC1"/>
			<stop  offset="0.92" style="stop-color:#DDCCA0"/>
			<stop  offset="1" style="stop-color:#D1BB80"/>
		</linearGradient>
		<path style="fill:url(#SVGID_00000065070873116478950530000012468486181005041813_);" d="M78,106.4c8.3-0.4,9.9-1.3-15.9-19.9
			S8.3,59.8,8.6,70.9C9,82.1,64.1,106,64.1,106C68.7,106.5,73.4,106.7,78,106.4z"/>
		
			<linearGradient id="SVGID_00000132072379549516161230000006757361572713582527_" gradientUnits="userSpaceOnUse" x1="159.3243" y1="134.9169" x2="255.2684" y2="54.0119" gradientTransform="matrix(-1 0 0 -1 300.8 251.2756)">
			<stop  offset="0.2" style="stop-color:#FFFEFB"/>
			<stop  offset="0.45" style="stop-color:#F9F7F3"/>
			<stop  offset="0.79" style="stop-color:#E9E6DC"/>
			<stop  offset="1" style="stop-color:#DBD6C8"/>
		</linearGradient>
		<path style="fill:url(#SVGID_00000132072379549516161230000006757361572713582527_);" d="M132.1,109.7c-6-3.2-12.6-5-19.4-5.4
			c-33.1-1.9-66.7-2.4-74.3,21.6c-1.1,2.7-1.6,5.5-1.7,8.4c-0.3,6.4,2.5,12.6,7.6,16.5c-8.2,5.3-12.8,14.6-11.9,24.3
			c1.5,18.1,16.4,21.1,50.9,23.2c34.5,2.1,75.4,5.3,76.2-25.6c0.5-8.2-2.8-16.3-9.1-21.7c-2.6-2.2-1.6-3.9-1.6-3.9
			C153.7,126.2,142.5,115.2,132.1,109.7z"/>
		<path d="M133.2,139c2.8,4,2.9,8.1,1.5,9c-1.4,0.9-4.8-1.2-7.6-4.6c-4-5-2.9-7.6-1.5-8.5C127,134,130.6,135.4,133.2,139z"/>
		<path class="st45" d="M150.9,172.8c0-4.3-2.4-7.7-5.4-7.7c-3,0-5.4,3.5-5.4,7.7c0,4.3,2.4,7.7,5.4,7.7
			C148.5,180.5,150.9,177,150.9,172.8z"/>
		<path class="st45" d="M150.5,175.7c-2.9-2.5-6.6-3.9-10.5-3.9c0,0.3,0,0.7,0,1c0,4.3,2.5,7.7,5.4,7.7
			C148,180.2,150.1,178.2,150.5,175.7z"/>
		<path d="M140.1,171.8c3.8,0,7.6,1.4,10.5,3.9c0.3-0.9,0.4-1.9,0.4-2.9c0-4.3-2.4-7.7-5.4-7.7C142.7,165.1,140.4,168,140.1,171.8z"
			/>
		<path class="st46" d="M78,104.1l18,0.6c0,0-24.3-49.3-50.4-53.6C19.5,46.8,59.2,87.8,78,104.1z"/>
		<path class="st47" d="M95.4,103.7C80.3,74.2,63.6,60.6,63.6,60.6c-6.4,8.7,28.7,42.9,28.7,42.9"/>
		<path class="st46" d="M95.2,229.2c1.8,26.3,61.9,41.6,76,37.8c14.1-3.7,56.7-43.9,60.2-48.9c3.6-5,0.3-13.8,0.8-22.7
			c0.5-8.9-5.5-9.4-5.5-9.4s-10.9,16.7-15.8,15.5c-4.9-1.2-2.6-8-6-7.8c-3.4,0.2-8.1,3.6-10.1,14.9c-2.1,11.3-10.9,12.8-20.3,17.3
			c-4.6,2.5-10.2,2.3-14.7-0.5l-21.8-12.2C126.3,206.7,93.5,202.9,95.2,229.2z"/>
	</g>
</g>
</svg>
