<?xml version="1.0" encoding="utf-8"?>
<!-- Generator: Adobe Illustrator 28.4.1, SVG Export Plug-In . SVG Version: 6.00 Build 0)  -->
<svg version="1.1" id="Layer_2_00000124863569196042102610000004875073211404526762_"
	 xmlns="http://www.w3.org/2000/svg" xmlns:xlink="http://www.w3.org/1999/xlink" x="0px" y="0px" viewBox="0 0 600 1000"
	 style="enable-background:new 0 0 600 1000;" xml:space="preserve">
<style type="text/css">
	.st0{display:none;fill:#FFFFFF;stroke:#000000;stroke-miterlimit:10;}
	.st1{fill:#EDC466;}
	.st2{fill:#ECAD50;}
	.st3{fill:#EDBF55;}
	.st4{fill:#EFE7CD;}
	.st5{fill:#EAA140;}
	.st6{fill:#F2F0EB;}
	.st7{fill:#F0E3BA;}
	.st8{fill:#E39E46;}
	.st9{fill:#F2D085;}
</style>
<path class="st0" d="M513,687H87c-14.9,0-27-12.1-27-27V85.6c0-14.9,12.1-27,27-27h426c14.9,0,27,12.1,27,27V660
	C540,674.9,527.9,687,513,687z"/>
<g>
	<path class="st1" d="M588.8,276c-4.3-17.8-13-31.6-24.2-41c-21.2-17.6-51.8-19.6-81.3-2.8c1-5,2.2-9.9,3.4-14.9
		c0.1-0.5-0.1-1-0.4-1.1c3.2-11.1,7.4-22,12.8-32.4c-177.8-51.9-372.2-7.6-397.8,0c4,7.8,7.2,15.7,10.1,23.8c-0.5,0.1-1,0.5-0.8,1.2
		c2.2,7.6,3.9,15.2,5.3,22.9C85.7,215,54.6,217.9,33.6,237c-10.3,9.3-18.1,22.5-22.2,39.1c-11,45.1,0.1,95.6,30.3,130.4
		c2.8,3.2,5.7,6.4,8.9,9.3c26.3,24.8,63.7,37.3,99.5,34.2c9.1,18.6,21.4,35.1,38,46.9c0.6,0.4,1.3,0.2,1.6-0.2
		c6.7,6.2,13.8,11.8,21.4,16.9c7.7,5.2,15.8,9.6,24,13.3c-1.2,3.6-1.6,7.4-1.4,11.1c0.5,10.7,6.2,21.5,14.5,28.4
		c5.4,4.5,12,8.1,19.2,10.7c0.8,17.5,0.6,35.1-0.6,52.6c-1.6,21.5-5.1,42.8-11.5,63c-17.6,2.4-34.8,6.4-51,13.7
		c-25.7,11.6-49,29.1-66.6,51.3c-2.5,3.2-5.1,6.7-6.3,10.5c-3.7,7-8.4,20.8,0.2,35c0.8,1.2,1.5,2.4,2.5,3.6c0.8,1.2,1.6,2.3,2.7,3.2
		c2.4,2.4,5.4,4.3,8.7,5.9c3.2,1.6,6.7,2.9,9.9,4c47,14.7,96.3,21.7,145.5,21.1c49.2,0.6,98.6-6.5,145.5-21.1
		c5.8-1.8,12.2-4.5,16.9-8.4c3.8-2.5,6.4-5.7,7.9-9.4c6.3-14.7-3-35.8-3-35.8c-1.3-3.1-3.5-6.1-5.6-8.8
		c-17.4-22-40.3-39.4-65.9-50.9c-16.5-7.5-34.1-12.1-52-14.6c-10.1-32.7-13-67.9-12.3-102.9c0.1-4,0.2-8,0.3-12.1
		c7.4-2.6,13.9-6.2,19.2-10.7c8.4-7,13.9-17.9,14.5-28.7c0.2-3.7-0.2-7.4-1.4-10.9c8.2-3.7,16.3-8.1,24-13.3
		c10.3-6.9,19.9-14.9,28.5-23.9c0.3,0.3,0.9,0.3,1.4,0c13.5-9.6,23.6-23.7,31-39.6c35.7,3.1,73.2-9.4,99.5-34.2
		c5.5-5.2,10.6-10.9,15-17l0,0C590.2,364.3,598.9,317.8,588.8,276z M123.8,397.5c-3.5-0.4-7-1.2-10.4-2.2
		C97,390.5,82.8,379.5,72.2,366c-15.4-19.4-25.2-47.4-14.8-71.3c8.2-19.1,26.5-28.1,45.3-20.4c1.4,0.5,2.7,1.2,4.1,1.9
		c5.1,2.8,10.2,6.2,15,10.2c1.9,30.9,2.6,62.1,7.2,92.9c1,6.1,2.1,12.3,3.5,18.6C129.7,398.1,126.7,397.9,123.8,397.5z M130.7,367.6
		c-1.7-15-2.6-30.1-3.5-45.2c1.4,23.6,3,47.1,7.2,70C133,384.1,131.7,375.9,130.7,367.6z M527.7,366c-10.6,13.4-24.8,24.4-41.2,29.3
		c-4.3,1.3-8.9,2.2-13.5,2.5c-2.3,0.2-4.5,0.2-6.8,0.2c1.6-8.4,2.9-16.8,3.9-24.4c3.6-28.4,4.3-57.1,6.3-85.6
		c5.4-4.5,11-8.4,16.8-11.6c0.2-0.1,0.4-0.2,0.8-0.3c20-10.4,40-1.5,48.7,18.8C552.9,318.7,543,346.7,527.7,366z"/>
	<path class="st2" d="M469.4,772.1c-0.1-2.1-0.5-4.1-1.4-5.9c-1.3-3.1-3.5-6.1-5.6-8.8c-17.4-22-40.3-39.4-65.9-50.9
		c-16.5-7.5-34.1-12.1-52-14.6c2.4,7.7,5.2,15.2,8.3,22.7c2.1,4.6,4.2,9.2,6.6,13.6c3.1,5.8,0.5,13.2-5.4,15.9
		c-38.1,17.3-85.1,8.8-107.6,0.2c-6.5-2.5-9.5-10.1-6.2-16.1c2.2-4.1,4.2-8.3,6.1-12.5c3.4-7.6,6.2-15.2,8.7-23.1
		c-17.6,2.4-34.8,6.4-51,13.7c-25.7,11.6-49,29.1-66.6,51.3c-2.5,3.2-5.1,6.7-6.3,10.5c-0.4,1.4-0.6,2.8-0.8,4.2
		c-0.3,11.6,12.8,18.4,23.9,21.8c6.9,2.2,13.8,4.1,20.9,5.9c-0.3,0.5-0.2,1.3,0.5,1.5c24.7,6.6,50.8,10.2,76.3,12
		c0.3,0,0.5-0.1,0.8-0.2c15.7,1.4,31.4,1.9,47,1.7c12,0.1,24.1-0.2,36.1-1c-0.2,0.9,0.3,1.8,1.4,1.8c41.6-1,87.4-8.8,124.7-28.2
		c0.9-0.4,0.9-1.5,0.4-2.3C466.8,781.9,469.6,777.6,469.4,772.1z"/>
	<path class="st2" d="M248,566.2c5.4,4.5,12,8.1,19.2,10.7c20,7.1,45.4,7.1,65.5,0c7.4-2.6,13.9-6.2,19.2-10.7
		c8.4-7,13.9-18,14.5-28.7c0.2-3.7-0.2-7.4-1.4-10.9c-41.6,18.6-88.8,18.5-130.2,0c-1.2,3.6-1.6,7.4-1.4,11.1
		C234,548.5,239.6,559.3,248,566.2z"/>
	<path class="st3" d="M149.9,449.8c9.1,18.6,21.4,35.1,38,46.9c0.6,0.4,1.3,0.2,1.6-0.2c0.4-0.5,0.5-1.3,0-1.8
		c-17.3-16.7-31.3-34.2-40.9-56.3c-6.4-14.7-10.9-30.2-14.1-46c-1.6-8.2-2.9-16.4-3.9-24.8c-1.7-15-2.6-30.1-3.5-45.2
		c-2.1-38.6-3.2-77.2-15-114.3c-0.2-0.6-0.8-0.8-1.2-0.6c-0.5,0.1-1,0.5-0.8,1.2c2.2,7.6,3.9,15.2,5.3,22.9
		c-30.2-16.7-61.3-13.8-82.3,5.3c6.6-3.8,13.7-6.5,21.2-7.6c15.4-2.3,32.4,3.2,41,16.1c4.5,6.7,6.4,14.9,7,23
		c0.1,2.1,0.2,4.1,0.2,6.2c1.4,0.5,2.7,1.2,4.1,1.9c5.1,2.8,10.2,6.2,15,10.2c1.9,30.9,2.6,62.1,7.2,92.9c1,6.1,2.1,12.3,3.5,18.6
		c-2.9,0-5.8-0.1-8.8-0.5c-2.4,6.3-7,11.8-12.8,15.2c-9.8,6.1-22.2,7.1-33.6,5.7c-12.7-1.5-25-5.7-35.9-12.2
		c2.8,3.2,5.7,6.4,8.9,9.3C76.7,440.4,114.1,453,149.9,449.8z"/>
	<path class="st3" d="M521.5,420.7c-11.1,2.3-23.1,2.2-33.2-3.1c-7.6-4-13.6-11.5-15.4-19.7c-2.3,0.2-4.5,0.2-6.8,0.2
		c1.6-8.4,2.9-16.8,3.9-24.4c3.6-28.4,4.3-57.1,6.3-85.6c5.4-4.5,11-8.4,16.8-11.6c0.2-0.1,0.4-0.2,0.8-0.3
		c5.9-13,15.6-24.1,27.8-31.5c12.9-7.7,28.1-10.9,43-9.6c-21.2-17.6-51.8-19.6-81.3-2.8c1-5,2.2-9.9,3.4-14.9c0.1-0.5-0.1-1-0.4-1.1
		c-0.5-0.3-1.3-0.2-1.5,0.5c-12.3,45.7-12.3,92.2-16,139.2c-1.9,24.2-5.9,48.3-13.9,71.3c-8.3,23.9-20.7,41.6-37.3,60.2
		c-0.5,0.6-0.3,1.6,0.2,2.2c0.3,0.3,0.9,0.3,1.4,0c13.5-9.6,23.6-23.7,31-39.6c35.7,3.1,73.2-9.4,99.5-34.2c5.5-5.2,10.6-10.9,15-17
		C552.1,409.3,537.5,417.3,521.5,420.7z"/>
	<path class="st3" d="M332.4,589c0.1-4,0.2-8,0.3-12.1c-20.1,7.1-45.4,7.1-65.5,0c0.8,17.5,0.6,35.1-0.6,52.6
		C285.7,612.4,308.4,598.9,332.4,589z"/>
	<path class="st3" d="M222.5,358.6c-3.6,16.5-4.8,33.6-3.6,50.5c1.1,14.6,7.9,27.5,24.4,25.4c18.4-2.3,35.6-9.3,52.3-17.4
		c14.6,8.5,30.5,14.9,46.9,18.9c6.9,1.7,13.8,1.9,19.6-0.1c6.1-2.2,10.6-6.9,12.2-15.4c3.5-18.2,2.1-36.8-0.4-55.1
		c7-6.3,13.5-13.1,19.4-20.3c4.8-5.8,9.2-12,13.1-18.5c7.7-12.5,9.7-26.9-4.9-34.9c-6.1-3.4-12.4-6.1-18.9-8.3
		c-10.8-3.8-22.2-6.3-33.6-8.3c-6.8-15.5-15.9-30-26.8-42.9c-9.5-11.1-22.5-17.6-34.7-6.3c-13.5,12.7-23.2,28.4-32.1,44.9
		c-16.9,1.7-33.4,5.8-49.1,12.2c-1,0.4-2.1,0.9-3,1.3c-12,5.8-20.2,15.8-13.6,29.7C197.6,331,209.7,345.2,222.5,358.6z"/>
	<path class="st3" d="M131.4,803c0.8,1.2,1.5,2.4,2.5,3.6c0.8,1.2,1.6,2.3,2.7,3.2c2.4,2.4,5.4,4.3,8.7,5.9c3.2,1.6,6.7,2.9,9.9,4
		c47,14.7,96.3,21.7,145.5,21.1c49.2,0.6,98.6-6.5,145.5-21.1c5.8-1.8,12.2-4.5,16.9-8.4c3.8-2.5,6.4-5.7,7.9-9.4
		c-50.3,20-104.7,29.8-158.8,30.4C250.9,833.1,189.8,822.1,131.4,803z"/>
	<path class="st4" d="M393.3,296.7c-5.6-3.1-11.4-5.6-17.4-7.7c-9.9-3.5-20.3-5.7-30.8-7.6c-6.3-14.2-14.6-27.5-24.7-39.4
		c-8.8-10.3-20.7-16.1-31.9-5.7c-12.4,11.6-21.4,26.2-29.4,41.1c-15.5,1.5-30.7,5.3-45.1,11.2c-1,0.4-1.8,0.8-2.8,1.2
		c-11,5.4-18.5,14.5-12.5,27.4c7.1,15.4,18.3,28.4,30.1,40.7c-3.4,15.1-4.4,30.8-3.2,46.3c1,13.4,7.2,25.2,22.4,23.4
		c16.9-2.1,32.7-8.5,48-16c13.4,7.8,28,13.7,43,17.4c6.4,1.5,12.8,1.8,17.9,0c5.5-1.9,9.7-6.4,11.2-14.1c3.2-16.7,1.9-33.7-0.3-50.6
		c6.4-5.7,12.3-12,17.8-18.6c4.3-5.4,8.4-11,12-17C404.7,317.4,406.7,304.2,393.3,296.7z"/>
	<path class="st5" d="M225.1,735.7c0,16,34.1,29,76,29c42,0,76-13,76-29c0-8.3-9.3-15.9-24.1-21.2c2.1,4.6,4.2,9.2,6.6,13.6
		c3.1,5.8,0.5,13.2-5.4,15.9c-38.1,17.3-85.1,8.8-107.6,0.2c-6.5-2.5-9.5-10.1-6.2-16.1c2.2-4.1,4.2-8.3,6.1-12.5
		C233.2,720.8,225.1,728,225.1,735.7z"/>
	<path class="st5" d="M234.9,526.6c-1.2,3.6-1.6,7.4-1.4,11.1c21.6,12.2,46.6,18.4,71.5,17.4c21.5-0.9,42.8-7,61.6-17.6
		c0.2-3.7-0.2-7.4-1.4-10.9C323.5,545.2,276.3,545.2,234.9,526.6z"/>
	<path class="st6" d="M276.3,290.4c5.5,0,9.9-4.4,9.9-9.9c0-0.1,0-0.2,0-0.3c2.1,0.9,4.3,1.4,6.6,1.3c12.1-0.4,22.6-13.3,21.7-25.2
		c-0.8-10.9-10.7-15.8-20.5-12.5c-3.1,1-5.9,2.8-8.3,5.2c-5.6,5.6-8.8,14.3-6.9,21.8c-0.8-0.2-1.6-0.3-2.5-0.3
		c-5.5,0-9.9,4.4-9.9,9.9C266.3,285.8,270.8,290.4,276.3,290.4z"/>
	<path class="st6" d="M340.4,417.8c2.4,0,4.4-1,5.9-2.6c1.8,1.7,4.3,2.5,7.1,1.1c7.9-3.9,11.1-14.3,11.5-22.4
		c0.3-7.1-3.1-23.7-13.8-20c-8.9,3-10.4,17.3-9.5,27.6c-0.3,0-0.8-0.1-1.2-0.1c-4.5,0-8.2,3.7-8.2,8.2
		C332.3,414.3,336,417.8,340.4,417.8z"/>
	<path class="st7" d="M357.1,429c-11.9-3.2-23.7-7.1-35.1-11.7c-30.3-12.1-58.8-30-79.7-55c-17.1-20.4-28.7-46-30.8-72.3
		c-11,5.4-18.5,14.5-12.5,27.4c7.1,15.4,18.3,28.4,30.1,40.7c-3.4,15.1-4.4,30.8-3.2,46.3c1,13.4,7.2,25.2,22.4,23.4
		c16.9-2.1,32.7-8.5,48-16c13.4,7.8,28,13.7,43,17.4C345.5,430.6,351.9,430.9,357.1,429z"/>
	<path class="st7" d="M397.7,328.8c7-11.5,9-24.7-4.4-32.1c-5.6-3.1-11.4-5.6-17.4-7.7c5.6,18.4,8.9,37.4,9.7,56.7
		C390,340.4,394,334.7,397.7,328.8z"/>
	<path class="st8" d="M189.5,494.6c-17.3-16.7-31.3-34.2-40.9-56.3c-6.4-14.7-10.9-30.2-14.1-46c-1.6-8.2-2.9-16.4-3.9-24.8
		c-1.7-15-2.6-30.1-3.5-45.2c-2.1-38.6-3.2-77.2-15-114.3c-0.2-0.6-0.8-0.8-1.2-0.6c-0.5,0.1-1,0.5-0.8,1.2
		c2.2,7.6,3.9,15.2,5.3,22.9c3.4,18.2,5.1,36.5,6.3,55c1.9,30.9,2.6,62.1,7.2,92.9c1,6.1,2.1,12.3,3.5,18.6
		c3.8,17.5,9.3,35.4,17.3,51.8c9.1,18.6,21.4,35.1,38,46.9c0.6,0.4,1.3,0.2,1.6-0.2C189.9,496,190,495.2,189.5,494.6z"/>
	<path class="st8" d="M484.7,216.6c-12.3,45.7-12.3,92.2-16,139.2c-1.9,24.2-5.9,48.3-13.9,71.3c-8.3,23.9-20.7,41.6-37.3,60.2
		c-0.5,0.6-0.3,1.6,0.2,2.2c0.3,0.3,0.9,0.3,1.4,0c13.5-9.6,23.6-23.7,31-39.6c7.7-16.3,12.8-34.5,16.1-51.8
		c1.6-8.4,2.9-16.8,3.9-24.4c3.6-28.4,4.3-57.1,6.3-85.6c1.3-18.7,3.2-37.4,6.9-55.8c1-5,2.2-9.9,3.4-14.9c0.1-0.5-0.1-1-0.4-1.1
		C485.6,215.7,484.9,215.8,484.7,216.6z"/>
	<path class="st8" d="M337.5,816c41.6-1,87.4-8.8,124.7-28.2c0.9-0.4,0.9-1.5,0.4-2.3c-0.3-0.5-1-0.9-1.6-0.5
		c-40.1,16.1-80.3,25-123.5,28c-0.8,0.1-1.3,0.6-1.4,1.2C336,815,336.4,816,337.5,816z"/>
	<path class="st8" d="M175.8,801.5c24.7,6.6,50.8,10.2,76.3,12c0.3,0,0.5-0.1,0.8-0.2c0.8-0.5,0.4-2.1-0.8-2.2
		c-25.5-3-50.5-7.5-75.8-11.8c-0.5-0.1-1,0.1-1.2,0.5C174.9,800.4,175,801.3,175.8,801.5z"/>
	<path class="st9" d="M434.3,432.7c2.3-8.3,3.1-18.3-1.7-25c7.6-1.8,13.3-8.7,13.3-16.9c0-9.5-7.8-17.3-17.3-17.3
		s-17.3,7.8-17.3,17.3c0,4.4,1.7,8.5,4.4,11.6c-4.8,1.7-9,5.7-11.5,10.5c-10.7,21.1-22.5,40.2-41.6,54.8
		c-7.1,5.4-15.4,10.4-19.2,18.6c-1.7,3.8-2.5,8.3-0.8,12.1c2.1,4.8,7.2,7.6,12.3,8s10.3-1.1,15-2.9
		C400.7,491.6,425.4,464.6,434.3,432.7z"/>
	<path class="st9" d="M41.2,249.8c-4.5,1.4-7.9,5.2-10.6,9.1c-8,11.5-12.7,25.1-13.4,39c-0.5,9.3,0.1,22.2,4.1,32.1
		c1.2,2.9,2.6,5.6,4.4,7.9c0.2,0.3,0.4,0.5,0.6,0.8c-1.9,1.7-3.2,4.2-3.2,7c0,5.1,4.1,9.2,9.2,9.2s9.2-4.1,9.2-9.2
		c0-3.8-2.3-6.9-5.4-8.4c0.6-1.3,1.1-2.8,1.3-4.4c1.4-12,0-24.1,1-36.1c1-12.3,5.4-22.3,10.3-33.4C51.4,257,50.9,246.8,41.2,249.8z"
		/>
	<path class="st9" d="M565.2,297.6c-0.2,0.4-0.4,0.9-0.6,1.3c-2.7,6.1-1.9,13.2-2.9,19.6c-1.4,9.1-4.3,17.4-7.5,25.6
		c-4.3,11-9.3,21.7-12.7,33.4c-1.5,5.2-1.7,12.1,3,14.8c4.3,2.5,9.7-0.6,13.4-4c20.8-19.6,33.3-61.4,23.1-88.7
		c-0.4-1.1-0.9-2.1-1.4-2.9c2.3-2.1,3.7-5.1,3.7-8.4c0-6.4-5.2-11.5-11.5-11.5c-6.4,0-11.5,5.2-11.5,11.5
		C560.3,292.1,562.3,295.5,565.2,297.6z"/>
	<path class="st9" d="M200.6,223c-4-16.4-16.1-34.5-35.4-32.2c-11,1.4-17.9,10.1-23,19.1c-8,14.4-12.7,34.7-10.2,52.7
		c1.3,9.6,5.6,20.7,12.9,28c-5.1,2.8-8.4,8.2-8.4,14.4c0,9.1,7.4,16.5,16.5,16.5s16.5-7.4,16.5-16.5c0-2.4-0.5-4.6-1.4-6.7
		c10.2-1.9,18.7-10.5,24-19.8C201.3,262.2,205,241.6,200.6,223z"/>
	<path class="st9" d="M308.9,673.9c-6.7,13.7-2.6,34.8,3,48c2.9,6.8,7.6,13.8,14.7,15.7c9,2.4,15.8-4.8,15.4-13.4
		c-0.3-7.4-4.2-14.2-6.3-21.1c-2.2-7.4-2.7-15-3.5-22.6c-0.5-5.6-4.6-10.5-9.5-12.3c0.6-1.4,1-3,1-4.6c0-6.2-5-11.1-11.1-11.1
		c-6.2,0-11.1,5-11.1,11.1C301.5,668.3,304.6,672.4,308.9,673.9z"/>
</g>
</svg>
