<?xml version="1.0" encoding="utf-8"?>
<!-- Generator: Adobe Illustrator 28.4.1, SVG Export Plug-In . SVG Version: 6.00 Build 0)  -->
<svg version="1.1" id="Layer_1" xmlns="http://www.w3.org/2000/svg" xmlns:xlink="http://www.w3.org/1999/xlink" x="0px" y="0px"
	 viewBox="0 0 232 242" style="enable-background:new 0 0 232 242;" xml:space="preserve">
<style type="text/css">
	.st0{fill:#EDC466;}
	.st1{fill:#ECAD50;}
	.st2{fill:#EDBF55;}
	.st3{fill:#EFE7CD;}
	.st4{fill:#EAA140;}
	.st5{fill:#F2F0EB;}
	.st6{fill:#F0E3BA;}
	.st7{fill:#E39E46;}
	.st8{fill:#F2D085;}
</style>
<g>
	<path class="st0" d="M217,44.3c-1.5-6.2-4.5-11.1-8.5-14.3c-7.4-6.2-18.1-6.9-28.4-1c0.3-1.7,0.8-3.5,1.2-5.2c0-0.2,0-0.3-0.1-0.4
		c1.1-3.9,2.6-7.7,4.5-11.3c-62.2-18.2-130.2-2.7-139.2,0c1.4,2.7,2.5,5.5,3.5,8.3c-0.2,0-0.3,0.2-0.3,0.4c0.8,2.7,1.4,5.3,1.9,8
		C41,23,30.1,24,22.8,30.7c-3.6,3.3-6.3,7.9-7.8,13.7C11.2,60.1,15,77.8,25.6,90c1,1.1,2,2.2,3.1,3.3c9.2,8.7,22.3,13,34.8,12
		c3.2,6.5,7.5,12.3,13.3,16.4c0.2,0.1,0.5,0.1,0.6-0.1c2.3,2.2,4.8,4.1,7.5,5.9c2.7,1.8,5.5,3.4,8.4,4.7c-0.4,1.3-0.6,2.6-0.5,3.9
		c0.2,3.7,2.2,7.5,5.1,9.9c1.9,1.6,4.2,2.8,6.7,3.7c0.3,6.1,0.2,12.3-0.2,18.4c-0.6,7.5-1.8,15-4,22c-6.2,0.8-12.2,2.2-17.8,4.8
		c-9,4.1-17.1,10.2-23.3,17.9c-0.9,1.1-1.8,2.3-2.2,3.7c-1.3,2.4-2.9,7.3,0.1,12.2c0.3,0.4,0.5,0.8,0.9,1.3c0.3,0.4,0.6,0.8,0.9,1.1
		c0.8,0.8,1.9,1.5,3,2.1c1.1,0.6,2.3,1,3.5,1.4c16.4,5.1,33.7,7.6,50.9,7.4c17.2,0.2,34.5-2.3,50.9-7.4c2-0.6,4.3-1.6,5.9-2.9
		c1.3-0.9,2.2-2,2.8-3.3c2.2-5.1-1-12.5-1-12.5c-0.5-1.1-1.2-2.1-2-3.1c-6.1-7.7-14.1-13.8-23.1-17.8c-5.8-2.6-11.9-4.2-18.2-5.1
		c-3.5-11.4-4.5-23.8-4.3-36c0-1.4,0.1-2.8,0.1-4.2c2.6-0.9,4.9-2.2,6.7-3.7c2.9-2.4,4.9-6.3,5.1-10c0.1-1.3-0.1-2.6-0.5-3.8
		c2.9-1.3,5.7-2.8,8.4-4.7c3.6-2.4,7-5.2,10-8.4c0.1,0.1,0.3,0.1,0.5,0c4.7-3.4,8.3-8.3,10.8-13.9c12.5,1.1,25.6-3.3,34.8-12
		c1.9-1.8,3.7-3.8,5.2-5.9l0,0C217.5,75.2,220.5,58.9,217,44.3z M54.3,86.8c-1.2-0.1-2.4-0.4-3.6-0.8C45,84.4,40,80.5,36.3,75.8
		c-5.4-6.8-8.8-16.6-5.2-24.9c2.9-6.7,9.3-9.8,15.8-7.1c0.5,0.2,0.9,0.4,1.4,0.7c1.8,1,3.6,2.2,5.2,3.6c0.7,10.8,0.9,21.7,2.5,32.5
		c0.3,2.1,0.7,4.3,1.2,6.5C56.4,87,55.3,87,54.3,86.8z M56.7,76.4c-0.6-5.2-0.9-10.5-1.2-15.8C56,68.8,56.6,77,58,85
		C57.5,82.1,57.1,79.3,56.7,76.4z M195.6,75.8c-3.7,4.7-8.7,8.5-14.4,10.3c-1.5,0.5-3.1,0.8-4.7,0.9c-0.8,0.1-1.6,0.1-2.4,0.1
		c0.6-2.9,1-5.9,1.4-8.5c1.3-9.9,1.5-20,2.2-29.9c1.9-1.6,3.8-2.9,5.9-4.1c0.1,0,0.1-0.1,0.3-0.1c7-3.6,14-0.5,17,6.6
		C204.5,59.3,201,69.1,195.6,75.8z"/>
	<path class="st1" d="M175.2,217.9c0-0.7-0.2-1.4-0.5-2.1c-0.5-1.1-1.2-2.1-2-3.1c-6.1-7.7-14.1-13.8-23.1-17.8
		c-5.8-2.6-11.9-4.2-18.2-5.1c0.8,2.7,1.8,5.3,2.9,7.9c0.7,1.6,1.5,3.2,2.3,4.8c1.1,2,0.2,4.6-1.9,5.6c-13.3,6.1-29.8,3.1-37.6,0.1
		c-2.3-0.9-3.3-3.5-2.2-5.6c0.8-1.4,1.5-2.9,2.1-4.4c1.2-2.7,2.2-5.3,3-8.1c-6.2,0.8-12.2,2.2-17.8,4.8c-9,4.1-17.1,10.2-23.3,17.9
		c-0.9,1.1-1.8,2.3-2.2,3.7c-0.1,0.5-0.2,1-0.3,1.5c-0.1,4.1,4.5,6.4,8.4,7.6c2.4,0.8,4.8,1.4,7.3,2.1c-0.1,0.2-0.1,0.5,0.2,0.5
		c8.6,2.3,17.8,3.6,26.7,4.2c0.1,0,0.2,0,0.3-0.1c5.5,0.5,11,0.7,16.4,0.6c4.2,0,8.4-0.1,12.6-0.3c-0.1,0.3,0.1,0.6,0.5,0.6
		c14.6-0.3,30.6-3.1,43.6-9.9c0.3-0.1,0.3-0.5,0.1-0.8C174.3,221.3,175.3,219.8,175.2,217.9z"/>
	<path class="st1" d="M97.8,145.8c1.9,1.6,4.2,2.8,6.7,3.7c7,2.5,15.9,2.5,22.9,0c2.6-0.9,4.9-2.2,6.7-3.7c2.9-2.4,4.9-6.3,5.1-10
		c0.1-1.3-0.1-2.6-0.5-3.8c-14.6,6.5-31.1,6.5-45.6,0c-0.4,1.3-0.6,2.6-0.5,3.9C92.9,139.7,94.8,143.4,97.8,145.8z"/>
	<path class="st2" d="M63.5,105.1c3.2,6.5,7.5,12.3,13.3,16.4c0.2,0.1,0.5,0.1,0.6-0.1c0.1-0.2,0.2-0.5,0-0.6
		c-6.1-5.8-11-12-14.3-19.7C60.8,96,59.2,90.6,58.1,85c-0.6-2.9-1-5.7-1.4-8.7c-0.6-5.2-0.9-10.5-1.2-15.8c-0.7-13.5-1.1-27-5.2-40
		c-0.1-0.2-0.3-0.3-0.4-0.2c-0.2,0-0.3,0.2-0.3,0.4c0.8,2.7,1.4,5.3,1.9,8c-10.6-5.8-21.4-4.8-28.8,1.9c2.3-1.3,4.8-2.3,7.4-2.7
		c5.4-0.8,11.3,1.1,14.3,5.6c1.6,2.3,2.2,5.2,2.4,8c0,0.7,0.1,1.4,0.1,2.2c0.5,0.2,0.9,0.4,1.4,0.7c1.8,1,3.6,2.2,5.2,3.6
		c0.7,10.8,0.9,21.7,2.5,32.5c0.3,2.1,0.7,4.3,1.2,6.5c-1,0-2,0-3.1-0.2c-0.8,2.2-2.4,4.1-4.5,5.3c-3.4,2.1-7.8,2.5-11.8,2
		c-4.4-0.5-8.7-2-12.6-4.3c1,1.1,2,2.2,3.1,3.3C37.9,101.8,50.9,106.2,63.5,105.1z"/>
	<path class="st2" d="M193.5,94.9c-3.9,0.8-8.1,0.8-11.6-1.1c-2.7-1.4-4.8-4-5.4-6.9c-0.8,0.1-1.6,0.1-2.4,0.1
		c0.6-2.9,1-5.9,1.4-8.5c1.3-9.9,1.5-20,2.2-29.9c1.9-1.6,3.8-2.9,5.9-4.1c0.1,0,0.1-0.1,0.3-0.1c2.1-4.5,5.5-8.4,9.7-11
		c4.5-2.7,9.8-3.8,15-3.4c-7.4-6.2-18.1-6.9-28.4-1c0.3-1.7,0.8-3.5,1.2-5.2c0-0.2,0-0.3-0.1-0.4c-0.2-0.1-0.5-0.1-0.5,0.2
		c-4.3,16-4.3,32.3-5.6,48.7c-0.7,8.5-2.1,16.9-4.9,24.9c-2.9,8.4-7.2,14.6-13,21.1c-0.2,0.2-0.1,0.6,0.1,0.8c0.1,0.1,0.3,0.1,0.5,0
		c4.7-3.4,8.3-8.3,10.8-13.9c12.5,1.1,25.6-3.3,34.8-12c1.9-1.8,3.7-3.8,5.2-5.9C204.2,91,199.1,93.8,193.5,94.9z"/>
	<path class="st2" d="M127.3,153.8c0-1.4,0.1-2.8,0.1-4.2c-7,2.5-15.9,2.5-22.9,0c0.3,6.1,0.2,12.3-0.2,18.4
		C111,162,118.9,157.3,127.3,153.8z"/>
	<path class="st2" d="M88.9,73.2C87.6,79,87.2,85,87.6,90.9c0.4,5.1,2.8,9.6,8.5,8.9c6.4-0.8,12.5-3.3,18.3-6.1
		c5.1,3,10.7,5.2,16.4,6.6c2.4,0.6,4.8,0.7,6.9,0c2.1-0.8,3.7-2.4,4.3-5.4c1.2-6.4,0.7-12.9-0.1-19.3c2.4-2.2,4.7-4.6,6.8-7.1
		c1.7-2,3.2-4.2,4.6-6.5c2.7-4.4,3.4-9.4-1.7-12.2c-2.1-1.2-4.3-2.1-6.6-2.9c-3.8-1.3-7.8-2.2-11.8-2.9c-2.4-5.4-5.6-10.5-9.4-15
		c-3.3-3.9-7.9-6.2-12.1-2.2c-4.7,4.4-8.1,9.9-11.2,15.7c-5.9,0.6-11.7,2-17.2,4.3c-0.3,0.1-0.7,0.3-1,0.5c-4.2,2-7.1,5.5-4.8,10.4
		C80.1,63.6,84.4,68.5,88.9,73.2z"/>
	<path class="st2" d="M57,228.7c0.3,0.4,0.5,0.8,0.9,1.3c0.3,0.4,0.6,0.8,0.9,1.1c0.8,0.8,1.9,1.5,3,2.1c1.1,0.6,2.3,1,3.5,1.4
		c16.4,5.1,33.7,7.6,50.9,7.4c17.2,0.2,34.5-2.3,50.9-7.4c2-0.6,4.3-1.6,5.9-2.9c1.3-0.9,2.2-2,2.8-3.3c-17.6,7-36.6,10.4-55.6,10.6
		C98.8,239.2,77.4,235.4,57,228.7z"/>
	<path class="st3" d="M148.6,51.6c-2-1.1-4-2-6.1-2.7c-3.5-1.2-7.1-2-10.8-2.7c-2.2-5-5.1-9.6-8.6-13.8c-3.1-3.6-7.2-5.6-11.2-2
		c-4.3,4.1-7.5,9.2-10.3,14.4c-5.4,0.5-10.7,1.9-15.8,3.9c-0.3,0.1-0.6,0.3-1,0.4c-3.8,1.9-6.5,5.1-4.4,9.6
		c2.5,5.4,6.4,9.9,10.5,14.2c-1.2,5.3-1.5,10.8-1.1,16.2c0.3,4.7,2.5,8.8,7.8,8.2c5.9-0.7,11.4-3,16.8-5.6c4.7,2.7,9.8,4.8,15,6.1
		c2.2,0.5,4.5,0.6,6.3,0c1.9-0.7,3.4-2.2,3.9-4.9c1.1-5.8,0.7-11.8-0.1-17.7c2.2-2,4.3-4.2,6.2-6.5c1.5-1.9,2.9-3.8,4.2-5.9
		C152.6,58.8,153.3,54.2,148.6,51.6z"/>
	<path class="st4" d="M89.8,205.1c0,5.6,11.9,10.1,26.6,10.1c14.7,0,26.6-4.5,26.6-10.1c0-2.9-3.3-5.6-8.4-7.4
		c0.7,1.6,1.5,3.2,2.3,4.8c1.1,2,0.2,4.6-1.9,5.6c-13.3,6.1-29.8,3.1-37.6,0.1c-2.3-0.9-3.3-3.5-2.2-5.6c0.8-1.4,1.5-2.9,2.1-4.4
		C92.6,199.9,89.8,202.5,89.8,205.1z"/>
	<path class="st4" d="M93.2,132c-0.4,1.3-0.6,2.6-0.5,3.9c7.6,4.3,16.3,6.4,25,6.1c7.5-0.3,15-2.4,21.6-6.2c0.1-1.3-0.1-2.6-0.5-3.8
		C124.2,138.5,107.7,138.5,93.2,132z"/>
	<path class="st5" d="M107.7,49.4c1.9,0,3.5-1.5,3.5-3.5c0,0,0-0.1,0-0.1c0.7,0.3,1.5,0.5,2.3,0.5c4.2-0.1,7.9-4.7,7.6-8.8
		c-0.3-3.8-3.7-5.5-7.2-4.4c-1.1,0.3-2.1,1-2.9,1.8c-2,2-3.1,5-2.4,7.6c-0.3-0.1-0.6-0.1-0.9-0.1c-1.9,0-3.5,1.5-3.5,3.5
		C104.2,47.7,105.8,49.4,107.7,49.4z"/>
	<path class="st5" d="M130.1,93.9c0.8,0,1.5-0.3,2.1-0.9c0.6,0.6,1.5,0.9,2.5,0.4c2.8-1.4,3.9-5,4-7.8c0.1-2.5-1.1-8.3-4.8-7
		c-3.1,1-3.6,6.1-3.3,9.7c-0.1,0-0.3,0-0.4,0c-1.6,0-2.9,1.3-2.9,2.9C127.3,92.7,128.6,93.9,130.1,93.9z"/>
	<path class="st6" d="M136,97.8c-4.2-1.1-8.3-2.5-12.3-4.1c-10.6-4.2-20.6-10.5-27.9-19.2c-6-7.1-10-16.1-10.8-25.3
		c-3.8,1.9-6.5,5.1-4.4,9.6c2.5,5.4,6.4,9.9,10.5,14.2C90,78.3,89.6,83.8,90,89.2c0.3,4.7,2.5,8.8,7.8,8.2c5.9-0.7,11.4-3,16.8-5.6
		c4.7,2.7,9.8,4.8,15,6.1C131.9,98.4,134.1,98.5,136,97.8z"/>
	<path class="st6" d="M150.2,62.8c2.4-4,3.1-8.6-1.5-11.2c-2-1.1-4-2-6.1-2.7c2,6.4,3.1,13.1,3.4,19.8
		C147.5,66.9,148.9,64.9,150.2,62.8z"/>
	<path class="st7" d="M77.3,120.8c-6.1-5.8-11-12-14.3-19.7C60.8,96,59.2,90.5,58.1,85c-0.6-2.9-1-5.7-1.4-8.7
		c-0.6-5.2-0.9-10.5-1.2-15.8c-0.7-13.5-1.1-27-5.2-40c-0.1-0.2-0.3-0.3-0.4-0.2c-0.2,0-0.3,0.2-0.3,0.4c0.8,2.7,1.4,5.3,1.9,8
		c1.2,6.4,1.8,12.8,2.2,19.2c0.7,10.8,0.9,21.7,2.5,32.5c0.3,2.1,0.7,4.3,1.2,6.5c1.3,6.1,3.3,12.4,6.1,18.1
		c3.2,6.5,7.5,12.3,13.3,16.4c0.2,0.1,0.5,0.1,0.6-0.1C77.5,121.3,77.5,121,77.3,120.8z"/>
	<path class="st7" d="M180.6,23.5c-4.3,16-4.3,32.3-5.6,48.7c-0.7,8.5-2.1,16.9-4.9,24.9c-2.9,8.4-7.2,14.6-13,21.1
		c-0.2,0.2-0.1,0.6,0.1,0.8c0.1,0.1,0.3,0.1,0.5,0c4.7-3.4,8.3-8.3,10.8-13.9c2.7-5.7,4.5-12.1,5.6-18.1c0.6-2.9,1-5.9,1.4-8.5
		c1.3-9.9,1.5-20,2.2-29.9c0.5-6.5,1.1-13.1,2.4-19.5c0.3-1.7,0.8-3.5,1.2-5.2c0-0.2,0-0.3-0.1-0.4
		C180.9,23.2,180.7,23.3,180.6,23.5z"/>
	<path class="st7" d="M129.1,233.2c14.6-0.3,30.6-3.1,43.6-9.9c0.3-0.1,0.3-0.5,0.1-0.8c-0.1-0.2-0.3-0.3-0.6-0.2
		c-14,5.6-28.1,8.7-43.2,9.8c-0.3,0-0.5,0.2-0.5,0.4C128.6,232.9,128.7,233.2,129.1,233.2z"/>
	<path class="st7" d="M72.5,228.2c8.6,2.3,17.8,3.6,26.7,4.2c0.1,0,0.2,0,0.3-0.1c0.3-0.2,0.1-0.7-0.3-0.8c-8.9-1-17.7-2.6-26.5-4.1
		c-0.2,0-0.3,0-0.4,0.2C72.2,227.8,72.2,228.1,72.5,228.2z"/>
	<path class="st8" d="M163,99.1c0.8-2.9,1.1-6.4-0.6-8.7c2.7-0.6,4.7-3,4.7-5.9c0-3.3-2.7-6.1-6.1-6.1c-3.3,0-6.1,2.7-6.1,6.1
		c0,1.5,0.6,3,1.5,4.1c-1.7,0.6-3.1,2-4,3.7c-3.7,7.4-7.9,14.1-14.6,19.2c-2.5,1.9-5.4,3.6-6.7,6.5c-0.6,1.3-0.9,2.9-0.3,4.2
		c0.7,1.7,2.5,2.7,4.3,2.8c1.8,0.1,3.6-0.4,5.2-1C151.2,119.7,159.8,110.3,163,99.1z"/>
	<path class="st8" d="M25.4,35.2c-1.6,0.5-2.8,1.8-3.7,3.2c-2.8,4-4.4,8.8-4.7,13.6c-0.2,3.3,0,7.8,1.4,11.2c0.4,1,0.9,2,1.5,2.8
		c0.1,0.1,0.1,0.2,0.2,0.3c-0.7,0.6-1.1,1.5-1.1,2.4c0,1.8,1.4,3.2,3.2,3.2s3.2-1.4,3.2-3.2c0-1.3-0.8-2.4-1.9-2.9
		c0.2-0.5,0.4-1,0.5-1.5c0.5-4.2,0-8.4,0.3-12.6c0.3-4.3,1.9-7.8,3.6-11.7C29,37.7,28.8,34.1,25.4,35.2z"/>
	<path class="st8" d="M208.8,51.9c-0.1,0.1-0.1,0.3-0.2,0.5c-0.9,2.1-0.7,4.6-1,6.9c-0.5,3.2-1.5,6.1-2.6,9
		c-1.5,3.8-3.3,7.6-4.4,11.7c-0.5,1.8-0.6,4.2,1,5.2c1.5,0.9,3.4-0.2,4.7-1.4c7.3-6.9,11.7-21.5,8.1-31c-0.1-0.4-0.3-0.7-0.5-1
		c0.8-0.7,1.3-1.8,1.3-2.9c0-2.2-1.8-4-4-4c-2.2,0-4,1.8-4,4C207,50,207.7,51.1,208.8,51.9z"/>
	<path class="st8" d="M81.2,25.8c-1.4-5.7-5.6-12.1-12.4-11.3c-3.8,0.5-6.3,3.5-8,6.7c-2.8,5-4.4,12.1-3.6,18.4
		c0.5,3.4,2,7.2,4.5,9.8c-1.8,1-2.9,2.9-2.9,5c0,3.2,2.6,5.8,5.8,5.8s5.8-2.6,5.8-5.8c0-0.8-0.2-1.6-0.5-2.3
		c3.6-0.7,6.5-3.7,8.4-6.9C81.4,39.5,82.7,32.3,81.2,25.8z"/>
	<path class="st8" d="M119.1,183.5c-2.3,4.8-0.9,12.2,1,16.8c1,2.4,2.7,4.8,5.1,5.5c3.1,0.8,5.5-1.7,5.4-4.7c-0.1-2.6-1.5-5-2.2-7.4
		c-0.8-2.6-0.9-5.2-1.2-7.9c-0.2-2-1.6-3.7-3.3-4.3c0.2-0.5,0.3-1,0.3-1.6c0-2.2-1.7-3.9-3.9-3.9c-2.2,0-3.9,1.7-3.9,3.9
		C116.5,181.6,117.6,183,119.1,183.5z"/>
</g>
</svg>
