<?xml version="1.0" encoding="utf-8"?>
<!-- Generator: Adobe Illustrator 28.4.1, SVG Export Plug-In . SVG Version: 6.00 Build 0)  -->
<svg version="1.1" id="Layer_1" xmlns="http://www.w3.org/2000/svg" xmlns:xlink="http://www.w3.org/1999/xlink" x="0px" y="0px"
	 viewBox="0 0 678 440" style="enable-background:new 0 0 678 440;" xml:space="preserve">
<style type="text/css">
	.st0{fill:#5AB081;}
	.st1{fill:#409C82;}
	.st2{fill:#378A79;}
	.st3{fill:#642E3E;}
	.st4{fill:#337A6C;}
	.st5{fill:#2B6E66;}
	.st6{fill:#72839C;}
	.st7{fill:#687A94;}
	.st8{fill:#88A1B8;}
	.st9{fill:#798BA6;}
	.st10{fill:#6E7F99;}
	.st11{fill:#733442;}
	.st12{fill:#6B2F3E;}
	.st13{fill:#37856F;}
	.st14{fill:#452139;}
	.st15{fill:#286061;}
	.st16{fill:#409176;}
	.st17{fill:#C3CCE3;}
	.st18{fill:#B8D4FF;}
	.st19{fill:#5F448F;}
	.st20{fill:#553987;}
	.st21{fill:#B9D5FE;}
	.st22{fill:#7D4EA5;}
	.st23{fill:none;stroke:#553987;stroke-miterlimit:10;}
	.st24{fill:#513B6B;}
	.st25{fill:#59569C;}
	.st26{fill:#647EB3;}
	.st27{fill:#CF822B;}
	.st28{fill:#F5B951;}
	.st29{fill:#ED9D34;}
	.st30{fill:#35244A;}
	.st31{fill:#1A0D2B;}
	.st32{fill:#AD6937;}
	.st33{fill:#DEA666;}
	.st34{fill:#E8C56B;}
	.st35{fill:#E6C68C;}
	.st36{fill:#8352AD;}
	.st37{fill:#FFFFFF;}
	.st38{fill:#222141;}
	.st39{fill:#A6783C;}
	.st40{fill:#2B2952;}
	.st41{fill:#191930;}
	.st42{fill:#D6E6FF;}
	.st43{fill:#C12254;}
	.st44{fill:#9EA1D9;}
	.st45{fill:#8286D1;}
	.st46{fill:#244E70;}
	.st47{fill:#1E385D;}
	.st48{fill:#955746;}
	.st49{fill:#7D3236;}
	.st50{fill:#152A47;}
	.st51{fill:#ABADC9;}
	.st52{fill:#7D2328;}
	.st53{fill:none;stroke:#D1BA92;stroke-width:0.5;stroke-linecap:round;stroke-miterlimit:10;}
	.st54{fill:#420F27;}
	.st55{fill:#CAD6E3;}
	.st56{fill:#B86B56;}
	.st57{fill:#9DB4CC;}
	.st58{fill:#853B40;}
	.st59{fill:#BFC1E0;}
	.st60{fill:#182F4F;}
	.st61{fill:#B36854;}
	.st62{opacity:0.2;}
	.st63{fill:#5C113B;}
	.st64{fill:#821B44;}
	.st65{fill:#AB544B;}
	.st66{fill:#632327;}
	.st67{fill:#6B1812;}
	.st68{fill:#2D0304;}
	.st69{fill:#2C55C7;}
	.st70{fill:#1E3AA8;}
	.st71{fill:#1F48B8;}
	.st72{fill:#67A7D6;}
	.st73{fill:#599DCE;}
	.st74{fill:#4683CC;}
	.st75{fill:#C9CEE8;}
	.st76{fill:#AFB5E0;}
	.st77{fill:#94A1D4;}
	.st78{fill:#5D9FCE;}
	.st79{fill:#65C6DB;}
	.st80{fill:#59B7CF;}
	.st81{fill:#3FA9C7;}
	.st82{fill:#5C1838;}
	.st83{fill:#E3D4AA;}
	.st84{fill:#2C2745;}
	.st85{fill:#56130E;}
	.st86{fill:#943928;}
	.st87{opacity:0.6;fill:#B0623E;enable-background:new    ;}
	.st88{opacity:0.6;fill:#A85731;enable-background:new    ;}
	.st89{fill:#781B14;}
	.st90{fill:#4A100C;}
	.st91{fill:#D98E5F;}
	.st92{fill:#944F43;}
	.st93{fill:#B4684C;}
	.st94{fill:#964D33;}
	.st95{fill:#E69B85;}
	.st96{fill:#4785D1;}
	.st97{fill:#151529;}
	.st98{fill:#782F35;}
	.st99{fill:#292440;}
	.st100{fill:#4284C2;}
	.st101{fill:#E3F0FF;}
	.st102{fill:#71BAED;}
	.st103{fill:#81D7EB;}
	.st104{fill:#44BDD6;}
	.st105{fill:#5D94CE;}
	.st106{fill:#5296C7;}
	.st107{fill:#AD244D;}
	.st108{fill:#4886D1;}
	.st109{fill:#3D7BC4;}
	.st110{fill:#4582CC;}
	.st111{fill:#4876D1;}
	.st112{fill:#48A1D1;}
	.st113{fill:#EBD1A4;}
	.st114{fill:#828DBA;}
	.st115{fill:#10101F;}
	.st116{fill:#28284F;}
</style>
<g>
	<g>
		<g>
			<path class="st0" d="M88.5,374.4c0-12.5-10.1-22.7-22.7-22.7s-22.7,10.1-22.7,22.7c0,12.5,10.1,22.7,22.7,22.7
				S88.5,386.9,88.5,374.4z"/>
			<path class="st0" d="M134.4,389.7L134.4,389.7c-2-17-17.3-29.2-34.3-27.2l-52.1,6c-17,2-29.2,17.3-27.2,34.3v0
				c2,17,17.3,29.2,34.3,27.2l52.1-6C124.2,422,136.3,406.7,134.4,389.7z"/>
			<path class="st1" d="M100.5,363.4c4-0.5,8.1-0.1,12,1c3.9,1.1,7.6,3,10.7,5.5c3.2,2.5,5.8,5.7,7.8,9.2c2,3.6,3.2,7.5,3.7,11.5
				c0.5,4,0.1,8.1-1,12c-1.1,3.9-3,7.6-5.5,10.7c-2.5,3.2-5.7,5.8-9.2,7.8c-3.6,2-7.5,3.2-11.5,3.7l-52,6c-4,0.5-8.1,0.1-12-1
				c-3.9-1.1-7.6-3-10.7-5.5c-3.2-2.5-5.8-5.7-7.8-9.2c-2-3.6-3.2-7.5-3.7-11.5l0,0c-0.4-3.4-0.2-6.9,0.5-10.2l29.8,7.9l38.1-36.7
				L100.5,363.4L100.5,363.4z"/>
			<path class="st1" d="M37.7,425.1c0-3.2-0.8-6.3-2.4-9.1c-1.6-2.8-3.8-5.1-6.5-6.8c-2.7-1.7-5.8-2.6-9-2.8
				c-3.2-0.2-6.4,0.5-9.2,1.9c-2.9,1.4-5.3,3.5-7.1,6.2c-1.8,2.6-2.9,5.7-3.2,8.9c-0.3,3.2,0.2,6.4,1.5,9.3c1.3,2.9,3.3,5.5,5.8,7.4
				h22.8c2.3-1.7,4.2-4,5.5-6.6C37.1,430.9,37.7,428,37.7,425.1L37.7,425.1z"/>
			<path class="st1" d="M140.7,416.3H21v23.7h119.7V416.3z"/>
			<path class="st1" d="M168.2,420c0-4.6-1.1-9-3.3-13.1c-2.2-4-5.3-7.4-9.1-9.9c-3.8-2.5-8.2-4-12.7-4.4s-9.1,0.4-13.3,2.2
				c-4.2,1.8-7.8,4.7-10.7,8.2c-2.8,3.6-4.7,7.8-5.4,12.3c-0.8,4.5-0.4,9.1,1.1,13.4c1.5,4.3,4,8.2,7.3,11.3h37.3
				c2.8-2.6,4.9-5.7,6.4-9.1C167.4,427.5,168.2,423.8,168.2,420L168.2,420z"/>
			<path class="st0" d="M97.3,383.6c5.5,0,10.8,1.7,15.3,4.9l-41.9,21.9c0-7.1,2.8-13.8,7.8-18.9C83.5,386.5,90.3,383.6,97.3,383.6
				L97.3,383.6z"/>
			<path class="st0" d="M19.7,414.7L0,425.1c0-4.2,1.4-8.3,4-11.6c2.6-3.3,6.3-5.7,10.4-6.7L19.7,414.7z"/>
			<path class="st2" d="M54.9,413.2l-4,1.2c-2.5,0.8-4.8,2.2-6.7,4.1c-1.8,1.9-3.2,4.3-3.8,6.8c-0.7,2.6-0.7,5.3,0,7.8
				c0.7,2.6,2,4.9,3.8,6.9L54.9,413.2z"/>
			<path class="st2" d="M168.2,420c0,3.8-0.8,7.5-2.3,10.9c-1.5,3.4-3.7,6.5-6.4,9.1h-20.8l-9.3-18.4l27.1-24.1
				c3.6,2.5,6.6,5.9,8.6,9.8C167.1,411.3,168.2,415.6,168.2,420L168.2,420z"/>
			<path class="st2" d="M136.5,401.8l15,1.8l-7.3,6.7L136.5,401.8z"/>
			<path class="st2" d="M135,432.2h-16.5l10.8-10.5L135,432.2z"/>
			<path class="st2" d="M87.6,440.1H44.1l5.4-13.4l24.2-3.5L87.6,440.1z"/>
			<path class="st3" d="M232.1,440.1h-32.9l16.9-32.2l-2.9-13.6L232.1,440.1z"/>
			<path class="st4" d="M246,411.5c0-6.5-1.6-12.8-4.7-18.5c-3.1-5.7-7.5-10.5-12.9-14c-5.4-3.5-11.6-5.7-18-6.2
				c-6.4-0.5-12.9,0.5-18.8,3.1c-5.9,2.6-11.1,6.6-15.1,11.7c-4,5.1-6.7,11.1-7.8,17.4c-1.1,6.4-0.6,12.9,1.5,19
				c2.1,6.1,5.6,11.6,10.3,16h53.1c3.9-3.6,7.1-8.1,9.2-13C244.9,422.2,246,416.9,246,411.5L246,411.5z"/>
			<path class="st4" d="M145.6,437c0-6.9,2.7-13.5,7.6-18.4c4.9-4.9,11.5-7.6,18.4-7.6c6.9,0,13.5,2.7,18.4,7.6
				c4.9,4.9,7.6,11.5,7.6,18.4c0,1-0.1,2-0.2,3h-51.6C145.6,439.1,145.6,438,145.6,437L145.6,437z"/>
			<path class="st4" d="M191.6,423.7c1.5-4,3.8-7.8,6.7-10.9c3-3.1,6.5-5.6,10.5-7.3c4-1.7,8.2-2.6,12.5-2.6c4.3,0,8.6,0.9,12.5,2.6
				c4,1.7,7.5,4.2,10.5,7.3c3,3.1,5.3,6.8,6.7,10.9c1.5,4,2.1,8.4,1.9,12.7c0,1.3-0.1,2.5-0.2,3.7h-62.8c-0.1-1.2-0.2-2.4-0.2-3.7
				C189.5,432,190.1,427.7,191.6,423.7z"/>
			<path class="st5" d="M197.4,440.1l-10.8-17.7l32.4,10l-10.8,7.7H197.4z"/>
			<path class="st5" d="M191,402.9l10.2-10.1l-5.3,13.5L191,402.9z"/>
			<path class="st5" d="M162.4,418.5l17.3,12.6C179.7,418.8,172.5,416.1,162.4,418.5z"/>
		</g>
		<path class="st6" d="M136,440.1l6.3-25.2l15.3-5.9l9-29l50.7-1.8l41.2,23l5.6,22.4l8,5.9c0.3,0.2,0.5,0.4,0.6,0.7
			c0.2,0.3,0.3,0.6,0.3,0.9l1,9.2H136L136,440.1z"/>
		<path class="st7" d="M175.8,399.7l7.1,12l4.1,28.3H136l6-24.1c0.1-0.3,0.3-0.7,0.5-0.9c0.2-0.3,0.5-0.5,0.8-0.6l14.3-5.5
			L175.8,399.7z"/>
		<path class="st8" d="M258.4,401.1l-36.4-12l-30.6-5.1l-24.9-4l50.8-1.8L258.4,401.1z"/>
		<path class="st9" d="M215.8,401.1l10.6,11.9l4.8-6l-7.7-7.4L215.8,401.1z"/>
		<path class="st7" d="M206.6,440.1l11.8-16.6l18-1.1l-1.7,17.7H206.6z"/>
		<path class="st10" d="M175.8,399.7v-18.2l-9.3-1.5l-9,29L175.8,399.7z"/>
		<path class="st6" d="M167.3,424.1l-12.1,1.3l-6-6.8l15.2-5.6L167.3,424.1z"/>
		<path class="st0" d="M612.1,397.1c12.5,0,22.7-10.1,22.7-22.7c0-12.5-10.1-22.7-22.7-22.7s-22.7,10.1-22.7,22.7
			C589.5,386.9,599.6,397.1,612.1,397.1z"/>
		<path class="st0" d="M570.8,424l52.1,6c17,2,32.3-10.2,34.3-27.2v0c2-17-10.2-32.3-27.2-34.3l-52.1-6c-17-2-32.3,10.2-34.3,27.2v0
			C541.7,406.7,553.8,422,570.8,424z"/>
		<path class="st1" d="M577.5,363.4l10.7,1.2l38.1,36.7l29.8-7.9c0.7,3.4,0.9,6.8,0.5,10.2l0,0c-0.5,4-1.7,7.9-3.7,11.5
			c-2,3.6-4.6,6.7-7.8,9.2c-3.2,2.5-6.8,4.4-10.7,5.5c-3.9,1.1-8,1.5-12,1l-52-6c-4-0.5-8-1.7-11.5-3.7c-3.6-2-6.7-4.6-9.2-7.8
			c-2.5-3.2-4.4-6.8-5.5-10.7c-1.1-3.9-1.4-8-1-12c0.5-4,1.7-7.9,3.7-11.5c2-3.6,4.6-6.7,7.8-9.2c3.2-2.5,6.8-4.4,10.7-5.5
			C569.4,363.2,573.5,362.9,577.5,363.4L577.5,363.4z"/>
		<path class="st1" d="M640.3,425.1c0,2.9,0.7,5.8,2,8.4c1.3,2.6,3.2,4.9,5.5,6.6h22.8c2.5-1.9,4.5-4.5,5.8-7.4
			c1.3-2.9,1.8-6.1,1.5-9.3c-0.3-3.2-1.4-6.2-3.2-8.9c-1.8-2.6-4.3-4.8-7.1-6.2c-2.9-1.4-6.1-2.1-9.2-1.9c-3.2,0.2-6.3,1.1-9,2.8
			c-2.7,1.7-5,4-6.5,6.8C641.1,418.7,640.3,421.9,640.3,425.1L640.3,425.1z"/>
		<path class="st1" d="M537.3,440.1H657v-23.7H537.3V440.1z"/>
		<path class="st1" d="M509.8,420c0,3.8,0.8,7.5,2.3,10.9c1.5,3.4,3.7,6.5,6.4,9.1h37.3c3.3-3.1,5.9-7,7.3-11.3
			c1.5-4.3,1.8-8.9,1.1-13.4c-0.8-4.5-2.6-8.7-5.4-12.3c-2.8-3.6-6.5-6.4-10.7-8.2c-4.2-1.8-8.7-2.6-13.3-2.2
			c-4.5,0.4-8.9,1.9-12.7,4.4c-3.8,2.5-6.9,5.9-9.1,9.9C510.9,411,509.8,415.5,509.8,420L509.8,420z"/>
		<path class="st0" d="M580.7,383.6c7.1,0,13.8,2.9,18.8,7.9c5,5,7.8,11.8,7.8,18.9l-41.9-21.9C569.8,385.3,575.2,383.6,580.7,383.6
			L580.7,383.6z"/>
		<path class="st0" d="M663.6,406.8c4.1,1,7.8,3.3,10.4,6.7c2.6,3.3,4,7.4,4,11.6l-19.7-10.4L663.6,406.8z"/>
		<path class="st2" d="M633.9,440.1c1.8-1.9,3.1-4.3,3.8-6.9c0.6-2.6,0.6-5.3,0-7.8c-0.7-2.6-2-4.9-3.8-6.8
			c-1.8-1.9-4.1-3.3-6.7-4.1l-4-1.2L633.9,440.1z"/>
		<path class="st2" d="M653.2,440.1l-6.1-7.9l16.4-1.1L653.2,440.1z"/>
		<path class="st2" d="M509.8,420c0-4.4,1.1-8.8,3.1-12.7c2-3.9,5-7.3,8.6-9.8l27.1,24.1l-9.3,18.4h-20.8c-2.8-2.6-4.9-5.7-6.4-9.1
			C510.6,427.5,509.8,423.8,509.8,420L509.8,420z"/>
		<path class="st2" d="M533.8,410.3l-7.3-6.7l15-1.8L533.8,410.3z"/>
		<path class="st2" d="M548.7,421.6l10.8,10.5H543L548.7,421.6z"/>
		<path class="st2" d="M604.3,423.2l24.2,3.5l5.4,13.4h-43.5L604.3,423.2z"/>
		<path class="st2" d="M559.5,432.2H543l-3.6,7.9h13.2L559.5,432.2z"/>
		<path class="st11" d="M427.3,341l-8.8,67.9l-2.1,16v0.2l-1.9,15h-78.9l32.2-141.1L427.3,341z"/>
		<path class="st12" d="M390.8,337.2l-30.1,102.9h-11.1l38.2-117.6c1.6,2,2.7,4.4,3.2,7C391.6,332,391.5,334.7,390.8,337.2
			L390.8,337.2z"/>
		<path class="st12" d="M416.4,425.1l-1.9,15h-31.4l17.2-58.6c0.7-2.4,1.9-4.7,3.5-6.6c1.6-1.9,3.7-3.5,6-4.5h0.1l-11.5,51.5
			c-0.1,0.7-0.2,1.3-0.2,2c0.1,2.2,1.1,4.3,2.6,5.9c1.6,1.6,3.7,2.6,5.9,2.7c2.2,0.2,4.4-0.5,6.2-1.8c1.8-1.3,3-3.3,3.5-5.5V425.1z"
			/>
		<path class="st3" d="M464.8,394.3l-2.9,13.6l16.9,32.2h-32.9L464.8,394.3z"/>
		<path class="st4" d="M432,411.5c0,5.4,1.1,10.7,3.2,15.6c2.1,4.9,5.3,9.3,9.2,13h53.1c4.7-4.4,8.3-9.9,10.3-16
			c2.1-6.1,2.5-12.7,1.5-19c-1.1-6.4-3.8-12.4-7.8-17.4c-4-5.1-9.2-9.1-15.1-11.7c-5.9-2.6-12.4-3.6-18.8-3.1
			c-6.4,0.5-12.6,2.7-18,6.2c-5.4,3.5-9.8,8.4-12.9,14C433.7,398.7,432,405.1,432,411.5L432,411.5z"/>
		<path class="st4" d="M532.4,437c0,1,0,2-0.2,3h-51.6c-0.1-1-0.2-2-0.2-3c0-6.9,2.7-13.5,7.6-18.4c4.9-4.9,11.5-7.6,18.4-7.6
			c6.9,0,13.5,2.7,18.4,7.6C529.7,423.5,532.4,430.1,532.4,437L532.4,437z"/>
		<path class="st13" d="M454.8,437c0,1,0,2-0.2,3H403c-0.1-1-0.2-2-0.2-3c0-6.9,2.7-13.5,7.6-18.4c4.9-4.9,11.5-7.6,18.4-7.6
			c6.9,0,13.5,2.7,18.4,7.6C452.1,423.5,454.8,430.1,454.8,437L454.8,437z"/>
		<path class="st4" d="M488.3,436.3c0,1.3-0.1,2.5-0.2,3.7h-62.8c-0.1-1.2-0.2-2.4-0.2-3.7c-0.2-4.3,0.4-8.6,1.9-12.7
			c1.5-4,3.8-7.8,6.7-10.9c3-3.1,6.5-5.6,10.5-7.3c4-1.7,8.2-2.6,12.5-2.6c4.3,0,8.6,0.9,12.5,2.6c4,1.7,7.5,4.2,10.5,7.3
			c3,3.1,5.3,6.8,6.7,10.9C487.9,427.7,488.5,432,488.3,436.3z"/>
		<g>
			<path class="st4" d="M339.4,197.9l-5.6,5.3h14C346.4,199.1,341.7,197.9,339.4,197.9z"/>
			<path class="st3" d="M351.1,182.1c-3.8-8.2-2.5-16.5-1.2-25.4c1.1-7.1,2.2-14.5,1.1-23l2.4-0.3c1.2,8.8-0.1,16.7-1.1,23.7
				c-1.4,8.9-2.6,16.5,0.9,24L351.1,182.1z"/>
			<path class="st3" d="M328.7,176.7c0,0,29.1,12.5,37.8,14.9c8.7,2.4,34.7,18.4,34.7,18.4l-4.1-13.1l-41.9-15
				c-10.6-12.1-11.5-35-11.5-35l-1.7,3.5c-0.2,6.8,2.9,18.3,4.7,24.4c0.1,0.4,0.1,0.8,0,1.2c-0.1,0.4-0.3,0.8-0.6,1
				c-0.3,0.3-0.6,0.5-1,0.6c-0.4,0.1-0.8,0.1-1.2,0l-13.8-3.7L328.7,176.7z"/>
			<path class="st3" d="M414.5,189l-2.3-0.6c7.1-23.4,15-49.8,54.2-55.9l0.3,2.4C429.2,140.6,421.7,165.2,414.5,189z"/>
			<path class="st3" d="M431.9,141.6c-14.5-24.5-50.8-27.4-51.2-27.4l0.2-2.4c7,0.7,14,2.3,20.7,4.5c10.3,3.6,24.4,10.7,32.3,24.1
				L431.9,141.6z"/>
			<path class="st3" d="M443.8,196.9c1.6-15.3-8.3-47.4-8.3-47.4l-28.1-47.4l3.4-2.3c0,0,25.1,40.7,30.6,48.9
				c2.3,3.3,4.6,7.4,6.7,11c0.5,0.9,1.3,1.7,2.2,2.3c0.9,0.5,2,0.8,3.1,0.8c1.1,0,2.1-0.3,3.1-0.9c0.9-0.6,1.7-1.4,2.2-2.3l3-5.6
				l4.9,10.4l-11.1,30.8L443.8,196.9z"/>
			<path class="st3" d="M428.4,150.8l-2-1.2c9.9-17.6,10.6-36,2-56.5l2.1-0.9C439.4,113.4,438.7,132.5,428.4,150.8z"/>
			<path class="st3" d="M454.1,252.8l-5.4-0.9c3.4-22.2,18.8-42.4,44.4-58.5c11.8-7.4,24.5-13.3,37.7-17.6l1.6,5.3
				C531.6,181.3,461.9,202.8,454.1,252.8z"/>
			<path class="st3" d="M412.1,226.8h-3.9c0-50.1,12.3-80.1,48.8-119l2.8,2.7C424.2,148.5,412.1,177.9,412.1,226.8z"/>
			<path class="st3" d="M331,156.3l-1.3,2l15.2,10.1l1.3-2L331,156.3z"/>
			<path class="st3" d="M379.7,175.2l-2.3-0.5c3.4-14.7-10.7-37.3-21.6-44.4l1.3-2C368.5,135.7,383.4,159.1,379.7,175.2z"/>
			<path class="st3" d="M424.2,157.3h-2.4c0-16.9-4.7-23.8-8.4-29.4c-2.4-3.5-4.4-6.5-4.4-11h2.4c0,3.8,1.7,6.3,3.9,9.6
				C419.1,132.1,424.2,139.7,424.2,157.3z"/>
			<path class="st3" d="M478,153.9l-0.3,0.9c-7.4,19.2-12.7,39.2-16,59.5l-7.8,47.9c-1.3,7.5-1.6,15.1-0.9,22.6l3.8,50.7l-4.8,69.1
				l-7.7,35.4h-92.5l24.9-109.3l4.2-18.3l-27-18.7c-12.1-8.4-23.2-18.1-32.9-29.2L290.5,230l3.4-1.6c30.7,35.2,82.6,63.6,100.6,73.3
				c2.4,1.3,5.1,2,7.9,2c1.9,0,3.8-0.4,5.6-1c2.5-0.9,4.7-2.4,6.5-4.4c1.8-2,3.1-4.3,3.8-6.9l28.4-105.6c1.6-5.7,3.7-11.2,6.5-16.4
				l8.3-15.4l9.2-5.4v2.1c0,0.4,0.1,0.9,0.3,1.3c0.2,0.4,0.4,0.8,0.7,1.1c0.3,0.3,0.7,0.5,1.1,0.7c0.4,0.2,0.8,0.3,1.3,0.3H478z"/>
			<path class="st3" d="M320.6,258.7c-9.9-1.6-39.2,1.9-39.2,1.9v3.2c0,0,27-2.5,39.6,0.8L320.6,258.7z"/>
			<path class="st3" d="M404.1,112.9l-7.6,2.2c0,0,3.1,30.5,0.6,61.5c-2.4,31,0.9,58,30.6,80.3l4.2-15.8
				C389.1,215.6,412.7,173.8,404.1,112.9z"/>
			<path class="st3" d="M397.1,176.7c0.9-20.8-23-40.2-41.9-52.1l2.7-2.3c0,0,29,14.3,40,40l3.9,9.8L397.1,176.7z"/>
			<path class="st3" d="M375.4,189.2l-2.9-1.1c11.1-30.7,10.3-44.7,8.2-58.5l3.1-0.5C385.9,143.4,386.8,157.8,375.4,189.2z"/>
			<path class="st3" d="M316.7,236.6l-2.3,0.2l1.5,18.5l2.3-0.2L316.7,236.6z"/>
			<path class="st3" d="M420.3,141.9c0-0.1-4.7-4.2-18.9-9.6l0.9-2.2c14.7,5.6,19.4,9.8,19.6,10L420.3,141.9z"/>
			<path class="st3" d="M462.3,68.2l-1.8,2.4c13.9,48.5,10.1,63.2,1.2,83.3h7.5C477,128.2,477,103.5,462.3,68.2z"/>
			<path class="st3" d="M471,137.3l-2.3-0.4c4-27.2-24.9-45-25.2-45.2l1.3-2C445.1,89.9,475.3,108.6,471,137.3z"/>
			<path class="st3" d="M484.2,205.1l-1.9-2.5c16.6-12.9,21.5-50,16.5-78.4l3.1-0.5c2.6,15.4,2.5,31.1-0.2,46.4
				C499.5,181.6,494.7,197,484.2,205.1z"/>
			<path class="st3" d="M500.6,173.4l-2.3-0.4c2.2-13.7-6.3-35.2-26.8-49.8l1.4-1.9c9.8,6.8,17.6,16,22.9,26.7
				C500,156.8,501.8,166.2,500.6,173.4z"/>
			<path class="st3" d="M476.5,210.9l-1.4-1.9c20.3-15.4,42.6-16.8,54-16.1v2.4C517.9,194.7,496.3,195.9,476.5,210.9z"/>
			<path class="st3" d="M368.4,238.1h-38v-4.7h38c4.5,0,8.9-1.1,12.9-3.1c4.4-2.2,11.8-5.8,22.3-10.2l1.8,4.4
				c-10.4,4.3-17.7,7.8-22,10C378.8,236.9,373.6,238.1,368.4,238.1L368.4,238.1z"/>
			<path class="st3" d="M357.1,236.1c-5.2-15-13.5-26.8-26.3-37.1l1.5-1.8c13.2,10.6,21.7,22.6,27,38.1L357.1,236.1z"/>
			<path class="st3" d="M471.5,156.4c7.8-2.7,15.7-5,23.6-7.1c7.9-2,15.9-3.8,23.9-5.3l0.5,2.2c-7.9,1.8-15.8,3.8-23.6,6
				c-7.8,2.2-15.4,4.8-23,7.8L471.5,156.4z"/>
			<path class="st14" d="M530.8,175.8c-12.8,4.2-25.1,9.9-36.6,17c3.9-7.4,6.2-15.7,7.5-22.6c1.2-6.6,1.9-13.3,2.1-20.1
				c5.2-1.3,10.4-2.7,15.7-3.8l-0.5-2.2c-5.1,0.9-10.1,2-15.2,3.2c0.1-7.9-0.5-15.7-1.9-23.5l-3.1,0.5c1.3,7.8,1.9,15.8,1.8,23.7
				l-4.4,1.1l-0.5-1c-5-10.1-12.3-18.9-21.4-25.6c0.2-16-3.4-33.2-12.1-54.2l-1.8,2.4c6.4,22.6,9.1,37.9,9.2,49.7
				c-6-18.9-24.7-30.4-24.9-30.6l-1.3,2c0.3,0.2,24.6,15.2,25.5,38.6c-1.1,8.6-3.8,15.8-7.4,23.6l-3,5.6c-0.5,1-1.3,1.8-2.2,2.3
				c-0.9,0.6-2,0.9-3.1,0.9c-1.1,0-2.1-0.3-3.1-0.8c-0.9-0.5-1.7-1.3-2.2-2.3c-2.1-3.6-4.5-7.7-6.7-11l-2.2-3.4
				c6.8-4.9,15.7-8.7,27.6-10.5l-0.3-2.4c-12.2,1.9-21.4,5.8-28.4,11l-2.2-3.4c6.4-9.6,14.3-19.3,24-29.5l-2.8-2.7
				c-7.9,8.3-15.3,17.2-22,26.5c3.3-13.2,1.8-27.2-4.5-42.1l-2.1,0.9c6.2,14.7,7.6,28.4,4.2,41.5c-9.2-14.8-21.6-34.9-21.6-34.9
				l-3.4,2.3l15.1,25.5c-3.2-2.6-6.7-4.8-10.4-6.7c-0.5-1.2-0.7-2.5-0.7-3.8H409c0,0.8,0.1,1.7,0.2,2.5c-1.5-0.7-3-1.4-4.6-2
				c-0.2-1.5-0.4-3.1-0.5-4.5l-7,2c-5.3-1.6-10.7-2.6-16.2-3.1l-0.2,2.4c5.4,0.5,10.8,1.6,16,3.2c1.3,15,1.7,30,1.3,45
				c-3.1-7.1-7.5-13.6-12.8-19.3c-0.1-4.7-0.5-9.3-1.3-13.9l-3.1,0.5c0.5,3.3,0.9,6.6,1.2,10.1c-7.2-6.9-15.2-12.7-24-17.4l-2.7,2.3
				c8.9,5.6,18.7,12.8,26.7,21c-0.1,6.2-0.9,12.3-2.2,18.3c-2.6-14.2-13.7-29.9-22.7-35.6l-1.3,2c10.3,6.6,23.2,26.7,22.1,41.3
				c-1.4,4.9-3.1,10.4-5.3,16.5l1.5,0.5l-18.8-6.7c-1.3-1.5-2.5-3.1-3.5-4.9c-1.6-6.3-0.6-12.7,0.5-19.9s2.3-14.9,1.1-23.7l-2.4,0.3
				c1.1,8.5,0,15.8-1.1,23c-0.7,4.6-1.4,9.2-1.3,13.6c-4.4-11.3-4.9-23.4-4.9-23.4l-1.7,3.5c-0.2,4,0.9,9.6,2,14.7l-13-8.7l-1.3,2
				l15.2,10.1c0.6,2.4,1.3,4.6,1.8,6.3c0.1,0.4,0.1,0.8,0,1.2c-0.1,0.4-0.3,0.8-0.6,1c-0.3,0.3-0.6,0.5-1,0.6
				c-0.4,0.1-0.8,0.1-1.2,0l-13.8-3.7l-1.3,2.7c0,0,29.1,12.5,37.8,14.9c6.7,1.8,23.6,11.8,31.1,16.2c0.6,4.6,1.7,9.1,3.1,13.6
				c-9,3.8-15.4,6.9-19.4,8.9c-4,2-8.4,3.1-12.9,3.1h-9.8c-5.3-14.5-13.7-26-26.3-36.1l-1.5,1.8c12,9.6,20.1,20.6,25.2,34.3h-1
				l6.9,4.7h6.4c5.2,0,10.4-1.2,15-3.6c3.9-2,10.2-5,19-8.8c4.7,11.3,12.5,21.7,25.3,31.3l4.2-15.8c-9.5-5.6-15.8-12.1-19.7-19.4
				c0.2-16.2,2-30.2,5.6-43.2c3.7-11.1,8.4-21.7,17.2-29.9l0.5,0.7c0,0,10,32.1,8.3,47.4l-22,82.1l10.9,7.4l-38.9,153.6h69
				l-13.1-24.9l2.3-10.5l3.8-55.6h12.8l4-11.2l-3.8-1.4c-3.7-1.4-6.9-3.8-9.2-6.9c-2.4-3.1-3.8-6.9-4.1-10.8l-0.5-6.3l-2-27.6
				c-0.6-7.6-0.3-15.2,0.9-22.6l3.5-21.9c6-15.2,17.7-27.3,30.1-36.4c16.3-8.4,32.4-9.2,41.5-8.7v-2.4c-10.6-0.6-21.3,0.9-31.3,4.2
				c10.9-6.7,22.5-12,34.6-16.1L530.8,175.8z M397.1,176.7c-0.6,6.7-0.8,13.4-0.5,20.1l-21.2-7.5c6.5-17.9,9-30.3,9.6-40.4
				C392.5,157.4,397.6,166.9,397.1,176.7z M410.2,122.5c0.9,1.9,2,3.7,3.2,5.4c2.2,3.1,4.1,6.5,5.4,10c-4.2-2.5-8.5-4.6-13-6.4
				c-0.2-3.7-0.5-7.5-0.9-11.4C406.7,120.9,408.5,121.6,410.2,122.5L410.2,122.5z M408.5,213.3c-6.7-20.5-1.3-46.8-2.5-79.2
				c9.2,3.8,13.1,6.8,14,7.5c1.2,4.9,1.8,9.9,1.8,15C413.7,173.7,409.7,191.6,408.5,213.3z M415.3,126.6l-1.3-2
				c4.7,2.7,9,6.1,12.7,10.1l3.7,6.3c-0.1,0.2-0.1,0.3-0.2,0.5c-2.3,3.6-4.4,7.2-6.3,10.8C423.2,138.1,418.7,131.5,415.3,126.6z
				 M428.1,152.9c1.5-2.7,3-5.4,4.7-8.1l1.1,1.9C431.8,148.6,429.9,150.7,428.1,152.9z M500.6,151c-0.1,3.1-0.3,6.1-0.6,9.2
				c-0.6-2.8-1.4-5.6-2.5-8.2L500.6,151z M474.3,125.3c8.3,6.5,15.1,14.8,19.6,24.3c-5.3,1.4-10.7,2.9-16.1,4.6l0.2-0.3h-3.8
				c-0.4,0-0.9-0.1-1.3-0.3c-0.4-0.2-0.8-0.4-1.1-0.7c-0.3-0.3-0.5-0.7-0.7-1.1c-0.2-0.4-0.3-0.8-0.3-1.3v-2.1h-0.2
				C472.8,140.9,474,133.2,474.3,125.3L474.3,125.3z M460.1,223.8l1.6-9.5c3.1-18.9,7.9-37.5,14.4-55.5c6.3-2.4,12.6-4.4,19-6.3
				c2.3,5.4,3.5,11.2,3.4,17c-2,10.8-5.6,20.5-10.8,27.4C476.1,205,466.8,214,460.1,223.8z"/>
			<path class="st4" d="M429.3,114.1l3.6-0.9c6.2-1.5,12.7-0.6,18.3,2.4l0,0c3.7,2.1,6.9,5,9.2,8.6c2.3,3.6,3.7,7.7,4,11.9l2.3,30.9
				l19.4-9.7l0.8-57.1L415,85.7L429.3,114.1z"/>
			<path class="st15" d="M466.7,167l-3.4-44.7l41.1,8.9v46.9L466.7,167z"/>
			<path class="st4" d="M490.5,76.8c0,7.9-1.3,15.8-3.7,23.4l-124.9,30.3c-8.8-8.7-15.4-19.5-19-31.4c-3.7-11.9-4.3-24.5-1.9-36.7
				c2.4-12.2,7.7-23.6,15.6-33.2c7.9-9.6,18-17.2,29.4-21.9c11.5-4.8,23.9-6.7,36.3-5.5c12.4,1.2,24.2,5.4,34.6,12.3
				c10.3,6.9,18.8,16.2,24.7,27.2C487.4,52.2,490.5,64.4,490.5,76.8L490.5,76.8z"/>
			<path class="st4" d="M338.2,248l-8.3,1.1l6.8,7l-16.1,2.7l-11.7-9.6l27.6-7.8L338.2,248z"/>
			<path class="st4" d="M290.5,259.7l18.5-10.6l-11.4-18.3l-16.1,12.1L290.5,259.7z"/>
			<path class="st4" d="M335.1,224.1l-23.9,3c-6.7,0.8-11.5,7-10.7,13.7c0.8,6.7,7,11.5,13.7,10.7l23.9-3c6.7-0.8,11.5-7,10.7-13.7
				C348,228.1,341.8,223.3,335.1,224.1z"/>
			<path class="st15" d="M346.7,243l-25.6-4.7l2.5-6l-2.5-9.3c0,0-15,6.5-28.3,22.7l-6.9,5.4l4.6,8.6l17.1-9.8
				c1.2,0.6,2.4,0.9,3.7,1.1l9.4,7.8l16.1-2.7l-6.8-7l8.3-1.1c1.7-0.2,3.3-0.7,4.8-1.6C344.4,245.5,345.7,244.4,346.7,243L346.7,243
				z"/>
			<path class="st4" d="M367.1,56.6l-70.8,8.8c-20,2.5-34.2,20.7-31.7,40.8l0,0c2.5,20,20.7,34.2,40.8,31.7l70.8-8.8
				c20-2.5,34.2-20.7,31.7-40.8l0,0C405.4,68.3,387.1,54.1,367.1,56.6z"/>
			<path class="st4" d="M327.1,226.2c0,2.8-0.4,5.7-1.3,8.4l-44.9,10.9c-3.2-3.1-5.5-7-6.8-11.3c-1.3-4.3-1.5-8.8-0.7-13.2
				c0.9-4.4,2.8-8.5,5.6-11.9c2.8-3.5,6.4-6.2,10.6-7.9c4.1-1.7,8.6-2.4,13-2c4.4,0.4,8.7,1.9,12.4,4.4c3.7,2.5,6.8,5.8,8.9,9.7
				C326,217.3,327.1,221.7,327.1,226.2L327.1,226.2z"/>
			<path class="st4" d="M339.4,197.9c0.1,1,0.1,2.1-0.1,3.1l-15.9,6.1c-2.1-1.6-3.5-4-3.9-6.7c-0.3-2.6,0.4-5.3,2-7.4
				c1.6-2.1,4-3.5,6.7-3.8c2.6-0.3,5.3,0.4,7.4,2C337.7,192.9,339,195.3,339.4,197.9L339.4,197.9z"/>
			<path class="st4" d="M332.1,111.1c-8.6-3.3-18.1-3.1-26.5,0.5c-8.4,3.6-15.1,10.4-18.7,18.8c-3.5,8.5-3.6,18-0.3,26.5
				c3.4,8.5,9.9,15.4,18.3,19.2c3.3,1.4,6.8,2.2,10.3,2.5l26.3-61.8C338.7,114.5,335.5,112.6,332.1,111.1z"/>
			<path class="st4" d="M296.9,254.8c1.1,4.9,0.5,10-1.9,14.4l-36.4,0.3c-1-1.6-1.7-3.3-2-5.2c-1.3-5.3-0.4-11,2.5-15.6
				c2.9-4.7,7.5-8,12.8-9.3c5.3-1.3,11-0.4,15.6,2.5C292.3,244.8,295.6,249.5,296.9,254.8L296.9,254.8z"/>
			<path class="st15" d="M560.5,166.9c-0.6,9.2-4.5,17.9-11,24.5l-64.2-18.9c-0.7-3.4-1-6.8-0.8-10.3c0.6-10.1,5.2-19.5,12.8-26.2
				c3.7-3.3,8.1-5.8,12.8-7.5c4.7-1.6,9.7-2.3,14.7-2s9.9,1.6,14.3,3.8c4.5,2.2,8.5,5.2,11.8,9c3.3,3.7,5.8,8.1,7.5,12.8
				C560.1,157,560.8,162,560.5,166.9L560.5,166.9z"/>
			<path class="st4" d="M546.6,120.9c-3.8,13.8-12.6,25.6-24.6,33.4l-90.8-49.5c0-5.3,0.8-10.6,2.2-15.8c4.2-15,14.2-27.7,27.9-35.3
				c13.6-7.6,29.7-9.5,44.7-5.3c15,4.2,27.7,14.2,35.3,27.9C548.9,89.9,550.8,105.9,546.6,120.9L546.6,120.9z"/>
			<path class="st15" d="M542.2,132.1c-3.1-15.1-18.7-32.4-56-36.2L515.3,63l-47.8-1.9l-38.4,52.7l0.2,0.3l3.6-0.9
				c6.2-1.5,12.7-0.6,18.3,2.4l0,0c3.7,2.1,6.9,5,9.2,8.6c2.3,3.6,3.7,7.7,4,11.9v1.1L542.2,132.1L542.2,132.1z"/>
			<path class="st4" d="M299.1,260.7c-2.3,0-4.5,0.9-6.1,2.5c-1.6,1.6-2.5,3.8-2.5,6.1h17.2c0-1.1-0.2-2.2-0.6-3.3
				c-0.4-1-1.1-2-1.8-2.8c-0.8-0.8-1.7-1.4-2.8-1.9C301.3,260.9,300.2,260.7,299.1,260.7L299.1,260.7z"/>
			<path class="st4" d="M434.4,169.1c1.7,5.6,1.3,11.6-1.2,16.8l-42,2.9c-1.1-1.8-2-3.8-2.7-5.9c-1.5-6-0.6-12.3,2.4-17.6
				c3-5.3,8-9.3,13.9-11.1c5.9-1.8,12.2-1.2,17.7,1.5C428.1,158.6,432.3,163.4,434.4,169.1L434.4,169.1z"/>
			<path class="st4" d="M425,173.2l-33.9,15.7l-8.8,6.2l17.8,5.4l8.5-6c7.1-5,15.4-7.9,24.1-8.5l16.1-1.1
				C448.8,174.8,440.1,168.7,425,173.2z"/>
			<path class="st15" d="M435,171.7c-0.2-0.9-0.4-1.7-0.6-2.6c-1.5-4.9-4.6-9.3-8.7-12.3c-4.2-3.1-9.2-4.7-14.4-4.7l-3.9,19.6
				l19,4.9l-35.9,20.9l9.7,2.9l8.5-6c7.1-5,15.4-7.9,24.1-8.5l16.1-1.1C448.8,177.3,443.8,172,435,171.7z"/>
			<path class="st4" d="M460.5,70.6l-37.6,51.6l-38.5,6.7c-10.8,1.9-21,6.3-29.8,12.8c-8.8,6.5-15.9,15-20.9,24.8l-11.2,22.1
				l-7.7-10l21.2-59.4L460.5,70.6z"/>
			<path class="st4" d="M416.6,53.3l6.3,68.9l50.3-68.9H416.6z"/>
			<path class="st16" d="M406.6,87.7l12.3-3.1l-6.7,15.7l-7.9-9.2c-1.9,7.5-3.3,15-4.3,22.6l-48.4,4.2l-15.5,1.3l13.2-5.2l14.6-5.7
				c2.9-14.5,17.5-39.2,55.2-42.5l-69.6-26.7c8-13.8,20.2-24.8,34.8-31.3c14.6-6.5,30.9-8.2,46.5-4.9l10.3,66.5
				C430.1,68,413,76.1,406.6,87.7z"/>
			<path class="st16" d="M327.3,75.7L318.6,87l25.4,5.3c-7.8-14.4-2.4-33-2.4-33l-45.4,5.6c-6.7,0.9-13,3.5-18.2,7.7
				c-5.3,4.2-9.2,9.8-11.5,16.1l0,0l31.5,12.9l-13.4-13.9C295.8,74.1,316.7,70.5,327.3,75.7z"/>
			<path class="st4" d="M370.6,279.9h19.7C390.2,279.9,379.3,269.6,370.6,279.9z"/>
			<path class="st15" d="M328.7,129.6c0,0-1.3,7.4-2.4,17.2c-7.1,0.3-26.6-1.3-29.5-20.1l-4.8,40.4c3.6,3.9,7.9,7.1,12.8,9.2
				c3.2,1.3,6.6,2.2,10,2.5l7.7,10l11.2-22.1c7.7-15.3,20.7-27.2,36.5-33.5l0,0C370.3,133,349.6,127.7,328.7,129.6z"/>
			<path class="st16" d="M319.2,111.8l13.3-10.2C326.1,98.6,319.1,104.3,319.2,111.8z"/>
			<path class="st16" d="M292.7,231.4l9.8-14.7l-12.1-2.6l17.2-13.9c-2.5-0.7-5.1-1.1-7.7-1.1c-3.6,0-7.1,0.7-10.4,2
				c-3.3,1.4-6.3,3.4-8.8,5.9c-2.5,2.5-4.5,5.5-5.9,8.8c-1.4,3.3-2.1,6.8-2.1,10.4c0,3.2,0.5,6.3,1.6,9.2l15.4-15.4L292.7,231.4z"/>
			<path class="st16" d="M257.3,266.6l30.3-24.7c-3.1-1.9-6.7-3-10.3-3.1c-3.7-0.1-7.3,0.8-10.5,2.5c-3.2,1.7-5.9,4.3-7.8,7.4
				c-1.9,3.1-2.9,6.7-3,10.3L257.3,266.6z"/>
		</g>
		<path class="st5" d="M469.9,440.1l-10.8-7.7l32.4-10l-10.8,17.7H469.9z"/>
		<path class="st5" d="M482,406.3l-5.3-13.5l10.2,10.1L482,406.3z"/>
		<path class="st5" d="M498.3,431.2l17.3-12.6C505.5,416.1,498.3,418.8,498.3,431.2z"/>
		<g>
			<path class="st17" d="M182.8,380.5l3.6,16.8c0,0,1.5,16.1,2.2,19.3c0.7,3.2,2.4,3.2,7,5.8c3.9,1.9,8.1,3.2,12.4,3.8
				c1.4,0.2,5.1-4.2,8.7-7c3.6-2.7,7.7-4.9,10.1-7.3c2.4-2.4,2.2-2.6,2.1-4.8c-0.1-2.1,0.2-13.2,0-15.8c-0.2-2.6,0.9-2.1-11.6-10.9
				H182.8z"/>
		</g>
		<path class="st18" d="M202.4,404.8c0.6,2.5,0.9,3.7,2,5.4c1.1,1.6,2.7,3.7,2.4,5c-0.3,1.2-1.6,2.2-6,0.4c-4.4-1.8-4.9-3.3-7.3-4.9
			c-2.4-1.5-1.9-2.3-1.4-5.6C195.4,403.7,199,403.6,202.4,404.8L202.4,404.8z"/>
		<path class="st18" d="M215.3,404c-0.1,1.9,0.1,3.7,0.5,5.6c0.5,2.1,2.1,5.3-0.5,5.8s-4.9-0.2-6.4-3.2c-1.5-3-2.8-4.6-3.4-5.8
			c-0.6-1.2,0.2-2.4,1.3-5.1C207.9,398.7,212.3,400.4,215.3,404z"/>
		<path class="st19" d="M221.2,344.2c1.1,0.9,0.9,1.4,0.7,3.9c-0.2,1.7-0.2,3.4-0.2,5.1c0,2.1,0.1,6-2.2,7.3
			c-0.8,0.5-1.8,0.8-2.8,0.9c-1,0.1-2,0-2.9-0.2c-1.5-0.3-2.9-0.8-4.2-1.4c-1.2-0.7,1-14.5,1-14.5L221.2,344.2z"/>
		<path class="st20" d="M213.8,361.2c0.9,0.3,1.9,0.3,2.9,0.2c1-0.1,1.9-0.4,2.8-0.9h-0.6c-4.6,1.3-5.2-4-5.3-6.7
			c-0.1-2.6-0.2-7-0.2-7l-3,1.7c0.8,1.1,1.3,2.4,1.4,3.7c0.4,2.7,0.4,5.5,0,8.2L213.8,361.2z"/>
		<path class="st21" d="M221.4,345.6c0.2,0.8-1.4,1.9-3.5,2.4c-2.1,0.5-4,0.3-4.2-0.5c-0.2-0.8,1.3-4.9,3.4-5.4
			C219.2,341.6,221.2,344.7,221.4,345.6z"/>
		<path class="st22" d="M194.9,374.2c-12.4,0.3-14.1,0.1-14.9-1c-0.8-1.1-0.1-3.3,0.3-5.4c0.4-2-0.4-2.3,0.1-4.7
			c0,0-0.9-10.8-0.8-14.5c0.1-3.6-0.7-7.6,6.8-8.5c7.5-0.9,16.9-0.7,20.9,1.1c4,1.8,4.4,4.4,4.9,8c0.5,3.6-0.3,10.2-0.6,12.6
			c0.8,4.7,1.1,7.4,0,8.9C210.5,372.4,205.2,374,194.9,374.2z"/>
		<path class="st19" d="M212.2,349.3c-0.5-3.6-0.8-6.2-4.9-8c-4-1.8-13.6-1.9-20.9-1.1c-1.2,0.2-2.3,0.4-3.4,0.8
			c-5.5,1.7-6.8,5.9-7.5,8.6c0,0.3-0.1,0.6-0.3,0.9c1.4,0.2,3.9-0.8,5.2-1c1.2-0.2-0.7,2,0.2,3.7c0.9,1.7-2.5,10.2-2.5,10.2v1.9h1.9
			c-0.1,0.4-0.2,0.9-0.1,1.3c0.1,0.4,0.2,0.9,0.5,1.2c-0.4,1.6-0.9,3.4-0.6,4.7l31.3-1c0.3-0.1,0.5-0.4,0.6-0.6
			c1.1-1.5,0.8-4.2,0-8.9C211.9,359.5,212.7,352.8,212.2,349.3z"/>
		<path class="st23" d="M210.5,369.1c-0.9-4.1-1.3-7.8-1.8-8.4c-0.5-0.6-2.8-0.9-8.4-1.1c-5.6-0.2-5.6-1-6.8,3.9
			c-1.2,5-1.6,8.5-1.6,8.5l20,0.4L210.5,369.1z"/>
		<path class="st24" d="M186.4,290.2l-3.6-4.2c-0.6-0.8-2.1-2.4-2.9-2.2c-0.8,0.2-0.9,2.5-0.9,3.5l-0.3,5.6c-0.4,9-0.1,18,0.9,26.9
			l0,0l22.7-7.7C197.4,304.4,192.1,297.1,186.4,290.2L186.4,290.2z"/>
		<path class="st25" d="M186.4,290.2l-3.6-4.2c-0.6-0.8-2.1-2.4-2.9-2.2l17.4,29.9l5-1.6C197.4,304.4,192.2,297.1,186.4,290.2
			L186.4,290.2z"/>
		<path class="st26" d="M199,307.1c-1-1.5-5.8-1.2-11,0.5c-5.3,1.7-9.1,4.6-9,6.4l0.5,5.8l22.7-7.7L199,307.1z"/>
		<path class="st27" d="M196,304.5c1.2-1.8-0.1-4.8-2.9-6.8c-2.8-2-6.2-2.1-7.4-0.3c-1.2,1.8,0.1,4.8,2.9,6.8
			C191.4,306.1,194.7,306.3,196,304.5z"/>
		<path class="st28" d="M195.7,303.8c1.2-1.7-0.1-4.7-2.8-6.6c-2.8-1.9-6-2-7.2-0.3c-1.2,1.7,0.1,4.7,2.8,6.6
			C191.2,305.4,194.5,305.5,195.7,303.8z"/>
		<path class="st29" d="M192.9,302.2c0.9-1.3,0-3.5-2.1-4.9c-2-1.4-4.4-1.5-5.3-0.2c-0.9,1.3,0,3.5,2.1,4.9
			C189.7,303.4,192,303.5,192.9,302.2z"/>
		<path class="st29" d="M192.7,302.7c0.9-1.3,0-3.5-2.1-4.9c-2-1.4-4.4-1.5-5.3-0.2c-0.9,1.3,0,3.5,2.1,4.9
			C189.5,303.9,191.9,304,192.7,302.7z"/>
		<path class="st30" d="M196,330.7c19.6-6.7,33.9-16.7,32-22.3c-1.9-5.6-19.3-4.7-38.9,2c-19.6,6.7-33.9,16.7-31.9,22.3
			C159.1,338.3,176.5,337.4,196,330.7z"/>
		<path class="st31" d="M202.7,319c-0.5,0.9-4.5,2.8-8.9,4.4c-4.5,1.5-8.7,2.4-9.8,2c-1.1-0.4,2.6-2.8,8.8-4.9
			C198.9,318.5,203.4,317.8,202.7,319z"/>
		<path class="st31" d="M203.2,344.2l-15.1-4.7c-1.7-4.9-2.7-9.1-4.4-14.5l19-6.4C204.9,327.7,204.5,335.9,203.2,344.2z"/>
		<path class="st19" d="M199.6,345.3c-6.9-6.5-10.8-8.2-14-9c-0.3-0.1-0.6-0.1-0.9,0c-0.3,0.1-0.6,0.3-0.8,0.5
			c-0.2,0.2-0.3,0.5-0.4,0.8c-0.1,0.3-0.1,0.6,0.1,0.9c-0.4,0-0.7,0.1-1.1,0.3c-0.3,0.2-0.6,0.5-0.8,0.8c-0.2,0.3-0.3,0.7-0.3,1.1
			c0,0.4,0.1,0.7,0.2,1.1C182.2,343.3,199.6,345.3,199.6,345.3z"/>
		<path class="st32" d="M213.5,347.8c7.1-5.8,11.2-12.7,9-15.3c-2.2-2.6-9.7,0-16.8,5.8c-7.1,5.8-11.2,12.7-9,15.3
			C198.8,356.2,206.4,353.6,213.5,347.8z"/>
		<path class="st32" d="M196.6,353.1l-2.7-3.2l25.9-21.1l2.6,3.2l-9,15.4L196.6,353.1z"/>
		<path class="st33" d="M211.2,345c7.1-5.8,11-12.9,8.6-15.8c-2.4-2.9-10.1-0.5-17.2,5.3c-7.1,5.8-11,12.9-8.6,15.8
			C196.4,353.2,204.1,350.8,211.2,345z"/>
		<path class="st34" d="M219.8,328.8c-0.7-0.7-1.6-1.2-2.6-1.2c-1.8,6.1-8.7,16.3-14,22.1c2.9-1.3,5.5-3,7.9-5.1
			C218.2,338.8,222.1,331.7,219.8,328.8z"/>
		<path class="st35" d="M213.6,347.7c-1.3,1.1-2.8,1.5-3.2,1c-0.4-0.5-0.2-0.5-0.1-0.9l2.1-1.6l2-1.7c0.4-0.1,0.7,0,0.8,0.2
			C215.3,344.8,214.9,346.6,213.6,347.7z"/>
		<path class="st35" d="M206.6,350.2c-0.3,1-0.9,1.9-1.7,2.5c-1.4,1.1-2.8,1.5-3.2,1s-0.2-0.8,0.1-1.4
			C203.4,351.8,205.1,351.1,206.6,350.2L206.6,350.2z"/>
		<path class="st35" d="M223.5,332.8c-0.5,0.4-1.1,0.7-1.6,1c0.2-0.9,0.1-1.9-0.3-2.7l0.3-0.3c1.3-1.1,2.7-1.5,3.2-1
			C225.6,330.3,224.8,331.7,223.5,332.8z"/>
		<path class="st36" d="M182.9,341c-5.5,1.7-6.8,5.9-7.5,8.6c-0.7,2.1-1.7,4-2.8,5.9c-0.6,1.1-0.8,2.3-0.7,3.5
			c0.1,1.2,0.6,2.3,1.4,3.2c1.7,1.9,3,4.9,9.6,2.1c6.6-2.7,5.9-3.7,10.9-7.5c-1.3-3.7-3.7-6-5.2-6.6l-1.5,1.2
			c-1.6,0.2-3.1,0.8-4.5,1.7C183.6,351.2,184,346.2,182.9,341z"/>
		<path class="st19" d="M173.3,362.2c1.7,1.9,3,4.9,9.6,2.1c6.6-2.7,5.9-3.7,10.9-7.5c-0.7-2.2-2.1-4.2-3.8-5.7h-0.1
			c-1.2,1.1-5.2,3.4-6.5,3.4c-2.7,0.2-5.2,1.1-7.5,2.4c-1.8,1.3-3.9,1.9-4,0.6C171.8,359.2,172.3,360.9,173.3,362.2L173.3,362.2z"/>
		<path class="st37" d="M222.6,338.3c0.2,0.3,0.3,0.7,0.4,1.1c0,0.4,0,0.8-0.2,1.1l-1,1.7c-0.1,0.2-0.2,0.4-0.2,0.6
			c-0.1,0.5-0.1,1.9-0.2,2.9l-5.2,0.9l1.6-3.4c0,0-1.4-1.9-1.9-2.8c-0.1-0.2-0.2-0.5-0.2-0.7c0-0.3,0.1-0.5,0.3-0.7l1.7-2.6
			c0.1-0.1,0.2-0.2,0.4-0.2c0.2,0,0.3,0,0.4,0.1l2,1.9l-1.6-3.2c-0.1-0.2-0.1-0.4-0.1-0.6c0-0.2,0.1-0.4,0.2-0.5
			c0.2-0.2,0.6-0.4,1.1,0.2C221.1,335.4,221.9,336.8,222.6,338.3z"/>
		<path class="st38" d="M218.1,366.9c-2.2-3-5.6-2.5-9-1.5c-3.4,1-7.1,2.5-10.7,3.5c-0.7,0.2-1.3,0.6-1.7,1.2
			c-0.4,0.6-0.6,1.3-0.5,2l1.2,8.4h8.3c-0.4,3.1-0.2,6.3,0.4,9.4c0.3,1,0.3,2.1,0,3.1c-0.2,1.1-0.8,3.5-0.9,4.8
			c0,1.1,0.2,2.1,0.5,3.1v2c3.3,3.2,6.7,3.3,10.1,1.9c0,0,0.2-2.5,0.3-3.3c0.4-1,0.7-2,0.9-3c0.1-1.2,0.1-2.4,0-3.5
			c0.1-2.5,0.4-5,0.9-7.5c0.8-4,1.4-8.1,1.8-12.1C220.1,372.1,220.3,369.9,218.1,366.9z"/>
		<path class="st38" d="M189.6,390.7c0.8,3.1,1.2,3.8,1.2,6.2c-0.1,1.7,0.1,3.3,0.5,5c0.4,1.2,0.5,2.4,0.5,3.6
			c6.4,3.8,9.7,1.5,11.3-0.3l-0.4-2.2c0.5-1.5,0.6-1.8,0-4c-0.5-1.1-0.7-2.3-0.6-3.5c0-8.2-0.3-16.7-0.5-20.3
			c-0.2-3.6-0.8-6.2-2.8-8.1c-2-1.9-5.2-2.9-9.4-1.5c-4.2,1.4-8.6,3.9-9.3,5c-0.7,1-2.5,6.3-2.4,10.1h9.9
			C187.6,385.5,189.1,388.8,189.6,390.7z"/>
		<path class="st39" d="M202.2,328.6c0.2,2-0.1,3.7-0.7,3.8c-0.6,0.1-1.2-1.6-1.4-3.6c-0.2-2-0.3-3.7,0.6-3.7
			C201.5,325,201.9,326.5,202.2,328.6z"/>
		<path class="st40" d="M201.1,371.3c-0.3-1.6-1.1-3.2-2.3-4.4c-2.1-1.9-5.2-2.9-9.4-1.5l-2,0.8c-3.2,1.5,2.7-0.1,4.5,0
			c1.7,0.1,0.5,1.4-0.3,2.8c-0.8,1.4,1.2,1.5,2.4,2.2C195.2,372,197.8,366.4,201.1,371.3z"/>
		<path class="st19" d="M183,341.1h-0.1c-5.5,1.7-6.8,5.9-7.5,8.6c-0.7,2.7,1.7,1.4,2.9,1.6s2.8,1.2,1.3,1.1
			c-1.5-0.1-2.5-0.1-3.1,0.8c-0.6,0.9-1.3,1.6,0.2,0.9c1.9-0.7,3.9-1,6-0.9C183.6,351.2,184,346.2,183,341.1z"/>
		<path class="st20" d="M182.4,342c1.6,2.8,5.4,2,7.9,2.7c1.1,0.4,2.1,0.6,3.2,0.7l-0.3-0.7c-1.7-0.7-3.5-1.2-5.3-1.5
			C185,342.5,181.2,339.9,182.4,342z"/>
		<path class="st21" d="M215.9,340.4c0.5,0.9,1.9,2.8,1.9,2.8l-1.6,3.4l5.2-0.9c0.1-1,0.1-2.4,0.2-2.9c0-0.2,0.1-0.4,0.2-0.6l1-1.7
			c0.1-0.4,0.2-0.8,0.2-1.1c0-0.4-0.2-0.8-0.4-1.1c0.4,1.1,0.1,1.5-0.6,1.4c-0.7-0.1-0.8-0.2-0.9,1c-0.1,1.2,0,1.5-1,1.5
			c-1,0-1.1,0.7-1.7,0c-0.6-0.7-2.6-2.6-2.3-3.2c-0.2,0.2-0.3,0.4-0.3,0.7C215.7,339.9,215.8,340.2,215.9,340.4L215.9,340.4z"/>
		<path class="st37" d="M211.4,341.2c0.4-0.2,0.6-0.5,0.6-0.6c-0.1-0.1-0.4,0-0.8,0.2c-0.4,0.2-0.7,0.5-0.6,0.6
			C210.7,341.5,211,341.4,211.4,341.2z"/>
		<path class="st37" d="M222.4,323.8c0.4-0.2,0.6-0.5,0.6-0.6c-0.1-0.1-0.4,0-0.8,0.2c-0.4,0.2-0.6,0.5-0.6,0.6
			C221.7,324.1,222,324,222.4,323.8z"/>
		<path class="st20" d="M220.5,351.7c-1,1.1-2.2,2.1-3.3,3c-0.6,0.4-0.2,0.9,0.9,1.2c1.1,0.3,1.5-0.4,2-2
			C220.6,352.3,221.1,351,220.5,351.7z"/>
		<path class="st20" d="M184.9,360c-1.4,1.4-2.9,2.6-4.6,3.7c-1,0.5,0.1,0.8,1.7,0.4c0.6-0.2,1.3-0.5,1.8-0.9c0.5-0.4,0.9-1,1.2-1.6
			C185.7,360.3,186.4,358.6,184.9,360z"/>
		<path class="st20" d="M182.7,353.1c0-2.4-0.4-4.9-1.2-7.2c-0.6-1.5,0.6-0.9,1.3-0.2c0.7,0.7,1,2.9,0.9,4.5
			c-0.1,1.5-0.1,2.4-0.1,2.4L182.7,353.1z"/>
		<path class="st37" d="M188.7,350.4l1.3-1.2c0.1,0,0.2-0.1,0.2-0.2c0.1-0.1,0.1-0.2,0.1-0.3c0.5-1.8,0.3-1.7,0.8-2.5
			c2.1-3.4,2.3-3.6,2.8-3.6c0.6,0,1.2,0.1,1.8,0.3c0.2,0.1,0.3,0.2,0.4,0.3c0.1,0.1,0.2,0.3,0.2,0.5c0,0.2,0,0.3,0,0.5
			c-0.1,0.2-0.1,0.3-0.2,0.4l-1.3,2.5l1.5-1.3c0.7-0.7,1.1-1.4,1.5-1.3c0.4,0.1,1,1.1,0.2,2c-0.8,0.9-2.3,2.9-2.3,2.9
			s1.1,2.2,0.9,3.2c-0.2,1-0.7,2-3,3.7c-1.3-0.4-2.5-1.1-3.4-2.2C189.3,353.1,188.8,351.8,188.7,350.4z"/>
		<path class="st21" d="M196.7,346.6c-0.5,0.6-1.1,1.1-1.7,1.6c-0.3,0.2-0.8,0.4-0.9-0.2s-0.4-0.6-0.8-0.4c-0.4,0.2-0.6,0.4-0.7-0.2
			c-0.1-0.6-0.4-0.9-0.9-0.7s-0.9,0.4-0.7-0.1c0.2-0.5-0.2,0.7-0.6,2.1v0.2l0.6,0.7c0.5,0.7,0.7,1,0.4,1.4l-1.8,1.9
			c0.4,0.8,1,1.5,1.7,2.1c0.7,0.6,1.5,1,2.4,1.3c2.3-1.7,2.7-2.6,3-3.7c0.3-1.1-0.9-3.2-0.9-3.2s1.5-2,2.3-2.9
			c0.8-0.9,0.6-1.3,0.3-1.7C198.1,344.3,197.1,346.2,196.7,346.6z"/>
		<path class="st39" d="M196.3,330c0.6,2,0.6,3.9,0,4.1c-0.6,0.2-1.7-1.4-2.3-3.4c-0.6-2-0.9-3.8,0.1-4.2
			C195.1,326,195.7,327.9,196.3,330z"/>
		<path class="st40" d="M219.9,370.6c-0.3-1.3-0.9-2.6-1.7-3.7c-2.2-3-5.6-2.5-9-1.5l-1.8,0.6c1.9-0.6,5-0.6,5.5,0
			c0.5,0.6-0.3,1.4-1,2.5c-0.7,1.1,2.4,2.3,3.8,1.2C217,368.6,219.3,368.4,219.9,370.6z"/>
		<path class="st41" d="M205.8,380.5c0.3-2.4,0.7-4.7,1.3-7c0.2-1-1-0.4-1.7,0.5c-0.7,0.9-0.4,6.5-0.4,6.5H205.8z"/>
		<path class="st41" d="M187.6,380.5c0.1-2.6,0.3-5.2,0.7-7.8c0.2-1.1-1,0.5-1.4,1.2c-0.4,0.7,0,6.6,0,6.6H187.6z"/>
		<path class="st41" d="M195.1,376.1l3.6-1.1c0.8-0.2,1.3,0.6,0.5,2.2c-0.8,1.6-1.9,1.4-3.8,0.9
			C193.5,377.6,192.4,376.9,195.1,376.1z"/>
		<path class="st41" d="M215.5,374.6l3-0.7c0.6-0.1,1,0.8,0.4,2.3c-0.6,1.5-1.6,1.1-3.1,0.4C214.3,375.9,213.4,375,215.5,374.6z"/>
		<path class="st41" d="M201.6,402.8c-1.9,0.5-4.8,0.9-5.1,0.7c-0.3-0.2,1.5-1.7,2.7-2.6C200.5,400,203.4,402.3,201.6,402.8z"/>
		<path class="st41" d="M192.3,397.8c0.1,1.4,0.4,1.7,2.2,2.3c1.8,0.6,1.4-0.6,0-2.3C193.2,396,192.3,395,192.3,397.8z"/>
		<path class="st41" d="M215.4,400.7c-0.4-1.3-0.8-1.6-3.2-0.4c-2.4,1.2-1.9,1.9,1.2,1.8C216.5,402,215.5,401.3,215.4,400.7z"/>
		<path class="st41" d="M207.1,395.8c0.5-0.7,0.6,1.3,1.8,1.9c1.2,0.6,0.2,1.1-0.9,1.1C206.9,398.9,206.1,397.4,207.1,395.8z"/>
		<path class="st42" d="M193.6,410.7c2.4,1.5,2.9,2.9,7.3,4.9c4.4,1.9,5.7,0.8,6-0.4c0.1-0.3,0-0.6-0.1-0.9c0.1,0.9-1.4,0.7-4,0.3
			c-2.6-0.4-5.9-2.9-7-3.9c-1.1-1-3.2-1.6-3.8-3.4C191.5,408.9,191.8,409.6,193.6,410.7z"/>
		<path class="st42" d="M206.4,413.3c0,0.1,0,0.2,0.1,0.2C206.5,413.4,206.4,413.4,206.4,413.3z"/>
		<path class="st42" d="M216.7,412.9c0.2,0.9-0.7,1.1-3.1,1c-2.4-0.1-3.5-1.9-4.1-3.2c-0.7-1.6-1.6-3-2.8-4.1c-1-1.1-1.1-2-1-2.3
			c-0.3,0.7-0.3,1.4-0.1,2.1c0.6,1.2,1.9,2.6,3.4,5.8c1.5,3.1,3.8,3.8,6.4,3.2C217.8,414.8,216.9,414.2,216.7,412.9z"/>
		<path class="st37" d="M186.1,294.2H186l-1.1,1.6l1.1,1.6h0.1l1-1.6L186.1,294.2z"/>
		<path class="st43" d="M324.7,379.1l-49.9-10.4v-29.9c0-1.6,0.4-3.3,1.1-4.7c0.7-1.5,1.7-2.8,3-3.8c1.3-1,2.8-1.8,4.4-2.1
			c1.6-0.4,3.2-0.4,4.8,0l29,6.1c2.1,0.4,4.1,1.6,5.5,3.3c1.4,1.7,2.1,3.8,2.1,6V379.1z"/>
		<path class="st31" d="M289.4,327.2c-4.9-0.9-6.8-3.2-8.3-8.8c-1.5-5.6,1.9-9.6,5.4-15.1c3.4-5.5,6.6-8.1,13.8-9.1
			c7.2-1,13.8,0.8,16.4,4c2.6,3.2,4.1,5.7,4.8,12.8c0.6,7.2,3,13.9-4.2,16.4C309.8,330.1,302.4,330.1,289.4,327.2z"/>
		<path class="st21" d="M308.1,404.2c-11.3,0.8-37.4,1.1-47.7-4.9c-10.2-6-11.1-14-10.2-20.4c0.9-6.5,3.3-11.6,4.7-15.4
			c1.3-3.7,1.9-4.4,2.7-8.7c1.1-6.7,1.2-9.6,3.5-13.2c2.3-3.5,9.5-3.9,14.4-3.7c4.9,0.2,10.7,1,15.7,1.6c0,0,22.9,4,28.8,5.5
			c6,1.4,10.9,1.5,15.4,15.8C339.9,375.1,340.2,402,308.1,404.2z"/>
		<path class="st44" d="M313.6,367.1c-0.9,3.7-6.9,7.9-11,10c-4.1,2.1-9.8,3.5-18.6,1c-8.8-2.5-13.3-4.1-15.6-4.9
			c-2.3-0.7-4-1.9-3.1,4.1c0.9,6.1,5.2,22,5.2,22l13,4.9l32,9.2l12.4-35.6L313.6,367.1z"/>
		<path class="st44" d="M266.3,356.6c-1.3-5-2.8-9.7-4.1-8.4c-1.3,1.3-2,5.4-2.5,10.8c-0.5,5.5-5.1,18.5-5.1,18.5l11.2,7.4
			C265.5,377.5,263.8,369.3,266.3,356.6z"/>
		<path class="st45" d="M265.4,362.5c-0.9-2.8-1.9-5.5-3-8.1c-0.8-1.4-1.2,0.9-1.2,3.4S265.4,362.5,265.4,362.5z"/>
		<path class="st44" d="M330.2,349.9c-3.1-3.5-6.4-3.9-10.2-4.9c-3.8-0.9-22.6-4.4-27.5-5.2l0.4,0.6c1.6,2.1,1.5,3.6,1.5,5.6
			c0,1.9,0.3,1.8,1.8,2.1c1.5,0.3,2.7-1,3.9-1.5c1.2-0.5,2.6-0.2,4.6,0.4c1.9,0.6,2.9,3,4.2,5.7c1.3,2.6,4.2,7.5,6.9,7.9
			c2.6,0.4,3.9,0.8,5.5-1.9c1.5-2.7,3.5-6.5,5.6-7.2C328.9,350.8,329.7,350.7,330.2,349.9z"/>
		<path class="st31" d="M287.4,339.2c0-0.7,0-1.4-2.6-1.8c-2.6-0.4-3.4-0.6-5.6,0c-2.1,0.6-4.5,2.9-6.7,5.5c-2.8,3.4-5.1,7.2-7,11.2
			c-1.1,2.3-1.7,4.8-1.8,7.3c0.2,1.2,0.4,2.6,1.6,2.4c2.7-7.1,6.6-13.7,11.7-19.3c2.5-2.9,5.5-5.9,8.9-5.5L287.4,339.2z"/>
		<path class="st46" d="M285.2,412c-12.5-21.8-17.6-31.1-23.2-37.6c-5.6-6.6-9.3-8.2-15.2-8.3c-5.9-0.1-7.3-0.1-8.9,4.5
			c-0.7,2-1.1,4.1-1.2,6.2c-0.1,1.9,0.1,3.7,0.7,5.5c0.4,1.8,0.7,3.6,0.8,5.4c0.9,5.6,2.1,11.2,3.7,16.6c0.8,2.8,2,7.5,2.6,9.5
			c0.5,1.4,0.7,2.9,0.6,4.5c0,2.6-0.1,3.2,0.3,4.1c0.4,0.9,1.7,2.6,1.7,2.6s-0.3,1.3-0.9,3.3c-0.6,2,0.2,3.5,2.3,5.1
			c2.1,1.5,10.3,6.8,16.1,6.8h28.9L285.2,412z"/>
		<path class="st47" d="M288.5,422.7l-3.2-10.6c-4.7-8.1-8.3-14.6-11.3-19.7c-9.3-11.9-17-18.9-20.9-21.6c-3.9-2.6-4.4-0.8-1.8,3.5
			c2.5,4.4,3.7,8.9-1.1,6.7c-4.9-2.2-13.9-7.2-12.5,1.2c0.4,1.8,0.7,3.6,0.8,5.4c0.9,5.6,2.1,11.2,3.7,16.6c0.8,2.8,2,7.5,2.6,9.5
			c0.5,1.4,0.7,2.9,0.6,4.5c0,2.6-0.1,3.2,0.3,4.1c0.4,0.9,1.7,2.6,1.7,2.6s-0.3,1.3-0.9,3.3c-0.6,2,0.2,3.5,2.3,5.1
			c2.1,1.5,10.3,6.8,16.1,6.8h18.4L288.5,422.7z"/>
		<path class="st48" d="M242.4,409.3c0.2,1.5,0.6,2.5,1.7,2.7l2.9,0.5c0.9,0.1,1-0.4,0.9-0.8c-0.1-0.4-0.2-1.7-2.7-2.3
			C242.7,408.8,242.4,409.3,242.4,409.3z"/>
		<path class="st49" d="M246.9,410l-1.6-0.6c-2.6-0.6-2.8-0.1-2.8-0.1c0,0.1,0,0.2,0.1,0.2c0.9,0.5,1.9,0.7,2.9,0.6L246.9,410z"/>
		<path class="st50" d="M265.7,394.8c0.1-1.7,0.2-4.9,0.2-5.8c0-0.9-1.2-2.6-1.4-1.4c-0.2,1.2-1,3.4-1.6,1.1c-0.6-2.3-2-7.6-3.7-9.3
			c-1.7-1.7-2.4-1.5-1.6,0c0.8,1.5,3,5.3,4,7.8c1.2,3.9,2,7.9,2.5,11.9c0.3,2.6,1.9,12.2,2.2,14.3c0.3,2,1.3,5.9,1.8,7.9
			c1,3.2,1.7,6.5,2.2,9.8c0.4,4.2,0.5,4-1.6,4.4l-2.5,4.6h17c0,0-1.6-23.3-4.8-29.2C275.3,404.8,265.6,396.6,265.7,394.8z"/>
		<path class="st47" d="M325.9,416c-1.9-9.9-11.8-28.6-17.8-38.3c-6-9.7-10.5-10.4-15.8-10.4c-7-0.1-9,2.9-10.9,8.5
			c-1.3,4-1.8,8.3-1.5,12.5c0,2.5-1.1,8.2-1.1,10.6c-0.3,4.8-1.4,9.6-3.1,14.1c-1,2.7-1.6,5.2-1.2,7.7c-2.6,5.1-2,4.8-1.5,7.1
			c0,0-1.8,4-0.4,5.9c1.4,1.8,12.2,6.5,21.2,6.5h22.6C329.3,440.1,327.8,425.9,325.9,416z"/>
		<path class="st51" d="M249.9,426.8c2.8,1.1,6.3,3.7,8.9,5.4c2.6,1.6,6.3,2.2,9.8,2.3c0.1,1.6,0,5.6,0,5.6h-32.2
			c-5.2-1.1-7.4-3.1-6.2-6.3c1.2-3.1,2.3-3.3,6.1-2.8c2.6,0.4,5.3,0.5,8,0.3C246.2,431.1,248.3,429.3,249.9,426.8z"/>
		<path class="st51" d="M275.1,432.7c-0.3,3.4-0.9,7.4-0.9,7.4H297c1.9,0,2.4-1.6,2.6-2.8c0.2-1.2-0.9-3-2.6-4.2
			c-1.7-1.2-4.4-3.5-11.1-2.6C282.2,430.9,278.6,431.7,275.1,432.7z"/>
		<path class="st31" d="M313.5,342.9c-0.6,6.9-1.4,14.3-1.1,22.2c0.3,7.9,0.7,12.2,3.5,17.8c1.5-1.1,1.6-1.9,1.9-3.5
			c-1-5.4-1.4-11-1.1-16.5c0.3-5.7,1.6-16,1.6-18.8c-0.1-1-0.5-1.1-2.2-1.6C314.4,341.9,313.6,341.8,313.5,342.9z"/>
		<path class="st48" d="M239.3,392.8c-2.3,2.6-2.8,2.8-2.6,5.2c0.2,2.3,0.4,2.3,2.4,4c2,1.7,1.8,1,3.8,1s1.9-0.4,1.9-1.4
			s-0.3-2.1-4.5-3.3L239.3,392.8z"/>
		<path class="st48" d="M248,408.5c-0.1-0.4-0.3-0.8-0.7-1c-0.3-0.3-0.7-0.4-1.2-0.4l-5.8-1.1c0.1,1.6,0,2.4,0.8,2.8
			c1,0.5,2.1,0.8,3.2,1c0.9,0.1,1.8,0.1,2.6,0C247.7,409.8,248.1,409.3,248,408.5z"/>
		<path class="st49" d="M246.2,407.1l-5.8-1.1v0.5c1.5,0.6,3.2,1,4.9,1.1l1.7-0.3L246.2,407.1z"/>
		<path class="st48" d="M238.4,401.4c-0.2,2.5-0.2,3.3,1,4c1.3,0.6,2.6,1.1,3.9,1.4c0.9,0.2,1.9,0.2,2.8,0.2c0.7,0,1.2-0.5,0.8-1.7
			c-0.4-1.2-1.3-1.7-4-2.3C241.4,402.7,239.8,402.1,238.4,401.4z"/>
		<path class="st49" d="M244.5,403.4l-1.6-0.4c-1.6-0.4-3.1-0.9-4.6-1.6c0,0.2-0.1,0.4-0.1,0.6C240.1,403.2,242.4,403.7,244.5,403.4
			z"/>
		<path class="st48" d="M289.4,321.9c-0.1,6.7,0.1,13.9,0.5,18h-1.3c-0.6,0-1.2,0.1-1.7,0.4c-0.5,0.3-0.9,0.7-1.2,1.3
			c-3.1,5.5-3.5,10.1-2.2,12.8c1.3,2.7,6.4,2.6,10.8,0c4.5-2.6,12.8-9.8,16.6-11.2c-0.2-3.2-0.2-10.8-0.2-10.8L289.4,321.9z"/>
		<path class="st49" d="M289.4,330.7c0.4,3.5,1.6,6.9,3.5,9.8c1.6,2.1,1.5,3.6,1.5,5.6c0,1.9,0.3,1.8,1.8,2.1c1.5,0.3,2.7-1,3.9-1.5
			c1.2-0.5,2.6-0.2,4.6,0.4c1.9-1.5,3.9-2.8,6.1-3.8c-0.2-3.2-0.2-10.8-0.2-10.8l-21.2-10.5C289.3,324.8,289.4,327.9,289.4,330.7z"
			/>
		<path class="st31" d="M304,292.1c1.2-3.7-2-7-7.4-6.8c-5.4,0.2-9.6,3.8-9.5,7.5c0.1,3.6,3.5,5.3,7.7,5.1S303,295.3,304,292.1z"/>
		<path class="st48" d="M308.2,296.5c8.5,0.4,10.6,8.9,11,12c0.3,2.7,0.1,5.4-0.5,8.1c-0.5,2-0.7,4.1-0.4,6.2c0.3,3-0.4,6-1.9,8.6
			c-2.6,4.8-4,7-9.9,7.4c-5.9,0.4-8.5-2-13.1-6.2c-4.6-4.1-3.4-4-3.5-10c-0.1-6-0.3-8.5-0.5-11.6C289,305.5,290.8,295.5,308.2,296.5
			z"/>
		<path class="st52" d="M301.7,326.7c0.7,2.7,1.4,5.3,3.8,5.5c0.8,0.1,1.6,0,2.3-0.4c0.7-0.3,1.3-0.9,1.7-1.6
			c0.2-0.4,0.3-0.9,0.2-1.3L301.7,326.7z"/>
		<path class="st52" d="M301.9,326.2C301.9,326.2,301.9,326.2,301.9,326.2c0-0.1,0-0.1,0-0.2c0,0,0-0.1,0-0.1c0,0,0.1,0,0.1,0
			c1.3-0.3,2.7-0.2,4,0.2c0.7,0.4,1.5,0.8,2.3,1c0.4,0.2,0.8,0.4,1.1,0.7c0.3,0.3,0.5,0.7,0.6,1.2h-4L301.9,326.2z"/>
		<path class="st49" d="M318.6,317c-0.1-0.2-0.2-0.5-0.2-0.7c-0.2-0.5-0.6-1-1.1-1.3c-0.5-0.3-1-0.5-1.6-0.5c-0.7,0-2.7,0.5-4.5,0
			c-1.7-0.5-3.9-2.1-5.4-2.5c-1.2-0.3-2.4-0.3-3.5,0.1c-1.2,0.4-2.2,1.1-2.9,2c-1.3,1.3,0.8,2.2,2.2,3.4c1.4,1.2,3.8,2.4,6,0.3
			c2.1-2.1,3.2-1.8,3.6-1.3c0.4,0.5,0.7,2.2,1.1,3.8c0.4,1.6,2.4,3.9,4.1,3.4c0.4-0.1,0.7-0.2,1-0.5c0.3-0.2,0.5-0.5,0.7-0.9
			C318.1,320.7,318.2,318.8,318.6,317L318.6,317z"/>
		<path class="st53" d="M304.4,312.3l-12,1.7"/>
		<path class="st48" d="M314.1,316.5c0.6-0.2,1.2-0.1,1.7,0.1c0.4,0.2,0.3-0.5-0.3-0.7c-0.3-0.1-0.6-0.2-0.9-0.1
			c-0.3,0-0.6,0.2-0.8,0.3C313.4,316.5,313.1,316.8,314.1,316.5z"/>
		<path class="st48" d="M290.6,314.7c-3.8-1.9-4.8-2-5.7-0.8c-0.9,1.2-0.5,3.7,0,5.7s0.3,3.6,1.7,4c1.4,0.3,2.9,0.2,4.1-0.5
			L290.6,314.7z"/>
		<path class="st31" d="M317.3,300.6l-3.8-3.6l-2.9-0.9l-3.7-0.7l-6.4,0.7l-5.7,1.9l-3.9,3.1l-2.1,4.2l-0.6,6.9l1.5,1.9
			c3.5,1.8,5.3,1.2,10.5-3c5.3-4.2,9.8-7.3,9.5-11.5h0.5c1.6,2.2,2.9,3.2,4.9,5.6s4.4,5.2,4,9.2l0.8,0.4v-7.3L317.3,300.6z"/>
		<path class="st31" d="M306,314.3c-0.8-0.4-2-0.3-3.8,0.4c-0.1,0-0.2,0.2-0.2,0.3l0.3,0.2c2.7-0.1,3.4,0.5,3.8,0.8h0.5v-0.2
			c0-0.3,0-0.6-0.1-0.8C306.3,314.7,306.2,314.5,306,314.3L306,314.3z"/>
		<path class="st31" d="M316.2,317.1c-0.7-0.5-1.8-0.4-3.4,0.3c-0.1,0-0.1,0.2-0.1,0.3c0,0.1,0,0.1,0.1,0.1c0,0,0.1,0.1,0.1,0.1
			c2.4-0.1,3,0.4,3.3,0.7l0.3,0.2h0.2c0.1-0.1,0.1-0.1,0.1-0.2C316.8,318.5,316.6,317.3,316.2,317.1z"/>
		<path class="st31" d="M316.6,314.1c-0.9-0.3-1.8-0.2-2.6,0.2c-0.3,0.2-0.6,0.6-0.4,0.6c0.7-0.1,1.4-0.1,2.1,0
			c0.7,0,1.4,0.3,1.9,0.7c0.3,0.4,0.5,0,0.1-0.7c-0.1-0.2-0.3-0.4-0.5-0.5C317.1,314.2,316.8,314.1,316.6,314.1L316.6,314.1z"/>
		<path class="st31" d="M304.1,312c-1.6-0.1-2,0-1.5-0.3c0.5-0.3,1.6-0.7,3.5-0.3c1.1,0.1,2,0.5,2.8,1.2c0.4,0.4,0.1,0.6-0.1,0.8
			c-0.2,0.2-0.4,0-1.4-0.4C306.4,312.4,305.3,312.1,304.1,312L304.1,312z"/>
		<path class="st49" d="M305.3,322.8c1.1-0.2,2.2-0.1,3.2,0.4c0.9,0.4,1.9,0.7,2.8,0.6c0.7-0.2,0.9,0.5-0.6,1.5
			c-1.5,1-1.8,1.2-3.5-0.1C305.5,323.9,304.2,322.9,305.3,322.8z"/>
		<path class="st54" d="M302.8,326.1c1.6,0.7,4.8,1.9,6.4,2.4c1.6,0.5,1,0.9-1.1,1.7c-2.1,0.8-2.8,0.3-4.4-0.9
			C302.2,328.2,300.5,325.2,302.8,326.1z"/>
		<path class="st55" d="M309.2,328.6c-1.6-0.5-4.8-1.7-6.4-2.4c-1.6-0.7-1.1,1,0,2.4l6.3,1.3C310.3,329.4,310.4,329,309.2,328.6z"/>
		<path class="st49" d="M300.2,324.4c-0.9,1-0.3,1.7,0.3,1.2c0.6-0.4,1.1-0.9,1.5-1.4C302.5,323.7,301.4,323.3,300.2,324.4z"/>
		<path class="st56" d="M310.8,322.5c0-1-0.1-2-0.2-3c-0.1-0.6,0-1.2,0.2-1.7c0.1-0.3,0.2,0.1,0.3,1.1c0.1,1,0.7,2.4,0.7,3.3
			C311.8,323.1,310.9,323.5,310.8,322.5z"/>
		<path class="st48" d="M304.5,313.8c0.6-0.1,1.1,0,1.6,0.3c0.3,0.4,0.4-0.4-0.2-0.7c-0.2-0.2-0.5-0.3-0.8-0.3
			c-0.3,0-0.6,0.1-0.9,0.2C303.8,313.5,303.5,313.9,304.5,313.8z"/>
		<path class="st53" d="M309.8,316.7c1-2.5,0.5-5.1-1.2-5.8c-1.7-0.7-3.8,0.9-4.8,3.4c-1,2.5-0.5,5.1,1.2,5.8
			C306.6,320.7,308.8,319.2,309.8,316.7z"/>
		<path class="st53" d="M320,318.9c1-2.5,0.5-5.1-1.2-5.8c-1.7-0.7-3.8,0.9-4.8,3.4c-1,2.5-0.5,5.1,1.2,5.8
			C316.8,323,319,321.4,320,318.9z"/>
		<path class="st53" d="M309.8,315.6l3.6,0.8"/>
		<path class="st49" d="M290.2,316.8c-1.7-1.8-3.9-2.5-4.7-1.7c-0.3,0.4-0.5,0.9-0.6,1.4c-0.1,0.5,0,1,0.2,1.5
			c0.3,1.2,0.3,2.4,0.6,2.6c0.3,0.2,0.2-0.2,0.2-1.2c0-1,0.4-1.3,1-1.8c0.6-0.5,1.2-0.1,1.1,0.2c-0.1,0.3-0.9,0.5-0.9,1.4
			s0.4,1,1.3,1.5c0.9,0.5,1.3,1.2,1.5,1c0.2-0.2-0.9-1.6-1-2.1c-0.1-0.5-0.1-1,0.4-1.3C289.9,318,290.7,317.3,290.2,316.8z"/>
		<path class="st49" d="M312.2,328.8c0.1,1-0.2,2.1,0.4,1.7c0.6-0.4,0-2.2-0.2-2.5C312.2,327.6,312,328.1,312.2,328.8z"/>
		<path class="st56" d="M298.4,317.6l-1-1c-0.1-0.1-0.1-0.1-0.2-0.1c-0.1,0-0.1-0.1-0.2-0.1l-0.3,0.2c-0.1,0.1-0.2,0.2-0.2,0.3
			c0,0.1,0.1,0.3,0.2,0.4c0.3,0.4,0.6,0.7,1,1c0.1,0.1,0.1,0.1,0.2,0.1c0.1,0,0.1,0.1,0.2,0.1l0.3-0.2c0.1,0,0.2-0.2,0.2-0.3
			C298.5,317.9,298.5,317.7,298.4,317.6L298.4,317.6z"/>
		<path class="st57" d="M303.3,326.3l-0.5-0.2c-1.8-0.7-1.2,0.8-0.2,2.1L303.3,326.3z"/>
		<path class="st31" d="M304.5,306.4c0,0-5.3,5.7-7.9,7.8c-2.6,2.1-4,5.6-6.9-1.8l0.2,1c1.9,5,3.3,5,6.6,2.1c3.2-2.8,8.7-9,8.7-9
			L304.5,306.4z"/>
		<path class="st49" d="M284.5,343.8l4.1,1.2c0.7,0.3,0.2,1-1.2,1.2c-1.2-0.1-2.4-0.4-3.5-0.9L284.5,343.8z"/>
		<path class="st58" d="M245.9,440.1c-4.4-0.1-8.8-1.2-12.6-3.3c-2-1.1-3.1-0.8-3-0.1c0.4,0.8,1,1.4,1.7,1.8c0,0,0.1,0,0.1,0
			c0,0,0,0,0,0.1c1.4,0.7,3,1.2,4.6,1.5H245.9z"/>
		<path class="st58" d="M288.5,436c-4.1,0.9-8.4,4-12.5,4h21c1.9,0,2.4-1.6,2.6-2.8C297.1,433.1,292.6,435,288.5,436z"/>
		<path class="st59" d="M246.6,433.5c1.8,0.5,2.4-0.7,3.3-1.7c0.6-0.7,1.1-1.5,1.4-2.4l-2.2-1.4c-1.1,1.7-2.8,2.9-4.8,3.3
			c-2.7,0.2-5.4,0.1-8-0.3h-0.7C239.4,431.4,243,432.3,246.6,433.5L246.6,433.5z"/>
		<path class="st46" d="M301.6,375.5c-1.6-4.2-0.7-7.4,5.1,0c-5.4-7.7-9.5-8.3-14.4-8.3c-7-0.1-9,2.9-10.9,8.5
			c-0.2,0.5-0.3,0.9-0.4,1.4c0.5,1,2,0.6,3.6,0c1.6-0.6,6.3-2.2,8.5,0C295.3,379.4,303.1,379.7,301.6,375.5z"/>
		<path class="st60" d="M248.6,423.7c0.8-1.1,1.8-2.1,2.7-3c0.4-0.3-1.5-1.8-3.3-2.9C246.2,416.6,245.8,418,248.6,423.7z"/>
		<path class="st60" d="M253,417.3c1.6,2.6,3.9,4.7,6.7,6c0.8,0.4,1.9-0.3,2.9-2.9c1-2.6,0.3-2.7-3.8-3.4
			C254.7,416.2,251.5,414.9,253,417.3z"/>
		<path class="st60" d="M275.9,426.1c5.9-2.6,7-2.5,4-4.7c-2.9-2.1-3.8-3.1-3.5-0.8C276.7,423,273.8,427,275.9,426.1z"/>
		<path class="st50" d="M308.1,377.6c-0.4-0.7-0.9-1.4-1.4-2.1l0,0c-1.2-1.5,0.6,2.3,1.2,6.4c0.6,4,0,2.5-1.2-0.9
			c-1.2-3.4-2.6-8.4-2.5-3.8c0.1,4.6,0.3,9-0.7,13.3c-1,4.2-1.8,14.3-1.8,14.3h2.7l13-6.4c0.3-0.2,0.6-0.4,0.8-0.7
			c0.2-0.3,0.4-0.6,0.4-1C315.1,389.6,311.1,382.5,308.1,377.6z"/>
		<path class="st60" d="M242.2,386.8c2.6,1.9,5.2,3.7,7.8,2.2c2.6-1.5-1.9-2.6-5.3-3.6C241.4,384.4,240,385.2,242.2,386.8z"/>
		<path class="st60" d="M285.6,384.5c2.6,1.9,5.2,3.7,7.8,2.1c2.6-1.6-1.9-2.5-5.3-3.5C284.8,382.1,283.4,382.9,285.6,384.5z"/>
		<path class="st61" d="M244.9,401.6c-0.1-0.9-0.3-2.1-4.5-3.3l-0.7-3.2c-0.4,0.7-0.6,1.4-0.7,2.2c0.1,0.9-0.1,1.1,0.8,1.4l2.9,1
			C243.4,400,244.8,401,244.9,401.6z"/>
		<g class="st62">
			<path class="st49" d="M248,411.7c-0.1-0.4-0.2-0.8-0.5-1.2c-0.3-0.3-0.6-0.6-1-0.8h0.6c0.6,0,1-0.5,0.9-1.3
				c-0.1-0.4-0.3-0.8-0.7-1c-0.3-0.3-0.7-0.4-1.2-0.4c0.7,0,1.2-0.5,0.8-1.7c-0.4-1.2-1.3-1.7-3.8-2.3c1.8,0,1.7-0.4,1.7-1.4
				s-0.3-2.1-4.5-3.3l-0.4-2c-0.3,0.2-0.6,0.4-0.7,0.8c-0.2,0.3-0.2,0.7-0.2,1c0.1,3.9,0.5,4.7,1.5,5c0,2.7,0.6,3.4,1.6,4
				c0.1,0.6,0.3,1.2,0.6,1.7c0.3,0.5,0.8,0.9,1.3,1.3c0.3,0.8,0.6,1.5,1,2.2l1.9,0.3C248,412.6,248.1,412.1,248,411.7z"/>
		</g>
		<path class="st63" d="M395.8,296c3.9-0.5,5.4,0,7.3,1.3c1.6,1,3,2.2,4.4,3.5c0.6,0.7,3.8,1.8,5.5,2.5c1.1,0.3,2,0.8,2.8,1.5
			c0.8,0.7,1.4,1.6,1.8,2.6c1.1,2.7-1.2,4.7-2.7,5.2c-1.5,0.5-4.1,0.8-7.9-1.3c-2.1-1.1-3.9-2.6-5.2-4.6c-1.2-1.6-2.9-5-5.4-5.9
			s-4.6-1.8-5-3.1C391.1,296.5,393.5,296.2,395.8,296z"/>
		<path class="st63" d="M411.2,292c-2.6-2.9-4-3.4-6.4-3.8c-1.8-0.3-3.7-0.4-5.6-0.2c-1,0.1-4.1-1.1-5.8-1.7
			c-1.6-0.6-3.5-1.4-6.3-0.1c-2.7,1.3-2.1,4.4-1.4,5.8c0.7,1.4,2.6,3.3,6.8,4.2c2.3,0.6,4.7,0.6,7,0.1c1.9-0.5,5.4-1.8,7.9-0.9
			c2.5,0.9,4.5,1.7,5.8,1C414.5,295.7,412.7,293.9,411.2,292z"/>
		<path class="st64" d="M377.9,286.9c-1-1.9-2.4-3.4-4.2-4.6c-1.4-0.9-2.1-1.5-3.2-2.3c-1.1-0.8-3.9-2.9-6.4-0.6
			c-2.4,2.3,1.4,4.9,2.9,6c1.5,1.1,2.1,1.2,2.4,1.8c0.8,1.1,1.5,2.2,2,3.4c0.5,0.8,1.3,1.3,2.2,1.5c0.9,0.2,1.9,0.1,2.7-0.4
			C377.9,290.4,379.5,290,377.9,286.9z"/>
		<path class="st64" d="M382.8,285c1.9-2.1,4-3.8,6.4-5.3c1.9-1.2,3.3-1.3,4.6-0.6c1.2,0.7,1.2,2.1,1.1,3.2
			c-0.1,1.1-1.1,1.9-2.4,2.6c-1.6,0.9-3,2-4.4,3.2c-0.5,0.6-1.1,1-1.9,1.1c-0.7,0.2-1.5,0.1-2.2-0.2
			C382.5,288.6,380.7,287,382.8,285z"/>
		<path class="st63" d="M384,289.1c0.7,0.3,1.4,0.4,2.2,0.2c0.7-0.2,1.4-0.6,1.9-1.1c1.3-1.3,2.8-2.4,4.4-3.2
			c1.3-0.7,2.3-1.4,2.4-2.6c0.1-0.6,0.1-1.2,0-1.8c-1.3,0-2.5,0-3.7,0.2c-2.4,0.4-5,2-8.3,4.2l-0.8,2.2c0.2,0.5,0.4,0.9,0.8,1.2
			C383.1,288.7,383.5,289,384,289.1L384,289.1z"/>
		<path class="st64" d="M392.2,284c3.6-1.1,7-1.8,9.6,1.7c0.7,1,2.2,3.2,2.9,4c0.7,0.8,2.8,2.4,3.5,4.2c0.7,1.8,1.9,3.1,4.4,4.8
			c0.4,0.3,0.8,0.6,1.1,1.1c0.3,0.4,0.4,0.9,0.4,1.5s-0.1,1-0.4,1.5c-0.3,0.4-0.6,0.8-1.1,1.1c-1.5,1-3.6,1.2-7.2-1.4
			c-3.5-2.6-4.2-5.4-5.6-7.8c-1.3-2.4-3.4-5-5-5.9c-1.5-0.7-3.2-1.1-4.9-1c-0.9,0-2.9,0-2.5-0.8C387.9,286.2,391.1,284.3,392.2,284z
			"/>
		<path class="st63" d="M357.7,329.9c-1.6,7.1-0.5,12.4,4.5,12.1c5-0.3,6-5,6.1-10.3c0.1-5.4-10.5-6.8-10.5-6.8V329.9z"/>
		<path class="st65" d="M312.4,429.8c-5.6-3.9-11.9-7.7-14.3-10.4c-2.3-2.3-3.7-5.4-3.9-8.6c-0.3-3.5,0.2-7.6,2.1-9.1
			c2.6-1.7,5.6-2.7,8.7-2.9l3-0.2c1.1-0.6,2.4-1.1,3.6-1.4c1.8-0.3,4.1-0.9,13,0c8.8,0.9,21.5,2.9,21.5,2.9l-1.4,19L312.4,429.8z"/>
		<path class="st58" d="M319.7,427.4l25-8.3l0.4-5.7l-5.3-14.4l-10.9-1.4l-9.7,2.9c-7.4-0.1-16.2,1.4-20.4,3
			c-4.2,1.6-4.6,2.5-4.7,5.4c0,0.6,0,1.2,0.1,1.8l0,0c0,0.3,0.1,0.5,0.1,0.8c0,0.3,0.1,0.4,0.1,0.7c0,0.3,0.1,0.6,0.2,0.8v0.3
			c0.1,0.1,0.1,0.3,0.2,0.4l0.3,0.8c0.7,1.8,1.7,3.4,3,4.8c2.2,2.6,8.1,6.2,13.6,9.9L319.7,427.4z"/>
		<path class="st66" d="M326.5,409.8c-7.6-3.8-12.2-4.8-15.7-5.2c-3.4-0.4,2-2.1,4.1-1.4c4,1.5,7.8,3.2,11.5,5.2
			C327.3,409,326.5,409.8,326.5,409.8z"/>
		<path class="st63" d="M377.6,288.6c-0.7-2-2.1-3.7-3.7-5l-2.9-2.6c-1-0.9-3.6-3.4-6.3-1.3c-2.6,2.1,0.8,5.1,2.3,6.3
			c1.5,1.2,1.9,1.4,2.2,2c0.6,1.2,1.1,2.4,1.6,3.6c0.4,0.8,1.2,1.4,2,1.7c0.9,0.3,1.8,0.3,2.6-0.1
			C377.3,292.1,378.9,291.9,377.6,288.6z"/>
		<path class="st64" d="M375.5,288.8c0.1-2.3,0.7-4.6,1.6-6.8c0.9-1.7,1.6-3.5,2.1-5.3c0.8-2.1,2.2-3.8,4-5.1
			c2.3-1.4,3.5-0.7,4.2,0.8c0.7,1.5,0.3,3.1-1.6,5.7s-2,3.5-2,5c0,1.6-0.2,3.2-0.8,4.7C382.5,289.2,378.8,292.5,375.5,288.8z"/>
		<path class="st63" d="M383.9,283.1c0-1.4,0.2-2.5,2-5c0.7-0.8,1.2-1.8,1.6-2.7c0.2-1.4-0.7-0.6-1.3,0.3s-2.2,1.9-3.2,2.9
			c-1,1-1.2,1.6-1.9,3.5c-0.7,1.9-1.1,3.6-0.2,4.5l2.4,0.5C383.7,285.9,383.9,284.5,383.9,283.1L383.9,283.1z"/>
		<path class="st64" d="M369.8,290.3c-4.9-0.3-7.9,0.2-10.7,2.5c-1.1,0.9-2,2-2.7,3.3c-0.7,1.3-1.1,2.7-1.1,4.1
			c-0.3,2.8-0.4,6.2-0.8,7.5c-0.4,1.3-1.4,2.2-2.1,3.8c-1,2.2-1.3,4.6-1.1,7c0.1,2.3,0,4.7-0.4,7c-0.4,2.3-1.2,5,0,6.9
			c1.2,1.9,3.2,2.2,5.7,1.3c2.4-0.9,2.9-2.2,3.5-4.1c0.6-1.9,2.4-22.5,2.4-22.5l2.7-8.2l7.8-4.6L369.8,290.3z"/>
		<path class="st63" d="M368.9,295.4c0,0-3-3.3-8.2,2.8c-2.2,2.8-3.4,6-3.7,10.7s-2.6,13.9-2.3,17.3c0.2,1.8-0.9,5.2-1.1,7.9
			c1,0.1,2,0,2.9-0.4c2.5-1,2.9-2.2,3.5-4.1c0.6-1.9,2.4-22.5,2.4-22.5l2.7-8.2l3.9-2.3L368.9,295.4z"/>
		<path class="st64" d="M385.9,287.7c3.3-1.2,4.5-1.5,6.7-1.4c1.1,0,2.2,0.3,3.2,0.8c1,0.6,1.8,1.4,2.4,2.3c1,1.6,2.2,3,3.5,4.1
			c1.6,1.5,2.7,3.4,3.1,5.6c0.7,2.8,1.3,5.8,1.7,6.7l3,6.1c1.6,3,2.4,6.4,2.4,9.8c0.1,2.2,0,4.3-0.3,6.5l-6.1,3.3l-5.5-0.9
			l-0.3-14.2l-10.7-22.7l-3.4-2.2L385.9,287.7z"/>
		<path class="st63" d="M389.1,293.8l10.7,22.7l0.3,14.2l5.5,0.9l6.1-3.3c0.3-2.1,0.4-4.3,0.3-6.5c0-3.4-0.9-6.8-2.4-9.8l-3-6.1
			c-0.2-0.5-0.5-1.7-0.9-3.2c1.3,1,2.8,1.7,4.4,2c-3.6-1-6.2-7.5-8.5-9.3c-2.3-1.8-4.8-2.9-6.6-6.5c-1.8-3.5-3.7-3-5-2.7
			c-1.2,0.3-1.7,1.1-3.2,0.6c-1.5-0.5-3.2-1-1.7,0c1.5,1,1.6,1.9,2.1,4v1.7L389.1,293.8z"/>
		<path class="st67" d="M440.6,333l8-1.2l10.3-3.4c0.1,0,0.2-0.2,0.2-0.4v-1.8l-18.6,4.1L440.6,333z"/>
		<path class="st68" d="M440.5,331.3l7.7-1l10.8-3.3v-0.8l-18.6,4.1L440.5,331.3z"/>
		<path class="st69" d="M374.6,335.2c-11.7,0.8-18.2,0.5-24.5,6.3c-4.1,3.8-7.9,7.8-11.4,12c-0.8,0.8-6.4,3.2-10.4,4.5
			c-1.1,0.3-2.1,0.8-2.9,1.6c-0.8,0.8-1.4,1.7-1.7,2.8c-3.6,0.5-7.5,4-8.2,8.7c-0.3,2.6,0.4,5.2,1.9,7.3c1.5,2.1,3.8,3.6,6.3,4.2
			c5.3,1.3,9.5-2.5,13-6.4c10.8-3.4,21.1-8.2,26.9-11.7S380.1,354.2,374.6,335.2z"/>
		<path class="st70" d="M365,348.2c3,1.4,6.6,2.9,9.9,4.1c1.5-4.1,1.9-9.7-0.3-17.1c-5,0.3-9,0.5-12.5,1
			C356.8,337.5,355.7,343.9,365,348.2z"/>
		<path class="st71" d="M351.6,352c-2.3,3.8-8.8,8.8-11,8.8H333c-2.5,0-6.1,0.3-3.5,0.9c2.5,0.6,3.4,0.8,1.8,1.1
			c-2.6,0.4-5.2,1.2-7.6,2.4l-2,16.6l2,0.7c5.3,1.3,9.5-2.5,13-6.4c7-2.2,13.9-5,20.5-8.2l9.2-15.1l-14.1-2.7L351.6,352z"/>
		<path class="st72" d="M331.2,364.5c-3.3-1.2-8.4-1.2-11.6,2.3s-2.1,9-0.1,11.6c0.9,1.2,2,2.2,3.4,2.8c1.4,0.6,2.8,0.8,4.3,0.7
			c3.1-0.1,8.5-3.2,9.9-7.3C338.4,370.5,336.9,366.6,331.2,364.5z"/>
		<path class="st73" d="M325.4,376.6c-3.4,0.1-7.7-1.9-7.9-4.2c0,2.2,0.7,4.3,1.9,6.1c0.9,1.2,2,2.2,3.4,2.8
			c1.4,0.6,2.8,0.8,4.3,0.7c0.8-0.1,1.6-0.2,2.3-0.5C328.8,379.4,327.6,376.6,325.4,376.6z"/>
		<path class="st70" d="M356.4,364.7c-1.8-6.9-2.9-11.8-3.2-15.6c-0.3-3.7-1.2-2.7-2.6,1.2c-1.4,3.9-0.2,6.3,2.6,11.7
			C355.9,367.5,357.6,369.3,356.4,364.7z"/>
		<path class="st74" d="M338.5,366.6c2.4-1,4.7-2.4,6.8-4c1.6-1.3,3-1.2,3.5,0.4c0.5,1.6-1.2,3.4-3.2,5c-2,1.5-7.5,5-9,3.7
			C335.1,370.4,335.4,368.7,338.5,366.6z"/>
		<path class="st75" d="M408.8,330.2c2.2,0.2,4.2,1,5.9,2.4c1.7,1.3,3,3.1,3.8,5.1c2,5.7,3.2,11.5,3.6,17.5
			c0.8,10.4-1.2,24.3-2.7,30.4c-1.5,6.1-3.1,11.3-3.1,11.3c1.6,6.8,2.3,8.9-0.2,11.7c0,1.1-0.1,2.1-0.4,3.1c-2.6,1.1-28.2,2.1-44,0
			c-15.8-2.1-18.5-7.7-18.5-7.7l0.6-2.8c-1.1-1.6-0.2-3.2,1.1-5.2c0.7-3.6,1.4-8.5,1.8-10.7c0.7-4.6,0.2-8.3,0.1-12.6
			c-0.2-6-1.8-12.6,3.4-21.4c3.6-6.2,10.8-15.5,17.5-17.4C384.4,331.9,395.9,329,408.8,330.2z"/>
		<path class="st76" d="M418.5,337.7c-0.8-2-2.1-3.8-3.8-5.1c-1.7-1.3-3.8-2.1-5.9-2.4c-12.8-1.2-24.4,1.7-31.1,3.6
			c-6.7,1.9-10.9,7.7-14.9,13.3c0.7,0.4,1.4,0.8,2.1,1.1c9.2,4.4,22.8,8.9,22.8,8.9l-34.4,47.4c0.9,1.2,5,5.4,18.3,7.3
			c15.8,2.1,41.4,1.1,44,0c0.3-1,0.4-2.1,0.4-3.1c2.5-2.8,1.8-5,0.2-11.7c0,0,1.6-5.4,3.1-11.3c1.5-6,3.5-19.9,2.7-30.4
			C421.7,349.2,420.4,343.3,418.5,337.7L418.5,337.7z"/>
		<path class="st75" d="M382.8,368.5c4.5-1.2,8.5-2.2,11-2.6c2.5-0.4-0.2,1.9-2.4,2.9c-4.9,2-10.2,3-15.5,2.9
			C368.3,371.8,377.6,369.8,382.8,368.5z"/>
		<path class="st77" d="M411.2,360.6c-2.6,3.5-5.4,6.9-8.4,10.1c-2.2,2.5,3.2,1.1,7.3-2.2S416.1,354.4,411.2,360.6z"/>
		<path class="st77" d="M400.4,405.2c-3.3,1.3-10.1,4.1-12.1,4.8c-2,0.6-5.4-0.8-7.6-1.9c-2.2-1.1,4.5-0.9,9.6-2.1
			C395.4,404.6,404.8,403.4,400.4,405.2z"/>
		<path class="st69" d="M399.7,329c14.5-4.4,19.5-4,24.2,2.1c3.6,4.6,5.5,10.2,5.5,16c0.1,4.7,0.2,9.8,0.4,11
			c0.2,1.2,2.9,5.3,3.8,7.3c0.9,2,0.4,3,0,6.1c2.5,5.9,1.2,6.9,0.5,9.6c-0.7,2.7,1,13.3-10.1,12.7c-11.1-0.5-11.8-11.1-12.6-16
			c-0.8-4.9-1.2-15,6.5-15.6c-4.2-6.5-5.3-9.1-6.7-13.2s-6-14.3-12.2-16.4L399.7,329z"/>
		<path class="st70" d="M423.5,348c-1.1,1.7-2.3,4.2-6.5,10.3l1.5-0.4c5.5-4.4,5.8-7,5.8-8.5C424.3,347.9,424.5,346.3,423.5,348z"/>
		<path class="st3" d="M419.2,357.6c0.6,0,1-0.5,1-1c0-0.6-0.5-1-1-1c-0.6,0-1,0.5-1,1C418.2,357.1,418.6,357.6,419.2,357.6z"/>
		<path class="st78" d="M364.6,296.4c6.8-4.2,17.9-6,24-5.7c6.1,0.3,6.7,1.7,9.4,6.9c0.7,1.3,1.5,2.4,2.4,3.5
			c2.9,3.5,3.8,4.2,3.3,11c2.2,2,3.9,4.4,3.9,8c0,3.6-1.2,6.8-4.5,11.3c-6.7,9.5-15.5,14.4-32.3,7c-14.8-6.5-13.4-13.4-13.3-16.4
			c0.1-3,0.3-7.5,1.1-14.3C359.7,301,360.5,299,364.6,296.4z"/>
		<path class="st55" d="M370.3,319.1c-1-3.5-3-6.6-5.7-9c-2.3-1.8-3,0-3.1,2.4c-0.1,2.4,0.4,5.8,3.8,7.3
			C368.8,321.4,370.8,320.9,370.3,319.1z"/>
		<path class="st55" d="M398.8,304.8c0.2,2.1,0.3,3.7,0.5,5.7c0.2,1.9,0.5,3.2,1.3,2.8c0.8-0.4,1.3-1.4,1.7-3.3
			c0.3-0.9,0.3-1.9,0.2-2.9c-0.2-1-0.5-1.9-1.1-2.7C400.5,302.9,398.6,301.8,398.8,304.8z"/>
		<path class="st79" d="M397.1,326.2c0,0,0.1-8.9,0-14.7c-0.1-5.8,0.4-14.9-2.3-18.7c-1.5-1.4-3.3-1.9-6.2-2.1
			c-6.1-0.3-17.2,1.4-24,5.7c-2.4,1.6-3.6,2.6-4.5,4.8c1.5-3.6,5.8,1,8.4,5.8c2.6,4.8,5,9.1,10.3,24.6l11.6,0.9L397.1,326.2z"/>
		<path class="st80" d="M387.8,299c6.4,0.3,8.7,3.1,9.2,3.9c-0.2-4-0.7-7.9-2.2-10.1c-1.5-2.2-3.3-1.9-6.2-2.1
			c-2.5-0.1-5.1,0-7.6,0.4L387.8,299z"/>
		<path class="st81" d="M380.6,313.7c1.1,2.3,1.3,3.3,3,3c0.7-0.1,1.4-0.5,1.9-1c0.5-0.6,0.7-1.3,0.7-2c0-1.7-0.2-4.2-0.2-4.2
			c1.8,1.4,3.2,1.5,4.1,0.9c0.9-0.6,2.1-1.8,1.5-5.3c-0.6-3.4-10.3-5.3-10.3-5.3L380.6,313.7z"/>
		<path class="st80" d="M390.6,332.4l6.6-6.2c0,0,0.1-8.9,0-14.7v-1.2c-0.7,5.3-5.5,7.3-10.5,7.7c-5.1,0.4-8.4-0.5-14.7-4.7
			c2.6,5.9,5,12,7,18.1L390.6,332.4z"/>
		<path class="st82" d="M369.2,328.7c14.7,1.8,26.4,0.6,31.5-6.8c-0.7,2.4-1.5,4.7-2.6,7c-0.8,1.8-2.1,3.4-3.7,4.6
			c-1.6,1.2-3.5,2-5.4,2.2c-5.3,0.8-9.3-0.7-13.8-2.9C370.7,330.5,367.9,328.5,369.2,328.7z"/>
		<path class="st54" d="M378.5,332.9c3.3,1.5,6.9,1.9,10.4,1.2c3.4-0.6,6-3.1,6.4-4.1c0.4-1-2.5-1.1-2.5-1.1l-14.1,1.7L378.5,332.9z
			"/>
		<path class="st83" d="M374.3,329.8c1,1.6,2.3,2.9,3.9,3.8c0.7,0.2,1.3-1.5,1.7-2.7c0.1,1,0.2,1.3,1.4,1.4c2.7,0.3,8.8-1,10.3-1.6
			c1.5-0.6,1.5-0.9,1.6-1.5c1.1,1.2,2,1.5,2.4,1.1c0.4-0.4,0.6-1.3,0.7-3.5h-0.1C391.2,329.7,383.5,330.5,374.3,329.8z"/>
		<path class="st84" d="M385.6,324.6c-0.7-1.3-1.6-2.5-2.7-3.4c-0.8-0.6-0.8,0.2-0.6,1.2c0.2,1,2.1,2.2,3,2.8
			C386.2,325.8,386,325.3,385.6,324.6z"/>
		<path class="st84" d="M391.4,323.6c-0.1-1.6-0.2-3.1-0.2-3.9c0-0.8,0.4-0.2,0.7,0.4c0.3,0.6,0.3,0.9,0.2,1.7
			C392,322.6,391.4,324.5,391.4,323.6z"/>
		<path class="st85" d="M359.6,408.9c17.2-8.4,28-21.6,24.1-29.4c-3.8-7.8-20.9-7.4-38,1c-17.2,8.4-28,21.6-24.1,29.4
			C325.4,417.7,342.5,417.3,359.6,408.9z"/>
		<path class="st67" d="M383.2,377.6c1-0.9,0.9-3.7,0.9-6.5c0-2.7,1-4.7,4.8-7.1c3.7-2.4,51.8-31.1,51.8-31.1v-1.7L376,367.5
			L383.2,377.6z"/>
		<path class="st85" d="M384.1,379.8l-62.4,29.6l-4.9-11.8l62.7-29L384.1,379.8z"/>
		<path class="st68" d="M338.5,407.8l-16.9,1.6l-4.9-11.8l17.2-1.1L338.5,407.8z"/>
		<path class="st68" d="M344.4,380.9c-16.7,8.6-26.8,21.6-22.6,29c4.2,7.5,18.8,6.9,34.4,0.2L344.4,380.9z"/>
		<path class="st86" d="M354.8,396.9c17.2-8.4,28.1-21.3,24.4-28.9c-3.7-7.5-20.6-6.8-37.8,1.6c-17.2,8.4-28.1,21.3-24.4,28.9
			C320.7,406,337.6,405.3,354.8,396.9z"/>
		<path class="st87" d="M323.3,382c-4,4.1-6.6,8.4-6.9,12l29.5,6.2c3.3-1.2,6.6-2.5,9.7-4.1c1.5-0.7,3-1.5,4.5-2.4L323.3,382z"/>
		<path class="st88" d="M342.6,368.6l35.2,8.8c1.9-3.3,2.5-6.5,1.6-9.1l-23.4-4.6C351.4,365,346.9,366.6,342.6,368.6z"/>
		<path class="st89" d="M340.9,380.1c7.4-2.4,12.7-6.7,11.8-9.5c-0.9-2.8-7.7-3.1-15.1-0.7c-7.4,2.4-12.7,6.7-11.8,9.5
			C326.7,382.2,333.4,382.5,340.9,380.1z"/>
		<path class="st68" d="M440.5,331.3l-0.1-1l-8.5-0.6l-71.7,38.4l0.1,1l8,2.6L440.5,331.3z"/>
		<path class="st90" d="M347.9,387.1c7.1-3.5,11.7-8.5,10.4-11.2c-1.3-2.7-8.1-2.1-15.2,1.4c-7.1,3.5-11.7,8.5-10.4,11.2
			C334,391.2,340.8,390.6,347.9,387.1z"/>
		<path class="st68" d="M358.5,377.1c-0.1-0.1-0.1-0.3-0.2-0.5c-1.5-2.5-8.4-1.8-15.5,1.7s-9.7,6.7-10.2,9.4
			c-0.7-2.6,3.6-7.3,10.2-10.5c6.6-3.2,14-4.4,15.5-1.7C358.5,376,358.6,376.6,358.5,377.1L358.5,377.1z"/>
		<path class="st91" d="M440.4,330.3l-8.5-0.6l-71.7,38.4l8.1,2.6L440.4,330.3z"/>
		<path class="st92" d="M363.7,366.2l8.9,2l1.3-0.7l-8.9-2L363.7,366.2z"/>
		<path class="st92" d="M372.4,361.5l8.9,1.8l1.4-0.8l-9-1.8L372.4,361.5z"/>
		<path class="st92" d="M381.1,356.9l8.9,1.6l1.3-0.8l-8.9-1.5L381.1,356.9z"/>
		<path class="st93" d="M390.3,351.9l8.6,1.6l41.5-23.3l-8.5-0.6L390.3,351.9z"/>
		<path class="st92" d="M391.3,351.4l8.9,1.4l1.3-0.8l-8.9-1.3L391.3,351.4z"/>
		<path class="st92" d="M410.4,340.3l8.9,1.8l1.3-0.8l-8.9-1.8L410.4,340.3z"/>
		<path class="st92" d="M420.4,335.7l8.3,1.1l1.3-0.8l-8.2-1L420.4,335.7z"/>
		<path class="st53" d="M325.6,388.4l106.9-58.6"/>
		<path class="st53" d="M328.4,389.4l106.6-59.5"/>
		<path class="st53" d="M331.1,390.7l106.3-60.4"/>
		<path class="st94" d="M449.3,326h-1l-11,2.4l-5.4,1.1l8.5,0.6l7.1-0.8h0.6l10.8-3.1c0.1,0,0.1-0.2,0-0.2H449.3z"/>
		<path class="st95" d="M335.4,391.7l-9.1-4.4c-0.4-0.2-0.8-0.3-1.2-0.3c-0.4,0-0.8,0.1-1.2,0.3h-0.1c-0.1,0.1-0.2,0.1-0.3,0.3
			c-0.1,0.1-0.1,0.3-0.1,0.4s0,0.3,0.1,0.4c0.1,0.1,0.2,0.2,0.3,0.3l8.5,4.8c0.4,0.2,0.8,0.3,1.2,0.4c0.4,0,0.8,0,1.2-0.2l0.6-0.3
			c0.1,0,0.2,0,0.3-0.1c0.1,0,0.2-0.1,0.3-0.2c0.1-0.1,0.1-0.2,0.2-0.3c0-0.1,0.1-0.2,0.1-0.3c0-0.1,0-0.2-0.1-0.3
			c0-0.1-0.1-0.2-0.2-0.3c-0.1-0.1-0.2-0.1-0.3-0.2C335.6,391.7,335.5,391.7,335.4,391.7L335.4,391.7z"/>
		<path class="st78" d="M422.7,365c-2.1-5.9-3.8-10.7-4.1-11.8c-0.3-1.1-0.3-1.5-0.4-3.7V343c0.1-1.5-0.3-1.9-2.3-4
			c-1.8-1.9-3.8-3.7-6-5.2c-1.2-0.7-2.3,0.1-3.6,0.8c-1.3,0.7-1.1,1.4-1.2,4c-2.3-0.6-2.6-0.7-4.2,0.2c-1.6,0.9-1.5,1.4-1.5,2.8
			c-1.7,0.5-2.1,0.9-2.5,1.6c-0.4,0.7-0.1,1.6,0,3.3c0.1,1.7,0.4,2.3,1.3,2.2c0.8-0.1,1.4-0.5,1.9-1.1c1.5,3.7,3.4,7.2,5.9,10.3
			c0.9,0.8,1.5,1.9,1.8,3c0.4,1.4,3.1,13.4,5.8,20.5c2.6,7.2,6.7,2.8,8.2-0.6C423.1,377.6,424.3,370.5,422.7,365z"/>
		<path class="st73" d="M324.7,380.7c0.9,0.2,1.9,0.3,2.8,0.1c0.9-0.2,1.8-0.5,2.6-1c2.9,0,4,0,5.1,0.3c1,0.3,2.3,0.9,3.6,0.8
			c0.5-0.1,1-0.3,1.3-0.6c0.4-0.3,0.7-0.8,0.8-1.2c0.1-0.2,0-0.4,0-0.6c-0.1-0.2-0.2-0.4-0.3-0.6c1.1,0.3,2.2,0.5,3.3,0.6
			c0.4-0.1,0.7-0.3,1-0.5c0.3-0.2,0.5-0.5,0.7-0.9c0.1-0.2,0.2-0.5,0.2-0.8c0-0.3-0.1-0.5-0.2-0.8c-1.3-1.3-2.4-2.3-3.7-3.4
			c-2.1-1.6-4.3-2.9-6.7-4C333.2,367.1,324.4,375.1,324.7,380.7z"/>
		<path class="st73" d="M348.5,369.6c-1.6-1.7-3.5-3-5.6-4c-1.8-0.6-3.6-1.1-5.5-1.5c-1.2-0.3-2.3,0.8-2.9,1.4
			c-0.6,0.6-1.1,0.7-3,0.8c-0.7,0-1.4,0.2-2,0.7c-0.6,0.5-0.9,1.1-1,1.9c-0.2,1.2-0.2,1.7-2.6,2.9c-2.4,1.2-2.7,2.1-2.9,3.6
			c-0.2,1.5-0.4,4.9,1.8,5.3l12.6-11.3c2.6,0.8,5.2,1.8,7.7,2.9c1.9,0.8,2.4,1,2.9,0.6C348.5,372.5,350.1,371.5,348.5,369.6z"/>
		<path class="st96" d="M345.5,371.5c-1.4-0.9-4.1-3.3-6.8-3.8c-2.6-0.5-3-0.7-2.9-0.1c0.1,0.6-0.1,0.9,0,1c0.9,0.3,1.7,0.6,2.4,1.1
			l0,0c2.3,0.7,4.6,1.6,6.8,2.6c1.9,0.8,2.4,1,2.9,0.6C348.5,372.5,346.9,372.3,345.5,371.5z"/>
		<path class="st64" d="M370.9,293.5c0.6,2.4,2.3,4.9,2.9,6.7c0.5,1.8,0.7,3.6,0.8,5.5c0.1,1.7,0.7,5.9,2.5,8c1.8,2.1,4,1.7,6.2-0.2
			c2.1-1.9,0.4-7.3,0-9.8c-0.4-2.5-0.9-6.5-1.2-9.1c-0.3-2.6-0.9-5.1-3.7-6.5c-2.8-1.4-4.2-1.5-6.4-0.8c-2.1,0.7-3.5,2.7-3.5,7.3
			C369.3,294.1,370.1,293.7,370.9,293.5z"/>
		<path class="st64" d="M371.7,287.4c-0.7-2.7-0.9-5.5-0.8-8.3c0.1-2.2,0.8-3.5,2-4.1c0.6-0.2,1.2-0.2,1.8,0
			c0.6,0.2,1.1,0.5,1.5,0.9c0.9,0.7,0.9,2,0.9,3.5c-0.2,1.8-0.2,3.7,0.1,5.5c0.2,0.7,0.2,1.5-0.1,2.2c-0.3,0.7-0.7,1.3-1.3,1.7
			C374.6,289.6,372.3,290.1,371.7,287.4z"/>
		<path class="st64" d="M377.1,287.5c3.6-3.1,4.7-2.7,6.3-2.3c0.7,0.1,1.4,0.4,1.9,0.9c0.5,0.5,0.9,1.1,1,1.9c0.6,1.8,1,3.7,1.4,4.9
			c0.7,1.6,1.4,3.2,2.2,4.8c0.7,1.3,2.1,3.3,2.2,5.4c0.1,2-0.1,4-2.6,4.7s-3.8,0.2-5.4-2.4l-2.4-4.4L377.1,287.5z"/>
		<path class="st64" d="M358.5,291.8c-3.7,1.1-4.9,2.2-6.2,4c-1.1,1.6-2,3.3-2.6,5.1c-0.3,0.9-2.8,3.1-4,4.5
			c-1.2,1.3-2.7,2.5-2.6,5.6c0.1,3,2.9,3.8,4.5,3.7c1.5-0.1,4.2-0.9,6.8-4.2c1.5-1.8,2.6-4,3-6.3c0.5-1.9,0.7-5.7,2.6-7.5
			c1.9-1.8,3.4-3.3,3.3-4.9C363.1,290.3,360.7,291.2,358.5,291.8z"/>
		<path class="st97" d="M309.2,440.1c-5.5,0-8.2-0.1-10.4-2.4l-6.4-6.5c-1.8-2-4-4.4-3.9-8.9c0.1-4.6,3.4-5.4,5.7-5.3
			c2.2,0.1,4.4,1.9,8.1,4.8c2,1.5,4.1,2.8,6.4,3.7c1.3,0.6,2.5,1.5,3.3,2.7C314.5,432.2,314.5,436.3,309.2,440.1z"/>
		<path class="st65" d="M414,412c0.3,10.1-0.9,17.8-3.1,23.4c-0.7,1.8-2,3.4-3.5,4.7h-98.1c-4.8-5.7-4.7-8.9-3.2-11.4
			c0.9-1.6,1.9-3.1,2.9-4.6c0.8-0.3,1.7-0.5,2.6-0.6c0,0,1.9-2.9,2.6-3.3c0.7-0.4,3.7-0.4,4.4-0.4c0.6,0,1.3-0.4,2.8-1.4
			c2.6-1.6,5.3-3.1,8.1-4.2c2.8-1,7.5-3.7,9.9-5c7.5-3.9,14.6-8.4,19.4-7.8c4.9,0.6,17.5,3,26.8,5.4l18,4.6L414,412z"/>
		<path class="st58" d="M414,412l-10.4-0.8l-18-4.6c-2.5-0.7-5.3-1.3-8.1-1.9c-2.8-0.6-16.8-0.1-19.8,0.4s-5.1,2.3-8.1,5
			c-3,2.6-10.6,9.7-14,12.3c-3.3,2.6-5.5,4-7.5,3.6c-2.4-0.5-4.8-1.2-7.2-2c-3.2-1.1-6.3-1.9-6.8-1.4l-2.4,2.9c0,0-0.9,0.5-5.5,2.4
			l-0.3,0.6c-1.4,2.5-1.5,5.8,3.2,11.4h98.1c1.6-1.2,2.8-2.8,3.5-4.7C413.1,429.8,414.3,422.1,414,412z"/>
		<path class="st98" d="M358.8,430.8c3.4-6.6,3.9-7.9,5.1-11.1c1.1-3.2,3-2.1,4.4,1.1c1.3,3.2-7.3,13.1-7.3,13.1L358.8,430.8z"/>
		<path class="st97" d="M373.2,426.6c-1.9-1.1-3.9-0.1-5.8,0.9c-2.9,1.3-6,2.2-9.2,2.8c-1.6,0.2-2.1,0.9-3.9,3
			c-1.8,2.1-3.5,4.7-11.2,6.7h24.3C375.7,431.4,375.1,427.8,373.2,426.6z"/>
		<path class="st68" d="M440.4,330.3l-0.4-0.6l-8.1-0.5l-0.6,0.2v0.6l8.5,0.6L440.4,330.3z"/>
		<path class="st77" d="M414,408.3c-6.8,0.1-9.4,0.4-11.2,0.5c-1.8,0.1-2.2-1,4.1-4.1c6.4-3.1,6.7-1.4,7.1,0.5
			C414.3,406.2,414.3,407.3,414,408.3L414,408.3z"/>
		<path class="st99" d="M363.8,315.7c-0.8,0.8-0.4,2.4,0.9,3.8l0.6,0.3c1.8,0.9,3.3,1.1,4.1,0.8c0.8-0.3-0.2-2.5-1.5-3.7
			C366.7,315.7,364.6,314.9,363.8,315.7z"/>
		<path class="st99" d="M402.3,310.3c0-1.5-0.4-2.5-0.9-2.6c-0.5-0.1-1.4,1.6-1.5,3.7v1.4c0.2,0.4,0.5,0.6,0.8,0.4
			C401,313.1,401.9,312.1,402.3,310.3z"/>
		<path class="st100" d="M370,322.1c-0.2,0.5-1.4,2-3.8,0.9c-1-0.4-1.8-1.1-2.5-1.9c-0.7-0.8-1.2-1.7-1.5-2.8
			c-0.1-0.3,0-0.2,0.9,0.7c0.8,1,1.8,1.7,3,2.1c1.2,0.4,2.5,0.5,3.7,0.2C370.1,321.3,370.1,321.5,370,322.1z"/>
		<path class="st100" d="M400.1,315.5c0.1-0.9,0.1-1.1,0.3-1.1c0.4-0.1,0.8-0.3,1.1-0.6c0.3-0.3,0.6-0.7,0.7-1.1
			c0.4-1.2,0.5-1.1,0.6-0.5c0,1-0.3,2-0.7,2.9c-0.4,0.8-0.9,1.5-1.6,2C400.2,317.3,400,316.8,400.1,315.5z"/>
		<path class="st101" d="M364.4,316.9c0.3,0,0.4-0.7,0.3-1.6c-0.1-0.8-0.5-1.5-0.7-1.4c-0.3,0-0.4,0.8-0.3,1.6
			S364.1,317,364.4,316.9z"/>
		<path class="st102" d="M363.2,307c1.7,0.9,3.3,2.1,4.6,3.5c0.4,0.6,0.4,0-0.2-1.3c-0.6-1.3-1.7-2.8-2.8-3.1
			C363.6,305.8,362.2,306.5,363.2,307z"/>
		<path class="st74" d="M368.6,327.4c-0.2,1-0.1,2.1,0.2,3.1c0.3,0.7-0.3,0.8-1.5-0.2c-1.2-1-1.5-1.5-0.9-2.6
			C367,326.6,369.1,325.2,368.6,327.4z"/>
		<path class="st74" d="M401,321.8c0.1-0.6,0.1-1.3,0-1.9c0-0.4,0.6-0.3,1.3,1c0.7,1.3-0.1,2.1-0.8,3
			C400.8,324.8,400.8,323.8,401,321.8z"/>
		<path class="st103" d="M370.9,305.9c0.9,0.8,1.2,1.2,1.8,0.9c0.6-0.3,1.5-0.5,0.7-2.2c-0.8-1.7-1.6-1.5-2.3-1
			c-0.2,0.1-0.4,0.3-0.5,0.5c-0.1,0.2-0.2,0.4-0.2,0.6c0,0.2,0,0.5,0.1,0.7C370.6,305.6,370.7,305.7,370.9,305.9L370.9,305.9z"/>
		<path class="st104" d="M366,296.9c0.5,0.2,1,0.6,1.3,1.1c0.2,0.2,0.5,0.3,1.8,0c1.3-0.3,1.7-0.7,1.1-1.7c-0.6-1-0.9-1.2-2.2-0.7
			C366.7,296.1,365.5,296.5,366,296.9z"/>
		<path class="st103" d="M387.3,315c0.2,1,0.8,0.8,1.4,0.6c0.6-0.2,0.4-1.3,0.2-2.2c-0.2-0.9-0.8-0.7-1.2-0.4
			C387.3,313.3,387.1,313.5,387.3,315z"/>
		<path class="st78" d="M367.7,301.5c0.4,0.6,0.6,0.6,1.8,0.2c1.2-0.4,1.6-0.7,1.2-1.3c-0.4-0.6-0.2-1.5-2.2-1
			C366.5,299.9,366.6,300.1,367.7,301.5z"/>
		<path class="st105" d="M361.9,329.7c1.4-0.4,2.1-2.4,1.6-4.5c-0.5-2.1-2.1-3.5-3.5-3.2c-1.4,0.4-2.1,2.4-1.6,4.5
			C359,328.7,360.5,330.1,361.9,329.7z"/>
		<path class="st105" d="M405.9,322.6c0.7,0,1.3-1.8,1.3-3.9s-0.6-3.9-1.3-3.9s-1.3,1.8-1.3,3.9S405.2,322.6,405.9,322.6z"/>
		<path class="st106" d="M380,337.3c4.5,1.7,10,1.2,12.8-0.5c2.8-1.7,3-1.2,0.6,1.6c-2.4,2.8-5.9,2.8-8.9,2.3
			c-2.3-0.2-4.3-1.3-5.9-2.9C377.5,336.6,377.8,336.2,380,337.3z"/>
		<path class="st63" d="M383.4,303.6c-0.6-4.2-0.6-5.9-1.5-7.3s-0.7-4.5-0.9-6.1c-0.2-1.6-1.2-2.4-2.8-3s-0.9-0.4,0-0.5
			c0.6-0.1,1.2,0.1,1.7,0.4c0.5,0.3,0.9,0.8,1.1,1.4c0.6,1.3,1,2.7,0.9,4.1c0,1.6-0.2,2.1,0.3,2.9c0.6,1.1,1,2.3,1.2,3.5
			c0.1,1.5,0.1,4.8,0.1,4.8L383.4,303.6z"/>
		<path class="st107" d="M372.7,289.8c-0.3,0.8,0.4,2.3,1.3,3.4c0.7,0.8,1.2,1.8,1.4,2.8c0.2,0.9,0.8,0.6,1.2,0.5
			c0.4-0.1,1-0.9,0.4-2.2c-0.5-0.9-1-1.8-1.6-2.6c-0.4-0.7-0.4-1.6-0.8-2.3C374.3,288.7,373.1,288.3,372.7,289.8z"/>
		<path class="st63" d="M358.8,295.3c-2.1,1.1-2.3,2.9-2.8,5.1s-1,5.6-1.6,6.6c-1.1,1.9-2,3.9-2.6,6.1l-0.2,1c1.8-0.2,1.9-2.5,3-4.6
			c1-1.8,1.5-3.9,1.4-6c0.1-2.2,0.7-4.3,1.7-6.3C358.8,295,360.9,294.3,358.8,295.3z"/>
		<path class="st64" d="M369.1,285.5c-3.2-1.4-7.1-1.9-9.7-0.7c-2.6,1.2-3.2,1.4-4.7,1.5c-1.4,0.1-4.9-0.7-6.6,2.2
			c-1.7,2.9,0.5,4.2,2,4.7c2.2,0.7,4.5,0.7,6.7,0c2.9-0.8,4.9-1.2,7.2-0.8c2,0.2,3.9,0.3,5.9,0.3l2.2-4.4L369.1,285.5z"/>
		<path class="st63" d="M366,291.3c1,0.3,3.1,1.3,1.4,0c-1.7-1.3-3.9-1-5.3-0.8c-1.7,0.1-3.5,0-5.2-0.3c-1.5,0-3,0.4-4.2,1.3
			c-1,0.6-3.1,1.4-4.2,0.7c0.5,0.4,1.1,0.8,1.7,0.9c2.2,0.7,4.5,0.7,6.7,0l2.1-0.6h0.2C359.2,292.5,365.1,291.1,366,291.3z"/>
		<path class="st63" d="M370.9,293.5c-0.2-1.1-0.9-2.1-1-0.8v1.3L370.9,293.5z"/>
		<path class="st107" d="M355.7,292.8l-0.4,0.2h-0.1l-0.3,0.2l-0.4,0.2c-0.8,0.7-1.6,1.5-2.2,2.3c-1.1,1.6-2,3.3-2.6,5.1
			c-0.3,0.9-2.8,3.1-4,4.5l-0.6,0.6c-0.8,0.9-0.8,2.1,0.5,0.9c1-1,2-1.9,3-2.7c1.1-0.8,3-1.4,3.6-2.6c0.6-1.2,1.1-4.7,2.1-5.7
			c1-1,1.1-2.4,4.2-3.2C361.7,291.7,358.4,291.6,355.7,292.8z"/>
		<path class="st107" d="M359.9,285.5c1.7-0.6,2.5-0.7,3.2-0.5c0.7,0.2,1.7,0,2.3,0.5c0.6,0.5,0.4,1.2-0.4,0.8
			c-0.8-0.5-1.7-0.6-2.6-0.4c-0.6,0.2-1.8,0.8-2.7,0.5C358.8,286.1,358.8,285.9,359.9,285.5z"/>
		<path class="st64" d="M369.1,285.5c1.2,0.6,2.4,1.2,3.5,1.9l-1.7,1.4l-2.1-1.1L369.1,285.5z"/>
		<path class="st107" d="M372.9,275.8c-0.3,0.2-0.5,0.5-0.6,0.9c-0.1,0.3-0.1,0.7,0,1.1c0.1,0.4-0.2,0.9-0.1,1.1
			c0.1,0.2-0.1,0.7,0.3,0.7c0.4,0,0.4-0.7,0.4-1.1c0.1-0.5,0.2-0.9,0.4-1.3C373.6,276.9,373.9,275.3,372.9,275.8z"/>
		<path class="st63" d="M372.3,287.1c0.1-1.9,0.1-3.1,1.2-3.3c0.8-0.2,1.6-0.5,2.2-1.1c0.6-0.5,0.7-0.2,0.6,0.9
			c-0.1,1.1,0.3,2.3-0.8,2c-1.1-0.3-1.3-0.5-2,0.3C372.8,286.7,372.3,287.8,372.3,287.1z"/>
		<path class="st108" d="M396.7,346.7c0.2,1.7,0.4,2.3,1.3,2.2c0.8-0.1,1.4-0.5,1.9-1.1c1.5,3.7,3.4,7.2,5.9,10.3
			c0.9,0.8,1.5,1.9,1.8,3c0.4,1.4,3.1,13.4,5.8,20.5c2.6,7.2,6.7,2.8,8.2-0.6c1.5-3.4,2.7-10.5,1.1-16.1s-3.8-10.7-4.1-11.8
			c-0.3-1.1-0.3-1.5-0.4-3.7V343c0.1-0.4,0-0.8-0.1-1.1c-0.1-0.4-0.3-0.7-0.5-1c-1.8-1.9-3.3,0-3.5,1.5c-0.2,1.5-1.1,1.3-2.7,0.8
			c-1.6-0.5-2.9,0-3,1.6c-0.1,1.6-0.9,1.2-2.3,1c-1.4-0.2-1.6,1-1.7,2.9c-0.1,1.9-0.7,0.6-1.9-1.2c-0.8-1.4-1.7-2.8-2.7-4
			c-0.2-0.2-0.4-0.4-0.6-0.5c-0.2-0.1-0.5-0.2-0.8-0.2c-0.3,0-0.5,0-0.8,0.1c-0.3,0.1-0.5,0.3-0.7,0.5
			C396.4,344,396.6,345,396.7,346.7z"/>
		<path class="st109" d="M412.5,365.1h-1.7c2,7.2,4.7,17.6,6.3,20.4c1-0.2,1.9-0.7,2.6-1.5c-1.6-3.3-2.9-6.7-3.9-10.2
			C414.3,369.2,412.5,365.1,412.5,365.1z"/>
		<path class="st69" d="M400,347.8c-0.6-1.1-1.4-2.1-1.7-2.6c-0.3-0.5-0.3,0-0.4,0.4c-0.1,0.4,1.5,1.6,1.5,1.6l0.5,0.8L400,347.8z"
			/>
		<path class="st110" d="M405.8,343.5l-4-2.6c-0.8-0.5-2.5-1.6-2.5,0v0.8c1.1-0.3,2-0.6,2.8,0l3,2.2c0.4,0.3,0.5,0.9,1.5,0.7
			C407.6,344.4,406.4,343.8,405.8,343.5z"/>
		<path class="st110" d="M405,338.7c4,1.4,5.6,2.1,6.4,2.4c0.8,0.3,1.4,0.3,0.4-0.5c-1-0.8-2.8-2.6-4-3.7c-1.2-1.1-2.5-2.1-2.6-0.6
			C405,337.8,405,338.7,405,338.7z"/>
		<path class="st69" d="M407,339.5c-0.5-0.7-0.8-1.6-0.6-1.4l1.3,1.6L407,339.5z"/>
		<path class="st111" d="M408.8,349.6c-0.1,1,0.2,2,0.7,2.8c0.5,0.8,0.8,1.1,1.3,0c0.5-1.1,0.7-1.3,0.3-2.8
			c-0.4-1.5-0.9-1.6-1.4-1.6C409.2,348,408.8,348.6,408.8,349.6z"/>
		<path class="st112" d="M412.6,352.6c0,1.9,0,2.9,1,2.3c1-0.6,1.9-1.4,2.6-2.3c0.4-0.6,0.1-2.2,0-2.9c-0.1-0.7-0.6-0.7-1.7-0.7
			S412.6,350.9,412.6,352.6z"/>
		<path class="st109" d="M408.3,359.1c-0.1,0.3-0.1,0.6,0,0.9c0.1,0.3,0.2,0.5,0.4,0.8c0.2,0.2,0.4,0.4,0.6,0.6
			c0.3,0.1,0.5,0.2,0.8,0.2c1.3,0.4,0-0.5-0.5-1.2S408.4,357.6,408.3,359.1z"/>
		<path class="st3" d="M420.3,358.2c0.6,0,1-0.5,1-1c0-0.6-0.5-1-1-1c-0.6,0-1,0.5-1,1C419.3,357.8,419.7,358.2,420.3,358.2z"/>
		<path class="st3" d="M420.5,359.9c0.6,0,1-0.5,1-1s-0.5-1-1-1c-0.6,0-1,0.5-1,1S419.9,359.9,420.5,359.9z"/>
		<path class="st3" d="M420.5,361.7c0.6,0,1-0.5,1-1c0-0.6-0.5-1-1-1c-0.6,0-1,0.5-1,1C419.5,361.3,419.9,361.7,420.5,361.7z"/>
		<path class="st3" d="M420.4,363.4c0.6,0,1-0.5,1-1c0-0.6-0.5-1-1-1c-0.6,0-1,0.5-1,1C419.4,362.9,419.8,363.4,420.4,363.4z"/>
		<path class="st3" d="M419.6,365.1c0.6,0,1-0.5,1-1s-0.5-1-1-1c-0.6,0-1,0.5-1,1S419,365.1,419.6,365.1z"/>
		<path class="st3" d="M418.5,366.6c0.6,0,1-0.5,1-1c0-0.6-0.5-1-1-1c-0.6,0-1,0.5-1,1C417.5,366.1,417.9,366.6,418.5,366.6z"/>
		<path class="st3" d="M417.1,367.9c0.6,0,1-0.5,1-1s-0.5-1-1-1c-0.6,0-1,0.5-1,1S416.5,367.9,417.1,367.9z"/>
		<path class="st3" d="M415.3,368.7c0.6,0,1-0.5,1-1s-0.5-1-1-1c-0.6,0-1,0.5-1,1S414.8,368.7,415.3,368.7z"/>
		<path class="st3" d="M413.5,368.8c0.6,0,1-0.5,1-1c0-0.6-0.5-1-1-1c-0.6,0-1,0.5-1,1C412.5,368.4,413,368.8,413.5,368.8z"/>
		<path class="st3" d="M411.8,368.5c0.6,0,1-0.5,1-1c0-0.6-0.5-1-1-1c-0.6,0-1,0.5-1,1C410.8,368.1,411.2,368.5,411.8,368.5z"/>
		<path class="st3" d="M410.6,367.8c0.6,0,1-0.5,1-1c0-0.6-0.5-1-1-1c-0.6,0-1,0.5-1,1C409.6,367.4,410,367.8,410.6,367.8z"/>
		<path class="st3" d="M409.4,366.9c0.6,0,1-0.5,1-1c0-0.6-0.5-1-1-1c-0.6,0-1,0.5-1,1C408.4,366.5,408.8,366.9,409.4,366.9z"/>
		<path class="st3" d="M408.1,365.7c0.6,0,1-0.5,1-1s-0.5-1-1-1c-0.6,0-1,0.5-1,1S407.5,365.7,408.1,365.7z"/>
		<path class="st113" d="M419.1,353.8c-0.1-0.7-0.3-1.5-0.7-1.3l0.2,0.7c0.4,2.7-1.1,6.7-2.8,9.3c-1.7,2.6-6.9,2.6-8.1-1.3l-0.2-0.6
			c-0.4,0.3-0.4,0.5-0.3,1.1c0.1,0.6,0.3,1.2,0.6,1.8c0.3,0.5,0.7,1,1.2,1.4c0.8,0.6,1.7,0.9,2.7,1c1,0.1,2-0.1,2.8-0.6
			c1.5-0.9,2.6-2.2,3.2-3.7c0.6-1.6,1-3.2,1.2-4.9C419.2,355.7,419.2,354.7,419.1,353.8L419.1,353.8z"/>
		<path class="st71" d="M424.1,364.8c1.5,3.1,4,7.8,5.2,10s2.2,2.4,2.1,0.5s-0.1-3.1-3.2-5.9c-1.7-1.3-2.9-3.2-3.3-5.4
			C424.6,363.4,423,362.5,424.1,364.8z"/>
		<path class="st96" d="M340.7,377.8c-0.6-0.9-1.3-1.8-5.1-3.1c-3.7-1.3-5.2-1.2-5.8-1.2c-0.6,0,0.1-0.7,0.5-1.3
			c0.4-0.6,0.9,0.4,1.2,0.7c0.3,0.3,3.7,1.1,5,1.5c1.6,0.6,3.1,1.5,4.6,2.5c0.5,0.5,1.1,1,1.7,1.4L340.7,377.8z"/>
		<path class="st114" d="M448.7,326.2c0-0.4-0.3-0.7-0.7-0.7c-0.4,0-0.7,0.3-0.7,0.7v2c0,0.4,0.3,0.7,0.7,0.7c0.4,0,0.7-0.3,0.7-0.7
			V326.2z"/>
		<path class="st114" d="M455.1,324.3c0-0.4-0.3-0.7-0.7-0.7s-0.7,0.3-0.7,0.7v2c0,0.4,0.3,0.7,0.7,0.7s0.7-0.3,0.7-0.7V324.3z"/>
		<path class="st114" d="M441.1,326.7c0-0.4-0.3-0.7-0.7-0.7c-0.4,0-0.7,0.3-0.7,0.7v1.3c0,0.4,0.3,0.7,0.7,0.7
			c0.4,0,0.7-0.3,0.7-0.7V326.7z"/>
		<path class="st114" d="M446.4,325.3c0-0.4-0.3-0.7-0.7-0.7s-0.7,0.3-0.7,0.7v1.3c0,0.4,0.3,0.7,0.7,0.7s0.7-0.3,0.7-0.7V325.3z"/>
		<path class="st114" d="M450.9,331.4c0.3-0.6,0.2-1.3-0.2-1.5c-0.4-0.2-1.1,0-1.4,0.6c-0.3,0.6-0.2,1.3,0.2,1.5
			C450,332.3,450.6,332,450.9,331.4z"/>
		<path class="st114" d="M456.7,328.9c0.3-0.6,0.2-1.3-0.2-1.5c-0.4-0.2-1.1,0-1.4,0.6c-0.3,0.6-0.2,1.3,0.2,1.5
			C455.7,329.7,456.3,329.5,456.7,328.9z"/>
		<path class="st98" d="M316.4,431.8c1.4,1.7,2.9,3.3,4.6,4.8c0.5,0.5,0.7-2.5,0.7-4.8s-2.9-2.3-5.3-2.4
			C314.1,429.2,314.9,429.9,316.4,431.8z"/>
		<path class="st115" d="M369.3,426.6c-0.7,0.5-1.4,1.1-1.8,1.9c-1.4,2.4-1.9,6.5-7.9,11.5h7.8c8.3-8.7,7.7-12.2,5.9-13.5l-1.5-0.5
			C370.9,426.1,370.1,426.3,369.3,426.6L369.3,426.6z"/>
		<path class="st116" d="M292.9,418.2c-2,1.4-1.8,4.7,0,6.7c1.8,2,3.1,3.5,3.9,1.5c0.8-2,1.7-3.6,3.6-3.3c1.9,0.3,1-1.2-0.7-2.4
			C298.1,419.4,295.2,416.5,292.9,418.2z"/>
	</g>
</g>
</svg>
