<?xml version="1.0" encoding="utf-8"?>
<!-- Generator: Adobe Illustrator 28.4.1, SVG Export Plug-In . SVG Version: 6.00 Build 0)  -->
<svg version="1.1" xmlns="http://www.w3.org/2000/svg" xmlns:xlink="http://www.w3.org/1999/xlink" x="0px" y="0px"
	 viewBox="0 0 678 440" style="enable-background:new 0 0 678 440;" xml:space="preserve">
<style type="text/css">
	.st0{fill:#3F180E;}
	.st1{fill:#532116;}
	.st2{fill:#2E3445;}
	.st3{fill-rule:evenodd;clip-rule:evenodd;fill:#555F7F;}
	.st4{fill:#3442D9;}
	.st5{opacity:0.4;enable-background:new    ;}
	.st6{fill:#FFC619;}
	.st7{fill:#F3B700;}
	.st8{fill-rule:evenodd;clip-rule:evenodd;fill:#FFC619;}
	.st9{fill:#A50E7A;}
	.st10{fill:#FFFFFF;}
	.st11{fill:#201E2E;}
	.st12{fill-rule:evenodd;clip-rule:evenodd;}
	.st13{fill-rule:evenodd;clip-rule:evenodd;fill:#FE5EB1;}
	.st14{fill-rule:evenodd;clip-rule:evenodd;fill:#FFFFFF;}
	.st15{opacity:0.3;fill:none;stroke:#FFFFFF;stroke-width:2;stroke-linecap:round;enable-background:new    ;}
	.st16{opacity:0.25;fill:none;stroke:#FFFFFF;stroke-width:2;stroke-linecap:round;enable-background:new    ;}
	.st17{opacity:0.2;fill:none;stroke:#FFFFFF;stroke-width:2;stroke-linecap:round;enable-background:new    ;}
	.st18{opacity:0.15;fill:none;stroke:#FFFFFF;stroke-width:2;stroke-linecap:round;enable-background:new    ;}
	.st19{fill:none;stroke:#F3B700;stroke-width:2;stroke-linecap:round;}
	.st20{fill-rule:evenodd;clip-rule:evenodd;fill:#3F180E;}
	.st21{fill:#722D1E;}
	.st22{fill:none;stroke:#FFFFFF;stroke-width:2;stroke-linecap:round;}
	.st23{opacity:0.1;fill:#FFFFFF;enable-background:new    ;}
	.st24{opacity:0.7;fill:none;stroke:#000000;stroke-width:2;enable-background:new    ;}
	.st25{fill:#4F7DE5;}
	.st26{fill:#3168E3;}
	.st27{fill-rule:evenodd;clip-rule:evenodd;fill:#4F7DE5;}
	.st28{fill-rule:evenodd;clip-rule:evenodd;fill:#3168E3;}
	.st29{fill:none;stroke:#3168E3;stroke-width:2;stroke-linecap:round;}
	.st30{fill:none;stroke:#3168E3;stroke-width:1.7065;stroke-linecap:round;}
	.st31{fill:#34365D;}
	.st32{fill:#3948D8;}
	.st33{fill:#13844B;}
	.st34{fill-rule:evenodd;clip-rule:evenodd;fill:#D33D62;}
	.st35{fill:#FF8AB2;}
	.st36{fill:#FA6385;}
	.st37{fill-rule:evenodd;clip-rule:evenodd;fill:#222332;}
	.st38{fill:url(#SVGID_1_);}
	.st39{stroke:#1217A4;stroke-width:2;}
	.st40{fill:#1217A4;}
	.st41{fill:none;stroke:#1217A4;stroke-width:2;}
	.st42{fill:#8F473B;}
	.st43{fill:#D18D5E;}
	.st44{fill:#1217A4;stroke:#1217A4;stroke-width:2;}
	.st45{fill-rule:evenodd;clip-rule:evenodd;fill:#1217A4;}
	.st46{fill:#2A2B4A;}
	.st47{fill:#64B8FA;}
	.st48{fill-rule:evenodd;clip-rule:evenodd;fill:#8CD9FF;}
	.st49{fill:none;stroke:#FA6385;stroke-width:2;stroke-linecap:round;}
	.st50{display:none;}
	.st51{display:inline;fill:#FFB869;}
	.st52{display:inline;fill:#4D7AE8;}
	.st53{display:inline;fill:#DBE7FF;}
	.st54{display:inline;fill:#201E2F;}
	.st55{display:inline;fill:#590942;}
	.st56{display:inline;fill:#B5CDFF;}
	.st57{display:inline;fill:#EF6767;}
	.st58{display:inline;fill:#3366E0;}
	.st59{fill:#7F67A5;}
	.st60{fill:#C8A6EB;}
	.st61{fill-rule:evenodd;clip-rule:evenodd;fill:#A883D1;}
	.st62{fill:none;stroke:#7F67A5;stroke-width:2;stroke-linecap:round;}
	.st63{fill:none;stroke:#8F473B;stroke-width:2;}
	.st64{opacity:0.4;fill-rule:evenodd;clip-rule:evenodd;fill:#A883D1;enable-background:new    ;}
	.st65{fill:#E5C7FF;}
	.st66{opacity:0.6;fill-rule:evenodd;clip-rule:evenodd;enable-background:new    ;}
	.st67{opacity:0.3;fill-rule:evenodd;clip-rule:evenodd;fill:#190A06;enable-background:new    ;}
	.st68{fill:#FFFFFF;filter:url(#Adobe_OpacityMaskFilter);}
	
		.st69{mask:url(#path-216-inside-1_464_1715_00000049941107355085867680000000820784247356008329_);fill:none;stroke:#FFC619;stroke-width:4;}
	.st70{fill:#BB98E1;}
	.st71{opacity:0.23;fill:#FFFFFF;enable-background:new    ;}
	.st72{fill:none;stroke:#A883D1;stroke-width:2;stroke-linecap:round;}
</style>
<g id="Layer_3">
	<path class="st0" d="M590,293.9c11.6-19.8,14.6-26.3-3.1-27.8l5.3-4.6c20.5,3.1,17.8,18.1-0.9,37.3
		C590.9,296.2,591.2,296.5,590,293.9z"/>
	<path class="st1" d="M561.4,254.3h12.9c2.5,0,4.5,2,4.5,4.5v35.7c0,2.5-2,4.5-4.5,4.5h-12.9c-2.5,0-4.5-2-4.5-4.5v-35.7
		C556.9,256.3,558.9,254.3,561.4,254.3z"/>
	<path class="st1" d="M557,259.5h1.2c2.5,0,4.5,2,4.5,4.5v20c0,2.5-2,4.5-4.5,4.5H557c-2.5,0-4.5-2-4.5-4.5v-20
		C552.6,261.5,554.6,259.5,557,259.5z"/>
	<path class="st0" d="M571.5,254.3h18.9c2.5,0,4.5,2,4.5,4.5v35.7c0,2.5-2,4.5-4.5,4.5h-18.9c-2.5,0-4.5-2-4.5-4.5v-35.7
		C567.1,256.3,569.1,254.3,571.5,254.3z"/>
	<path class="st0" d="M560,256.9c0-1.4,1.2-2.6,2.6-2.6h6l-2.2,0.1c-1.4,0-2.5,1.2-2.5,2.6v11.9l-1.9,1.5l-1.9-1.5V256.9z"/>
	<rect x="559.9" y="264.4" class="st1" width="4.6" height="1.1"/>
	<rect x="559.9" y="261.3" class="st1" width="4.6" height="1.1"/>
	<circle cx="561.9" cy="257.6" r="0.4"/>
	<path d="M561.9,259.5c0.2,0,0.4,0.2,0.4,0.4c0,0.2-0.2,0.4-0.4,0.4c-0.2,0-0.4-0.2-0.4-0.4C561.5,259.7,561.6,259.5,561.9,259.5z"
		/>
	<circle cx="562" cy="263.5" r="0.4"/>
	<path class="st2" d="M575.3,348.6c-1.5-0.4-2.2-0.7-3.8-1.5c-0.6,0.6-0.9,1-1.4,1.7L575.3,348.6z"/>
	<path class="st3" d="M599.7,272.9c3.8-0.6,4.1-5.8,0.7-7.1c-3.8-1.4-8.1-2.2-12.1-2.4c-10.3-0.3-19.4,4.5-19.7,15.9
		c-0.1,2,0.4,4,1.2,5.8c0.3,0.8,0.7,1.6,1.2,2.3c-2.9,2-5.2,4.7-6,8.2c-0.9,3.6-0.2,6.8,1.3,9.4c-0.7,0.9-1.3,2-1.7,3.2
		c-2.4,6.4-1.2,11.9,2,16c-1,1.1-1.8,2.3-2.4,3.7c-1.1,2.5-1.1,5.4-0.7,8c0.7,5.2,3.9,8.9,8.1,11.1c-4.1,4.6-6,10.4-2,16.1
		c1.5,2.2,3.7,3.4,6.2,4c-1.4,3.5-2,7.2-0.9,10.3c1.6,4.4,5.4,5.7,9.5,5.3c-0.8,4.7,0.1,9.3,4.4,11.8c2.5,1.4,5.1,1.3,7.3,0.2
		c0.1,0.5,0.2,0.9,0.3,1.4l2.2-0.5c-0.2-0.7-0.4-1.4-0.5-2.2c1.5-1.2,2.7-2.8,3.6-4.5c1.2-2.3,2.2-6.7-1.2-7.5
		c-2.8-0.6-4.1,2.9-4.5,5c-0.3,1.3-0.4,3.4-0.3,5.6c-2.8,1.7-6.1,1.7-8-2.2c-1.1-2.2-1.1-4.9-0.5-7.5c3.2-0.8,6.3-2.5,8.4-4.4
		c2.6-2.4,4.4-6.5,1.1-9.2c-3.3-2.7-7.1,1.8-8.7,4.3c-1.1,1.8-2.2,4.1-2.9,6.6c-2.7,0.5-5.4,0.1-6.7-2.3c-1.6-2.7-0.7-6.3,0.9-9.9
		c4.6-0.1,9.6-1.9,12.7-4.3c3.2-2.4,5.8-7.8,1.8-10.9c-3.1-2.4-7.3,0.5-9.6,2.7c-2.2,2.1-4.7,5.2-6.7,8.7c-1.6-0.3-3.2-0.9-4.3-2.1
		c-1-1.1-1.5-2.5-1.7-4c-0.4-3.5,1.4-6.6,3.9-9c2.4,0.7,4.9,0.9,7.3,0.7c3.7-0.2,11.9-1.9,11.2-7.2c-0.8-5.2-7.7-3.9-11.2-2.7
		c-2.5,0.9-5.2,2.5-7.7,4.4c-4.7-1.9-7.9-6.1-7.2-11.9c0.2-1.8,0.9-3.3,1.9-4.4c3.5,2.9,8.2,4.8,13,5.5c4.6,0.7,15.4,1.2,16-5.4
		c0.5-4.9-6.1-7.1-9.8-8c-5.6-1.3-12.9-1.3-18.3,1.5c-2-2.7-2.8-6.2-1.3-10.4c0.2-0.5,0.4-1,0.6-1.5c4.2,3.4,10.2,5.4,15.3,6
		c3.9,0.4,9.7,0.8,12.6-2.5c4.4-5.1-2.4-10.1-6.7-11.9c-6-2.5-14.2-3.1-20.1,0c-0.7-1.9-0.5-4,0.9-5.9c0.8-1.2,1.9-2.1,3.2-2.9
		c5.8,4.8,14.5,7.3,21.2,7.9c3.7,0.4,8.4,0.3,11.6-2c6.1-4.5,1-10.9-4.2-13.2c-7.9-3.4-18.2-3.2-26.4-0.4c-0.8-1.1-1.3-2.2-1.6-3.5
		c-0.3-1.2-0.1-2.4,0.1-3.6c1.8-7.7,11.1-7.4,17.2-6.1c0.7,0.1,1.4,0.4,2.2,0.7C596.8,272.5,598.3,273.1,599.7,272.9z M583.4,289.4
		c4.5,2.4,9.9,3.7,13.6,4c1.8,0.2,3.6,0.2,5.4-0.1c0.1,0,0.5-0.2,0.9-0.3c0.2-0.1,0.5-0.2,0.6-0.2c-0.1-0.2-0.4-0.4-0.5-0.6
		c-0.6-0.5-1.4-0.9-2.2-1.3c-2.3-1-4.7-1.4-7.1-1.7C591.1,288.8,587.2,288.8,583.4,289.4z M574.5,305.3c4.2,3,13.9,6.1,18.8,3.7
		c-0.4-0.7-1.2-1.2-1.8-1.6c-1.6-1.1-3.5-1.8-5.3-2.3C582.6,304.2,578.1,303.9,574.5,305.3z M574.4,324.6c1.9,1.2,4.1,2.2,6.4,2.8
		c2.9,0.8,5.9,1.2,8.9,1c1-0.1,2.1-0.2,3-0.6c0.4-0.1,0.8-0.3,1.1-0.6c0,0,0,0,0,0c-0.1,0-0.2-0.2-0.4-0.4c-0.1-0.1-0.2-0.2-0.3-0.3
		c-0.6-0.5-1.4-0.9-2.1-1.2c-2-0.9-4.2-1.3-6.3-1.6C581.6,323.5,577.7,323.5,574.4,324.6z M580.3,345.1c2.3,0.1,4.7-0.1,6.9-0.8
		c0.8-0.3,1.8-0.7,2.4-1.4c0,0,0.1,0,0.1-0.1c0,0,0.1,0,0.1-0.1c-1.8-1.1-5.3,0.4-7,1.2c0,0-0.1,0-0.1,0
		C581.8,344.2,581,344.6,580.3,345.1z M581.3,363.7c2.5-0.4,5-1.3,6.8-2.3c1.8-1,5-3.3,3.8-5.8c-1.2-2.4-5.9,2.3-6.7,3.1
		C584.1,359.9,582.7,361.7,581.3,363.7z M588.1,378.8c1.6-0.6,3-1.4,4-2.1c1.3-0.9,4-3,3.2-4.9c-1.3-2.8-4.7,2.3-5.3,3.3
		C589.3,376.1,588.7,377.4,588.1,378.8z M597.8,390.1c0.5-0.5,0.9-1.1,1.2-1.7c0.3-0.6,2.1-4.2,0.8-4.6c-1.1-0.4-1.9,4.1-2,4.7
		C597.9,389,597.8,389.6,597.8,390.1z"/>
	<path class="st2" d="M586.7,263.4c2.9,3.7,6.4,7.5,11.5,10l-5.6-9.6C590.2,263.5,589,263.4,586.7,263.4z"/>
	<circle class="st4" cx="614.5" cy="256.2" r="24.3"/>
	<circle class="st5" cx="618.5" cy="253.8" r="24.3"/>
	<circle class="st6" cx="623.8" cy="241.9" r="35.4"/>
	<circle class="st7" cx="623.8" cy="241.9" r="35.4"/>
	<path class="st8" d="M614.1,207.8c3.1-0.9,6.3-1.3,9.7-1.3c19.6,0,35.4,15.9,35.4,35.4c0,14-8.1,26.1-19.9,31.8
		c-3.1,0.9-6.3,1.3-9.7,1.3c-19.6,0-35.4-15.9-35.4-35.4C594.2,225.7,602.3,213.6,614.1,207.8z"/>
	<path class="st9" d="M621.9,248.3c3.7-2.2,4.9,3.7,8.8,6.4c2.8,1.9,5.1-0.2,6.6,3.3c1.9,4.5-3.2,9.8-9.4,8.4
		C619.3,264.3,616.4,251.5,621.9,248.3z"/>
	<path class="st10" d="M623.7,220.1c4.8,4.1,5.2,11.4,1,16.3c-5.2-5.7-13.3-3.8-16.3,1.3c-4.8-4.1-5.2-11.4-1-16.3
		C611.7,216.6,618.9,216,623.7,220.1z"/>
	<path class="st10" d="M665.9,238.2c0.9,6.2-3.5,12-9.9,12.9c-6.4,0.9-9.7-5.5-10-9.5c-0.2-3.4,0.4-12,6.8-12.9
		C659.1,227.7,665,232,665.9,238.2z"/>
	
		<ellipse transform="matrix(0.9248 -0.3804 0.3804 0.9248 -39.9796 253.9221)" class="st11" cx="622.4" cy="228.1" rx="3" ry="4.2"/>
	
		<ellipse transform="matrix(0.4334 -0.9012 0.9012 0.4334 153.9013 721.3333)" class="st11" cx="650.6" cy="238.3" rx="3.6" ry="2.1"/>
	<path class="st12" d="M620.6,260.3c2.1,0.2,4.5-1,6.1-3.3c1-1.4,1.5-2.9,1.7-4.5c-0.5-0.5-0.9-1.1-1.3-1.6c-1.6-2.2-2.9-4-5.3-2.6
		C618.5,250.2,618.3,255.8,620.6,260.3z"/>
	<path class="st13" d="M630.9,266.5c-1,0.1-2,0.1-3.1-0.2c-6.8-1.6-10-9.9-8.4-14.9c2.5,0.3,5.5,2.2,7.9,5.5
		C629.7,260.1,630.9,263.6,630.9,266.5z"/>
	<path class="st14" d="M637.6,259.3c-1.1,0.6-2.5,0.4-3.4-0.8c-0.1,0.3-0.3,0.6-0.6,0.8c-1.2,1.2-3,1.1-4-0.3c-0.6-0.8-0.8-2-0.7-3
		c-1.1,0.7-2.5,0.4-3.4-0.8c-0.9-1.2-0.9-2.9-0.2-4.2c-0.9,0.1-1.9-0.2-2.5-1.1c-0.4-0.5-0.6-1.2-0.7-1.8c2.2-1.1,3.5,0.6,5,2.7
		c1,1.3,2.1,2.8,3.6,3.8c1.1,0.8,2.2,0.9,3.2,1c1.4,0.1,2.5,0.3,3.4,2.3C637.5,258.4,637.6,258.8,637.6,259.3z"/>
	<path class="st2" d="M575.1,292.1c-1.8-1.5-2.7-2.6-4.2-4.6c-1.1,0.8-1.7,1.3-2.6,2.2L575.1,292.1z"/>
	<path class="st2" d="M569.9,309.3c-1.8-1.5-2.6-2.4-3.7-4.3c-0.6,0.8-1.1,1.8-1.4,2.6L569.9,309.3z"/>
	<path class="st2" d="M569.7,327.6c-1.5-1.2-2.1-1.8-3.2-3.3c-0.6,0.6-1.3,1.6-1.8,2.4L569.7,327.6z"/>
	<path class="st15" d="M605.5,288.3c1.9,1.2,3.1,3.1,3.1,4.9"/>
	<path class="st16" d="M594.2,304.7c1.9,1.2,3.1,3.1,3.1,4.9"/>
	<path class="st17" d="M594.1,323c1.2,0.6,2.1,1.5,2.7,2.5"/>
	<path class="st18" d="M591.3,340.1c0.6,0.3,1,0.8,1.2,1.4"/>
	<path class="st2" d="M579.1,367.6c-1.5,0-2.4-0.1-3.5-0.3c-0.2,0.5-0.3,0.8-0.5,1.3l3.7-0.3L579.1,367.6z"/>
	<path class="st2" d="M587,382.3c-1,0.3-1.7,0.4-2.8,0.5l-0.2,1.1c1.1-0.1,1.7-0.2,2.8-0.6L587,382.3z"/>
	<path class="st2" d="M598,393.5c-0.7,0.5-1.2,0.9-2.1,1.3l0.1,0.6c0.9-0.1,1.6-0.4,2.1-0.8L598,393.5z"/>
	<path class="st19" d="M607.8,238.6c2.2-6,13.2-8.9,17.9-1.4"/>
	<path class="st1" d="M610.1,416.2l1.1-7c0.2-1.1,0.1-2.3-0.2-3.3c-2.2-6-7.5-9.7-15.1-9.3c-1.7,0.1-3.4,0.6-4.8,1.6
		c-3.3,2.4-6.2,6.2-6.2,12.6c11,17.5,22.7,28.6,35.6,22.4C625.9,424.9,620.3,417.3,610.1,416.2z"/>
	<path class="st20" d="M598,396.5c-0.8,1.9-1.6,5.4,0.6,7.2c1.3,1,0.6,3.7-0.3,6.6c-1,3.7-2.2,7.8,0.3,10c1.3,1.2,3,2.1,4.7,3.1
		c3,1.6,5.9,3.3,6.8,6.4c0.5,1.8,0.5,3.4,0.2,4.8c-9-1.7-17.4-11.1-25.4-23.9c0-6.4,2.8-10.2,6.2-12.6c1.4-1,3.1-1.6,4.8-1.6
		C596.6,396.4,597.3,396.5,598,396.5z"/>
	<ellipse transform="matrix(0.4933 -0.8699 0.8699 0.4933 -45.1552 727.5978)" cx="601.9" cy="402.6" rx="3.3" ry="7.7"/>
	<path class="st21" d="M601.6,401.2l-0.7,0.4v0.5l3.1,2.8l4.6,0.7l3.4-3.3l-1.4-0.2C607.7,405,604.4,404.1,601.6,401.2z"/>
	<path class="st1" d="M612,402.3l-0.9,6.9l-11,0.5l0.6-8c0.5,0.9,2.4,2.6,5.4,3C609.2,405,611.2,403.2,612,402.3z"/>
	<path class="st22" d="M608.4,411.7l-7.5-3.6c-1.6-0.8-3.5,0.3-3.7,2l0,0c-0.2,1.7,1.3,3.1,3,2.9L608.4,411.7z M608.4,411.7l3.9-2.8
		c1.4-1,3.3,0.1,3.2,1.8l0,0c-0.1,1.2-1.2,2.1-2.4,1.8L608.4,411.7z"/>
	<path class="st22" d="M610.2,414.6c-3.3-0.6-4.9-0.3-7.7,0.7 M611.6,416.5c-3.4,0.1-5.1,0.6-7.8,2.2"/>
	<path class="st23" d="M619.5,420.9c-0.4-0.3-0.9-0.2-1.1,0.1c-0.3,0.4-0.2,0.9,0.1,1.1L619.5,420.9z M619.5,427.2
		c-0.2,0.4-0.1,0.9,0.3,1.1c0.4,0.2,0.9,0.1,1.1-0.3L619.5,427.2z M618.5,422.2c1.6,1.2,1.9,3.4,1.1,5l1.4,0.8
		c1.2-2.2,0.8-5.3-1.5-7.1L618.5,422.2z"/>
	<path class="st24" d="M597.1,401.5c-6.1,0.4-9.2,5.1-10.3,13.5"/>
	<path d="M585.3,406.9c-0.2,1.2-0.4,2.4-0.4,3.8c11,17.5,22.6,28.6,35.6,22.4c-0.5,9.1-14.2,11.3-23.1,1.4l-13.7-17.3
		c-1.3-1.7-2.3-3.8-1.8-5.9C582.4,409,583.7,407.3,585.3,406.9z"/>
	<path d="M580.4,415.5l2-5.7l6.2,10.1l1.4,4.5h-3.5L580.4,415.5z"/>
	<path class="st3" d="M596.2,396.1l0.9,6.9c0.8,0.8,1.5,1.3,2.7,2.1l-1.5-9.6L596.2,396.1z"/>
	<path class="st0" d="M573.5,293.5c11.6-19.8,12.5-30.4-5.3-32l5.3-4.6c20.5,3.1,20,22.3,1.3,41.5
		C574.4,295.8,574.7,296,573.5,293.5z"/>
</g>
<g id="Layer_5">
	<path class="st25" d="M407.3,238.3c7.6-25.6,14.6-62.7-42.5-68.3c-2.8-9.1-0.8-26.5,29.3-23.7c37.6,3.5,60.6,43.2,43.9,84.3
		c-16.7,41.1,3.5,58.5,33.5,58.5c30,0,30.7-58.5,35.5-70.4c4.9-11.8,40.4-20.2,48.8,0c8.4,20.2-9.8,25.1-23.7,30.7
		c-13.9,5.6,4.2,64.8-55.8,71.1C416.4,326.8,394.1,282.9,407.3,238.3z"/>
	<path class="st26" d="M501.7,274.6c8.9-16.2,12.3-41.6,12.9-52.4l-6.4-3.5l-4.1,13.7c-8.4,52.1-22.1,58.7-39.5,56.7
		C474.6,291,492.8,290.8,501.7,274.6z"/>
	<ellipse class="st10" cx="535" cy="217.9" rx="6.3" ry="7.7"/>
	<ellipse transform="matrix(0.3076 -0.9515 0.9515 0.3076 161.4961 663.7776)" cx="536.8" cy="220.9" rx="3.8" ry="3.1"/>
	<path class="st26" d="M407.3,238.3c7.6-25.6,14.6-62.7-42.5-68.3c-1-2.8-2.4-9.1,0-11.5c3-3,27.6-0.7,48.8,22.5
		c28.6,31.2-9.4,75.4,2.8,104c8,18.8,26.3,37.5,59.9,35.5C398.8,326.7,398,268.3,407.3,238.3z"/>
	<path class="st27" d="M409.4,194.3c5.8,13.6,1.9,30.4-2.1,44c-13.2,44.6,9.1,88.5,69,82.2c40.8-4.3,45.4-33,48.6-52.8
		c1.5-9.3,2.7-16.6,7.1-18.3c1.2-0.5,2.3-0.9,3.5-1.4c13.2-5.1,27.8-10.7,20.2-29.3c-8.4-20.2-43.9-11.8-48.8,0
		c-1.2,2.8-2.1,8.2-3.2,14.8c-3.6,21.4-9.5,55.6-32.4,55.6c-30,0-50.2-17.4-33.5-58.5c5.1-12.6,6.5-25,4.9-36.3H409.4z"/>
	<path class="st26" d="M501.7,274.6c8.5-15.5,12-39.5,12.8-50.9c0.1-0.9-0.4-1.7-1.2-2.1l-2.6-1.5c-1.3-0.7-2.9,0-3.3,1.3l-3.2,10.8
		c0,0.1,0,0.2-0.1,0.3c-8.4,51.9-22.1,58.6-39.4,56.5C474.6,291,492.8,290.8,501.7,274.6z"/>
	<ellipse class="st10" cx="535" cy="217.9" rx="6.3" ry="7.7"/>
	<ellipse transform="matrix(0.3076 -0.9515 0.9515 0.3076 161.496 663.7776)" cx="536.8" cy="220.9" rx="3.8" ry="3.1"/>
	<path class="st28" d="M409.4,194.3c5.8,13.6,1.9,30.4-2.1,44c0,0,0,0,0,0c-11.3,38.1,3.3,75.6,45,81.9c7,0.9,15,1,24,0.3
		c-33.6,1.9-51.9-16.7-59.9-35.5c-5.1-12.1-1.4-27,2.6-42.4c4.1-16.2,8.5-33.1,2.9-48.3H409.4z"/>
	<path d="M530.9,231.5c5.4,2.9,9.5-3.2,13.2-1.3c2.8,1.8,1.3,7.5-3,10.5c-4.3,3-16.1,2.2-17.8-4.1
		C522,231.8,525.5,228.6,530.9,231.5z"/>
	<path class="st29" d="M477.8,294.2c-2.4,3.5,2.7,10.5,8.8,4.5"/>
	<path class="st29" d="M490.2,299.6c-2.4,3.5,2.7,10.5,8.8,4.5"/>
	<path class="st29" d="M487.5,290.8c-2.4,3.5,2.7,10.5,8.8,4.5"/>
	<path class="st29" d="M430.6,287.5c-2.6-3.2-10.5-0.1-6.5,7.3"/>
	<path class="st29" d="M430.6,259.8c-0.2-4.1-8.5-6.3-9.5,2.1"/>
	<path class="st30" d="M439.4,196c0.6-4.1-6.9-7.9-9.8,0"/>
	<path class="st29" d="M423.6,253c-0.2-4.1-8.5-6.3-9.5,2.1"/>
</g>
<g id="Layer_4">
	<rect x="373.3" y="323.4" class="st31" width="47.5" height="70.5"/>
	<path class="st32" d="M340.3,331.8h29.3v11.7c0,7.4-6,13.4-13.4,13.4h-16V331.8z"/>
	<path class="st33" d="M409.4,190.2c-12.9-0.5-23-11.4-22.4-24.4l0.1-1.7l1.7,0.1c12.9,0.5,23,11.4,22.4,24.4l-0.1,1.7L409.4,190.2z
		"/>
	<path class="st1" d="M331.8,202.9h22.7c7.8,0,14.2,6.4,14.2,14.2v76c0,7.8-6.4,14.2-14.2,14.2h-22.7c-7.8,0-14.2-6.4-14.2-14.2v-76
		C317.5,209.3,323.9,202.9,331.8,202.9z"/>
	<path class="st1" d="M319.2,215L319.2,215c6.5,0,11.8,5.3,11.8,11.8v24.7c0,6.5-5.3,11.8-11.8,11.8l0,0c-6.5,0-11.8-5.3-11.8-11.8
		v-24.7C307.3,220.3,312.6,215,319.2,215z"/>
	<path class="st1" d="M318.4,266.4L318.4,266.4c6.5,0,11.8,5.3,11.8,11.8v1c0,6.5-5.3,11.8-11.8,11.8l0,0c-6.5,0-11.8-5.3-11.8-11.8
		v-1C306.5,271.7,311.8,266.4,318.4,266.4z"/>
	<path class="st0" d="M355.5,202.9H392c7.8,0,14.2,6.4,14.2,14.2v76c0,7.8-6.4,14.2-14.2,14.2h-36.5c-7.8,0-14.2-6.4-14.2-14.2v-76
		C341.3,209.3,347.6,202.9,355.5,202.9z"/>
	<path class="st0" d="M324.7,211.1c0-4.5,3.7-8.2,8.2-8.2h11.8l-3,0.1c-4.4,0.1-8,3.8-8,8.2v25.7l-4.6,3.4l-4.6-3.4V211.1z"/>
	<rect x="324.4" y="226.6" class="st1" width="10.7" height="2.7"/>
	<rect x="324.4" y="219.2" class="st1" width="10.7" height="2.7"/>
	<circle cx="329" cy="210.5" r="0.9"/>
	<circle cx="329" cy="216" r="0.9"/>
	<circle cx="329.3" cy="224.5" r="0.9"/>
	<path class="st34" d="M462.5,248.2c0-14.8-12-26.8-26.8-26.8V266h-9.6v70h36.3v-49.6h0.1V248.2z"/>
	<path class="st35" d="M446.1,223.4c9.9-5.7,1.7-29.9-3.6-41.2h-79.9c-9.5,2-12.5,11.7-1.2,18c-6.5,0-6.9,7.3-3,9.9
		C390.2,233.3,409.3,237,446.1,223.4z"/>
	<path class="st36" d="M435.3,218.7c-11.5,0.2-51.5-22.9-60.5-33.3l57-2.6C431.8,182.9,446.8,218.5,435.3,218.7z"/>
	<path class="st37" d="M399.9,203.7c-11-6.5-21.2-13.6-25.2-18.2l17.2-0.8h16.3v19H399.9z"/>
	
		<linearGradient id="SVGID_1_" gradientUnits="userSpaceOnUse" x1="412.6898" y1="248.1615" x2="412.6898" y2="237.6188" gradientTransform="matrix(1 0 0 -1 0 441.2756)">
		<stop  offset="0" style="stop-color:#222232"/>
		<stop  offset="1" style="stop-color:#34365D"/>
	</linearGradient>
	<path class="st38" d="M397.7,187.2h30v12c0,2.5-2,4.5-4.5,4.5h-21.1c-2.5,0-4.5-2-4.5-4.5V187.2z"/>
	<path class="st37" d="M421.5,214.7c-6.6-2.8-14.3-6.8-21.6-11.1h21.6V214.7z"/>
	<path class="st39" d="M395.5,172.1c0,6.6-4.1,11.5-8.6,11.5s-8.6-4.9-8.6-11.5c0-6.6,4.1-11.5,8.6-11.5S395.5,165.4,395.5,172.1z"
		/>
	<path class="st40" d="M379.7,172.1c0-5.5,3.9-10.1,9.3-11.1l48.2-8.7v39.5l-48.2-8.6C383.6,182.2,379.7,177.5,379.7,172.1z"/>
	<path class="st39" d="M452.7,172.1c0,10.6-6.6,18.7-14.2,18.7c-7.6,0-14.2-8.1-14.2-18.7c0-10.6,6.6-18.7,14.2-18.7
		C446.1,153.3,452.7,161.4,452.7,172.1z"/>
	<path class="st14" d="M435.3,152.7c6.9,1.9,12,9.9,12,19.4c0,9.5-5.1,17.5-12,19.4c-6.9-1.9-12-9.9-12-19.4
		C423.3,162.5,428.4,154.6,435.3,152.7z"/>
	<path class="st41" d="M452.7,172.1c0,10.6-6.6,18.7-14.2,18.7c-7.6,0-14.2-8.1-14.2-18.7c0-10.6,6.6-18.7,14.2-18.7
		C446.1,153.3,452.7,161.4,452.7,172.1z"/>
	<ellipse cx="437.9" cy="172.1" rx="5.5" ry="8.1"/>
	<ellipse class="st10" cx="441.3" cy="166.7" rx="2.1" ry="2.2"/>
	
		<ellipse transform="matrix(0.9648 -0.263 0.263 0.9648 -18.0758 106.4445)" class="st42" cx="388.5" cy="120.7" rx="3.3" ry="1.7"/>
	<path class="st1" d="M366.2,159.6c-12-43.3,56-57.3,54-6.5C399.8,157.6,386.4,160.5,366.2,159.6z"/>
	<path class="st43" d="M420.2,153c0.8-18.7-8-27.6-15.8-30.6c-11.1,4.1-9.6,24.4-6.6,35.4C406.7,156.1,411.6,155,420.2,153z"/>
	<path class="st42" d="M422.3,147.2c10-1.2,20.5,0,25.2,2.8c1.9,1.1,0.6,3.2-1.6,3.3l-10,0.8c-0.8-1.5-1.1-1.9-4.1-2.1l-34,5.6
		C405.4,150.8,414.6,148.1,422.3,147.2z"/>
	<path class="st11" d="M410.1,156.7l35.9-3.4c2.2-0.2,3-2,0.8-2.4c-10.4-1.9-43.2,5.5-48.6,6.6c6.8-0.7,10-1.4,11.4-1.9
		C409.5,155.9,409.7,156.3,410.1,156.7z"/>
	
		<ellipse transform="matrix(0.3728 -0.9279 0.9279 0.3728 115.3905 432.4504)" class="st42" cx="377.6" cy="130.9" rx="2.6" ry="1.2"/>
	<path class="st44" d="M362.5,172.1c0,6.6-4.1,11.5-8.6,11.5s-8.6-4.9-8.6-11.5c0-6.6,4.1-11.5,8.6-11.5S362.5,165.4,362.5,172.1z"
		/>
	<path class="st32" d="M346.7,172.1c0-5.5,3.9-10.1,9.3-11.1l48.2-8.7v39.5l-48.2-8.6C350.6,182.2,346.7,177.5,346.7,172.1z"/>
	<path class="st39" d="M419.7,172.1c0,10.6-6.6,18.7-14.2,18.7s-14.2-8.1-14.2-18.7c0-10.6,6.6-18.7,14.2-18.7
		S419.7,161.4,419.7,172.1z"/>
	<path class="st14" d="M402.3,152.7c6.9,1.9,12,9.9,12,19.4c0,9.5-5.1,17.5-12,19.4c-6.9-1.9-12-9.9-12-19.4
		C390.2,162.6,395.4,154.6,402.3,152.7z"/>
	<path class="st41" d="M419.7,172.1c0,10.6-6.6,18.7-14.2,18.7s-14.2-8.1-14.2-18.7c0-10.6,6.6-18.7,14.2-18.7
		S419.7,161.4,419.7,172.1z"/>
	<path class="st45" d="M378.4,187.2l-4.5-0.8c-3.4-3.3-5.6-8.6-5.6-14.3c0-5.7,2.1-11,5.5-14.3l4.4-0.8c-4.6,2.2-8,8-8,15.1
		C370.2,179.2,373.7,185,378.4,187.2z"/>
	<ellipse cx="404.8" cy="172.1" rx="5.5" ry="8.1"/>
	<ellipse class="st10" cx="408.3" cy="166.7" rx="2.1" ry="2.2"/>
	<path class="st35" d="M337,253.8c0-22.6,14.7-42.5,36.3-49.1v119.9l-3.2,7.2h-30.3l-2.8-7.2V253.8z"/>
	<path class="st31" d="M393.9,323.4h56.8l22.7,83.6h-79.5V323.4z"/>
	<path class="st46" d="M405.3,372.7c14.3-17.4,16.4-26.7,21.9-48.4l23.5-1.4l19.3,61.8l-40.3,25.4l-33.1-2.3L405.3,372.7z"/>
	<path class="st35" d="M368.4,324.9l81-0.6c15.7-3.4,1.5-25.5,0.1-86.3c-0.1-6.2-1.9-12.3-5.3-17.5l-75.9-6.8V324.9z"/>
	<path class="st47" d="M337,324.6l2.8,7.2h30.3l3.2-7.2H337z"/>
	<path class="st48" d="M368.5,331.8h-2.1l2.8-7.2h2.1L368.5,331.8z M367.1,324.6l-2.8,7.2h-2.1l2.8-7.2H367.1z M359.7,324.6h2
		l-1.9,7.2h-2L359.7,324.6z M354,324.6h1.9v7.2H354V324.6z M348.6,324.6h2l1.9,7.2h-2L348.6,324.6z M343.2,324.6h2.1l2.8,7.2H346
		L343.2,324.6z M338.9,324.6h2.1l2.8,7.2h-2.1L338.9,324.6z"/>
	<path class="st36" d="M394.7,217.2c18.3,14,39.4,16.9,51.3,6.4c1.4,2.8,2.1,4.4,2.8,7.5C425.5,241,414.4,233.5,394.7,217.2z"/>
	<path class="st49" d="M445.6,238.2c-8.1,7.2-28.1,5.4-40.6-4.2"/>
	<path class="st49" d="M372.4,324.6v-70.4 M372.4,254.2l-4-4 M372.4,254.2l4.1-4"/>
	<path class="st49" d="M361.2,200.3c4.6,3.1,7.3,4.8,12.3,7.4"/>
	<path class="st49" d="M408.6,295.3c7.2,5.1,9.1,19.7,0,25.1"/>
	<path class="st49" d="M448.8,295.2c-4,5.1-5,19.7,0,25.1"/>
	<path class="st0" d="M373.3,288.5c23.2-39.4,8.2-83.7-28.6-67.7l10.5-9.1c46.1-10.3,51.8,44.2,18.1,91.2V288.5z"/>
</g>
<g id="Layer_2">
	<path class="st33" d="M387.2,358c25.8-81-162-75.1-227-17.4c4.4,16.8-82.7,33-36.4,104.6c4.9,18.8,149-16.5,153.9,2.3
		c133.4,0,266.8,0,400.1,0v-6.5h-64.9c-17.7,0-33.6-10.8-46.4-24.8c-29-31.9-61.9-34.3-83.7-4.7C482.7,321.4,429.9,314.9,387.2,358z
		"/>
</g>
<g id="Layer_1">
	<g id="Layer_2_00000117645581343601169710000002190411461988574876_">
		<g class="st50">
			<circle class="st51" cx="242.1" cy="182.1" r="54"/>
			<path class="st52" d="M214.4,199.8c6.3,21.9,31.7,37.1,52,22.8c20.3-14.3,0.1-43.7,0.1-43.7s11-27.8-16.6-34.4
				S215.4,149.9,214.4,199.8z"/>
			<path class="st53" d="M255.4,183.7c-3.1,0-5.6-3.3-5.6-7.4c0-4.1,2.5-7.4,5.6-7.4s5.6,3.3,5.6,7.4S258.5,183.7,255.4,183.7z"/>
			<path class="st54" d="M257.8,181.9c-0.8-0.1-1.3-1.3-1.2-2.8c0.1-1.5,0.8-2.7,1.6-2.6s1.3,1.3,1.2,2.8
				C259.3,180.8,258.6,182,257.8,181.9z"/>
			<path class="st54" d="M261.8,162.4c-0.4-1.1-1.1-2.1-2-2.8c-1-0.7-2.1-1.1-3.3-1.1c-1.2,0-2.3,0.4-3.3,1.1c-1,0.7-1.7,1.7-2,2.8
				H261.8z"/>
			<path class="st55" d="M261.3,194c-5.4,1.4-11.3,0.1-16.2-5.2c-0.6-0.7-1.5-1.2-2.5-1.3s-1.9,0.2-2.7,0.8s-1.4,1.4-1.6,2.4
				c-0.2,1,0,2,0.6,2.8c7.4,12.2,19,14,26.2,7.2c0.5-0.4,0.9-1,1.1-1.6s0.2-1.3,0.1-1.9c-0.1-0.5-0.3-1.1-0.6-1.5
				c-0.3-0.5-0.7-0.9-1.2-1.1c-0.5-0.3-1-0.5-1.6-0.6C262.4,193.9,261.8,193.9,261.3,194z"/>
			<path class="st53" d="M257.1,194.6c1.4,0,2.8-0.2,4.2-0.6h1.3v3.6c0,0-2.1,1.6-10.2,0.7v-2l-14-4.7c0-0.6,0.2-1.2,0.4-1.7
				c0.3-0.5,0.7-1,1.2-1.3v-0.1h0.1c0.6-0.4,1.3-0.6,2-0.6c0.1-0.1,0.4,0,0.6,0h1.3c0.1,0.1,0.3,0.1,0.3,0.3c0,0.1,0.3,0,0.3,0.1
				l0.6,0.4c0.8,1,1.8,1.8,2.9,2.6l2,1.3c0.9,0.6,1.9,1,3,1.3C254.3,194.4,255.7,194.6,257.1,194.6z"/>
			<path class="st56" d="M239.9,188.4v-0.1h0.1c0.6-0.4,1.3-0.6,2-0.6c0.1-0.1,0.4,0,0.6,0h1.3c0.1,0.1,0.3,0.1,0.3,0.3
				s0.3,0,0.3,0.1l0.6,0.4c0.5,0.6,1,1.1,1.6,1.6l-4,2.4l-4.3-1.4c0-0.5,0.2-1.1,0.5-1.5C239.1,189.2,239.5,188.8,239.9,188.4z"/>
			<path class="st54" d="M220.3,154.5c5.2-11.5,14.2-13.8,29.6-10c3.1,0.7,6.1,1.9,8.9,3.4c0.9,4.6-6.2,6-19.2,1.9
				C243.9,157.5,235.1,171.3,220.3,154.5z"/>
			<path class="st54" d="M238.4,144l0.7-9.5c0.1-0.9-0.1-1.7-0.4-2.5c-0.3-0.8-0.8-1.5-1.4-2.2c-0.6-0.6-1.3-1.1-2.2-1.4
				c-0.8-0.3-1.7-0.4-2.5-0.4c-1,0.1-1.9,0.3-2.8,0.8c-0.8,0.5-1.5,1.2-2,2s-0.8,1.8-0.9,2.7s0.1,1.9,0.5,2.8l4.3,9.7L238.4,144z"/>
			<path class="st57" d="M201.1,194.6l4.3,1.6l9-5.9v7.3l7.4,5.9c1.6,1.3,2.9,2.9,3.8,4.7c0.9,1.8,1.5,3.8,1.7,5.8l0.3,5.9
				c10.9,9,25.8,11.9,38.8,2.7c2.1-1.4,4-3.2,5.6-5.2l4.4,1.6c0,0-9,38-24.1,44.8c-15,6.9-25.5,0-25.5,0
				c-15.8-53.6-11.2-63.6-50.1-48.1l-1.9-10.9L201.1,194.6z"/>
			<path class="st52" d="M232.3,177.6L204,151.1l-2.6,3.3l21.9,40.8L232.3,177.6z"/>
			<path class="st58" d="M222,171.5l-11.2-7.9l8.6,15.5l-1.6-6L222,171.5z"/>
		</g>
	</g>
	<path class="st1" d="M150.9,156.7h49c9.3,0,16.9,7.6,16.9,16.9V309c0,9.3-7.6,16.9-16.9,16.9h-49c-9.3,0-16.9-7.6-16.9-16.9V173.6
		C134,164.3,141.6,156.7,150.9,156.7z"/>
	<path class="st1" d="M134.4,176.2h4.5c9.3,0,16.9,7.6,16.9,16.9v44.5c0,9.3-7.6,16.9-16.9,16.9h-4.5c-9.3,0-16.9-7.6-16.9-16.9
		v-44.5C117.5,183.8,125,176.2,134.4,176.2z"/>
	<path class="st1" d="M133,259.6h4.5c9.3,0,16.9,7.6,16.9,16.9v6.2c0,9.3-7.6,16.9-16.9,16.9H133c-9.3,0-16.9-7.6-16.9-16.9v-6.2
		C116.1,267.2,123.7,259.6,133,259.6z"/>
	<path class="st0" d="M189.4,156.7h71.4c9.3,0,16.9,7.6,16.9,16.9V309c0,9.3-7.6,16.9-16.9,16.9h-71.4c-9.3,0-16.9-7.6-16.9-16.9
		V173.6C172.5,164.3,180,156.7,189.4,156.7z"/>
	<path class="st0" d="M145.6,166.5c0-5.4,4.4-9.8,9.8-9.8h22.7l-8.3,0.2c-5.3,0.2-9.5,4.5-9.5,9.8v45.1l-7.4,5.6l-7.4-5.6V166.5z"/>
	<rect x="145.2" y="195.1" class="st1" width="17.4" height="4.3"/>
	<rect x="145.2" y="183.1" class="st1" width="17.4" height="4.3"/>
	<circle cx="152.6" cy="169" r="1.4"/>
	<circle cx="152.6" cy="177.9" r="1.4"/>
	<circle cx="153.1" cy="191.6" r="1.4"/>
	<path class="st59" d="M237.1,407.4L237.1,407.4c3.8-1.9,8.3-0.3,10.2,3.5l5.6,11.4c1.9,3.8,0.3,8.3-3.5,10.2h0
		c-3.8,1.9-8.3,0.3-10.2-3.5l-5.6-11.4C231.7,413.9,233.3,409.3,237.1,407.4z"/>
	<path class="st59" d="M250,405.8L250,405.8c3.8-1.9,8.3-0.3,10.2,3.5l5.6,11.4c1.9,3.8,0.3,8.3-3.5,10.2l0,0
		c-3.8,1.9-8.3,0.3-10.2-3.5l-5.6-11.4C244.7,412.2,246.3,407.7,250,405.8z"/>
	<path class="st42" d="M169.6,112.1c0,0,97.6,0,98.5,0c0.1,0,0.8,0,1.1,0c2.6,0.4,13.7,6.2,13.7,8.8c0,10.8,0,33.3,0,35.8H169.6
		V112.1z"/>
	<path class="st60" d="M328.4,275.8c9.8-10.3,10.4-22.2,7.6-36.3c-3.4-17.2-19.7-28.6-37.2-28.6c-21.5,0-39,17.4-39,39V413
		c0,5.4-4.4,9.8-9.8,9.8h-10.2v-2c0-4.9-4-8.9-8.9-8.9c-4.9,0-8.9,4-8.9,8.9v5.6c0,7.8,6.3,14.2,14.2,14.2l55,0.2
		c8,0,16.2-2.9,19.5-10.2c6.7-15,3.5-35.6-3.5-63.4c30.9-15.6,33.7-59.1,11-82.6L328.4,275.8z"/>
	<path class="st61" d="M324.8,278.9c7.4-11.5,8.1-24.9,5.9-39.2c-2.5-16.6-17.5-27.8-34.1-28.7c-20.5,1.2-36.7,18.1-36.7,38.9V413
		c0,5.4-4.4,9.8-9.8,9.8h-4.4c0,0-0.1,0-0.1,0h-5.8v-2c0-4.9-4-8.8-8.8-8.9c-4.9,0-8.8,4-8.8,8.9v5.6c0,7.8,6.3,14.2,14.2,14.2
		l51.5,0.2c7.6-0.2,15.3-3.2,18.8-10c7.8-14.9,7.1-35.1,0-63.1c0.2-0.1,0.4-0.2,0.6-0.3c0-0.1,0-0.1,0-0.2c0.6-0.3,1.2-0.6,1.8-1
		c19.7-14,27.8-57.7,6-80.3c1.1-0.3,2.2-0.8,3.2-1.3c0,0,0,0,0,0L324.8,278.9z"/>
	<path class="st62" d="M271.4,328.2l10.5,6.6c4,2.5,9.1,2.3,12.9-0.4l5.5-4 M300.3,330.4l7.5,3.9 M300.3,330.4l2.5-7.5"/>
	<path class="st0" d="M294.5,299.2c30.9-52.6-2.1-109.8-51.1-88.4l14-12.2c65.3-12.1,89.2,57.8,37.1,116
		C293.3,307.7,297.8,306,294.5,299.2z"/>
	<circle class="st43" cx="170.2" cy="134.4" r="22.3"/>
	<circle class="st63" cx="169.6" cy="134.4" r="12.8"/>
	<path class="st20" d="M205.8,112.2c12.3,0,22.3,10,22.3,22.3c0,11.6-8.8,21.1-20.1,22.2h18.4c6-5.5,9.7-13.4,9.7-22.2
		c0-8.9-3.8-16.9-9.9-22.4L205.8,112.2L205.8,112.2z"/>
	<path class="st31" d="M318.3,419.5l-7.2,4.3c-7.4-10-10.7-16.3-15.1-27c-0.5-1.3-0.9-2.7-1.1-4.1l-0.7-4.6
		c-0.4-2.8-2.1-5.2-4.6-6.5c-1.5-0.8-2.8-2.1-3.6-3.6l-6.7-12.2l-73.1-6.2v42l-20.7,6.9l7.6,29.1l35.9-14.3c2.7-1.1,4.7-3.4,5.4-6.2
		l8.9-37.8l16.1,13.6c1.7,1.4,3,3.3,3.6,5.5l0.2,0.6c1,3.4,3.7,6,7.2,7c2.1,0.6,4.1,1.8,5.4,3.6l23.7,30.4l11.6-13.5L318.3,419.5z"
		/>
	<path class="st11" d="M247.4,371.4l-4.1,7.9l6.1,5.2L247.4,371.4z"/>
	<path class="st6" d="M314.8,249.6c0-35.7-27.4-44.6-43.2-49.3l-27.8-6.6c-36-2.6-60.7,5.4-74.5,39.9c-2.2,5.4-2.5,11.3-1.6,17
		l18.4,115.4h93.2C279.3,303.6,314.8,325.4,314.8,249.6z"/>
	<path class="st60" d="M256.2,161.1l0.2,6.4c0.3,9.8-4.4,19.1-12.3,24.7l-9.2,6.5c4.3,11.9,19.1,26.4,42.9,31.2
		c3.1-12.9,22.9-20.8,39.3-20.5c25.8,0.4,25.8-34.5,20.1-64c-3.4-17.7-19.8-28.8-37.8-28.8C275,116.7,255.5,136.8,256.2,161.1z"/>
	<path class="st64" d="M256.4,167.5l-0.2-6.4c-0.4-14.1,6-26.8,16.2-34.9c6.7,0.9,15.6,2.4,20.7,3.2l10.5,12.2
		c-6.7,0.8-6.5,7.4-6.4,13.8c0.2,6.8,0.3,13.4-7.7,12.6c-15.2-1.6-17.1,19.2-15,29.3c1.7,8.4-7,15.1-13.8,20.3
		c-1.9,1.5-3.6,2.8-4.9,4c-11.1-6.5-18.2-15.2-20.9-22.9l9.2-6.5C252,186.5,256.6,177.3,256.4,167.5z"/>
	<path class="st14" d="M338.3,151.9c-8.7-0.5-16.4-0.6-27.2,0.1c-2.3,0.2-4.1,2.1-3.7,4.4c0.8,3.5,2.5,6.8,5.2,9.4
		c3.6,3.6,8.4,5.6,13.5,5.6c5.1,0,9.9-2,13.5-5.6c0.1-0.1,0.2-0.2,0.3-0.4C339.6,161,339,156.4,338.3,151.9z"/>
	<circle class="st11" cx="331" cy="158.2" r="5"/>
	<path class="st0" d="M205.9,355.7h75.3l1.7,14.9h-77V355.7z"/>
	<path class="st7" d="M257.1,229.9l-3.1-9.2l-36-28.9c-14.3,4.8-21.1,8-30.1,14.8l28.2,64.4l-13.2,84.2h53l-21.6-13.7l2.7-3.2
		c11.1-13.4,19-29.1,23.1-46C264.9,271.7,263.9,250.1,257.1,229.9z"/>
	<path class="st59" d="M287.4,179.7c-0.5-0.6-0.4-1.4,0.2-1.9c0.6-0.5,1.4-0.4,1.9,0.2L287.4,179.7z M339.9,181.8
		c-8.1-0.5-19.7,0.4-30.1,0.8c-5.1,0.2-10,0.3-13.8-0.1c-1.9-0.2-3.7-0.4-5.1-0.9c-1.4-0.4-2.7-1-3.5-2l2.1-1.7
		c0.3,0.4,1,0.8,2.2,1.2c1.2,0.4,2.7,0.6,4.5,0.8c3.7,0.3,8.4,0.3,13.5,0c10.2-0.4,22.1-1.4,30.4-0.8L339.9,181.8z"/>
	<path class="st10" d="M338.3,151.9c3.3,2.3,3.7,11.1,1.6,13.6C339,160.1,337.7,157.3,338.3,151.9z"/>
	<path class="st59" d="M136.7,408.8L136.7,408.8c3.8-1.9,8.3-0.3,10.2,3.5l5.6,11.4c1.9,3.8,0.3,8.3-3.5,10.2l0,0
		c-3.8,1.9-8.3,0.3-10.2-3.5l-5.6-11.4C131.3,415.2,132.9,410.6,136.7,408.8z"/>
	<path class="st59" d="M149.7,407.1L149.7,407.1c3.8-1.9,8.3-0.3,10.2,3.5l5.6,11.4c1.9,3.8,0.3,8.3-3.5,10.2l0,0
		c-3.8,1.9-8.3,0.3-10.2-3.5l-5.6-11.4C144.3,413.5,145.9,409,149.7,407.1z"/>
	<path class="st65" d="M233.6,270.4c4.6-9.9,5.2-19.5,3.7-30.4c-2.4-17.3-18.9-28.8-36.3-28.8c-21.5,0-39,17.4-39,39v163.1
		c0,5.4-4.4,9.8-9.8,9.8H142v-2c0-4.9-4-8.9-8.9-8.9c-4.9,0-8.9,4-8.9,8.9v5.7c0,7.8,6.2,14.1,14,14.2l55.2,0.9
		c8.1,0.1,16.5-2.8,19.7-10.3c6.6-15.3,3.2-36.4-3.8-64.2c30.9-15.6,33.6-59.1,11-82.6l5.2-4.6C228.9,277.6,231.8,274.3,233.6,270.4
		z"/>
	<path class="st60" d="M228.4,240.1c1.5,10.9,0.9,20.5-3.7,30.4c-1.8,3.9-4.7,7.2-8,10l-5.2,4.6c22.6,23.5,19.8,66.9-11,82.6
		c7,27.7,10.4,48.9,3.8,64.1c-2.8,6.5-9.6,9.6-16.7,10.2l-49.2-0.8c-7.8-0.1-14-6.5-14-14.2v-5.7c0-4.9,4-8.9,8.9-8.9
		c4.9,0,8.9,4,8.9,8.9v2h10.2c5.4,0,9.8-4.4,9.8-9.8v-73.9c0-4.5-3.5-8.4-6.2-12c-1.8-2.4-3.2-5.9-2.7-11.2c0.3-2.8,0.9-4.9,1.6-6.6
		c2.3-4.9,7.3-10.1,7.3-15.4v-44c0-20,15.1-36.5,34.5-38.7C212.2,213.3,226.2,224.2,228.4,240.1z"/>
	<path class="st60" d="M281.9,420.4h-24.4c-5.6,0-10.2,4.6-10.2,10.2c0,5.6,4.6,10.2,10.2,10.2h24.4h16.9l1.8-13.8l-10-7.4
		L281.9,420.4z"/>
	<path class="st0" d="M294.3,390.7l-24.1,15.9l6.2,5.5c0.9,0.8,1.4,2,1.4,3.3c-0.1,1.6,0.8,3.2,2.3,3.9l0.9,0.4
		c0.9,0.4,1.6,1.1,2.1,1.9l11.3,16.5c2.1,3,6.4,3.5,9,1l21.1-19.7c1.4-1.3,1.5-3.5,0.2-4.9c-0.8-0.9-2.1-1.3-3.2-1l-13.6,2.9
		l-0.1-1.1c-0.1-0.9-0.8-1.5-1.7-1.5c-0.8,0-1.5-0.5-1.7-1.3l-0.8-3.6c-0.2-1.1-0.7-2-1.5-2.8l-1-1.1c-0.9-1-1.6-2.1-2.1-3.3
		L294.3,390.7z"/>
	<path class="st66" d="M304.1,411.4c-3.4,3.5-4.9,5.9-7.4,10.1c0.2-0.2,0.4-0.4,0.6-0.7c2.9-3,4.7-4.9,8.4-7.1
		c-0.6-0.1-1.1-0.5-1.3-1.2L304.1,411.4z"/>
	<path class="st67" d="M277.8,414.5c4.1-1,6.1-2.4,9.3-5.1c-4.1,1.6-6.5,2.3-10.9,2.5C277,412.5,277.6,413.5,277.8,414.5z"/>
	<defs>
		<filter id="Adobe_OpacityMaskFilter" filterUnits="userSpaceOnUse" x="239.8" y="356.7" width="15.7" height="13.1">
			<feColorMatrix  type="matrix" values="1 0 0 0 0  0 1 0 0 0  0 0 1 0 0  0 0 0 1 0"/>
		</filter>
	</defs>
	
		<mask maskUnits="userSpaceOnUse" x="239.8" y="356.7" width="15.7" height="13.1" id="path-216-inside-1_464_1715_00000049941107355085867680000000820784247356008329_">
		<path class="st68" d="M242.7,358.7h10c0.5,0,0.9,0.4,0.9,0.9v7.3c0,0.5-0.4,0.9-0.9,0.9h-10c-0.5,0-0.9-0.4-0.9-0.9v-7.3
			C241.8,359.1,242.2,358.7,242.7,358.7z"/>
	</mask>
	<path class="st69" d="M242.7,358.7h10c0.5,0,0.9,0.4,0.9,0.9v7.3c0,0.5-0.4,0.9-0.9,0.9h-10c-0.5,0-0.9-0.4-0.9-0.9v-7.3
		C241.8,359.1,242.2,358.7,242.7,358.7z"/>
	<path class="st6" d="M242.8,362.2h5.1c0.5,0,0.9,0.4,0.9,0.9c0,0.5-0.4,0.9-0.9,0.9h-5.1V362.2z"/>
	<path class="st7" d="M166.5,214.7c7.9-0.2,13.4-2.5,21.1-8c11.4,0.9,34.5,2.7,35.1,2.9c0.7,0.2,12.7,7.8,18.7,11.6l1.6,37.2
		c0,1-1.3,1.4-1.8,0.6c-2.5-4.1-8.1-5-11.8-1.9l-0.4,0.4c-0.6,0.5-1.6,0.2-1.7-0.6l-2.6-14.1c-0.2-1.3-1.8-1.9-2.8-1.1l-10.6,7.9
		c-1.1,0.8-2.6,0.2-2.8-1.2l-1.8-12.9c-0.2-1.2-1.4-1.9-2.5-1.4l-14.6,6.8c-1.2,0.6-2.5-0.3-2.5-1.6v-13.8c0-1.1-1-1.9-2.1-1.8
		c-9.2,1.3-14.7,0-20.4-4.3C162.6,217.8,164,214.8,166.5,214.7z"/>
	<path class="st70" d="M249.5,144.7c10.9-13.8,27.6,3.4,33.4,10.2l-12.1,20.4C244.3,171.3,240.1,156.7,249.5,144.7z"/>
	<path class="st62" d="M252.1,142.1c8.1-5.4,24.6,0,26.8,12.8"/>
	<path class="st59" d="M265.9,148.6c-5.7-6.1-12.9-0.7-15.6,2.1c1-0.3,4.6-2.1,9.8-2.1c3.8,0,10.6,10.7,15.3,15.2
		C274.6,161.7,271.6,154.7,265.9,148.6z"/>
	<path class="st59" d="M257.2,157.3c0.6-3.7,6.8-5.2,9.8-5.5l1.8,2.4c-1.7,0.1-5.6,0.8-7.4,2.2c-1.8,1.4-1.2,5.5-0.7,7.4
		C259.3,163.1,256.5,161,257.2,157.3z"/>
	<path class="st71" d="M250.4,430.6c0-3.7,3-6.7,6.7-6.7h5v13.3h-5C253.4,437.2,250.4,434.2,250.4,430.6z"/>
	<path class="st0" d="M229.4,297.8c30.9-52.6,1.6-115.6-47.4-94.2l14-12.2c61.5-13.7,83.7,61.3,38.8,124.1
		C233.6,308.4,232.7,304.5,229.4,297.8z"/>
	<path class="st61" d="M221.7,283.8l-10.4,6.9l-6.8-0.8c-0.6-0.1-1.2,0.4-1.3,1c-0.1,0.6,0.4,1.2,1,1.3l6,0.7l-1.1,6.3
		c-0.1,0.6,0.3,1.2,0.9,1.3c0.6,0.1,1.2-0.3,1.3-0.9l1.2-7l9.1-6c-0.5-0.5-0.9-1-1.4-1.5L221.7,283.8z"/>
	<path class="st72" d="M160.7,336.1l11,5.8c4.2,2.2,6.6,6.7,6.1,11.4l-0.7,6.8 M177.1,360l7.1,4.5 M177.1,360l-5.3,5.9"/>
	<path class="st11" d="M262.3,396.6c-0.7-1.3-1.1-2-2.2-3.2c0,0,12.8-5.5,20.4-6.2C273.1,390.4,268.9,392.5,262.3,396.6z"/>
	<path class="st70" d="M282.4,178.2c2.5-2.1,6.7-3.8,9.9-4.8c0.5-0.2,0.6-0.9,0-1c-1.9-0.5-4.8-0.7-7.3,0.5c-2.1,1-3.3,3.1-3.6,4.9
		C281.3,178.3,281.9,178.6,282.4,178.2z"/>
	<path class="st11" d="M333.1,185.7c-5-2.1-8.2-1.7-14.1,0c1.6,8.2,3.8,13,5.9,8.5c0.2,1.7,1.2,5.3,3,5.4c1.8,0.1,2.7-5.7,3-8.7
		c0,0.6,0.2,1.9,1.1,1.9C332.8,192.8,333.1,188.1,333.1,185.7z"/>
</g>
</svg>
