<?xml version="1.0" encoding="utf-8"?>
<!-- Generator: Adobe Illustrator 28.4.1, SVG Export Plug-In . SVG Version: 6.00 Build 0)  -->
<svg version="1.1" id="Layer_1" xmlns="http://www.w3.org/2000/svg" xmlns:xlink="http://www.w3.org/1999/xlink" x="0px" y="0px"
	 viewBox="0 0 600 1000" style="enable-background:new 0 0 600 1000;" xml:space="preserve">
<style type="text/css">
	.st0{fill:#FC0332;}
	.st1{fill:#EFAF30;}
	.st2{fill:#FFEC7B;}
	.st3{fill:#000072;}
	.st4{opacity:0.6;}
	.st5{fill:#FFFFFF;}
	.st6{opacity:0.3;}
	.st7{fill:#01A7FD;}
	.st8{fill:#6ED8F2;}
</style>
<g>
	<g id="Layer_2_00000124863569196042102610000004875073211404526762_">
		<g>
			<g>
				<g>
					<g>
						<g>
							<g>
								<path class="st0" d="M172.6,833.2c0,0,21,16.8,9.9,38.8c-11,22-37.4,18.6-42.5,29.7c5.1-11.2-14.8-28.8-5.4-51.6
									c9.4-22.8,35.8-17.9,35.8-17.9"/>
							</g>
						</g>
						<g>
							<g>
								<path class="st1" d="M169.1,837.9c-4.5-0.5-17.6-0.6-22.8,11.7c-3.8,9.4-0.7,17.7,2.7,26.4c0.3,1,0.8,2,1.1,3
									c1-0.3,2-0.8,3-1.1c8.9-3.2,17.2-6.2,21.7-15.2C181.1,850.9,172.4,841.1,169.1,837.9z"/>
							</g>
						</g>
						<g>
							<g>
								<path class="st2" d="M168.1,839.9c-2.5-0.2-9.7-0.3-12.5,6.4c-2.1,5.2-0.3,9.7,1.5,14.5c0.2,0.6,0.5,1.1,0.7,1.7
									c0.6-0.2,1.1-0.5,1.7-0.6c4.8-1.8,9.5-3.4,11.9-8.3C174.8,847.1,170,841.7,168.1,839.9z"/>
							</g>
						</g>
						<g>
							<g>
								<path class="st3" d="M139.9,904.5c-0.5,0-0.8-0.1-1.1-0.2c-1-0.5-1.7-1.5-1.7-2.6c0-0.5,0.1-0.8,0.2-1.1
									c1.7-3.6-0.5-8.9-2.8-15.1c-3.8-9.8-8.6-22.1-2.6-36.4c4.3-10.3,12.5-16.8,24.1-18.9c8.5-1.6,15.7-0.2,16-0.2
									c0.5,0.1,0.9,0.2,1.2,0.6c0.2,0.2,6,4.7,10.4,12.2c6,10.1,6.4,20.7,1.5,30.6c-6.9,13.9-19.3,18.3-29.2,21.9
									c-6.2,2.3-11.6,4.2-13.3,7.8C142.1,903.9,141.1,904.5,139.9,904.5z M164.4,834.9c-8.1,0-21.4,2.3-27.2,16.2
									c-5.1,12.2-0.9,22.8,2.7,32.1c1.5,3.9,2.9,7.5,3.5,10.9c2.9-1.8,6.6-3,10.6-4.5c9.5-3.4,20.2-7.2,26-19
									c9-17.9-6.6-32.7-9.7-35.4C169.2,835.2,167.1,834.9,164.4,834.9z"/>
							</g>
						</g>
						<g>
							<g>
								<path class="st3" d="M142.5,902.9l-18.6,35.3c-0.3,0.7-1.4,0.2-1-0.5l14.4-37.1C139,896.8,144.3,899.3,142.5,902.9
									L142.5,902.9z"/>
							</g>
						</g>
					</g>
					<g>
						<g>
							<path class="st0" d="M141.2,560.6c0,0-185.3-10.1-110.7,186.9c0,0,23.4-97.6,107.4-84.7L141.2,560.6z"/>
						</g>
					</g>
					<g class="st4">
						<g>
							<path class="st5" d="M140.6,579.8l0.6-19.2c0,0-185.3-10.1-110.7,186.9c0,0,0.1-0.3,0.3-1.1
								C-16.6,593.3,107.5,580.4,140.6,579.8z"/>
						</g>
					</g>
					<g>
						<g>
							<path class="st3" d="M30.6,755.6c-3.4,0-6.4-2-7.7-5.3c-24.7-65.1-24.3-115.8,1.1-150.5c37.4-51.2,114.4-47.6,117.6-47.3
								c4.4,0.2,7.9,3.9,7.7,8.5L146.2,663c-0.1,2.4-1.1,4.5-2.9,6c-1.8,1.5-4.2,2.1-6.4,1.8c-31.4-4.7-57.4,6.6-77.1,33.9
								c-15.3,21.2-21.1,44.5-21.2,44.7c-0.8,3.5-3.8,6-7.4,6.2C31,755.6,30.7,755.6,30.6,755.6z M132.8,568.7
								c-19.5,0.6-70,5.5-95.7,40.7c-19.2,26.3-21.3,64.2-6.4,113.4c3.6-8.2,8.7-17.8,15.4-27.3c21.4-29.9,50.3-44.2,83.9-41.9
								L132.8,568.7z"/>
						</g>
					</g>
					<g>
						<g>
							<path class="st0" d="M398.1,677.8c0,0,129,133.3-68.7,206c0,0,58.4-81.6-6.4-136.7L398.1,677.8z"/>
						</g>
					</g>
					<g class="st6">
						<g>
							<path class="st3" d="M333.7,876.9c12.3-20.7,42.7-84.3-10.7-129.8l52.5-48.5C399.3,729.8,449.7,816.7,333.7,876.9z"/>
						</g>
					</g>
					<g>
						<g>
							<path class="st3" d="M329.4,892c-2.5,0-5-1.1-6.5-3.3c-2.1-2.8-2.3-6.8-0.1-9.7c0.1-0.2,14-19.7,19.8-45.3
								c7.7-32.8-0.7-59.8-24.9-80.5c-1.8-1.5-2.8-3.7-2.8-6.1c0-2.4,0.9-4.6,2.6-6.2l75-69.3c3.3-3,8.3-2.8,11.4,0.3
								c2.3,2.4,55.4,58.1,41.4,119.9c-9.6,41.9-47.7,75.4-113,99.5C331.3,891.9,330.4,892,329.4,892z M335,747.2
								c23.8,24,31.9,55.2,23.3,90.9c-2.7,11.3-6.6,21.3-10.5,29.5c46.9-21,74.1-47.4,81.5-79.1c9.7-42.6-19.5-83.8-31.9-98.8
								L335,747.2z"/>
						</g>
					</g>
					<g>
						<g>
							<g>
								<path class="st7" d="M238.1,688.5l92.5,42.3l-54.3,60.8c-13.5,15.2-35.5,19.8-54,11.4l-30.1-13.7l-30.1-13.7
									c-18.6-8.5-29.4-28.1-26.8-48.2l10.4-80.9L238.1,688.5"/>
							</g>
						</g>
						<g class="st6">
							<g>
								<path class="st3" d="M247.9,692.9l-48.7,54.5c-13.5,15.2-35.5,19.8-54,11.4l-3.5-1.6c4.7,7.8,11.7,14.2,20.4,18.1l30.1,13.7
									l30.1,13.7c18.6,8.5,40.5,3.8,54-11.4l54.3-60.8L247.9,692.9z"/>
							</g>
						</g>
						<g>
							<g>
								<path class="st3" d="M241.7,815.1c-7.7,0-15.4-1.6-22.8-5l-60.2-27.5c-21.9-10-34.6-32.8-31.6-56.7l10.4-80.9
									c0.3-2.6,1.9-4.8,4.2-6.1c2.3-1.2,5-1.4,7.3-0.3l92.5,42.3h0.1l92.4,42.1c2.4,1.1,4.1,3.2,4.6,5.7c0.6,2.6-0.2,5.2-1.9,7.1
									l-54.3,60.8C271.7,808.8,256.9,815.1,241.7,815.1z M152.2,658.3l-8.9,69.9c-2.1,16.8,6.8,32.8,22.1,39.8l60.2,27.5
									c15.3,7,33.2,3.3,44.5-9.4l47-52.5l-82.4-37.6h-0.1L152.2,658.3z"/>
							</g>
						</g>
					</g>
					<g>
						<g>
							<g>
								<path class="st5" d="M338.5,754.9c-12.4,11.9-30.9,15.2-46.7,8l-145.1-66.3c-15.8-7.2-25.5-23.2-24.6-40.5
									c3.3-63,20.1-219.5,103.1-379.5c17.5-33.6,37-61.5,57.4-84.9C360,103.2,450.7,82.3,493.3,77.3c15.4-1.8,30.5,5.2,39.2,17.9
									c24.1,35.4,67.7,117.6,51.6,234.2c-4.2,30.6-12.6,63.8-26.6,98.9C491.2,595.9,383.9,711.1,338.5,754.9z"/>
							</g>
						</g>
						<g>
							<g>
								<path class="st0" d="M584.1,329.4C458.7,159,282.6,191.8,282.6,191.8C360,103.2,450.7,82.3,493.3,77.3
									c15.4-1.8,30.5,5.2,39.2,17.9C556.6,130.6,600.2,212.9,584.1,329.4z"/>
							</g>
						</g>
						<g class="st4">
							<g>
								<path class="st5" d="M529.7,91.5c-3.3-0.5-6.6-0.5-10-0.1c-42.6,5-133.2,26-210.7,114.5c-20.4,23.3-39.9,51.3-57.4,84.9
									C182.4,424,159.2,555.1,151.5,631.4c-1.6,15.2-2.5,28.3-3,38.8c-0.7,13,4.6,25.2,14,33.6l-10.4-4.7l-5.4-2.5
									c-15.8-7.2-25.5-23.2-24.6-40.5c3.3-63,20.1-219.5,103.1-379.5c17.5-33.6,37-61.5,57.4-84.9
									C360,103.2,450.7,82.1,493.3,77.2C507.1,75.7,520.7,81.1,529.7,91.5z"/>
							</g>
						</g>
						<g class="st6">
							<g>
								<path class="st3" d="M559.8,319.5c-4.2,30.6-12.6,63.8-26.6,98.9c-66.4,167.6-173.6,282.8-219.1,326.6
									c-10.3,9.8-24.5,13.7-38,10.9l-113.8-51.9c-9.4-8.3-14.6-20.6-14-33.6c0.6-10.5,1.5-23.6,3-38.8l85.3,39
									c15.8,7.2,34.3,4.1,46.7-8c23.7-22.9,64.3-65.2,107-124.3c43.2-7.7,80.8-36.2,99.3-76.8c15.4-33.9,15.7-70.9,3.5-103.3
									c3.2-7.2,6.2-14.6,9.1-22.1c14-35.2,22.3-68.2,26.6-98.9c6.6-47.7,3.3-89.7-4.7-125C547.4,154.8,572.7,226.2,559.8,319.5z"
									/>
							</g>
						</g>
						<g>
							<g>
								<path class="st3" d="M584.1,337.6c-2.5,0-5-1.1-6.5-3.3C514.5,248.7,438.2,216.7,385.4,205c-57.6-12.7-100.9-5.1-101.2-5.1
									c-4.4,0.8-8.7-2.1-9.5-6.5c-0.8-4.4,2.1-8.7,6.5-9.5c1.9-0.3,46.3-8.3,106.9,5c55.9,12.3,136.3,45.7,202.6,135.8
									c2.7,3.6,1.9,8.7-1.7,11.4C587.5,337,585.8,337.6,584.1,337.6z"/>
							</g>
						</g>
						<g>
							<g>
								<path class="st3" d="M309.3,774.9c-7.1,0-14.2-1.5-21-4.6l-145-66.3c-18.9-8.7-30.4-27.6-29.3-48.3
									c3.3-61.1,19.8-220.6,104-382.8C303.7,107.8,438.4,75.5,492.3,69.2c18.5-2.1,36.4,6.1,47,21.4
									c30.6,44.8,94.4,167.8,25.9,340.8c-67.4,169.9-177,287-221.1,329.4C334.5,770,322,774.9,309.3,774.9z M498.2,85.2
									c-1.2,0-2.6,0.1-3.9,0.2c-51.4,6-179.6,36.8-261.8,195.1c-82.7,159.3-99,316.2-102.2,376.1c-0.8,14,7,26.8,19.8,32.7
									l145.1,66.3c12.7,5.9,27.5,3.3,37.6-6.4c43.3-41.7,151-156.7,217.1-323.6c65.7-165.6,5-282.8-24.2-325.5
									C519.5,90.6,509.1,85.2,498.2,85.2z"/>
							</g>
						</g>
					</g>
					<g>
						<g>
							<path class="st0" d="M269.6,619.2c0,0,26.1,46.7,3.6,100.2C250.6,773,180,815.6,180,815.6s-14.1-81.2,11.6-133.4
								S269.6,619.2,269.6,619.2z"/>
						</g>
					</g>
					<g class="st4">
						<g>
							<path class="st5" d="M200.9,703.1c23.4-47.7,69.1-60.7,76.8-62.8c-3.6-13.2-8.1-21.3-8.1-21.3s-52.4,10.8-78.1,63
								s-11.6,133.4-11.6,133.4s2.4-1.5,6.4-4.2C184.3,783.4,184.2,737.2,200.9,703.1z"/>
						</g>
					</g>
					<g>
						<g>
							<path class="st3" d="M180,823.8c-1.1,0-2.3-0.2-3.4-0.8c-2.5-1.1-4.2-3.4-4.6-6.1c-0.6-3.4-14.2-84.5,12.3-138.5
								c27-55.1,81.4-66.9,83.7-67.4c3.5-0.7,7,0.9,8.8,3.9c1.1,2,27.8,50.8,3.9,107.4c-23.4,55.3-93.5,98.3-96.5,100.1
								C183,823.5,181.5,823.8,180,823.8z M265.2,629c-13.9,4.6-47.8,19.3-66.3,56.8c-18.4,37.3-15.2,91.6-12.5,115.8
								c20.1-14,63.1-47.1,79.3-85.4C282,677.7,270.9,642.4,265.2,629z"/>
						</g>
					</g>
					<g>
						<g>
							<g>
								<g>
									<circle class="st7" cx="367.3" cy="405.3" r="111.6"/>
								</g>
							</g>
							<g class="st4">
								<g>
									<path class="st5" d="M279.8,380c25.6-56.1,91.8-80.8,147.8-55.2c15.4,7.1,28.5,17.2,38.9,29.4
										c-11-21.5-29.2-39.6-52.8-50.4c-56.1-25.6-122.3-0.9-147.8,55.2c-18.5,40.6-10.7,86.5,16.3,118.4
										C267,448,265,412.3,279.8,380z"/>
								</g>
							</g>
							<g>
								<g>
									<path class="st3" d="M367.2,525.1c-16.9,0-33.8-3.6-49.7-10.8c-29.1-13.3-51.3-37.1-62.4-67s-10-62.5,3.3-91.6
										C285.7,295.6,357,269,417,296.4c60.1,27.4,86.7,98.6,59.3,158.7l0,0c-13.3,29.1-37.1,51.3-67,62.4
										C395.5,522.6,381.4,525.1,367.2,525.1z M367.4,301.9c-39.3,0-77,22.5-94.3,60.5c-11.5,25.1-12.5,53.2-2.8,79.1
										c9.7,25.9,28.8,46.4,54,57.9c25.1,11.5,53.2,12.5,79.1,2.8s46.4-28.8,57.9-54l0,0c23.7-51.9,0.7-113.4-51.2-137
										C396.4,304.8,381.8,301.9,367.4,301.9z"/>
								</g>
							</g>
						</g>
						<g>
							<g>
								<g>
									<path class="st8" d="M339.4,466.5c-33.8-15.4-48.7-55.4-33.4-89.2s55.4-48.7,89.2-33.4c33.8,15.4,48.7,55.4,33.4,89.2
										C413.1,467,373.1,481.9,339.4,466.5z"/>
								</g>
							</g>
							<g class="st6">
								<g>
									<path class="st3" d="M320,403c15.4-33.8,55.4-48.7,89.2-33.4c9,4.1,16.6,9.9,22.6,16.9c-5.3-18.3-18.1-34.1-36.7-42.6
										c-33.8-15.4-73.8-0.5-89.2,33.4c-11.3,24.8-6.2,53,10.6,72.2C312.3,434.6,313,418.2,320,403z"/>
								</g>
							</g>
							<g>
								<g>
									<path class="st3" d="M367.2,480.8c-10.5,0-21.1-2.1-31.2-6.8c-18.4-8.3-32.3-23.3-39.3-42.3c-7.1-18.9-6.3-39.4,2-57.7
										c8.3-18.4,23.3-32.3,42.3-39.3c18.9-7.1,39.4-6.3,57.7,2C436.5,354,453.3,399,436,436.9
										C423.3,464.4,395.8,480.8,367.2,480.8z M367.3,346.2c-22.4,0-43.9,12.8-54,34.6c-13.5,29.6-0.5,64.9,29.3,78.4
										c29.6,13.5,64.9,0.5,78.4-29.3c13.5-29.6,0.5-64.9-29.3-78.4C383.9,347.8,375.6,346.2,367.3,346.2z"/>
								</g>
							</g>
						</g>
					</g>
				</g>
			</g>
		</g>
	</g>
	<g id="Layer_3_00000000944295995033663710000012040291189318034846_">
	</g>
</g>
</svg>
