<?xml version="1.0" encoding="utf-8"?>
<!-- Generator: Adobe Illustrator 28.4.1, SVG Export Plug-In . SVG Version: 6.00 Build 0)  -->
<svg version="1.1" id="Layer_1" xmlns="http://www.w3.org/2000/svg" xmlns:xlink="http://www.w3.org/1999/xlink" x="0px" y="0px"
	 viewBox="0 0 232 242" style="enable-background:new 0 0 232 242;" xml:space="preserve">
<style type="text/css">
	.st0{fill:#FC0332;}
	.st1{fill:#EFAF30;}
	.st2{fill:#FFEC7B;}
	.st3{fill:#000072;}
	.st4{opacity:0.6;}
	.st5{fill:#FFFFFF;}
	.st6{opacity:0.3;}
	.st7{fill:#01A7FD;}
	.st8{fill:#6ED8F2;}
</style>
<g>
	<g id="Layer_2_00000124863569196042102610000004875073211404526762_">
		<g>
			<g>
				<g>
					<g>
						<g>
							<g>
								<path class="st0" d="M45.8,208.4c0,0,4.7,7-0.6,12.5c-5.3,5.6-12.9,2.1-15.5,4.9c2.6-2.9-1.8-10,3.2-16c4.9-6,12.4-2,12.4-2
									"/>
							</g>
						</g>
						<g>
							<g>
								<path class="st1" d="M44.3,209.5c-1.3-0.6-5.2-1.8-7.9,1.4c-2,2.5-1.9,5.2-1.6,8.2c0,0.3,0.1,0.7,0.1,1c0.3,0,0.7-0.1,1-0.1
									c3-0.1,5.7-0.3,7.9-2.5C46.7,214.5,45,210.8,44.3,209.5z"/>
							</g>
						</g>
						<g>
							<g>
								<path class="st2" d="M43.8,210c-0.7-0.3-2.9-1-4.3,0.8c-1.1,1.4-1,2.9-0.9,4.5c0,0.2,0,0.4,0.1,0.6c0.2,0,0.4,0,0.6,0
									c1.6-0.1,3.2-0.1,4.3-1.4C45.2,212.8,44.2,210.7,43.8,210z"/>
							</g>
						</g>
						<g>
							<g>
								<path class="st3" d="M29.4,226.7c-0.1,0-0.2-0.1-0.3-0.2c-0.3-0.2-0.4-0.6-0.3-0.9c0-0.1,0.1-0.2,0.2-0.3
									c0.8-0.9,0.7-2.7,0.6-4.8c-0.2-3.3-0.5-7.4,2.6-11.1c2.2-2.7,5.3-3.9,9-3.4c2.7,0.3,4.7,1.4,4.8,1.4
									c0.1,0.1,0.3,0.1,0.3,0.3c0,0.1,1.4,2,2,4.6c0.9,3.6,0,6.8-2.4,9.3c-3.4,3.5-7.5,3.7-10.8,3.8c-2.1,0.1-3.9,0.2-4.7,1.1
									C30.1,226.7,29.7,226.8,29.4,226.7z M43.2,208.2c-2.4-0.8-6.6-1.3-9.7,2.3c-2.7,3.2-2.4,6.7-2.2,9.9c0.1,1.3,0.2,2.5,0,3.6
									c1-0.3,2.3-0.3,3.6-0.4c3.2-0.1,6.7-0.3,9.6-3.3c4.4-4.5,1.1-10.4,0.4-11.5C44.6,208.7,44,208.4,43.2,208.2z"/>
							</g>
						</g>
						<g>
							<g>
								<path class="st3" d="M30.3,226.5l-8.9,8.8c-0.2,0.2-0.4-0.1-0.3-0.2l7.8-9.8C29.8,224.3,31.2,225.6,30.3,226.5L30.3,226.5z"
									/>
							</g>
						</g>
					</g>
					<g>
						<g>
							<path class="st0" d="M61.7,123.8c0,0-54.6-20.3-50.5,45.7c0,0,16.1-27.1,40.1-15.4L61.7,123.8z"/>
						</g>
					</g>
					<g class="st4">
						<g>
							<path class="st5" d="M59.8,129.5l2-5.7c0,0-54.6-20.3-50.5,45.7c0,0,0.1-0.1,0.2-0.3C11.4,118.9,49.8,126.6,59.8,129.5z"/>
						</g>
					</g>
					<g>
						<g>
							<path class="st3" d="M10.5,172c-1-0.3-1.7-1.2-1.8-2.3c-1.3-21.8,3.5-36.9,14.3-45c16-11.9,38.7-3.6,39.6-3.2
								c1.3,0.5,2,1.9,1.5,3.3L53.7,155c-0.3,0.7-0.7,1.2-1.4,1.5c-0.7,0.3-1.5,0.2-2.1-0.1c-9-4.3-17.8-3.4-26.2,3
								c-6.6,4.9-10.5,11.4-10.5,11.4c-0.6,1-1.7,1.4-2.8,1.2C10.6,172,10.5,172,10.5,172z M58.5,125.5c-5.9-1.6-21.5-4.9-32.5,3.3
								c-8.2,6.1-12.4,17.3-12.5,33.4c1.8-2.1,4.3-4.5,7.2-6.7c9.2-7,19.2-8.6,29-4.7L58.5,125.5z"/>
						</g>
					</g>
					<g>
						<g>
							<path class="st0" d="M127.8,182.8c0,0,26.2,51.9-39.7,55.3c0,0,25.1-19,10.8-41.5L127.8,182.8z"/>
						</g>
					</g>
					<g class="st6">
						<g>
							<path class="st3" d="M90,236.5c5.6-5.1,20.6-21.3,8.9-39.9l20.2-9.6C123.3,198.5,130.3,229.2,90,236.5z"/>
						</g>
					</g>
					<g>
						<g>
							<path class="st3" d="M87.3,240.6c-0.7-0.2-1.4-0.8-1.6-1.6c-0.4-1-0.1-2.3,0.9-2.9c0-0.1,6-4.6,10.1-11.7
								c5.4-9.1,5.4-18,0-26.4c-0.4-0.6-0.5-1.4-0.3-2.1c0.2-0.7,0.7-1.3,1.4-1.6l28.9-13.8c1.3-0.6,2.7-0.1,3.4,1.2
								c0.5,0.9,11.2,22.6,1.2,39.8c-6.8,11.7-21.3,18.1-43.1,19.3C87.9,240.7,87.6,240.7,87.3,240.6z M102.4,197.7
								c4.9,9.4,4.4,19.5-1.5,29.4c-1.9,3.1-4,5.8-5.9,7.9c16-1.9,26.6-7.3,31.8-16.1c6.9-11.9,2-26.9-0.4-32.6L102.4,197.7z"/>
						</g>
					</g>
					<g>
						<g>
							<g>
								<path class="st7" d="M78.9,171.2l23.8,21.3l-21.9,13.2c-5.5,3.3-12.5,2.6-17.2-1.6l-7.7-6.9l-7.7-6.9
									c-4.8-4.3-6.2-11.2-3.5-16.9L55.1,150L78.9,171.2"/>
							</g>
						</g>
						<g class="st6">
							<g>
								<path class="st3" d="M81.4,173.4l-19.7,11.8c-5.5,3.3-12.5,2.6-17.2-1.6l-0.9-0.8c0.7,2.8,2.2,5.3,4.4,7.3l7.7,6.9l7.7,6.9
									c4.8,4.3,11.8,4.9,17.2,1.6l21.9-13.2L81.4,173.4z"/>
							</g>
						</g>
						<g>
							<g>
								<path class="st3" d="M68.2,209.4c-2.3-0.7-4.5-1.9-6.4-3.6L46.3,192c-5.6-5-7.3-13-4.2-19.9l10.6-23.3
									c0.3-0.8,1-1.3,1.8-1.4c0.8-0.1,1.6,0,2.2,0.6l23.8,21.3l0,0l23.8,21.2c0.6,0.6,0.9,1.3,0.8,2.1c-0.1,0.8-0.5,1.5-1.2,2
									l-21.9,13.2C77.7,210.3,72.7,210.8,68.2,209.4z M56,154.1l-9.2,20.1c-2.2,4.8-1,10.5,2.9,14L65.2,202
									c3.9,3.5,9.6,4.1,14.2,1.3l19-11.4l-21.2-18.9l0,0L56,154.1z"/>
							</g>
						</g>
					</g>
					<g>
						<g>
							<g>
								<path class="st5" d="M102.8,200.4c-4.8,2.4-10.7,1.7-14.7-1.9l-37.3-33.4c-4.1-3.6-5.5-9.3-3.6-14.4
									c6.8-18.6,26.4-63.9,66.2-104.1c8.4-8.4,16.8-15,25.1-20.1c31.4-19.3,60.5-17.1,73.8-14.7c4.8,0.9,8.7,4.4,10.1,9
									c3.9,12.8,9.3,41.5-6.3,75c-4.1,8.8-9.7,17.9-17.2,27.2C163.3,167,120.4,191.5,102.8,200.4z"/>
							</g>
						</g>
						<g>
							<g>
								<path class="st0" d="M215.9,95.8c-21.7-62.7-77.5-69.3-77.5-69.3c31.4-19.3,60.5-17.2,73.8-14.7c4.8,0.9,8.7,4.4,10.1,9
									C226.2,33.7,231.6,62.4,215.9,95.8z"/>
							</g>
						</g>
						<g class="st4">
							<g>
								<path class="st5" d="M221.8,19.4c-0.9-0.5-1.9-0.8-3-1c-13.2-2.5-42.3-4.6-73.8,14.7c-8.3,5.1-16.7,11.7-25.1,20.1
									C86.8,86.7,67.6,123.9,58.2,146c-1.9,4.4-3.4,8.2-4.5,11.3c-1.4,3.8-1,8,1.1,11.4l-2.7-2.4l-1.4-1.3
									c-4.1-3.6-5.5-9.3-3.6-14.4c6.8-18.6,26.4-63.9,66.2-104.1c8.4-8.4,16.8-15,25.1-20.1C169.8,7.2,199,9.3,212.2,11.8
									C216.5,12.6,220,15.5,221.8,19.4z"/>
							</g>
						</g>
						<g class="st6">
							<g>
								<path class="st3" d="M209.6,90.5c-4.1,8.8-9.7,17.9-17.2,27.2c-35.5,44-78.3,68.6-96,77.5c-4,2-8.6,1.8-12.4-0.3l-29.3-26.1
									c-2-3.4-2.5-7.5-1.1-11.4c1.2-3.1,2.6-6.9,4.5-11.3l21.9,19.6c4.1,3.6,9.9,4.4,14.7,1.9c9.2-4.7,25.3-13.6,43.6-27.3
									c13.7,1.7,27.6-3.3,36.9-13.8c7.8-8.7,11.3-19.8,10.7-30.6c1.6-1.9,3.2-3.8,4.8-5.8c7.5-9.2,13-18.4,17.2-27.2
									c6.4-13.7,9.3-26.6,10.2-37.9C221.2,40,222.1,63.8,209.6,90.5z"/>
							</g>
						</g>
						<g>
							<g>
								<path class="st3" d="M215.2,98.2c-0.7-0.2-1.4-0.8-1.6-1.6C202.6,65.1,182.7,48.4,168,40c-16.1-9.2-29.8-10.9-29.8-10.9
									c-1.4-0.2-2.4-1.4-2.2-2.8c0.2-1.4,1.4-2.4,2.8-2.2c0.6,0.1,14.6,1.8,31.6,11.4c15.6,8.9,36.6,26.4,48.1,59.5
									c0.5,1.3-0.2,2.8-1.6,3.3C216.2,98.4,215.7,98.4,215.2,98.2z"/>
							</g>
						</g>
						<g>
							<g>
								<path class="st3" d="M92.2,203.7c-2.1-0.7-4.1-1.8-5.9-3.3L49,167c-4.9-4.4-6.5-11.1-4.3-17.2c6.7-18,26.5-64.2,66.8-105
									c41-41.5,84.4-38.6,101.1-35.5c5.7,1.1,10.3,5.2,12.1,10.8c5,16.3,12.7,59-23.9,104.5c-36,44.6-79.7,69.5-96.9,78.1
									C100.2,204.5,96,204.8,92.2,203.7z M212.9,14.6c-0.4-0.1-0.8-0.2-1.2-0.3c-16-3-57.2-5.7-96.6,34.1
									c-39.6,40-59.1,85.5-65.6,103.2c-1.5,4.1-0.4,8.7,2.9,11.6l37.3,33.4c3.3,2.9,7.9,3.5,11.9,1.6
									c16.8-8.5,59.8-32.9,95.1-76.7c35.1-43.5,27.8-84.2,23-99.8C218.8,18.2,216.2,15.6,212.9,14.6z"/>
							</g>
						</g>
					</g>
					<g>
						<g>
							<path class="st0" d="M94.8,153.3c0,0,3.5,16.4-8.2,30.4c-11.8,14-36.9,20.1-36.9,20.1s3.3-25.6,15.9-38.9
								S94.8,153.3,94.8,153.3z"/>
						</g>
					</g>
					<g class="st4">
						<g>
							<path class="st5" d="M66.4,172.1c11.4-12.1,26.3-11.8,28.8-11.7c0.1-4.3-0.4-7.1-0.4-7.1s-16.7-1.6-29.3,11.6
								s-15.9,38.9-15.9,38.9s0.9-0.2,2.3-0.7C53.9,194.6,58.2,180.7,66.4,172.1z"/>
						</g>
					</g>
					<g>
						<g>
							<path class="st3" d="M48.9,206.3c-0.3-0.1-0.7-0.3-0.9-0.6c-0.6-0.6-0.9-1.4-0.8-2.3c0.1-1.1,3.6-26.6,16.6-40.3
								c13.2-14,30.6-12.5,31.3-12.4c1.1,0.1,2,0.9,2.3,2c0.1,0.7,3.6,17.8-8.8,32.5c-12.2,14.4-37.2,20.7-38.2,21
								C49.8,206.5,49.3,206.4,48.9,206.3z M92.5,155.8c-4.6,0.1-16.1,1.3-25.1,10.8c-9,9.5-13.1,26-14.5,33.5
								c7.3-2.3,23.3-8.2,31.7-18.2C93,172,93,160.4,92.5,155.8z"/>
						</g>
					</g>
					<g>
						<g>
							<g>
								<g>
									<circle class="st7" cx="143.9" cy="98.3" r="35"/>
								</g>
							</g>
							<g class="st4">
								<g>
									<path class="st5" d="M120.1,82.6c12.9-14.4,35-15.7,49.4-2.8c4,3.6,6.9,7.8,8.9,12.4c-1.3-7.5-5.1-14.6-11.1-20
										c-14.4-12.9-36.6-11.6-49.4,2.8c-9.3,10.4-11.3,24.9-6.1,37C109.9,101.8,112.6,90.9,120.1,82.6z"/>
								</g>
							</g>
							<g>
								<g>
									<path class="st3" d="M132.7,134.2c-5.1-1.6-9.8-4.2-13.9-7.9c-7.5-6.7-11.9-15.9-12.5-25.9c-0.5-10,2.8-19.7,9.5-27.1
										c13.8-15.5,37.6-16.8,53-3c15.5,13.8,16.8,37.6,3,53.1l0,0c-6.7,7.5-15.9,11.9-25.9,12.5
										C141.5,136.1,137,135.5,132.7,134.2z M153.6,67.4c-11.8-3.7-25.2-0.4-33.9,9.4c-5.8,6.4-8.7,14.8-8.2,23.4
										s4.3,16.6,10.8,22.4c6.4,5.8,14.8,8.7,23.4,8.2c8.7-0.5,16.6-4.3,22.4-10.8l0,0c11.9-13.3,10.8-33.9-2.6-45.8
										C162,70.9,157.9,68.7,153.6,67.4z"/>
								</g>
							</g>
						</g>
						<g>
							<g>
								<g>
									<path class="st8" d="M129.9,114.1c-8.7-7.8-9.4-21.1-1.7-29.8s21.1-9.4,29.8-1.7c8.7,7.8,9.4,21.1,1.7,29.8
										C151.9,121.1,138.5,121.8,129.9,114.1z"/>
								</g>
							</g>
							<g class="st6">
								<g>
									<path class="st3" d="M130,93.2c7.8-8.7,21.1-9.4,29.8-1.7c2.3,2.1,4.1,4.5,5.2,7.2c0.1-6-2.3-11.9-7-16.2
										c-8.7-7.8-22.1-7-29.8,1.7c-5.7,6.4-6.8,15.3-3.5,22.6C124.7,102,126.5,97.1,130,93.2z"/>
								</g>
							</g>
							<g>
								<g>
									<path class="st3" d="M136.9,120.9c-3.1-1-6.1-2.6-8.7-4.9c-4.7-4.2-7.5-10-7.8-16.3c-0.4-6.3,1.8-12.4,6-17.1
										c4.2-4.7,10-7.5,16.3-7.8c6.3-0.4,12.4,1.8,17.1,6c9.7,8.7,10.6,23.7,1.9,33.5C155.2,121.2,145.4,123.6,136.9,120.9z
										 M149.4,80.6c-6.7-2.1-14.3-0.2-19.4,5.3c-6.8,7.6-6.2,19.4,1.5,26.2c7.6,6.8,19.4,6.2,26.2-1.5c6.8-7.6,6.2-19.4-1.5-26.2
										C154.2,82.7,151.9,81.4,149.4,80.6z"/>
								</g>
							</g>
						</g>
					</g>
				</g>
			</g>
		</g>
	</g>
	<g id="Layer_3_00000000944295995033663710000012040291189318034846_">
	</g>
</g>
</svg>
