<?xml version="1.0" encoding="utf-8"?>
<!-- Generator: Adobe Illustrator 28.4.1, SVG Export Plug-In . SVG Version: 6.00 Build 0)  -->
<svg version="1.1" id="Layer_1" xmlns="http://www.w3.org/2000/svg" xmlns:xlink="http://www.w3.org/1999/xlink" x="0px" y="0px"
	 viewBox="0 0 300 250" style="enable-background:new 0 0 300 250;" xml:space="preserve">
<style type="text/css">
	.st0{fill:#FFD3B5;}
	.st1{fill:#D1A07E;}
	.st2{fill:#FF8C19;}
	.st3{fill:#8F473B;}
	.st4{fill:#ED5F00;}
	.st5{fill:#2859D1;}
	.st6{fill:url(#SVGID_1_);}
	.st7{fill:#4C7DFF;}
	.st8{opacity:0.5;fill:#FFFFFF;enable-background:new    ;}
	.st9{fill:#8CD9FF;}
	.st10{fill:#6B2F34;}
	.st11{fill:url(#SVGID_00000095312802493161914420000009820915949429310133_);}
	.st12{fill:#B6A3FF;}
	.st13{fill:#FFC619;}
	.st14{fill:#AF5DFF;}
	.st15{fill:#846DFF;}
	.st16{fill:#3D23FF;}
	.st17{fill:#66BCFF;}
	.st18{fill:#242145;}
	.st19{fill:#FFFFFF;}
	.st20{fill:#FF2EA2;}
</style>
<g>
	<g>
		<path class="st0" d="M272.7,191c0,0-24,33.7-37.5,44.6c-10.4,8.4-17.6,8.5-25.1,0.2c-10.1-11.4-35-50.3-35-50.3
			c-5.9-9.5-3-22.1,6.5-28c9.5-5.9,22.5-3,28.4,6.5l13.7,22.9l1.4,2.3l0.3,0.4l25-22.4L272.7,191z"/>
		<path class="st1" d="M225.3,189.3c-2.5,3-4.7,6.3-6.5,9.7c-0.2,0.5-0.6,0.8-1.1,0.8l-0.6-0.2c-0.6-0.3-0.9-1.1-0.6-1.7
			c2.1-3.9,4.6-7.6,7.5-11L225.3,189.3z"/>
		<g>
			<polygon class="st2" points="303.1,173.3 277.1,121 275.4,117.4 263.7,122.1 267.4,130.2 290.3,179.3 			"/>
			<path class="st3" d="M275.1,143.9l0.6-3.4c0.6-3.5-1.5-6.9-5-7.9c-3.7-1.1-6.3,0.6-8.3,3.7c-1.9,3-6,10.2-6.1,14.5
				c0.1,2,0.5,3.9,1.3,5.7l-11.7,11c-0.8,0.9-0.8,2.3,0,3.2c5.4,5.8,24.8,25.6,28.1,26.7c3.3,1.1,4.5-0.2,6-2.1l11-18.6L275.1,143.9
				z"/>
			<path class="st3" d="M294.4,130.7c0,0-11.6-1.7-13.6-2.4l15,42.1c0,0,10-5.3,13.3-12c3.3-6.7,1.2-10.3-1.4-13.3
				c-2.6-3-3.4-4.1-3.7-7.2C303.2,129.9,294.4,130.7,294.4,130.7z"/>
			<polygon points="277.1,121 267.4,130.2 263.7,122.1 275.4,117.4 			"/>
			<polygon class="st4" points="307.9,177.7 290.4,186 284.8,179 305.8,168.9 			"/>
			<polygon class="st5" points="280.4,118 261.2,127.4 253.4,118 277.9,106.3 			"/>
			
				<linearGradient id="SVGID_1_" gradientUnits="userSpaceOnUse" x1="322.1819" y1="136.9443" x2="215.5909" y2="85.8224" gradientTransform="matrix(1 0 0 -1 0 197)">
				<stop  offset="0" style="stop-color:#8CD9FF"/>
				<stop  offset="0.32" style="stop-color:#79CBFF"/>
				<stop  offset="0.69" style="stop-color:#6BC0FF"/>
				<stop  offset="1" style="stop-color:#66BCFF"/>
			</linearGradient>
			<polygon class="st6" points="310.7,88.6 308.1,95.9 276,111.4 273.7,112.5 226.7,135.1 219.3,132.6 201.3,95 203.8,87.7 
				285.4,48.5 292.7,51.1 			"/>
			<polygon class="st7" points="253.3,70.1 271.3,107.5 273.7,112.5 276,111.4 273.6,106.4 255.6,68.9 			"/>
			<polygon class="st8" points="242.2,124.1 228.9,129.4 232.2,78.4 245.5,72.8 			"/>
			<polygon class="st7" points="310.7,88.6 308.1,95.9 276,111.4 273.7,112.5 226.7,135.1 219.3,132.6 229,127.9 242.4,121.4 
				271.3,107.5 273.6,106.4 			"/>
			<polygon class="st9" points="292.7,51.1 255.6,68.9 253.3,70.1 245.5,73.7 232.1,80.1 201.3,95 203.8,87.7 285.4,48.5 			"/>
			<g>
				<path class="st3" d="M299.4,142.6l-3,2.8l-4.3-11c0,0-7.5,6.1-10.4,9.7s-1,9,3.3,10.5c1,0.3,2.1,0.4,3.1,0.3
					c0.5-0.1,1,0.2,1.1,0.8c0,0,0,0.1,0,0.1c0.1,2.7,2,5.1,4.6,5.9c5.7,1.7,11.8-5.5,11.8-5.5L299.4,142.6z"/>
				<path class="st3" d="M295,132.2c0.8-1.2,3.9-7.7-0.3-12.7c-4.2-5-7.8-2.4-10.3-1.1c-2.4,1.3-5.9,8.3-7.7,12.9
					c-1.8,4.6,1.7,10.7,6.5,10.9C290,142.4,294.2,133.4,295,132.2z"/>
				<path class="st10" d="M298.7,131.3l-7.9,9.5c-1.9,2.2-4.7,3.5-7.6,3.5h-2.3c-0.4,0-0.8-0.2-1-0.6l0,0l1.6-1.7l-0.5-0.3h2
					c2.3,0.2,4.5-0.8,5.9-2.5l7-8.3C296.8,130.9,297.8,131,298.7,131.3z"/>
				<path class="st10" d="M306.6,156c-1.5,3.6-4.4,6.5-8,8.2l-1.2-2.3c3-1.3,5.5-3.7,6.8-6.8c0.2-0.6,0.9-1,1.6-0.7c0,0,0.1,0,0.1,0
					C306.4,154.5,306.8,155.3,306.6,156z"/>
				
					<linearGradient id="SVGID_00000138551019540394834920000017146933321093273766_" gradientUnits="userSpaceOnUse" x1="296.4747" y1="42.4079" x2="242.6662" y2="70.0642" gradientTransform="matrix(1 0 0 -1 0 197)">
					<stop  offset="6.000000e-02" style="stop-color:#AA5F44"/>
					<stop  offset="0.29" style="stop-color:#A15741"/>
					<stop  offset="0.59" style="stop-color:#8F473B"/>
				</linearGradient>
				<path style="fill:url(#SVGID_00000138551019540394834920000017146933321093273766_);" d="M285,144.3c2.4,3,2.6,7.3-0.4,9.7
					s-6.6,0.8-10.7-1.3c-4.1-2.1-7-3.8-9.6-6.9c-2.6-3-3.7-7-1.2-10.5c2.6-3.5,7.5-4.3,11-1.7C277.9,136,283,142,285,144.3z"/>
			</g>
		</g>
	</g>
	<path class="st12" d="M218.5,181.6c-6.3,5.8-27.6,21.8-30.8,24.1c-3.2,2.3-6.3,3.7-8.6,0.5l-1.3-1.8l-1.7-2.2l-0.9,1.2l0,0
		l-1.2,1.8c-0.7,1-1.4,1.9-2.2,2.9c-2.9,3.5-5,7.7-6,12.2c-1.1,5.3-2.8,12.6-5.3,19.2c-2,5.4-7.1,9-12.9,9H53.7
		c-4.5,0-9.7-6.4-8.1-13.5c9.2-38.5,18-68.5,24-87.2c4-12.7,16.7-20.6,29.9-18.7c2.5,0.4,4.9,0.7,6.9,1.1l71.2,7.8
		c0.9,0.1,1.7,0.2,2.6,0.4c15.5,3.3,20.5,8.9,39,37.6C220.1,177.3,220.8,179.4,218.5,181.6z"/>
	<path class="st13" d="M174.3,204.8c0.3-0.5,0.6-1,1-1.4l-1.2,1.8C174,205.1,174.2,204.9,174.3,204.8z"/>
	<path class="st14" d="M190.1,182.5c-2.3,6.4-6.7,14.2-12.3,21.9l-1.7-2.2c5.3-7.3,9.4-14.6,11.6-20.7c0.3-0.6,1-0.9,1.7-0.8
		C190,181,190.4,181.8,190.1,182.5z"/>
	<path class="st15" d="M178.5,168.3L178.5,168.3c0,1.1,0,2.3-0.2,3.4c-1.3,11.8-11.9,21.5-24.9,22.9c-5.7,0.6-13.8-0.5-19.3-3.4
		c-14.3-7.7-24.3-20.6-30-27.8c-5.7-7.2-8.8-13-9.3-17.8c-1-10.2,7.3-18.4,17.5-19.4c25.3-2.3,55.5,2.5,63.3,5.7s12,8.2,13.2,15.4
		C190.1,154.5,184.1,164.5,178.5,168.3z"/>
	<path class="st16" d="M178.5,168.3c0,1.1,0,2.3-0.2,3.4c-7.7,5.6-17,8.6-26.5,8.7l0,0c-0.7,0-1.3-0.6-1.3-1.3
		c0-0.7,0.6-1.3,1.3-1.3l0,0C161.5,177.7,170.9,174.3,178.5,168.3z"/>
	<path class="st0" d="M101.9,193.4c9,2,14.6,10.8,12.6,19.8c-1.8,8-9.2,13.6-17.4,13c0,0-59.5,10.5-74.6,7.7
		c-15.1-2.9-12-17.4-6.1-33.2s9.4-16.5,20.6-15.6L101.9,193.4z"/>
	<path class="st3" d="M158,206.9l-3.4,0.7h-0.3c0.8,0.6,1.4,1.5,1.7,2.4c0.4,1.4,0.6,2.8,0.5,4.3c-0.1,2.6-1.3,5.1-3.4,6.7
		c-1,0.9-1.3,2.3-0.8,3.5c1,2.4,1,6.8-1.3,9.1c-2.3,2.3-6,3.2-10.9,3.2s-12.5-2.8-19-4.4c-6.4-1.7-6.9-1.7-10.1-1.7l-22.7-0.5
		l11-38.7l15.7,0.3c0,0,16.7-8,23.5-8.6c6.8-0.6,7.5,1.4,8.3,5.7c0.2,0.8,0.3,1.6,0.3,2.4h8.8c4.7,0.2,7.5,2.9,8,6.7
		C164.6,201.8,161.5,206.1,158,206.9z"/>
	<path class="st10" d="M151.3,191.3h-0.4c0,0-4.1,0.1-7.8,0.4h-0.2c-0.7,0-1.3-0.5-1.3-1.3c0-0.7,0.5-1.3,1.3-1.3l4.2-0.3
		c0.2,0.8,0.3,1.6,0.3,2.4H151.3z"/>
	<path class="st10" d="M156.1,210.1l-5.8,0.3h-0.1c-0.7,0-1.3-0.5-1.3-1.1c0,0,0,0,0,0c-0.1-0.7,0.4-1.3,1-1.4c0,0,0.1,0,0.1,0
		l4.6-0.3h-0.3C155.2,208.2,155.8,209.1,156.1,210.1z"/>
	<path class="st10" d="M131.8,228.7c-0.6,0-1.2-0.5-1.3-1.1c-0.1-0.7,0.4-1.4,1.1-1.5c0,0,0.1,0,0.1,0c1.8-0.2,3.5-1.1,4.6-2.6
		c1.2-1.4,1.8-3.3,1.5-5.1c-0.1-0.7-0.3-1.4-0.5-2c-0.8-2-0.2-4.2,1.5-5.5c1.9-1.5,2.9-3.8,2.6-6.2c-0.2-1.9-1.1-3.6-2.6-4.7
		c-1.4-1.2-3.3-1.8-5.1-1.5c-0.7,0.1-1.3-0.4-1.4-1.1c-0.1-0.7,0.4-1.4,1.1-1.5c0,0,0,0,0,0c2.5-0.3,5,0.4,7,2
		c2,1.6,3.2,3.9,3.6,6.4c0.4,3.3-1,6.5-3.6,8.5c-0.8,0.6-1,1.6-0.7,2.4c0.4,0.9,0.6,1.8,0.7,2.8c0.3,2.5-0.4,5-2,7
		c-1.6,2-3.9,3.3-6.4,3.6L131.8,228.7z"/>
	<g>
		<g>
			<path class="st17" d="M91.4,158.9c-8,1.4-15.7-3.5-17.8-11.3l-1.5-5.1l-49.5,11l0.8,5.3c1.4,8-3.5,15.7-11.3,17.8L7,177.9
				l5.8,25.9c8.2,36.9,53.5,48.9,55.4,49.5L71,254l2.3-1.8c6.7-5.8,12.6-12.5,17.5-19.8c11-16.3,15.1-33.1,11.7-48.4L96.7,158
				L91.4,158.9z"/>
			<path class="st9" d="M102.5,184L96.7,158l-5.3,0.8c-8,1.4-15.7-3.5-17.8-11.3l-1.5-5.1l-49.5,11l0.8,5.3
				c1.4,8-3.5,15.7-11.3,17.8L7,177.9l5.8,25.9c8.2,36.9,53.5,48.9,55.4,49.5L71,254l2.3-1.8c6.7-5.8,12.6-12.5,17.5-19.8
				C101.8,216.1,105.8,199.3,102.5,184z M70.5,249l-0.5,0.4l0,0l-0.6-0.2c-0.5-0.2-44.7-12-52.3-46.3L12.1,181l1.3-0.4
				c9.9-2.7,16.1-12.5,14.3-22.6l-0.2-1.4l41.6-9.2l0.4,1.3c2.8,9.9,12.5,16.1,22.6,14.3l1.3-0.2l4.8,22
				C105.9,219.2,70.9,248.6,70.5,249L70.5,249z"/>
		</g>
	</g>
	<g>
		<path class="st18" d="M138.9,100.1c-3.5,2.8-11-0.5-16.6-4.4c-2.1-1.4-3.9-3.1-5.6-5c-3.9-5-1.2-9.9,3.7-13.9
			c5-4,10.4-5.4,14.3-0.4c1.4,1.9,2.6,4,3.5,6.3C140.9,88.9,142.4,97.3,138.9,100.1z"/>
		<path d="M138.9,100.1c-3.5,2.8-11-0.5-16.6-4.4c3.7-6.4,8.9-11.6,16-13C140.9,88.9,142.4,97.3,138.9,100.1z"/>
		<path class="st1" d="M164.2,116c4.4-9.1,17.9-22.9,18.3-18.3c0.8,8-2.3,22.8-12.9,31.6L164.2,116z"/>
		<path class="st0" d="M124,113.4c-4.6-9.1-18.3-22.7-18.6-18.1c-0.7,8.1,2.7,22.8,13.3,31.6L124,113.4z"/>
		<path class="st0" d="M178.1,144.1c-0.6,10.2-12.3,22.2-30.4,22.2c-16.2,0-36-8.3-35.6-29.2c0.2-7.2,5-19.7,7.7-27
			c0.5-1.2,0.8-2.3,1-3.1c2.3-7.3,6.2-14.3,11.8-18.4l0.8-0.4c4.1-2.8,9.1-4,14.1-3.3c8.9,1.1,13.9,5,16.9,9.7s4.1,12.3,4.4,17
			c0.3,4.7,1.2,8.9,3.7,13.1C174.8,128.8,178.6,136.1,178.1,144.1z"/>
		<path class="st18" d="M164.3,94.5c-3-4.7-8-8.5-16.9-9.7c-4.9-0.7-10,0.5-14.1,3.3l-0.8,0.4c-5.7,4.2-9.6,11.1-11.8,18.4
			c-0.3,0.9-0.6,1.9-1,3.1c6.2,1.8,13.1-1.6,15.7-8.1c1.4-3.4,1.4-7.2,0-10.6c4.4,3.5,11.7,5.7,18.4,5.7
			C158.3,97.2,161.8,96.1,164.3,94.5z"/>
	</g>
	<g>
		<ellipse class="st19" cx="151" cy="118" rx="6.2" ry="8.6"/>
		<ellipse cx="152.9" cy="117.4" rx="3.1" ry="4.3"/>
		<path d="M165.1,143.5c-0.8,1.7-1.9,3.3-3.3,4.7c-1.5,1.5-3.2,2.8-5.1,3.7l-1.6,0.7c-2.1,0.8-4.4,1.2-6.7,1.1
			c-2.3-0.1-4.5-0.6-6.6-1.5c-2.1-0.8-4-2-5.7-3.5c-2.1-1.8-3.8-4.1-4.9-6.7c-0.4-1.1-0.7-2.2-0.9-3.4c-0.5-3,0.3-6,2.7-7.3
			c2.4-1.3,3.1-1,5.4-0.3c4.5,1.3,8.3,4.6,12.9,4.6c3.1,0,5.4-1.8,8.9-1.7l2.4,0.3C165.3,134.9,167.6,138.3,165.1,143.5z"/>
		<path class="st19" d="M161.8,148.2c-1.5,1.5-3.2,2.8-5.1,3.7l-1.6,0.7c0-0.1,0-0.2,0.1-0.3l0.5-1.6l1.8-4.9c0.7-2.3,2.2-3,3.3-0.3
			C161.3,146.4,161.6,147.3,161.8,148.2z"/>
		<path class="st20" d="M156.7,152l-1.6,0.7c-2.1,0.8-4.4,1.2-6.7,1.1c-2.3-0.1-4.5-0.6-6.6-1.5c-2.1-0.8-4-2-5.7-3.5
			c-2.1-1.8-3.8-4.1-4.9-6.7c1.4-0.2,2.8-0.4,4.3-0.3c8.1,0,16,3.7,20.3,9C156.1,151.1,156.4,151.5,156.7,152z"/>
		<path class="st19" d="M141.8,152.3c-2.1-0.8-4-2-5.7-3.5l1-3c0.7-2.3,2.3-3,3.4-0.3C141.4,147.7,141.9,150,141.8,152.3z"/>
		<path class="st19" d="M160.2,134c-1.3,4.8-6.3,5.7-12.3,5.4c-6-0.3-13.2-2.9-14.8-7.9c1.3-0.8,3.1-1,5.4-0.3
			c4.5,1.3,8.3,4.6,12.9,4.6C154.4,135.7,156.7,133.9,160.2,134z"/>
		<path class="st18" d="M159.5,104.9c0,3-3.8,5.9-8.4,5.9c-4.6,0-8.5-3.1-8.5-6.1s3.8-2,8.5-2S159.5,102,159.5,104.9z"/>
	</g>
</g>
</svg>
