<?xml version="1.0" encoding="utf-8"?>
<!-- Generator: Adobe Illustrator 28.4.1, SVG Export Plug-In . SVG Version: 6.00 Build 0)  -->
<svg version="1.1" id="Layer_2_00000124863569196042102610000004875073211404526762_"
	 xmlns="http://www.w3.org/2000/svg" xmlns:xlink="http://www.w3.org/1999/xlink" x="0px" y="0px" viewBox="0 0 600 1000"
	 style="enable-background:new 0 0 600 1000;" xml:space="preserve">
<style type="text/css">
	.st0{display:none;fill:#FFFFFF;stroke:#000000;stroke-miterlimit:10;}
	.st1{fill:url(#SVGID_1_);}
	.st2{fill:#FFED7C;}
	.st3{fill:#BCBCBC;}
	.st4{opacity:0.66;}
	.st5{fill:#FFFFFF;}
	.st6{opacity:0.2;}
	.st7{fill:#2C097D;}
	.st8{fill:#E81F3A;}
	.st9{fill:#34ADEF;}
	.st10{fill:#00EDFA;}
	.st11{fill:#F9DF1D;}
	.st12{opacity:0.82;}
	.st13{fill:#A38F5B;}
	.st14{fill:#C4B383;}
	.st15{fill:#84775A;}
	.st16{fill:#7C6A45;}
	.st17{opacity:0.48;}
	.st18{fill:#4CEA57;}
	.st19{fill:#D0D8D2;}
	.st20{opacity:0.31;}
	.st21{fill:#FFFFFD;}
	.st22{display:none;}
	.st23{display:inline;}
</style>
<path class="st0" d="M513,687H87c-14.9,0-27-12.1-27-27V85.6c0-14.9,12.1-27,27-27h426c14.9,0,27,12.1,27,27V660
	C540,674.9,527.9,687,513,687z"/>
<g>
	<g>
		<g>
			
				<linearGradient id="SVGID_1_" gradientUnits="userSpaceOnUse" x1="-76.9327" y1="-178.9622" x2="-176.5611" y2="-68.205" gradientTransform="matrix(-1 0 0 1 448.6612 404)">
				<stop  offset="0" style="stop-color:#F0B031"/>
				<stop  offset="1" style="stop-color:#C41754"/>
			</linearGradient>
			<path class="st1" d="M494.9,244.2c15.1,37.3,57,35.9,98.2,42.8c-11.7-40.1-15.2-82-54.2-92.5"/>
			<g>
				<path class="st2" d="M509,234.9c0,0,15.2,31.2,54,25.3c1.3-39.3-31.6-50.6-31.6-50.6"/>
			</g>
			<g>
				<path class="st3" d="M472.7,229.9l9,18.4c0,0,4.5-1.1,11.4-4.3c21.6-10.1,38.3-28.8,45.8-51.6c2.4-7.2,2.9-11.9,2.9-11.9
					l-19.2-6.7"/>
			</g>
			<g class="st4">
				<g>
					<path class="st5" d="M472.7,229.9l1.3,2.7l46.3-52.1l19.2,6.7c0,0-0.3,2.9-1.6,7.7c0.3-0.8,0.6-1.6,0.8-2.4
						c2.4-7.2,2.9-11.9,2.9-11.9l-19.2-6.7L472.7,229.9z"/>
				</g>
			</g>
			<g class="st6">
				<g>
					<path class="st7" d="M497.3,216.6c0,0,19.7,4,19.7,5.3c0,1.3-3.2,11.7-4.2,11.7c-1.1,0-10.1,6.2-11.9,6.2c-1.6,0-12,4-12,4
						l-7.5-16"/>
				</g>
			</g>
			<g>
				<path class="st5" d="M289.7,27.1C290,100,378,222.9,464.3,232.3c2.1,0.2,4,0,5.9-1c5.4-2.6,10.4-5.4,15.1-8.7
					c6.7-4.6,12.7-10.1,17.8-16.3c8.3-9.8,15.1-21.5,20.2-34.8c0.8-2.1,1-4.3,0.3-6.4C503.9,80.6,371.7,7.8,299.3,16.2
					C293.8,17,289.7,21.6,289.7,27.1z"/>
			</g>
			<g>
				<path class="st7" d="M481.6,251.9c0.3,0,0.5,0,0.8-0.2c0.2,0,5-1.3,12-4.5c22.4-10.6,39.9-30,47.6-53.7c2.4-7.4,3-12.3,3-12.5
					c0.2-1.6-0.8-3.2-2.4-3.7l-19.2-6.7l-2.2,6.6l16.5,5.8c-0.5,1.9-1.1,4.8-2.2,8.3c-7.2,21.8-23.2,39.7-43.9,49.5
					c-3.4,1.6-6.2,2.6-8,3.2l-7.7-15.7l-6.2,3l9,18.4C479.1,251.1,480.2,251.9,481.6,251.9z"/>
			</g>
			<g>
				<path class="st7" d="M593.2,290.5c1,0,1.9-0.5,2.6-1.1c0.8-1,1.1-2.1,0.8-3.4c-1.9-6.7-3.7-13.5-5.4-20
					c-8.7-33.7-16.8-65.5-51.1-74.8c-1.9-0.5-3.8,0.6-4.3,2.4c-0.5,1.9,0.6,3.8,2.4,4.3c30.4,8.2,37.7,36.7,46.2,69.7
					c1.3,5,2.6,9.9,4,14.9c-5.1-0.8-10.3-1.4-15.2-2.1c-33.8-4.5-63-8.5-74.7-37.7c-0.8-1.8-2.7-2.7-4.6-1.9
					c-1.8,0.8-2.7,2.7-1.9,4.6c13.3,33,45.8,37.3,80.3,42c6.7,1,13.6,1.8,20.5,3C592.7,290.5,593,290.5,593.2,290.5z"/>
			</g>
			<g>
				<g>
					<path class="st8" d="M482.8,93.1l3.5,5l36.1,50.6c10.7-8.5,25.2-11.4,38.9-16.2c3.4-1.1,6.7-2.4,9.9-4c6.4-3,7.4-11.7,1.6-16
						C548.8,94.4,518,89.2,482.8,93.1z"/>
				</g>
			</g>
			<g class="st6">
				<g>
					<path class="st7" d="M486.3,98l36.1,50.6c10.7-8.5,25.2-11.4,38.9-16.2l-1.8-2.1c0,0-20.2,9.6-41.8-8.2
						C496.2,104.5,486.3,98,486.3,98z"/>
				</g>
			</g>
			<g class="st4">
				<g>
					<path class="st5" d="M482.8,93.1l3.5,5c30.9-1.9,58.2,4,80,20.4c3.7,2.7,4.5,7.4,3,11.1c0.6-0.3,1.3-0.6,1.9-1
						c6.4-3,7.4-11.7,1.6-16C548.8,94.4,518,89.2,482.8,93.1z"/>
				</g>
			</g>
			<g>
				<g>
					<path class="st8" d="M388.9,198.7c0,5.4,0.3,10.6,0.8,15.7c1.6,18.7,6.1,35.7,14.1,50.5c4.2,7.7,9.1,14.7,15.2,21
						c4.8,5.1,13.5,3.2,15.7-3.5c5.8-17.1,5.3-36.4,14.3-51L388.9,198.7z"/>
				</g>
			</g>
			<g class="st6">
				<g>
					<path class="st7" d="M388.9,198.7c0,5.4,0.3,10.6,0.8,15.7l2.4,4.6c0,0,40.2,5,40.2,24.7c0,14.4-18.4,19.4-28.4,21.2
						c4.2,7.7,9.1,14.7,15.2,21c4.8,5.1,13.5,3.2,15.7-3.5c5.8-17.1,5.3-36.4,14.3-51L388.9,198.7z"/>
				</g>
			</g>
			<g>
				<path class="st8" d="M289.7,27.1c0,16.2,4.5,34.8,12.2,54.2c11.2-5,22.6-13.3,32.4-24.2c9.8-11.1,16.7-23.2,20.2-34.9
					c-20-5.4-39.1-7.5-55.1-5.6C293.8,17,289.7,21.6,289.7,27.1z"/>
			</g>
			<g class="st6">
				<path class="st7" d="M293.7,22.7c0,16.2,4.5,34.8,12.2,54.2C332.9,144.7,401,220.6,468.3,228c2.1,0.2,4,0,5.9-1
					c0.8-0.3,1.4-0.6,2.1-1.1c2.6-1.4,5.1-3,7.5-4.6c1.9-1.3,3.8-2.7,5.6-4.2c0.2,0,0.2-0.2,0.3-0.2c12.2-9.8,21.6-22.1,28.8-37
					c1.4-3,2.9-6.2,4.2-9.6c-6.9,11.2-15.4,20.7-25.6,28.4c-5-6.2-11.4-13-18.6-19.4c-21.8-19.4-44.1-30-49.8-23.6
					c-5.6,6.4,7.4,27.2,29.2,46.6c2.4,2.1,4.8,4.2,7.1,5.9c-36.7-7.4-73.2-34.1-102.6-67.8c14.7,9.8,34.8,7.4,46.8-6.1
					c13.1-14.9,11.9-37.7-3-50.8c-14.9-13.3-37.7-11.9-50.8,3c-9.3,10.4-11.4,24.8-6.6,37.2c-15.7-20.8-28.5-43.4-37.2-65.1
					c-6.2-15.7-10.4-30.9-11.7-44.9c-0.3,0-0.5,0-0.8,0.2c-0.5,0-1.1,0.2-1.6,0.3C295.1,16.3,293.5,19.4,293.7,22.7z"/>
			</g>
			<g class="st4">
				<g>
					<path class="st5" d="M289.7,27.1L289.7,27.1c1.8-2.4,4.5-4.2,7.7-4.5c72.4-8.3,204.6,64.4,224.4,149c0.3,1.1,0.3,2.2,0.3,3.4
						c0.5-1.1,1-2.2,1.3-3.4c0.8-2.1,1-4.3,0.3-6.4C503.9,80.6,371.7,7.8,299.3,16.2C293.8,17,289.7,21.6,289.7,27.1z"/>
				</g>
			</g>
			<g>
				<path class="st7" d="M464,235.9c-40.4-4.3-84.8-33.7-122.1-80.1c-34.3-42.8-55.6-92.1-55.8-128.7c0-7.4,5.4-13.5,12.7-14.4
					c36.2-4.2,87.7,11.2,134.1,40.1c50.5,31.4,84.8,72.1,94.1,111.5c0.6,2.9,0.5,5.8-0.5,8.5c-11.1,29-29.5,49.8-54.8,61.7
					c-1.9,0.8-3.8,1.3-6.1,1.3C465.1,235.9,464.5,235.9,464,235.9z M299.8,19.8c-3.7,0.5-6.6,3.7-6.6,7.4
					c0.2,34.9,21,82.5,54.3,124.2c36.1,45,78.8,73.2,117.3,77.6l0,0c1.4,0.2,2.9,0,4-0.6c23.9-11.2,40.7-30.1,51.3-57.9
					c0.5-1.3,0.6-2.9,0.3-4.3c-8.8-37.7-42-76.8-90.9-107.2c-40.4-25.2-84.3-39.7-117.9-39.7C307.3,19.2,303.4,19.4,299.8,19.8z"/>
			</g>
			<g>
				<g>
					<path class="st7" d="M522.5,152.1c0.8,0,1.4-0.2,2.1-0.8c7.7-6.1,17.5-9.1,27.9-12.3c6.7-2.1,13.8-4.3,20.4-7.4
						c4-1.9,6.7-5.8,7.2-10.3c0.5-4.5-1.4-8.8-5-11.4c-23.7-17.8-54-24.4-92.6-20.2c-1.8,0.2-3.2,1.9-2.9,3.7
						c0.2,1.8,1.9,3.2,3.7,2.9c36.9-4,65.5,2.2,87.8,18.9c1.8,1.3,2.6,3.4,2.4,5.4c-0.2,2.1-1.4,4-3.4,4.8c-6.1,2.9-13,5-19.4,7.1
						c-10.6,3.4-21.5,6.7-30.1,13.5c-1.4,1.1-1.8,3.2-0.5,4.6C520.4,151.6,521.4,152.1,522.5,152.1z"/>
				</g>
			</g>
			<g>
				<g>
					<path class="st7" d="M425.7,292.3c1,0,1.9-0.2,2.9-0.3c4.3-1,7.9-4.2,9.3-8.3c2.2-6.9,3.7-14.1,5-21c1.9-10.7,3.8-20.8,9-29.2
						c1-1.6,0.5-3.7-1.1-4.6c-1.6-1-3.7-0.5-4.6,1.1c-5.8,9.3-7.9,20.7-9.9,31.4c-1.3,6.7-2.6,13.6-4.6,20.2c-0.6,2.1-2.2,3.5-4.3,4
						c-2.1,0.5-4.2-0.2-5.6-1.8c-19.2-20-28.8-47.9-29.2-84.9c0-1.9-1.6-3.2-3.4-3.4c-1.9,0-3.4,1.6-3.4,3.4
						c0.3,38.8,10.6,68.1,31.1,89.6C419,290.8,422.2,292.3,425.7,292.3z"/>
				</g>
			</g>
			<g>
				<circle class="st8" cx="386.9" cy="103.8" r="36.1"/>
			</g>
			<g class="st4">
				<g>
					<path class="st5" d="M357.6,82.8c13.3-13.9,35.4-14.9,49.8-2.1c13.9,12.3,16,33.2,5.3,47.9c0.3-0.3,0.6-0.6,1-1.1
						c13.1-14.9,11.9-37.7-3-51c-14.9-13.1-37.7-11.9-50.8,3C359,80.7,358.2,81.9,357.6,82.8z"/>
				</g>
			</g>
			<g>
				<circle class="st9" cx="386.9" cy="103.8" r="21.5"/>
			</g>
			<g class="st6">
				<g>
					<path class="st7" d="M368.2,93.4c8-6.1,19.4-5.8,27.1,1.1c7.7,6.7,9.3,17.8,4.5,26.4c1.1-0.8,2.1-1.8,3-2.9
						c7.9-8.8,7.1-22.4-1.8-30.1c-8.8-7.9-22.4-7.1-30.3,1.8C369.8,90.7,369,92,368.2,93.4z"/>
				</g>
			</g>
			<g class="st4">
				<g>
					<path class="st5" d="M369.3,124.6c8.8,7.9,22.3,7.1,30.1-1.8c1.3-1.4,2.2-2.9,3-4.5c-7.9,8.5-21.2,9.1-29.8,1.4
						c-7.4-6.6-9.1-17.1-4.8-25.6c-0.2,0.2-0.2,0.3-0.3,0.3C359.5,103.3,360.3,116.8,369.3,124.6z"/>
				</g>
			</g>
			<g>
				<path class="st7" d="M361.1,132.7L361.1,132.7c-16-14.1-17.5-38.6-3.2-54.6c6.9-7.7,16.3-12.3,26.6-13c10.3-0.6,20.2,2.9,28,9.8
					c7.7,6.9,12.3,16.3,13,26.6c0.6,10.3-2.9,20.2-9.8,28c-6.9,7.7-16.3,12.3-26.6,13c-0.8,0-1.6,0-2.4,0
					C377.3,142.4,368.3,139.1,361.1,132.7z M384.8,70.5c-9,0.5-17,4.5-22.9,11.2c-12.2,13.8-10.9,34.9,2.7,47.1l0,0
					c6.7,5.9,15.2,8.8,24.2,8.3c9-0.5,17-4.5,22.9-11.2c5.9-6.7,8.8-15.2,8.3-24.2c-0.5-9-4.5-17-11.2-22.9
					c-6.1-5.4-13.9-8.5-22.1-8.5C386.3,70.5,385.6,70.5,384.8,70.5z"/>
			</g>
			<g>
				<path class="st7" d="M370.9,121.8L370.9,121.8c-4.8-4.3-7.7-10.1-8-16.5s1.8-12.7,6.1-17.5c4.3-4.8,10.1-7.7,16.5-8
					s12.7,1.8,17.5,6.1c9.9,8.8,10.9,24,2.1,34c-4.8,5.3-11.4,8-17.9,8C381.2,127.9,375.6,125.8,370.9,121.8z M385.8,85.1
					c-5,0.3-9.6,2.6-12.8,6.2c-3.4,3.7-5,8.5-4.6,13.6c0.3,5,2.6,9.6,6.2,12.8l0,0c7.7,6.9,19.6,6.1,26.4-1.6
					c3.4-3.7,5-8.5,4.6-13.6c-0.3-5-2.6-9.6-6.2-12.8c-3.5-3-7.9-4.6-12.3-4.6C386.6,85.1,386.1,85.1,385.8,85.1z M372.7,119.8
					L372.7,119.8L372.7,119.8z"/>
			</g>
			<g>
				
					<ellipse transform="matrix(0.664 -0.7477 0.7477 0.664 22.8426 418.372)" class="st8" cx="477" cy="183.8" rx="15.5" ry="52.9"/>
			</g>
			<g class="st6">
				<g>
					<path class="st7" d="M483.9,221.3C483.9,221.4,483.9,221.4,483.9,221.3c2.1-1.3,3.8-2.7,5.6-4.2
						C487.6,218.7,485.8,220,483.9,221.3z"/>
				</g>
			</g>
			<g class="st6">
				<g>
					<path class="st7" d="M466.7,195.3c21.8,19.4,44.1,30,49.8,23.6c1-1.1,1.4-2.7,1.3-4.6c-9.1,0.6-27.4-9.5-45.4-25.3
						c-17.9-16-30-33-30.6-42c-1.9,0.2-3.5,0.8-4.5,1.9C431.8,155.1,444.9,175.9,466.7,195.3z"/>
				</g>
			</g>
			<g class="st4">
				<g>
					<path class="st5" d="M436.3,151.1c9-1,27.6,9.1,45.8,25.3c19.6,17.5,32.2,36.1,30.4,44.4c1.8-0.2,3-0.8,4-1.8
						c5.8-6.4-7.4-27.2-29.2-46.6s-44.1-30-49.8-23.6C436.9,149.3,436.4,150.1,436.3,151.1z"/>
				</g>
			</g>
			<g>
				<path class="st7" d="M496.2,220c-9.8-4.6-21-12.3-31.7-22c-21-18.6-37.8-42.3-29.5-51.6c8.3-9.3,33.8,4.6,54.8,23.2
					c10.7,9.6,19.9,19.9,25.6,29c8.2,13.1,6.7,19.6,4,22.6c-1.4,1.6-3.8,3-7.9,3C507.8,224.3,502.8,223,496.2,220z M440.1,151.1
					c-2.7,3,5.1,20.5,29,41.7l0,0c10.3,9.1,21,16.5,30.1,20.8c9,4.2,13.8,4,14.7,2.9c1-1.1,0.6-5.9-4.6-14.3
					c-5.3-8.5-13.9-18.3-24.4-27.4c-20-17.6-36.1-24.5-42.3-24.5C441.4,150.3,440.5,150.4,440.1,151.1z"/>
			</g>
			<g>
				<path class="st7" d="M301.8,84.7c0.5,0,1-0.2,1.4-0.3c12.2-5.4,23.7-14.1,33.7-25.2c9.8-11.1,17-23.6,21-36.4
					c0.6-1.9-0.5-3.8-2.2-4.3c-1.9-0.6-3.8,0.5-4.3,2.2c-3.7,11.7-10.4,23.4-19.6,33.7c-9.1,10.3-19.9,18.4-31.2,23.4
					c-1.8,0.8-2.6,2.9-1.8,4.6C299.1,83.9,300.4,84.7,301.8,84.7z"/>
			</g>
		</g>
		<g>
			<g>
				<path class="st10" d="M216.3,907.2c0.1,22-24,42-43.2,35.7"/>
			</g>
			<g>
				<path class="st10" d="M251.2,850.3c9.7,20.5-3.7,35.5-20.5,38.2"/>
			</g>
			<g>
				<path class="st10" d="M108.5,968.2c18.3,13.5,35.5,3,41.4-12.9"/>
			</g>
			<g>
				<path class="st11" d="M260.1,826.1c-27,86.1-85.2,134.2-174.8,144.4"/>
			</g>
			<g>
				<path class="st10" d="M187.8,916.6c14.2-12.1,26.2-23.7,36.1-34.6c81.3-89.7,24.4-135.7-53.5-90.7l-98.4,81.3l-4.2,3.4
					C1.7,952.2,53.3,1024.1,187.8,916.6z"/>
			</g>
			<g class="st4">
				<path class="st5" d="M222.5,796.8c0,0,15.4,8.2,4.9,32.7c-10.5,24.4-29.5,49.2-40.9,45.9c-11.4-3.3,9.3-19.3,14.5-39.1
					c5.2-19.8,5.8-39.3,14.2-37.5"/>
			</g>
			<g class="st6">
				<path class="st7" d="M187.8,916.6c14.2-12.1,26.2-23.7,36.1-34.6c-68.4,53.1-163.3,77.8-171.7,56.1
					c-8.5-21.7,20.1-52.2,20.1-52.2l-0.1-13.5l-4.2,3.4C1.7,952.2,53.3,1024.1,187.8,916.6z"/>
			</g>
			<g class="st12">
				<path class="st5" d="M45.8,909.6c4.6-8.8,10.9-18.3,19-27.6l102.4-84.6c62.5-36.1,111.4-13.6,86.5,42.9
					c31.2-60.9-18.9-86.4-83.7-49L67.9,875.8C58,887.4,50.6,898.8,45.8,909.6z"/>
			</g>
			<g>
				<path class="st7" d="M240.1,836.3c0.7,0,1.3-0.4,1.6-1c0.4-0.9,0-2.1-0.9-2.5c-26.5-12-49.8-8.7-50.8-8.5c-1,0.1-1.8,1-1.6,2.1
					c0.1,1,1,1.8,2.1,1.6c0.3,0,23.2-3.3,48.7,8.2C239.7,836.1,240,836.3,240.1,836.3z"/>
			</g>
			<g>
				
					<ellipse transform="matrix(9.497271e-02 -0.9955 0.9955 9.497271e-02 -592.8681 941.3384)" class="st11" cx="221.3" cy="796.7" rx="4.3" ry="7"/>
			</g>
			<g>
				
					<ellipse transform="matrix(9.497224e-02 -0.9955 0.9955 9.497224e-02 -864.7213 902.4386)" class="st11" cx="64" cy="926.8" rx="7" ry="4.3"/>
			</g>
			<g>
				
					<ellipse transform="matrix(9.497505e-02 -0.9955 0.9955 9.497505e-02 -735.789 970.3726)" class="st11" cx="165.8" cy="889.9" rx="6.4" ry="6.4"/>
			</g>
			<g>
				<path class="st7" d="M220.7,803L220.7,803c-2.2-0.1-4.3-0.9-5.8-2.1c-1.8-1.3-2.7-3.1-2.5-4.9c0.3-3.4,4.5-5.8,9.4-5.4
					c2.2,0.1,4.3,0.9,5.8,2.1c1.8,1.3,2.7,3.1,2.5,4.9c-0.3,3.1-3.7,5.4-8.2,5.4C221.4,803.1,221.1,803.1,220.7,803z M216,796.4
					c0,0.4,0.3,1,1,1.6c0.9,0.7,2.4,1.2,3.9,1.3l0,0c3.1,0.3,5.4-0.9,5.4-1.9c0-0.4-0.3-1-1-1.6c-0.9-0.7-2.4-1.2-3.9-1.3
					c-0.3,0-0.6,0-0.9,0C217.8,794.3,216.2,795.5,216,796.4z"/>
			</g>
			<g>
				<path class="st11" d="M135.8,886.2c-22.5,13.6-37,16.5-45.1,16.6c-4.5,0-8.8-2.1-11.4-5.8C64,876.1,62.2,856,65.6,839.4
					c6.7-33,36-57.1,69.7-57.6c16.9-0.3,36.3,5.4,53.8,24.3c3.1,3.3,4.5,7.9,3.4,12.3c-1.6,7.9-7.2,21.7-24.9,41.1
					C158.4,870,147.6,879,135.8,886.2z"/>
			</g>
			<g class="st4">
				<path class="st5" d="M67.9,831.2c9.3-19.5,27-33.9,48-39.1c12.3,4.9,24.7,5.2,37,0.7c10.9,3.3,22.3,9.9,33,21.4
					c3.1,3.3,4.5,7.9,3.4,12.3c-0.3,1.3-0.6,2.7-1.2,4.3c2.4-4.9,3.7-9.1,4.3-12.3c0.9-4.5-0.4-9-3.4-12.3
					c-17.7-19-37-24.6-53.8-24.3C104.4,782.4,77.5,802.5,67.9,831.2z"/>
			</g>
			<g class="st6">
				<path class="st7" d="M79.3,897.1c2.7,3.6,6.9,5.8,11.4,5.8c8.1-0.1,22.6-3,45.1-16.6c11.8-7.2,22.6-16,31.9-26.4
					c9.1-10,15-18.4,18.7-25.5c-68.7,80.4-123.1,37.5-112.3-16.9c-4,6.7-7,14.2-8.7,22.2C62.2,856.2,64,876.1,79.3,897.1z"/>
			</g>
			<g>
				<path class="st7" d="M76.7,898.9c-13.8-18.9-18.6-39-14.2-60c7-34.3,37.6-59.5,72.7-60c21.4-0.3,40.3,8.2,56.2,25.3
					c3.7,4,5.4,9.7,4.3,15.1c-1.8,8.5-7.6,22.8-25.6,42.6c-9.6,10.5-20.5,19.5-32.7,27l0,0C114.6,903,99.5,906,90.8,906.1
					c-0.1,0-0.1,0-0.3,0C85.1,906,80,903.3,76.7,898.9z M165.5,857.7c17.1-18.7,22.5-31.9,24.1-39.6c0.7-3.4-0.3-7-2.7-9.6
					c-14.7-15.7-31.9-23.5-51.6-23.4c-32.1,0.4-60.1,23.5-66.6,55c-3.9,19.2,0.4,37.6,13.2,55c2.1,2.8,5.4,4.5,8.8,4.5
					c7.9-0.1,21.9-3,43.5-16.2C145.8,876.4,156.3,867.7,165.5,857.7z"/>
			</g>
			<g>
				<path class="st7" d="M97.1,954.4c0.1,0,0.3,0,0.4,0c1-0.3,1.6-1.2,1.3-2.2c-6.6-27.1,1-49.2,1-49.3c0.3-1-0.1-2.1-1.2-2.4
					c-1-0.3-2.1,0.1-2.4,1.2c-0.3,0.9-7.9,23.2-1.2,51.4C95.4,953.8,96.2,954.4,97.1,954.4z"/>
			</g>
			<g>
				<path class="st7" d="M63.1,935.7c-3.4-0.3-5.8-4.5-5.4-9.4c0.1-2.2,0.9-4.3,2.1-5.8c1.3-1.8,3.1-2.7,4.9-2.5
					c3.4,0.3,5.8,4.5,5.4,9.4l0,0c-0.1,2.2-0.9,4.3-2.1,5.8c-1.2,1.6-2.8,2.5-4.5,2.5C63.4,935.7,63.2,935.7,63.1,935.7z M66.4,927
					c0.3-3.1-0.9-5.4-1.9-5.4c-0.4,0-1,0.3-1.5,1c-0.7,0.9-1.2,2.4-1.3,3.9c-0.3,3.1,0.9,5.4,1.9,5.4c0.4,0,1-0.3,1.5-1
					C65.6,930,66.2,928.5,66.4,927L66.4,927z"/>
			</g>
			<g>
				<path class="st7" d="M75.7,974.4c25.5,0,63.3-14.7,114-55.3c76-64.8,86.4-111.3,70.8-133.3c-14.8-21-52.5-19.8-91.8,2.8
					c-1.5,0.9-1.9,2.7-1.2,4.2c0.9,1.5,2.7,1.9,4.2,1.2c36.3-21,70.6-22.8,83.5-4.6c13.3,18.9,3,63-69.7,124.9
					c-74.5,59.7-119.8,61.3-135.9,44.7c-15.4-16-7.2-49.5,20.2-81.1c1.2-1.3,1-3.3-0.3-4.3c-1.3-1.2-3.3-1-4.3,0.3
					c-29.7,34.2-37.9,71.1-20.1,89.5C52,970,62,974.4,75.7,974.4z"/>
			</g>
			<g>
				<path class="st7" d="M66.4,963.3c8.1,0,17.4-1.5,27.3-4.6c25.3-7.8,54.6-24.9,87-50.7c31.5-26.8,53.8-52.3,66.3-75.9
					c11.1-21,13.6-39.1,7.3-52.6c-0.7-1.5-2.5-2.2-4.2-1.5c-1.5,0.7-2.2,2.5-1.5,4.2c9.6,20.7-4.2,63.3-72,121
					c-69.3,55.5-113.8,61-132.3,47.7c-1.2-0.9-2.8-0.9-3.9,0.1c-1.3,1.2-1.5,3.1-0.3,4.3l0,0c0.1,0.1,0.3,0.3,0.6,0.4
					C47.3,960.7,56,963.3,66.4,963.3z"/>
			</g>
			<g>
				<path class="st7" d="M164.9,898.2c-2.2-0.1-4.2-1.2-5.5-3l0,0c-2.8-3.6-2.4-8.7,1-11.7c3.6-2.8,8.7-2.4,11.7,1
					c2.8,3.6,2.4,8.7-1,11.7c-1.5,1.2-3.3,1.9-5.2,1.9C165.5,898.2,165.2,898.2,164.9,898.2z M162.8,886.3c-1.9,1.6-2.2,4.5-0.6,6.4
					l0,0c1.6,1.9,4.5,2.2,6.4,0.6s2.2-4.5,0.6-6.4c-0.9-1-2.2-1.6-3.4-1.6C164.7,885.3,163.7,885.7,162.8,886.3z M160.8,894
					L160.8,894L160.8,894z"/>
			</g>
			<g>
				<path class="st7" d="M85.2,973.6c0.1,0,0.3,0,0.3,0c45.1-5.1,83.1-20.1,112.5-44.4c29.5-24.3,51.3-58.6,64.9-102.1
					c0.4-1.6-0.4-3.4-2.1-3.9c-1.6-0.4-3.4,0.4-3.9,2.1c-26.4,84.3-84.3,132.1-172.1,142.2c-1.6,0.1-3,1.8-2.7,3.4
					C82.4,972.4,83.7,973.6,85.2,973.6z"/>
			</g>
			<g>
				<path class="st7" d="M180.8,947.1c7,0,14.4-2.5,21-7.3c10.9-7.9,17.7-20.4,17.7-32.5c0-1.6-1.3-3.1-3.1-3.1l0,0
					c-1.8,0-3.1,1.3-3.1,3.1c0,10.2-5.7,20.7-15.1,27.4c-7.8,5.7-16.6,7.6-24,5.1c-1.6-0.6-3.4,0.3-3.9,1.9
					c-0.6,1.6,0.3,3.4,1.9,3.9C174.9,946.6,177.8,947.1,180.8,947.1z"/>
			</g>
			<g>
				<path class="st7" d="M230.7,891.6c0.1,0,0.3,0,0.4,0c10.3-1.6,19.2-7.6,23.5-15.7c2.8-5.5,5.1-14.7-0.6-26.8
					c-0.7-1.5-2.5-2.2-4.2-1.5c-1.5,0.7-2.2,2.5-1.5,4.2c3.7,7.8,3.9,15.1,0.7,21.3c-3.4,6.4-10.5,11.1-18.9,12.4
					c-1.6,0.3-2.8,1.9-2.5,3.6C227.8,890.5,229.2,891.6,230.7,891.6z"/>
			</g>
			<g>
				<path class="st7" d="M125.4,977.5c2.8,0,5.4-0.4,7.5-1c8.8-2.7,16.3-10.2,19.9-20.1c0.6-1.6-0.3-3.4-1.8-4
					c-1.6-0.6-3.4,0.3-4,1.8c-3,8.1-8.8,14.1-15.9,16.2c-6.6,1.9-13.8,0.3-20.7-4.8c-1.3-1-3.3-0.7-4.3,0.6c-1,1.3-0.7,3.3,0.6,4.3
					C113.6,975.9,120,977.5,125.4,977.5z"/>
			</g>
			<g class="st4">
				<path class="st5" d="M138.2,840.7c12.6,6.3,28.2,0.6,33.1-12.4c2.4-6.3,2.4-13.8-7.2-18.6c-19.2-9.4-47.5-9.1-51.4,0
					C110.1,815.6,123,833.3,138.2,840.7z"/>
			</g>
		</g>
		<g>
			<g>
				<path class="st13" d="M276.6,169L276.6,169c-0.7,1.4-20,41.8-45.7,67.6c-26.3,26.3-65.7,32-101.6,27.4
					c-35.9-4.4-60.6,7.8-60.6,7.8c-16.4-13.2-29.3-30.5-37.6-50.1c0.8,0.2,38.5,9.3,77.8-12.9c39.8-22.4,70.8-65.1,98.9-67.1
					c27.8-1.9,58.3-18,59.1-18.3C272.7,137.5,276.1,152.9,276.6,169z"/>
			</g>
			<g>
				<path class="st13" d="M266.8,123.5c-0.8,0.5-31.3,16.4-59.1,18.3c-28.1,2-59.3,44.7-98.9,67.1c-39.3,22.2-76.9,13-77.8,12.9
					c-5.6-13.6-9-28.1-9.7-43.5c-0.2-1.9-0.2-3.7-0.2-5.6c0-13.7,2.2-26.8,6.1-39.1c0.8,2,36.8,2.4,58.8-13.6
					c23-16.6,45.4-16.9,74.5-24.1c29.1-7.1,42-39.3,42-39.3c11.7,5.4,22.5,12.5,32,21.2l0,0c4.6,4.1,8.6,8.5,12.5,13l0.2,0.2l0,0
					c4.6,5.4,8.6,11.4,12.4,17.6l0,0C262.2,113.3,264.6,118.2,266.8,123.5C266.8,123.3,266.8,123.3,266.8,123.5z"/>
			</g>
			<g>
				<path class="st14" d="M202.4,56.6c0,0-12.9,32.2-42,39.3s-51.5,7.5-74.5,24.1c-22,15.9-57.9,15.6-58.8,13.6c0-0.2,0-0.2,0.2-0.3
					l0,0c4.1-12.7,10.2-24.7,18-35.4l0,0l0,0c23.2-32,61-52.9,103.5-52.9c7.5,0,14.7,0.7,21.9,1.9c5.9,1,11.7,2.5,17.4,4.2
					C193.1,52.5,197.9,54.4,202.4,56.6z"/>
			</g>
			<g>
				<path class="st14" d="M276.6,172.6c0,14.1-2.2,27.6-6.4,40.2v0.2c-4.9,14.9-12.5,28.6-22.2,40.5c0,0,0,0-0.2,0.2l0,0
					c-23.4,28.6-59.1,46.9-98.9,46.9c-11.4,0-22.2-1.5-32.7-4.2l0,0l0,0c-10.8-2.9-21.2-7.1-30.8-12.7c0,0-0.2,0-0.2-0.2
					c-5.9-3.4-11.5-7.3-16.8-11.5l0,0c0,0,24.7-12.2,60.6-7.8c35.9,4.6,75.4-1.2,101.6-27.4c25.9-25.9,45.2-66.4,45.7-67.6v0.2
					C276.6,170.4,276.6,171.4,276.6,172.6z"/>
			</g>
			<g>
				<path class="st14" d="M266.8,123.5L266.8,123.5c-0.8,0.5-31.3,16.4-59.1,18.3c-28.1,2-59.3,44.7-98.9,67.1
					c-39.3,22.2-76.9,13-77.8,12.9l0,0c-12.4-19-9.8-43.5-9.8-43.5s41-1,72.5-5.6s68.6-23.5,94.4-49.3
					c25.6-25.6,46.6-45.7,46.6-45.7l0,0l12.5,13l0.2,0.2l0,0c-11.4,20.3-0.2,19.5,12.4,17.6l0,0L266.8,123.5L266.8,123.5z"/>
			</g>
			<g>
				<path class="st15" d="M270.2,212.8v0.2c-4.9,14.2-12.4,27.6-22.2,40.5c0,0,0,0-0.2,0.2l0,0c-36.6,24.6-78.3,41.8-131.6,42.7l0,0
					l0,0c-11-3.6-21.5-7.6-30.8-12.7c0,0-0.2,0-0.2-0.2c-6.1-3.4-11.9-7.1-16.8-11.5l0,0c0,0,24.7-12.2,60.6-7.8
					c35.9,4.6,75.4-1.2,101.6-27.4c25.9-25.9,45.2-66.4,45.7-67.6l0,0l0,0v0.2c0,1.2,0,2.2,0,3.4c0,0.2,0,0.3,0,0.5
					C276.6,186.8,274.4,200,270.2,212.8z"/>
			</g>
			<g>
				<path class="st16" d="M202.4,56.6c0,0-12.9,32.2-42,39.3s-51.5,7.5-74.5,24.1c-22,15.9-57.9,15.6-58.8,13.6c0-0.2,0-0.2,0.2-0.3
					l0,0c2.2-2.4,17.1-33.5,18-35.4l0,0l0,0l0,0c0.3,0.7,10,14.9,40.8,0c31.3-15.2,48.6-13.4,62.7-27.4
					c10.7-10.7,18.6-19.8,21.9-23.5c1-1.2,1.5-1.9,1.5-1.9l15.8,6.3L202.4,56.6z"/>
			</g>
			<g class="st6">
				<path class="st7" d="M269.9,168.4c0,70.6-57.3,127.7-127.7,127.7c-23.4,0-45.4-6.3-64.2-17.3c-2.5-1.7-4.9-3.4-7.3-5.3
					c-4.4-4.2-8.3-8.8-12-13.7c-0.7-0.8-1.2-1.7-1.9-2.4c3.4,2.9,6.9,5.6,10.7,8.1c17.8,12,38.6,18.8,60.8,18.8
					c64.5,0,116.9-57.8,116.9-129.3c0-34.6-12.2-65.9-32.2-89.1c4.1,1.9,8,3.9,11.9,6.1c2.4,1.5,4.7,3.2,7.1,5.1
					C255.3,100.6,269.9,132.8,269.9,168.4z"/>
			</g>
			<g>
				<path class="st14" d="M169.6,228.7c-1.5,0.5-3.4,0.3-4.7-0.8c-1.9-1.7-2.9-5.9,3.2-15.1c10.3-15.9,19.1-26.6,34.2-31.2
					c15.1-4.4,23.7-10.8,26.8-3.2c3.2,7.6-17.6,24.4-29.5,34.2C188.9,221.7,174.3,227.2,169.6,228.7z"/>
			</g>
			<g class="st4">
				<g>
					<path class="st5" d="M242.1,85.4C219.2,64,188.5,51,154.8,51C84.2,51,27.1,108.2,27.1,178.7c0,33.7,13,64.4,34.4,87.2
						C36.6,242.6,21,209.4,21,172.6C21,102,78.2,44.9,148.7,44.9c34.9,0,66.7,14.1,89.8,36.8C239.7,82.8,240.9,84,242.1,85.4z"/>
				</g>
			</g>
			<g>
				<path class="st7" d="M148.7,304.1c-29.5,0-57.3-9.5-80.5-27.4c-32.4-25.1-51-63-51-104c0-72.5,59-131.5,131.5-131.5
					c34.7,0,67.6,13.4,92.3,37.9c25.4,24.7,39.3,57.9,39.3,93.5C280.4,245.1,221.4,304.1,148.7,304.1z M148.7,48.4
					c-68.4,0-124.2,55.7-124.2,124.2c0,38.6,17.6,74.4,48.1,98.1c21.9,16.9,48.1,25.9,75.9,25.9c68.4,0,124.2-55.7,124.2-124.2
					c0-33.5-13-64.9-36.9-88.3C212.6,61.1,181.6,48.4,148.7,48.4z"/>
			</g>
			<g class="st17">
				<g>
					<path class="st5" d="M100.8,155.3c-10.5,35.9-20,64.7-34.4,60.6c-14.4-4.2-24.6-38.8-14.2-74.7S89.8,81.5,104,85.7
						C118.4,89.8,111.1,119.2,100.8,155.3z"/>
				</g>
			</g>
		</g>
		<g>
			<g>
				<circle class="st10" cx="302.7" cy="479.8" r="255"/>
			</g>
			<g class="st4">
				<g>
					<path class="st5" d="M340.2,304.1c22.6,33.5-18.7,61.5-82.1,104.5c-63.7,43.1-125.4,84.6-148,51.1
						c-22.6-33.5,10.5-95.5,74.1-138.6C247.5,278.4,317.5,270.5,340.2,304.1z"/>
				</g>
			</g>
			<g>
				<path class="st18" d="M60.1,558.9c0,0,11.5,11.9,32.6,8.2c21.1-3.9,27.2,13.4,24.3,35.4c-2.9,22.2-26.8,19-26.8,19"/>
			</g>
			<g>
				<path class="st18" d="M119.6,302.1c0,0,50.3,22.4,34.8,68.8c-15.5,46.5-50.3,22.4-54.4,79.5c-4.2,57.4-51.7,45.2-51.7,45.2
					C49.2,422.5,65.5,354.9,119.6,302.1z"/>
			</g>
			<g class="st6">
				<path class="st7" d="M154.3,370.9c-15.5,46.5-50.3,22.4-54.4,79.5c-4.2,57.4-51.7,45.2-51.7,45.2c0-3.6,0.2-7.1,0.2-10.7
					c14.1,0.2,39.4-5.1,42.5-46.2c4.2-57.4,38.9-33.1,54.4-79.5c5.6-16.8,2.7-30.4-3.4-41.1C153,329.3,162.4,346.9,154.3,370.9z"/>
			</g>
			<g>
				<path class="st18" d="M354.7,729.8c0-15.9-0.7-52.5-15.5-72.9c-14.8-20.5-12.4-29.7-21.1-48.8c-8.8-19.2-32.3-19.5-52.3-2.9
					s-40.6,18.7-58.8,13.4c-18.2-5.4-28.5,11.1-45.4,24.8s-8.2,43.8-8.2,43.8l39.6,23.6c0,0,32.1,14.1,43.1,2.9
					c10.9-11.1,28.7-4.2,34.8,19.7"/>
			</g>
			<g class="st4">
				<g>
					<path class="st5" d="M350.3,682.9c-1.9-5.6-4.6-10.7-7.8-15.1c-14.8-20.5-12.4-29.7-21.1-48.8c-8.8-19.2-32.3-19.5-52.3-2.9
						c-19.9,16.5-40.6,18.7-58.8,13.4c-18.2-5.4-28.5,11.1-45.4,24.8c-10.7,8.5-11.1,23.3-10.2,33.3l-1.5-1c0,0-8.8-30.1,8.2-43.8
						c17-13.7,27.2-30.1,45.4-24.8c18.2,5.4,39.1,3.4,58.8-13.4s43.5-16.5,52,2.9c8.8,19.2,6.3,28.5,21.1,48.8
						C344.4,664.1,347.9,673.3,350.3,682.9z"/>
				</g>
			</g>
			<g class="st6">
				<path class="st7" d="M557.7,479.8c0,141-114.3,255-255,255c-135.9,0-247-106.2-254.8-240.2c27.4,106,124,184.3,238.7,184.3
					c136.1,0,246.5-110.4,246.5-246.5c0-34.1-6.9-66.4-19.5-96.1C541.6,377.5,557.7,426.9,557.7,479.8z"/>
			</g>
			<g>
				<path class="st18" d="M533.9,371.6c2.7,25.1-26.2,57.1-23.6,100.4c2.7,43.5,5.4,92.1-24.1,106c-29.5,13.9-39.1-25.1-47.1-65.7
					c-8-40.6-35.4-48.1-49.2-75.1c-13.7-27-83.4-16.8-94.4-43.1c-10.9-26,9.5-58.4,32.3-64.5c22.8-6.1,15.5-14.6,36.4-21.6
					c20.9-7.1,41.1-5.6,36.2-23.6c-4.8-18-39.6,4.2-45-9.5c-5.4-13.4-25.1-8.5-37.2-20.7c-12.1-12.2,2.9-28.9,2.9-28.9
					C410.6,230.5,481.3,279.3,533.9,371.6z"/>
			</g>
			<g class="st6">
				<path class="st7" d="M378.5,412.8c12.9,25.8,38.1,33.8,47.7,69.1c-11.7-16.8-27-26-36.4-44.4c-13.6-27.2-83.4-16.8-94.4-43.1
					c-1.9-4.8-2.9-10-2.9-15.1C314.4,393.6,366.8,389.4,378.5,412.8z"/>
			</g>
			<g class="st6">
				<path class="st7" d="M510.2,472.1c2.7,43.5,5.4,92.1-24.1,106c-20.7,9.7-31.6-6.3-38.9-30.8c6.9,8.8,15.5,12.1,27.7,6.3
					c29.7-13.8,26.8-62.4,24.1-106c-2.5-40.2,21.8-70.5,23.6-94.6c3.9,6.1,7.5,12.1,11.1,18.7C536.3,396.7,507.6,428.8,510.2,472.1z
					"/>
			</g>
			<g class="st4">
				<g>
					<path class="st5" d="M410.6,292.4c4.8,18-15.3,16.5-36.2,23.6c-20.9,7.1-13.8,15.9-36.4,21.6c-22.8,6.1-43.1,38.1-32.3,64.5
						c0.5,1.5,1.5,2.7,2.1,3.9c-5.8-2.9-10.2-6.5-12.4-11.7c-10.9-26,9.5-58.4,32.3-64.5c22.8-6.1,15.5-14.6,36.4-21.6
						c20.7-7.1,40.6-5.6,36.2-23.1C405.5,285.3,409.3,287.4,410.6,292.4z"/>
				</g>
			</g>
			<g class="st4">
				<g>
					<path class="st5" d="M508.6,329.3c-46.7-54.4-116.2-88.7-193.5-88.7c-141,0-255,114.3-255,255c0,56.4,18.2,108.4,49.2,150.7
						C70.8,601.6,47.5,543.5,47.5,480c0-141,114.3-255,255-255C387.3,224.8,462.1,265.9,508.6,329.3z"/>
				</g>
			</g>
			<g>
				<path class="st7" d="M302.7,740.5c-143.6,0-260.4-117-260.4-260.4s116.7-260.6,260.4-260.6S563,336.5,563,479.9
					S446.3,740.5,302.7,740.5z M302.7,230.2c-137.8,0-249.9,112-249.9,249.9s112,250,249.9,250s249.9-112,249.9-249.9
					S440.5,230.2,302.7,230.2z"/>
			</g>
			<g>
				<path class="st7" d="M474.8,586.1c-3.6,0-7.1-0.7-10.5-2.5c-17-8.5-24.1-38.1-30.4-70.3c-4.6-23.3-15.9-34.8-27.4-46.7
					c-7.5-7.8-15.5-15.9-21.1-27c-5.8-11.5-25.8-15.3-45-19.2c-21.1-4.2-43.1-8.5-49.6-24.1c-5.4-12.9-4.4-27.7,2.7-41.8
					c7.3-14.6,19.9-25.8,33.1-29.1c10.5-2.7,13.6-6.1,17.2-9.7c3.6-3.9,8-8.2,19.2-11.9c5.4-1.7,10.7-3.2,15.3-4.2
					c8-1.9,15.5-3.6,17.5-7.1c0.2-0.5,1.2-1.9,0-6.3c-1.2-4.6-6.5-4.4-18.7-2.5c-10,1.7-22.2,3.6-26.2-6.3
					c-1.9-4.6-6.3-6.1-14.4-8.2c-7.1-1.9-15.3-4.2-21.8-10.7c-12.4-12.4-3.6-28.9,2.7-36c1.9-2.1,5.1-2.1,7.1-0.5
					c2.1,1.9,2.1,5.1,0.5,7.1l0,0c-0.5,0.5-11.7,13.4-2.9,21.8c4.6,4.6,11.1,6.5,17.2,8.2c8,2.1,17.2,4.6,21.1,14.4
					c1,2.5,9.2,1.2,15.1,0.2c11.1-1.7,26.2-4.4,30.1,9.7c1.5,5.6,1.2,10.2-1.2,14.1c-4.2,7.1-13.2,9.2-23.8,11.7
					c-4.6,1.2-9.5,2.1-14.6,3.9c-8.8,2.9-11.7,5.8-15.1,9.5c-4.2,4.2-8.5,8.8-21.8,12.4c-10.5,2.7-20.7,11.9-26.5,24.1
					c-5.6,11.5-6.5,23.3-2.5,33.5c4.4,10.5,23.6,14.4,42.1,18c21.6,4.4,44,8.8,52,24.5c4.8,10,11.9,17,19.2,24.5
					c12.1,12.6,25.1,25.5,30.1,51.7c5.6,28.5,12.1,56.7,25.1,63.2c4.2,2.1,9,1.7,15.1-1c26.5-12.4,23.8-59.5,21.1-101.1
					c-1.5-25.3,6.9-46.2,14.4-64.9c5.6-13.6,10.2-25.5,9.2-35.4c-0.2-2.7,1.7-5.4,4.6-5.6c2.7-0.2,5.4,1.7,5.6,4.6
					c1.2,12.4-3.9,25.3-10,40.4c-7.1,17.5-15.1,37.5-13.6,60.5c2.7,44.8,5.8,95.5-27,110.8C483.6,584.9,479,586.1,474.8,586.1z"/>
			</g>
			<g>
				<path class="st7" d="M58.4,501.8c-6.5,0-11.1-1.2-11.5-1.2c-2.7-0.7-4.4-3.4-3.6-6.1c0.7-2.7,3.4-4.4,6.1-3.6
					c0.2,0,17,4.2,29.9-5.4c9.2-6.5,14.4-18.5,15.5-35.2c2.5-34.1,15.9-42.1,28.7-49.8c10-6.1,19.7-11.9,26-30.8
					c14.1-41.3-30.1-61.5-31.8-62.4c-2.7-1.2-3.6-4.2-2.7-6.9c1.2-2.7,4.2-3.6,6.5-2.7c0.5,0.2,54.4,24.8,37.5,74.9
					c-7.8,22.6-19.7,29.9-30.4,36.4c-12.1,7.3-21.6,13.2-23.8,41.8c-1.5,19.9-8.2,34.5-19.9,42.7C75.8,500.3,65.9,501.8,58.4,501.8z
					"/>
			</g>
			<g>
				<path class="st7" d="M93.4,626.6c-1.9,0-3.4-0.2-3.4-0.2c-2.7-0.2-4.8-2.9-4.4-5.6c0.2-2.7,2.9-4.6,5.6-4.4
					c1.9,0.2,19,1.7,20.9-14.6c1.7-13.2,0-22.6-4.8-27.2c-3.2-2.9-7.5-3.9-13.6-2.7c-23.6,4.2-36.7-9.2-37.2-9.7
					c-1.9-1.9-1.9-5.4,0.2-7.1c1.9-1.9,5.1-1.9,7.1,0.2c0.5,0.5,10.2,10,28.2,6.9c9.5-1.7,17,0,22.4,5.4c7.3,6.9,10,19.2,8,35.8
					c-1,7.5-4.2,13.4-9.5,17.5C106.3,626,97.8,626.6,93.4,626.6z"/>
			</g>
			<g>
				<path class="st7" d="M354.7,734.8c-2.9,0-5.1-2.1-5.1-5.1c0-33.1-4.8-56.7-14.6-70c-9.7-13.6-12.4-22.6-15.3-32.1
					c-1.7-5.4-3.2-10.9-6.3-17.8c-2.7-6.1-7.3-10-13.4-11.5c-9-2.1-20.7,1.7-30.8,10.2c-24.3,20.1-47.9,19-63.7,14.4
					c-10.5-3.2-17.8,2.9-29.5,13.6c-3.6,3.4-7.3,6.9-11.7,10.2c-14.1,11.5-6.5,37.9-6.5,38.1c0.7,2.7-0.7,5.6-3.4,6.3
					c-2.7,0.7-5.6-0.7-6.3-3.4c-0.5-1.5-9.5-33.5,10-49.2c3.9-3.2,7.5-6.5,10.9-9.7c11.7-10.7,22.4-20.9,39.1-15.9
					c19,5.6,37.7,1.5,54.2-12.4c12.9-10.7,27.2-15.3,39.6-12.4c9,2.1,16.3,8,20.5,17c3.4,7.5,5.1,13.6,6.9,19
					c2.7,9,5.1,16.8,13.8,28.9c11.1,15.3,16.5,40.2,16.5,75.8C359.8,732.5,357.6,734.8,354.7,734.8z"/>
			</g>
			<g>
				<path class="st7" d="M270.9,738c-2.1,0-4.4-1.5-4.8-3.9c-2.9-11.1-8.5-18.7-15.3-20.7c-3.9-1-7.8,0-10.9,3.2
					c-13.2,13.2-45-0.5-48.6-1.9c-2.7-1.2-3.6-4.2-2.7-6.5c1.2-2.7,4.2-3.6,6.5-2.7c9.5,4.2,31.2,10.5,37.5,4.2
					c5.8-5.8,13.4-8,20.9-5.8c10.5,2.9,18.7,13.4,22.6,28c0.7,2.7-1,5.6-3.6,6.1C271.8,738,271.3,738,270.9,738z"/>
			</g>
		</g>
		<g>
			<g>
				<path class="st19" d="M568.6,931.8c-8.6,8.6-22.7,9.5-34,6.9c-4.3-1.1-8.2-2.6-11.1-4.4c-10.6-6.6-10.2-15.5-12.6-20.7
					c-2.4-5.1-1.2-12.7-1.2-12.7s0.2-6.3,6.4-10.7c6.2-4.4,8.9-13.2,12.9-15.4c1.8-1.1,6.5-2,11.6-2.6c5.8-0.5,12.1-0.4,15.1,1
					c5.6,2.6,21,16.5,24,24.1C582.5,904.7,580.5,919.9,568.6,931.8z"/>
			</g>
			<g class="st4">
				<path class="st5" d="M557.8,874.3c-3.3-0.9-8.5-0.9-13.4-0.3c-5,0.5-9.7,1.5-11.6,2.6c-3.4,1.9-5.9,8.7-10.4,13.4
					c-1.3,4.9-4,7.9-8,9.2l0,0c-0.7,2.1-0.9,3.6-0.9,3.6s-1.3,7.6,1.2,12.7c2.4,5.1,2,14,12.6,20.7c0.3,0.2,0.6,0.4,1,0.5
					c-1.8-0.7-3.4-1.5-4.8-2.5c-10.6-6.6-10.2-15.5-12.6-20.7c-2.4-5.1-1.2-12.7-1.2-12.7s0.2-6.3,6.4-10.7
					c6.2-4.4,8.9-13.2,12.9-15.4c1.8-1.1,6.5-2,11.6-2.6c5.8-0.5,12.1-0.4,15.1,1C556.2,873.3,556.9,873.7,557.8,874.3z"/>
			</g>
			<g class="st6">
				<path class="st7" d="M568.6,931.8c-8.6,8.6-22.7,9.5-34,6.9c0.3-2.6,0.7-5.2,0.7-7.6c0-9.5-3.1-6.2,11.6-10.4
					c14.7-4.2,18.6-13.8,15-27.2c-3.1-11.8-18-19.7-21.4-21.4c5.8-0.5,12.1-0.4,15.1,1c5.6,2.6,21,16.5,24,24.1
					C582.5,904.7,580.5,919.9,568.6,931.8z"/>
			</g>
			<g>
				<path class="st7" d="M545.7,941.7c-8.8,0-17.5-2.4-23.1-6c-8.6-5.4-10.5-12.3-11.9-17.3c-0.4-1.6-0.9-3-1.4-4.2
					c-2.5-5.4-1.4-12.7-1.3-13.7c0.1-1.1,0.7-7.4,7.2-12c3-2.1,5.2-5.7,7.2-8.7c1.9-3,3.6-5.6,5.8-6.9c4.5-2.6,22.3-4.5,28.3-1.6
					c5.8,2.8,21.7,16.9,24.8,25.1c3.4,8.9,0.6,24.6-11.4,36.6C563.7,939.3,554.6,941.7,545.7,941.7z M547,873.5
					c-6.5,0-14.6,1.2-17,2.6c-1.5,0.9-3,3.2-4.6,5.7c-2.1,3.3-4.5,7.1-8.1,9.6c-5.5,3.9-5.7,9.3-5.7,9.3c0,0.1,0,0.1,0,0.2
					c0,0.1-1.2,7.1,1,11.7c0.6,1.4,1.1,3,1.6,4.7c1.4,4.9,3,10.6,10.4,15.2c10.5,6.5,31.9,8.9,42.9-2.2
					c11.6-11.6,13.2-26.1,10.6-32.8c-2.8-7.2-17.9-20.7-23-23.1C553.2,873.8,550.3,873.5,547,873.5z M509.7,900.8L509.7,900.8
					L509.7,900.8z"/>
			</g>
			<g>
				<path class="st7" d="M538.4,928.4c-3.4,0-6.6-0.6-9.2-1.8c-4.8-2.4-20.8-11.1-20.8-25.8c0-0.7,0.6-1.4,1.4-1.4
					c0.7,0,1.4,0.6,1.4,1.4c0,13.2,14.8,21.3,19.3,23.5c8.1,3.9,24.1,0.4,31.1-9.1c7.3-9.9,6.5-18.1-2.8-31.3
					c-9.1-13-20.3-10.2-20.8-10.1c-0.7,0.2-1.4-0.2-1.6-1c-0.2-0.7,0.2-1.4,1-1.6c0.5-0.1,13.4-3.4,23.7,11.1
					c10.1,14.2,10.8,23.6,2.8,34.5C557.8,924.5,547.2,928.4,538.4,928.4z"/>
			</g>
			<g>
				<path class="st7" d="M576.1,923.1c-0.2,0-0.5-0.1-0.7-0.2c-0.3-0.2-7.7-5-10.8-12.1c-0.3-0.6,0-1.5,0.6-1.7
					c0.6-0.3,1.5,0,1.7,0.6c2.8,6.3,9.7,10.9,9.7,10.9c0.6,0.4,0.7,1.2,0.4,1.8C577,922.9,576.5,923.1,576.1,923.1z"/>
			</g>
			<g>
				<path class="st7" d="M540.4,941c-0.6,0-1.3-0.5-1.3-1.2c-0.7-7.1,1.6-13.2,1.7-13.4c0.3-0.6,1.1-1,1.7-0.7
					c0.6,0.3,1.1,1.1,0.7,1.7c0,0.1-2.2,5.7-1.5,12.1c0.1,0.7-0.4,1.4-1.2,1.5C540.5,941,540.5,941,540.4,941z"/>
			</g>
			<g>
				<path class="st7" d="M538.6,908.8c-4.6,8.2-16.9,4.4-16.5-4.8c0.6-9.3,13.3-11.6,16.9-3c0.4,1.2-1.2,1.8-1.7,0.7
					c-1.3-2.7-4.5-4.3-7.3-3.6c-6.5,1.3-7,10.4-0.7,12.4c2.8,1,6-0.2,7.6-2.8C537.7,906.8,539.2,907.8,538.6,908.8L538.6,908.8z"/>
			</g>
			<g class="st6">
				<path class="st7" d="M537.8,900.5c-1.1-0.5-2.2-0.9-3.5-0.9c-4.3,0-7.7,3.4-7.7,7.7c0,1.5,0.4,2.8,1.1,4
					c-2.5-1.3-4.2-3.9-4.2-6.9c0-4.3,3.4-7.7,7.7-7.7C533.9,896.7,536.4,898.2,537.8,900.5z"/>
			</g>
			<g>
				<path class="st7" d="M540.1,885.4c-0.7,0-1.6,0.2-1.9,0.6c-0.7,0.9-0.4,2.7,1,3.1c1.4,0.5,3.2,0.5,4.7,0.1
					c0.5-0.1,1.4-0.5,1.6-1c0.1-0.5-0.1-1.2-0.5-1.6c-0.5-0.5-1.3-1-2-1.3c-0.3-0.1-0.4-0.5-0.3-0.9c0.1-0.3,0.4-0.4,0.7-0.3
					c1,0.3,1.8,0.7,2.7,1.4c2.1,2,1.3,4.6-1.6,5.4c-2.8,0.9-7.3,0.7-8.1-2.7c-0.4-1.8,0.5-3.6,2.5-4c0.6-0.1,2.1-0.4,2.1,0.6
					C540.8,885.1,540.4,885.4,540.1,885.4L540.1,885.4z"/>
			</g>
			<g>
				<path class="st7" d="M554,896.7c-1,1.3-2.2,2.9-0.6,3.9c1.2,0.7,3.3,1.2,4.3-0.1c0.6-0.7,0.7-2,0.3-2.9
					c-0.4-0.6,0.6-1.3,1.1-0.6c2,3.1-0.9,7.1-4.5,6.1c-4.3-1-4.5-4.6-1.3-7.1C553.7,895.4,554.6,896.2,554,896.7L554,896.7z"/>
			</g>
			<g>
				<path class="st7" d="M520.1,927.1c0.3-3.4,4.7-2.2,5.2,0.4c0.2,0.7,0.2,2.9-1,2.6c-0.3-0.1-0.4-0.4-0.4-0.7c0-0.9-0.2-1.8-1-2.2
					c-0.3-0.2-0.9-0.4-1-0.4c-0.3,0-0.5,0.4-0.6,0.6C521.2,927.9,520.1,927.8,520.1,927.1L520.1,927.1z"/>
			</g>
			<g>
				<path class="st7" d="M542.4,919.1c-1.4,0.9-2.5,1.9-0.6,2.8c1.1,0.4,3.1-1.3,2.6-2.4c-0.4-0.6,0.5-1.3,1.1-0.7
					c0.4,0.5,0.5,1.4,0.3,2c-0.7,2.7-4.4,4.1-6.2,1.6c-1.1-1.3-0.4-3,0.7-3.7c0.6-0.3,1.9-1.4,2.4-0.3
					C542.8,918.7,542.7,919,542.4,919.1L542.4,919.1z"/>
			</g>
			<g>
				<path class="st7" d="M552.5,930.3c-1.8-0.1-4.3,0.5-4.3,2.5c1,1.9,5.2,1.6,6.2-0.2c0.3-0.5,0.1-1.2-0.1-1.6
					c-0.4-0.6,0.5-1.3,1.1-0.7c0.3,0.4,0.5,0.9,0.6,1.4c0.4,4.3-6,5.5-8.7,3c-2.2-2.1,0.2-5.2,2.8-5.5c0.7,0,3.2-0.4,3.1,0.7
					C553.2,930.1,552.9,930.3,552.5,930.3L552.5,930.3z"/>
			</g>
			<g>
				<path class="st7" d="M567,920.3c-2.5-3.3-6.1,1.9-3,3.5c0.7,0.2,0.4,1.4-0.3,1.3c-2.7-0.5-3.3-4.2-1.6-6.1
					c1.2-1.5,3.5-2.1,5-0.7c0.5,0.5,1.7,1.7,0.7,2.2C567.5,920.6,567.2,920.5,567,920.3L567,920.3z"/>
			</g>
			<g class="st6">
				<path class="st7" d="M538.8,889.9c0,0-4.3-3.2-1.9-4.4c2.4-1.2,6.5-0.6,6.5-0.6S537.5,885.6,538.8,889.9z"/>
			</g>
		</g>
		<g>
			<g>
				<path class="st19" d="M136.1,346.4c-3.2,8-13.8,7.4-16.5,8.1c-2.8,0.7-7.7,7.1-16,7.5s-22.1-4.7-27.3-11.5
					c-5.2-6.9-4.8-14.6-1.8-21.3c0.3-0.9,0.7-1.7,1.1-2.6c0-0.1,0-0.1,0-0.1c2.8-6.7,6-16.1,10.5-23.3c2.7-4.4,7.2-5.8,12-5.8
					c4.4,0,9,1.3,12.5,2.7c7.4,2.9,12.7,4.1,12.7,4.1c7.2,2.9,9.5,14.9,12.2,22.5C138.2,334.2,139.4,338.3,136.1,346.4z"/>
			</g>
			<g class="st6">
				<path class="st7" d="M82.4,334.8c0,0-1.7-4.2,1.1-5.4c2.8-1.2,5.5,1.1,5.6,1.2c0.1,0.1,1.1,2.1,1.1,2.1s-2.2-1.9-4.5-0.5
					s-1.7,3.3-1.4,3.6"/>
			</g>
			<g class="st6">
				<path class="st7" d="M93.6,321.8c0,0-5.1-4.7-0.6-8.6c4.4-4,9.2-2,9.2-2s-4,1.6-5.6,6.4c-1.6,4.8,3.3,5.2,3.3,5.2"/>
			</g>
			<g class="st4">
				<path class="st5" d="M130.1,311.5c-1.3-1.6-2.8-2.9-4.5-3.6c0,0-5.2-1.3-12.7-4.1c-3.5-1.4-8.1-2.7-12.5-2.7c-0.1,0-0.2,0-0.3,0
					c-2.6,6.7-7.2,8-12.5,7.4c-4,7.1-7,15.4-9.5,21.7c0,0,0,0,0,0.1c-0.4,1-0.7,1.8-1.1,2.6c-2.5,5.6-3.1,11.8-0.4,17.6
					c-5.2-6.9-4.8-14.5-1.8-21.3c0.3-0.9,0.7-1.7,1.1-2.6c0-0.1,0-0.1,0-0.1c2.8-6.7,6-16.1,10.5-23.3c2.7-4.4,7.2-5.8,12-5.8
					c4.4,0,9,1.3,12.5,2.7c7.4,2.9,12.7,4.1,12.7,4.1C126.3,305.2,128.4,308,130.1,311.5z"/>
			</g>
			<g class="st6">
				<path class="st7" d="M136.1,346.4c-3.2,8-13.8,7.4-16.5,8.1c-2.8,0.7-7.7,7.1-16,7.5c-3.9,0.2-8.8-0.7-13.6-2.6l0,0
					c-0.6-1.3-1.2-2.6-1.6-3.9c-1.3-3.9-1.1-6.2-0.2-7.7c1.7-0.1,3.5-0.4,5.7-0.9c0.9-0.2,1.8-0.3,2.7-0.5l0,0c1.4-0.3,2.7-0.6,4-1
					c-0.9-0.4-0.9-0.9,0.6-1.5c7.3-2.9,15.2-14.6,14.4-27.2c-0.7-12.7-11.1-17.9-11.1-17.9l3.6,0.6c-4.9-2.4-10.1-2.4-10.1-2.4l0,0
					c4.4,0,9,1.3,12.5,2.7c0.3,0.1,0.5,0.2,0.9,0.3l5.8,1.1c0,0,0.2,0.4,0.6,1.2c3.3,1.1,5.5,1.6,5.5,1.6
					c7.2,2.9,9.5,14.9,12.2,22.5S139.4,338.3,136.1,346.4z"/>
			</g>
			<g>
				<path class="st7" d="M102.6,363.8c-8.8,0-22.3-5.1-27.7-12.2c-6.4-8.4-4.7-17.2-2-23.1c0.9-1.9,1.7-4.2,2.7-6.5
					c2.4-6.1,5.4-13.6,9.1-19.7c6.5-10.6,22.1-5.7,26.7-3.9c7.2,2.8,12.4,4.1,12.4,4.1c0.1,0,0.2,0,0.2,0.1
					c6.6,2.7,9.5,12,11.9,19.4c0.4,1.5,0.9,2.9,1.3,4.2c2.7,7.7,4,12.5,0.6,21.1c-3,7.5-11.2,8.5-15.7,8.9c-0.9,0.1-1.6,0.2-2,0.3
					c-0.5,0.1-1.7,1-2.8,1.8c-3,2.1-7.4,5.5-13.5,5.8C103.4,363.8,103,363.8,102.6,363.8z M98,299.1c-4.1,0-8,1.2-10.4,4.9
					c-3.6,5.9-6.3,13-8.8,19.2c-1,2.5-1.8,4.7-2.7,6.6c-2.2,5-3.7,12.5,1.6,19.5c4.9,6.5,18.2,11.2,25.8,10.8
					c5-0.3,8.9-3.1,11.6-5.1c1.6-1.2,2.8-2,4.1-2.4c0.6-0.2,1.5-0.2,2.6-0.3c4-0.4,10.6-1.2,12.7-6.6c3-7.4,1.9-11.2-0.6-18.6
					c-0.4-1.3-0.9-2.8-1.4-4.3c-2-6.6-4.6-15-9.6-17.1c-1-0.2-5.9-1.5-12.7-4.2C107.9,300.7,102.9,299.1,98,299.1z"/>
			</g>
			<g>
				<path class="st7" d="M86,349.4c-5.8,0-9.5-2.2-11.7-8.7c-2.6-8-0.1-14.5,0-14.7c0.2-0.6,1.1-1.1,1.7-0.7
					c0.6,0.2,1.1,1.1,0.7,1.7c0,0.1-2.1,5.9,0.1,13c2.1,6.7,5.8,8,16.7,5.9c11.4-2.2,19.5-5,21.6-11.2c2.2-6.4,3.3-17.3-1-26.9
					c-4-8.8-16.2-8.9-16.3-8.9c-0.7,0-1.3-0.6-1.3-1.4c0-0.7,0.6-1.3,1.3-1.4l0,0c0.6,0,14,0.1,18.7,10.5
					c4.6,10.3,3.5,21.6,1.1,28.9c-2.6,7.5-11.4,10.7-23.7,13.1C91.2,348.9,88.4,349.4,86,349.4z"/>
			</g>
			<g>
				<path class="st7" d="M112.4,360.5c-0.5,0-1.1-0.3-1.3-0.9c-2.5-7-2.4-17.2,2.1-21.7c3.9-3.9,15-2.5,17.9-2
					c3.7-2.6,6.7-0.9,7.9,0.5c0.4,0.5,0.4,1.4-0.1,1.9c-0.5,0.4-1.4,0.4-1.9-0.1c-0.3-0.3-2-1.9-4.7,0.2c-0.3,0.2-0.6,0.3-1.1,0.2
					c-4.9-0.9-13.6-1.3-16.1,1.2c-3.2,3.2-4,12.1-1.5,19c0.2,0.7-0.1,1.5-0.9,1.7C112.7,360.5,112.6,360.5,112.4,360.5z"/>
			</g>
			<g>
				<path class="st7" d="M105.7,314.3c1.3,3.2-0.4,7-3.3,8.8c-4.2,2.9-11.4,1.4-12.6-4c-1.4-5.2,3.9-10.1,8.9-9.6
					c1.2,0.1,1.2,1.8,0,1.9c-2.6,0.1-4.9,1.6-6,3.7c-2.4,5.4,4.2,8.6,8.4,5.9c2.1-1.2,3.4-3.7,2.8-6.1
					C103.6,313.8,105.3,313.3,105.7,314.3L105.7,314.3z"/>
			</g>
			<g>
				<path class="st7" d="M81.6,329.2c2.4-3.2,7.7-2.5,9.2,1.2c1.8,3.6-1.3,8.2-5.2,8c-2.5,0-4.8-2-5.1-4.5c-0.2-1.2,1.5-1.5,1.8-0.4
					c0.4,1.5,1.9,2.5,3.3,2.4c3.2-0.1,4.3-4.4,1.5-5.9c-1.2-0.7-2.9-0.5-4.1,0.5C82.3,331.4,81,330.2,81.6,329.2L81.6,329.2z"/>
			</g>
			<g>
				<path class="st7" d="M100.7,331.1c0.7-0.5,1.5-0.7,2.6-0.6c1.6,0.2,2.9,2.2,1.8,3.6c-0.4,0.7-3.2,3-3.7,1.7
					c-0.1-0.3,0-0.5,0.2-0.7c0.7-0.5,1.6-1.1,2-1.9c0.1-0.3,0.1-0.3,0-0.5c-0.5-0.7-1.4-0.7-2.2-0.4
					C100.6,332.4,100,331.5,100.7,331.1L100.7,331.1z"/>
			</g>
			<g>
				<path class="st7" d="M90.8,353.1c2.1-1.6,5.5-2.5,7.9-0.7c2.9,1.9,2.6,6.2-1,7.2c-0.7,0.2-1.2-0.9-0.4-1.2
					c3.7-1.8,0.6-5.8-2.6-5.2c-1.2,0.1-2.2,0.5-3.3,1.1C90.8,354.5,90.3,353.5,90.8,353.1L90.8,353.1z"/>
			</g>
			<g>
				<path class="st7" d="M128.6,317.6c-3.3-0.6-3,10.6,0.7,8.4c0.3-0.1,0.7,0,0.9,0.3c0.4,1-1.5,1.5-2.5,1.5
					c-4.7-0.7-4.3-13,1.2-11.4C129.7,316.6,129.4,317.7,128.6,317.6L128.6,317.6z"/>
			</g>
		</g>
		<g>
			<g>
				<path class="st19" d="M417.6,743.8c6.2,31.5,36.9,52,68.3,45.5c7.6-1.6,14.6-4.4,20.6-8.6c3.3-2.1,7.4,1.6,5.3,5
					c-14.3,23.8-38.1,41.8-67.5,47.8c-57.1,11.6-112.9-26.9-121.6-85.4c-7.9-52.7,26.9-103.1,78.9-114.7c38-8.4,75.5,5.2,99.2,32.4
					c5,5.7-0.7,14.3-7.9,11.9c-10-3.4-21.2-4.2-32.4-1.4C430.8,683.6,411.6,713.5,417.6,743.8z"/>
			</g>
			<g class="st6">
				<path class="st7" d="M399.2,805.3c0,0-8.7-4.3-7.2-14.3c1.6-10,7-10.9,7.7-10.9c0.7,0,7.4-3,13.7,0.6c0,0-17.2,2.7-14,14.3
					c3.2,11.6,11.7,9.2,11.7,9.2"/>
			</g>
			<g class="st6">
				<path class="st7" d="M349.2,727.6c0,0-17.2,9.6-7,22.8c10.2,13.2,16.9,4,16.9,4s-11-0.3-11.6-9c-0.7-8.7,13.9-10.6,13.9-10.6
					s-3.7-4.4-4.2-4.7"/>
			</g>
			<g class="st6">
				<path class="st7" d="M358.8,698.9c0,0-5.6-10.3,0-24.9c5.6-14.6,22.2-15,22.2-15l13.3,8.4c-26.5,3.3-32.2,18-27.8,38.1"/>
			</g>
			<g class="st4">
				<path class="st5" d="M502.6,672.4c-19.8-22.1-48.5-35.1-79.2-34.1c-8.9,7.6-20.5,9.5-34.1,6.9c-43.7,17-71.3,62.7-64.3,110.3
					c0.6,3.9,1.4,7.7,2.3,11.3c-2-6-3.6-12.2-4.6-18.8c-7.9-52.7,26.9-103.1,78.9-114.7c38-8.4,75.5,5.2,99.2,32.4
					C502.7,667.9,503.1,670.3,502.6,672.4z"/>
			</g>
			<g class="st6">
				<path class="st7" d="M405.7,733.3c-6-30.2,13.2-60.1,43.1-67.5c11.2-2.7,22.3-2,32.4,1.4c7.2,2.4,12.9-6.2,7.9-11.9
					c-1.1-1.3-2.3-2.6-3.6-3.7c5.6,4.2,10.7,8.9,15.3,14.2c5,5.7-0.7,14.3-7.9,11.9c-10-3.4-21.2-4.2-32.4-1.4
					c-29.9,7.3-49,37.2-43.1,67.5c2,10.3,6.6,19.3,13,26.6C418.1,762.2,408.9,749.2,405.7,733.3z"/>
			</g>
			<g class="st6">
				<path class="st7" d="M511.9,785.9c-14.3,23.8-38.1,41.8-67.5,47.8c-35.4,7.2-70.2-4.9-93.7-28.9c22.6,16.9,52,24.5,81.8,18.5
					c23.9-4.9,44.3-17.8,58.6-35.2c5.6-1.7,10.7-4.2,15.3-7.3C509.9,778.6,513.9,782.4,511.9,785.9z"/>
			</g>
			<g class="st4">
				<path class="st5" d="M511.9,785.9c-0.3,0.6-0.7,1.1-1,1.6c-0.7,0-1.4,0.1-2.1,0.7c-6,4-13,7-20.6,8.6
					c-30.8,6.3-60.9-13.2-67.9-43.5c9.9,26.1,37.5,42,65.7,36.2c7.6-1.6,14.6-4.4,20.6-8.6C509.9,778.6,513.9,782.4,511.9,785.9z"/>
			</g>
			<g>
				<path class="st7" d="M423.8,838.9c-21.5,0-42.2-6.6-60.3-19.2c-23.9-16.8-39.5-42-43.8-71c-8-54.3,27.6-106.3,81.3-118.3
					c37.7-8.4,76.9,4.3,102.3,33.2c3.3,3.7,3.6,8.9,0.9,12.9c-2.7,4-7.6,5.6-12.2,4.2c-9.9-3.3-20.5-3.9-30.6-1.3
					c-28.1,6.9-46.4,35.5-40.8,63.9l0,0c2.9,14.5,11.2,26.8,23.3,34.9c12.2,8.2,26.9,11,41.2,8.2c7-1.4,13.6-4.2,19.5-8
					c2.7-1.9,6.2-1.6,8.6,0.7c2.4,2.3,2.9,5.7,1.1,8.4c-15.2,25.5-40.5,43.4-69.6,49.3C437.8,838.1,430.8,838.9,423.8,838.9z
					 M424.1,634.2c-7.2,0-14.5,0.7-21.6,2.4C352,648,318.4,696.8,326,747.9c4,27.2,18.6,51,41.1,66.7c22.5,15.8,49.7,21.5,76.6,16
					c27.4-5.6,51.1-22.3,65.4-46.3c0.1-0.1,0.3-0.4-0.1-0.7c-0.4-0.4-0.7-0.1-0.9-0.1c-6.6,4.4-13.9,7.4-21.8,9c-16,3.3-32.4,0-46-9
					c-13.6-9-22.9-22.9-26.1-39l0,0c-3-15.5,0-31.2,8.6-44.7c8.6-13.3,21.6-22.8,36.9-26.5c11.3-2.7,23.2-2.3,34.1,1.4
					c2.3,0.7,4-0.3,4.9-1.6c0.9-1.3,1.3-3.4-0.4-5.3C479.5,646.2,452.3,634.2,424.1,634.2z"/>
			</g>
			<g>
				<path class="st7" d="M364.6,660.3c9-6.2,22.5-5,30.2,3c12.2,12.2,8.4,34.1-6.2,42.8c-15.3,9.7-35.2,0.4-37.2-17.8
					c-0.3-2.9,3.9-3.4,4.4-0.7c1.6,8.6,8.7,15.9,17.5,16.5c18.8,1.1,29.9-22.9,17.3-36.7c-5.9-6.6-16-7.6-23.6-3.3
					C364.4,665.6,362.2,661.8,364.6,660.3L364.6,660.3z"/>
			</g>
			<g>
				<path class="st7" d="M340.9,730.4c4-6.3,13.2-7.4,19-2.9c8.6,6.3,10.5,19.9,3.3,27.9c-8.6,9.3-22.1,2.9-24.8-8.2
					c-0.7-2.6,3-3.7,4-1.4c1.7,4.4,5.9,8.7,10.7,8.4c4.4-0.1,7.9-4.4,8.4-9.2c0.6-4.9-1.3-10.2-5-13c-3.6-3.2-9-2.9-12.3,1
					C342.4,735.2,339.3,732.7,340.9,730.4L340.9,730.4z"/>
			</g>
			<g>
				<path class="st7" d="M404.7,737.6c0.6,5.9-5.7,10.7-11.3,9c-5.9-1.4-8.9-8.9-5.4-13.9c2-3.2,6.2-4.9,9.7-3.9
					c2,0.6,1.3,3.6-0.7,3.3c-4.6-0.4-7.6,4.9-4.7,8.3c2.7,3.4,8.6,1.6,9-3C401.5,735.5,404.6,735.6,404.7,737.6L404.7,737.6z"/>
			</g>
			<g>
				<path class="st7" d="M417.3,782.6c5,5.4,5.3,14.5,0.7,20.2c-7.3,9.7-22.9,7.7-27.8-3.4c-5-10.9,4-23.6,15.9-22.5
					c2.1,0.3,2,3.4-0.1,3.4c-5.6-0.1-10.9,3.9-12.2,9.3c-3,12.3,12.6,20.2,20.8,10.5c3.6-4.2,3.7-10.7,0.3-15.3
					C413.3,783,415.9,781,417.3,782.6L417.3,782.6z"/>
			</g>
			<g>
				<path class="st7" d="M451.4,660.1c-1.7,7-11.9,9.2-16.6,3.9c-2.7-2.9-2.1-7.9,0.7-10.3c2.6-2.4,6-3.2,9.2-2.6
					c2,0.4,1.7,3.4-0.3,3.4c-2.1,0-4.3,0.9-5.6,2.3c-2.9,3.4,1.1,6,4.7,5.4c2-0.3,4-1.6,4.7-3.3
					C449.1,657.3,451.9,658.3,451.4,660.1L451.4,660.1z"/>
			</g>
		</g>
		<g>
			<g>
				<g>
					<path class="st5" d="M522.8,407c0,0-7.2-7.6-15-6.3s-34.9,28.8-34.9,28.8s-1.8,13.2,11.6,15.9s40.3-28.6,40.3-28.6L522.8,407z"
						/>
				</g>
				<g>
					<path class="st7" d="M486,446.8c-0.6,0-1.3-0.1-1.9-0.2c-14.5-2.9-12.6-17.2-12.6-17.4c0-0.3,0.2-0.5,0.3-0.7
						c2.8-2.9,27.6-27.8,35.7-29.1c8.4-1.4,15.9,6.3,16.2,6.6c0.2,0.2,0.3,0.4,0.3,0.6l2,9.7c0.1,0.4,0,0.9-0.3,1.2
						C524.7,418.9,500.4,446.8,486,446.8z M474.1,430.1c-0.1,2.1-0.2,11.8,10.6,13.9c10.2,2,30.8-18.7,38.6-27.6l-1.8-8.8
						c-1.3-1.3-7.4-6.6-13.6-5.7C502,403,481.9,422.3,474.1,430.1z"/>
				</g>
				<g>
					<g>
						<path class="st5" d="M565.3,474.8c-0.5,1.8-1.3,3.9-2.4,5.7c-4.5,7.9-15.2,2.8-15.2,2.8c-10.7-7.2-13.9-15.7-14.9-19.2
							c-0.3-1.1-0.3-1.6-0.3-1.6l-6.2,2.7c10.5,22.5,4.6,31.7-5,37.8c3.1,3.1,3.7,6.6,2.8,9.3c-1.2,3.3-4.7,5.5-8.9,4.2
							c-7.4-2.2-12.1-10-13.7-16.5c-1.7-6.5,5.8-10.2,7.4-13.7s-2.9-8.1-2.9-8.1l-2.2-1.3c-0.5,1-1.2,1.7-1.7,2.5l0,0
							c-6.4,7.8-16,7.1-16,7.1c-0.5,1.9-1.5,3.5-2.7,4.7c-4.6,4.7-13,3.3-16.3-6.5c-4.1-12.3,0.3-17,7.2-19.2
							c6.9-2.2,7.9-5.7,7.9-5.7c-2.7-12.7,0.9-20.5,5.8-25.1c6.9-6.4,16.4-7.1,16.4-7.1c-4.2-0.3-16.4,1.1-23.1,4.1l0,0
							c-0.9,0.4-1.6,0.9-2.4,1.3c-5.9,4-14.8-2.1-15.5-7.8c-0.7-5.7-1.5-18.2,22.7-19.1c24.2-0.9,36.5,8.2,36.5,8.2l22.3,27.1l2,2.6
							c1.4,8.6,5.1,15.6,10.5,21.5C565.1,463.9,566.9,468.8,565.3,474.8z"/>
					</g>
					<g class="st6">
						<g>
							<path class="st7" d="M565.3,474.8c-0.5,1.8-1.3,3.9-2.4,5.7c-4.5,7.9-15.2,2.8-15.2,2.8c-10.7-7.2-13.9-15.7-14.9-19.2
								l5.1-14.9c-0.1,0.5-2.5,10.5,4,20.2c6.6,10,9.1,2.5,9.1,2.5l2.9-2.8c0,0-4.4,5.7,1.1,9C559.6,480.9,563.9,476.5,565.3,474.8z
								"/>
						</g>
					</g>
					<g class="st6">
						<g>
							<path class="st7" d="M524.2,512.2c-1.2,3.3-4.7,5.5-8.9,4.2c-7.4-2.2-12.1-10-13.7-16.5c-1.7-6.5,5.8-10.2,7.4-13.7
								s-2.9-8.1-2.9-8.1l-2.2-1.3c-0.5,1-1.2,1.7-1.7,2.5c1.3-2.1,4-5.9,4-5.9l0.7-6.1c0,0,3,9.2,12,8.1c0,0,1.8,4.8-3.9,11.8
								c-5.7,7.1-8.1,14.1-3.1,20.6C515.9,512.7,521.7,512.5,524.2,512.2z"/>
						</g>
					</g>
					<g class="st6">
						<g>
							<path class="st7" d="M515.1,429.7c0,0-8.4,0.9-12.1,3s-12.6,9.9-10.9,22c1.7,12.2-16.1,15-18.4,24.1
								c-1.7,6.4,5.5,10.5,9.9,12.3c-4.6,4.7-13,3.3-16.3-6.5c-4.1-12.3,0.3-17,7.2-19.2c6.9-2.2,7.9-5.7,7.9-5.7
								c-2.7-12.7,0.9-20.5,5.8-25.1c4.5-2.1,10.8-4.9,14.9-6.2C509.4,426.3,515.1,429.7,515.1,429.7z"/>
						</g>
					</g>
					<g class="st6">
						<g>
							<path class="st7" d="M544.9,441.5l-2.2,1.4c-11.8-3.1-20.9-10.3-25.6-23.7c0,0-26.2-13.4-39.9-3.7c-13.7,9.7,4.8,15,4.8,15
								s-0.2,0.4-0.6,1.3l0,0c-0.9,0.4-1.6,0.9-2.4,1.3c-5.9,4-14.8-2.1-15.5-7.8s-1.5-18.2,22.7-19.1s36.5,8.2,36.5,8.2
								L544.9,441.5z"/>
						</g>
					</g>
					<g>
						<path class="st7" d="M517.6,518.2c-0.9,0-1.8-0.1-2.7-0.4c-8.1-2.5-13-10.9-14.7-17.5c-1.3-5.1,2.2-8.8,4.8-11.4
							c1.2-1.2,2.2-2.2,2.7-3.2c1-2.1-1.4-5.2-2.6-6.5l-1-0.5c-5.6,8.2-14.2,9.1-17.2,9.1c-1.7,4.4-5.4,7.2-9.5,7.3h-0.1
							c-4,0-9-2.6-11.5-10c-2-6.2-2.2-10.9-0.4-14.6c1.5-2.9,4.3-5,8.5-6.3c4.9-1.6,6.5-3.7,7-4.5c-1.9-9.5-0.6-17.4,3.7-23.1
							c2.1-2.9,4.8-4.9,7.5-6.4c-4.8,0.9-9.6,2.2-12.4,4.1c-2.7,1.8-6.2,2-9.7,0.4c-4.2-1.8-7.4-5.6-7.9-9.2
							c-0.5-3.6-0.7-8.9,2.9-13.3c3.7-4.5,10.8-7,21.1-7.4c24.4-0.9,36.8,8.1,37.4,8.6c0.1,0.1,0.2,0.1,0.2,0.2l24.3,29.7
							c0.1,0.2,0.2,0.4,0.3,0.6c1.3,7.7,4.4,14.4,9.6,20.3c4.4-0.7,6.6,0.7,7.7,2.1c2.4,3.1,1.6,8.9-1.7,14.8
							c-4.1,7.2-12.9,5.4-16.9,3.3c-0.1,0-0.1-0.1-0.2-0.1c-11.1-7.5-14.5-16.4-15.4-20l-3.4,1.5c10.1,22.4,3.6,31.7-4.7,37.4
							c3.3,4.2,2.9,8.5,1.3,11C523.2,516.7,520.5,518.2,517.6,518.2z M503.8,475.5c0.2,0,0.4,0.1,0.6,0.2l2.2,1.3
							c0.1,0.1,0.2,0.1,0.3,0.2c0.2,0.2,5.1,5.4,3.2,9.6c-0.6,1.4-1.8,2.6-3.2,4c-2.5,2.6-5.1,5.1-4.2,8.9
							c1.5,5.8,5.7,13.4,12.9,15.5c2.7,0.9,5.4-0.1,6.7-2.4c1.3-2,1.4-5.6-2-8.9c-0.3-0.3-0.4-0.6-0.4-1.1c0-0.4,0.3-0.7,0.6-1
							c8.6-5.5,15-13.6,4.5-36.2c-0.1-0.3-0.2-0.7,0-1.1c0.1-0.3,0.4-0.6,0.7-0.7l6.2-2.7c0.4-0.2,0.9-0.1,1.2,0.1
							c0.3,0.2,0.6,0.5,0.6,1c0,0.1,1.5,11,14.6,19.8c1,0.4,9.7,4.3,13.4-2.2c2.7-4.8,3.4-9.7,1.8-11.9c-1.3-1.6-3.9-1.5-5.8-1.1
							c-0.4,0.1-1,0-1.3-0.4c-5.7-6.3-9.3-13.6-10.7-21.8l-24-29.2c-1.3-1-13.4-8.7-35.6-7.9c-9.4,0.3-15.9,2.5-19.1,6.4
							c-3,3.5-2.8,7.8-2.4,11.2c0.4,2.7,3,5.7,6.3,7.1c1.5,0.6,4.5,1.6,7.2-0.2c6.2-4.3,21.5-6,26.3-5.6c0.7,0.1,1.3,0.6,1.2,1.4
							c0,0.7-0.5,1.3-1.3,1.3c-0.1,0-11.6,0.9-17.8,9.1c-4,5.2-5,12.5-3.2,21.4c0,0.2,0,0.4,0,0.6c-0.1,0.4-1.5,4.2-8.8,6.5
							c-3.5,1.1-5.7,2.7-6.9,5c-1.5,2.9-1.3,7.1,0.5,12.5c1.7,5.1,5,8.1,8.9,8.1h0.1c3.3-0.1,6.2-2.6,7.4-6.3c0.2-0.6,0.7-1,1.4-1
							c0.4,0,10.8,0.7,16.5-8.9C503,475.7,503.4,475.5,503.8,475.5z"/>
					</g>
					<g>
						<g>
							<path class="st5" d="M536.6,455.3c0,0.5,0,1.1-0.1,1.6c-0.9,3.3-2.8,8.1-6.9,10.8c-1.2,0.7-2.7,1-4.1,0.4
								c-3.2-1.1-9.9-3.7-14.7-8.5c-1.1-1-1.5-2.4-1.4-3.7c0-0.3,0.1-0.7,0.2-1.1c1-3,3.1-7.7,7.4-11c1.6-1.3,3.9-1.3,5.5-0.1l12,8
								C535.7,452.5,536.5,453.8,536.6,455.3z"/>
						</g>
						<g class="st6">
							<g>
								<path class="st7" d="M536.6,455.3c0,0.5,0,1.1-0.1,1.6c-0.9,3.3-2.8,8.1-6.9,10.8c-1.2,0.7-2.7,1-4.1,0.4
									c-3.2-1.1-9.9-3.7-14.7-8.5c-1.1-1-1.5-2.4-1.4-3.7C525.1,467.5,533.9,458.8,536.6,455.3z"/>
							</g>
						</g>
						<g>
							<path class="st7" d="M527,469.7c-0.6,0-1.3-0.1-1.9-0.3c-3.5-1.2-10.3-4-15.2-8.8c-1.7-1.6-2.2-4.1-1.5-6.2
								c1.2-3.4,3.4-8.2,7.8-11.7c2-1.6,4.9-1.7,7.1-0.2l12,8c2.1,1.4,3.1,4.1,2.5,6.6c-1,3.7-3.1,8.8-7.4,11.6
								C529.3,469.4,528.2,469.7,527,469.7z M519.9,444.1c-0.7,0-1.4,0.2-2,0.6c-3.9,3-5.9,7.3-7,10.4l0,0c-0.4,1.2-0.1,2.6,0.9,3.4
								c4.6,4.4,10.9,7,14.2,8.1c1,0.3,2,0.2,2.9-0.3c3.6-2.5,5.5-6.9,6.3-10.1c0.3-1.4-0.2-2.9-1.4-3.6l-12-8
								C521.2,444.4,520.5,444.1,519.9,444.1z M509.6,454.9L509.6,454.9L509.6,454.9z"/>
						</g>
						<g>
							<path class="st7" d="M515.6,464.8c-0.2,0-0.5-0.1-0.7-0.2l-1.1-0.7c-1.4-1-1.9-2.9-1.3-4.5c2.9-6.9,7.6-11.6,10.2-13.8
								c1.3-1.1,3.1-1.2,4.5-0.2l1.1,0.7c0.6,0.4,0.7,1.3,0.3,1.8c-0.4,0.6-1.3,0.7-1.8,0.3l-1.1-0.7c-0.4-0.3-1-0.2-1.3,0.1
								c-2.4,2-6.7,6.4-9.5,12.7c-0.2,0.4,0,1,0.3,1.3l1.1,0.7c0.6,0.4,0.7,1.3,0.3,1.8C516.4,464.6,516,464.8,515.6,464.8z"/>
						</g>
						<g>
							<path class="st7" d="M523.4,468.2c-0.1,0-0.3,0-0.4-0.1c-0.4-0.2-0.5-0.7-0.3-1.2l4.4-8l-2.1-2.2c-0.5-0.5-0.6-1.4-0.2-2
								l3.7-6.4c0.2-0.4,0.7-0.5,1.2-0.3s0.5,0.7,0.3,1.2l-3.7,6.4l2.1,2.1c0.5,0.5,0.6,1.4,0.2,2l-4.4,8
								C524.1,468,523.7,468.2,523.4,468.2z"/>
						</g>
						<g>
							<path class="st7" d="M531.9,458.6c-1.3,0-2.5-1.3-2.5-2.8c0-1.5,1.1-2.8,2.5-2.8c1.3,0,2.5,1.3,2.5,2.8
								C534.3,457.3,533.3,458.6,531.9,458.6z M531.9,454.8c-0.3,0-0.6,0.4-0.6,1.1s0.3,1.1,0.6,1.1c0.3,0,0.6-0.4,0.6-1.1
								S532.2,454.8,531.9,454.8z"/>
						</g>
						<g>
							<path class="st5" d="M516,449.6c-0.9,1.1-2.4,2.1-4.9,2.9c-6.9-6.5-12.6-13.8-15.9-23.1c0,0,3.3-2.2,9.2-1.7
								c0,0,0.2,1,0.7,2.5c1.3,3.4,4.5,9.9,11.8,15.6C517,445.6,517.6,447.6,516,449.6z"/>
						</g>
						<g class="st6">
							<g>
								<path class="st7" d="M516,449.6c-0.9,1.1-2.4,2.1-4.9,2.9c-6.9-6.5-12.6-13.8-15.9-23.1c0,0,3.3-2.2,9.2-1.7
									c0,0,0.2,1,0.7,2.5c-2.1,1.3-4.2,3.7-2.2,8.4C506.5,446.4,516,449.6,516,449.6z"/>
							</g>
						</g>
						<g>
							<path class="st7" d="M511.1,453.8c-0.3,0-0.6-0.1-1-0.3c-8.1-7.7-13.3-15.2-16.3-23.7c-0.2-0.5,0-1.2,0.5-1.6
								c0.1-0.1,3.9-2.5,10.1-1.9c0.6,0,1.1,0.5,1.2,1.1c0,0.1,2,9.4,12.1,17.2c0.2,0.2,0.4,0.4,0.4,0.6c0,0.1,1.6,5.9-6.9,8.5
								C511.4,453.8,511.2,453.8,511.1,453.8z M496.8,430c2.8,7.4,7.5,14.1,14.6,20.9c4.1-1.4,4.4-3.6,4.3-4.5
								c-8.7-7-11.6-14.8-12.3-17.6C500.3,428.8,498,429.5,496.8,430z"/>
						</g>
					</g>
					<g>
						<path class="st7" d="M502.6,476.2c1.8-3,3-6.6,2.8-10.2c0-0.4,0.3-0.7,0.7-0.9c0.4,0,0.7,0.2,0.7,0.6c0.2,1,0.3,2,0.2,3
							c-0.1,3-0.9,5.9-2.2,8.7c-0.3,0.6-1.2,1-1.8,0.6C502.4,477.8,502.2,476.8,502.6,476.2L502.6,476.2z"/>
					</g>
					<g>
						<path class="st7" d="M479.8,461c0.9-1,6.6-6.7,7.5-4.7c0.1,0.3,0,0.7-0.3,1c-1.5,1-2.8,2.5-4,4c-0.7,1-1.5,2.8-3,1.9
							C479.3,462.6,479.2,461.6,479.8,461L479.8,461z"/>
					</g>
					<g>
						<path class="st7" d="M506.5,476.9c2.4,0.9,5.1,1.2,7.5,0.5c0.4-0.1,0.9,0.1,1,0.5c0.1,0.3-0.1,0.7-0.4,0.9
							c-0.7,0.3-1.4,0.5-2.1,0.6c-2.2,0.4-4.5,0.4-6.7-0.1c-0.7-0.2-1.2-0.9-1-1.6C504.9,477,505.7,476.6,506.5,476.9L506.5,476.9z"
							/>
					</g>
					<g>
						<path class="st7" d="M558.1,466.7c-3,1.4-6.3,4.1-6.6,7.6c-0.2,1.2,0.2,2.4,0.5,3.5c0.3,1-1.1,1.4-1.4,0.5
							c-2-4.1-0.4-8.8,3-11.7c1.1-1,2.1-1.7,3.4-2.5c0.6-0.3,1.5-0.1,1.8,0.5C559.2,465.6,558.9,466.5,558.1,466.7L558.1,466.7z"/>
					</g>
					<g>
						<path class="st7" d="M504.3,426.3c2.9-0.1,5.8,0.3,8.6,1.4c0.4,0.1,0.5,0.6,0.4,1c-0.1,0.3-0.5,0.5-0.9,0.4
							c-2.6-0.6-5.2-0.6-7.8-0.2C502.7,429.3,502.4,426.5,504.3,426.3L504.3,426.3z"/>
					</g>
					<g>
						<path class="st7" d="M534.4,451.8c1.5-1.6,3-3.2,4.3-4.8c0.2-0.3,0.7-0.4,1.1-0.1c0.3,0.2,0.3,0.6,0.2,1
							c-1.1,1.9-2.2,3.9-3.4,5.7C535.4,455,533.2,453.1,534.4,451.8L534.4,451.8z"/>
					</g>
					<g>
						<path class="st7" d="M535.8,472.2c-0.1,0-0.2,0-0.3,0c-0.7-0.2-1.1-1-1-1.6c0-0.1,3.6-12.3,17.3-13.8c0.7-0.1,1.4,0.4,1.5,1.2
							c0.1,0.7-0.4,1.4-1.2,1.5c-11.9,1.2-14.9,11.5-15.1,11.9C536.9,471.8,536.4,472.2,535.8,472.2z"/>
					</g>
					<g>
						<path class="st7" d="M497.4,484.8c-0.1,0-0.2,0-0.3,0c-14.2-3.1-19.4-20.2-19.6-21c-0.2-0.7,0.2-1.5,1-1.6
							c0.7-0.2,1.5,0.2,1.6,1c0,0.2,4.9,16.4,17.6,19.2c0.7,0.1,1.2,0.9,1.1,1.6C498.6,484.4,498,484.8,497.4,484.8z"/>
					</g>
					<g>
						<path class="st7" d="M531.1,492.3c-0.4,0-1-0.2-1.2-0.7c-5.2-9.6-20.3-4.2-20.6-4.2c-0.6,0.2-1.5-0.1-1.7-0.7
							c-0.2-0.6,0.1-1.5,0.7-1.7c0.7-0.2,17.5-6.3,23.8,5.4c0.3,0.6,0.1,1.5-0.5,1.8C531.7,492.3,531.3,492.3,531.1,492.3z"/>
					</g>
					<g>
						<path class="st7" d="M494.3,428.8c-0.1,0-0.3,0-0.4-0.1c-0.6-0.2-1.1-1.1-0.7-1.7c4.8-12.9-3.4-19.9-3.5-20
							c-0.5-0.4-0.6-1.3-0.1-1.9c0.4-0.5,1.3-0.6,1.9-0.1c0.1,0.1,9.7,8.5,4.3,23C495.3,428.5,494.8,428.8,494.3,428.8z"/>
					</g>
				</g>
				<g>
					<g>
						<circle class="st5" cx="559.5" cy="406" r="39.3"/>
					</g>
					<g class="st6">
						<g>
							<path class="st7" d="M590,430.9c-7.2,8.9-18.2,14.5-30.4,14.5c-21.6,0-39.3-17.6-39.3-39.3c0-11,4.6-21,11.9-28.2
								c-5.5,6.7-8.8,15.4-8.8,24.7c0,21.6,17.6,39.3,39.3,39.3C573.3,441.9,583,437.7,590,430.9z"/>
						</g>
					</g>
					<g>
						<path class="st7" d="M598.6,410c-0.3-20.6-22.9-34.1-53.1-26.9l-13,14.1c-9.1,18,2.6,39.4,14.1,45.8
							C571.3,447.9,590.8,441.7,598.6,410z"/>
					</g>
					<g>
						<path class="st7" d="M559.5,446.7c-22.4,0-40.6-18.2-40.6-40.6s18.2-40.6,40.6-40.6s40.6,18.2,40.6,40.6
							C600.2,428.5,582,446.7,559.5,446.7z M559.5,368.1c-20.9,0-37.9,17-37.9,37.9c0,20.9,17,37.9,37.9,37.9s37.9-17,37.9-37.9
							C597.4,385.1,580.5,368.1,559.5,368.1z"/>
					</g>
					<g>
						<path class="st7" d="M546.6,444c-0.1,0-0.3,0-0.4-0.1c-11.9-6.5-23.8-28.7-14.5-47c0-0.1,0.1-0.1,0.1-0.2l13-14.1
							c0.1-0.1,0.3-0.2,0.4-0.2c17.1-4.1,33-1.7,43.4,6.3c6.9,5.4,10.7,13,10.9,21.4c0,0.5-0.4,0.9-0.9,0.9c-0.5,0-0.9-0.4-0.9-0.9
							c-0.1-7.9-3.7-15-10.2-20c-9.9-7.7-25.1-9.9-41.6-6L533.5,398c-8.7,17.3,2.6,38.3,13.8,44.6c0.4,0.2,0.5,0.7,0.3,1.2
							C547.3,443.9,547,444,546.6,444z"/>
					</g>
					<g>
						<path class="st7" d="M596.2,393.4c-0.4,0-0.7-0.2-1.1-0.5c-17.9-23.5-46.9-12.1-48.2-11.6c-0.6,0.3-1.5,0-1.7-0.7
							c-0.3-0.6,0-1.5,0.7-1.7c0.3-0.1,32.1-12.7,51.3,12.4c0.4,0.5,0.3,1.4-0.2,1.9C596.8,393.3,596.6,393.4,596.2,393.4z"/>
					</g>
					<g>
						<path class="st5" d="M520.9,392.7l3,2.8c1.4,1.3,3.4,2,5.4,1.7c6.5-0.9,14.8-7.8,17.1-17.2c0.4-1.6,0-3.3-1-4.6
							c-1.5-1.8-3.3-4.3-3.3-4.3c-7.1-7.1-22,4.9-23.7,14.6C518.1,388.2,519.1,390.9,520.9,392.7z"/>
					</g>
					<g class="st6">
						<g>
							<path class="st7" d="M546.5,380.1c-2.4,9.4-10.6,16.4-17.1,17.2c-1.9,0.2-3.9-0.4-5.4-1.7l-3-2.8c-1.9-1.8-2.9-4.4-2.5-7
								c0.1-0.5,0.2-1.1,0.4-1.7c0.3,1.5,1.2,3,2.4,4.1l3,2.8c1.4,1.3,3.4,2,5.4,1.7c6.1-0.7,13.8-7.1,16.7-15.6
								C546.8,378,546.8,379,546.5,380.1z"/>
						</g>
					</g>
					<g>
						<path class="st7" d="M533.9,371.6c4.6-1.1,6.9,2.7,5.6,6.7c-1.9,5.4-6.3,9.6-11.9,10.9c-6.2,1.1-7.4-4.7-4.6-9.1
							c0.6-1.1,2.1-0.2,1.7,0.9c-2,4.3-0.7,7.3,4.2,5c3.6-1.5,9.9-7.7,8.1-11.8c-0.4-0.7-1.6-1.1-2.9-1c-0.5,0.1-1-0.3-1.1-0.9
							C533.2,372.3,533.5,371.7,533.9,371.6L533.9,371.6z"/>
					</g>
					<g>
						<path class="st7" d="M528.5,398.6c-2,0-4-0.7-5.5-2.1l-3-2.8l0,0c-2.4-2.1-3.4-5.2-2.9-8.2c1.3-7,8.7-15,15.9-17.2
							c4-1.3,7.6-0.5,10.1,1.9l0.1,0.1c0,0,1.8,2.5,3.3,4.3c1.3,1.6,1.7,3.9,1.3,5.8c-2.6,10.1-11.5,17.3-18.3,18.2
							C529.2,398.6,528.9,398.6,528.5,398.6z M521.9,391.8l3,2.8c1.2,1.1,2.7,1.6,4.3,1.4c5.9-0.7,13.7-7.2,16.1-16.3
							c0.3-1.2,0-2.5-0.7-3.5c-1.3-1.6-2.9-3.9-3.2-4.3c-1.8-1.7-4.3-2.1-7.3-1.2c-6.3,1.9-13,9.2-14,15.1
							C519.4,388,520.3,390.2,521.9,391.8L521.9,391.8z"/>
					</g>
					<g class="st20">
						<path class="st21" d="M550.1,388.7c-3.6,1.2-5.1,5.9-2.7,8.8c0.1,0.1,0.2,0.3,0.4,0.4c3.6,3.6,23.8-2,33.2,3.2
							c9.4,5.1,9.3-8.9-6.3-12.4C562.1,385.9,554,387.4,550.1,388.7z"/>
					</g>
					<g class="st20">
						<path class="st21" d="M543.6,420.3c0,0-4.8,3.2,0.4,10.3c5.2,7.1,15.4,9,18.1,5.2c2.6-3.7-5.6-5.9-7.7-9.4
							C552.4,422.7,547.2,416.7,543.6,420.3z"/>
					</g>
				</g>
				<g>
					<path class="st7" d="M504.7,400.5c3.5-0.4,6.9,1.3,8.9,4.1c0.4,0.6,1.5,1.5,0.6,2.1c-0.9,0.5-1.4-0.6-1.8-1.1
						c-1.8-1.8-4.5-3.1-7.1-2.5C503.4,403.6,502.7,400.8,504.7,400.5L504.7,400.5z"/>
				</g>
			</g>
			<g>
				<path class="st7" d="M559.5,365.4c17.2,0,32,10.8,37.9,25.9c0,0.1,0.1,0.2,0.1,0.3c1.7,4.5,2.7,9.3,2.7,14.4
					c0,22.4-18.2,40.6-40.6,40.6c-3.7,0-7.4-0.5-10.9-1.5c1.4,7.2,4.5,13.4,9.4,19c0.9-0.1,1.6-0.2,2.4-0.2c2.9,0,4.6,1.2,5.5,2.5
					c2.4,3.1,1.6,8.9-1.7,14.8c-2.1,3.9-5.8,5.1-9.2,5.1c-2.9,0-5.8-0.9-7.7-1.8c-0.1,0-0.1-0.1-0.2-0.1c-9-6-12.9-13-14.6-17.3
					c-0.6,0.6-1.4,1.3-2.1,1.8c-0.2,0.1-0.4,0.3-0.7,0.4c7.9,19.9,1.7,28.6-6.2,34.1c3.3,4.2,2.9,8.5,1.3,11c-1.5,2.5-4.2,4-7.1,4
					c-0.9,0-1.8-0.1-2.7-0.4c-8.1-2.5-13-10.9-14.6-17.5c-1.3-5.1,2.2-8.8,4.8-11.4c1.2-1.2,2.2-2.2,2.7-3.2c1-2.1-1.4-5.2-2.6-6.5
					l-1-0.5c-5.6,8.2-14.2,9.1-17.2,9.1c-1.7,4.4-5.4,7.2-9.5,7.3h-0.1c-4,0-9-2.6-11.5-10c-2-6.2-2.2-10.9-0.4-14.6
					c1.5-2.9,4.3-5,8.5-6.3c4.9-1.6,6.5-3.7,7-4.5c-1.1-5.2-1.2-9.9-0.3-14c-5.7-2.4-7.8-6.7-8.7-10.4c-0.6-0.2-1.2-0.3-1.8-0.6
					c-4.2-1.8-7.4-5.6-7.9-9.2c-0.5-3.6-0.7-8.9,2.9-13.3c3.7-4.5,10.8-7,21.1-7.4c1.1,0,2.1,0,3.1,0c0.3,0,0.6,0,1,0h0.1h0.1
					c2.6,0,4.9,0.2,7.2,0.4c2.2-1.7,4.4-3.2,6.2-4.2c0.2-0.2,0.4-0.3,0.6-0.3c1.2-0.5,2.1-1,3-1.1c0.6-0.1,1.4-0.2,2-0.2
					c3.6,0,7.1,1.5,9.5,3.2c0.2-2.8,0.7-5.6,1.6-8.1l-0.6-0.5c-2.4-2.1-3.4-5.2-2.9-8.2c1.3-7,8.7-15,15.9-17.2
					c1.3-0.4,2.6-0.6,3.7-0.6c2,0,3.9,0.5,5.4,1.7C547.5,366.8,553.4,365.4,559.5,365.4 M559.5,364.6c-6,0-11.8,1.3-17.2,3.7
					c-1.6-1.1-3.4-1.6-5.5-1.6c-1.3,0-2.7,0.2-4.1,0.6c-7.5,2.4-15.2,10.7-16.5,17.9c-0.6,3.3,0.5,6.6,3.1,9l0.2,0.2
					c-0.6,2-1.1,4.2-1.3,6.3c-3-1.7-6-2.6-8.9-2.6c-0.7,0-1.5,0.1-2.1,0.2c-0.9,0.1-1.9,0.5-3.1,1.2c-0.3,0.1-0.6,0.2-0.9,0.4
					c-1.7,1-3.6,2.2-6,4.1c-2.2-0.2-4.6-0.3-6.9-0.3c-0.1,0-0.1,0-0.2,0h-0.1c-0.3,0-0.6,0-1,0c-1.1,0-2.1,0-3.1,0
					c-10.4,0.3-17.8,2.9-21.7,7.7c-4,4.7-3.6,10.2-3.1,14s4,7.9,8.5,9.9c0.4,0.2,1,0.3,1.5,0.5c0.9,3.4,3.1,7.8,8.5,10.2
					c-0.7,4-0.5,8.5,0.3,13.3c-0.5,0.7-2.2,2.6-6.3,3.9c-4.4,1.4-7.4,3.6-8.9,6.7c-1.9,3.9-1.8,8.8,0.3,15.2
					c2.6,7.8,8,10.6,12.3,10.6h0.2c4.4-0.1,8.2-2.8,10.2-7.3c3.7-0.1,11.5-1.4,16.9-8.8l0.1,0.1c1.3,1.4,2.9,4,2.2,5.5
					c-0.3,0.7-1.4,1.8-2.5,2.9c-2.6,2.7-6.5,6.6-5,12.2c1.7,6.7,6.7,15.4,15.2,18.1c1,0.3,2,0.4,3,0.4c3.2,0,6.2-1.6,7.8-4.4
					c1.6-2.7,2.1-7-0.9-11.2c7.2-5.1,13.8-13.8,6-33.8c0,0,0.1,0,0.1-0.1c0.4-0.3,0.9-0.6,1.3-1c2,4.7,6.1,11,14.5,16.6
					c0.1,0.1,0.2,0.1,0.3,0.1c2.5,1.2,5.5,1.8,8,1.8c4.5,0,8-1.9,10.1-5.6c3.5-6.2,4.1-12.4,1.6-15.7c-1-1.3-2.8-2.8-6.2-2.8
					c-0.6,0-1.3,0-1.9,0.1c-4.3-4.9-7.1-10.5-8.6-16.7c3.2,0.7,6.4,1.2,9.7,1.2c22.9,0,41.6-18.6,41.6-41.6c0-5-0.9-10-2.7-14.7
					c0-0.1-0.1-0.2-0.1-0.4c-3-7.7-8.1-14.2-15-19.1C576.3,367.1,568.1,364.6,559.5,364.6L559.5,364.6z"/>
			</g>
		</g>
		<g>
			<g>
				<path class="st18" d="M196,681.8c-4.6,13.9-20.6,22.3-35.2,17.7c0,0,8.4,10.2,4.9,25.6c-2.8,12.5-10.3,18.4-16.4,16.9
					c-2.4-0.5-3.3-3.3-2.1-5.4c-2.2,1-4.8-0.4-5-2.9c-0.1-1.4,0.1-3.1,1.2-5.1c-0.2,0.1-3.2,2.1-5.4,4.2c-1.9,1.9-0.9,3.7-0.2,7.2
					c0.1,0.9,0.3,1.7,0.5,2.5c4.3,17-24.7,16.6-21.7,5.6c0.3-1.3,1.1-2.6,2.4-4.1c0,0-1.1-1.2-1.6-3.2c-19.8,3.9-27-12.2-15.6-14.2
					c-6.2-15.1,6.7-27.1,17.6-25.3c0,0,0.7-3.2,5-6c-0.3-0.1-0.5-0.2-0.9-0.3c-7.3-3.3-15-11.7-17.2-21.2
					c-1.3-5.5-0.9-11.2,2.5-16.7c2.4-3.1,6.6-5.2,7.6-1.2c0,0,4.3-4.9,7.7-1.5c3.4,3.4,0.4,12.7,1.3,18c0.9,5.2,7.2,13.3,18.6,16.4
					c-3.1-4.8-6-9.6-5-14.8c0.4-2.2,1.6-4.5,3.7-6.7c0,0,10.1-26.3,30.5-22.9c11.4,1.9,18.6,8.9,22.1,17.1
					C197.7,668.2,198,675.6,196,681.8z"/>
			</g>
			<g class="st6">
				<path class="st7" d="M119,718.9c0,0-0.9-3.5-3.9-0.5c-3,3-2.4,15-3.6,18.7c-1.3,3.7-10.6,1-10.6,1s7.6,5.5,13,4.3
					c5.4-1.2,1.2-6.4,1.2-7c0-0.5,6.3-12.2,6.3-12.2"/>
			</g>
			<g class="st6">
				<path class="st7" d="M144.3,690.3c0,0-8,0.6-10.9,1.7c-1.6,0.6-6.1,1.8-10,3c-7.3-3.3-15-11.7-17.2-21.2l0.6-1.6
					c0,0,9.6,16.8,19.8,16.8s10.9-2,10.9-2L144.3,690.3z"/>
			</g>
			<g class="st6">
				<path class="st7" d="M196.1,681.9c-4.6,13.9-20.6,22.3-35.2,17.7c0,0,8.4,10.2,4.9,25.6c-2.8,12.5-10.3,18.4-16.4,16.9
					c-2.4-0.5-3.3-3.3-2.1-5.4c-2.2,1-4.8-0.4-5-2.9c-0.1-1.4,0.1-3.1,1.2-5.1c-0.2,0.1-3.2,2.1-5.4,4.2c-1.9,1.9-0.9,3.7-0.2,7.2
					c0.1,0.9,0.3,1.7,0.5,2.5c4.3,17-24.7,16.6-21.7,5.6c2.6,1.4,8.4,3.7,13.5,1.5c6.7-3.1,3.7-10.5,2.5-16.5c-1.3-6-6-6.4-6-6.4
					c-11.1-8.1-7.9-17.3-7.9-17.3c11.2,16.6,22.8,14.2,34.7-7.2c0,0,0.1,8.7,0.4,9c0.3,0.3-7.1,10.7-7.1,10.7s-1.4,8.2,0.7,11.7
					c2.2,3.3,10.3-0.1,13.2-15.6c3-15.5-2.6-18.7-11.4-23.7c-7.1-4-9.6-14.4-10.4-18.3c2.6,9.7,22,21.1,39.3,15.6
					c18.2-5.7,16.5-29.9,16.5-29.9l0.3,0.1C197.8,668.3,198.1,675.7,196.1,681.9z"/>
			</g>
			<g class="st4">
				<g>
					<path class="st5" d="M122.4,696.9c1.4,1,2.8,1.7,4.3,2.2c-4.4,2.9-5,6-5,6c-10.8-1.8-23.8,10.2-17.6,25.3
						c-4.4,0.7-6,3.6-5.1,6.6c-4-4-3.3-9.3,2.9-10.4c-6.2-15.1,6.7-27.1,17.6-25.3C119.3,701.4,119.8,699.3,122.4,696.9z"/>
				</g>
			</g>
			<g class="st4">
				<g>
					<path class="st5" d="M111.1,684.3c-5.5-7.7-7.9-17.9-2.4-27c2.4-3.1,6.6-5.2,7.6-1.2c0,0,4.3-4.9,7.7-1.5
						c0.7,0.7,1.2,1.8,1.4,3.1c-3.2-2-6.9,2.1-6.9,2.1c-1-4.1-5.2-1.9-7.6,1.2C106.3,668.6,107.3,677.1,111.1,684.3z"/>
				</g>
			</g>
			<g class="st4">
				<g>
					<path class="st5" d="M194.2,659.6c-4-5.6-10.3-10-18.8-11.4c-20.5-3.4-30.5,22.9-30.5,22.9c-5.8,6.2-4.3,11.9-1.2,17.3
						c-4.3-6.7-8.1-13.5-1.1-21.1c0,0,10.1-26.3,30.5-22.9C183.5,646.2,190.4,652.3,194.2,659.6z"/>
				</g>
			</g>
			<g class="st4">
				<g>
					<path class="st5" d="M143.6,688.7c0.1,0.1,0.2,0.2,0.2,0.4l0,0C143.7,688.9,143.7,688.8,143.6,688.7z"/>
				</g>
			</g>
			<g>
				<path class="st7" d="M126.3,757.7c-4.2,0-8.1-1.4-10.2-4c-1.3-1.6-2.8-4.9,0.6-9.9c-0.2-0.3-0.3-0.6-0.5-1.1
					c-8.2,1.3-15.3-0.6-19.3-5.2c-2.1-2.5-2.9-5.5-2-8c0.6-1.9,2.2-3.4,4.4-4.2c-2.1-6.6-1.1-13.4,3.2-18.6c4-4.9,9.9-7.7,15.5-7.3
					c0.5-1,1.4-2.4,2.9-3.7c-7-3.9-13.2-11.2-15.7-19.2c-2.5-7.3-1.7-14.2,2-20.3l0.1-0.1c1.8-2.4,4.8-4.6,7.5-4
					c0.5,0.1,1.3,0.4,2,1.1c1.1-0.7,2.6-1.6,4.3-1.6c1.5,0,3,0.5,4.2,1.7c2.7,2.7,2.4,7.6,1.9,12.3c-0.2,2.5-0.4,4.9-0.1,6.6
					c0.6,3.5,4.5,9.6,12.6,13.4c-3.1-5.6-5-12.1,1.3-19.1c1.3-3.2,11.8-27.1,32.3-23.7c11.8,1.9,18,8.7,21.2,14
					c4.6,7.6,5.8,17.5,3.1,25.6l0,0c-4.5,13.6-19,22-33.1,19.8c2.4,4.5,5.2,12.6,2.9,23.2c-1.7,7.7-5.5,13.8-10.2,16.7
					c-2.8,1.7-5.7,2.2-8.4,1.6c-1.6-0.4-2.9-1.5-3.5-3.1c-0.2-0.6-0.4-1.3-0.4-1.9c-0.6-0.1-1.4-0.3-1.9-0.7c-1.5-0.9-2.4-2.4-2.6-4
					c0-0.3,0-0.5,0-0.9c-0.3,0.3-0.7,0.6-1.1,1c-0.7,0.7-0.7,1.3-0.2,3.6c0.1,0.5,0.3,1.2,0.4,1.9v0.2c0.1,0.7,0.3,1.5,0.4,2.2
					c1.5,6.2-0.6,11.2-6.1,13.9C131.7,757.2,129,757.7,126.3,757.7z M117.4,739.1c0.7,0,1.5,0.5,1.7,1.3c0.4,1.5,1.2,2.5,1.2,2.5
					c0.5,0.6,0.5,1.6,0,2.2c-1.5,1.8-3,4.4-1.5,6.4c2,2.6,8.7,3.6,13.6,1.3c2.7-1.3,5.6-4.1,4.2-9.9c-0.2-0.9-0.3-1.6-0.5-2.5v-0.1
					c-0.1-0.6-0.2-1.2-0.4-1.7c-0.5-2.5-1.1-4.7,1.1-7c2.4-2.4,5.7-4.5,5.7-4.5c0.6-0.4,1.6-0.3,2.1,0.2c0.5,0.5,0.7,1.4,0.3,2.1
					c-0.7,1.5-1.2,2.9-1.1,4.2c0.1,0.7,0.5,1.1,0.9,1.3c0.5,0.3,1.2,0.3,1.7,0.1c0.7-0.3,1.5-0.1,2,0.4c0.5,0.5,0.6,1.4,0.2,2
					c-0.3,0.5-0.3,1.1-0.1,1.7c0.1,0.3,0.4,0.9,1.2,1c1.8,0.4,3.7,0,5.7-1.2c4-2.5,7.1-7.7,8.6-14.5c3.2-14.4-4.5-24-4.6-24
					c-0.5-0.6-0.5-1.5-0.1-2.1c0.4-0.6,1.3-1,2-0.7c13.5,4.2,28.6-3.3,33-16.5l0,0c2.4-7.2,1.3-15.9-2.8-22.7
					c-2.8-4.7-8.4-10.6-18.7-12.3c-18.7-3.1-28.5,21.5-28.6,21.7c-0.1,0.2-0.2,0.4-0.3,0.5c-6,6.5-3.3,11.9,1.5,19.4
					c0.4,0.6,0.4,1.4-0.1,2c-0.4,0.6-1.2,0.9-1.9,0.6c-11.6-3.2-18.7-11.4-19.9-17.9c-0.3-2.1-0.1-4.8,0.1-7.5
					c0.3-3.7,0.6-7.9-0.9-9.5c-0.6-0.6-1.2-0.6-1.5-0.6c-1.5,0-3.2,1.6-3.5,2c-0.4,0.5-1.1,0.7-1.8,0.5c-0.6-0.1-1.2-0.6-1.3-1.3
					c0-0.2-0.2-0.9-0.5-0.9c-0.6-0.1-2.5,0.7-3.9,2.6c-4,6.5-3,13-1.6,17.3c2.7,7.9,9.4,15.4,16.5,18.2c0.6,0.2,1.1,0.9,1.1,1.5
					s-0.2,1.3-0.7,1.7c-3.6,2.4-4.3,4.8-4.3,4.9c-0.2,0.9-1.2,1.5-2,1.4c-4.8-0.9-10.2,1.5-13.6,5.8c-3.7,4.7-4.5,10.9-2,16.9
					c0.2,0.5,0.2,1.1-0.1,1.5c-0.2,0.4-0.7,0.9-1.3,0.9c-1.9,0.3-3.3,1.2-3.7,2.5c-0.4,1.3,0,3,1.4,4.5c2.6,3,8.5,5.6,17.5,3.9
					C117.2,739.1,117.3,739.1,117.4,739.1z"/>
			</g>
			<g>
				<path class="st7" d="M123.6,693.8c4.5-1.8,9.1-2.9,13.8-3.3c0.5,0,1.1,0.3,1.1,1c0,0.5-0.3,1-0.9,1.1c-4.4,0.9-8.7,2.5-12.6,4.5
					C122.9,698.2,121.3,694.9,123.6,693.8L123.6,693.8z"/>
			</g>
			<g>
				<path class="st7" d="M160.2,701.2c-1.3-0.6-8.9-4.9-7-6.5c0.4-0.3,1-0.3,1.4,0c1,0.7,2.1,1.4,3.3,1.8c1.2,0.5,2.5,1,3.6,1.4
					c1,0.3,1.5,1.3,1.2,2.2C162.5,701.2,161.2,701.7,160.2,701.2L160.2,701.2z"/>
			</g>
			<g>
				<path class="st7" d="M115.8,741.7c-2.2-4.9-1.6-11,1.3-15.5c1-1.5,2-2.8,3.3-4v1.7c-1.8-2.1-2.4-4.9-2.8-7.6
					c-0.1-1.3,1.7-1.6,2-0.3c0.4,2.1,1.1,4.5,2.5,6.1c0.5,0.4,0.5,1.3,0,1.7c-3.1,3.2-5,7.6-4.4,12.1c0.2,1.4,0.5,2.8,1.2,4
					C120.2,742.2,117,743.9,115.8,741.7L115.8,741.7z"/>
			</g>
			<g>
				<path class="st7" d="M141.9,727.9c1.7-2.9,3.5-5.7,5.6-8.2c1.7-2.6,3-5.6,4.2-8.5c0.7-2,1.5-4.1,1.7-6.1c0.1-0.5,0.6-1,1.2-0.9
					c0.5,0.1,0.9,0.5,0.9,1.1c-0.2,2.4-0.9,4.4-1.5,6.6c-1.1,3.2-2.1,6.4-4,9.3c-1.8,2.7-3.4,5.5-4.9,8.4
					C144,731.7,140.7,730,141.9,727.9L141.9,727.9z"/>
			</g>
			<g>
				<path class="st7" d="M120.2,742.7c1.5,1.5,3.6,2.4,5.8,3c0.5,0.1,0.9,0.6,0.7,1.3c-0.1,0.4-0.5,0.7-1.1,0.7
					c-2.4-0.1-4.7-0.5-6.9-1.7c-0.4-0.2-1-0.6-1.4-1C115,743.1,118.7,740.1,120.2,742.7L120.2,742.7z"/>
			</g>
			<g>
				
					<ellipse transform="matrix(0.1602 -0.9871 0.9871 0.1602 -544.7351 726.7183)" class="st7" cx="154.7" cy="683.5" rx="1.8" ry="1.8"/>
			</g>
			<g>
				<path class="st7" d="M152.7,675.6c0,0-5-3.9-3.2-10.1c1.7-6.2,7.3-8.2,9.2-4.6C161,665.4,159.4,679.1,152.7,675.6z"/>
			</g>
			<g>
				<ellipse class="st5" cx="157.6" cy="666.5" rx="1.6" ry="2.1"/>
			</g>
			<g>
				<g>
					<path class="st7" d="M165.8,686.2c-1.6-1.1-2-3.3-1-4.9c1-1.4,2.7-3,5.7-4c6.3-1.9,12.2-0.4,12.2,3.2
						C182.7,685,174.3,692.2,165.8,686.2z"/>
				</g>
				<g>
					<ellipse class="st5" cx="173.2" cy="679.3" rx="2.7" ry="2.2"/>
				</g>
				<g>
					<g>
						<path class="st7" d="M165.4,686.7c-2-1.3-2.5-4.4-0.9-6.2c2.7-3.4,7.2-4.7,11.2-4.8c5.1-0.2,10.1,3,6.5,8.4
							C178.7,689.6,170.6,690.7,165.4,686.7L165.4,686.7z M166.1,685.7c4.7,3.5,11.7,2.4,14.8-2.6c4.1-6.5-7-6.3-10.7-4.8
							C167.3,679.1,162.7,682.8,166.1,685.7L166.1,685.7z"/>
					</g>
				</g>
			</g>
			<g>
				<g>
					<path class="st7" d="M152.4,676.1c-3.1-2.5-4.7-6.7-3.7-10.6c0.6-2.9,2.4-5.8,5.2-7c6.5-2.2,7,6.6,6.2,10.9
						C159.7,673.2,157.1,678.8,152.4,676.1L152.4,676.1z M153.2,675.1c3.6,1.9,5.2-2.9,5.6-5.8c0.3-2.6,0.4-8-2-9.2
						c-3.1-0.9-5.8,3-6.4,5.8C149.2,669.2,150.6,672.8,153.2,675.1L153.2,675.1z"/>
				</g>
			</g>
			<g>
				<path class="st7" d="M130.6,704.9c-0.5-0.2-1.1-0.3-1.2-0.2c-0.1,0-0.2,0.3-0.3,0.4c-0.2,1,0.1,2,1.2,2.2c0.7,0.1,0.7,1.2,0,1.3
					c-2.5,0.3-3.7-2.8-2.6-4.7c0.9-1.5,2.8-1.1,3.6-0.1C132,704.4,131.3,705.3,130.6,704.9L130.6,704.9z"/>
			</g>
			<g>
				<path class="st18" d="M170.4,649.5c0.7-7.1-0.2-13.7-2.5-19.9c-7.3-1.6-5.8-12.2,2-12c9,0.1,10.6,8.8,5.9,10.3
					c0,0,3.7,7.5,0.2,22.2"/>
			</g>
			<g>
				<path class="st18" d="M189.7,661.7c8.7-7.3,7.9-16.3,7.9-16.3c5.5-1.2,7.2-4.5,5.6-9.2c-1.6-4.8-9.2-6.7-11.9-1.7s1,8.4,1,8.4
					s0.3,11-6.2,16.3"/>
			</g>
			<g>
				<path class="st7" d="M169.2,649.3c0.4-6.5-0.5-13.1-2.8-19.2l1.2,1.1c-3.6-0.6-6.6-4.5-6-8.2c0.5-5,5.2-7.8,10-7
					c2.6,0.3,5.1,1.4,6.9,3.5c2.7,3.1,2.2,8.7-2.1,10.1l1.1-2.4c1.6,3.7,1.8,7.8,1.7,11.9c-0.1,2.9-0.5,5.8-1.2,8.7l-0.7,2.8
					c-0.2,0.6-0.9,1.1-1.5,1c-0.6-0.2-1.1-0.9-1-1.5c1.1-5.4,1.6-10.9,0.9-16.3c-0.2-1.3-0.4-2.6-0.9-3.9c-0.1-0.4-0.3-0.9-0.4-1.1
					c-0.4-1,0.1-2,1.1-2.4c0.9-0.3,1.3-1,1.4-1.8c0.1-3.6-4-5.4-7.4-5c-3.4,0-5.5,4.2-3.5,6.9c0.5,0.9,1.5,1.4,2.6,1.7
					c0.5,0.1,1.1,0.5,1.2,1.1c1.2,3.3,1.9,6.7,2.4,10.2c0.3,3.4,0.3,7-0.1,10.4c-0.1,0.7-0.7,1.2-1.4,1.1
					C169.7,650.5,169.1,650,169.2,649.3L169.2,649.3z"/>
			</g>
			<g>
				<path class="st7" d="M188.8,660.7c4.3-3.9,7.3-9.3,7.1-15.2c-0.1-0.9,0.5-1.6,1.3-1.8c2.4-0.5,4.7-1.6,4.7-4.3
					c0.1-2.4-1.1-4.8-3.3-5.7c-3.7-1.7-6.9,1-6.6,4.8c0.1,1.3,0.7,2.5,1.6,3.4c0.2,0.2,0.2,0.5,0.2,0.7c0,1.7-0.2,3.2-0.4,4.8
					c-0.5,3.1-1.5,6.2-3.3,8.9c-0.9,1.4-2,2.6-3.3,3.6c-0.5,0.4-1.4,0.3-1.8-0.2c-0.4-0.5-0.3-1.3,0.1-1.7c4.1-3.7,5.4-10,5.4-15.3
					l0.5,1.2c-2.9-2.7-3.2-7.3-1.3-10.5c1.8-3.6,6.9-4.6,10.3-2.9c4.4,1.8,6.6,7.6,4.7,12c-1.3,2.6-4.3,4-6.7,4.5l1.3-1.8
					c0.1,3.5-0.9,6.7-2.5,9.9c-1.6,3-3.7,5.6-6.3,7.5c-0.5,0.4-1.4,0.3-1.8-0.2C188.3,661.9,188.3,661.1,188.8,660.7L188.8,660.7z"
					/>
			</g>
			<g class="st6">
				<path class="st7" d="M139,675.7c-0.1-0.4-0.2-0.9-0.2-1.3C138.9,674.5,138.9,675.1,139,675.7z"/>
			</g>
		</g>
		<g class="st22">
			<g class="st23">
				<path class="st5" d="M27.2-16.9l1.7-3.1c0.4-0.9,1.7-0.9,2.2,0l1.7,3.1c0.1,0.2,0.3,0.4,0.5,0.5l3.1,1.7c0.9,0.4,0.9,1.7,0,2.2
					l-3.1,1.7c-0.2,0.1-0.4,0.3-0.5,0.5l-1.7,3.1c-0.4,0.9-1.7,0.9-2.2,0l-1.7-3.1c-0.1-0.2-0.3-0.4-0.5-0.5l-3.1-1.7
					c-0.9-0.4-0.9-1.7,0-2.2l3.1-1.7C26.9-16.5,27.1-16.7,27.2-16.9z"/>
			</g>
			<g class="st23">
				<path class="st5" d="M208.8,538.2l1.7-3.1c0.4-0.9,1.7-0.9,2.2,0l1.7,3.1c0.1,0.2,0.3,0.4,0.5,0.5l3.1,1.7
					c0.9,0.4,0.9,1.7,0,2.2l-3.1,1.7c-0.2,0.1-0.4,0.3-0.5,0.5l-1.7,3.1c-0.4,0.9-1.7,0.9-2.2,0l-1.7-3.1c-0.1-0.2-0.3-0.4-0.5-0.5
					l-3.1-1.7c-0.9-0.4-0.9-1.7,0-2.2l3.1-1.7C208.4,538.5,208.6,538.4,208.8,538.2z"/>
			</g>
			<g class="st23">
				<path class="st5" d="M217.1,132.6l1.2-2.1c0.3-0.6,1.2-0.6,1.5,0l1.2,2.1c0.1,0.1,0.2,0.3,0.3,0.3l2.1,1.2
					c0.6,0.3,0.6,1.2,0,1.5l-2.1,1.2c-0.1,0.1-0.3,0.2-0.3,0.3l-1.2,2.1c-0.3,0.6-1.2,0.6-1.5,0l-1.2-2.1c-0.1-0.1-0.2-0.3-0.3-0.3
					l-2.1-1.2c-0.6-0.3-0.6-1.2,0-1.5l2.1-1.2C216.9,132.9,217.1,132.7,217.1,132.6z"/>
			</g>
			<g class="st23">
				<path class="st5" d="M0.4,362.9l1.2-2.1c0.3-0.6,1.2-0.6,1.5,0l1.2,2.1c0.1,0.1,0.2,0.3,0.3,0.3l2.1,1.2c0.6,0.3,0.6,1.2,0,1.5
					L4.6,367c-0.1,0.1-0.3,0.2-0.3,0.3l-1.2,2.1c-0.3,0.6-1.2,0.6-1.5,0l-1.2-2.1c-0.1-0.1-0.2-0.3-0.3-0.3l-2.1-1.2
					c-0.6-0.3-0.6-1.2,0-1.5l2.1-1.2C0.2,363.1,0.3,363,0.4,362.9z"/>
			</g>
			<g class="st23">
				<path class="st5" d="M496.6-23l1.2-2.1c0.3-0.6,1.2-0.6,1.5,0l1.2,2.1c0.1,0.1,0.2,0.3,0.3,0.3l2.1,1.2c0.6,0.3,0.6,1.2,0,1.5
					l-2.1,1.2c-0.1,0.1-0.3,0.2-0.3,0.3l-1.2,2.1c-0.3,0.6-1.2,0.6-1.5,0l-1.2-2.1c-0.1-0.1-0.2-0.3-0.3-0.3l-2.1-1.2
					c-0.6-0.3-0.6-1.2,0-1.5l2.1-1.2C496.4-22.7,496.5-22.8,496.6-23z"/>
			</g>
			<g class="st23">
				<path class="st5" d="M354.7,557.1l1.2-2.1c0.3-0.6,1.2-0.6,1.5,0l1.2,2.1c0.1,0.1,0.2,0.3,0.3,0.3l2.1,1.2
					c0.6,0.3,0.6,1.2,0,1.5l-2.1,1.2c-0.1,0.1-0.3,0.2-0.3,0.3l-1.2,2.1c-0.3,0.6-1.2,0.6-1.5,0l-1.2-2.1c-0.1-0.1-0.2-0.3-0.3-0.3
					l-2.1-1.2c-0.6-0.3-0.6-1.2,0-1.5l2.1-1.2C354.5,557.5,354.6,557.4,354.7,557.1z"/>
			</g>
			<g class="st23">
				<ellipse class="st5" cx="242.2" cy="-10" rx="2.2" ry="2.2"/>
			</g>
			<g class="st23">
				<ellipse class="st5" cx="383.8" cy="126.3" rx="2.2" ry="2.2"/>
			</g>
			<g class="st23">
				<circle class="st5" cx="597.1" cy="73.2" r="2.2"/>
			</g>
			<g class="st23">
				<ellipse class="st5" cx="437.4" cy="223.5" rx="3.3" ry="3.3"/>
			</g>
			<g class="st23">
				<circle class="st5" cx="2.4" cy="210.9" r="3.3"/>
			</g>
			<g class="st23">
				
					<ellipse transform="matrix(0.2316 -0.9728 0.9728 0.2316 -557.0897 451.5391)" class="st5" cx="7.3" cy="578.4" rx="3.3" ry="3.3"/>
			</g>
			<g class="st23">
				<ellipse class="st5" cx="578" cy="476.5" rx="3.3" ry="3.3"/>
			</g>
			<g class="st23">
				<ellipse class="st5" cx="581.3" cy="354.3" rx="3.3" ry="3.3"/>
			</g>
			<g class="st23">
				<ellipse class="st5" cx="337.5" cy="427.5" rx="2.8" ry="2.8"/>
			</g>
			<g class="st23">
				<circle class="st5" cx="168.5" cy="374.2" r="2.8"/>
			</g>
		</g>
		<g class="st22">
			<g class="st23">
				<path class="st5" d="M572.8,1016.9l-1.7,3.1c-0.4,0.9-1.7,0.9-2.2,0l-1.7-3.1c-0.1-0.2-0.3-0.4-0.5-0.5l-3.1-1.7
					c-0.9-0.4-0.9-1.7,0-2.2l3.1-1.7c0.2-0.1,0.4-0.3,0.5-0.5l1.7-3.1c0.4-0.9,1.7-0.9,2.2,0l1.7,3.1c0.1,0.2,0.3,0.4,0.5,0.5
					l3.1,1.7c0.9,0.4,0.9,1.7,0,2.2l-3.1,1.7C573.1,1016.5,572.9,1016.7,572.8,1016.9z"/>
			</g>
			<g class="st23">
				<path class="st5" d="M391.2,461.8l-1.7,3.1c-0.4,0.9-1.7,0.9-2.2,0l-1.7-3.1c-0.1-0.2-0.3-0.4-0.5-0.5l-3.1-1.7
					c-0.9-0.4-0.9-1.7,0-2.2l3.1-1.7c0.2-0.1,0.4-0.3,0.5-0.5l1.7-3.1c0.4-0.9,1.7-0.9,2.2,0l1.7,3.1c0.1,0.2,0.3,0.4,0.5,0.5
					l3.1,1.7c0.9,0.4,0.9,1.7,0,2.2l-3.1,1.7C391.6,461.5,391.4,461.6,391.2,461.8z"/>
			</g>
			<g class="st23">
				<path class="st5" d="M382.9,867.4l-1.2,2.1c-0.3,0.6-1.2,0.6-1.5,0l-1.2-2.1c-0.1-0.1-0.2-0.3-0.3-0.3l-2.1-1.2
					c-0.6-0.3-0.6-1.2,0-1.5l2.1-1.2c0.1-0.1,0.3-0.2,0.3-0.3l1.2-2.1c0.3-0.6,1.2-0.6,1.5,0l1.2,2.1c0.1,0.1,0.2,0.3,0.3,0.3
					l2.1,1.2c0.6,0.3,0.6,1.2,0,1.5l-2.1,1.2C383.1,867.1,382.9,867.3,382.9,867.4z"/>
			</g>
			<g class="st23">
				<path class="st5" d="M599.6,637.1l-1.2,2.1c-0.3,0.6-1.2,0.6-1.5,0l-1.2-2.1c-0.1-0.1-0.2-0.3-0.3-0.3l-2.1-1.2
					c-0.6-0.3-0.6-1.2,0-1.5l2.1-1.2c0.1-0.1,0.3-0.2,0.3-0.3l1.2-2.1c0.3-0.6,1.2-0.6,1.5,0l1.2,2.1c0.1,0.1,0.2,0.3,0.3,0.3
					l2.1,1.2c0.6,0.3,0.6,1.2,0,1.5l-2.1,1.2C599.8,636.9,599.7,637,599.6,637.1z"/>
			</g>
			<g class="st23">
				<path class="st5" d="M103.4,1023l-1.2,2.1c-0.3,0.6-1.2,0.6-1.5,0l-1.2-2.1c-0.1-0.1-0.2-0.3-0.3-0.3l-2.1-1.2
					c-0.6-0.3-0.6-1.2,0-1.5l2.1-1.2c0.1-0.1,0.3-0.2,0.3-0.3l1.2-2.1c0.3-0.6,1.2-0.6,1.5,0l1.2,2.1c0.1,0.1,0.2,0.3,0.3,0.3
					l2.1,1.2c0.6,0.3,0.6,1.2,0,1.5l-2.1,1.2C103.6,1022.7,103.5,1022.8,103.4,1023z"/>
			</g>
			<g class="st23">
				<path class="st5" d="M245.3,442.9l-1.2,2.1c-0.3,0.6-1.2,0.6-1.5,0l-1.2-2.1c-0.1-0.1-0.2-0.3-0.3-0.3l-2.1-1.2
					c-0.6-0.3-0.6-1.2,0-1.5l2.1-1.2c0.1-0.1,0.3-0.2,0.3-0.3l1.2-2.1c0.3-0.6,1.2-0.6,1.5,0l1.2,2.1c0.1,0.1,0.2,0.3,0.3,0.3
					l2.1,1.2c0.6,0.3,0.6,1.2,0,1.5l-2.1,1.2C245.5,442.5,245.4,442.6,245.3,442.9z"/>
			</g>
			<g class="st23">
				<ellipse class="st5" cx="357.8" cy="1009.8" rx="2.2" ry="2.2"/>
			</g>
			<g class="st23">
				<ellipse class="st5" cx="216.2" cy="873.6" rx="2.2" ry="2.2"/>
			</g>
			<g class="st23">
				<circle class="st5" cx="2.9" cy="926.8" r="2.2"/>
			</g>
			<g class="st23">
				<ellipse class="st5" cx="162.6" cy="776.5" rx="3.3" ry="3.3"/>
			</g>
			<g class="st23">
				<circle class="st5" cx="597.6" cy="789.1" r="3.3"/>
			</g>
			<g class="st23">
				
					<ellipse transform="matrix(0.2316 -0.9728 0.9728 0.2316 45.2119 900.4594)" class="st5" cx="592.6" cy="421.6" rx="3.3" ry="3.3"/>
			</g>
			<g class="st23">
				<ellipse class="st5" cx="22" cy="523.5" rx="3.3" ry="3.3"/>
			</g>
			<g class="st23">
				
					<ellipse transform="matrix(0.9999 -1.020245e-02 1.020245e-02 0.9999 -6.5857 0.2239)" class="st5" cx="18.7" cy="645.6" rx="3.3" ry="3.3"/>
			</g>
			<g class="st23">
				
					<ellipse transform="matrix(0.2298 -0.9732 0.9732 0.2298 -354.9454 696.3297)" class="st5" cx="262.5" cy="572.4" rx="2.8" ry="2.8"/>
			</g>
			<g class="st23">
				<circle class="st5" cx="431.5" cy="625.8" r="2.8"/>
			</g>
		</g>
	</g>
</g>
</svg>
