<?xml version="1.0" encoding="utf-8"?>
<!-- Generator: Adobe Illustrator 28.4.1, SVG Export Plug-In . SVG Version: 6.00 Build 0)  -->
<svg version="1.1" id="Layer_1" xmlns="http://www.w3.org/2000/svg" xmlns:xlink="http://www.w3.org/1999/xlink" x="0px" y="0px"
	 viewBox="0 0 232 242" style="enable-background:new 0 0 232 242;" xml:space="preserve">
<style type="text/css">
	.st0{display:none;fill:#FFFFFF;stroke:#000000;stroke-miterlimit:10;}
	.st1{fill:url(#SVGID_1_);}
	.st2{fill:#FFED7C;}
	.st3{fill:#BCBCBC;}
	.st4{opacity:0.66;}
	.st5{fill:#FFFFFF;}
	.st6{opacity:0.2;}
	.st7{fill:#2C097D;}
	.st8{fill:#E81F3A;}
	.st9{fill:#34ADEF;}
	.st10{fill:#00EDFA;}
	.st11{fill:#F9DF1D;}
	.st12{opacity:0.82;}
	.st13{fill:#A38F5B;}
	.st14{fill:#C4B383;}
	.st15{fill:#84775A;}
	.st16{fill:#7C6A45;}
	.st17{opacity:0.48;}
	.st18{fill:#4CEA57;}
	.st19{fill:#D0D8D2;}
	.st20{opacity:0.31;}
	.st21{fill:#FFFFFD;}
	.st22{display:none;}
	.st23{display:inline;}
</style>
<path class="st0" d="M132.3,171H44.2c-3.1,0-5.6-2.5-5.6-5.6V46.7c0-3.1,2.5-5.6,5.6-5.6h88.1c3.1,0,5.6,2.5,5.6,5.6v118.7
	C137.9,168.5,135.4,171,132.3,171z"/>
<g>
	<g>
		<g>
			
				<linearGradient id="SVGID_1_" gradientUnits="userSpaceOnUse" x1="-363.8479" y1="584.5088" x2="-387.7918" y2="557.8903" gradientTransform="matrix(-1 0 0 -1 -159.3388 647.2756)">
				<stop  offset="0" style="stop-color:#F0B031"/>
				<stop  offset="1" style="stop-color:#C41754"/>
			</linearGradient>
			<path class="st1" d="M197.1,67.4c3.6,9,13.7,8.6,23.6,10.3c-2.8-9.6-3.7-19.7-13-22.2"/>
			<g>
				<path class="st2" d="M200.5,65.1c0,0,3.7,7.5,13,6.1c0.3-9.4-7.6-12.2-7.6-12.2"/>
			</g>
			<g>
				<path class="st3" d="M191.8,63.9l2.2,4.4c0,0,1.1-0.3,2.7-1c5.2-2.4,9.2-6.9,11-12.4c0.6-1.7,0.7-2.9,0.7-2.9l-4.6-1.6"/>
			</g>
			<g class="st4">
				<g>
					<path class="st5" d="M191.8,63.9l0.3,0.6l11.1-12.5l4.6,1.6c0,0-0.1,0.7-0.4,1.9c0.1-0.2,0.1-0.4,0.2-0.6
						c0.6-1.7,0.7-2.9,0.7-2.9l-4.6-1.6L191.8,63.9z"/>
				</g>
			</g>
			<g class="st6">
				<g>
					<path class="st7" d="M197.7,60.7c0,0,4.7,1,4.7,1.3s-0.8,2.8-1,2.8c-0.3,0-2.4,1.5-2.9,1.5c-0.4,0-2.9,1-2.9,1l-1.8-3.8"/>
				</g>
			</g>
			<g>
				<path class="st5" d="M147.8,15.2c0.1,17.5,21.2,47.1,42,49.3c0.5,0,1,0,1.4-0.2c1.3-0.6,2.5-1.3,3.6-2.1
					c1.6-1.1,3.1-2.4,4.3-3.9c2-2.4,3.6-5.2,4.9-8.4c0.2-0.5,0.2-1,0.1-1.5c-4.7-20.3-36.5-37.8-53.9-35.8
					C148.8,12.8,147.8,13.9,147.8,15.2z"/>
			</g>
			<g>
				<path class="st7" d="M193.9,69.2c0.1,0,0.1,0,0.2,0c0,0,1.2-0.3,2.9-1.1c5.4-2.5,9.6-7.2,11.4-12.9c0.6-1.8,0.7-3,0.7-3
					c0-0.4-0.2-0.8-0.6-0.9l-4.6-1.6l-0.5,1.6l4,1.4c-0.1,0.5-0.3,1.2-0.5,2c-1.7,5.2-5.6,9.5-10.6,11.9c-0.8,0.4-1.5,0.6-1.9,0.8
					l-1.9-3.8l-1.5,0.7l2.2,4.4C193.3,69,193.6,69.2,193.9,69.2z"/>
			</g>
			<g>
				<path class="st7" d="M220.8,78.5c0.2,0,0.5-0.1,0.6-0.3c0.2-0.2,0.3-0.5,0.2-0.8c-0.5-1.6-0.9-3.2-1.3-4.8
					c-2.1-8.1-4-15.7-12.3-18c-0.5-0.1-0.9,0.1-1,0.6c-0.1,0.5,0.1,0.9,0.6,1c7.3,2,9.1,8.8,11.1,16.8c0.3,1.2,0.6,2.4,1,3.6
					c-1.2-0.2-2.5-0.3-3.7-0.5c-8.1-1.1-15.1-2-18-9.1c-0.2-0.4-0.6-0.6-1.1-0.5c-0.4,0.2-0.6,0.6-0.5,1.1c3.2,7.9,11,9,19.3,10.1
					C217.4,78,219,78.2,220.8,78.5C220.6,78.5,220.7,78.5,220.8,78.5z"/>
			</g>
			<g>
				<g>
					<path class="st8" d="M194.2,31.1l0.8,1.2l8.7,12.2c2.6-2,6.1-2.7,9.3-3.9c0.8-0.3,1.6-0.6,2.4-1c1.5-0.7,1.8-2.8,0.4-3.8
						C210.1,31.4,202.7,30.1,194.2,31.1z"/>
				</g>
			</g>
			<g class="st6">
				<g>
					<path class="st7" d="M195.1,32.2l8.7,12.2c2.6-2,6.1-2.7,9.3-3.9l-0.4-0.5c0,0-4.9,2.3-10-2C197.5,33.8,195.1,32.2,195.1,32.2z
						"/>
				</g>
			</g>
			<g class="st4">
				<g>
					<path class="st5" d="M194.2,31.1l0.8,1.2c7.4-0.5,14,1,19.2,4.9c0.9,0.6,1.1,1.8,0.7,2.7c0.1-0.1,0.3-0.1,0.5-0.2
						c1.5-0.7,1.8-2.8,0.4-3.8C210.1,31.4,202.7,30.1,194.2,31.1z"/>
				</g>
			</g>
			<g>
				<g>
					<path class="st8" d="M171.7,56.4c0,1.3,0.1,2.5,0.2,3.8c0.4,4.5,1.5,8.6,3.4,12.1c1,1.9,2.2,3.5,3.7,5c1.2,1.2,3.2,0.8,3.8-0.8
						c1.4-4.1,1.3-8.7,3.4-12.3L171.7,56.4z"/>
				</g>
			</g>
			<g class="st6">
				<g>
					<path class="st7" d="M171.7,56.4c0,1.3,0.1,2.5,0.2,3.8l0.6,1.1c0,0,9.7,1.2,9.7,5.9c0,3.5-4.4,4.7-6.8,5.1
						c1,1.9,2.2,3.5,3.7,5c1.2,1.2,3.2,0.8,3.8-0.8c1.4-4.1,1.3-8.7,3.4-12.3L171.7,56.4z"/>
				</g>
			</g>
			<g>
				<path class="st8" d="M147.8,15.2c0,3.9,1.1,8.4,2.9,13c2.7-1.2,5.4-3.2,7.8-5.8c2.4-2.7,4-5.6,4.9-8.4
					c-4.8-1.3-9.4-1.8-13.2-1.3C148.8,12.8,147.8,13.9,147.8,15.2z"/>
			</g>
			<g class="st6">
				<path class="st7" d="M148.8,14.1c0,3.9,1.1,8.4,2.9,13c6.5,16.3,22.9,34.5,39,36.3c0.5,0,1,0,1.4-0.2c0.2-0.1,0.3-0.1,0.5-0.3
					c0.6-0.3,1.2-0.7,1.8-1.1c0.5-0.3,0.9-0.6,1.3-1c0,0,0,0,0.1,0c2.9-2.4,5.2-5.3,6.9-8.9c0.3-0.7,0.7-1.5,1-2.3
					c-1.7,2.7-3.7,5-6.2,6.8c-1.2-1.5-2.7-3.1-4.5-4.7c-5.2-4.7-10.6-7.2-12-5.7c-1.3,1.5,1.8,6.5,7,11.2c0.6,0.5,1.2,1,1.7,1.4
					c-8.8-1.8-17.6-8.2-24.7-16.3c3.5,2.4,8.4,1.8,11.2-1.5c3.1-3.6,2.9-9.1-0.7-12.2c-3.6-3.2-9.1-2.9-12.2,0.7
					c-2.2,2.5-2.7,6-1.6,8.9c-3.8-5-6.8-10.4-8.9-15.6c-1.5-3.8-2.5-7.4-2.8-10.8c-0.1,0-0.1,0-0.2,0c-0.1,0-0.3,0-0.4,0.1
					C149.1,12.6,148.7,13.3,148.8,14.1z"/>
			</g>
			<g class="st4">
				<g>
					<path class="st5" d="M147.8,15.2L147.8,15.2c0.4-0.6,1.1-1,1.9-1.1c17.4-2,49.2,15.5,53.9,35.8c0.1,0.3,0.1,0.5,0.1,0.8
						c0.1-0.3,0.2-0.5,0.3-0.8c0.2-0.5,0.2-1,0.1-1.5c-4.8-20.3-36.5-37.8-53.9-35.8C148.8,12.8,147.8,13.9,147.8,15.2z"/>
				</g>
			</g>
			<g>
				<path class="st7" d="M189.7,65.4c-9.7-1-20.4-8.1-29.3-19.3C152.1,35.8,147,24,147,15.2c0-1.8,1.3-3.2,3.1-3.5
					c8.7-1,21.1,2.7,32.2,9.6c12.1,7.5,20.4,17.3,22.6,26.8c0.1,0.7,0.1,1.4-0.1,2c-2.7,7-7.1,12-13.2,14.8
					c-0.5,0.2-0.9,0.3-1.5,0.3C190,65.4,189.8,65.4,189.7,65.4z M150.3,13.4c-0.9,0.1-1.6,0.9-1.6,1.8c0,8.4,5,19.8,13.1,29.8
					c8.7,10.8,18.9,17.6,28.2,18.6l0,0c0.3,0,0.7,0,1-0.1c5.7-2.7,9.8-7.2,12.3-13.9c0.1-0.3,0.1-0.7,0.1-1
					c-2.1-9.1-10.1-18.5-21.8-25.8c-9.7-6.1-20.3-9.5-28.3-9.5C152.1,13.3,151.1,13.3,150.3,13.4z"/>
			</g>
			<g>
				<g>
					<path class="st7" d="M203.8,45.2c0.2,0,0.3,0,0.5-0.2c1.9-1.5,4.2-2.2,6.7-3c1.6-0.5,3.3-1,4.9-1.8c1-0.5,1.6-1.4,1.7-2.5
						c0.1-1.1-0.3-2.1-1.2-2.7c-5.7-4.3-13-5.9-22.3-4.9c-0.4,0-0.8,0.5-0.7,0.9c0,0.4,0.5,0.8,0.9,0.7c8.9-1,15.7,0.5,21.1,4.5
						c0.4,0.3,0.6,0.8,0.6,1.3c0,0.5-0.3,1-0.8,1.2c-1.5,0.7-3.1,1.2-4.7,1.7c-2.5,0.8-5.2,1.6-7.2,3.2c-0.3,0.3-0.4,0.8-0.1,1.1
						C203.3,45.1,203.5,45.2,203.8,45.2z"/>
				</g>
			</g>
			<g>
				<g>
					<path class="st7" d="M180.5,78.9c0.2,0,0.5,0,0.7-0.1c1-0.2,1.9-1,2.2-2c0.5-1.7,0.9-3.4,1.2-5c0.5-2.6,0.9-5,2.2-7
						c0.2-0.4,0.1-0.9-0.3-1.1c-0.4-0.2-0.9-0.1-1.1,0.3c-1.4,2.2-1.9,5-2.4,7.5c-0.3,1.6-0.6,3.3-1.1,4.9c-0.1,0.5-0.5,0.8-1,1
						c-0.5,0.1-1,0-1.3-0.4c-4.6-4.8-6.9-11.5-7-20.4c0-0.5-0.4-0.8-0.8-0.8c-0.5,0-0.8,0.4-0.8,0.8c0.1,9.3,2.5,16.4,7.5,21.5
						C178.9,78.6,179.7,78.9,180.5,78.9z"/>
				</g>
			</g>
			<g>
				<circle class="st8" cx="171.2" cy="33.6" r="8.7"/>
			</g>
			<g class="st4">
				<g>
					<path class="st5" d="M164.1,28.6c3.2-3.3,8.5-3.6,12-0.5c3.3,3,3.8,8,1.3,11.5c0.1-0.1,0.1-0.1,0.2-0.3
						c3.1-3.6,2.9-9.1-0.7-12.3c-3.6-3.1-9.1-2.9-12.2,0.7C164.5,28.1,164.3,28.4,164.1,28.6z"/>
				</g>
			</g>
			<g>
				<circle class="st9" cx="171.2" cy="33.6" r="5.2"/>
			</g>
			<g class="st6">
				<g>
					<path class="st7" d="M166.7,31.1c1.9-1.5,4.7-1.4,6.5,0.3c1.9,1.6,2.2,4.3,1.1,6.3c0.3-0.2,0.5-0.4,0.7-0.7
						c1.9-2.1,1.7-5.4-0.4-7.2c-2.1-1.9-5.4-1.7-7.3,0.4C167.1,30.5,166.9,30.8,166.7,31.1z"/>
				</g>
			</g>
			<g class="st4">
				<g>
					<path class="st5" d="M167,38.6c2.1,1.9,5.4,1.7,7.2-0.4c0.3-0.3,0.5-0.7,0.7-1.1c-1.9,2-5.1,2.2-7.2,0.3
						c-1.8-1.6-2.2-4.1-1.2-6.2c0,0,0,0.1-0.1,0.1C164.6,33.5,164.8,36.7,167,38.6z"/>
				</g>
			</g>
			<g>
				<path class="st7" d="M165,40.6L165,40.6c-3.8-3.4-4.2-9.3-0.8-13.1c1.7-1.9,3.9-3,6.4-3.1c2.5-0.1,4.9,0.7,6.7,2.4
					c1.9,1.7,3,3.9,3.1,6.4c0.1,2.5-0.7,4.9-2.4,6.7c-1.7,1.9-3.9,3-6.4,3.1c-0.2,0-0.4,0-0.6,0C168.9,42.9,166.7,42.1,165,40.6z
					 M170.7,25.6c-2.2,0.1-4.1,1.1-5.5,2.7c-2.9,3.3-2.6,8.4,0.6,11.3l0,0c1.6,1.4,3.7,2.1,5.8,2c2.2-0.1,4.1-1.1,5.5-2.7
					s2.1-3.7,2-5.8c-0.1-2.2-1.1-4.1-2.7-5.5c-1.5-1.3-3.3-2-5.3-2C171,25.6,170.9,25.6,170.7,25.6z"/>
			</g>
			<g>
				<path class="st7" d="M167.3,37.9L167.3,37.9c-1.2-1-1.9-2.4-1.9-4c-0.1-1.5,0.4-3.1,1.5-4.2s2.4-1.9,4-1.9
					c1.5-0.1,3.1,0.4,4.2,1.5c2.4,2.1,2.6,5.8,0.5,8.2c-1.2,1.3-2.7,1.9-4.3,1.9C169.8,39.4,168.5,38.9,167.3,37.9z M170.9,29.1
					c-1.2,0.1-2.3,0.6-3.1,1.5c-0.8,0.9-1.2,2-1.1,3.3c0.1,1.2,0.6,2.3,1.5,3.1l0,0c1.9,1.7,4.7,1.5,6.3-0.4c0.8-0.9,1.2-2,1.1-3.3
					c-0.1-1.2-0.6-2.3-1.5-3.1c-0.8-0.7-1.9-1.1-3-1.1C171.1,29.1,171,29.1,170.9,29.1z M167.8,37.5L167.8,37.5L167.8,37.5z"/>
			</g>
			<g>
				
					<ellipse transform="matrix(0.664 -0.7477 0.7477 0.664 25.2811 161.9417)" class="st8" cx="192.8" cy="52.8" rx="3.7" ry="12.7"/>
			</g>
			<g class="st6">
				<g>
					<path class="st7" d="M194.5,61.9C194.5,61.9,194.5,61.9,194.5,61.9c0.5-0.3,0.9-0.6,1.3-1C195.4,61.2,195,61.5,194.5,61.9z"/>
				</g>
			</g>
			<g class="st6">
				<g>
					<path class="st7" d="M190.4,55.6c5.2,4.7,10.6,7.2,12,5.7c0.2-0.3,0.3-0.6,0.3-1.1c-2.2,0.1-6.6-2.3-10.9-6.1
						c-4.3-3.8-7.2-7.9-7.4-10.1c-0.5,0-0.8,0.2-1.1,0.5C182,46,185.1,51,190.4,55.6z"/>
				</g>
			</g>
			<g class="st4">
				<g>
					<path class="st5" d="M183.1,45c2.2-0.2,6.6,2.2,11,6.1c4.7,4.2,7.7,8.7,7.3,10.7c0.4,0,0.7-0.2,1-0.4c1.4-1.5-1.8-6.5-7-11.2
						c-5.2-4.7-10.6-7.2-12-5.7C183.2,44.6,183.1,44.7,183.1,45z"/>
				</g>
			</g>
			<g>
				<path class="st7" d="M197.5,61.5c-2.4-1.1-5-3-7.6-5.3c-5-4.5-9.1-10.2-7.1-12.4c2-2.2,8.1,1.1,13.2,5.6c2.6,2.3,4.8,4.8,6.2,7
					c2,3.1,1.6,4.7,1,5.4c-0.3,0.4-0.9,0.7-1.9,0.7C200.2,62.6,199,62.3,197.5,61.5z M184,45c-0.6,0.7,1.2,4.9,7,10l0,0
					c2.5,2.2,5,4,7.2,5c2.2,1,3.3,1,3.5,0.7c0.2-0.3,0.1-1.4-1.1-3.4c-1.3-2-3.3-4.4-5.9-6.6c-4.8-4.2-8.7-5.9-10.2-5.9
					C184.3,44.8,184.1,44.8,184,45z"/>
			</g>
			<g>
				<path class="st7" d="M150.7,29c0.1,0,0.2,0,0.3-0.1c2.9-1.3,5.7-3.4,8.1-6.1c2.4-2.7,4.1-5.7,5-8.7c0.1-0.5-0.1-0.9-0.5-1
					c-0.5-0.1-0.9,0.1-1,0.5c-0.9,2.8-2.5,5.6-4.7,8.1c-2.2,2.5-4.8,4.4-7.5,5.6c-0.4,0.2-0.6,0.7-0.4,1.1
					C150.1,28.8,150.4,29,150.7,29z"/>
			</g>
		</g>
		<g>
			<g>
				<path class="st10" d="M45,221.6c0,4.5-5,8.7-8.9,7.4"/>
			</g>
			<g>
				<path class="st10" d="M52.2,209.9c2,4.2-0.8,7.3-4.2,7.9"/>
			</g>
			<g>
				<path class="st10" d="M22.7,234.2c3.8,2.8,7.3,0.6,8.6-2.7"/>
			</g>
			<g>
				<path class="st11" d="M54.1,204.9c-5.6,17.8-17.6,27.7-36.1,29.8"/>
			</g>
			<g>
				<path class="st10" d="M39.1,223.6c2.9-2.5,5.4-4.9,7.5-7.2c16.8-18.5,5-28.1-11.1-18.7l-20.3,16.8l-0.9,0.7
					C0.7,230.9,11.3,245.8,39.1,223.6z"/>
			</g>
			<g class="st4">
				<path class="st5" d="M46.3,198.8c0,0,3.2,1.7,1,6.8c-2.2,5-6.1,10.2-8.5,9.5c-2.4-0.7,1.9-4,3-8.1c1.1-4.1,1.2-8.1,2.9-7.8"/>
			</g>
			<g class="st6">
				<path class="st7" d="M39.1,223.6c2.9-2.5,5.4-4.9,7.5-7.2c-14.1,11-33.8,16.1-35.5,11.6c-1.8-4.5,4.2-10.8,4.2-10.8l0-2.8
					l-0.9,0.7C0.7,230.9,11.3,245.8,39.1,223.6z"/>
			</g>
			<g class="st12">
				<path class="st5" d="M9.8,222.1c1-1.8,2.3-3.8,3.9-5.7l21.2-17.5c12.9-7.5,23-2.8,17.9,8.9c6.4-12.6-3.9-17.9-17.3-10.1
					l-21.1,17.5C12.3,217.5,10.8,219.9,9.8,222.1z"/>
			</g>
			<g>
				<path class="st7" d="M49.9,207c0.1,0,0.3-0.1,0.3-0.2c0.1-0.2,0-0.4-0.2-0.5c-5.5-2.5-10.3-1.8-10.5-1.8c-0.2,0-0.4,0.2-0.3,0.4
					c0,0.2,0.2,0.4,0.4,0.3c0.1,0,4.8-0.7,10.1,1.7C49.8,206.9,49.9,207,49.9,207z"/>
			</g>
			<g>
				
					<ellipse transform="matrix(9.497080e-02 -0.9955 0.9955 9.497080e-02 -156.2317 225.7467)" class="st11" cx="46" cy="198.8" rx="0.9" ry="1.4"/>
			</g>
			<g>
				
					<ellipse transform="matrix(9.497034e-02 -0.9955 0.9955 9.497034e-02 -212.4151 217.7121)" class="st11" cx="13.5" cy="225.7" rx="1.4" ry="0.9"/>
			</g>
			<g>
				<ellipse class="st11" cx="34.6" cy="218" rx="1.3" ry="1.3"/>
			</g>
			<g>
				<path class="st7" d="M45.9,200.1L45.9,200.1c-0.5,0-0.9-0.2-1.2-0.4c-0.4-0.3-0.6-0.6-0.5-1c0.1-0.7,0.9-1.2,1.9-1.1
					c0.5,0,0.9,0.2,1.2,0.4c0.4,0.3,0.6,0.6,0.5,1c-0.1,0.6-0.8,1.1-1.7,1.1C46.1,200.1,46,200.1,45.9,200.1z M45,198.7
					c0,0.1,0.1,0.2,0.2,0.3c0.2,0.1,0.5,0.2,0.8,0.3l0,0c0.6,0.1,1.1-0.2,1.1-0.4c0-0.1-0.1-0.2-0.2-0.3c-0.2-0.1-0.5-0.2-0.8-0.3
					c-0.1,0-0.1,0-0.2,0C45.3,198.3,45,198.5,45,198.7z"/>
			</g>
			<g>
				<path class="st11" d="M28.4,217.3c-4.7,2.8-7.6,3.4-9.3,3.4c-0.9,0-1.8-0.4-2.4-1.2c-3.2-4.3-3.5-8.5-2.8-11.9
					c1.4-6.8,7.4-11.8,14.4-11.9c3.5-0.1,7.5,1.1,11.1,5c0.6,0.7,0.9,1.6,0.7,2.5c-0.3,1.6-1.5,4.5-5.1,8.5
					C33,213.9,30.8,215.8,28.4,217.3z"/>
			</g>
			<g class="st4">
				<path class="st5" d="M14.3,205.9c1.9-4,5.6-7,9.9-8.1c2.5,1,5.1,1.1,7.6,0.1c2.3,0.7,4.6,2,6.8,4.4c0.6,0.7,0.9,1.6,0.7,2.5
					c-0.1,0.3-0.1,0.6-0.2,0.9c0.5-1,0.8-1.9,0.9-2.5c0.2-0.9-0.1-1.9-0.7-2.5c-3.7-3.9-7.6-5.1-11.1-5
					C21.9,195.8,16.3,200,14.3,205.9z"/>
			</g>
			<g class="st6">
				<path class="st7" d="M16.7,219.5c0.6,0.7,1.4,1.2,2.4,1.2c1.7,0,4.7-0.6,9.3-3.4c2.4-1.5,4.7-3.3,6.6-5.5
					c1.9-2.1,3.1-3.8,3.9-5.3c-14.2,16.6-25.4,7.8-23.2-3.5c-0.8,1.4-1.4,2.9-1.8,4.6C13.2,211.1,13.5,215.2,16.7,219.5z"/>
			</g>
			<g>
				<path class="st7" d="M16.2,219.9c-2.9-3.9-3.8-8.1-2.9-12.4c1.4-7.1,7.8-12.3,15-12.4c4.4-0.1,8.3,1.7,11.6,5.2
					c0.8,0.8,1.1,2,0.9,3.1c-0.4,1.8-1.6,4.7-5.3,8.8c-2,2.2-4.2,4-6.8,5.6l0,0c-4.7,2.9-7.8,3.5-9.6,3.6c0,0,0,0-0.1,0
					C17.9,221.4,16.8,220.8,16.2,219.9z M34.5,211.4c3.5-3.9,4.7-6.6,5-8.2c0.1-0.7-0.1-1.4-0.6-2c-3-3.2-6.6-4.9-10.7-4.8
					c-6.6,0.1-12.4,4.9-13.8,11.4c-0.8,4,0.1,7.8,2.7,11.4c0.4,0.6,1.1,0.9,1.8,0.9c1.6,0,4.5-0.6,9-3.3
					C30.4,215.3,32.6,213.5,34.5,211.4z"/>
			</g>
			<g>
				<path class="st7" d="M20.4,231.4C20.4,231.4,20.4,231.4,20.4,231.4c0.3-0.1,0.4-0.2,0.4-0.5c-1.4-5.6,0.2-10.2,0.2-10.2
					c0.1-0.2,0-0.4-0.2-0.5c-0.2-0.1-0.4,0-0.5,0.2c-0.1,0.2-1.6,4.8-0.2,10.6C20,231.3,20.2,231.4,20.4,231.4z"/>
			</g>
			<g>
				<path class="st7" d="M13.3,227.5c-0.7-0.1-1.2-0.9-1.1-1.9c0-0.5,0.2-0.9,0.4-1.2c0.3-0.4,0.6-0.6,1-0.5
					c0.7,0.1,1.2,0.9,1.1,1.9l0,0c0,0.5-0.2,0.9-0.4,1.2C14.1,227.3,13.8,227.5,13.3,227.5C13.4,227.5,13.4,227.5,13.3,227.5z
					 M14,225.7c0.1-0.6-0.2-1.1-0.4-1.1c-0.1,0-0.2,0.1-0.3,0.2c-0.1,0.2-0.2,0.5-0.3,0.8c-0.1,0.6,0.2,1.1,0.4,1.1
					c0.1,0,0.2-0.1,0.3-0.2C13.9,226.4,14,226,14,225.7L14,225.7z"/>
			</g>
			<g>
				<path class="st7" d="M15.9,235.5c5.3,0,13.1-3,23.6-11.4c15.7-13.4,17.9-23,14.6-27.6c-3.1-4.3-10.9-4.1-19,0.6
					c-0.3,0.2-0.4,0.6-0.2,0.9c0.2,0.3,0.6,0.4,0.9,0.2c7.5-4.3,14.6-4.7,17.3-1c2.7,3.9,0.6,13-14.4,25.8
					c-15.4,12.3-24.8,12.7-28.1,9.2c-3.2-3.3-1.5-10.2,4.2-16.8c0.2-0.3,0.2-0.7-0.1-0.9c-0.3-0.2-0.7-0.2-0.9,0.1
					c-6.1,7.1-7.8,14.7-4.2,18.5C11.1,234.6,13.1,235.5,15.9,235.5z"/>
			</g>
			<g>
				<path class="st7" d="M14,233.2c1.7,0,3.6-0.3,5.6-1c5.2-1.6,11.3-5.1,18-10.5c6.5-5.5,11.1-10.8,13.7-15.7
					c2.3-4.3,2.8-8.1,1.5-10.9c-0.1-0.3-0.5-0.5-0.9-0.3c-0.3,0.1-0.5,0.5-0.3,0.9c2,4.3-0.9,13.1-14.9,25
					c-14.3,11.5-23.5,12.6-27.3,9.9c-0.2-0.2-0.6-0.2-0.8,0c-0.3,0.2-0.3,0.6-0.1,0.9l0,0c0,0,0.1,0.1,0.1,0.1
					C10.1,232.7,11.9,233.2,14,233.2z"/>
			</g>
			<g>
				<path class="st7" d="M34.4,219.8c-0.5,0-0.9-0.2-1.1-0.6l0,0c-0.6-0.7-0.5-1.8,0.2-2.4c0.7-0.6,1.8-0.5,2.4,0.2
					c0.6,0.7,0.5,1.8-0.2,2.4c-0.3,0.2-0.7,0.4-1.1,0.4C34.5,219.8,34.4,219.8,34.4,219.8z M34,217.3c-0.4,0.3-0.5,0.9-0.1,1.3l0,0
					c0.3,0.4,0.9,0.5,1.3,0.1c0.4-0.3,0.5-0.9,0.1-1.3c-0.2-0.2-0.5-0.3-0.7-0.3C34.3,217.1,34.1,217.2,34,217.3z M33.5,218.9
					L33.5,218.9L33.5,218.9z"/>
			</g>
			<g>
				<path class="st7" d="M17.9,235.4C17.9,235.4,18,235.4,17.9,235.4c9.4-1.1,17.2-4.2,23.3-9.2c6.1-5,10.6-12.1,13.4-21.1
					c0.1-0.3-0.1-0.7-0.4-0.8c-0.3-0.1-0.7,0.1-0.8,0.4C47.9,222.1,36,232,17.8,234.1c-0.3,0-0.6,0.4-0.6,0.7
					C17.3,235.1,17.6,235.4,17.9,235.4z"/>
			</g>
			<g>
				<path class="st7" d="M37.7,229.9c1.4,0,3-0.5,4.3-1.5c2.3-1.6,3.7-4.2,3.7-6.7c0-0.3-0.3-0.6-0.6-0.6l0,0
					c-0.4,0-0.6,0.3-0.6,0.6c0,2.1-1.2,4.3-3.1,5.7c-1.6,1.2-3.4,1.6-5,1.1c-0.3-0.1-0.7,0.1-0.8,0.4c-0.1,0.3,0.1,0.7,0.4,0.8
					C36.5,229.8,37.1,229.9,37.7,229.9z"/>
			</g>
			<g>
				<path class="st7" d="M48,218.4C48,218.4,48.1,218.4,48,218.4c2.2-0.3,4.1-1.6,4.9-3.2c0.6-1.1,1.1-3-0.1-5.5
					c-0.1-0.3-0.5-0.5-0.9-0.3c-0.3,0.1-0.5,0.5-0.3,0.9c0.8,1.6,0.8,3.1,0.1,4.4c-0.7,1.3-2.2,2.3-3.9,2.6
					c-0.3,0.1-0.6,0.4-0.5,0.7C47.4,218.2,47.7,218.4,48,218.4z"/>
			</g>
			<g>
				<path class="st7" d="M26.2,236.2c0.6,0,1.1-0.1,1.6-0.2c1.8-0.6,3.4-2.1,4.1-4.2c0.1-0.3-0.1-0.7-0.4-0.8
					c-0.3-0.1-0.7,0.1-0.8,0.4c-0.6,1.7-1.8,2.9-3.3,3.3c-1.4,0.4-2.9,0.1-4.3-1c-0.3-0.2-0.7-0.1-0.9,0.1c-0.2,0.3-0.1,0.7,0.1,0.9
					C23.8,235.8,25.1,236.2,26.2,236.2z"/>
			</g>
			<g class="st4">
				<path class="st5" d="M28.9,207.9c2.6,1.3,5.8,0.1,6.8-2.6c0.5-1.3,0.5-2.9-1.5-3.8c-4-1.9-9.8-1.9-10.6,0
					C23.1,202.7,25.7,206.4,28.9,207.9z"/>
			</g>
		</g>
		<g>
			<g>
				<path class="st13" d="M86.7,43.4L86.7,43.4c-0.2,0.4-6.3,13.2-14.4,21.3C64,73,51.5,74.8,40.2,73.4c-11.3-1.4-19.1,2.5-19.1,2.5
					c-5.2-4.2-9.2-9.6-11.9-15.8C9.5,60.1,21.4,63,33.8,56C46.3,48.9,56.1,35.4,65,34.8c8.8-0.6,18.4-5.7,18.7-5.8
					C85.5,33.4,86.5,38.3,86.7,43.4z"/>
			</g>
			<g>
				<path class="st13" d="M83.6,29c-0.3,0.2-9.9,5.2-18.7,5.8C56.1,35.4,46.2,48.9,33.7,56c-12.4,7-24.3,4.1-24.6,4.1
					c-1.8-4.3-2.8-8.9-3.1-13.7c-0.1-0.6-0.1-1.2-0.1-1.8c0-4.3,0.7-8.5,1.9-12.3c0.3,0.6,11.6,0.8,18.6-4.3
					c7.3-5.2,14.3-5.3,23.5-7.6c9.2-2.2,13.3-12.4,13.3-12.4c3.7,1.7,7.1,3.9,10.1,6.7l0,0c1.5,1.3,2.7,2.7,3.9,4.1l0.1,0.1l0,0
					c1.5,1.7,2.7,3.6,3.9,5.6l0,0C82.2,25.8,82.9,27.4,83.6,29C83.6,29,83.6,29,83.6,29z"/>
			</g>
			<g>
				<path class="st14" d="M63.3,7.9c0,0-4.1,10.2-13.3,12.4s-16.3,2.4-23.5,7.6c-6.9,5-18.3,4.9-18.6,4.3c0-0.1,0-0.1,0.1-0.1l0,0
					c1.3-4,3.2-7.8,5.7-11.2l0,0l0,0C21,10.8,32.9,4.2,46.4,4.2c2.4,0,4.6,0.2,6.9,0.6c1.9,0.3,3.7,0.8,5.5,1.3
					C60.3,6.6,61.9,7.2,63.3,7.9z"/>
			</g>
			<g>
				<path class="st14" d="M86.7,44.5c0,4.5-0.7,8.7-2,12.7v0.1c-1.5,4.7-3.9,9-7,12.8c0,0,0,0-0.1,0.1l0,0
					c-7.4,9-18.7,14.8-31.2,14.8c-3.6,0-7-0.5-10.3-1.3l0,0l0,0c-3.4-0.9-6.7-2.2-9.7-4c0,0-0.1,0-0.1-0.1c-1.9-1.1-3.6-2.3-5.3-3.6
					l0,0c0,0,7.8-3.9,19.1-2.5c11.3,1.5,23.8-0.4,32.1-8.6c8.2-8.2,14.3-21,14.4-21.3v0.1C86.7,43.8,86.7,44.1,86.7,44.5z"/>
			</g>
			<g>
				<path class="st14" d="M83.6,29L83.6,29c-0.3,0.2-9.9,5.2-18.7,5.8C56.1,35.4,46.2,48.9,33.7,56c-12.4,7-24.3,4.1-24.6,4.1l0,0
					c-3.9-6-3.1-13.7-3.1-13.7S19,46,29,44.6S50.6,37.1,58.8,29c8.1-8.1,14.7-14.4,14.7-14.4l0,0l3.9,4.1l0.1,0.1l0,0
					c-3.6,6.4-0.1,6.2,3.9,5.6l0,0L83.6,29L83.6,29z"/>
			</g>
			<g>
				<path class="st15" d="M84.7,57.2L84.7,57.2c-1.5,4.5-3.9,8.8-7,12.8c0,0,0,0-0.1,0.1l0,0c-11.6,7.8-24.7,13.2-41.5,13.5l0,0l0,0
					c-3.5-1.1-6.8-2.4-9.7-4c0,0-0.1,0-0.1-0.1c-1.9-1.1-3.8-2.2-5.3-3.6l0,0c0,0,7.8-3.9,19.1-2.5c11.3,1.5,23.8-0.4,32.1-8.6
					c8.2-8.2,14.3-21,14.4-21.3l0,0l0,0v0.1c0,0.4,0,0.7,0,1.1c0,0.1,0,0.1,0,0.2C86.7,49,86,53.2,84.7,57.2z"/>
			</g>
			<g>
				<path class="st16" d="M63.3,7.9c0,0-4.1,10.2-13.3,12.4s-16.3,2.4-23.5,7.6c-6.9,5-18.3,4.9-18.6,4.3c0-0.1,0-0.1,0.1-0.1l0,0
					c0.7-0.8,5.4-10.6,5.7-11.2l0,0l0,0l0,0c0.1,0.2,3.2,4.7,12.9,0c9.9-4.8,15.3-4.2,19.8-8.6c3.4-3.4,5.9-6.2,6.9-7.4
					c0.3-0.4,0.5-0.6,0.5-0.6l5,2L63.3,7.9z"/>
			</g>
			<g class="st6">
				<path class="st7" d="M84.6,43.2c0,22.3-18.1,40.3-40.3,40.3c-7.4,0-14.3-2-20.3-5.5c-0.8-0.5-1.5-1.1-2.3-1.7
					c-1.4-1.3-2.6-2.8-3.8-4.3c-0.2-0.3-0.4-0.5-0.6-0.8c1.1,0.9,2.2,1.8,3.4,2.6c5.6,3.8,12.2,5.9,19.2,5.9
					c20.4,0,36.9-18.2,36.9-40.8c0-10.9-3.9-20.8-10.2-28.1c1.3,0.6,2.5,1.2,3.8,1.9c0.8,0.5,1.5,1,2.2,1.6
					C80,21.8,84.6,32,84.6,43.2z"/>
			</g>
			<g>
				<path class="st14" d="M52.9,62.2c-0.5,0.2-1.1,0.1-1.5-0.3c-0.6-0.5-0.9-1.9,1-4.8c3.3-5,6-8.4,10.8-9.8c4.8-1.4,7.5-3.4,8.5-1
					c1,2.4-5.6,7.7-9.3,10.8C59,60,54.4,61.8,52.9,62.2z"/>
			</g>
			<g class="st4">
				<g>
					<path class="st5" d="M75.8,17C68.6,10.2,58.9,6.1,48.3,6.1C26,6.1,7.9,24.2,7.9,46.5C7.9,57.1,12,66.8,18.8,74
						C10.9,66.6,6,56.1,6,44.5C6,22.2,24.1,4.2,46.3,4.2c11,0,21.1,4.5,28.3,11.6C75.1,16.2,75.4,16.6,75.8,17z"/>
				</g>
			</g>
			<g>
				<path class="st7" d="M46.3,86c-9.3,0-18.1-3-25.4-8.6C10.7,69.5,4.8,57.5,4.8,44.6c0-22.9,18.6-41.5,41.5-41.5
					c11,0,21.3,4.2,29.1,12c8,7.8,12.4,18.3,12.4,29.5C87.9,67.4,69.3,86,46.3,86z M46.3,5.3C24.7,5.3,7.1,22.9,7.1,44.5
					c0,12.2,5.6,23.5,15.2,31c6.9,5.3,15.2,8.2,24,8.2c21.6,0,39.2-17.6,39.2-39.2c0-10.6-4.1-20.5-11.6-27.9
					C66.5,9.3,56.7,5.3,46.3,5.3z"/>
			</g>
			<g class="st17">
				<g>
					<path class="st5" d="M31.2,39.1c-3.3,11.3-6.3,20.4-10.9,19.1c-4.5-1.3-7.8-12.2-4.5-23.6s11.9-18.8,16.4-17.5
						C36.8,18.4,34.5,27.7,31.2,39.1z"/>
				</g>
			</g>
		</g>
		<g>
			<g>
				<circle class="st10" cx="116" cy="120.9" r="67.3"/>
			</g>
			<g class="st4">
				<g>
					<path class="st5" d="M125.9,74.5c6,8.8-4.9,16.2-21.7,27.6c-16.8,11.4-33.1,22.3-39.1,13.5c-6-8.8,2.8-25.2,19.6-36.6
						C101.4,67.8,119.9,65.7,125.9,74.5z"/>
				</g>
			</g>
			<g>
				<path class="st18" d="M51.9,141.8c0,0,3,3.1,8.6,2.2c5.6-1,7.2,3.5,6.4,9.3c-0.8,5.9-7.1,5-7.1,5"/>
			</g>
			<g>
				<path class="st18" d="M67.7,74c0,0,13.3,5.9,9.2,18.2c-4.1,12.3-13.3,5.9-14.4,21c-1.1,15.2-13.7,11.9-13.7,11.9
					C49.1,105.8,53.4,88,67.7,74z"/>
			</g>
			<g class="st6">
				<path class="st7" d="M76.8,92.2c-4.1,12.3-13.3,5.9-14.4,21c-1.1,15.2-13.7,11.9-13.7,11.9c0-1,0.1-1.9,0.1-2.8
					c3.7,0.1,10.4-1.3,11.2-12.2c1.1-15.2,10.3-8.7,14.4-21c1.5-4.4,0.7-8-0.9-10.9C76.5,81.2,79,85.8,76.8,92.2z"/>
			</g>
			<g>
				<path class="st18" d="M129.7,187c0-4.2-0.2-13.9-4.1-19.3c-3.9-5.4-3.3-7.8-5.6-12.9c-2.3-5.1-8.5-5.1-13.8-0.8
					c-5.3,4.4-10.7,4.9-15.5,3.5c-4.8-1.4-7.5,2.9-12,6.5c-4.5,3.6-2.2,11.6-2.2,11.6L87,182c0,0,8.5,3.7,11.4,0.8
					c2.9-2.9,7.6-1.1,9.2,5.2"/>
			</g>
			<g class="st4">
				<g>
					<path class="st5" d="M128.6,174.6c-0.5-1.5-1.2-2.8-2.1-4c-3.9-5.4-3.3-7.8-5.6-12.9c-2.3-5.1-8.5-5.1-13.8-0.8
						c-5.3,4.4-10.7,4.9-15.5,3.5c-4.8-1.4-7.5,2.9-12,6.5c-2.8,2.2-2.9,6.2-2.7,8.8l-0.4-0.3c0,0-2.3-7.9,2.2-11.6
						c4.5-3.6,7.2-7.9,12-6.5c4.8,1.4,10.3,0.9,15.5-3.5s11.5-4.4,13.7,0.8c2.3,5.1,1.7,7.5,5.6,12.9
						C127,169.6,128,172.1,128.6,174.6z"/>
				</g>
			</g>
			<g class="st6">
				<path class="st7" d="M183.4,120.9c0,37.2-30.2,67.3-67.3,67.3c-35.9,0-65.2-28-67.3-63.4c7.2,28,32.7,48.7,63,48.7
					c35.9,0,65.1-29.2,65.1-65.1c0-9-1.8-17.5-5.1-25.4C179.1,93.9,183.4,107,183.4,120.9z"/>
			</g>
			<g>
				<path class="st18" d="M177.1,92.4c0.7,6.6-6.9,15.1-6.2,26.5c0.7,11.5,1.4,24.3-6.4,28s-10.3-6.6-12.4-17.4s-9.3-12.7-13-19.8
					c-3.6-7.1-22-4.4-24.9-11.4c-2.9-6.9,2.5-15.4,8.5-17s4.1-3.9,9.6-5.7c5.5-1.9,10.9-1.5,9.6-6.2c-1.3-4.8-10.5,1.1-11.9-2.5
					c-1.4-3.5-6.6-2.2-9.8-5.5s0.8-7.6,0.8-7.6C144.5,55.1,163.2,68,177.1,92.4z"/>
			</g>
			<g class="st6">
				<path class="st7" d="M136,103.3c3.4,6.8,10.1,8.9,12.6,18.2c-3.1-4.4-7.1-6.9-9.6-11.7c-3.6-7.2-22-4.4-24.9-11.4
					c-0.5-1.3-0.8-2.6-0.8-4C119.1,98.2,132.9,97.1,136,103.3z"/>
			</g>
			<g class="st6">
				<path class="st7" d="M170.8,118.9c0.7,11.5,1.4,24.3-6.4,28c-5.5,2.6-8.3-1.7-10.3-8.1c1.8,2.3,4.1,3.2,7.3,1.7
					c7.8-3.6,7.1-16.5,6.4-28c-0.7-10.6,5.8-18.6,6.2-25c1,1.6,2,3.2,2.9,4.9C177.7,99,170.1,107.5,170.8,118.9z"/>
			</g>
			<g class="st4">
				<g>
					<path class="st5" d="M144.5,71.5c1.3,4.8-4,4.4-9.6,6.2c-5.5,1.9-3.6,4.2-9.6,5.7c-6,1.6-11.4,10.1-8.5,17
						c0.1,0.4,0.4,0.7,0.6,1c-1.5-0.8-2.7-1.7-3.3-3.1c-2.9-6.9,2.5-15.4,8.5-17c6-1.6,4.1-3.9,9.6-5.7c5.5-1.9,10.7-1.5,9.6-6.1
						C143.2,69.6,144.2,70.1,144.5,71.5z"/>
				</g>
			</g>
			<g class="st4">
				<g>
					<path class="st5" d="M170.4,81.2c-12.3-14.4-30.7-23.4-51.1-23.4C82,57.8,51.9,88,51.9,125.1c0,14.9,4.8,28.6,13,39.8
						c-10.2-11.8-16.3-27.1-16.3-43.9c0-37.2,30.2-67.3,67.3-67.3C138.4,53.6,158.1,64.5,170.4,81.2z"/>
				</g>
			</g>
			<g>
				<path class="st7" d="M116,189.8c-37.9,0-68.8-30.9-68.8-68.8S78.1,52.2,116,52.2s68.7,30.9,68.7,68.8S153.9,189.8,116,189.8z
					 M116,55c-36.4,0-66,29.6-66,66s29.6,66,66,66s66-29.6,66-66S152.4,55,116,55z"/>
			</g>
			<g>
				<path class="st7" d="M161.5,149c-1,0-1.9-0.2-2.8-0.7c-4.5-2.2-6.4-10.1-8-18.6c-1.2-6.2-4.2-9.2-7.2-12.3
					c-2-2.1-4.1-4.2-5.6-7.1c-1.5-3-6.8-4-11.9-5.1c-5.6-1.1-11.4-2.2-13.1-6.4c-1.4-3.4-1.2-7.3,0.7-11c1.9-3.9,5.3-6.8,8.7-7.7
					c2.8-0.7,3.6-1.6,4.5-2.6c1-1,2.1-2.2,5.1-3.1c1.4-0.4,2.8-0.8,4-1.1c2.1-0.5,4.1-1,4.6-1.9c0.1-0.1,0.3-0.5,0-1.7
					c-0.3-1.2-1.7-1.2-4.9-0.7c-2.6,0.4-5.9,1-6.9-1.7c-0.5-1.2-1.7-1.6-3.8-2.2c-1.9-0.5-4-1.1-5.8-2.8c-3.3-3.3-1-7.6,0.7-9.5
					c0.5-0.6,1.3-0.6,1.9-0.1c0.6,0.5,0.6,1.3,0.1,1.9l0,0c-0.1,0.1-3.1,3.5-0.8,5.8c1.2,1.2,2.9,1.7,4.5,2.2
					c2.1,0.6,4.5,1.2,5.6,3.8c0.3,0.7,2.4,0.3,4,0.1c2.9-0.4,6.9-1.2,7.9,2.6c0.4,1.5,0.3,2.7-0.3,3.7c-1.1,1.9-3.5,2.4-6.3,3.1
					c-1.2,0.3-2.5,0.6-3.9,1c-2.3,0.8-3.1,1.5-4,2.5c-1.1,1.1-2.2,2.3-5.8,3.3c-2.8,0.7-5.5,3.1-7,6.4c-1.5,3-1.7,6.2-0.7,8.8
					c1.2,2.8,6.2,3.8,11.1,4.8c5.7,1.2,11.6,2.3,13.7,6.5c1.3,2.6,3.1,4.5,5.1,6.5c3.2,3.3,6.6,6.7,7.9,13.7
					c1.5,7.5,3.2,15,6.6,16.7c1.1,0.6,2.4,0.4,4-0.3c7-3.3,6.3-15.7,5.6-26.7c-0.4-6.7,1.8-12.2,3.8-17.1c1.5-3.6,2.7-6.7,2.4-9.3
					c-0.1-0.7,0.4-1.4,1.2-1.5c0.7-0.1,1.4,0.4,1.5,1.2c0.3,3.3-1,6.7-2.6,10.7c-1.9,4.6-4,9.9-3.6,16c0.7,11.8,1.5,25.2-7.1,29.3
					C163.8,148.7,162.6,149,161.5,149z"/>
			</g>
			<g>
				<path class="st7" d="M51.5,126.8c-1.7,0-2.9-0.3-3-0.3c-0.7-0.2-1.2-0.9-1-1.6c0.2-0.7,0.9-1.2,1.6-1c0.1,0,4.5,1.1,7.9-1.4
					c2.4-1.7,3.8-4.9,4.1-9.3c0.7-9,4.2-11.1,7.6-13.2c2.6-1.6,5.2-3.1,6.9-8.1c3.7-10.9-7.9-16.2-8.4-16.5c-0.7-0.3-1-1.1-0.7-1.8
					c0.3-0.7,1.1-1,1.7-0.7c0.1,0.1,14.4,6.5,9.9,19.8c-2.1,6-5.2,7.9-8,9.6c-3.2,1.9-5.7,3.5-6.3,11c-0.4,5.3-2.2,9.1-5.3,11.3
					C56.1,126.4,53.5,126.8,51.5,126.8z"/>
			</g>
			<g>
				<path class="st7" d="M60.7,159.7c-0.5,0-0.9-0.1-0.9-0.1c-0.7-0.1-1.3-0.8-1.2-1.5c0.1-0.7,0.8-1.2,1.5-1.2
					c0.5,0.1,5,0.4,5.5-3.9c0.4-3.5,0-6-1.3-7.2c-0.8-0.8-2-1-3.6-0.7c-6.2,1.1-9.7-2.4-9.8-2.6c-0.5-0.5-0.5-1.4,0.1-1.9
					c0.5-0.5,1.3-0.5,1.9,0.1c0.1,0.1,2.7,2.6,7.4,1.8c2.5-0.4,4.5,0,5.9,1.4c1.9,1.8,2.6,5.1,2.1,9.5c-0.3,2-1.1,3.5-2.5,4.6
					C64.1,159.6,61.9,159.7,60.7,159.7z"/>
			</g>
			<g>
				<path class="st7" d="M129.7,188.3c-0.8,0-1.3-0.6-1.3-1.3c0-8.7-1.3-15-3.9-18.5c-2.6-3.6-3.3-6-4-8.5c-0.4-1.4-0.8-2.9-1.7-4.7
					c-0.7-1.6-1.9-2.6-3.5-3c-2.4-0.6-5.5,0.4-8.1,2.7c-6.4,5.3-12.7,5-16.8,3.8c-2.8-0.8-4.7,0.8-7.8,3.6c-1,0.9-1.9,1.8-3.1,2.7
					c-3.7,3-1.7,10-1.7,10.1c0.2,0.7-0.2,1.5-0.9,1.7c-0.7,0.2-1.5-0.2-1.7-0.9c-0.1-0.4-2.5-8.8,2.6-13c1-0.8,2-1.7,2.9-2.6
					c3.1-2.8,5.9-5.5,10.3-4.2c5,1.5,10,0.4,14.3-3.3c3.4-2.8,7.2-4,10.5-3.3c2.4,0.6,4.3,2.1,5.4,4.5c0.9,2,1.3,3.6,1.8,5
					c0.7,2.4,1.3,4.4,3.6,7.6c2.9,4,4.4,10.6,4.4,20C131.1,187.7,130.5,188.3,129.7,188.3z"/>
			</g>
			<g>
				<path class="st7" d="M107.6,189.1c-0.6,0-1.2-0.4-1.3-1c-0.8-2.9-2.2-4.9-4-5.5c-1-0.3-2.1,0-2.9,0.8
					c-3.5,3.5-11.9-0.1-12.8-0.5c-0.7-0.3-1-1.1-0.7-1.7c0.3-0.7,1.1-1,1.7-0.7c2.5,1.1,8.2,2.8,9.9,1.1c1.5-1.5,3.5-2.1,5.5-1.5
					c2.8,0.8,4.9,3.5,6,7.4c0.2,0.7-0.3,1.5-1,1.6C107.9,189.1,107.7,189.1,107.6,189.1z"/>
			</g>
		</g>
		<g>
			<g>
				<path class="st19" d="M219.4,235.3c-1.8,1.8-4.7,2-7,1.4c-0.9-0.2-1.7-0.5-2.3-0.9c-2.2-1.4-2.1-3.2-2.6-4.3
					c-0.5-1.1-0.2-2.6-0.2-2.6s0-1.3,1.3-2.2c1.3-0.9,1.8-2.7,2.7-3.2c0.4-0.2,1.3-0.4,2.4-0.5c1.2-0.1,2.5-0.1,3.1,0.2
					c1.2,0.5,4.3,3.4,5,5C222.3,229.7,221.9,232.8,219.4,235.3z"/>
			</g>
			<g class="st4">
				<path class="st5" d="M217.2,223.4c-0.7-0.2-1.8-0.2-2.8-0.1c-1,0.1-2,0.3-2.4,0.5c-0.7,0.4-1.2,1.8-2.1,2.8
					c-0.3,1-0.8,1.6-1.7,1.9l0,0c-0.1,0.4-0.2,0.7-0.2,0.7s-0.3,1.6,0.2,2.6c0.5,1.1,0.4,2.9,2.6,4.3c0.1,0,0.1,0.1,0.2,0.1
					c-0.4-0.1-0.7-0.3-1-0.5c-2.2-1.4-2.1-3.2-2.6-4.3c-0.5-1.1-0.2-2.6-0.2-2.6s0-1.3,1.3-2.2c1.3-0.9,1.8-2.7,2.7-3.2
					c0.4-0.2,1.3-0.4,2.4-0.5c1.2-0.1,2.5-0.1,3.1,0.2C216.9,223.2,217,223.3,217.2,223.4z"/>
			</g>
			<g class="st6">
				<path class="st7" d="M219.4,235.3c-1.8,1.8-4.7,2-7,1.4c0.1-0.5,0.1-1.1,0.1-1.6c0-2-0.6-1.3,2.4-2.1c3-0.9,3.8-2.9,3.1-5.6
					c-0.6-2.4-3.7-4.1-4.4-4.4c1.2-0.1,2.5-0.1,3.1,0.2c1.2,0.5,4.3,3.4,5,5C222.3,229.7,221.9,232.8,219.4,235.3z"/>
			</g>
			<g>
				<path class="st7" d="M214.7,237.3c-1.8,0-3.6-0.5-4.8-1.2c-1.8-1.1-2.2-2.5-2.5-3.6c-0.1-0.3-0.2-0.6-0.3-0.9
					c-0.5-1.1-0.3-2.6-0.3-2.8c0-0.2,0.1-1.5,1.5-2.5c0.6-0.4,1.1-1.2,1.5-1.8c0.4-0.6,0.7-1.2,1.2-1.4c0.9-0.5,4.6-0.9,5.8-0.3
					c1.2,0.6,4.5,3.5,5.1,5.2c0.7,1.8,0.1,5.1-2.4,7.6C218.4,236.8,216.5,237.3,214.7,237.3z M215,223.2c-1.3,0-3,0.2-3.5,0.5
					c-0.3,0.2-0.6,0.7-1,1.2c-0.4,0.7-0.9,1.5-1.7,2c-1.1,0.8-1.2,1.9-1.2,1.9c0,0,0,0,0,0c0,0-0.2,1.5,0.2,2.4
					c0.1,0.3,0.2,0.6,0.3,1c0.3,1,0.6,2.2,2.1,3.1c2.2,1.3,6.6,1.8,8.9-0.5c2.4-2.4,2.7-5.4,2.2-6.8c-0.6-1.5-3.7-4.3-4.8-4.8
					C216.2,223.3,215.6,223.2,215,223.2z M207.3,228.9L207.3,228.9L207.3,228.9z"/>
			</g>
			<g>
				<path class="st7" d="M213.2,234.6c-0.7,0-1.4-0.1-1.9-0.4c-1-0.5-4.3-2.3-4.3-5.3c0-0.1,0.1-0.3,0.3-0.3c0.1,0,0.3,0.1,0.3,0.3
					c0,2.7,3.1,4.4,4,4.9c1.7,0.8,5,0.1,6.4-1.9c1.5-2,1.3-3.7-0.6-6.5c-1.9-2.7-4.2-2.1-4.3-2.1c-0.1,0-0.3,0-0.3-0.2
					c0-0.1,0-0.3,0.2-0.3c0.1,0,2.8-0.7,4.9,2.3c2.1,2.9,2.2,4.9,0.6,7.1C217.2,233.8,215,234.6,213.2,234.6z"/>
			</g>
			<g>
				<path class="st7" d="M221,233.5c0,0-0.1,0-0.1,0c-0.1,0-1.6-1-2.2-2.5c-0.1-0.1,0-0.3,0.1-0.4c0.1-0.1,0.3,0,0.4,0.1
					c0.6,1.3,2,2.3,2,2.3c0.1,0.1,0.1,0.2,0.1,0.4C221.2,233.4,221.1,233.5,221,233.5z"/>
			</g>
			<g>
				<path class="st7" d="M213.6,237.2c-0.1,0-0.3-0.1-0.3-0.2c-0.1-1.5,0.3-2.7,0.4-2.8c0.1-0.1,0.2-0.2,0.4-0.1
					c0.1,0.1,0.2,0.2,0.1,0.4c0,0-0.5,1.2-0.3,2.5C213.9,237,213.8,237.1,213.6,237.2C213.6,237.2,213.6,237.2,213.6,237.2z"/>
			</g>
			<g>
				<path class="st7" d="M213.2,230.5c-1,1.7-3.5,0.9-3.4-1c0.1-1.9,2.7-2.4,3.5-0.6c0.1,0.2-0.2,0.4-0.4,0.1
					c-0.3-0.6-0.9-0.9-1.5-0.7c-1.3,0.3-1.4,2.1-0.1,2.6c0.6,0.2,1.2,0,1.6-0.6C213,230.1,213.4,230.3,213.2,230.5L213.2,230.5z"/>
			</g>
			<g class="st6">
				<path class="st7" d="M213.1,228.8c-0.2-0.1-0.5-0.2-0.7-0.2c-0.9,0-1.6,0.7-1.6,1.6c0,0.3,0.1,0.6,0.2,0.8
					c-0.5-0.3-0.9-0.8-0.9-1.4c0-0.9,0.7-1.6,1.6-1.6C212.3,228,212.8,228.3,213.1,228.8z"/>
			</g>
			<g>
				<path class="st7" d="M213.5,225.7c-0.1,0-0.3,0-0.4,0.1c-0.1,0.2-0.1,0.6,0.2,0.6c0.3,0.1,0.7,0.1,1,0c0.1,0,0.3-0.1,0.3-0.2
					c0-0.1,0-0.2-0.1-0.3c-0.1-0.1-0.3-0.2-0.4-0.3c-0.1,0-0.1-0.1-0.1-0.2c0-0.1,0.1-0.1,0.1-0.1c0.2,0.1,0.4,0.1,0.6,0.3
					c0.4,0.4,0.3,1-0.3,1.1c-0.6,0.2-1.5,0.1-1.7-0.6c-0.1-0.4,0.1-0.7,0.5-0.8c0.1,0,0.4-0.1,0.4,0.1
					C213.7,225.6,213.6,225.7,213.5,225.7L213.5,225.7z"/>
			</g>
			<g>
				<path class="st7" d="M216.4,228c-0.2,0.3-0.5,0.6-0.1,0.8c0.2,0.1,0.7,0.2,0.9,0c0.1-0.1,0.1-0.4,0.1-0.6
					c-0.1-0.1,0.1-0.3,0.2-0.1c0.4,0.6-0.2,1.5-0.9,1.3c-0.9-0.2-0.9-1-0.3-1.5C216.4,227.7,216.5,227.9,216.4,228L216.4,228z"/>
			</g>
			<g>
				<path class="st7" d="M209.4,234.3c0.1-0.7,1-0.5,1.1,0.1c0,0.1,0,0.6-0.2,0.5c-0.1,0-0.1-0.1-0.1-0.1c0-0.2,0-0.4-0.2-0.5
					c-0.1,0-0.2-0.1-0.2-0.1c-0.1,0-0.1,0.1-0.1,0.1C209.6,234.5,209.4,234.4,209.4,234.3L209.4,234.3z"/>
			</g>
			<g>
				<path class="st7" d="M214,232.6c-0.3,0.2-0.5,0.4-0.1,0.6c0.2,0.1,0.6-0.3,0.5-0.5c-0.1-0.1,0.1-0.3,0.2-0.1
					c0.1,0.1,0.1,0.3,0.1,0.4c-0.1,0.6-0.9,0.8-1.3,0.3c-0.2-0.3-0.1-0.6,0.1-0.8c0.1-0.1,0.4-0.3,0.5-0.1
					C214.1,232.6,214.1,232.6,214,232.6L214,232.6z"/>
			</g>
			<g>
				<path class="st7" d="M216.1,235c-0.4,0-0.9,0.1-0.9,0.5c0.2,0.4,1.1,0.3,1.3,0c0.1-0.1,0-0.2,0-0.3c-0.1-0.1,0.1-0.3,0.2-0.1
					c0.1,0.1,0.1,0.2,0.1,0.3c0.1,0.9-1.2,1.1-1.8,0.6c-0.5-0.4,0-1.1,0.6-1.1c0.1,0,0.7-0.1,0.6,0.1
					C216.2,234.9,216.2,235,216.1,235L216.1,235z"/>
			</g>
			<g>
				<path class="st7" d="M219.1,232.9c-0.5-0.7-1.3,0.4-0.6,0.7c0.1,0,0.1,0.3-0.1,0.3c-0.6-0.1-0.7-0.9-0.3-1.3
					c0.2-0.3,0.7-0.4,1-0.1c0.1,0.1,0.4,0.4,0.1,0.5C219.2,233,219.1,232.9,219.1,232.9L219.1,232.9z"/>
			</g>
			<g class="st6">
				<path class="st7" d="M213.3,226.6c0,0-0.9-0.7-0.4-0.9c0.5-0.2,1.3-0.1,1.3-0.1S213,225.7,213.3,226.6z"/>
			</g>
		</g>
		<g>
			<g>
				<path class="st19" d="M165.3,71.8c-0.7,1.7-2.9,1.5-3.4,1.7c-0.6,0.1-1.6,1.5-3.3,1.6c-1.7,0.1-4.6-1-5.6-2.4
					c-1.1-1.4-1-3-0.4-4.4c0.1-0.2,0.1-0.4,0.2-0.5c0,0,0,0,0,0c0.6-1.4,1.2-3.3,2.2-4.8c0.6-0.9,1.5-1.2,2.5-1.2
					c0.9,0,1.9,0.3,2.6,0.6c1.5,0.6,2.6,0.8,2.6,0.8c1.5,0.6,2,3.1,2.5,4.7C165.7,69.2,166,70.1,165.3,71.8z"/>
			</g>
			<g class="st6">
				<path class="st7" d="M154.2,69.4c0,0-0.4-0.9,0.2-1.1c0.6-0.2,1.1,0.2,1.2,0.2c0,0,0.2,0.4,0.2,0.4s-0.5-0.4-0.9-0.1
					c-0.5,0.3-0.4,0.7-0.3,0.7"/>
			</g>
			<g class="st6">
				<path class="st7" d="M156.5,66.7c0,0-1.1-1-0.1-1.8c0.9-0.8,1.9-0.4,1.9-0.4s-0.8,0.3-1.2,1.3c-0.3,1,0.7,1.1,0.7,1.1"/>
			</g>
			<g class="st4">
				<path class="st5" d="M164.1,64.5c-0.3-0.3-0.6-0.6-0.9-0.7c0,0-1.1-0.3-2.6-0.8c-0.7-0.3-1.7-0.6-2.6-0.6c0,0,0,0-0.1,0
					c-0.5,1.4-1.5,1.7-2.6,1.5c-0.8,1.5-1.4,3.2-2,4.5c0,0,0,0,0,0c-0.1,0.2-0.1,0.4-0.2,0.5c-0.5,1.2-0.6,2.4-0.1,3.6
					c-1.1-1.4-1-3-0.4-4.4c0.1-0.2,0.1-0.4,0.2-0.5c0,0,0,0,0,0c0.6-1.4,1.2-3.3,2.2-4.8c0.6-0.9,1.5-1.2,2.5-1.2
					c0.9,0,1.9,0.3,2.6,0.6c1.5,0.6,2.6,0.8,2.6,0.8C163.3,63.2,163.7,63.8,164.1,64.5z"/>
			</g>
			<g class="st6">
				<path class="st7" d="M165.3,71.8c-0.7,1.7-2.9,1.5-3.4,1.7c-0.6,0.1-1.6,1.5-3.3,1.6c-0.8,0-1.8-0.1-2.8-0.5l0,0
					c-0.1-0.3-0.2-0.5-0.3-0.8c-0.3-0.8-0.2-1.3,0-1.6c0.4,0,0.7-0.1,1.2-0.2c0.2,0,0.4-0.1,0.6-0.1l0,0c0.3-0.1,0.6-0.1,0.8-0.2
					c-0.2-0.1-0.2-0.2,0.1-0.3c1.5-0.6,3.1-3,3-5.6c-0.1-2.6-2.3-3.7-2.3-3.7l0.7,0.1c-1-0.5-2.1-0.5-2.1-0.5l0,0
					c0.9,0,1.9,0.3,2.6,0.6c0.1,0,0.1,0,0.2,0.1l1.2,0.2c0,0,0,0.1,0.1,0.2c0.7,0.2,1.1,0.3,1.1,0.3c1.5,0.6,2,3.1,2.5,4.7
					C165.7,69.2,166,70.1,165.3,71.8z"/>
			</g>
			<g>
				<path class="st7" d="M158.4,75.4c-1.8,0-4.6-1.1-5.7-2.5c-1.3-1.7-1-3.6-0.4-4.8c0.2-0.4,0.4-0.9,0.6-1.3
					c0.5-1.3,1.1-2.8,1.9-4.1c1.3-2.2,4.6-1.2,5.5-0.8c1.5,0.6,2.6,0.8,2.6,0.8c0,0,0,0,0,0c1.4,0.6,2,2.5,2.5,4
					c0.1,0.3,0.2,0.6,0.3,0.9c0.6,1.6,0.8,2.6,0.1,4.4c-0.6,1.6-2.3,1.8-3.2,1.8c-0.2,0-0.3,0-0.4,0.1c-0.1,0-0.4,0.2-0.6,0.4
					c-0.6,0.4-1.5,1.1-2.8,1.2C158.5,75.4,158.5,75.4,158.4,75.4z M157.4,62c-0.8,0-1.7,0.2-2.1,1c-0.7,1.2-1.3,2.7-1.8,4
					c-0.2,0.5-0.4,1-0.6,1.4c-0.5,1-0.8,2.6,0.3,4c1,1.3,3.8,2.3,5.3,2.2c1-0.1,1.8-0.6,2.4-1.1c0.3-0.2,0.6-0.4,0.8-0.5
					c0.1,0,0.3,0,0.5-0.1c0.8-0.1,2.2-0.2,2.6-1.4c0.6-1.5,0.4-2.3-0.1-3.8c-0.1-0.3-0.2-0.6-0.3-0.9c-0.4-1.4-1-3.1-2-3.5
					c-0.2,0-1.2-0.3-2.6-0.9C159.5,62.3,158.4,62,157.4,62z"/>
			</g>
			<g>
				<path class="st7" d="M154.9,72.4c-1.2,0-2-0.5-2.4-1.8c-0.5-1.7,0-3,0-3c0-0.1,0.2-0.2,0.4-0.1c0.1,0,0.2,0.2,0.1,0.4
					c0,0-0.4,1.2,0,2.7c0.4,1.4,1.2,1.7,3.5,1.2c2.4-0.5,4-1,4.5-2.3c0.5-1.3,0.7-3.6-0.2-5.6c-0.8-1.8-3.3-1.8-3.4-1.8
					c-0.1,0-0.3-0.1-0.3-0.3c0-0.1,0.1-0.3,0.3-0.3l0,0c0.1,0,2.9,0,3.9,2.2c1,2.1,0.7,4.5,0.2,6c-0.5,1.6-2.4,2.2-4.9,2.7
					C156,72.3,155.4,72.4,154.9,72.4z"/>
			</g>
			<g>
				<path class="st7" d="M160.4,74.7c-0.1,0-0.2-0.1-0.3-0.2c-0.5-1.4-0.5-3.6,0.4-4.5c0.8-0.8,3.1-0.5,3.7-0.4
					c0.8-0.5,1.4-0.2,1.6,0.1c0.1,0.1,0.1,0.3,0,0.4c-0.1,0.1-0.3,0.1-0.4,0c-0.1-0.1-0.4-0.4-1,0c-0.1,0-0.1,0.1-0.2,0
					c-1-0.2-2.8-0.3-3.3,0.2c-0.7,0.7-0.8,2.5-0.3,3.9C160.7,74.5,160.6,74.6,160.4,74.7C160.5,74.7,160.4,74.7,160.4,74.7z"/>
			</g>
			<g>
				<path class="st7" d="M159,65.1c0.3,0.7-0.1,1.4-0.7,1.8c-0.9,0.6-2.4,0.3-2.6-0.8c-0.3-1.1,0.8-2.1,1.8-2c0.2,0,0.2,0.4,0,0.4
					c-0.5,0-1,0.3-1.2,0.8c-0.5,1.1,0.9,1.8,1.7,1.2c0.4-0.2,0.7-0.8,0.6-1.3C158.6,65,158.9,64.9,159,65.1L159,65.1z"/>
			</g>
			<g>
				<path class="st7" d="M154,68.2c0.5-0.7,1.6-0.5,1.9,0.2c0.4,0.7-0.3,1.7-1.1,1.7c-0.5,0-1-0.4-1.1-0.9c0-0.2,0.3-0.3,0.4-0.1
					c0.1,0.3,0.4,0.5,0.7,0.5c0.7,0,0.9-0.9,0.3-1.2c-0.2-0.1-0.6-0.1-0.8,0.1C154.2,68.7,153.9,68.4,154,68.2L154,68.2z"/>
			</g>
			<g>
				<path class="st7" d="M158,68.6c0.1-0.1,0.3-0.1,0.5-0.1c0.3,0,0.6,0.5,0.4,0.7c-0.1,0.1-0.7,0.6-0.8,0.4c0-0.1,0-0.1,0-0.1
					c0.1-0.1,0.3-0.2,0.4-0.4c0-0.1,0-0.1,0-0.1c-0.1-0.1-0.3-0.1-0.5-0.1C158,68.9,157.8,68.7,158,68.6L158,68.6z"/>
			</g>
			<g>
				<path class="st7" d="M155.9,73.1c0.4-0.3,1.1-0.5,1.6-0.1c0.6,0.4,0.5,1.3-0.2,1.5c-0.1,0-0.2-0.2-0.1-0.2
					c0.8-0.4,0.1-1.2-0.5-1.1c-0.2,0-0.5,0.1-0.7,0.2C155.9,73.4,155.8,73.2,155.9,73.1L155.9,73.1z"/>
			</g>
			<g>
				<path class="st7" d="M163.7,65.8c-0.7-0.1-0.6,2.2,0.1,1.7c0.1,0,0.1,0,0.2,0.1c0.1,0.2-0.3,0.3-0.5,0.3c-1-0.1-0.9-2.7,0.2-2.4
					C164,65.6,163.9,65.8,163.7,65.8L163.7,65.8z"/>
			</g>
		</g>
		<g>
			<g>
				<path class="st19" d="M172.3,189.2c2,9.9,11.6,16.4,21.5,14.3c2.4-0.5,4.6-1.4,6.5-2.7c1-0.7,2.3,0.5,1.7,1.6
					c-4.5,7.5-12,13.2-21.3,15.1c-18,3.7-35.6-8.5-38.3-26.9c-2.5-16.6,8.5-32.5,24.9-36.1c12-2.6,23.8,1.6,31.3,10.2
					c1.6,1.8-0.2,4.5-2.5,3.7c-3.2-1.1-6.7-1.3-10.2-0.4C176.4,170.2,170.4,179.6,172.3,189.2z"/>
			</g>
			<g class="st6">
				<path class="st7" d="M166.5,208.5c0,0-2.7-1.4-2.3-4.5c0.5-3.2,2.2-3.4,2.4-3.4c0.2,0,2.3-0.9,4.3,0.2c0,0-5.4,0.9-4.4,4.5
					c1,3.7,3.7,2.9,3.7,2.9"/>
			</g>
			<g class="st6">
				<path class="st7" d="M150.7,184.1c0,0-5.4,3-2.2,7.2c3.2,4.2,5.3,1.3,5.3,1.3s-3.5-0.1-3.7-2.8c-0.2-2.7,4.4-3.3,4.4-3.3
					s-1.2-1.4-1.3-1.5"/>
			</g>
			<g class="st6">
				<path class="st7" d="M153.7,175c0,0-1.8-3.2,0-7.8c1.8-4.6,7-4.7,7-4.7l4.2,2.6c-8.4,1-10.1,5.7-8.8,12"/>
			</g>
			<g class="st4">
				<path class="st5" d="M199.1,166.7c-6.2-7-15.3-11.1-25-10.7c-2.8,2.4-6.5,3-10.7,2.2c-13.8,5.4-22.5,19.8-20.3,34.8
					c0.2,1.2,0.4,2.4,0.7,3.6c-0.6-1.9-1.1-3.8-1.4-5.9c-2.5-16.6,8.5-32.5,24.9-36.1c12-2.6,23.8,1.6,31.3,10.2
					C199.1,165.2,199.2,166,199.1,166.7z"/>
			</g>
			<g class="st6">
				<path class="st7" d="M168.5,185.9c-1.9-9.5,4.2-18.9,13.6-21.3c3.5-0.9,7-0.6,10.2,0.4c2.3,0.8,4.1-2,2.5-3.7
					c-0.3-0.4-0.7-0.8-1.1-1.2c1.8,1.3,3.4,2.8,4.8,4.5c1.6,1.8-0.2,4.5-2.5,3.7c-3.2-1.1-6.7-1.3-10.2-0.4
					c-9.4,2.3-15.4,11.7-13.6,21.3c0.6,3.2,2.1,6.1,4.1,8.4C172.4,195,169.5,190.9,168.5,185.9z"/>
			</g>
			<g class="st6">
				<path class="st7" d="M202,202.4c-4.5,7.5-12,13.2-21.3,15.1c-11.2,2.3-22.1-1.5-29.5-9.1c7.1,5.3,16.4,7.7,25.8,5.8
					c7.5-1.5,14-5.6,18.5-11.1c1.8-0.5,3.4-1.3,4.8-2.3C201.4,200.1,202.6,201.3,202,202.4z"/>
			</g>
			<g class="st4">
				<path class="st5" d="M202,202.4c-0.1,0.2-0.2,0.3-0.3,0.5c-0.2,0-0.4,0-0.7,0.2c-1.9,1.3-4.1,2.2-6.5,2.7
					c-9.7,2-19.2-4.2-21.4-13.7c3.1,8.2,11.8,13.2,20.7,11.4c2.4-0.5,4.6-1.4,6.5-2.7C201.4,200.1,202.6,201.3,202,202.4z"/>
			</g>
			<g>
				<path class="st7" d="M174.2,219.1c-6.8,0-13.3-2.1-19-6.1c-7.5-5.3-12.4-13.2-13.8-22.4c-2.5-17.1,8.7-33.5,25.6-37.3
					c11.9-2.6,24.2,1.4,32.2,10.5c1,1.2,1.1,2.8,0.3,4.1c-0.9,1.3-2.4,1.8-3.8,1.3c-3.1-1-6.5-1.2-9.6-0.4
					c-8.9,2.2-14.6,11.2-12.9,20.1l0,0c0.9,4.6,3.5,8.4,7.3,11c3.8,2.6,8.5,3.5,13,2.6c2.2-0.4,4.3-1.3,6.1-2.5
					c0.9-0.6,2-0.5,2.7,0.2c0.8,0.7,0.9,1.8,0.3,2.6c-4.8,8-12.8,13.7-21.9,15.5C178.6,218.9,176.4,219.1,174.2,219.1z M174.3,154.6
					c-2.3,0-4.6,0.2-6.8,0.8c-15.9,3.6-26.5,19-24.1,35.1c1.3,8.6,5.9,16.1,13,21c7.1,5,15.7,6.8,24.1,5c8.6-1.8,16.1-7,20.6-14.6
					c0,0,0.1-0.1,0-0.2c-0.1-0.1-0.2,0-0.3,0c-2.1,1.4-4.4,2.3-6.9,2.8c-5,1-10.2,0-14.5-2.8c-4.3-2.8-7.2-7.2-8.2-12.3l0,0
					c-0.9-4.9,0-9.8,2.7-14.1c2.7-4.2,6.8-7.2,11.6-8.4c3.6-0.9,7.3-0.7,10.7,0.4c0.7,0.2,1.3-0.1,1.5-0.5c0.3-0.4,0.4-1.1-0.1-1.7
					C191.8,158.4,183.2,154.6,174.3,154.6z"/>
			</g>
			<g>
				<path class="st7" d="M155.6,162.9c2.8-2,7.1-1.6,9.5,0.9c3.8,3.8,2.6,10.7-2,13.5c-4.8,3.1-11.1,0.1-11.7-5.6
					c-0.1-0.9,1.2-1.1,1.4-0.2c0.5,2.7,2.7,5,5.5,5.2c5.9,0.3,9.4-7.2,5.5-11.6c-1.9-2.1-5-2.4-7.4-1
					C155.5,164.5,154.8,163.3,155.6,162.9L155.6,162.9z"/>
			</g>
			<g>
				<path class="st7" d="M148.1,184.9c1.3-2,4.2-2.3,6-0.9c2.7,2,3.3,6.3,1,8.8c-2.7,2.9-7,0.9-7.8-2.6c-0.2-0.8,0.9-1.2,1.3-0.4
					c0.5,1.4,1.9,2.7,3.4,2.6c1.4,0,2.5-1.4,2.6-2.9c0.2-1.5-0.4-3.2-1.6-4.1c-1.1-1-2.8-0.9-3.9,0.3
					C148.6,186.5,147.6,185.7,148.1,184.9L148.1,184.9z"/>
			</g>
			<g>
				<path class="st7" d="M168.2,187.2c0.2,1.9-1.8,3.4-3.6,2.8c-1.9-0.4-2.8-2.8-1.7-4.4c0.6-1,2-1.5,3.1-1.2c0.6,0.2,0.4,1.1-0.2,1
					c-1.4-0.1-2.4,1.5-1.5,2.6c0.9,1.1,2.7,0.5,2.8-0.9C167.2,186.6,168.2,186.6,168.2,187.2L168.2,187.2z"/>
			</g>
			<g>
				<path class="st7" d="M172.2,201.4c1.6,1.7,1.7,4.6,0.2,6.4c-2.3,3.1-7.2,2.4-8.8-1.1c-1.6-3.4,1.3-7.4,5-7.1
					c0.7,0.1,0.6,1.1,0,1.1c-1.8,0-3.4,1.2-3.8,2.9c-0.9,3.9,4,6.4,6.6,3.3c1.1-1.3,1.2-3.4,0.1-4.8
					C170.9,201.5,171.7,200.9,172.2,201.4L172.2,201.4z"/>
			</g>
			<g>
				<path class="st7" d="M182.9,162.8c-0.5,2.2-3.7,2.9-5.2,1.2c-0.9-0.9-0.7-2.5,0.2-3.2c0.8-0.8,1.9-1,2.9-0.8
					c0.6,0.1,0.5,1.1-0.1,1.1c-0.7,0-1.4,0.3-1.8,0.7c-0.9,1.1,0.3,1.9,1.5,1.7c0.6-0.1,1.3-0.5,1.5-1
					C182.2,161.9,183.1,162.2,182.9,162.8L182.9,162.8z"/>
			</g>
		</g>
		<g>
			<g>
				<g>
					<path class="st5" d="M162.1,114.1c0,0-1.5-1.6-3.1-1.3s-7.2,6-7.2,6s-0.4,2.7,2.4,3.3c2.8,0.6,8.3-5.9,8.3-5.9L162.1,114.1z"/>
				</g>
				<g>
					<path class="st7" d="M154.4,122.4c-0.1,0-0.3,0-0.4,0c-3-0.6-2.6-3.6-2.6-3.6c0-0.1,0-0.1,0.1-0.1c0.6-0.6,5.7-5.7,7.4-6
						c1.7-0.3,3.3,1.3,3.3,1.4c0,0,0.1,0.1,0.1,0.1l0.4,2c0,0.1,0,0.2-0.1,0.2C162.4,116.6,157.4,122.4,154.4,122.4z M152,118.9
						c0,0.4,0,2.4,2.2,2.9c2.1,0.4,6.4-3.9,8-5.7l-0.4-1.8c-0.3-0.3-1.5-1.4-2.8-1.2C157.8,113.3,153.6,117.3,152,118.9z"/>
				</g>
				<g>
					<g>
						<path class="st5" d="M170.8,128.2c-0.1,0.4-0.3,0.8-0.5,1.2c-0.9,1.6-3.1,0.6-3.1,0.6c-2.2-1.5-2.9-3.2-3.1-4
							c-0.1-0.2-0.1-0.3-0.1-0.3l-1.3,0.6c2.2,4.7,1,6.6-1,7.8c0.6,0.6,0.8,1.4,0.6,1.9c-0.2,0.7-1,1.1-1.8,0.9
							c-1.5-0.5-2.5-2.1-2.8-3.4c-0.4-1.3,1.2-2.1,1.5-2.8s-0.6-1.7-0.6-1.7l-0.5-0.3c-0.1,0.2-0.2,0.4-0.4,0.5l0,0
							c-1.3,1.6-3.3,1.5-3.3,1.5c-0.1,0.4-0.3,0.7-0.6,1c-1,1-2.7,0.7-3.4-1.3c-0.8-2.5,0.1-3.5,1.5-4s1.6-1.2,1.6-1.2
							c-0.6-2.6,0.2-4.2,1.2-5.2c1.4-1.3,3.4-1.5,3.4-1.5c-0.9-0.1-3.4,0.2-4.8,0.8l0,0c-0.2,0.1-0.3,0.2-0.5,0.3
							c-1.2,0.8-3.1-0.4-3.2-1.6c-0.1-1.2-0.3-3.8,4.7-3.9c5-0.2,7.5,1.7,7.5,1.7l4.6,5.6l0.4,0.5c0.3,1.8,1.1,3.2,2.2,4.4
							C170.8,125.9,171.2,126.9,170.8,128.2z"/>
					</g>
					<g class="st6">
						<g>
							<path class="st7" d="M170.8,128.2c-0.1,0.4-0.3,0.8-0.5,1.2c-0.9,1.6-3.1,0.6-3.1,0.6c-2.2-1.5-2.9-3.2-3.1-4l1.1-3.1
								c0,0.1-0.5,2.2,0.8,4.2c1.4,2.1,1.9,0.5,1.9,0.5l0.6-0.6c0,0-0.9,1.2,0.2,1.9C169.7,129.4,170.6,128.5,170.8,128.2z"/>
						</g>
					</g>
					<g class="st6">
						<g>
							<path class="st7" d="M162.3,135.9c-0.2,0.7-1,1.1-1.8,0.9c-1.5-0.5-2.5-2.1-2.8-3.4c-0.4-1.3,1.2-2.1,1.5-2.8
								s-0.6-1.7-0.6-1.7l-0.5-0.3c-0.1,0.2-0.2,0.4-0.4,0.5c0.3-0.4,0.8-1.2,0.8-1.2l0.1-1.3c0,0,0.6,1.9,2.5,1.7
								c0,0,0.4,1-0.8,2.4c-1.2,1.5-1.7,2.9-0.6,4.3C160.6,136,161.8,135.9,162.3,135.9z"/>
						</g>
					</g>
					<g class="st6">
						<g>
							<path class="st7" d="M160.5,118.8c0,0-1.7,0.2-2.5,0.6c-0.8,0.4-2.6,2-2.3,4.5c0.4,2.5-3.3,3.1-3.8,5c-0.4,1.3,1.1,2.2,2,2.5
								c-1,1-2.7,0.7-3.4-1.3c-0.8-2.5,0.1-3.5,1.5-4c1.4-0.5,1.6-1.2,1.6-1.2c-0.6-2.6,0.2-4.2,1.2-5.2c0.9-0.4,2.2-1,3.1-1.3
								C159.3,118.1,160.5,118.8,160.5,118.8z"/>
						</g>
					</g>
					<g class="st6">
						<g>
							<path class="st7" d="M166.6,121.3l-0.5,0.3c-2.4-0.6-4.3-2.1-5.3-4.9c0,0-5.4-2.8-8.2-0.8c-2.8,2,1,3.1,1,3.1s0,0.1-0.1,0.3
								l0,0c-0.2,0.1-0.3,0.2-0.5,0.3c-1.2,0.8-3.1-0.4-3.2-1.6s-0.3-3.8,4.7-3.9c5-0.2,7.5,1.7,7.5,1.7L166.6,121.3z"/>
						</g>
					</g>
					<g>
						<path class="st7" d="M161,137.1c-0.2,0-0.4,0-0.6-0.1c-1.7-0.5-2.7-2.3-3-3.6c-0.3-1.1,0.5-1.8,1-2.4c0.2-0.2,0.5-0.5,0.6-0.7
							c0.2-0.4-0.3-1.1-0.5-1.3l-0.2-0.1c-1.2,1.7-2.9,1.9-3.6,1.9c-0.4,0.9-1.1,1.5-2,1.5h0c-0.8,0-1.9-0.5-2.4-2.1
							c-0.4-1.3-0.5-2.3-0.1-3c0.3-0.6,0.9-1,1.8-1.3c1-0.3,1.3-0.8,1.4-0.9c-0.4-2-0.1-3.6,0.8-4.8c0.4-0.6,1-1,1.6-1.3
							c-1,0.2-2,0.5-2.6,0.8c-0.6,0.4-1.3,0.4-2,0.1c-0.9-0.4-1.5-1.2-1.6-1.9c-0.1-0.7-0.1-1.8,0.6-2.7c0.8-0.9,2.2-1.4,4.4-1.5
							c5-0.2,7.6,1.7,7.7,1.8c0,0,0,0,0,0l5,6.1c0,0,0,0.1,0.1,0.1c0.3,1.6,0.9,3,2,4.2c0.9-0.1,1.4,0.1,1.6,0.4
							c0.5,0.6,0.3,1.8-0.4,3.1c-0.8,1.5-2.7,1.1-3.5,0.7c0,0,0,0,0,0c-2.3-1.6-3-3.4-3.2-4.1l-0.7,0.3c2.1,4.6,0.7,6.6-1,7.7
							c0.7,0.9,0.6,1.8,0.3,2.3C162.1,136.8,161.6,137.1,161,137.1z M158.1,128.3c0,0,0.1,0,0.1,0l0.5,0.3c0,0,0,0,0.1,0
							c0,0,1.1,1.1,0.7,2c-0.1,0.3-0.4,0.5-0.7,0.8c-0.5,0.5-1.1,1.1-0.9,1.8c0.3,1.2,1.2,2.8,2.7,3.2c0.6,0.2,1.1,0,1.4-0.5
							c0.3-0.4,0.3-1.2-0.4-1.8c-0.1-0.1-0.1-0.1-0.1-0.2c0-0.1,0.1-0.1,0.1-0.2c1.8-1.1,3.1-2.8,0.9-7.5c0-0.1,0-0.1,0-0.2
							c0-0.1,0.1-0.1,0.1-0.1l1.3-0.6c0.1,0,0.2,0,0.2,0c0.1,0,0.1,0.1,0.1,0.2c0,0,0.3,2.3,3,4.1c0.2,0.1,2,0.9,2.8-0.5
							c0.6-1,0.7-2,0.4-2.5c-0.3-0.3-0.8-0.3-1.2-0.2c-0.1,0-0.2,0-0.3-0.1c-1.2-1.3-1.9-2.8-2.2-4.5l-5-6c-0.3-0.2-2.8-1.8-7.4-1.6
							c-1.9,0.1-3.3,0.5-3.9,1.3c-0.6,0.7-0.6,1.6-0.5,2.3c0.1,0.6,0.6,1.2,1.3,1.5c0.3,0.1,0.9,0.3,1.5,0c1.3-0.9,4.4-1.2,5.4-1.2
							c0.1,0,0.3,0.1,0.2,0.3c0,0.1-0.1,0.3-0.3,0.3c0,0-2.4,0.2-3.7,1.9c-0.8,1.1-1,2.6-0.7,4.4c0,0,0,0.1,0,0.1
							c0,0.1-0.3,0.9-1.8,1.3c-0.7,0.2-1.2,0.6-1.4,1c-0.3,0.6-0.3,1.5,0.1,2.6c0.4,1.1,1,1.7,1.8,1.7h0c0.7,0,1.3-0.5,1.5-1.3
							c0-0.1,0.1-0.2,0.3-0.2c0.1,0,2.2,0.1,3.4-1.8C158,128.3,158,128.3,158.1,128.3z"/>
					</g>
					<g>
						<g>
							<path class="st5" d="M164.9,124.1c0,0.1,0,0.2,0,0.3c-0.2,0.7-0.6,1.7-1.4,2.2c-0.2,0.1-0.6,0.2-0.8,0.1
								c-0.7-0.2-2-0.8-3-1.8c-0.2-0.2-0.3-0.5-0.3-0.8c0-0.1,0-0.1,0-0.2c0.2-0.6,0.6-1.6,1.5-2.3c0.3-0.3,0.8-0.3,1.1,0l2.5,1.7
								C164.7,123.5,164.9,123.8,164.9,124.1z"/>
						</g>
						<g class="st6">
							<g>
								<path class="st7" d="M164.9,124.1c0,0.1,0,0.2,0,0.3c-0.2,0.7-0.6,1.7-1.4,2.2c-0.2,0.1-0.6,0.2-0.8,0.1
									c-0.7-0.2-2-0.8-3-1.8c-0.2-0.2-0.3-0.5-0.3-0.8C162.5,126.6,164.3,124.8,164.9,124.1z"/>
							</g>
						</g>
						<g>
							<path class="st7" d="M162.9,127.1c-0.1,0-0.3,0-0.4-0.1c-0.7-0.2-2.1-0.8-3.1-1.8c-0.4-0.3-0.5-0.8-0.3-1.3
								c0.2-0.7,0.7-1.7,1.6-2.4c0.4-0.3,1-0.4,1.5,0l2.5,1.7c0.4,0.3,0.6,0.8,0.5,1.4c-0.2,0.8-0.6,1.8-1.5,2.4
								C163.4,127,163.2,127.1,162.9,127.1z M161.5,121.8c-0.1,0-0.3,0-0.4,0.1c-0.8,0.6-1.2,1.5-1.4,2.1l0,0
								c-0.1,0.2,0,0.5,0.2,0.7c1,0.9,2.3,1.4,2.9,1.7c0.2,0.1,0.4,0,0.6-0.1c0.7-0.5,1.1-1.4,1.3-2.1c0.1-0.3,0-0.6-0.3-0.7
								l-2.5-1.7C161.7,121.9,161.6,121.8,161.5,121.8z M159.3,124L159.3,124L159.3,124z"/>
						</g>
						<g>
							<path class="st7" d="M160.6,126.1c0,0-0.1,0-0.1,0l-0.2-0.1c-0.3-0.2-0.4-0.6-0.3-0.9c0.6-1.4,1.6-2.4,2.1-2.9
								c0.3-0.2,0.6-0.2,0.9,0l0.2,0.1c0.1,0.1,0.1,0.3,0.1,0.4c-0.1,0.1-0.3,0.1-0.4,0.1l-0.2-0.1c-0.1-0.1-0.2,0-0.3,0
								c-0.5,0.4-1.4,1.3-2,2.6c0,0.1,0,0.2,0.1,0.3l0.2,0.1c0.1,0.1,0.1,0.3,0.1,0.4C160.7,126,160.6,126.1,160.6,126.1z"/>
						</g>
						<g>
							<path class="st7" d="M162.2,126.8C162.2,126.8,162.1,126.8,162.2,126.8c-0.2-0.1-0.2-0.2-0.1-0.3l0.9-1.7l-0.4-0.5
								c-0.1-0.1-0.1-0.3,0-0.4l0.8-1.3c0-0.1,0.1-0.1,0.2-0.1c0.1,0,0.1,0.1,0.1,0.2l-0.8,1.3l0.4,0.4c0.1,0.1,0.1,0.3,0,0.4
								l-0.9,1.7C162.3,126.8,162.2,126.8,162.2,126.8z"/>
						</g>
						<g>
							<path class="st7" d="M163.9,124.8c-0.3,0-0.5-0.3-0.5-0.6c0-0.3,0.2-0.6,0.5-0.6c0.3,0,0.5,0.3,0.5,0.6
								C164.4,124.5,164.2,124.8,163.9,124.8z M163.9,124c-0.1,0-0.1,0.1-0.1,0.2s0.1,0.2,0.1,0.2s0.1-0.1,0.1-0.2
								S164,124,163.9,124z"/>
						</g>
						<g>
							<path class="st5" d="M160.6,122.9c-0.2,0.2-0.5,0.4-1,0.6c-1.4-1.3-2.6-2.9-3.3-4.8c0,0,0.7-0.5,1.9-0.4c0,0,0,0.2,0.1,0.5
								c0.3,0.7,0.9,2,2.4,3.2C160.9,122.1,161,122.5,160.6,122.9z"/>
						</g>
						<g class="st6">
							<g>
								<path class="st7" d="M160.6,122.9c-0.2,0.2-0.5,0.4-1,0.6c-1.4-1.3-2.6-2.9-3.3-4.8c0,0,0.7-0.5,1.9-0.4c0,0,0,0.2,0.1,0.5
									c-0.4,0.3-0.9,0.8-0.5,1.7C158.7,122.3,160.6,122.9,160.6,122.9z"/>
							</g>
						</g>
						<g>
							<path class="st7" d="M159.6,123.8c-0.1,0-0.1,0-0.2-0.1c-1.7-1.6-2.7-3.1-3.4-4.9c0-0.1,0-0.2,0.1-0.3c0,0,0.8-0.5,2.1-0.4
								c0.1,0,0.2,0.1,0.2,0.2c0,0,0.4,1.9,2.5,3.6c0,0,0.1,0.1,0.1,0.1C161.1,122.1,161.4,123.3,159.6,123.8
								C159.7,123.8,159.7,123.8,159.6,123.8z M156.7,118.9c0.6,1.5,1.6,2.9,3,4.3c0.8-0.3,0.9-0.7,0.9-0.9
								c-1.8-1.4-2.4-3.1-2.5-3.6C157.4,118.6,156.9,118.8,156.7,118.9z"/>
						</g>
					</g>
					<g>
						<path class="st7" d="M157.9,128.4c0.4-0.6,0.6-1.4,0.6-2.1c0-0.1,0.1-0.1,0.1-0.2c0.1,0,0.1,0,0.1,0.1c0,0.2,0.1,0.4,0,0.6
							c0,0.6-0.2,1.2-0.5,1.8c-0.1,0.1-0.2,0.2-0.4,0.1C157.8,128.8,157.8,128.6,157.9,128.4L157.9,128.4z"/>
					</g>
					<g>
						<path class="st7" d="M153.2,125.3c0.2-0.2,1.4-1.4,1.6-1c0,0.1,0,0.1-0.1,0.2c-0.3,0.2-0.6,0.5-0.8,0.8
							c-0.1,0.2-0.3,0.6-0.6,0.4C153.1,125.6,153,125.4,153.2,125.3L153.2,125.3z"/>
					</g>
					<g>
						<path class="st7" d="M158.7,128.6c0.5,0.2,1.1,0.2,1.6,0.1c0.1,0,0.2,0,0.2,0.1c0,0.1,0,0.1-0.1,0.2c-0.1,0.1-0.3,0.1-0.4,0.1
							c-0.5,0.1-0.9,0.1-1.4,0c-0.1,0-0.2-0.2-0.2-0.3C158.4,128.6,158.5,128.5,158.7,128.6L158.7,128.6z"/>
					</g>
					<g>
						<path class="st7" d="M169.4,126.5c-0.6,0.3-1.3,0.8-1.4,1.6c0,0.2,0,0.5,0.1,0.7c0.1,0.2-0.2,0.3-0.3,0.1
							c-0.4-0.8-0.1-1.8,0.6-2.4c0.2-0.2,0.4-0.4,0.7-0.5c0.1-0.1,0.3,0,0.4,0.1C169.6,126.3,169.5,126.4,169.4,126.5L169.4,126.5z"
							/>
					</g>
					<g>
						<path class="st7" d="M158.2,118.1c0.6,0,1.2,0.1,1.8,0.3c0.1,0,0.1,0.1,0.1,0.2c0,0.1-0.1,0.1-0.2,0.1c-0.5-0.1-1.1-0.1-1.6,0
							C157.9,118.8,157.8,118.2,158.2,118.1L158.2,118.1z"/>
					</g>
					<g>
						<path class="st7" d="M164.5,123.4c0.3-0.3,0.6-0.7,0.9-1c0-0.1,0.1-0.1,0.2,0c0.1,0,0.1,0.1,0,0.2c-0.2,0.4-0.5,0.8-0.7,1.2
							C164.7,124.1,164.2,123.7,164.5,123.4L164.5,123.4z"/>
					</g>
					<g>
						<path class="st7" d="M164.7,127.6C164.7,127.6,164.7,127.6,164.7,127.6c-0.2,0-0.3-0.2-0.3-0.3c0,0,0.7-2.5,3.6-2.9
							c0.1,0,0.3,0.1,0.3,0.2c0,0.1-0.1,0.3-0.2,0.3c-2.5,0.2-3.1,2.4-3.1,2.5C165,127.5,164.9,127.6,164.7,127.6z"/>
					</g>
					<g>
						<path class="st7" d="M156.8,130.2C156.8,130.2,156.8,130.2,156.8,130.2c-3-0.6-4.1-4.2-4.1-4.3c0-0.1,0-0.3,0.2-0.3
							c0.1,0,0.3,0,0.3,0.2c0,0,1,3.4,3.6,4c0.1,0,0.2,0.2,0.2,0.3C157.1,130.1,156.9,130.2,156.8,130.2z"/>
					</g>
					<g>
						<path class="st7" d="M163.8,131.8c-0.1,0-0.2,0-0.2-0.1c-1.1-2-4.2-0.9-4.3-0.9c-0.1,0-0.3,0-0.4-0.1c0-0.1,0-0.3,0.1-0.4
							c0.1,0,3.6-1.3,4.9,1.1c0.1,0.1,0,0.3-0.1,0.4C163.9,131.8,163.8,131.8,163.8,131.8z"/>
					</g>
					<g>
						<path class="st7" d="M156.2,118.6C156.1,118.6,156.1,118.6,156.2,118.6c-0.2-0.1-0.3-0.2-0.2-0.4c1-2.7-0.7-4.1-0.7-4.1
							c-0.1-0.1-0.1-0.3,0-0.4c0.1-0.1,0.3-0.1,0.4,0c0,0,2,1.8,0.9,4.8C156.4,118.6,156.3,118.6,156.2,118.6z"/>
					</g>
				</g>
				<g>
					<g>
						<circle class="st5" cx="169.6" cy="113.9" r="8.1"/>
					</g>
					<g class="st6">
						<g>
							<path class="st7" d="M175.9,119.1c-1.5,1.8-3.8,3-6.3,3c-4.5,0-8.1-3.6-8.1-8.1c0-2.3,1-4.3,2.5-5.8
								c-1.1,1.4-1.8,3.2-1.8,5.1c0,4.5,3.6,8.1,8.1,8.1C172.5,121.4,174.5,120.5,175.9,119.1z"/>
						</g>
					</g>
					<g>
						<path class="st7" d="M177.7,114.8c-0.1-4.3-4.7-7-11-5.6l-2.7,2.9c-1.9,3.7,0.5,8.1,2.9,9.5
							C172.1,122.6,176.1,121.3,177.7,114.8z"/>
					</g>
					<g>
						<path class="st7" d="M169.6,122.3c-4.6,0-8.4-3.8-8.4-8.4c0-4.6,3.8-8.4,8.4-8.4c4.6,0,8.4,3.8,8.4,8.4
							C178.1,118.6,174.3,122.3,169.6,122.3z M169.6,106.1c-4.3,0-7.8,3.5-7.8,7.8s3.5,7.8,7.8,7.8c4.3,0,7.8-3.5,7.8-7.8
							S174,106.1,169.6,106.1z"/>
					</g>
					<g>
						<path class="st7" d="M167,121.8C167,121.8,166.9,121.8,167,121.8c-2.5-1.4-5-6-3.1-9.7c0,0,0,0,0,0l2.7-2.9c0,0,0.1,0,0.1,0
							c3.5-0.8,6.8-0.4,9,1.3c1.4,1.1,2.2,2.7,2.3,4.4c0,0.1-0.1,0.2-0.2,0.2c-0.1,0-0.2-0.1-0.2-0.2c0-1.6-0.8-3.1-2.1-4.1
							c-2-1.6-5.2-2-8.6-1.2l-2.6,2.9c-1.8,3.6,0.5,7.9,2.9,9.2c0.1,0,0.1,0.1,0.1,0.2C167.1,121.8,167.1,121.8,167,121.8z"/>
					</g>
					<g>
						<path class="st7" d="M177.2,111.3c-0.1,0-0.1,0-0.2-0.1c-3.7-4.9-9.7-2.5-10-2.4c-0.1,0.1-0.3,0-0.4-0.1
							c-0.1-0.1,0-0.3,0.1-0.4c0.1,0,6.6-2.6,10.6,2.6c0.1,0.1,0.1,0.3,0,0.4C177.4,111.3,177.3,111.3,177.2,111.3z"/>
					</g>
					<g>
						<path class="st5" d="M161.7,111.2l0.6,0.6c0.3,0.3,0.7,0.4,1.1,0.4c1.3-0.2,3.1-1.6,3.5-3.6c0.1-0.3,0-0.7-0.2-1
							c-0.3-0.4-0.7-0.9-0.7-0.9c-1.5-1.5-4.5,1-4.9,3C161.1,110.3,161.3,110.8,161.7,111.2z"/>
					</g>
					<g class="st6">
						<g>
							<path class="st7" d="M167,108.6c-0.5,1.9-2.2,3.4-3.5,3.6c-0.4,0-0.8-0.1-1.1-0.4l-0.6-0.6c-0.4-0.4-0.6-0.9-0.5-1.4
								c0-0.1,0-0.2,0.1-0.4c0.1,0.3,0.2,0.6,0.5,0.8l0.6,0.6c0.3,0.3,0.7,0.4,1.1,0.4c1.3-0.1,2.9-1.5,3.5-3.2
								C167,108.1,167,108.4,167,108.6z"/>
						</g>
					</g>
					<g>
						<path class="st7" d="M164.3,106.8c1-0.2,1.4,0.6,1.2,1.4c-0.4,1.1-1.3,2-2.5,2.3c-1.3,0.2-1.5-1-1-1.9c0.1-0.2,0.4,0,0.4,0.2
							c-0.4,0.9-0.1,1.5,0.9,1c0.7-0.3,2-1.6,1.7-2.4c-0.1-0.1-0.3-0.2-0.6-0.2c-0.1,0-0.2-0.1-0.2-0.2
							C164.2,107,164.3,106.8,164.3,106.8L164.3,106.8z"/>
					</g>
					<g>
						<path class="st7" d="M163.2,112.4c-0.4,0-0.8-0.1-1.1-0.4l-0.6-0.6l0,0c-0.5-0.4-0.7-1.1-0.6-1.7c0.3-1.4,1.8-3.1,3.3-3.6
							c0.8-0.3,1.6-0.1,2.1,0.4l0,0c0,0,0.4,0.5,0.7,0.9c0.3,0.3,0.4,0.8,0.3,1.2c-0.5,2.1-2.4,3.6-3.8,3.8
							C163.4,112.4,163.3,112.4,163.2,112.4z M161.9,111l0.6,0.6c0.2,0.2,0.6,0.3,0.9,0.3c1.2-0.1,2.8-1.5,3.3-3.4
							c0.1-0.2,0-0.5-0.1-0.7c-0.3-0.3-0.6-0.8-0.7-0.9c-0.4-0.4-0.9-0.4-1.5-0.2c-1.3,0.4-2.7,1.9-2.9,3.1
							C161.4,110.2,161.5,110.7,161.9,111L161.9,111z"/>
					</g>
					<g class="st20">
						<path class="st21" d="M167.7,110.4c-0.7,0.2-1.1,1.2-0.6,1.8c0,0,0,0.1,0.1,0.1c0.7,0.7,4.9-0.4,6.9,0.7
							c1.9,1.1,1.9-1.8-1.3-2.6C170.2,109.8,168.5,110.1,167.7,110.4z"/>
					</g>
					<g class="st20">
						<path class="st21" d="M166.4,116.9c0,0-1,0.7,0.1,2.1s3.2,1.9,3.7,1.1c0.5-0.8-1.2-1.2-1.6-1.9
							C168.2,117.4,167.1,116.1,166.4,116.9z"/>
					</g>
				</g>
				<g>
					<path class="st7" d="M158.3,112.8c0.7-0.1,1.4,0.3,1.8,0.8c0.1,0.1,0.3,0.3,0.1,0.4c-0.2,0.1-0.3-0.1-0.4-0.2
						c-0.4-0.4-0.9-0.6-1.5-0.5C158,113.4,157.9,112.9,158.3,112.8L158.3,112.8z"/>
				</g>
			</g>
			<g>
				<path class="st7" d="M169.6,105.5c3.6,0,6.6,2.2,7.8,5.4c0,0,0,0,0,0.1c0.4,0.9,0.6,1.9,0.6,3c0,4.6-3.8,8.4-8.4,8.4
					c-0.8,0-1.5-0.1-2.3-0.3c0.3,1.5,0.9,2.8,1.9,3.9c0.2,0,0.3,0,0.5,0c0.6,0,1,0.2,1.1,0.5c0.5,0.6,0.3,1.8-0.4,3.1
					c-0.4,0.8-1.2,1.1-1.9,1.1c-0.6,0-1.2-0.2-1.6-0.4c0,0,0,0,0,0c-1.9-1.2-2.7-2.7-3-3.6c-0.1,0.1-0.3,0.3-0.4,0.4
					c0,0-0.1,0.1-0.1,0.1c1.6,4.1,0.4,5.9-1.3,7c0.7,0.9,0.6,1.8,0.3,2.3c-0.3,0.5-0.9,0.8-1.5,0.8c-0.2,0-0.4,0-0.6-0.1
					c-1.7-0.5-2.7-2.3-3-3.6c-0.3-1.1,0.5-1.8,1-2.4c0.2-0.2,0.5-0.5,0.6-0.7c0.2-0.4-0.3-1.1-0.5-1.3l-0.2-0.1
					c-1.2,1.7-2.9,1.9-3.6,1.9c-0.4,0.9-1.1,1.5-2,1.5h0c-0.8,0-1.9-0.5-2.4-2.1c-0.4-1.3-0.5-2.3-0.1-3c0.3-0.6,0.9-1,1.8-1.3
					c1-0.3,1.3-0.8,1.4-0.9c-0.2-1.1-0.2-2-0.1-2.9c-1.2-0.5-1.6-1.4-1.8-2.1c-0.1,0-0.2-0.1-0.4-0.1c-0.9-0.4-1.5-1.2-1.6-1.9
					c-0.1-0.7-0.1-1.8,0.6-2.7c0.8-0.9,2.2-1.4,4.4-1.5c0.2,0,0.4,0,0.6,0c0.1,0,0.1,0,0.2,0h0h0c0.5,0,1,0,1.5,0.1
					c0.5-0.4,0.9-0.7,1.3-0.9c0,0,0.1-0.1,0.1-0.1c0.2-0.1,0.4-0.2,0.6-0.2c0.1,0,0.3,0,0.4,0c0.7,0,1.5,0.3,2,0.7
					c0-0.6,0.1-1.2,0.3-1.7l-0.1-0.1c-0.5-0.4-0.7-1.1-0.6-1.7c0.3-1.4,1.8-3.1,3.3-3.6c0.3-0.1,0.5-0.1,0.8-0.1
					c0.4,0,0.8,0.1,1.1,0.4C167.2,105.8,168.4,105.5,169.6,105.5 M169.6,105.4c-1.2,0-2.4,0.3-3.6,0.8c-0.3-0.2-0.7-0.3-1.1-0.3
					c-0.3,0-0.6,0-0.8,0.1c-1.6,0.5-3.1,2.2-3.4,3.7c-0.1,0.7,0.1,1.4,0.6,1.9l0,0c-0.1,0.4-0.2,0.9-0.3,1.3
					c-0.6-0.4-1.2-0.5-1.8-0.5c-0.1,0-0.3,0-0.4,0c-0.2,0-0.4,0.1-0.6,0.2c-0.1,0-0.1,0-0.2,0.1c-0.4,0.2-0.7,0.5-1.2,0.8
					c-0.5,0-1-0.1-1.4-0.1c0,0,0,0,0,0h0c-0.1,0-0.1,0-0.2,0c-0.2,0-0.4,0-0.6,0c-2.1,0.1-3.7,0.6-4.5,1.6c-0.8,1-0.7,2.1-0.6,2.9
					c0.1,0.8,0.8,1.6,1.8,2c0.1,0,0.2,0.1,0.3,0.1c0.2,0.7,0.6,1.6,1.8,2.1c-0.1,0.8-0.1,1.8,0.1,2.7c-0.1,0.1-0.5,0.5-1.3,0.8
					c-0.9,0.3-1.5,0.7-1.8,1.4c-0.4,0.8-0.4,1.8,0.1,3.1c0.5,1.6,1.7,2.2,2.5,2.2h0c0.9,0,1.7-0.6,2.1-1.5c0.8,0,2.4-0.3,3.5-1.8
					l0,0c0.3,0.3,0.6,0.8,0.5,1.1c-0.1,0.1-0.3,0.4-0.5,0.6c-0.5,0.6-1.3,1.4-1,2.5c0.4,1.4,1.4,3.2,3.1,3.7
					c0.2,0.1,0.4,0.1,0.6,0.1c0.7,0,1.3-0.3,1.6-0.9c0.3-0.6,0.4-1.4-0.2-2.3c1.5-1.1,2.9-2.9,1.2-7c0,0,0,0,0,0
					c0.1-0.1,0.2-0.1,0.3-0.2c0.4,1,1.3,2.3,3,3.4c0,0,0,0,0.1,0c0.5,0.2,1.1,0.4,1.7,0.4c0.9,0,1.7-0.4,2.1-1.2
					c0.7-1.3,0.8-2.6,0.3-3.2c-0.2-0.3-0.6-0.6-1.3-0.6c-0.1,0-0.3,0-0.4,0c-0.9-1-1.5-2.2-1.8-3.5c0.7,0.1,1.3,0.2,2,0.2
					c4.7,0,8.6-3.8,8.6-8.6c0-1-0.2-2.1-0.6-3c0,0,0,0,0-0.1c-0.6-1.6-1.7-2.9-3.1-3.9C173.1,105.9,171.4,105.4,169.6,105.4
					L169.6,105.4z"/>
			</g>
		</g>
		<g>
			<g>
				<path class="st18" d="M57.6,163.4c-1,2.9-4.3,4.6-7.3,3.7c0,0,1.7,2.1,1,5.3c-0.6,2.6-2.1,3.8-3.4,3.5c-0.5-0.1-0.7-0.7-0.4-1.1
					c-0.5,0.2-1-0.1-1-0.6c0-0.3,0-0.6,0.2-1.1c0,0-0.7,0.4-1.1,0.9c-0.4,0.4-0.2,0.8,0,1.5c0,0.2,0.1,0.4,0.1,0.5
					c0.9,3.5-5.1,3.4-4.5,1.2c0.1-0.3,0.2-0.5,0.5-0.8c0,0-0.2-0.2-0.3-0.7c-4.1,0.8-5.6-2.5-3.2-2.9c-1.3-3.1,1.4-5.6,3.6-5.2
					c0,0,0.1-0.7,1-1.2c-0.1,0-0.1,0-0.2-0.1c-1.5-0.7-3.1-2.4-3.6-4.4c-0.3-1.1-0.2-2.3,0.5-3.5c0.5-0.6,1.4-1.1,1.6-0.2
					c0,0,0.9-1,1.6-0.3c0.7,0.7,0.1,2.6,0.3,3.7c0.2,1.1,1.5,2.7,3.8,3.4c-0.6-1-1.2-2-1-3.1c0.1-0.5,0.3-0.9,0.8-1.4
					c0,0,2.1-5.4,6.3-4.7c2.4,0.4,3.8,1.8,4.6,3.5C57.9,160.6,58,162.1,57.6,163.4z"/>
			</g>
			<g class="st6">
				<path class="st7" d="M41.7,171c0,0-0.2-0.7-0.8-0.1c-0.6,0.6-0.5,3.1-0.7,3.9c-0.3,0.8-2.2,0.2-2.2,0.2s1.6,1.1,2.7,0.9
					s0.2-1.3,0.2-1.4c0-0.1,1.3-2.5,1.3-2.5"/>
			</g>
			<g class="st6">
				<path class="st7" d="M46.9,165.1c0,0-1.7,0.1-2.3,0.4c-0.3,0.1-1.3,0.4-2.1,0.6c-1.5-0.7-3.1-2.4-3.6-4.4l0.1-0.3
					c0,0,2,3.5,4.1,3.5s2.3-0.4,2.3-0.4L46.9,165.1z"/>
			</g>
			<g class="st6">
				<path class="st7" d="M57.6,163.4c-1,2.9-4.3,4.6-7.3,3.7c0,0,1.7,2.1,1,5.3c-0.6,2.6-2.1,3.8-3.4,3.5c-0.5-0.1-0.7-0.7-0.4-1.1
					c-0.5,0.2-1-0.1-1-0.6c0-0.3,0-0.6,0.2-1.1c0,0-0.7,0.4-1.1,0.9c-0.4,0.4-0.2,0.8,0,1.5c0,0.2,0.1,0.4,0.1,0.5
					c0.9,3.5-5.1,3.4-4.5,1.2c0.5,0.3,1.7,0.8,2.8,0.3c1.4-0.6,0.8-2.2,0.5-3.4c-0.3-1.2-1.2-1.3-1.2-1.3c-2.3-1.7-1.6-3.6-1.6-3.6
					c2.3,3.4,4.7,2.9,7.2-1.5c0,0,0,1.8,0.1,1.9s-1.5,2.2-1.5,2.2s-0.3,1.7,0.1,2.4c0.5,0.7,2.1,0,2.7-3.2c0.6-3.2-0.5-3.9-2.4-4.9
					c-1.5-0.8-2-3-2.1-3.8c0.5,2,4.5,4.4,8.1,3.2c3.8-1.2,3.4-6.2,3.4-6.2l0.1,0C58,160.6,58,162.1,57.6,163.4z"/>
			</g>
			<g class="st4">
				<g>
					<path class="st5" d="M42.4,166.5c0.3,0.2,0.6,0.4,0.9,0.5c-0.9,0.6-1,1.2-1,1.2c-2.2-0.4-4.9,2.1-3.6,5.2
						c-0.9,0.1-1.2,0.7-1.1,1.4c-0.8-0.8-0.7-1.9,0.6-2.1c-1.3-3.1,1.4-5.6,3.6-5.2C41.7,167.4,41.8,167,42.4,166.5z"/>
				</g>
			</g>
			<g class="st4">
				<g>
					<path class="st5" d="M40,163.9c-1.1-1.6-1.6-3.7-0.5-5.6c0.5-0.6,1.4-1.1,1.6-0.2c0,0,0.9-1,1.6-0.3c0.1,0.1,0.2,0.4,0.3,0.6
						c-0.7-0.4-1.4,0.4-1.4,0.4c-0.2-0.8-1.1-0.4-1.6,0.2C39,160.6,39.2,162.4,40,163.9z"/>
				</g>
			</g>
			<g class="st4">
				<g>
					<path class="st5" d="M57.2,158.8c-0.8-1.2-2.1-2.1-3.9-2.4c-4.2-0.7-6.3,4.7-6.3,4.7c-1.2,1.3-0.9,2.5-0.2,3.6
						c-0.9-1.4-1.7-2.8-0.2-4.4c0,0,2.1-5.4,6.3-4.7C55,156,56.4,157.3,57.2,158.8z"/>
				</g>
			</g>
			<g class="st4">
				<g>
					<path class="st5" d="M46.7,164.8C46.8,164.8,46.8,164.8,46.7,164.8L46.7,164.8C46.8,164.8,46.8,164.8,46.7,164.8z"/>
				</g>
			</g>
			<g>
				<path class="st7" d="M43.2,179.1c-0.9,0-1.7-0.3-2.1-0.8c-0.3-0.3-0.6-1,0.1-2c0-0.1-0.1-0.1-0.1-0.2c-1.7,0.3-3.2-0.1-4-1.1
					c-0.4-0.5-0.6-1.1-0.4-1.7c0.1-0.4,0.5-0.7,0.9-0.9c-0.4-1.4-0.2-2.8,0.7-3.8c0.8-1,2-1.6,3.2-1.5c0.1-0.2,0.3-0.5,0.6-0.8
					c-1.4-0.8-2.7-2.3-3.2-4c-0.5-1.5-0.4-2.9,0.4-4.2l0,0c0.4-0.5,1-1,1.6-0.8c0.1,0,0.3,0.1,0.4,0.2c0.2-0.1,0.5-0.3,0.9-0.3
					c0.3,0,0.6,0.1,0.9,0.4c0.6,0.6,0.5,1.6,0.4,2.5c0,0.5-0.1,1,0,1.4c0.1,0.7,0.9,2,2.6,2.8c-0.6-1.2-1-2.5,0.3-3.9
					c0.3-0.7,2.4-5.6,6.7-4.9c2.4,0.4,3.7,1.8,4.4,2.9c1,1.6,1.2,3.6,0.6,5.3l0,0c-0.9,2.8-3.9,4.5-6.8,4.1c0.5,0.9,1.1,2.6,0.6,4.8
					c-0.4,1.6-1.1,2.9-2.1,3.5c-0.6,0.4-1.2,0.5-1.7,0.3c-0.3-0.1-0.6-0.3-0.7-0.6c0-0.1-0.1-0.3-0.1-0.4c-0.1,0-0.3-0.1-0.4-0.1
					c-0.3-0.2-0.5-0.5-0.5-0.8c0-0.1,0-0.1,0-0.2c-0.1,0.1-0.1,0.1-0.2,0.2c-0.1,0.1-0.1,0.3,0,0.7c0,0.1,0.1,0.2,0.1,0.4v0
					c0,0.1,0.1,0.3,0.1,0.5c0.3,1.3-0.1,2.3-1.3,2.9C44.3,178.9,43.7,179.1,43.2,179.1z M41.3,175.2c0.1,0,0.3,0.1,0.4,0.3
					c0.1,0.3,0.2,0.5,0.2,0.5c0.1,0.1,0.1,0.3,0,0.5c-0.3,0.4-0.6,0.9-0.3,1.3c0.4,0.5,1.8,0.7,2.8,0.3c0.6-0.3,1.2-0.8,0.9-2
					c0-0.2-0.1-0.3-0.1-0.5v0c0-0.1,0-0.2-0.1-0.4c-0.1-0.5-0.2-1,0.2-1.4c0.5-0.5,1.2-0.9,1.2-0.9c0.1-0.1,0.3-0.1,0.4,0
					c0.1,0.1,0.1,0.3,0.1,0.4c-0.1,0.3-0.2,0.6-0.2,0.9c0,0.1,0.1,0.2,0.2,0.3c0.1,0.1,0.2,0.1,0.4,0c0.1-0.1,0.3,0,0.4,0.1
					c0.1,0.1,0.1,0.3,0,0.4c-0.1,0.1-0.1,0.2,0,0.4c0,0.1,0.1,0.2,0.2,0.2c0.4,0.1,0.8,0,1.2-0.2c0.8-0.5,1.5-1.6,1.8-3
					c0.7-3-0.9-5-1-5c-0.1-0.1-0.1-0.3,0-0.4c0.1-0.1,0.3-0.2,0.4-0.1c2.8,0.9,5.9-0.7,6.8-3.4l0,0c0.5-1.5,0.3-3.3-0.6-4.7
					c-0.6-1-1.7-2.2-3.9-2.5c-3.9-0.6-5.9,4.4-5.9,4.5c0,0,0,0.1-0.1,0.1c-1.2,1.3-0.7,2.5,0.3,4c0.1,0.1,0.1,0.3,0,0.4
					c-0.1,0.1-0.2,0.2-0.4,0.1c-2.4-0.7-3.9-2.4-4.1-3.7c-0.1-0.4,0-1,0-1.6c0.1-0.8,0.1-1.6-0.2-2c-0.1-0.1-0.2-0.1-0.3-0.1
					c-0.3,0-0.7,0.3-0.7,0.4c-0.1,0.1-0.2,0.1-0.4,0.1c-0.1,0-0.2-0.1-0.3-0.3c0,0,0-0.2-0.1-0.2c-0.1,0-0.5,0.1-0.8,0.5
					c-0.8,1.3-0.6,2.7-0.3,3.6c0.6,1.6,1.9,3.2,3.4,3.8c0.1,0,0.2,0.2,0.2,0.3s0,0.3-0.1,0.4c-0.7,0.5-0.9,1-0.9,1
					c0,0.2-0.2,0.3-0.4,0.3c-1-0.2-2.1,0.3-2.8,1.2c-0.8,1-0.9,2.3-0.4,3.5c0,0.1,0,0.2,0,0.3c0,0.1-0.1,0.2-0.3,0.2
					c-0.4,0.1-0.7,0.2-0.8,0.5c-0.1,0.3,0,0.6,0.3,0.9C38.3,174.9,39.5,175.5,41.3,175.2C41.3,175.2,41.3,175.2,41.3,175.2z"/>
			</g>
			<g>
				<path class="st7" d="M42.6,165.8c0.9-0.4,1.9-0.6,2.9-0.7c0.1,0,0.2,0.1,0.2,0.2c0,0.1-0.1,0.2-0.2,0.2
					c-0.9,0.2-1.8,0.5-2.6,0.9C42.5,166.8,42.1,166.1,42.6,165.8L42.6,165.8z"/>
			</g>
			<g>
				<path class="st7" d="M50.2,167.4c-0.3-0.1-1.8-1-1.4-1.3c0.1-0.1,0.2-0.1,0.3,0c0.2,0.1,0.4,0.3,0.7,0.4
					c0.2,0.1,0.5,0.2,0.7,0.3c0.2,0.1,0.3,0.3,0.2,0.5C50.7,167.4,50.4,167.5,50.2,167.4L50.2,167.4z"/>
			</g>
			<g>
				<path class="st7" d="M41,175.7c-0.5-1-0.3-2.3,0.3-3.2c0.2-0.3,0.4-0.6,0.7-0.8v0.4c-0.4-0.4-0.5-1-0.6-1.6
					c0-0.3,0.4-0.3,0.4-0.1c0.1,0.4,0.2,0.9,0.5,1.3c0.1,0.1,0.1,0.3,0,0.4c-0.6,0.7-1,1.6-0.9,2.5c0,0.3,0.1,0.6,0.2,0.8
					C41.9,175.8,41.3,176.2,41,175.7L41,175.7z"/>
			</g>
			<g>
				<path class="st7" d="M46.4,172.9c0.4-0.6,0.7-1.2,1.2-1.7c0.4-0.5,0.6-1.2,0.9-1.8c0.1-0.4,0.3-0.8,0.4-1.3
					c0-0.1,0.1-0.2,0.2-0.2c0.1,0,0.2,0.1,0.2,0.2c0,0.5-0.2,0.9-0.3,1.4c-0.2,0.7-0.4,1.3-0.8,1.9c-0.4,0.6-0.7,1.1-1,1.7
					C46.8,173.7,46.1,173.3,46.4,172.9L46.4,172.9z"/>
			</g>
			<g>
				<path class="st7" d="M41.9,176c0.3,0.3,0.7,0.5,1.2,0.6c0.1,0,0.2,0.1,0.1,0.3c0,0.1-0.1,0.1-0.2,0.1c-0.5,0-1-0.1-1.4-0.4
					c-0.1,0-0.2-0.1-0.3-0.2C40.8,176,41.6,175.4,41.9,176L41.9,176z"/>
			</g>
			<g>
				<ellipse class="st7" cx="49.1" cy="163.7" rx="0.4" ry="0.4"/>
			</g>
			<g>
				<path class="st7" d="M48.6,162.1c0,0-1-0.8-0.7-2.1c0.4-1.3,1.5-1.7,1.9-1C50.3,160,50,162.8,48.6,162.1z"/>
			</g>
			<g>
				<ellipse class="st5" cx="49.6" cy="160.2" rx="0.3" ry="0.4"/>
			</g>
			<g>
				<g>
					<path class="st7" d="M51.3,164.3c-0.3-0.2-0.4-0.7-0.2-1c0.2-0.3,0.6-0.6,1.2-0.8c1.3-0.4,2.5-0.1,2.5,0.7
						C54.8,164,53.1,165.5,51.3,164.3z"/>
				</g>
				<g>
					<ellipse class="st5" cx="52.9" cy="162.8" rx="0.6" ry="0.5"/>
				</g>
				<g>
					<g>
						<path class="st7" d="M51.3,164.4c-0.4-0.3-0.5-0.9-0.2-1.3c0.6-0.7,1.5-1,2.3-1c1.1,0,2.1,0.6,1.3,1.7
							C54,165,52.3,165.2,51.3,164.4L51.3,164.4z M51.4,164.2c1,0.7,2.4,0.5,3.1-0.5c0.8-1.3-1.4-1.3-2.2-1
							C51.6,162.8,50.7,163.6,51.4,164.2L51.4,164.2z"/>
					</g>
				</g>
			</g>
			<g>
				<g>
					<path class="st7" d="M48.6,162.2c-0.6-0.5-1-1.4-0.8-2.2c0.1-0.6,0.5-1.2,1.1-1.4c1.3-0.5,1.4,1.4,1.3,2.3
						C50.1,161.6,49.5,162.7,48.6,162.2L48.6,162.2z M48.7,162c0.7,0.4,1.1-0.6,1.2-1.2c0.1-0.5,0.1-1.7-0.4-1.9
						c-0.6-0.2-1.2,0.6-1.3,1.2C47.9,160.8,48.2,161.5,48.7,162L48.7,162z"/>
				</g>
			</g>
			<g>
				<path class="st7" d="M44.1,168.1c-0.1,0-0.2-0.1-0.2,0c0,0,0,0.1-0.1,0.1c0,0.2,0,0.4,0.2,0.5c0.1,0,0.1,0.2,0,0.3
					c-0.5,0.1-0.8-0.6-0.5-1c0.2-0.3,0.6-0.2,0.7,0C44.4,168,44.2,168.2,44.1,168.1L44.1,168.1z"/>
			</g>
			<g>
				<path class="st18" d="M52.3,156.7c0.1-1.5,0-2.8-0.5-4.1c-1.5-0.3-1.2-2.5,0.4-2.5c1.9,0,2.2,1.8,1.2,2.1c0,0,0.8,1.6,0,4.6"/>
			</g>
			<g>
				<path class="st18" d="M56.3,159.2c1.8-1.5,1.6-3.4,1.6-3.4c1.1-0.2,1.5-0.9,1.2-1.9c-0.3-1-1.9-1.4-2.5-0.4s0.2,1.7,0.2,1.7
					s0.1,2.3-1.3,3.4"/>
			</g>
			<g>
				<path class="st7" d="M52,156.6c0.1-1.3-0.1-2.7-0.6-4l0.2,0.2c-0.7-0.1-1.4-0.9-1.2-1.7c0.1-1,1.1-1.6,2.1-1.4
					c0.5,0.1,1.1,0.3,1.4,0.7c0.6,0.6,0.5,1.8-0.4,2.1l0.2-0.5c0.3,0.8,0.4,1.6,0.4,2.5c0,0.6-0.1,1.2-0.2,1.8l-0.1,0.6
					c0,0.1-0.2,0.2-0.3,0.2c-0.1,0-0.2-0.2-0.2-0.3c0.2-1.1,0.3-2.3,0.2-3.4c0-0.3-0.1-0.5-0.2-0.8c0-0.1-0.1-0.2-0.1-0.2
					c-0.1-0.2,0-0.4,0.2-0.5c0.2-0.1,0.3-0.2,0.3-0.4c0-0.7-0.8-1.1-1.5-1c-0.7,0-1.1,0.9-0.7,1.4c0.1,0.2,0.3,0.3,0.5,0.4
					c0.1,0,0.2,0.1,0.2,0.2c0.2,0.7,0.4,1.4,0.5,2.1c0.1,0.7,0.1,1.4,0,2.1c0,0.1-0.1,0.2-0.3,0.2C52.1,156.9,52,156.8,52,156.6
					L52,156.6z"/>
			</g>
			<g>
				<path class="st7" d="M56.1,159c0.9-0.8,1.5-1.9,1.5-3.1c0-0.2,0.1-0.3,0.3-0.4c0.5-0.1,1-0.3,1-0.9c0-0.5-0.2-1-0.7-1.2
					c-0.8-0.4-1.4,0.2-1.4,1c0,0.3,0.1,0.5,0.3,0.7c0,0,0,0.1,0,0.1c0,0.4,0,0.7-0.1,1c-0.1,0.6-0.3,1.3-0.7,1.8
					c-0.2,0.3-0.4,0.5-0.7,0.7c-0.1,0.1-0.3,0.1-0.4,0c-0.1-0.1-0.1-0.3,0-0.4c0.8-0.8,1.1-2.1,1.1-3.2l0.1,0.2
					c-0.6-0.6-0.7-1.5-0.3-2.2c0.4-0.7,1.4-1,2.1-0.6c0.9,0.4,1.4,1.6,1,2.5c-0.3,0.5-0.9,0.8-1.4,0.9l0.3-0.4c0,0.7-0.2,1.4-0.5,2
					c-0.3,0.6-0.8,1.2-1.3,1.6c-0.1,0.1-0.3,0.1-0.4,0C56,159.2,56,159.1,56.1,159L56.1,159z"/>
			</g>
			<g class="st6">
				<path class="st7" d="M45.8,162.1c0-0.1,0-0.2,0-0.3C45.8,161.9,45.8,162,45.8,162.1z"/>
			</g>
		</g>
		<g class="st22">
			<g class="st23">
				<path class="st5" d="M59.6,26.5l0.4-0.6c0.1-0.2,0.4-0.2,0.5,0l0.4,0.6c0,0,0.1,0.1,0.1,0.1l0.6,0.4c0.2,0.1,0.2,0.4,0,0.5
					l-0.6,0.4c0,0-0.1,0.1-0.1,0.1l-0.4,0.6c-0.1,0.2-0.4,0.2-0.5,0l-0.4-0.6c0,0-0.1-0.1-0.1-0.1l-0.6-0.4c-0.2-0.1-0.2-0.4,0-0.5
					l0.6-0.4C59.5,26.6,59.6,26.6,59.6,26.5z"/>
			</g>
			<g class="st23">
				<path class="st5" d="M97.1,141.3l0.4-0.6c0.1-0.2,0.4-0.2,0.5,0l0.4,0.6c0,0,0.1,0.1,0.1,0.1l0.6,0.4c0.2,0.1,0.2,0.4,0,0.5
					l-0.6,0.4c0,0-0.1,0.1-0.1,0.1l-0.4,0.6c-0.1,0.2-0.4,0.2-0.5,0l-0.4-0.6c0,0-0.1-0.1-0.1-0.1l-0.6-0.4c-0.2-0.1-0.2-0.4,0-0.5
					l0.6-0.4C97.1,141.3,97.1,141.3,97.1,141.3z"/>
			</g>
			<g class="st23">
				<path class="st5" d="M98.9,57.4l0.2-0.4c0.1-0.1,0.2-0.1,0.3,0l0.2,0.4c0,0,0,0.1,0.1,0.1l0.4,0.2c0.1,0.1,0.1,0.2,0,0.3
					l-0.4,0.2c0,0-0.1,0-0.1,0.1l-0.2,0.4c-0.1,0.1-0.2,0.1-0.3,0l-0.2-0.4c0,0,0-0.1-0.1-0.1L98.4,58c-0.1-0.1-0.1-0.2,0-0.3
					L98.9,57.4C98.8,57.5,98.9,57.4,98.9,57.4z"/>
			</g>
			<g class="st23">
				<path class="st5" d="M54.1,105l0.2-0.4c0.1-0.1,0.2-0.1,0.3,0l0.2,0.4c0,0,0,0.1,0.1,0.1l0.4,0.2c0.1,0.1,0.1,0.2,0,0.3
					l-0.4,0.2c0,0-0.1,0-0.1,0.1l-0.2,0.4c-0.1,0.1-0.2,0.1-0.3,0l-0.2-0.4c0,0,0-0.1-0.1-0.1l-0.4-0.2c-0.1-0.1-0.1-0.2,0-0.3
					L54.1,105C54,105.1,54,105,54.1,105z"/>
			</g>
			<g class="st23">
				<path class="st5" d="M156.6,25.3l0.2-0.4c0.1-0.1,0.2-0.1,0.3,0l0.2,0.4c0,0,0,0.1,0.1,0.1l0.4,0.2c0.1,0.1,0.1,0.2,0,0.3
					l-0.4,0.2c0,0-0.1,0-0.1,0.1l-0.2,0.4c-0.1,0.1-0.2,0.1-0.3,0l-0.2-0.4c0,0,0-0.1-0.1-0.1l-0.4-0.2c-0.1-0.1-0.1-0.2,0-0.3
					L156.6,25.3C156.6,25.3,156.6,25.3,156.6,25.3z"/>
			</g>
			<g class="st23">
				<path class="st5" d="M127.3,145.2l0.2-0.4c0.1-0.1,0.2-0.1,0.3,0l0.2,0.4c0,0,0,0.1,0.1,0.1l0.4,0.2c0.1,0.1,0.1,0.2,0,0.3
					l-0.4,0.2c0,0-0.1,0-0.1,0.1l-0.2,0.4c-0.1,0.1-0.2,0.1-0.3,0l-0.2-0.4c0,0,0-0.1-0.1-0.1l-0.4-0.2c-0.1-0.1-0.1-0.2,0-0.3
					L127.3,145.2C127.3,145.3,127.3,145.2,127.3,145.2z"/>
			</g>
			<g class="st23">
				<ellipse class="st5" cx="104.1" cy="27.9" rx="0.5" ry="0.5"/>
			</g>
			<g class="st23">
				<ellipse class="st5" cx="133.3" cy="56.1" rx="0.5" ry="0.5"/>
			</g>
			<g class="st23">
				<circle class="st5" cx="177.4" cy="45.1" r="0.5"/>
			</g>
			<g class="st23">
				<ellipse class="st5" cx="144.4" cy="76.2" rx="0.7" ry="0.7"/>
			</g>
			<g class="st23">
				<circle class="st5" cx="54.5" cy="73.6" r="0.7"/>
			</g>
			<g class="st23">
				<ellipse class="st5" cx="55.5" cy="149.6" rx="0.7" ry="0.7"/>
			</g>
			<g class="st23">
				<ellipse class="st5" cx="173.5" cy="128.5" rx="0.7" ry="0.7"/>
			</g>
			<g class="st23">
				<ellipse class="st5" cx="174.1" cy="103.2" rx="0.7" ry="0.7"/>
			</g>
			<g class="st23">
				<ellipse class="st5" cx="123.8" cy="118.4" rx="0.6" ry="0.6"/>
			</g>
			<g class="st23">
				<circle class="st5" cx="88.8" cy="107.4" r="0.6"/>
			</g>
		</g>
		<g class="st22">
			<g class="st23">
				<path class="st5" d="M172.4,240.2l-0.4,0.6c-0.1,0.2-0.4,0.2-0.5,0l-0.4-0.6c0,0-0.1-0.1-0.1-0.1l-0.6-0.4
					c-0.2-0.1-0.2-0.4,0-0.5l0.6-0.4c0,0,0.1-0.1,0.1-0.1l0.4-0.6c0.1-0.2,0.4-0.2,0.5,0l0.4,0.6c0,0,0.1,0.1,0.1,0.1l0.6,0.4
					c0.2,0.1,0.2,0.4,0,0.5l-0.6,0.4C172.5,240.1,172.4,240.2,172.4,240.2z"/>
			</g>
			<g class="st23">
				<path class="st5" d="M134.9,125.5l-0.4,0.6c-0.1,0.2-0.4,0.2-0.5,0l-0.4-0.6c0,0-0.1-0.1-0.1-0.1L133,125
					c-0.2-0.1-0.2-0.4,0-0.5l0.6-0.4c0,0,0.1-0.1,0.1-0.1l0.4-0.6c0.1-0.2,0.4-0.2,0.5,0l0.4,0.6c0,0,0.1,0.1,0.1,0.1l0.6,0.4
					c0.2,0.1,0.2,0.4,0,0.5l-0.6,0.4C134.9,125.4,134.9,125.4,134.9,125.5z"/>
			</g>
			<g class="st23">
				<path class="st5" d="M133.1,209.3l-0.2,0.4c-0.1,0.1-0.2,0.1-0.3,0l-0.2-0.4c0,0,0-0.1-0.1-0.1l-0.4-0.2c-0.1-0.1-0.1-0.2,0-0.3
					l0.4-0.2c0,0,0.1,0,0.1-0.1l0.2-0.4c0.1-0.1,0.2-0.1,0.3,0l0.2,0.4c0,0,0,0.1,0.1,0.1l0.4,0.2c0.1,0.1,0.1,0.2,0,0.3
					L133.1,209.3C133.2,209.2,133.1,209.3,133.1,209.3z"/>
			</g>
			<g class="st23">
				<path class="st5" d="M177.9,161.7l-0.2,0.4c-0.1,0.1-0.2,0.1-0.3,0l-0.2-0.4c0,0,0-0.1-0.1-0.1l-0.4-0.2c-0.1-0.1-0.1-0.2,0-0.3
					l0.4-0.2c0,0,0.1,0,0.1-0.1l0.2-0.4c0.1-0.1,0.2-0.1,0.3,0l0.2,0.4c0,0,0,0.1,0.1,0.1l0.4,0.2c0.1,0.1,0.1,0.2,0,0.3
					L177.9,161.7C178,161.7,178,161.7,177.9,161.7z"/>
			</g>
			<g class="st23">
				<path class="st5" d="M75.4,241.5l-0.2,0.4c-0.1,0.1-0.2,0.1-0.3,0l-0.2-0.4c0,0,0-0.1-0.1-0.1l-0.4-0.2c-0.1-0.1-0.1-0.2,0-0.3
					l0.4-0.2c0,0,0.1,0,0.1-0.1l0.2-0.4c0.1-0.1,0.2-0.1,0.3,0l0.2,0.4c0,0,0,0.1,0.1,0.1l0.4,0.2c0.1,0.1,0.1,0.2,0,0.3L75.4,241.5
					C75.4,241.4,75.4,241.4,75.4,241.5z"/>
			</g>
			<g class="st23">
				<path class="st5" d="M104.7,121.6l-0.2,0.4c-0.1,0.1-0.2,0.1-0.3,0l-0.2-0.4c0,0,0-0.1-0.1-0.1l-0.4-0.2c-0.1-0.1-0.1-0.2,0-0.3
					l0.4-0.2c0,0,0.1,0,0.1-0.1l0.2-0.4c0.1-0.1,0.2-0.1,0.3,0l0.2,0.4c0,0,0,0.1,0.1,0.1l0.4,0.2c0.1,0.1,0.1,0.2,0,0.3
					L104.7,121.6C104.7,121.5,104.7,121.5,104.7,121.6z"/>
			</g>
			<g class="st23">
				<ellipse class="st5" cx="127.9" cy="238.7" rx="0.5" ry="0.5"/>
			</g>
			<g class="st23">
				<ellipse class="st5" cx="98.7" cy="210.6" rx="0.5" ry="0.5"/>
			</g>
			<g class="st23">
				<circle class="st5" cx="54.6" cy="221.6" r="0.5"/>
			</g>
			<g class="st23">
				<ellipse class="st5" cx="87.6" cy="190.5" rx="0.7" ry="0.7"/>
			</g>
			<g class="st23">
				<circle class="st5" cx="177.5" cy="193.1" r="0.7"/>
			</g>
			<g class="st23">
				<ellipse class="st5" cx="176.5" cy="117.2" rx="0.7" ry="0.7"/>
			</g>
			<g class="st23">
				<ellipse class="st5" cx="58.5" cy="138.2" rx="0.7" ry="0.7"/>
			</g>
			<g class="st23">
				<ellipse class="st5" cx="57.9" cy="163.5" rx="0.7" ry="0.7"/>
			</g>
			<g class="st23">
				<ellipse class="st5" cx="108.2" cy="148.3" rx="0.6" ry="0.6"/>
			</g>
			<g class="st23">
				<circle class="st5" cx="143.2" cy="159.4" r="0.6"/>
			</g>
		</g>
	</g>
</g>
</svg>
