<?xml version="1.0" encoding="utf-8"?>
<!-- Generator: Adobe Illustrator 28.4.1, SVG Export Plug-In . SVG Version: 6.00 Build 0)  -->
<svg version="1.1" id="Layer_1" xmlns="http://www.w3.org/2000/svg" xmlns:xlink="http://www.w3.org/1999/xlink" x="0px" y="0px"
	 viewBox="0 0 720 720" style="enable-background:new 0 0 720 720;" xml:space="preserve">
<style type="text/css">
	.st0{fill:#29CC7A;}
	.st1{fill:#8F473B;}
	.st2{fill:#532116;}
	.st3{fill:#3F180E;}
	.st4{fill-rule:evenodd;clip-rule:evenodd;fill:#C4C4C4;}
	.st5{fill-rule:evenodd;clip-rule:evenodd;fill:#4F7DE5;}
	.st6{fill-rule:evenodd;clip-rule:evenodd;fill:#376CE4;}
	.st7{fill:#ECC896;}
	.st8{fill:url(#SVGID_1_);}
	.st9{opacity:0.1;fill:none;stroke:#000000;stroke-width:2;enable-background:new    ;}
	.st10{fill-rule:evenodd;clip-rule:evenodd;fill:#F7E9CC;}
	.st11{fill-rule:evenodd;clip-rule:evenodd;fill:#3F180E;}
	.st12{fill:#34365D;}
	.st13{fill-rule:evenodd;clip-rule:evenodd;fill:#2A2B4A;}
	.st14{fill:#F7E9CC;}
	.st15{fill-rule:evenodd;clip-rule:evenodd;fill:#532116;}
	.st16{fill:#722D1E;}
	.st17{opacity:0.2;fill:none;stroke:#000000;stroke-width:2;enable-background:new    ;}
	.st18{opacity:0.5;fill:#ECC896;enable-background:new    ;}
	.st19{fill:#E94B5E;}
	.st20{fill:url(#SVGID_00000148644840234887835090000014360396925539942558_);}
	.st21{fill:#A43945;}
	.st22{fill:#201E2E;}
	.st23{fill-rule:evenodd;clip-rule:evenodd;}
	.st24{fill:#4F7DE5;}
	.st25{fill-rule:evenodd;clip-rule:evenodd;fill:#3168E3;}
	.st26{fill:#FFFFFF;}
	.st27{fill:none;stroke:#201E2E;stroke-width:2;stroke-linecap:round;}
	.st28{fill:#3168E3;}
	.st29{fill-rule:evenodd;clip-rule:evenodd;fill:#201E2E;}
	.st30{fill:#7AAEF7;}
	.st31{opacity:0.8;fill-rule:evenodd;clip-rule:evenodd;fill:#3168E3;enable-background:new    ;}
	.st32{fill:#2D59BF;}
	.st33{fill:#D73D4F;}
	.st34{fill:none;stroke:#3F180E;stroke-width:2;stroke-linecap:round;}
	.st35{fill-rule:evenodd;clip-rule:evenodd;fill:#FFFFFF;}
	.st36{opacity:0.2;fill:#201E2E;enable-background:new    ;}
	.st37{fill-rule:evenodd;clip-rule:evenodd;fill:#722D1E;}
	.st38{fill-rule:evenodd;clip-rule:evenodd;fill:#D73D4F;}
	.st39{fill:#77382C;}
	.st40{opacity:0.6;fill-rule:evenodd;clip-rule:evenodd;enable-background:new    ;}
	.st41{opacity:0.3;fill-rule:evenodd;clip-rule:evenodd;fill:#190A06;enable-background:new    ;}
	.st42{opacity:0.4;fill:#532116;enable-background:new    ;}
	.st43{fill:#D18D5E;}
	.st44{fill:none;stroke:#8F473B;stroke-width:2;}
	.st45{fill:#2A2B4A;}
	.st46{opacity:0.4;fill:#2A2B4A;enable-background:new    ;}
	.st47{fill:#13844B;}
	.st48{fill:#A50E7A;}
	.st49{fill:#EB459F;}
	.st50{fill-rule:evenodd;clip-rule:evenodd;fill:#D11583;}
	.st51{fill:none;stroke:#A50E7A;stroke-width:2;stroke-linecap:round;}
	.st52{fill:#FFC619;}
	.st53{opacity:0.4;fill-rule:evenodd;clip-rule:evenodd;fill:#D11583;enable-background:new    ;}
	.st54{fill:#F3B700;}
	.st55{fill:#FF78B9;}
	.st56{fill:#FFFFFF;filter:url(#Adobe_OpacityMaskFilter);}
	
		.st57{mask:url(#path-216-inside-1_464_1715_00000041268416527002682410000003604045453769466797_);fill:none;stroke:#FFC619;stroke-width:4;}
	.st58{fill:#E13193;}
	.st59{opacity:0.23;fill:#FFFFFF;enable-background:new    ;}
	.st60{fill:none;stroke:#D11583;stroke-width:2;stroke-linecap:round;}
	.st61{fill:#8F473B;stroke:#532116;stroke-width:2;}
	.st62{opacity:0.5;enable-background:new    ;}
	.st63{fill:#1F844F;}
</style>
<g>
	<g>
		<g>
			<path class="st0" d="M483.3,563.4c-5.7-21.3-27.6-33.9-48.8-28.2l-2.8,0.8l0.8,2.8c5.7,21.3,27.6,33.9,48.8,28.2l2.8-0.8
				L483.3,563.4z"/>
			<path class="st1" d="M587,254.6h-3l4.9,12.8l1.1-8.6l9.1-17.1l3.7-1.5l-0.5-0.9l-4.2,0.9L587,254.6z"/>
			<path class="st2" d="M237.2,179.6H280c12.1,0,21.9,9.8,21.9,21.9v132.9c0,12.1-9.8,21.9-21.9,21.9h-42.8
				c-12.1,0-21.9-9.8-21.9-21.9V201.5C215.3,189.4,225.1,179.6,237.2,179.6z"/>
			<path class="st3" d="M277.3,179.6h34.3c12.1,0,21.9,9.8,21.9,21.9v132.9c0,12.1-9.8,21.9-21.9,21.9h-34.3
				c-12.1,0-21.9-9.8-21.9-21.9V201.5C255.5,189.4,265.3,179.6,277.3,179.6z"/>
			<path class="st4" d="M388.7,267.9c20.1,23.4,33.5,37.2,52.8,53.4c7.6,6.4,18.8,5.6,25.8-1.4l3.9-3.9l0,0.2
				c20.6-7.7,36.2-26.3,43.4-42.4l-0.5-0.8l22-22.1L501.5,216c-12.3,8.9-22.8,14.1-30.3,17.7c-2.9,1.4-5.4,2.6-7.3,3.7l-20.4-26.1
				L388.7,267.9z"/>
			<path class="st5" d="M388.7,267.9c20.1,23.4,33.5,37.2,52.8,53.4c7.6,6.4,18.8,5.6,25.8-1.4l3.9-3.9l0,0.2
				c20.6-7.7,36.2-26.3,43.4-42.4l-0.5-0.8l22-22.1L501.5,216c-12.3,8.9-22.8,14.1-30.3,17.7c-2.9,1.4-5.4,2.6-7.3,3.7l-20.4-26.1
				L388.7,267.9z"/>
			<path class="st6" d="M527.1,260.1c0.1-1,0.3-2,0.4-2.9l-34.7-17.9l-15.4-8.5c1.2,10.2,2.3,15.9,8.3,26.4
				c-9.4,1.1-14.8,0.2-24.3-4.5l-6.8-11.9l6.2-7l-32,12.8l-2,61.7c4.7,4.3,9.5,8.5,14.8,13c7.6,6.4,18.8,5.6,25.8-1.4l3.9-3.9l0,0.2
				c20.6-7.7,36.2-26.3,43.4-42.4l-0.5-0.8L527.1,260.1z"/>
			<path class="st7" d="M456.2,225.4l-12.3-15.4c-15.6-19.6-44.9-20.8-62.1-2.7c-16,16.8-15,43.5,2.2,59.1l24.2,21.8
				c16.2-23.6,30.7-40.1,52.5-54.5l0,0l4.7-3.2l-2.2-3.8c-0.7-1.2-2-1.9-3.3-1.7L456.2,225.4z"/>
			
				<linearGradient id="SVGID_1_" gradientUnits="userSpaceOnUse" x1="391.2633" y1="294.3641" x2="443.9242" y2="261.3477" gradientTransform="matrix(1 0 0 -1 0 719.8898)">
				<stop  offset="0" style="stop-color:#2A2B4A"/>
				<stop  offset="1" style="stop-color:#34365D"/>
			</linearGradient>
			<path class="st8" d="M456.9,569.1l57.5-28.7l-2.6-7.9c-2.2-6.9-1.8-14.4,1.2-21c3.1-6.9,1.2-15-4.7-19.8l-11.3-9.2
				c-6.6-5.4-11.3-12.7-13.7-20.9c-11.9-40.8-25.3-67.5-50.4-112.4l-99.3,24.9c25.5,52.4,39.2,84.2,76.9,126
				c5.6,6.2,8.8,14.2,8.8,22.5v3.9c0,12,7.9,22.7,19.5,26.1c6.8,2,12.5,6.5,16,12.7L456.9,569.1z"/>
			<path class="st9" d="M398.4,384.6l53.8,99.1c1.5,2.8,3.6,5.2,6.1,7.1l0.4,0.3c5,3.8,8.1,9.5,8.4,15.8l0,0c0.2,3.1,1,6.2,2.5,9
				l15.8,29"/>
			<path class="st10" d="M443,208l13.1,17.3l-9.2,0.6l-9.6-12c-11.7-14.6-31-20.2-48.4-14.6C406.1,188.4,429.5,191.6,443,208z"/>
			<path class="st7" d="M453.9,238.2l-10.8,8.7L409,200.6c18.3,7.3,25.9,18.6,36.8,39L453.9,238.2z"/>
			<path class="st11" d="M365.3,195c17.8,0.8,52.3,2.3,61.4,34.6c6,21.3-2.6,41.4-13.9,58.8l4.4,3.6l1.8-1.4l10.7,7
				c25.9-43.3,30-111.9-53.1-114.5l-12.7,11.8C364.3,194.9,364.8,194.9,365.3,195z"/>
			<path class="st12" d="M363.2,538.5c28.6,6.2,14.1-47.7,28.6-84.6c17.7-28.5,25.2-48.7,32.2-76c4.2-16.3,7.4-33,5.9-49.8l-125.1-6
				l-5,34.2c-2.7,18.3,0.6,36.9,9.4,53.2c-16.3,89.2-40.2,100.2-16.3,117.3L363.2,538.5z"/>
			<path class="st13" d="M282.9,513.6l31.3,10.9L292.6,511c-3.6-2-6.4-5.1-8.6-8.9C282.8,506.7,282.4,510.4,282.9,513.6z
				 M295.9,464.6c4.6,1.9,10.1,6.1,16.6,13.5c-5-9.2-9.4-15.4-14.4-21C297.4,459.7,296.6,462.2,295.9,464.6z M303.7,435.7l36.5-11.7
				h6.2c5.1,0,9.2-4.1,9.2-9.2v-35.5c28.6-8.8,38.5-9.6,64.6-11.5c2-0.1,4.1-0.3,6.4-0.5c0-0.1,0-0.2,0.1-0.3
				c-13.2-8.6-39.1-25.3-40.3-25.2c-0.3,0-1.8,0.2-4.1,0.4c-11.1,1.1-41.2,4.2-49.4,6.2c-5.3,1.3-20.4,7-33.6,12.3
				c-1.6,16.9,1.9,33.9,9.9,48.8C307.4,419.2,305.5,427.8,303.7,435.7z"/>
			<path class="st14" d="M433.5,311.5l8.1-26.4c8.9-29.3,0-61.2-22.9-81.6l-28.1,21.2l-67.1-26.2h-27.2L277,283.4l69.1,67.1h87.4
				V311.5z"/>
			<path class="st15" d="M476.7,228.5c4.5,19.4,20.3,38.3,40.7,47.5l27.1-35.5l2.5-2.7l18-15.6l12.3-9.7c3.1-1.9,4-6,1.8-9l-2.3-3
				c-2.3-3-6.6-3.7-9.6-1.5c3.8-2.7,4.4-8,1.3-11.5l-3.3-3.7c-2.4-2.7-6.5-2.9-9.1-0.4c-1-2.3-3.7-3.5-6.1-2.7l-6.3,2
				c-4.1,1.3-8-2.5-6.8-6.6l-3.4-2.4c-3.1-2.2-7.3-1.6-9.7,1.2c-2.5,2.9-4.4,6.3-5.7,9.9l-7.8,21.9l-1.7,1.3L476.7,228.5z"/>
			<path class="st16" d="M510.3,206.8l-11.2,8.7c-0.5,8.3,5.5,20.9,5.6,21.5c0.1,0.6,9.9,9.9,14.7,14.5l17-2l10.7-11.7l18-15.6
				l12.3-9.7c3.1-1.9,4-6,1.8-9l-2.3-3c-2.3-3-6.6-3.7-9.6-1.5c3.8-2.7,4.4-8,1.3-11.5l-3.3-3.7c-2.4-2.7-6.5-2.9-9.1-0.4
				c-1-2.3-3.7-3.5-6.1-2.7l-6.3,2c-4.1,1.3-8-2.5-6.8-6.6l-3.4-2.4c-3.1-2.2-7.3-1.6-9.7,1.2c-2.5,2.9-4.4,6.3-5.7,9.9L510.3,206.8
				z"/>
			<path class="st2" d="M508,208.5l-11.8,8.3c-0.5,8.2,6,21.6,6.2,22.2c0.1,0.6,9.9,9.9,14.7,14.5l18-1.1
				c6.4-7.9,13.5-15.3,21.1-22.1l6.1-5.4l12.1-9.6c3-2.3,3.6-6.5,1.3-9.5l-1.9-2.5c-2.3-3-6.5-3.6-9.6-1.5c3.7-3.2,4-8.8,0.7-12.4
				l-2.7-2.9c-2.4-2.6-6.5-2.7-9.1-0.2c-1.1-2.3-3.7-3.5-6.2-2.7l-6.2,1.9c-4.1,1.3-8-2.5-6.8-6.6l-3.6-2.5c-3-2.1-7.1-1.6-9.5,1.2
				c-2.5,2.9-4.4,6.2-5.6,9.8L508,208.5z"/>
			<path class="st3" d="M508.3,208.4l4.6-14.3l33.7,44l-23.3,29.5l7-15.6c-4.2-9.4-7.6-14.2-15.4-22c7,1.2,10.4,2.4,15.4,5.5
				L508.3,208.4z"/>
			<path class="st17" d="M345.2,350.9l-20.5,110.9c-0.6,3.1-1.8,6.1-3.6,8.7l-0.3,0.4c-3.6,5.1-4.7,11.6-3.1,17.6l0,0
				c0.8,3,0.9,6.2,0.4,9.3l-6,32.5"/>
			<path class="st18" d="M341.9,302c8.1-20.4,15.1-31.2,16-55.3c14.6,2.2,33.3,15.6,50.1-5.6c-11.9-7-53.1-16.6-59.8-17.7
				c-6.6-1.1-15.9-4-19.7-5.4l-27.2,20.3l-11,37.8l44.9,20L341.9,302z"/>
			<rect x="250.2" y="143.9" class="st1" width="56.5" height="35.7"/>
			<path class="st19" d="M280.3,187.6l3-1.7c1.7-1,2.7-2.7,2.7-4.7l41.5,2l68-14.3l6.8,2.4c4,1.4,6.9,4.9,7.6,9
				c0.4,2.6,1.8,5,3.7,6.7l7.8,7l-2,28c-0.8,10.8-8.5,19.9-19.1,22.5c-12.4,3-25.3,0.9-36.6-5.1c-10.7-5.7-20-9.6-34.3-11.5
				l-58.8-9.1l-0.4-10.3c-0.1-1.3,0.5-2.6,1.5-3.4l2.3-2.1c2-1.8,2.9-4.6,2.4-7.2C275.9,192.5,277.5,189.2,280.3,187.6z"/>
			
				<linearGradient id="SVGID_00000054979231553182223600000010527788826212985275_" gradientUnits="userSpaceOnUse" x1="380.4962" y1="366.7656" x2="437.6346" y2="367.8311" gradientTransform="matrix(1 0 0 -1 0 719.8898)">
				<stop  offset="0" style="stop-color:#270A02"/>
				<stop  offset="1" style="stop-color:#3F180E"/>
			</linearGradient>
			<path style="fill:url(#SVGID_00000054979231553182223600000010527788826212985275_);" d="M298.9,339h136.5l8,28.5H298.9V339z"/>
			<rect x="293.4" y="165.7" class="st21" width="12.6" height="15.9"/>
			<path class="st22" d="M299.7,57.6l7.5,15.2L297,84.5l-15.9-10.8c-7.2-4.8-7.5-15.3-0.7-20.6C286.8,48.1,296.1,50.3,299.7,57.6z"
				/>
			<path class="st23" d="M296.1,83.9l-10-6.8c5.3-4.6,12-7.9,18.6-9.4l2.5,5.1l-7.4,8.5l-1.5,1.3L296.1,83.9z"/>
			<path class="st24" d="M314.7,66c41.1-9.9,59.9,18.6,57.5,45.4c69.9,45.2,11.6,125.5-68.4,74.9C290.5,151.2,261.9,78.7,314.7,66z"
				/>
			<path class="st25" d="M315.5,85.8c5.7,10.8,14.8,33,5.9,35.4c-11.2,3.1-17.8,9.5-12.5,18.4c1.3,2.3,4.8,5.6,9.1,9.8
				c12.6,12.3,32.5,31.7,28.6,52c0,0.2-0.1,0.5-0.2,0.7c-12.9-1.3-27.3-6.2-42.5-15.8c-0.3-0.8-0.6-1.5-0.9-2.3
				c-11.3-29.8-31.3-82.8-8.3-107.1L315.5,85.8z"/>
			<path class="st26" d="M345.4,139.4l2.2,10.8c-3.1-1.3-4.8-2.4-7.5-5.6l2-5.5c0.2-0.7,0.8-1.1,1.5-1.2
				C344.4,137.9,345.2,138.5,345.4,139.4z"/>
			<path class="st27" d="M380.4,138.7c-7,15.5-29.3,18-46.7,2.2"/>
			
				<ellipse transform="matrix(0.9509 -0.3096 0.3096 0.9509 -17.5482 114.6848)" class="st26" cx="352.5" cy="112.6" rx="10.1" ry="12.7"/>
			<path class="st22" d="M339,92.3l17.4-5.7c-2.4-3.2-6.7-4.7-10.7-3.4C341.6,84.5,339,88.2,339,92.3z"/>
			
				<ellipse transform="matrix(0.9509 -0.3096 0.3096 0.9509 -17.7432 114.7157)" class="st22" cx="352.5" cy="113.3" rx="2.9" ry="5"/>
			<path class="st28" d="M260.2,100.4l24.3,11.6l2.1,0.1l3.7,28.8l-34.9-33.6c-1.5-1.4-1.8-3.7-0.7-5.4
				C255.9,100.1,258.3,99.4,260.2,100.4z"/>
			<path class="st29" d="M343.8,65.9c0.7,7.2-8.5,11.6-29.5,11.7c10.8,19.5-4.5,32.8-29,19.8L285,97c2.7-14.9,11.2-26.6,29.6-31
				C326.1,63.3,335.8,63.5,343.8,65.9L343.8,65.9z"/>
			<path class="st28" d="M324,140.2c3.2-2.7,8.7-4.9,12.8-6.3c0.7-0.2,0.7-1.1,0-1.3c-2.4-0.6-6.2-0.9-9.4,0.6
				c-2.8,1.4-4.2,4-4.7,6.3C322.6,140.3,323.4,140.6,324,140.2z"/>
			
				<ellipse transform="matrix(0.6802 -0.7331 0.7331 0.6802 57.3049 284.3836)" class="st30" cx="354.5" cy="76.5" rx="2.1" ry="4.6"/>
			<path class="st4" d="M253.6,222.9c-13.1,28-20.3,45.8-27.1,70.1c-2.7,9.6,2.6,19.5,11.8,23l5.2,2l-0.2,0.1
				c15.4,15.6,38.9,22.2,56.5,22.2l0.5-0.8l29.2,11l17.6-46c-13.2-7.5-22.2-15-28.6-20.4c-2.5-2.1-4.6-3.8-6.4-5.2l15.5-29.3
				L253.6,222.9z"/>
			<path class="st5" d="M253.6,222.9c-13.1,28-20.3,45.8-27.1,70.1c-2.7,9.6,2.6,19.5,11.8,23l5.2,2l-0.2,0.1
				c15.4,15.6,38.9,22.2,56.5,22.2l0.5-0.8l29.2,11l17.6-46c-13.2-7.5-22.2-15-28.6-20.4c-2.5-2.1-4.6-3.8-6.4-5.2l15.5-29.3
				L253.6,222.9z"/>
			<path class="st31" d="M315.1,345l8.8,0.3v-47.1c-0.7-0.4-1.4-0.8-2.1-1.3c-12.9-7.7-28.3-16.9-32.5-32.6l-27.4-25.2l-16.9,2.5
				c-8,18.2-13.3,32.8-18.5,51.2c-2.7,9.6,2.6,19.5,11.8,23l5.2,2l-0.2,0.1c15.4,15.6,38.9,22.2,56.5,22.2l0.5-0.8L315.1,345z"/>
			<path class="st28" d="M355.4,166.9c12.7-3,20.8-6,32.5-10.3c2.2-0.8,4.7,0.4,5.4,2.7c0.2,0.6,0.2,1.2,0,1.8
				c-1.4,4.4-8.1,12.2-17.7,14.6c-9.2,2.3-18,0.1-21.7-1.9c-0.7-0.4-1.2-1.1-1.4-1.9C351.8,169.7,353.1,167.4,355.4,166.9z"/>
			<path class="st32" d="M311.1,275.1l1.1,4c-11.2-4.2-23.6-2.4-37.5,3.6c-0.6,0.3-1.1-0.5-0.6-0.9
				C285,272.3,294.7,270.3,311.1,275.1z"/>
			<path class="st19" d="M328.5,186.4l-28.6-7.7c-2.4-0.6-4.2-2.5-4.9-4.9c-0.6-2-0.2-4.1,0.9-5.8l0.8-1.2l-2-5.5
				c-5.3,3.1-8.6,8.9-8.6,15.1v9.8l62.4,23.8l-1.3-4.8C344.8,196,337.7,188.8,328.5,186.4z"/>
			<path class="st15" d="M325.6,287.1c-15.9,12.1-26.7,34.2-26.7,56.6l40.8,9.6c5.7,2.4,11,5.5,15.9,9.3l5.8,4.5
				c2.4,1.9,5.1,3.4,7.9,4.5l0.9,0.4c3.7,1.4,7.7,2.1,11.7,1.9c3.7-0.2,6.9-2.6,8-6.1c0.7-2,0.6-4.2-0.2-6.1l-0.1-0.2
				c-0.4-1-0.1-1.8,0.8-2.4l2.1-0.7c3.5-1.2,6.2-3.9,7.4-7.5l0.5-1.5c0.6-1.9,0.5-4.1-0.4-5.9c-0.2-0.4,0.2-0.9,0.7-0.8l1.3,0.4
				c5.2,1.7,10.8-1.1,12.5-6.3c1.7-5.2-1.1-10.8-6.3-12.5l-10.3-3.4l0.8-4.1c0.7-3.7-1.5-7.3-5.1-8.4c-3.7-1.1-7.5-1.5-11.4-1.2
				l-23.2,1.9l-1.9-1L325.6,287.1z"/>
			<path class="st33" d="M381.2,224.8c-18.1-8.6-27.5-14.7-44-25.8v21.5c15.6,8.5,24.5,12.7,41,18c9.9-6.5,14.6-11.1,22.4-20
				l-0.4,0.2C392.9,221.7,388.7,223.4,381.2,224.8z"/>
			<path class="st11" d="M398.5,317.6c-2.1-0.5-4.5-0.8-7.4-0.8c-0.3,0-0.6,0.2-0.7,0.5c-0.1,0.3,0.1,0.7,0.4,0.8l7.1,2.4
				L398.5,317.6z"/>
			<path class="st11" d="M404.1,343.2l-8.7-2.9c-0.4-0.1-0.9,0.1-1.1,0.5c-0.2,0.4,0,0.8,0.3,1c2.3,1.7,4.2,2.8,6.3,3.7
				c-0.1-0.8-0.4-1.6-0.7-2.4c-0.2-0.4,0.2-0.9,0.7-0.8l1.3,0.4C402.7,343,403.4,343.2,404.1,343.2z"/>
			<path class="st34" d="M376.3,320.3c6.2,0.7,10.6,6.4,9.9,12.6c-0.4,3.2-2.1,6-4.5,7.7c-1.5,1.1-2.3,3.2-2.1,5.1
				c0.1,0.9,0.1,1.8,0,2.7c-0.7,5.5-5.7,9.5-11.2,8.8"/>
			<path class="st14" d="M317.2,271l10.5-16.7c13.3-21.2,4.9-49.2-17.9-59.6c-21.1-9.6-46,0.1-55.1,21.5l-12.7,30
				c27.6,7.6,47.9,15.8,68.7,31.7l0,0l4.5,3.4l2.9-3.3c0.9-1,1.1-2.5,0.5-3.7L317.2,271z"/>
			<path class="st14" d="M241.1,238l5.1-1.2l-3.1,9.7l-3.4-0.9c-1.2-0.3-1.9-1.5-1.6-2.7l0.4-2.2C238.7,239.3,239.8,238.3,241.1,238
				z"/>
			<path class="st35" d="M317,271.3l10.7-17c11-17.4,7.2-39.5-7.1-52.5c9.4,14.3,10,33,0.8,48l-8,13L317,271.3z"/>
			<path class="st11" d="M271.8,194.7c17.8,0.8,52.4-1,61.5,31.3c6,21.3-2.6,41.4-13.9,58.8l4.4,3.6l1.8-1.4l10.7,7
				c25.9-43.3,30-111.9-53.1-114.5l-12.7,11.8C270.9,191.4,271.3,194.7,271.8,194.7z"/>
			<path class="st3" d="M298.9,360.3h52v50.4c0,5.7-4.6,10.4-10.4,10.4h-41.9c-6.6,0-11.5-6.1-10.1-12.6L298.9,360.3z"/>
			<path class="st2" d="M345.2,360.3h-40.3c-4.9,0-9.2,3.5-10.2,8.3l-4.4,21.7c-0.4,2.1,1.2,4.1,3.4,4.1h35.4c0.9,0,1.6-0.7,1.6-1.6
				v-17.5C330.8,367.3,337.2,360.7,345.2,360.3z"/>
			<path class="st2" d="M373.6,539.2l-88.5-15.1l2.3,25.6c0.3,3.8-1.1,7.6-3.8,10.3c-3.6,3.6-4.8,8.9-3,13.7l1.1,2.9
				c1.1,2.8,1.4,5.8,0.9,8.8l-9.3,61.6c-1.7,11.3,7,21.4,18.4,21.4h89.8c5.9,0,10.8-4.8,10.8-10.8c0-3.8-2-7.3-5.2-9.2l-37-22.3
				l2.2-2.8c1.7-2.1,1.4-5.2-0.7-7c-1.9-1.6-2.3-4.3-1.1-6.4l6-9.8c1.7-2.9,2.7-6.2,2.7-9.5v-7c0-2.5,0.4-5,1.3-7.4L373.6,539.2z"/>
			<path class="st3" d="M514.8,512.3L434.3,552l16.9,19.4c2.5,2.9,3.6,6.8,3,10.6c-0.8,5,1.4,10.1,5.6,12.9l2.5,1.7
				c2.5,1.7,4.5,3.9,5.9,6.6l28.7,55.4c5.2,10.1,18.3,13.2,27.5,6.5l72.6-52.7c4.8-3.5,5.9-10.2,2.4-15c-2.2-3.1-5.9-4.7-9.6-4.4
				l-43.1,3.7l0.2-3.5c0.1-2.7-1.9-5-4.7-5.2c-2.5-0.2-4.4-2.1-4.6-4.6l-0.9-11.5c-0.3-3.4-1.5-6.6-3.4-9.3l-4.1-5.7
				c-1.5-2-2.6-4.3-3.3-6.8L514.8,512.3z"/>
			<path class="st36" d="M294,124.6l-17.8-10.1c3.3,6.9,10.3,10.7,16,12.5c-0.5,5.1,3.5,11.3,9.6,14.2L294,124.6z"/>
			<path class="st37" d="M318.7,293.4l35.6,22.1c10.8-2.5,33.6-6.6,38.6-3c5,3.6,5.3,6.8,4.9,7.9l0.3-0.3l0.7-3.6
				c0.7-3.7-1.5-7.3-5.1-8.4c-3.7-1.1-7.5-1.5-11.4-1.2l-23.2,1.9l-1.9-1l-31.6-20.7c-2.4,1.8-4.7,3.9-6.8,6.1L318.7,293.4z"/>
			<path class="st38" d="M410.1,180.9c0.5,2.4,1.8,4.5,3.6,6.1l5.6,5l-21.3,21.7c-0.7,0.7-1.7,1.1-2.8,1c-5-0.6-20.6-2.8-30-8.2
				c2.8,1.4,19.8,2.1,25.7,2.3c1.2,0,2.4-0.6,3-1.6L410.1,180.9z M365.1,206.5c0.1,0,0.1,0.1,0.2,0.1
				C365.2,206.6,365.1,206.5,365.1,206.5z"/>
			<path class="st16" d="M557.6,156.4c1.7-1.5,4.2-1.6,6-0.1c2.1,1.8,3.6,3.2,5.5,5.3c1.4,1.6,1.4,4,0.1,5.7l-17.8,23l-15.3-14.6
				L557.6,156.4z"/>
			<path class="st2" d="M553.5,160.4c1.7-1.5,4.2-1.5,6-0.1c2.2,1.9,3.8,3.4,5.8,5.6c1.4,1.6,1.5,4,0.2,5.7L549.2,193l-15.8-15
				L553.5,160.4z"/>
			<path class="st1" d="M489.5,125.6l-5.6,25.1l75.3,112l63.5,215.6l51.4,78.9L705,668.5l10.2-2.8l-26.7-118.8l-50.8-82.3L587,258.2
				l-36.8-71.3l-40.5-80.5l-28.8-1.9L489.5,125.6z"/>
			<path class="st39" d="M549.1,216.4l-7.8-12.6l12.1-4.9l14.7,23.1l-8.7,7.2c-2.3,1.9-5.6,1.8-7.7-0.3l-7-6.9L549.1,216.4z"/>
			<path class="st2" d="M554,184.9l11.7,15.4l-12.4,10.1c-2.5,2-6.1,1.6-8.1-0.9l-2.7-3.4c-1.7-2.1-1.7-5.1,0.1-7.2L554,184.9z"/>
			<path class="st2" d="M563,200.9l13,12.9l-13.7,9.5c-2.6,1.8-6.2,1.1-8-1.5l-2.4-3.5c-1.6-2.3-1.3-5.4,0.8-7.4L563,200.9z"/>
			<path class="st11" d="M352.2,606.9c-15.2-0.2-23.7,1.5-38.6,4.9c1,0,1.9,0,2.8,0c12.9,0.1,21.1,0.2,34.1,3.7
				c-1.1-1.6-1.2-3.7-0.2-5.5L352.2,606.9z"/>
			<path class="st40" d="M537.2,580c-11.8,9.5-17.4,16.2-26.7,28.3c0.8-0.6,1.5-1.2,2.2-1.8c10-8.1,16.4-13.3,28.7-18.8
				c-1.9-0.5-3.3-2.1-3.6-4.1L537.2,580z"/>
			<path class="st11" d="M283.7,559.9c10,8.6,16.9,11.1,29.7,14.3c-11.3-7.5-17.5-12.5-26-23.2C287.3,554.3,286,557.5,283.7,559.9z"
				/>
			<path class="st41" d="M454.8,579.5c13.1-1.6,19.6-5,30.6-12.3c-13.2,3.3-21,4.5-34.6,3.6C453.2,573.1,454.7,576.2,454.8,579.5z"
				/>
			<path class="st42" d="M510.6,122.5l-29.5-17.5l8.3,20.5l-5.6,25l56.5,83.7l-5.6-26.5l-26.2-35.6v-10.8l-10-16.3L510.6,122.5z"/>
			<path class="st39" d="M577.4,283.9l-17.5-20.6l22.2,77.4l2.7-21.6l-7.4-13.2V283.9z"/>
			<circle class="st43" cx="250.7" cy="161.9" r="17.8"/>
			<circle class="st44" cx="250.2" cy="161.9" r="9.5"/>
			<path class="st2" d="M209.5,253.5h9.4c3.8,0,6.9,3.1,6.9,6.9v35c0,3.8-3.1,6.9-6.9,6.9h-9.4c-3.8,0-6.9-3.1-6.9-6.9v-35
				C202.6,256.6,205.6,253.5,209.5,253.5z"/>
			<path class="st2" d="M209.5,209h9.4c3.8,0,6.9,3.1,6.9,6.9v19.8c0,3.8-3.1,6.9-6.9,6.9h-9.4c-3.8,0-6.9-3.1-6.9-6.9v-19.8
				C202.6,212.1,205.6,209,209.5,209z"/>
			<path class="st3" d="M227.4,192.3c0-7,5.7-12.7,12.7-12.7h21.3l-6.2,0.2c-6.9,0.2-12.3,5.8-12.3,12.7v44.7l-7.7,5.8l-7.7-5.8
				V192.3z"/>
			<rect x="227" y="219.7" class="st2" width="18.2" height="4.5"/>
			<rect x="227" y="207.2" class="st2" width="18.2" height="4.5"/>
			<circle cx="234.8" cy="192.5" r="1.5"/>
			<circle cx="234.8" cy="201.7" r="1.5"/>
			<circle cx="235.2" cy="216.1" r="1.5"/>
			<path class="st33" d="M420.9,203.2l0.5-9c-8.9,20.4-9.7,33.9-32.2,46.6C414.5,230.7,417.3,221.5,420.9,203.2z"/>
			<path class="st39" d="M617.6,383l-3.8-13.7l-8.1,14L617.6,383z"/>
			<path class="st45" d="M389.2,462.2l2.7-8.2c-9.9,10-16,14-26.2,21.6C375.1,471.8,380.2,470,389.2,462.2z"/>
			<path class="st46" d="M491.5,477.1c2.1,2.3,3.3,3.5,5.7,5.5c-13.8-3.2-21-3.3-33.6-4.3C473.5,476.4,479.7,475.3,491.5,477.1z"/>
			<path class="st47" d="M598,238.5c0-6.4,5.2-11.5,11.5-11.5h2.9v2.9c0,6.4-5.2,11.5-11.5,11.5H598V238.5z"/>
		</g>
		<g>
			<path class="st2" d="M49.8,300.2h63.5c12.1,0,21.9,9.8,21.9,21.9v175.2c0,12.1-9.8,21.9-21.9,21.9H49.8
				c-12.1,0-21.9-9.8-21.9-21.9V322C27.9,310,37.7,300.2,49.8,300.2z"/>
			<path class="st2" d="M28.4,325.4h5.9c12.1,0,21.9,9.8,21.9,21.9v57.6c0,12.1-9.8,21.9-21.9,21.9h-5.9c-12.1,0-21.9-9.8-21.9-21.9
				v-57.6C6.5,335.2,16.3,325.4,28.4,325.4z"/>
			<path class="st2" d="M26.7,433.3h5.9c12.1,0,21.9,9.8,21.9,21.9v8c0,12.1-9.8,21.9-21.9,21.9h-5.9c-12.1,0-21.9-9.8-21.9-21.9v-8
				C4.8,443.1,14.6,433.3,26.7,433.3z"/>
			<path class="st3" d="M99.6,300.2H192c12.1,0,21.9,9.8,21.9,21.9v175.2c0,12.1-9.8,21.9-21.9,21.9H99.6
				c-12.1,0-21.9-9.8-21.9-21.9V322C77.7,310,87.5,300.2,99.6,300.2z"/>
			<path class="st3" d="M43,312.8c0-7,5.7-12.7,12.7-12.7h29.4l-10.7,0.3c-6.9,0.2-12.3,5.8-12.3,12.7v58.3l-9.6,7.2l-9.6-7.2V312.8
				z"/>
			<rect x="42.4" y="349.8" class="st2" width="22.5" height="5.6"/>
			<rect x="42.4" y="334.3" class="st2" width="22.5" height="5.6"/>
			<circle cx="52" cy="316.1" r="1.9"/>
			<circle cx="52" cy="327.6" r="1.9"/>
			<circle cx="52.6" cy="345.3" r="1.9"/>
			<path class="st48" d="M161.3,624.7L161.3,624.7c4.9-2.4,10.8-0.4,13.2,4.5l7.2,14.8c2.4,4.9,0.4,10.8-4.5,13.2l0,0
				c-4.9,2.4-10.8,0.4-13.2-4.5l-7.2-14.8C154.4,633,156.4,627.1,161.3,624.7z"/>
			<path class="st48" d="M178.1,622.6L178.1,622.6c4.9-2.4,10.8-0.4,13.2,4.5l7.2,14.8c2.4,4.9,0.4,10.8-4.5,13.2h0
				c-4.9,2.4-10.8,0.4-13.2-4.5l-7.2-14.8C171.2,630.9,173.2,625,178.1,622.6z"/>
			<rect x="73.9" y="242.4" class="st1" width="146.7" height="57.7"/>
			<path class="st49" d="M279.6,454.3c12.6-13.4,13.4-28.8,9.8-47c-4.4-22.2-25.5-37-48.1-37c-27.8,0-50.4,22.6-50.4,50.4v211.2
				c0,7-5.7,12.7-12.7,12.7H165v-2.6c0-6.3-5.1-11.5-11.5-11.5c-6.3,0-11.5,5.1-11.5,11.5v7.2c0,10.1,8.2,18.4,18.4,18.4l71.2,0.3
				c10.3,0,21-3.8,25.2-13.2c8.7-19.4,4.5-46-4.6-82.1c40-20.2,43.6-76.5,14.3-106.9L279.6,454.3z"/>
			<path class="st50" d="M274.9,458.3c9.6-14.9,10.5-32.2,7.7-50.7c-3.3-21.4-22.7-36-44.2-37.2c-26.5,1.5-47.5,23.5-47.5,50.3
				v211.2c0,7-5.7,12.7-12.7,12.7h-5.7c0,0-0.1,0-0.1,0h-7.6v-2.6c0-6.3-5.1-11.4-11.4-11.5c-6.3,0.1-11.4,5.2-11.4,11.5v7.2
				c0,10.1,8.2,18.4,18.4,18.4l66.7,0.3c9.9-0.3,19.8-4.2,24.3-12.9c10.1-19.3,9.1-45.5,0-81.6c0.3-0.1,0.5-0.3,0.8-0.4
				c0-0.1,0-0.2-0.1-0.2c0.8-0.4,1.6-0.8,2.4-1.3c25.5-18.1,35.9-74.7,7.8-103.9c1.4-0.5,2.8-1,4.2-1.7c0,0,0,0,0,0L274.9,458.3z"/>
			<path class="st51" d="M205.8,522.2l13.6,8.5c5.2,3.2,11.8,3,16.7-0.5l7.2-5.2 M243.2,525l9.7,5 M243.2,525l3.2-9.7"/>
			<path class="st3" d="M235.7,484.6c40-68.1-2.7-142.1-66.2-114.4l18.1-15.8c84.5-15.6,115.5,74.8,48.1,150.2
				C234.1,495.5,239.9,493.4,235.7,484.6z"/>
			<circle class="st43" cx="74.8" cy="271.3" r="28.9"/>
			<circle class="st44" cx="73.9" cy="271.3" r="16.6"/>
			<path class="st11" d="M120.8,242.5c16,0,28.9,12.9,28.9,28.9c0,15-11.4,27.3-26,28.7h23.8c7.7-7.2,12.5-17.4,12.5-28.7
				c0-11.5-4.9-21.8-12.8-29h-26.5V242.5z"/>
			<path class="st12" d="M266.5,640.3l-9.4,5.6c-9.6-12.9-13.8-21.1-19.5-35c-0.7-1.7-1.2-3.5-1.4-5.3l-0.9-6
				c-0.5-3.6-2.7-6.7-5.9-8.4c-2-1.1-3.6-2.7-4.7-4.6l-8.6-15.8l-94.6-8v54.3l-26.8,8.9l9.8,37.7l46.5-18.5c3.5-1.4,6.1-4.4,7-8.1
				l11.5-48.9l20.8,17.5c2.2,1.9,3.8,4.3,4.6,7.1l0.2,0.8c1.3,4.4,4.8,7.8,9.3,9c2.8,0.7,5.2,2.4,7,4.6l30.7,39.4l15-17.5
				L266.5,640.3z"/>
			<path class="st22" d="M174.6,578l-5.2,10.2l7.9,6.7L174.6,578z"/>
			<path class="st52" d="M262,420.4c0-46.2-35.4-57.7-56-63.8L170,348c-46.6-3.3-78.5,6.9-96.4,51.6c-2.8,7-3.2,14.6-2,22L95.3,571
				H216C216,490.3,262,518.5,262,420.4z"/>
			<path class="st49" d="M186.1,305.8l0.2,8.2c0.4,12.7-5.6,24.7-16,32l-11.9,8.5c5.5,15.4,24.7,34.1,55.6,40.4
				c4-16.7,29.6-26.9,50.9-26.5c33.4,0.5,33.5-44.6,26-82.8c-4.5-22.9-25.7-37.3-49-37.3C210.4,248.4,185.1,274.4,186.1,305.8z"/>
			<path class="st53" d="M186.3,314.1l-0.2-8.2c-0.5-18.2,7.7-34.6,20.9-45.2c8.6,1.1,20.2,3,26.8,4.2l13.6,15.8
				c-8.7,1-8.5,9.5-8.2,17.8c0.2,8.8,0.4,17.4-10,16.3c-19.7-2.1-22.1,24.8-19.5,37.9c2.2,10.8-9,19.5-17.8,26.3
				c-2.4,1.9-4.7,3.6-6.4,5.2c-14.3-8.5-23.5-19.7-27.1-29.7l11.9-8.5C180.7,338.8,186.7,326.7,186.3,314.1z"/>
			<path class="st35" d="M292.3,293.9c-11.3-0.6-21.3-0.8-35.3,0.2c-3,0.2-5.4,2.7-4.7,5.7c1,4.6,3.3,8.8,6.7,12.2
				c4.6,4.6,10.9,7.2,17.5,7.2c6.6,0,12.8-2.6,17.5-7.2c0.2-0.2,0.3-0.3,0.5-0.5C294,305.7,293.2,299.8,292.3,293.9z"/>
			<path class="st22" d="M284.9,266.1L284.9,266.1c4.6,1.6,14.3,4.9,13.6,17.6c-0.5,8.2-13.8-0.2-21.5-5.4c-4,7.2-14,20.3-21.8,15.1
				c-6.5-4.4-4.8-12.5-2.4-17.9c-2.5,4.1-7,8.9-12.5,8.2c-6.9-0.9-7.6-6.4-7.1-9.1c-2.7,4.5-9.8,12.9-16.5,10.5
				c-6.8-2.3-5.4-9.3-3.8-12.4c-1.2,1.9-4.6,5.5-8.2,4.9c-3.6-0.6-3.8-3.5-3.5-4.9c-1.8,2.2-6.1,5.8-9.5,2.5
				c-3.4-3.3,3.1-5.8,6.7-6.7l27.2-8.8c6.4,0.8,19.5,2.6,20.3,2.6c1,0.1,24.7,1.3,25.2,1.3C271.3,263.6,280.9,264.2,284.9,266.1z"/>
			<circle class="st22" cx="277" cy="306.3" r="6.5"/>
			<path class="st3" d="M120.9,557.8h97.5l2.2,19.3h-99.7V557.8z"/>
			<path class="st54" d="M187.2,394.9l-4-11.9l-46.6-37.4c-18.5,6.2-27.3,10.3-39,19.2l36.5,83.4l-17,109h68.6l-28-17.7l3.4-4.1
				c14.4-17.3,24.6-37.7,29.9-59.6C197.4,449,196.1,421,187.2,394.9z"/>
			<path class="st48" d="M247.6,329.9c-0.4-0.7-0.3-1.8,0.2-2.4c0.5-0.6,1.3-0.5,1.7,0.3L247.6,329.9z M294.5,332.6
				c-7.2-0.7-17.6,0.6-26.9,1.1c-4.6,0.3-8.9,0.4-12.4-0.1c-1.7-0.2-3.3-0.6-4.5-1.1c-1.2-0.5-2.4-1.3-3.1-2.6l1.9-2.2
				c0.3,0.5,0.9,1,1.9,1.5c1,0.5,2.4,0.8,4,1c3.3,0.4,7.5,0.3,12.1,0.1c9.1-0.5,19.8-1.8,27.1-1.1L294.5,332.6z"/>
			<ellipse transform="matrix(0.9825 -0.1861 0.1861 0.9825 -36.0984 47.345)" class="st1" cx="234.1" cy="216" rx="4.6" ry="2.4"/>
			<path class="st2" d="M198,268.6c-12.2-62.9,85.9-75.2,77.4-3.2C245.9,269.6,226.6,272.2,198,268.6z"/>
			<path class="st43" d="M275.5,265.3c3.3-26.4-8.2-40-18.9-45.3c-16.2,4.6-16.3,33.6-13.4,49.5C255.9,268.3,263,267.2,275.5,265.3z
				"/>
			<path class="st1" d="M279.1,257.3c14.2-0.5,28.8,2.3,35.2,6.6c2.8,1.9,0.7,4.8-2.6,4.9l-13.6,0.5c-1-2.2-1.9-3.5-6.1-4.1
				l-48.9,4.1C254.7,260.6,268.1,257.7,279.1,257.3z"/>
			<path class="st22" d="M311.7,268.9l-27.3,1c-3.9-4.7-12-1.4-40.7-0.6c7.7-0.9,54.6-7.7,69.5-4C316.4,266.1,315,268.8,311.7,268.9
				z"/>
			
				<ellipse transform="matrix(0.4448 -0.8956 0.8956 0.4448 -84.4917 321.9271)" class="st1" cx="217.4" cy="229.1" rx="3.7" ry="1.8"/>
			<path class="st26" d="M292.3,293.9c4.2,3,4.8,14.4,2.1,17.6C293.2,304.5,291.6,301,292.3,293.9z"/>
			<path class="st48" d="M31.4,626.4L31.4,626.4c4.9-2.4,10.8-0.4,13.2,4.5l7.2,14.8c2.4,4.9,0.4,10.8-4.5,13.2l0,0
				c-4.9,2.4-10.8,0.4-13.2-4.5l-7.2-14.8C24.5,634.7,26.5,628.8,31.4,626.4z"/>
			<path class="st48" d="M48.2,624.3L48.2,624.3c4.9-2.4,10.8-0.4,13.2,4.5l7.2,14.8c2.4,4.9,0.4,10.8-4.5,13.2h0
				c-4.9,2.4-10.8,0.4-13.2-4.5l-7.2-14.8C41.3,632.6,43.3,626.7,48.2,624.3z"/>
			<path class="st55" d="M156.8,447.4c5.9-12.8,6.7-25.2,4.8-39.3c-3.1-22.4-24.4-37.3-47-37.3c-27.8,0-50.4,22.6-50.4,50.4v211.2
				c0,7-5.7,12.7-12.7,12.7H38.3v-2.6c0-6.3-5.1-11.5-11.5-11.5c-6.3,0-11.5,5.1-11.5,11.5v7.4c0,10.1,8.1,18.3,18.1,18.4l71.4,1.1
				c10.5,0.2,21.3-3.7,25.5-13.3c8.5-19.8,4.1-47.1-4.9-83c40-20.2,43.6-76.5,14.3-106.9l6.8-5.9
				C150.7,456.6,154.5,452.4,156.8,447.4z"/>
			<path class="st49" d="M150.1,408.1c2,14.1,1.1,26.5-4.8,39.3c-2.3,5.1-6.1,9.3-10.3,12.9l-6.8,5.9
				c29.3,30.4,25.7,86.7-14.3,106.9c9.1,35.9,13.4,63.3,4.9,83c-3.6,8.4-12.4,12.5-21.6,13.2l-63.7-1c-10.1-0.2-18.1-8.4-18.1-18.4
				v-7.4c0-6.3,5.1-11.5,11.5-11.5c6.3,0,11.5,5.1,11.5,11.5v2.6h13.2c7,0,12.7-5.7,12.7-12.7v-95.6c0-5.8-4.5-10.9-8.1-15.5
				c-2.4-3-4.2-7.6-3.5-14.5c0.3-3.6,1.1-6.4,2.1-8.5c3-6.3,9.5-13,9.5-20v-57c0-25.9,19.5-47.3,44.7-50.1
				C129.2,373.4,147.2,387.6,150.1,408.1z"/>
			<path class="st49" d="M219.4,641.5h-31.6c-7.3,0-13.2,5.9-13.2,13.2c0,7.3,5.9,13.2,13.2,13.2h31.6h21.9l2.4-17.8l-12.9-9.6
				L219.4,641.5z"/>
			<path class="st3" d="M235.4,603l-31.2,20.6l8,7.1c1.2,1.1,1.8,2.6,1.8,4.2c-0.1,2.1,1.1,4.1,3,5l1.1,0.6c1.1,0.6,2.1,1.4,2.8,2.4
				l14.7,21.4c2.7,3.9,8.2,4.5,11.7,1.3l27.3-25.5c1.8-1.7,1.9-4.5,0.2-6.3c-1.1-1.1-2.7-1.6-4.2-1.3l-17.6,3.7l-0.1-1.5
				c-0.1-1.1-1.1-2-2.2-1.9c-1,0.1-1.9-0.6-2.2-1.7l-1-4.7c-0.3-1.4-0.9-2.6-1.9-3.7l-1.3-1.4c-1.2-1.2-2.1-2.7-2.8-4.2L235.4,603z"
				/>
			<path class="st40" d="M248.1,629.8c-4.4,4.5-6.4,7.6-9.6,13.1c0.3-0.3,0.6-0.6,0.8-0.8c3.7-3.9,6.1-6.3,10.9-9.2
				c-0.8-0.1-1.5-0.7-1.7-1.5L248.1,629.8z"/>
			<path class="st41" d="M214,633.8c5.3-1.3,7.9-3.1,12-6.6c-5.3,2-8.4,3-14.1,3.3C213,631.2,213.8,632.5,214,633.8z"/>
			<defs>
				<filter id="Adobe_OpacityMaskFilter" filterUnits="userSpaceOnUse" x="165.5" y="559.5" width="19.2" height="15.8">
					<feColorMatrix  type="matrix" values="1 0 0 0 0  0 1 0 0 0  0 0 1 0 0  0 0 0 1 0"/>
				</filter>
			</defs>
			
				<mask maskUnits="userSpaceOnUse" x="165.5" y="559.5" width="19.2" height="15.8" id="path-216-inside-1_464_1715_00000041268416527002682410000003604045453769466797_">
				<path class="st56" d="M168.6,561.5h12.9c0.6,0,1.2,0.5,1.2,1.2v9.5c0,0.6-0.5,1.2-1.2,1.2h-12.9c-0.6,0-1.2-0.5-1.2-1.2v-9.5
					C167.5,562.1,168,561.5,168.6,561.5z"/>
			</mask>
			<path class="st57" d="M168.6,561.5h12.9c0.6,0,1.2,0.5,1.2,1.2v9.5c0,0.6-0.5,1.2-1.2,1.2h-12.9c-0.6,0-1.2-0.5-1.2-1.2v-9.5
				C167.5,562.1,168,561.5,168.6,561.5z"/>
			<path class="st52" d="M168.8,566.1h6.6c0.6,0,1.2,0.5,1.2,1.2c0,0.6-0.5,1.2-1.2,1.2h-6.6V566.1z"/>
			<path class="st54" d="M70,375.2c10.2-0.2,17.3-3.3,27.3-10.3c14.8,1.1,44.6,3.5,45.5,3.7c0.9,0.2,16.5,10.1,24.2,15l2.1,48.2
				c0.1,1.3-1.7,1.9-2.4,0.7c-3.3-5.3-10.5-6.5-15.3-2.5l-0.6,0.5c-0.8,0.7-2,0.2-2.2-0.8l-3.3-18.2c-0.3-1.7-2.3-2.5-3.6-1.4
				L128,420.2c-1.4,1-3.4,0.2-3.7-1.5l-2.3-16.6c-0.2-1.5-1.8-2.4-3.3-1.8L99.9,409c-1.5,0.7-3.3-0.4-3.3-2.1v-17.8
				c0-1.4-1.3-2.5-2.7-2.3c-12,1.7-19,0-26.4-5.5C65,379.3,66.8,375.3,70,375.2z"/>
			<path class="st58" d="M177.4,284.6c14.1-17.9,35.8,4.4,43.2,13.2L205,324.2C170.7,319,165.2,300.1,177.4,284.6z"/>
			<path class="st51" d="M180.8,281.2c10.5-7,31.8,0,34.7,16.5"/>
			<path class="st48" d="M198.7,289.7c-7.3-7.9-16.6-0.9-20.2,2.7c1.3-0.4,5.9-2.7,12.7-2.7c5,0,13.7,13.9,19.9,19.6
				C209.9,306.6,206,297.6,198.7,289.7z"/>
			<path class="st48" d="M187.4,300.8c0.8-4.8,8.8-6.8,12.7-7.1l2.4,3.1c-2.2,0.2-7.2,1-9.5,2.8c-2.3,1.8-1.6,7.2-0.9,9.6
				C190,308.5,186.5,305.7,187.4,300.8z"/>
			<path class="st59" d="M178.6,654.6c0-4.8,3.9-8.6,8.6-8.6h6.4v17.2h-6.4C182.4,663.2,178.6,659.4,178.6,654.6z"/>
			<path class="st3" d="M151.4,482.7c40-68.1,2.1-149.6-61.4-121.9l18.1-15.8c79.6-17.7,108.4,79.4,50.3,160.6
				C156.8,496.5,155.6,491.5,151.4,482.7z"/>
			<path class="st50" d="M141.5,464.7l-13.4,8.9l-8.8-1c-0.8-0.1-1.5,0.5-1.6,1.3c-0.1,0.8,0.5,1.5,1.3,1.6l7.8,0.9l-1.4,8.2
				c-0.1,0.8,0.4,1.6,1.2,1.7c0.8,0.1,1.6-0.4,1.7-1.2l1.5-9.1l11.8-7.8c-0.6-0.7-1.2-1.3-1.8-2L141.5,464.7z"/>
			<path class="st60" d="M62.5,532.3l14.2,7.5c5.4,2.9,8.5,8.7,7.9,14.7l-0.9,8.8 M83.7,563.3l9.1,5.9 M83.7,563.3l-6.8,7.6"/>
			<path class="st22" d="M194,610.6c-0.9-1.7-1.4-2.6-2.9-4.1c0,0,16.6-7.2,26.4-8C207.9,602.6,202.6,605.3,194,610.6z"/>
			<path class="st61" d="M269.8,241.8c1.1,7.7-3.2,13.9-8.6,14.7c-5.4,0.7-11.2-4.1-12.2-11.8c-1.1-7.7,3.2-13.9,8.6-14.7
				C263,229.3,268.8,234.1,269.8,241.8z"/>
			<path class="st58" d="M220,328c3.2-2.7,8.7-4.9,12.8-6.3c0.7-0.2,0.7-1.1,0-1.3c-2.4-0.6-6.2-0.9-9.4,0.6c-2.8,1.4-4.2,4-4.7,6.3
				C218.5,328.1,219.4,328.4,220,328z"/>
			<path class="st22" d="M285.6,337.6c-6.5-2.8-10.6-2.2-18.2,0c2,10.6,5,16.8,7.6,10.9c0.3,2.3,1.5,6.8,3.9,7
				c2.3,0.1,3.5-7.4,3.9-11.2c0,0.8,0.3,2.4,1.4,2.5C285.3,346.9,285.6,340.7,285.6,337.6z"/>
		</g>
		<g>
			<path class="st47" d="M473.2,374.1c-4-24.3-27-40.8-51.3-36.8l-3.2,0.5l0.5,3.2c4,24.3,27,40.8,51.3,36.8l3.2-0.5L473.2,374.1z"
				/>
			<path class="st39" d="M491.5,306.3c12.6-8.5,24.5-11.2,43.4-11.5c-3.2,146.3-3.3,228.4,0,374.7h-40
				C488.2,527.2,488.5,447.7,491.5,306.3z"/>
			<path class="st2" d="M532.6,434.1v-14.3l-43.1,6.3v14.8h30.7c3.8,0,7.3-1.5,9.9-4.3L532.6,434.1z"/>
			<path class="st1" d="M384.3,322.3c0.9-7.5,7.7-12.9,15.2-12l24.8,2.9c3.5,0.4,6.7,2.1,8.9,4.8l3,3.5c0.7,0.8,1.9,0.9,2.7,0.3
				l3.1-2.5c2.9-2.3,6.5-3.3,10.1-2.9l174.9,20.4c3.7,0.4,7.2,2.4,9.4,5.4l34.2,45.7c4.5,6,3.3,14.6-2.7,19.1l-43,32.8
				c-2.8,2.2-6.4,3.1-9.9,2.7l-50-5.8c-3.1-0.4-6-1.8-8.2-4l-10.1-10.2c-1.3-1.3-3.4-1.6-4.9-0.5l-11.7,7.6c-2.7,1.7-5.9,2.5-9,2.1
				L387.2,416c-7.5-0.9-12.9-7.7-12-15.2L384.3,322.3z"/>
			<path class="st1" d="M535,295.1c-6.2,15.5-31.9,19.8-43.8,11.3C505.5,294.7,515.3,292.7,535,295.1z"/>
			<path class="st39" d="M399,310.1l5.4,0.5l22.9,3.3l-33.2,6.7l-3.1,17.5l6.6,21l-3.5,18.3l-14,26.9h17.5l39.4,17.3l-50-5.6
				c-7.6-0.8-13-7.7-12.1-15.2l9.1-78.7C384.9,314.8,391.6,309.4,399,310.1z"/>
			<path class="st39" d="M539.4,415.4l21.6,21l53.4,6.1l-10.3-4.5L594,427.8l-16.2-1.4l-11.7,3.5L539.4,415.4z"/>
			<g>
				<path class="st39" d="M437.5,394.4l6.1-12.8l12.4,1.3l-13.4,23.7l-12.4-1.3l-8.3-25.9l12.3,1.2L437.5,394.4z"/>
				<path class="st39" d="M469.5,410.2c-2.7-0.3-5.1-0.9-7.1-1.8c-2.1-0.9-3.8-2.1-5.1-3.5c-1.4-1.4-2.4-2.9-3-4.6
					c-0.6-1.7-0.8-3.5-0.6-5.3c0.3-2.6,1.2-4.7,2.8-6.6c1.6-1.8,3.7-3.2,6.4-4c2.7-0.9,5.8-1.1,9.4-0.7c3.6,0.4,6.6,1.2,9,2.6
					c2.5,1.4,4.3,3.1,5.5,5.2c1.2,2.1,1.6,4.4,1.4,7c-0.2,1.8-0.8,3.5-1.7,5.1c-1,1.5-2.2,2.9-3.9,3.9c-1.6,1.1-3.5,1.9-5.7,2.3
					C474.6,410.3,472.2,410.4,469.5,410.2z M470.3,401.8c1.6,0.2,2.9-0.2,3.9-1c1-0.8,1.6-2,1.8-3.5c0.1-1.5-0.2-2.7-1-3.7
					s-2-1.5-3.6-1.7s-2.9,0.2-3.9,0.9c-1,0.8-1.6,1.9-1.8,3.4c-0.2,1.5,0.2,2.7,1,3.8C467.6,401.1,468.8,401.7,470.3,401.8z"/>
				<path class="st39" d="M503.3,387.7l-1.7,16.3l13.8,1.4l-0.9,8.5l-25-2.5l2.5-24.8L503.3,387.7z"/>
				<path class="st39" d="M541,391.5l-0.8,8.4l-8.3-0.8l-1.7,16.4l-11.2-1.1l1.7-16.4l-8.5-0.9l0.8-8.4L541,391.5z"/>
				<path class="st39" d="M568.9,419.4l-11.3-1.1l-0.7-4l-8.4-0.8l-1.5,3.7l-11-1.1l10.7-24l16.6,1.7L568.9,419.4z M554.2,399.3
					l-3.5,8.7l5.2,0.5L554.2,399.3z"/>
				<path class="st39" d="M595.8,413.4l5.3,9.2l-12.8-1.3l-5.2-10.5l-1,9.9l-11.2-1.1l2.5-24.8l20.1,2c2.1,0.2,3.8,0.7,5.3,1.6
					c1.4,0.8,2.5,2,3.2,3.3c0.7,1.4,1,2.9,0.8,4.7c-0.1,1.4-0.6,2.7-1.2,3.7c-0.7,1-1.5,1.8-2.5,2.4
					C597.9,412.9,596.9,413.3,595.8,413.4z M583.8,403l-0.5,5.2l3.9,0.4c1.1,0.1,2,0,2.6-0.4c0.7-0.4,1-1,1.1-1.9
					c0.1-0.8-0.1-1.5-0.7-2c-0.5-0.5-1.3-0.8-2.4-0.9L583.8,403z"/>
			</g>
			<g>
				<path class="st39" d="M475.2,356.1l7.8,0.8l-1.2,11.9L474,368l-1,9.5l-20.2-2l1-9.5l-29.3-3l1.4-13.4l23.1-23.1l29,2.9
					L475.2,356.1z M456.4,340l-12.3,13l10.8,1.1L456.4,340z"/>
				<path class="st39" d="M513.8,383c-5.9-0.6-11-2.2-15.2-4.8c-4.2-2.6-7.4-5.9-9.5-9.9c-2.1-4-2.9-8.5-2.4-13.4
					c0.5-5.1,2.2-9.4,5.1-13c2.9-3.6,6.6-6.3,11.3-8.1c4.7-1.7,9.9-2.3,15.9-1.7c6,0.6,11.1,2.2,15.3,4.9c4.2,2.6,7.3,6,9.3,10.1
					c2,4.1,2.8,8.7,2.3,13.8c-0.5,4.9-2.1,9.1-4.9,12.6c-2.8,3.5-6.5,6.1-11.2,7.8C525.1,383.1,519.8,383.6,513.8,383z M515.4,367
					c2.4,0.2,4.2-0.4,5.5-2c1.3-1.5,2-3.6,2.3-6.3c0.3-2.6-0.1-4.9-1-6.7c-0.9-1.8-2.6-2.9-5-3.1c-2.3-0.2-4.1,0.4-5.5,2
					c-1.4,1.6-2.2,3.7-2.5,6.4c-0.3,2.7,0.1,4.9,1.1,6.7C511.5,365.8,513.1,366.8,515.4,367z"/>
				<path class="st39" d="M577.1,389.4c-5.9-0.6-11-2.2-15.2-4.8s-7.4-5.9-9.5-9.9c-2.1-4-2.9-8.5-2.4-13.4c0.5-5.1,2.2-9.4,5.1-13
					c2.9-3.6,6.6-6.3,11.3-8.1c4.7-1.7,9.9-2.3,15.9-1.7c6,0.6,11.1,2.2,15.3,4.9c4.2,2.6,7.3,6,9.3,10.1c2,4.1,2.8,8.7,2.3,13.8
					c-0.5,4.9-2.1,9.1-4.9,12.6s-6.5,6.1-11.2,7.8C588.5,389.5,583.2,390,577.1,389.4z M578.8,373.4c2.4,0.2,4.3-0.4,5.5-2
					s2-3.6,2.3-6.3c0.3-2.6-0.1-4.9-1-6.7c-0.9-1.8-2.6-2.9-5-3.1c-2.3-0.2-4.1,0.4-5.5,2c-1.4,1.6-2.2,3.7-2.5,6.4
					c-0.3,2.7,0.1,4.9,1.1,6.7C574.8,372.2,576.5,373.2,578.8,373.4z"/>
			</g>
			<path class="st0" d="M575.1,326.7l-77.3-8.1c-1.4-0.1-2.9,0.1-4.1,0.9c-10,7-1.5,14.7,11.8,12.6c-1.9,8,6.1,9.2,14.1,2.2
				c-2.7,24.7,14.3,31.8,38.8,4.6c7,15,20.1,13.1,22.4-5.5C581.4,330,578.6,327.1,575.1,326.7z"/>
		</g>
	</g>
</g>
<g>
	<g>
		<path class="st39" d="M645.3,400.7c-0.6,0.9-9.2-2.2-11.2-1.8c-2.1,0.5-7.7,6.8-8.9,6.1l0,0c-1.2-0.7,2.1-8.6,1.7-10.7
			s-7-8.4-6.4-9.4l0,0c0.6-0.9,9.2,2.2,11.2,1.8s7.7-6.8,8.9-6.1c1.2,0.7-2.1,8.6-1.7,10.7C639.3,393.4,645.9,399.7,645.3,400.7"/>
	</g>
</g>
<g>
	<g>
		<path class="st39" d="M630.8,376.5c-0.5,0.3-3.5-3.7-4.6-4.1c-1.1-0.4-5.5,0.9-5.8,0.2l0,0c-0.3-0.7,3.5-3.3,3.9-4.4
			c0.4-1.1-0.8-5.9-0.2-6.1l0,0c0.5-0.3,3.5,3.7,4.6,4.1c1.1,0.4,5.5-0.9,5.8-0.2c0.3,0.7-3.5,3.3-3.9,4.4
			C630.3,371.4,631.4,376.3,630.8,376.5"/>
	</g>
</g>
<g>
	<g>
		<path class="st39" d="M624,415.8c-0.2,0.6-5.1,0-6.1,0.5s-3.2,4.6-3.9,4.4l0,0c-0.7-0.2,0-4.8-0.5-5.8c-0.5-1-4.8-3.5-4.6-4.1l0,0
			c0.2-0.6,5.1,0,6.1-0.5s3.2-4.6,3.9-4.4c0.7,0.2,0,4.8,0.5,5.8S624.1,415.3,624,415.8"/>
	</g>
</g>
<g>
	<g>
		<g id="Logo_00000014618394789341219660000010374987977870373272_">
			<path class="st0" d="M258.2,235c1.6,1.1,2.9,2.5,3.6,4.3c0.2-0.1,0.4-0.2,0.6-0.3c1.1-0.4,2.7-0.4,3.9-0.1
				c0.1,1.9-0.1,2.6-0.9,4.3c0.9,0.3,1.5,0.9,2.2,1.5c-1,1.8-2.9,3.5-5.1,3.1c0,0-0.1,0-0.1,0c-0.4,0.5-1.3,1.1-1.8,1.4
				c-0.6-0.1-1.6-0.3-2.2-0.7c0,0-0.1,0-0.1,0c-1.9,1.2-4.3,0.3-5.8-1.1c0.5-0.9,0.8-1.7,1.6-2.3c-1.3-1.4-1.8-2-2.3-3.9
				c1.1-0.7,2.5-1.3,3.7-1.2c0.2,0,0.5,0,0.7,0.1C256.3,238.3,257.1,236.5,258.2,235z"/>
		</g>
	</g>
</g>
<g class="st62">
	<g>
		<g id="Logo_00000178188402462801449970000004021374599982383538_">
			<path class="st7" d="M428.7,238.7c1.4,0.4,2.7,1.2,3.7,2.4c0.1-0.1,0.2-0.3,0.4-0.4c0.7-0.6,1.9-0.9,2.8-0.9
				c0.5,1.4,0.5,1.9,0.4,3.4c0.8,0,1.3,0.3,2,0.6c-0.3,1.6-1.3,3.2-3,3.4c0,0-0.1,0-0.1,0.1c-0.1,0.5-0.7,1.1-1,1.5
				c-0.5,0-1.3,0.2-1.8,0c0,0-0.1,0-0.1,0c-1.1,1.3-3.1,1.3-4.6,0.6c0.2-0.8,0.2-1.4,0.6-2.1c-1.3-0.7-1.7-1-2.6-2.3
				c0.6-0.8,1.5-1.6,2.4-1.8c0.2-0.1,0.4-0.1,0.5-0.1C428.1,241.7,428.2,240.1,428.7,238.7z"/>
		</g>
	</g>
</g>
<g>
	<g>
		<g id="Logo_00000000223648473017805990000013378427816251933875_">
			<path class="st63" d="M259.5,241.6c0.4,0.3,0.8,0.6,1,1.1c0,0,0.1-0.1,0.2-0.1c0.3-0.1,0.7-0.1,1-0.1c0.1,0.5,0,0.7-0.2,1.1
				c0.2,0.1,0.4,0.2,0.6,0.4c-0.2,0.5-0.7,1-1.3,0.9c0,0,0,0,0,0c-0.1,0.1-0.3,0.3-0.5,0.4c-0.2,0-0.4-0.1-0.6-0.2c0,0,0,0,0,0
				c-0.5,0.3-1.1,0.1-1.6-0.2c0.1-0.2,0.2-0.5,0.4-0.6c-0.4-0.4-0.5-0.5-0.6-1c0.3-0.2,0.6-0.4,1-0.4c0.1,0,0.1,0,0.2,0
				C259.1,242.5,259.3,242,259.5,241.6z"/>
		</g>
	</g>
</g>
</svg>
