<?xml version="1.0" encoding="utf-8"?>
<!-- Generator: Adobe Illustrator 28.4.1, SVG Export Plug-In . SVG Version: 6.00 Build 0)  -->
<svg version="1.1" id="Layer_2_00000124863569196042102610000004875073211404526762_"
	 xmlns="http://www.w3.org/2000/svg" xmlns:xlink="http://www.w3.org/1999/xlink" x="0px" y="0px" viewBox="0 0 600 1000"
	 style="enable-background:new 0 0 600 1000;" xml:space="preserve">
<style type="text/css">
	.st0{display:none;fill:#FFFFFF;stroke:#000000;stroke-miterlimit:10;}
	.st1{fill:#00ECF2;}
	.st2{fill:#232323;}
	.st3{opacity:0.6;}
	.st4{fill:#FFFFFF;}
	.st5{opacity:0.2;}
	.st6{fill:#F5F5F5;}
	.st7{fill:#FF8048;}
	.st8{opacity:0.4;}
	.st9{fill:#6B6B6B;}
	.st10{fill:#1FA5FF;}
	.st11{opacity:0.5;}
	.st12{fill:#FFC200;}
	.st13{opacity:0.3;}
	.st14{fill:#29B6F6;}
</style>
<path class="st0" d="M513,687H87c-14.9,0-27-12.1-27-27V85.6c0-14.9,12.1-27,27-27h426c14.9,0,27,12.1,27,27V660
	C540,674.9,527.9,687,513,687z"/>
<g>
	<g>
		<g>
			<g>
				<g>
					<path class="st1" d="M454.1,262.7c0,0,38.3-10,73.7,45.1c0,0,56.9,92.2,9.4,132.8l-8.9-5.2L454.1,262.7z"/>
					<path class="st2" d="M537.3,446.5c-1,0-2-0.3-3-0.8l-8.9-5.2c-1.1-0.6-2-1.6-2.5-2.8L448.7,265c-0.7-1.6-0.6-3.4,0.1-4.9
						c0.8-1.5,2.1-2.7,3.8-3.1c1.7-0.5,42.9-10.4,80.2,47.6c2.5,4,59,97.1,8.3,140.5C540,446,538.6,446.5,537.3,446.5z M533,431.3
						l3.4,2c37.5-38.3-13.1-121.5-13.6-122.4c-23.8-37.1-48.3-42.8-60.1-43.1L533,431.3z"/>
				</g>
				<g class="st3">
					<path class="st4" d="M531.5,327.2c-4.7-9.8-8.5-16-8.7-16.3c-7.6-11.9-15.3-20.5-22.7-26.8c-15.5-13.3-29.4-16-37.4-16.3
						l5.3,12.3c7.8,1.2,18.5,4.7,30.3,14.3c0.9,5.2,3.7,11.6,7.9,17.8c6.2,9,14,15.1,19.7,16.1c6.8,12.4,22.1,43.2,24,72.4
						C552,374.8,540.2,345.1,531.5,327.2z"/>
				</g>
				<g class="st5">
					<path class="st2" d="M528.2,308.3c9.4,29.1,13.6,65.1-11.6,86.5l-7.6-4.4l19.3,44.9l8.9,5.2
						C582.7,401.8,532.6,315.7,528.2,308.3z"/>
				</g>
				<g>
					<rect x="250.5" y="515" class="st6" width="34" height="87.7"/>
					<path class="st2" d="M284.4,608.7h-34c-3.3,0-5.9-2.6-5.9-5.9V515c0-3.3,2.6-5.9,5.9-5.9h34c3.3,0,5.9,2.6,5.9,5.9v87.7
						C290.3,606,287.7,608.7,284.4,608.7z M256.4,596.9h22.2V521h-22.2V596.9z"/>
				</g>
				<g>
					<g>
						<path class="st7" d="M109,875.9c-3.5,0-7-1-10.2-3.1c-8.5-5.6-10.7-17.1-5.1-25.5L246.5,618c5.6-8.5,17.1-10.7,25.5-5.1
							c8.5,5.6,10.7,17.1,5.1,25.5L124.3,867.7C120.7,873,114.9,875.9,109,875.9z"/>
						<path class="st2" d="M109,881.8c-4.8,0-9.5-1.4-13.5-4.1c-11.1-7.4-14.2-22.5-6.7-33.7l152.8-229.2
							c7.4-11.1,22.5-14.2,33.7-6.7c5.4,3.6,9.1,9.1,10.3,15.4c1.3,6.4,0,12.8-3.6,18.2L129.2,870.9
							C124.7,877.7,117.1,881.8,109,881.8z M261.8,615.7c-4,0-8,2-10.4,5.6L98.6,850.5c-3.8,5.7-2.3,13.5,3.5,17.3
							c2.1,1.4,4.5,2.1,6.9,2.1c4.2,0,8.1-2.1,10.4-5.6l152.8-229.2c1.9-2.8,2.5-6.1,1.9-9.4c-0.7-3.3-2.5-6.1-5.3-7.9
							C266.6,616.4,264.2,615.7,261.8,615.7z"/>
					</g>
				</g>
				<g class="st8">
					<path class="st4" d="M106,853.5l152.8-229.2c2.4-3.6,6.4-5.6,10.4-5.6c0.2,0,0.5,0,0.7,0.1c-0.4-0.3-0.8-0.6-1.2-0.9
						c-2.1-1.4-4.5-2.1-6.9-2.1c-4,0-8,2-10.4,5.6L98.6,850.5c-3.8,5.7-2.3,13.5,3.5,17.3c1.9,1.2,4,1.9,6.2,2
						C103.5,865.9,102.4,858.8,106,853.5z"/>
				</g>
				<g>
					<g>
						<path class="st7" d="M426,875.9c-5.9,0-11.8-2.9-15.3-8.2L257.8,638.4c-5.6-8.5-3.4-19.9,5.1-25.5s19.9-3.4,25.5,5.1
							l152.8,229.2c5.6,8.5,3.4,19.9-5.1,25.5C433,874.9,429.5,875.9,426,875.9z"/>
						<path class="st2" d="M426,881.8c-8.2,0-15.7-4-20.2-10.8L252.9,641.7c-3.6-5.4-4.9-11.9-3.6-18.2c1.3-6.4,4.9-11.8,10.3-15.4
							c5.4-3.6,11.9-4.9,18.2-3.6c6.4,1.3,11.9,4.9,15.5,10.3L446.1,844c7.4,11.1,4.4,26.3-6.7,33.7
							C435.4,880.3,430.8,881.8,426,881.8z M273.1,615.7c-2.4,0-4.8,0.7-6.9,2.1c-2.8,1.9-4.7,4.7-5.3,7.9c-0.7,3.3,0,6.6,1.9,9.4
							l152.8,229.2c2.3,3.5,6.2,5.6,10.4,5.6c2.5,0,4.9-0.7,6.9-2.1c5.7-3.8,7.3-11.6,3.5-17.3L283.5,621.3
							c-1.9-2.8-4.7-4.7-7.9-5.3C274.7,615.8,273.9,615.7,273.1,615.7z"/>
					</g>
				</g>
				<g class="st8">
					<path class="st4" d="M436.3,850.5L283.5,621.3c-1.9-2.8-4.7-4.7-7.9-5.3c-0.8-0.2-1.7-0.2-2.5-0.2c-2.4,0-4.8,0.7-6.9,2.1
						c-1.9,1.3-3.4,3-4.3,5c1.7-0.8,3.5-1.2,5.3-1.2c0.8,0,1.7,0.1,2.5,0.2c3.3,0.7,6.1,2.5,7.9,5.3l152.8,229.2
						c2.5,3.8,2.7,8.5,0.9,12.3c0.5-0.3,1.1-0.6,1.6-0.9C438.6,864,440.2,856.3,436.3,850.5z"/>
				</g>
				<g>
					<g>
						<path class="st7" d="M267.5,880.1c-10.2,0-18.4-8.2-18.4-18.4V633.9c0-10.2,8.2-18.4,18.4-18.4c10.2,0,18.4,8.2,18.4,18.4
							v227.8C285.9,871.9,277.6,880.1,267.5,880.1z"/>
						<path class="st2" d="M267.5,886c-13.4,0-24.3-10.9-24.3-24.3V633.9c0-13.4,10.9-24.3,24.3-24.3c13.4,0,24.3,10.9,24.3,24.3
							v227.8C291.8,875.1,280.9,886,267.5,886z M267.5,621.4c-6.9,0-12.5,5.6-12.5,12.5v227.8c0,6.9,5.6,12.5,12.5,12.5
							s12.5-5.6,12.5-12.5V633.9C280,627,274.3,621.4,267.5,621.4z"/>
					</g>
				</g>
				<g class="st8">
					<path class="st4" d="M263.8,861.7V633.9c0-5.3,3.4-9.9,8.1-11.7c-1.4-0.5-2.9-0.8-4.4-0.8c-6.9,0-12.5,5.6-12.5,12.5v227.8
						c0,6.9,5.6,12.5,12.5,12.5c1.6,0,3-0.3,4.4-0.8C267.2,871.6,263.8,867,263.8,861.7z"/>
				</g>
				<g>
					<path class="st9" d="M306.5,632.4h-78.2c-5.3,0-9.6-4.3-9.6-9.6V608c0-5.3,4.3-9.6,9.6-9.6h78.2c5.3,0,9.6,4.3,9.6,9.6v14.8
						C316.1,628.1,311.8,632.4,306.5,632.4z"/>
					<path class="st2" d="M299.1,638.3h-63.4c-12.6,0-22.9-10.3-22.9-22.9c0-12.6,10.3-22.9,22.9-22.9h63.4
						c12.6,0,22.9,10.3,22.9,22.9S311.8,638.3,299.1,638.3z M235.8,604.3c-6.1,0-11.1,5-11.1,11.1s5,11.1,11.1,11.1h63.4
						c6.1,0,11.1-5,11.1-11.1s-5-11.1-11.1-11.1H235.8z"/>
				</g>
				<g class="st5">
					<path class="st2" d="M302.5,598.7c0.2,1.1,0.3,2.2,0.3,3.4c0,9.4-7.6,17-17,17h-63.4c-1.2,0-2.3-0.1-3.4-0.3
						c1.6,7.8,8.4,13.6,16.6,13.6H299c9.4,0,17-7.6,17-17C316.1,607.2,310.3,600.3,302.5,598.7z"/>
				</g>
				<g class="st8">
					<path class="st4" d="M232.1,619.8c0-6.1,5-11.1,11.1-11.1h63.4c0.5,0,1,0,1.6,0.1c-2-2.8-5.3-4.5-8.9-4.5h-63.4
						c-6.1,0-11.1,5-11.1,11.1c0,5.6,4.2,10.2,9.5,11C232.9,624.5,232.1,622.3,232.1,619.8z"/>
				</g>
				<g>
					<polygon class="st10" points="431.3,279.7 230.8,367.1 315.2,533.2 504.5,450.6 					"/>
					<path class="st2" d="M315.2,539.1c-2.2,0-4.2-1.2-5.3-3.2l-84.3-166.1c-0.7-1.4-0.8-3.1-0.3-4.7c0.5-1.5,1.7-2.8,3.2-3.4
						L429,274.3c1.4-0.6,3.1-0.7,4.5-0.1c1.5,0.6,2.6,1.7,3.2,3.2l73.2,170.9c1.3,3-0.1,6.4-3.1,7.7l-189.4,82.6
						C316.8,538.9,316,539.1,315.2,539.1z M238.9,370l79,155.5l178.9-78l-68.5-160.1L238.9,370z"/>
				</g>
				<g class="st11">
					<polygon class="st4" points="432.4,297.1 244.8,378.9 319.1,525 324.4,522.7 258.1,392.2 439.3,313.2 					"/>
				</g>
				<g>
					<path class="st12" d="M432,257L432,257c12.2-5.5,26.5-0.1,32.1,12.1l74.2,162.5c5.6,12.3,0.2,26.7-12.1,32.3l0,0
						c-12.2,5.5-26.5,0.1-32.1-12.1l-74.2-162.5C414.3,277,419.7,262.5,432,257z"/>
					<path class="st2" d="M516.2,471.8c-11.5,0-22.5-6.6-27.5-17.7l-74.2-162.5c-3.4-7.4-3.6-15.6-0.8-23.2
						c2.9-7.6,8.5-13.6,15.9-16.9l0,0c15.1-6.8,33-0.1,39.9,15L543.7,429c3.4,7.4,3.6,15.6,0.8,23.2c-2.9,7.6-8.5,13.6-15.9,16.9
						C524.6,471,520.4,471.8,516.2,471.8z M434.4,262.3c-4.5,2-7.9,5.7-9.7,10.3c-1.7,4.6-1.6,9.6,0.5,14.1l74.2,162.5
						c4.2,9.2,15.1,13.3,24.3,9.1c4.5-2,7.9-5.7,9.7-10.3c1.7-4.6,1.6-9.6-0.5-14.1l-74.2-162.5
						C454.5,262.3,443.6,258.2,434.4,262.3L434.4,262.3z"/>
				</g>
				<g class="st13">
					<path class="st2" d="M535,449L535,449c-12.2,5.5-26.5,0.1-32.1-12.1l-74.2-162.5c-2.1-4.7-2.7-9.7-1.8-14.4
						c-8.6,6.8-11.8,18.7-7,29.1l74.2,162.5c5.6,12.2,19.9,17.6,32.1,12.1l0,0c7.6-3.4,12.6-10.3,13.9-17.9
						C538.5,447.1,536.9,448.2,535,449z"/>
				</g>
				<g>
					<polygon class="st14" points="216.8,440.9 44.2,517.5 67.4,575.2 236.5,499 					"/>
					<path class="st2" d="M67.4,581.1c-0.7,0-1.5-0.1-2.2-0.4c-1.5-0.6-2.7-1.8-3.3-3.3l-23.2-57.7c-1.2-2.9,0.2-6.3,3.1-7.6
						l172.6-76.6c1.5-0.7,3.2-0.7,4.8,0c1.5,0.7,2.7,1.9,3.2,3.5l19.7,58.1c1,2.9-0.4,6-3.2,7.3L69.8,580.6
						C69.1,581,68.2,581.1,67.4,581.1z M51.8,520.6l18.8,46.8l158.6-71.6l-15.9-46.9L51.8,520.6z"/>
				</g>
				<g>
					<polygon class="st10" points="51.8,520.6 70.6,567.3 229.2,495.8 213.3,448.9 					"/>
				</g>
				<g class="st11">
					<polygon class="st4" points="60.6,536.8 219.6,466.2 216.2,456.3 54.7,527.9 73.5,574.7 75.5,573.8 					"/>
				</g>
				<g>
					<path class="st10" d="M229.1,395.4l-65.5,30.2c-16.3,7.5-23.6,26.7-16.4,43.1l27.1,62.1c7.3,16.8,27,24.4,43.7,16.9l67.9-30.5
						L229.1,395.4z"/>
					<path class="st2" d="M204.5,556.5c-4.7,0-9.5-0.9-14-2.6c-9.8-3.8-17.4-11.1-21.6-20.7l-27.1-62.1c-8.4-19.2,0.3-42,19.3-50.8
						l65.5-30.2c2.9-1.4,6.4-0.1,7.8,2.9l56.8,121.9c0.7,1.4,0.7,3.1,0.2,4.6c-0.6,1.5-1.7,2.7-3.1,3.3l-67.9,30.5
						C215.3,555.4,209.9,556.5,204.5,556.5z M226.2,403.2L166.1,431c-13.3,6.1-19.3,22-13.5,35.4l27.1,62.1
						c2.9,6.7,8.3,11.8,15,14.4c6.8,2.6,14.2,2.4,20.8-0.5l62.5-28L226.2,403.2z"/>
				</g>
				<g class="st11">
					<path class="st4" d="M177.9,450.2l56.3-26l-5-10.6L169,441.3c-10.6,4.9-16.5,15.9-15.6,27l26.2,60.1c1.8,4.1,4.5,7.7,8,10.4
						l-23.2-53.3C158.6,472.2,164.6,456.3,177.9,450.2z"/>
				</g>
				<g>
					<path class="st12" d="M225.5,353.4L225.5,353.4c11.2-4.9,24.2,0.2,29.2,11.4l66.1,149.3c5,11.3-0.1,24.4-11.4,29.3l0,0
						c-11.2,4.9-24.2-0.2-29.2-11.4L214,382.7C209,371.5,214.2,358.3,225.5,353.4z"/>
					<path class="st2" d="M300.4,551.2c-10.8,0-21.1-6.3-25.8-16.7l-66.1-149.3c-3-6.9-3.2-14.6-0.5-21.6s8-12.5,15-15.6
						c14.1-6.2,30.7,0.3,36.9,14.4L326,511.7c3,6.9,3.2,14.6,0.5,21.6s-8,12.6-15,15.6C308,550.4,304.2,551.2,300.4,551.2z
						 M234.3,357.4c-2.2,0-4.4,0.4-6.5,1.4l0,0c-4,1.7-7.1,5-8.7,9c-1.6,4.1-1.5,8.5,0.3,12.5l66.1,149.3
						c3.6,8.2,13.2,11.9,21.4,8.4c4-1.7,7.1-5,8.7-9c1.6-4.1,1.5-8.5-0.3-12.5l-66.1-149.3C246.6,361,240.6,357.4,234.3,357.4z
						 M225.5,353.4L225.5,353.4L225.5,353.4z"/>
				</g>
				<g class="st5">
					<path class="st2" d="M318.1,530.1c-11.2,4.9-24.2-0.2-29.2-11.4l-66.1-149.3c-2-4.5-2.3-9.4-1.3-13.9
						c-8.5,6-11.9,17.3-7.5,27.1L280.1,532c4.9,11.2,18,16.3,29.2,11.4c6.7-2.9,11.3-8.8,12.8-15.5
						C320.8,528.8,319.5,529.5,318.1,530.1z"/>
				</g>
				<g>
					<path class="st12" d="M20.4,506.9L20.4,506.9C8.2,512.1,2.6,526.4,8,538.5l22.5,50.7c5.3,11.9,19.2,17.4,31.2,12.3l0,0
						c12.2-5.2,17.8-19.5,12.4-31.6l-22.5-50.7C46.3,507.2,32.4,501.7,20.4,506.9z"/>
					<path class="st2" d="M52.4,609.3c-11.4,0-22.4-6.6-27.3-17.7L2.6,540.9c-3.3-7.3-3.4-15.5-0.5-23s8.6-13.3,16-16.5
						c14.9-6.4,32.4,0.5,39,15.3l22.5,50.8c3.3,7.3,3.4,15.5,0.5,23s-8.6,13.3-16,16.5C60.3,608.6,56.3,609.3,52.4,609.3z
						 M29.7,510.9c-2.4,0-4.7,0.5-7,1.4l0,0c-4.5,1.9-7.9,5.4-9.7,10c-1.8,4.5-1.7,9.4,0.3,13.9l22.5,50.7c4,9,14.5,13.1,23.5,9.2
						c4.5-1.9,7.9-5.4,9.7-10c1.8-4.5,1.7-9.4-0.3-13.9l-22.5-50.8C43.3,514.9,36.6,510.9,29.7,510.9z M20.4,506.9L20.4,506.9
						L20.4,506.9z"/>
				</g>
				<g class="st5">
					<path class="st2" d="M70.6,583.8L70.6,583.8c-12,5.2-25.9-0.3-31.2-12.3l-22.5-50.7c-1.5-3.4-2.1-7-2-10.6
						c-8.2,6.6-11.3,18.1-6.8,28.3l22.5,50.7c5.3,11.9,19.2,17.4,31.2,12.3l0,0c8.8-3.8,14.1-12.2,14.4-21.1
						C74.5,581.8,72.7,582.9,70.6,583.8z"/>
				</g>
				<g class="st11">
					<path class="st4" d="M68.8,572.3l-22.5-50.7c-3-6.7-9.6-10.7-16.5-10.7c-2.4,0-4.7,0.5-7,1.4c-4.5,1.9-7.9,5.4-9.7,10
						c-0.2,0.4-0.3,0.8-0.4,1.2c1.6-1.6,3.5-2.9,5.6-3.8c2.3-1,4.7-1.4,7-1.4c6.9,0,13.5,4,16.5,10.7l22.5,50.7
						c1.8,4,2,8.5,0.7,12.6c1.7-1.7,3.1-3.8,4-6.1C70.9,581.6,70.7,576.7,68.8,572.3z"/>
				</g>
				<g class="st5">
					<path class="st2" d="M486.5,446.3l-3.6-5.6h0.1c-122.3,52.4-222.3-72-227.1-78h-0.1l62.3,157.1L486.5,446.3z"/>
				</g>
				<g class="st5">
					<polygon class="st2" points="401.9,294.5 471.3,461.3 493.4,452.4 419.7,288.7 					"/>
				</g>
				<g>
					<g>
						<ellipse class="st2" cx="410.2" cy="322.6" rx="7.3" ry="7.3"/>
					</g>
					<g>
						<ellipse class="st2" cx="291.2" cy="373.3" rx="7.3" ry="7.3"/>
					</g>
					<g>
						<ellipse class="st2" cx="463.9" cy="443.1" rx="7.3" ry="7.3"/>
					</g>
					<g>
						<ellipse class="st2" cx="344.9" cy="493.8" rx="7.3" ry="7.3"/>
					</g>
				</g>
				<g class="st11">
					<path class="st4" d="M532.9,434l-57.4-125.7l-6.2-13.7l0,0l-10.5-23.1c-3.1-6.8-9.8-10.8-16.8-10.8c-2.5,0-5.1,0.5-7.5,1.6l0,0
						c-4.5,2-7.9,5.7-9.7,10.3c-0.4,1-0.6,2-0.8,3c1.7-1.8,3.7-3.4,6.1-4.4l0,0c2.4-1.1,5-1.6,7.5-1.6c7,0,13.7,4,16.8,10.8l10.9,24
						l-15.2,36.8l16.5,36.1l15.2-36.8l10.3,22.6l-15.2,36.8l7.2,15.8l15.2-36.8l29.2,64c1.6,3.5,2,7.4,1.3,11.2
						c1.5-1.7,2.8-3.7,3.6-5.9C535.1,443.5,535,438.5,532.9,434z"/>
				</g>
				<g class="st11">
					<path class="st4" d="M315.3,516.4L291,461.5l0,0l-4.7-10.6l-37.1-83.8c-3.6-8.2-13.2-11.9-21.4-8.4c-4,1.7-7.1,5-8.7,9
						c-0.6,1.6-1,3.3-1.1,5c1.5-1.6,3.3-2.9,5.3-3.8c8.2-3.6,17.8,0.2,21.4,8.4l7.8,17.5l-13.1,30.6l15.4,34.8l13.1-30.6l10,22.5
						L264.8,483l8.6,19.5l13.1-30.6l24.3,54.9c1.1,2.4,1.5,4.9,1.4,7.5c1.4-1.5,2.6-3.3,3.3-5.3
						C317.2,524.9,317.1,520.4,315.3,516.4z"/>
				</g>
				<g>
					<g class="st5">
						<path class="st2" d="M158.6,442.2c0,0,0,0.1,0.1,0.1C158.7,442.3,158.7,442.3,158.6,442.2z"/>
					</g>
					<g class="st5">
						<path class="st2" d="M159.9,444.5c0,0,0,0.1,0.1,0.1C159.9,444.6,159.9,444.6,159.9,444.5z"/>
					</g>
					<g class="st5">
						<path class="st2" d="M157.5,440.2C157.5,440.2,157.6,440.2,157.5,440.2C157.6,440.2,157.5,440.2,157.5,440.2z"/>
					</g>
					<g class="st5">
						<path class="st2" d="M191.7,538.4c6.8,2.6,14.2,2.4,20.8-0.5l37.8-16.9l0,0c-37.7-4.2-66.1-37.8-81.9-62.2
							c-5.2-7.6-9.3-14.6-12.2-19.9c-6,7.6-7.7,18.2-3.6,27.6l27.1,62.1c0.3,0.7,0.6,1.3,1,1.9C183.5,534,187.3,536.7,191.7,538.4z"
							/>
					</g>
				</g>
				<g>
					
						<ellipse transform="matrix(0.7071 -0.7071 0.7071 0.7071 -309.2334 300.9569)" class="st2" cx="208.7" cy="523.8" rx="7.3" ry="7.3"/>
				</g>
				<g>
					
						<ellipse transform="matrix(0.9239 -0.3827 0.3827 0.9239 -159.1352 99.9864)" class="st2" cx="171.8" cy="450" rx="7.3" ry="7.3"/>
				</g>
				<g class="st5">
					<polygon class="st2" points="219.5,401.3 205.8,408.2 254.5,527.6 275.1,519 					"/>
				</g>
				<g class="st5">
					<path class="st2" d="M54.7,515.4c0,0,27.2,57.9,117.2,4.8l-1.8,7.4L76,568.8L54.7,515.4z"/>
				</g>
				<g class="st13">
					<path class="st2" d="M288.4,573.4l-1.5-31l-2.5-3.8V515h-16.2v11.6l-13.7,3.9l-7.4,10.3l11,7.3c8.8,5.8,14.1,15.7,14.1,26.2
						v28.4h12.2v-32.5L288.4,573.4z"/>
				</g>
				<g class="st5">
					<polygon class="st2" points="138.4,476.9 154.2,533.5 172.2,527.8 149.8,473.1 					"/>
				</g>
				<g class="st5">
					<path class="st2" d="M201.4,748.8c0,0-84.1,82.6-100.3,82.6c0,0-22.7,28.1,1.2,42.1c0,0,16.3,2.7,28.2-10.8L201.4,748.8z"/>
				</g>
				<g class="st13">
					<polygon class="st2" points="229.1,645.4 237.7,698.5 249.5,688.9 251.1,632.5 232.4,635.3 					"/>
				</g>
				<g class="st13">
					<polygon class="st2" points="304.2,645.4 295.6,698.5 283.8,688.9 282.2,632.5 300.9,635.3 					"/>
				</g>
				<g class="st5">
					<path class="st2" d="M286.2,740.8c0,0-8.1,98-42,68.5l4.4,60.5l19.2,10.3l20.6-14.7L286.2,740.8z"/>
				</g>
				<g class="st5">
					<path class="st2" d="M335.3,752.7c0,0,34.3,52.2,74.1,47.8l32.4,47.2l0.4,21.6l-25.5,6.4L335.3,752.7z"/>
				</g>
				<g class="st5">
					<polygon class="st2" points="245.7,633.7 245.7,647 285.5,651.4 285.9,632.3 245.7,632.3 					"/>
				</g>
			</g>
		</g>
		<g>
			<g>
				<circle class="st4" cx="172.7" cy="672" r="8.2"/>
			</g>
			<g>
				<circle class="st4" cx="581.4" cy="673.2" r="9.4"/>
			</g>
			<g>
				
					<ellipse transform="matrix(0.8248 -0.5655 0.5655 0.8248 -41.0063 379.6925)" class="st4" cx="592.1" cy="256" rx="7.9" ry="7.9"/>
			</g>
			<g>
				<path class="st4" d="M552,192.3c1.8-1.8,0.7-6.1-2.5-11c-1-1.5-1-3.3,0-4.8c3.2-4.9,4.4-9.2,2.5-11c-1.8-1.8-6.1-0.7-11,2.5
					c-1.5,1-3.3,1-4.8,0c-4.9-3.2-9.2-4.4-11-2.5c-1.8,1.8-0.7,6.1,2.5,11c1,1.5,1,3.3,0,4.8c-3.2,4.9-4.4,9.2-2.5,11
					c1.8,1.8,6.1,0.7,11-2.5c1.5-1,3.3-1,4.8,0C545.9,193,550.2,194.1,552,192.3z"/>
			</g>
			<g>
				<path class="st4" d="M127.4,621.4c2.1,0,3.9-3.1,4.9-7.8c0.3-1.4,1.4-2.5,2.7-2.7c4.7-1,7.8-2.8,7.8-4.9c0-2.1-3.1-3.9-7.8-4.9
					c-1.4-0.3-2.5-1.4-2.7-2.7c-1-4.7-2.8-7.8-4.9-7.8c-2.1,0-3.9,3.1-4.9,7.8c-0.3,1.4-1.4,2.5-2.7,2.7c-4.7,1-7.8,2.8-7.8,4.9
					c0,2.1,3.1,3.9,7.8,4.9c1.4,0.3,2.5,1.4,2.7,2.7C123.5,618.3,125.3,621.4,127.4,621.4z"/>
			</g>
			<g>
				<ellipse class="st4" cx="191" cy="126.5" rx="12.5" ry="12.5"/>
			</g>
			<g>
				<ellipse class="st4" cx="114.3" cy="176.1" rx="8.1" ry="8.1"/>
			</g>
		</g>
	</g>
</g>
</svg>
