<?xml version="1.0" encoding="utf-8"?>
<!-- Generator: Adobe Illustrator 28.4.1, SVG Export Plug-In . SVG Version: 6.00 Build 0)  -->
<svg version="1.1" id="Layer_1" xmlns="http://www.w3.org/2000/svg" xmlns:xlink="http://www.w3.org/1999/xlink" x="0px" y="0px"
	 viewBox="0 0 232 242" style="enable-background:new 0 0 232 242;" xml:space="preserve">
<style type="text/css">
	.st0{display:none;fill:#FFFFFF;stroke:#000000;stroke-miterlimit:10;}
	.st1{fill:#00ECF2;}
	.st2{fill:#232323;}
	.st3{opacity:0.6;}
	.st4{fill:#FFFFFF;}
	.st5{opacity:0.2;}
	.st6{fill:#F5F5F5;}
	.st7{fill:#FF8048;}
	.st8{opacity:0.4;}
	.st9{fill:#6B6B6B;}
	.st10{fill:#1FA5FF;}
	.st11{opacity:0.5;}
	.st12{fill:#FFC200;}
	.st13{opacity:0.3;}
	.st14{fill:#29B6F6;}
</style>
<path class="st0" d="M132.3,171H44.2c-3.1,0-5.6-2.5-5.6-5.6V46.7c0-3.1,2.5-5.6,5.6-5.6h88.1c3.1,0,5.6,2.5,5.6,5.6v118.7
	C137.9,168.5,135.4,171,132.3,171z"/>
<g>
	<g>
		<g>
			<g>
				<g>
					<path class="st1" d="M164.1,47.5c0,0,12-3.1,23,14.1c0,0,17.8,28.8,2.9,41.4l-2.8-1.6L164.1,47.5z"/>
					<path class="st2" d="M190,104.9c-0.3,0-0.6-0.1-0.9-0.2l-2.8-1.6c-0.3-0.2-0.6-0.5-0.8-0.9l-23.2-53.9c-0.2-0.5-0.2-1.1,0-1.5
						c0.2-0.5,0.7-0.8,1.2-1c0.5-0.2,13.4-3.2,25,14.9c0.8,1.2,18.4,30.3,2.6,43.8C190.9,104.7,190.4,104.9,190,104.9z M188.7,100.1
						l1.1,0.6c11.7-12-4.1-37.9-4.2-38.2c-7.4-11.6-15.1-13.4-18.8-13.4L188.7,100.1z"/>
				</g>
				<g class="st3">
					<path class="st4" d="M188.2,67.6c-1.5-3.1-2.7-5-2.7-5.1c-2.4-3.7-4.8-6.4-7.1-8.4c-4.8-4.2-9.2-5-11.7-5.1l1.7,3.8
						c2.4,0.4,5.8,1.5,9.5,4.5c0.3,1.6,1.2,3.6,2.5,5.6c1.9,2.8,4.4,4.7,6.1,5c2.1,3.9,6.9,13.5,7.5,22.6
						C194.6,82.5,190.9,73.2,188.2,67.6z"/>
				</g>
				<g class="st5">
					<path class="st2" d="M187.2,61.7c2.9,9.1,4.2,20.3-3.6,27l-2.4-1.4l6,14l2.8,1.6C204.2,90.9,188.6,64,187.2,61.7z"/>
				</g>
				<g>
					<rect x="100.5" y="126.2" class="st6" width="10.6" height="27.4"/>
					<path class="st2" d="M111.1,155.5h-10.6c-1,0-1.8-0.8-1.8-1.8v-27.4c0-1,0.8-1.8,1.8-1.8h10.6c1,0,1.8,0.8,1.8,1.8v27.4
						C113,154.6,112.2,155.5,111.1,155.5z M102.4,151.8h6.9v-23.7h-6.9V151.8z"/>
				</g>
				<g>
					<g>
						<path class="st7" d="M56.4,238.8c-1.1,0-2.2-0.3-3.2-1c-2.7-1.7-3.3-5.3-1.6-8l47.7-71.6c1.7-2.7,5.3-3.3,8-1.6
							c2.7,1.7,3.3,5.3,1.6,8l-47.7,71.6C60,237.9,58.2,238.8,56.4,238.8z"/>
						<path class="st2" d="M56.4,240.7c-1.5,0-3-0.4-4.2-1.3c-3.5-2.3-4.4-7-2.1-10.5l47.7-71.5c2.3-3.5,7-4.4,10.5-2.1
							c1.7,1.1,2.8,2.8,3.2,4.8c0.4,2,0,4-1.1,5.7l-47.7,71.5C61.3,239.4,58.9,240.7,56.4,240.7z M104.1,157.7
							c-1.2,0-2.5,0.6-3.2,1.7l-47.7,71.5c-1.2,1.8-0.7,4.2,1.1,5.4c0.7,0.4,1.4,0.7,2.2,0.7c1.3,0,2.5-0.7,3.2-1.7l47.7-71.5
							c0.6-0.9,0.8-1.9,0.6-2.9c-0.2-1-0.8-1.9-1.7-2.5C105.6,157.9,104.8,157.7,104.1,157.7z"/>
					</g>
				</g>
				<g class="st8">
					<path class="st4" d="M55.5,231.9l47.7-71.5c0.7-1.1,2-1.7,3.2-1.7c0.1,0,0.2,0,0.2,0c-0.1-0.1-0.2-0.2-0.4-0.3
						c-0.7-0.4-1.4-0.7-2.2-0.7c-1.2,0-2.5,0.6-3.2,1.7l-47.7,71.5c-1.2,1.8-0.7,4.2,1.1,5.4c0.6,0.4,1.2,0.6,1.9,0.6
						C54.7,235.7,54.3,233.5,55.5,231.9z"/>
				</g>
				<g>
					<g>
						<path class="st7" d="M155.3,238.8c-1.8,0-3.7-0.9-4.8-2.6l-47.7-71.6c-1.7-2.7-1.1-6.2,1.6-8c2.7-1.7,6.2-1.1,8,1.6l47.7,71.5
							c1.7,2.7,1.1,6.2-1.6,8C157.5,238.5,156.4,238.8,155.3,238.8z"/>
						<path class="st2" d="M155.3,240.7c-2.6,0-4.9-1.2-6.3-3.4l-47.7-71.6c-1.1-1.7-1.5-3.7-1.1-5.7c0.4-2,1.5-3.7,3.2-4.8
							c1.7-1.1,3.7-1.5,5.7-1.1c2,0.4,3.7,1.5,4.8,3.2l47.7,71.5c2.3,3.5,1.4,8.2-2.1,10.5C158.2,240.2,156.8,240.7,155.3,240.7z
							 M107.6,157.7c-0.7,0-1.5,0.2-2.2,0.7c-0.9,0.6-1.5,1.5-1.7,2.5c-0.2,1,0,2.1,0.6,2.9l47.7,71.5c0.7,1.1,1.9,1.7,3.2,1.7
							c0.8,0,1.5-0.2,2.2-0.7c1.8-1.2,2.3-3.6,1.1-5.4l-47.7-71.5c-0.6-0.9-1.5-1.5-2.5-1.7C108.1,157.7,107.8,157.7,107.6,157.7z"
							/>
					</g>
				</g>
				<g class="st8">
					<path class="st4" d="M158.5,230.9l-47.7-71.5c-0.6-0.9-1.5-1.5-2.5-1.7c-0.2-0.1-0.5-0.1-0.8-0.1c-0.7,0-1.5,0.2-2.2,0.7
						c-0.6,0.4-1.1,0.9-1.3,1.6c0.5-0.2,1.1-0.4,1.7-0.4c0.2,0,0.5,0,0.8,0.1c1,0.2,1.9,0.8,2.5,1.7l47.7,71.5
						c0.8,1.2,0.8,2.7,0.3,3.8c0.2-0.1,0.3-0.2,0.5-0.3C159.2,235.1,159.7,232.7,158.5,230.9z"/>
				</g>
				<g>
					<g>
						<path class="st7" d="M105.9,240.2c-3.2,0-5.7-2.6-5.7-5.7v-71.1c0-3.2,2.6-5.7,5.7-5.7c3.2,0,5.7,2.6,5.7,5.7v71.1
							C111.6,237.6,109,240.2,105.9,240.2z"/>
						<path class="st2" d="M105.9,242c-4.2,0-7.6-3.4-7.6-7.6v-71.1c0-4.2,3.4-7.6,7.6-7.6c4.2,0,7.6,3.4,7.6,7.6v71.1
							C113.4,238.6,110,242,105.9,242z M105.9,159.4c-2.2,0-3.9,1.7-3.9,3.9v71.1c0,2.2,1.7,3.9,3.9,3.9s3.9-1.7,3.9-3.9v-71.1
							C109.8,161.2,108,159.4,105.9,159.4z"/>
					</g>
				</g>
				<g class="st8">
					<path class="st4" d="M104.7,234.4v-71.1c0-1.7,1.1-3.1,2.5-3.7c-0.4-0.2-0.9-0.2-1.4-0.2c-2.2,0-3.9,1.7-3.9,3.9v71.1
						c0,2.2,1.7,3.9,3.9,3.9c0.5,0,0.9-0.1,1.4-0.2C105.8,237.5,104.7,236.1,104.7,234.4z"/>
				</g>
				<g>
					<path class="st9" d="M118,162.9H93.6c-1.7,0-3-1.3-3-3v-4.6c0-1.7,1.3-3,3-3H118c1.7,0,3,1.3,3,3v4.6
						C121,161.5,119.7,162.9,118,162.9z"/>
					<path class="st2" d="M115.7,164.7H95.9c-3.9,0-7.1-3.2-7.1-7.1c0-3.9,3.2-7.1,7.1-7.1h19.8c3.9,0,7.1,3.2,7.1,7.1
						C122.9,161.5,119.7,164.7,115.7,164.7z M96,154.1c-1.9,0-3.5,1.6-3.5,3.5c0,1.9,1.6,3.5,3.5,3.5h19.8c1.9,0,3.5-1.6,3.5-3.5
						c0-1.9-1.6-3.5-3.5-3.5H96z"/>
				</g>
				<g class="st5">
					<path class="st2" d="M116.8,152.3c0.1,0.3,0.1,0.7,0.1,1.1c0,2.9-2.4,5.3-5.3,5.3H91.8c-0.4,0-0.7,0-1.1-0.1
						c0.5,2.4,2.6,4.2,5.2,4.2h19.8c2.9,0,5.3-2.4,5.3-5.3C121,155,119.2,152.8,116.8,152.3z"/>
				</g>
				<g class="st8">
					<path class="st4" d="M94.8,158.9c0-1.9,1.6-3.5,3.5-3.5h19.8c0.2,0,0.3,0,0.5,0c-0.6-0.9-1.7-1.4-2.8-1.4H96
						c-1.9,0-3.5,1.6-3.5,3.5c0,1.7,1.3,3.2,3,3.4C95.1,160.4,94.8,159.7,94.8,158.9z"/>
				</g>
				<g>
					<polygon class="st10" points="157,52.8 94.4,80.1 120.7,131.9 179.8,106.1 					"/>
					<path class="st2" d="M120.7,133.7c-0.7,0-1.3-0.4-1.7-1L92.8,80.9c-0.2-0.4-0.2-1-0.1-1.5c0.2-0.5,0.5-0.9,1-1.1l62.6-27.3
						c0.4-0.2,1-0.2,1.4,0c0.5,0.2,0.8,0.5,1,1l22.8,53.3c0.4,0.9,0,2-1,2.4l-59.1,25.8C121.2,133.7,121,133.7,120.7,133.7z
						 M96.9,81l24.7,48.5l55.8-24.3l-21.4-50L96.9,81z"/>
				</g>
				<g class="st11">
					<polygon class="st4" points="157.3,58.2 98.8,83.8 122,129.3 123.6,128.6 102.9,87.9 159.5,63.3 					"/>
				</g>
				<g>
					<path class="st12" d="M157.2,45.7L157.2,45.7c3.8-1.7,8.3,0,10,3.8l23.2,50.7c1.7,3.8,0.1,8.3-3.8,10.1l0,0
						c-3.8,1.7-8.3,0-10-3.8l-23.2-50.7C151.7,52,153.3,47.4,157.2,45.7z"/>
					<path class="st2" d="M183.5,112.7c-3.6,0-7-2.1-8.6-5.5l-23.2-50.7c-1.1-2.3-1.1-4.9-0.2-7.2c0.9-2.4,2.7-4.2,5-5.3l0,0
						c4.7-2.1,10.3,0,12.5,4.7L192,99.4c1.1,2.3,1.1,4.9,0.2,7.2c-0.9,2.4-2.7,4.2-5,5.3C186.1,112.5,184.8,112.7,183.5,112.7z
						 M157.9,47.4c-1.4,0.6-2.5,1.8-3,3.2c-0.5,1.4-0.5,3,0.2,4.4l23.2,50.7c1.3,2.9,4.7,4.2,7.6,2.8c1.4-0.6,2.5-1.8,3-3.2
						c0.5-1.4,0.5-3-0.2-4.4l-23.2-50.7C164.2,47.4,160.8,46.1,157.9,47.4L157.9,47.4z"/>
				</g>
				<g class="st13">
					<path class="st2" d="M189.3,105.6L189.3,105.6c-3.8,1.7-8.3,0-10-3.8l-23.2-50.7c-0.7-1.5-0.8-3-0.6-4.5
						c-2.7,2.1-3.7,5.8-2.2,9.1l23.2,50.7c1.7,3.8,6.2,5.5,10,3.8l0,0c2.4-1.1,3.9-3.2,4.3-5.6C190.4,105,189.9,105.4,189.3,105.6z"
						/>
				</g>
				<g>
					<polygon class="st14" points="90,103.1 36.2,127 43.4,145 96.2,121.2 					"/>
					<path class="st2" d="M43.4,146.9c-0.2,0-0.5,0-0.7-0.1c-0.5-0.2-0.8-0.6-1-1l-7.2-18c-0.4-0.9,0.1-2,1-2.4l53.9-23.9
						c0.5-0.2,1-0.2,1.5,0c0.5,0.2,0.8,0.6,1,1.1l6.1,18.1c0.3,0.9-0.1,1.9-1,2.3l-52.8,23.8C43.9,146.8,43.7,146.9,43.4,146.9z
						 M38.5,128l5.9,14.6l49.5-22.3l-5-14.6L38.5,128z"/>
				</g>
				<g>
					<polygon class="st10" points="38.5,128 44.4,142.5 93.9,120.2 88.9,105.6 					"/>
				</g>
				<g class="st11">
					<polygon class="st4" points="41.3,133 90.9,111 89.8,107.9 39.4,130.3 45.3,144.9 45.9,144.6 					"/>
				</g>
				<g>
					<path class="st10" d="M93.9,88.9l-20.4,9.4c-5.1,2.3-7.4,8.3-5.1,13.4l8.5,19.4c2.3,5.2,8.4,7.6,13.6,5.3l21.2-9.5L93.9,88.9z"
						/>
					<path class="st2" d="M86.2,139.2c-1.5,0-3-0.3-4.4-0.8c-3.1-1.2-5.4-3.5-6.7-6.5l-8.5-19.4c-2.6-6,0.1-13.1,6-15.9l20.4-9.4
						c0.9-0.4,2,0,2.4,0.9l17.7,38c0.2,0.4,0.2,1,0.1,1.4c-0.2,0.5-0.5,0.8-1,1l-21.2,9.5C89.6,138.8,87.9,139.2,86.2,139.2z
						 M93,91.3L74.2,100c-4.2,1.9-6,6.9-4.2,11l8.5,19.4c0.9,2.1,2.6,3.7,4.7,4.5c2.1,0.8,4.4,0.7,6.5-0.2l19.5-8.7L93,91.3z"/>
				</g>
				<g class="st11">
					<path class="st4" d="M77.9,106l17.6-8.1l-1.6-3.3l-18.8,8.6c-3.3,1.5-5.1,5-4.9,8.4l8.2,18.8c0.6,1.3,1.4,2.4,2.5,3.2L73.7,117
						C71.9,112.9,73.7,107.9,77.9,106z"/>
				</g>
				<g>
					<path class="st12" d="M92.7,75.8L92.7,75.8c3.5-1.5,7.6,0.1,9.1,3.6l20.6,46.6c1.6,3.5,0,7.6-3.6,9.1l0,0
						c-3.5,1.5-7.6-0.1-9.1-3.6L89.2,84.9C87.6,81.4,89.2,77.3,92.7,75.8z"/>
					<path class="st2" d="M116.1,137.5c-3.4,0-6.6-2-8.1-5.2L87.4,85.7c-0.9-2.2-1-4.6-0.2-6.7c0.8-2.2,2.5-3.9,4.7-4.9
						c4.4-1.9,9.6,0.1,11.5,4.5l20.6,46.6c0.9,2.2,1,4.6,0.2,6.7c-0.8,2.2-2.5,3.9-4.7,4.9C118.5,137.3,117.3,137.5,116.1,137.5z
						 M95.5,77c-0.7,0-1.4,0.1-2,0.4l0,0c-1.2,0.5-2.2,1.6-2.7,2.8c-0.5,1.3-0.5,2.7,0.1,3.9l20.6,46.6c1.1,2.6,4.1,3.7,6.7,2.6
						c1.2-0.5,2.2-1.6,2.7-2.8c0.5-1.3,0.5-2.7-0.1-3.9l-20.6-46.6C99.3,78.2,97.5,77,95.5,77z M92.7,75.8L92.7,75.8L92.7,75.8z"/>
				</g>
				<g class="st5">
					<path class="st2" d="M121.6,130.9c-3.5,1.5-7.6-0.1-9.1-3.6L91.9,80.8c-0.6-1.4-0.7-2.9-0.4-4.3c-2.7,1.9-3.7,5.4-2.3,8.5
						l20.6,46.6c1.5,3.5,5.6,5.1,9.1,3.6c2.1-0.9,3.5-2.7,4-4.8C122.5,130.5,122.1,130.8,121.6,130.9z"/>
				</g>
				<g>
					<path class="st12" d="M28.7,123.7L28.7,123.7c-3.8,1.6-5.6,6.1-3.9,9.9l7,15.8c1.7,3.7,6,5.4,9.7,3.8l0,0
						c3.8-1.6,5.6-6.1,3.9-9.9l-7-15.8C36.8,123.8,32.5,122.1,28.7,123.7z"/>
					<path class="st2" d="M38.7,155.7c-3.6,0-7-2.1-8.5-5.5l-7-15.8c-1-2.3-1.1-4.8-0.2-7.2c0.9-2.3,2.7-4.2,5-5.1
						c4.6-2,10.1,0.2,12.2,4.8l7,15.9c1,2.3,1.1,4.8,0.2,7.2c-0.9,2.3-2.7,4.2-5,5.1C41.2,155.4,39.9,155.7,38.7,155.7z M31.6,124.9
						c-0.7,0-1.5,0.2-2.2,0.4l0,0c-1.4,0.6-2.5,1.7-3,3.1c-0.6,1.4-0.5,2.9,0.1,4.3l7,15.8c1.2,2.8,4.5,4.1,7.3,2.9
						c1.4-0.6,2.5-1.7,3-3.1c0.6-1.4,0.5-2.9-0.1-4.3l-7-15.9C35.9,126.2,33.8,124.9,31.6,124.9z M28.7,123.7L28.7,123.7L28.7,123.7
						z"/>
				</g>
				<g class="st5">
					<path class="st2" d="M44.4,147.7L44.4,147.7c-3.7,1.6-8.1-0.1-9.7-3.8l-7-15.8c-0.5-1.1-0.7-2.2-0.6-3.3
						c-2.6,2.1-3.5,5.6-2.1,8.8l7,15.8c1.7,3.7,6,5.4,9.7,3.8l0,0c2.7-1.2,4.4-3.8,4.5-6.6C45.6,147.1,45.1,147.4,44.4,147.7z"/>
				</g>
				<g class="st11">
					<path class="st4" d="M43.8,144.1l-7-15.8c-0.9-2.1-3-3.3-5.1-3.3c-0.7,0-1.5,0.2-2.2,0.4c-1.4,0.6-2.5,1.7-3,3.1
						c-0.1,0.1-0.1,0.2-0.1,0.4c0.5-0.5,1.1-0.9,1.7-1.2c0.7-0.3,1.5-0.4,2.2-0.4c2.2,0,4.2,1.2,5.1,3.3l7,15.8
						c0.6,1.2,0.6,2.7,0.2,3.9c0.5-0.5,1-1.2,1.2-1.9C44.5,147,44.4,145.5,43.8,144.1z"/>
				</g>
				<g class="st5">
					<path class="st2" d="M174.2,104.8l-1.1-1.7h0c-38.2,16.4-69.4-22.5-70.9-24.3h0l19.4,49L174.2,104.8z"/>
				</g>
				<g class="st5">
					<polygon class="st2" points="147.8,57.4 169.4,109.5 176.3,106.7 153.3,55.6 					"/>
				</g>
				<g>
					<g>
						<ellipse class="st2" cx="150.4" cy="66.2" rx="2.3" ry="2.3"/>
					</g>
					<g>
						<ellipse class="st2" cx="113.2" cy="82" rx="2.3" ry="2.3"/>
					</g>
					<g>
						<ellipse class="st2" cx="167.1" cy="103.8" rx="2.3" ry="2.3"/>
					</g>
					<g>
						<ellipse class="st2" cx="130" cy="119.6" rx="2.3" ry="2.3"/>
					</g>
				</g>
				<g class="st11">
					<path class="st4" d="M188.7,101l-17.9-39.2l-1.9-4.3l0,0l-3.3-7.2c-1-2.1-3.1-3.4-5.2-3.4c-0.8,0-1.6,0.2-2.3,0.5l0,0
						c-1.4,0.6-2.5,1.8-3,3.2c-0.1,0.3-0.2,0.6-0.2,0.9c0.5-0.6,1.2-1.1,1.9-1.4l0,0c0.7-0.3,1.6-0.5,2.3-0.5c2.2,0,4.3,1.2,5.2,3.4
						l3.4,7.5L162.8,72l5.1,11.3l4.7-11.5l3.2,7.1l-4.7,11.5l2.2,4.9l4.7-11.5l9.1,20c0.5,1.1,0.6,2.3,0.4,3.5
						c0.5-0.5,0.9-1.2,1.1-1.8C189.4,103.9,189.3,102.4,188.7,101z"/>
				</g>
				<g class="st11">
					<path class="st4" d="M120.8,126.7l-7.6-17.1l0,0l-1.5-3.3l-11.6-26.2c-1.1-2.6-4.1-3.7-6.7-2.6c-1.2,0.5-2.2,1.6-2.7,2.8
						c-0.2,0.5-0.3,1-0.3,1.6c0.5-0.5,1-0.9,1.7-1.2c2.6-1.1,5.6,0.1,6.7,2.6l2.4,5.5l-4.1,9.5l4.8,10.9l4.1-9.5l3.1,7l-4.1,9.6
						l2.7,6.1l4.1-9.5l7.6,17.1c0.3,0.7,0.5,1.5,0.4,2.3c0.4-0.5,0.8-1,1-1.7C121.4,129.3,121.3,127.9,120.8,126.7z"/>
				</g>
				<g>
					<g class="st5">
						<path class="st2" d="M71.9,103.5C71.9,103.5,71.9,103.5,71.9,103.5C71.9,103.5,71.9,103.5,71.9,103.5z"/>
					</g>
					<g class="st5">
						<path class="st2" d="M72.3,104.2C72.3,104.2,72.3,104.3,72.3,104.2C72.3,104.3,72.3,104.3,72.3,104.2z"/>
					</g>
					<g class="st5">
						<path class="st2" d="M71.5,102.9C71.5,102.9,71.6,102.9,71.5,102.9C71.6,102.9,71.5,102.9,71.5,102.9z"/>
					</g>
					<g class="st5">
						<path class="st2" d="M82.2,133.5c2.1,0.8,4.4,0.7,6.5-0.2l11.8-5.3l0,0c-11.8-1.3-20.6-11.8-25.6-19.4
							c-1.6-2.4-2.9-4.6-3.8-6.2c-1.9,2.4-2.4,5.7-1.1,8.6l8.5,19.4c0.1,0.2,0.2,0.4,0.3,0.6C79.6,132.2,80.8,133,82.2,133.5z"/>
					</g>
				</g>
				<g>
					<ellipse class="st2" cx="87.5" cy="129" rx="2.3" ry="2.3"/>
				</g>
				<g>
					<ellipse class="st2" cx="76" cy="105.9" rx="2.3" ry="2.3"/>
				</g>
				<g class="st5">
					<polygon class="st2" points="90.9,90.7 86.6,92.9 101.8,130.2 108.2,127.5 					"/>
				</g>
				<g class="st5">
					<path class="st2" d="M39.4,126.4c0,0,8.5,18.1,36.6,1.5l-0.6,2.3L46.1,143L39.4,126.4z"/>
				</g>
				<g class="st13">
					<path class="st2" d="M112.4,144.5l-0.5-9.7l-0.8-1.2v-7.4h-5.1v3.6l-4.3,1.2l-2.3,3.2l3.4,2.3c2.7,1.8,4.4,4.9,4.4,8.2v8.9h3.8
						v-10.1L112.4,144.5z"/>
				</g>
				<g class="st5">
					<polygon class="st2" points="65.6,114.3 70.5,132 76.1,130.2 69.1,113.2 					"/>
				</g>
				<g class="st5">
					<path class="st2" d="M85.2,199.2c0,0-26.2,25.8-31.3,25.8c0,0-7.1,8.8,0.4,13.1c0,0,5.1,0.8,8.8-3.4L85.2,199.2z"/>
				</g>
				<g class="st13">
					<polygon class="st2" points="93.9,166.9 96.6,183.5 100.2,180.5 100.7,162.9 94.9,163.8 					"/>
				</g>
				<g class="st13">
					<polygon class="st2" points="117.3,166.9 114.6,183.5 110.9,180.5 110.4,162.9 116.3,163.8 					"/>
				</g>
				<g class="st5">
					<path class="st2" d="M111.7,196.7c0,0-2.5,30.6-13.1,21.4l1.4,18.9l6,3.2l6.4-4.6L111.7,196.7z"/>
				</g>
				<g class="st5">
					<path class="st2" d="M127,200.4c0,0,10.7,16.3,23.1,14.9l10.1,14.7l0.1,6.7l-8,2L127,200.4z"/>
				</g>
				<g class="st5">
					<polygon class="st2" points="99,163.3 99,167.4 111.5,168.8 111.6,162.8 99,162.8 					"/>
				</g>
			</g>
		</g>
		<g>
			<g>
				<circle class="st4" cx="76.3" cy="175.2" r="2.6"/>
			</g>
			<g>
				<circle class="st4" cx="203.8" cy="175.6" r="2.9"/>
			</g>
			<g>
				
					<ellipse transform="matrix(0.8248 -0.5655 0.5655 0.8248 10.6231 125.0966)" class="st4" cx="207.2" cy="45.4" rx="2.5" ry="2.5"/>
			</g>
			<g>
				<path class="st4" d="M194.6,25.5c0.6-0.6,0.2-1.9-0.8-3.4c-0.3-0.5-0.3-1,0-1.5c1-1.5,1.4-2.9,0.8-3.4c-0.6-0.6-1.9-0.2-3.4,0.8
					c-0.5,0.3-1,0.3-1.5,0c-1.5-1-2.9-1.4-3.4-0.8c-0.6,0.6-0.2,1.9,0.8,3.4c0.3,0.5,0.3,1,0,1.5c-1,1.5-1.4,2.9-0.8,3.4
					c0.6,0.6,1.9,0.2,3.4-0.8c0.5-0.3,1-0.3,1.5,0C192.7,25.7,194.1,26.1,194.6,25.5z"/>
			</g>
			<g>
				<path class="st4" d="M62.1,159.4c0.7,0,1.2-1,1.5-2.4c0.1-0.4,0.4-0.8,0.8-0.8c1.5-0.3,2.4-0.9,2.4-1.5c0-0.7-1-1.2-2.4-1.5
					c-0.4-0.1-0.8-0.4-0.8-0.8c-0.3-1.5-0.9-2.4-1.5-2.4s-1.2,1-1.5,2.4c-0.1,0.4-0.4,0.8-0.8,0.8c-1.5,0.3-2.4,0.9-2.4,1.5
					s1,1.2,2.4,1.5c0.4,0.1,0.8,0.4,0.8,0.8C60.9,158.5,61.5,159.4,62.1,159.4z"/>
			</g>
			<g>
				<ellipse class="st4" cx="82" cy="5" rx="3.9" ry="3.9"/>
			</g>
			<g>
				<ellipse class="st4" cx="58" cy="20.5" rx="2.5" ry="2.5"/>
			</g>
		</g>
	</g>
</g>
</svg>
