<?xml version="1.0" encoding="utf-8"?>
<!-- Generator: Adobe Illustrator 28.4.1, SVG Export Plug-In . SVG Version: 6.00 Build 0)  -->
<svg version="1.1" id="Layer_1" xmlns="http://www.w3.org/2000/svg" xmlns:xlink="http://www.w3.org/1999/xlink" x="0px" y="0px"
	 viewBox="0 0 232 242" style="enable-background:new 0 0 232 242;" xml:space="preserve">
<style type="text/css">
	.st0{display:none;fill:#FFFFFF;stroke:#000000;stroke-miterlimit:10;}
	.st1{fill:#BC654D;}
	.st2{opacity:0.2;}
	.st3{fill:#3A0176;}
	.st4{opacity:0.6;}
	.st5{fill:#FFFFFF;}
	.st6{fill:#BACBDD;}
	.st7{opacity:0.3;}
</style>
<path class="st0" d="M132.3,171H44.2c-3.1,0-5.6-2.5-5.6-5.6V46.7c0-3.1,2.5-5.6,5.6-5.6h88.1c3.1,0,5.6,2.5,5.6,5.6v118.7
	C137.9,168.5,135.4,171,132.3,171z"/>
<g>
	<g>
		<g>
			<g>
				<path class="st1" d="M220.4,181.5c-46.4,22.9-96.3,41.6-149.2,56.8c-9.6,2.8-19.9,1.6-28.7-3.2l-27.2-14.9
					c-6.7-3.7-10.9-10.7-10.9-18.4V92.9c-0.1-2.2,0-4.1,0.2-5.8c0.8-6,5-11,10.7-13l157.3-53.4c4.7-1.6,9.7-1.6,14.4-0.1l22.8,7.5
					c8.2,2.7,14.7,9.4,16.6,17.8c0.6,2.6,1,5.4,1,8.4v108.1C227.9,171.7,225.4,177.9,220.4,181.5z"/>
			</g>
			<g class="st2">
				<path class="st3" d="M220.4,181.5c-46.4,22.9-96.3,41.6-149.2,56.8c-9.6,2.8-19.9,1.6-28.7-3.2l-27.2-14.9c-1-0.6-2-1.2-2.9-1.9
					L33.7,230c8.8,4.8,19.1,5.9,28.7,3.2c52.9-15.2,102.8-33.9,149.2-56.8c5-3.6,7.5-9.8,7.2-19v-9.6c0-1.5-1.4-2.5-2.8-2.2l0,0
					L86.2,190.6c-21.5,2.2-19.4-30-19.4-30c11.9,36,119.5-15.9,152-72.7c4.6-8,7.7-16.1,8.8-24v98.7
					C227.9,171.7,225.4,177.9,220.4,181.5z"/>
			</g>
			<g class="st4">
				<path class="st5" d="M220.8,35.2c-2.3-1.8-4.9-3.1-7.7-4.1l-22.8-7.5c-4.7-1.5-9.8-1.5-14.4,0.1L18.6,77.1c-5.7,2-9.9,7-10.7,13
					c-0.2,1.7-0.3,3.6-0.2,5.8v108.9c0,5.2,1.9,10.1,5.2,13.9c-5.3-3.9-8.5-10.1-8.5-16.8V92.9c-0.1-2.2,0-4.1,0.2-5.8
					c0.8-6,5-11,10.7-13l157.3-53.4c4.7-1.6,9.7-1.6,14.4-0.1l22.8,7.5C214.1,29.6,217.9,32,220.8,35.2z"/>
			</g>
			<g>
				<path class="st3" d="M60.7,242c-6.7,0-13.2-1.7-19.2-4.9l-27.2-14.9c-7.4-4.1-12-11.8-12-20.3V93c-0.1-2.2,0-4.2,0.2-6.2
					C3.3,80.1,8.1,74.3,14.7,72L172,18.7c5.1-1.7,10.7-1.8,15.8-0.1l22.8,7.5c9,3,16,10.4,18.1,19.4c0.7,2.8,1,5.7,1.1,8.9v108.1
					c0.4,9.6-2.3,16.6-8.1,20.9c-0.1,0.1-0.2,0.2-0.3,0.2c-45.1,22.2-95.4,41.4-149.5,56.9C68.2,241.5,64.5,242,60.7,242z M180,21.8
					c-2.3,0-4.5,0.3-6.6,1.1L16.1,76.2c-4.9,1.7-8.6,6-9.3,11.1c-0.2,1.6-0.3,3.5-0.2,5.4c0,0,0,0.1,0,0.1v108.9
					c0,6.9,3.7,13.1,9.7,16.4l27.2,14.9c8.3,4.6,17.9,5.6,27,3c53.8-15.5,103.8-34.5,148.6-56.6c4.4-3.3,6.4-8.9,6.1-17
					c0,0,0-0.1,0-0.1V54.4c-0.1-2.8-0.4-5.5-1-7.9c-1.8-7.5-7.6-13.7-15.2-16.2l-22.8-7.5C184.4,22.1,182.2,21.8,180,21.8z
					 M220.4,181.5L220.4,181.5L220.4,181.5z"/>
			</g>
			<g>
				<path class="st3" d="M77.2,186.9c-1.5,0-2.9-0.1-4.3-0.3c-16.6-2.8-16.4-17.4-16.4-17.6v-34.1c0-13.3-1.3-21.4-2.5-25.8
					c-0.2-0.7-0.4-1.3-0.7-2c-0.4-1.1,0.1-2.4,1.3-2.9c1.1-0.5,2.4,0.1,2.9,1.3c0.3,0.8,0.6,1.6,0.8,2.4c1.2,4.7,2.7,13.2,2.7,26.9
					V169c0,0.5,0,11.1,12.7,13.2c3.8,0.6,7.8,0.2,11.7-1.1l127.8-45.2c5.5-2,9.7-6.7,10.9-12.3c0.8-3.8,1.3-8.4,1.4-13.7
					c0-1.2,1-2.2,2.3-2.1c1.2,0,2.2,1,2.1,2.3c-0.2,5.6-0.7,10.4-1.5,14.5c-1.5,7.2-6.8,13.1-13.7,15.6L86.8,185.2
					C83.7,186.3,80.4,186.9,77.2,186.9z"/>
			</g>
			<g>
				<path class="st3" d="M53.2,108.6c-5,0-12.3-1.3-21.7-6.4l0,0c-17.6-9.7-17.1-18.1-17-19.1c0.1-0.5,0.3-1,0.7-1.3
					c3.6-3.3,7.6-4.2,12.4-2.6c0.1,0,0.2,0.1,0.3,0.1C38,84.4,46.3,90.7,53.2,98.5c1.8,2,3.2,4.4,4.2,6.9c0.3,0.7,0.2,1.4-0.2,2
					c-0.4,0.6-1,1-1.7,1C54.8,108.5,54,108.6,53.2,108.6z M33.6,98.2c8,4.4,14.2,5.6,18.3,5.9c-0.6-0.9-1.2-1.8-1.9-2.6
					C43.4,94.1,35.6,88.2,26,83.3c-3.4-1.1-5.5-0.3-7.1,1C19.4,86.2,21.6,91.7,33.6,98.2L33.6,98.2z"/>
			</g>
			<g>
				<path class="st3" d="M32.5,100.2C15.7,91,16.7,83.4,16.7,83.4c2.4-2.3,5.5-3.6,10.2-2.1c9.3,4.7,17.6,10.8,24.7,18.8
					c1.6,1.8,2.9,3.9,3.8,6.2C51.1,106.6,43.3,106.1,32.5,100.2z"/>
			</g>
			<g>
				<g>
					<path class="st6" d="M172.7,39.3c-7-0.5-11.8-2.5-15-4.6c-3.1-2.1-5-5.5-5-9.3v-2.6c0,0,9.5-3.8,11.7,2.5
						C166.5,31.7,172.7,39.3,172.7,39.3z"/>
				</g>
				<g>
					<path class="st6" d="M187.9,28l-8.8-4.7c-2-1.1-4.2-1.5-6.5-1.3l-5.2,0.5l8.2,12.2l9.6-4.1"/>
				</g>
				<g class="st2">
					<path class="st3" d="M172.7,39.3c-7-0.5-11.8-2.5-15-4.6c-3.1-2.1-5-5.5-5-9.3v-2.6c0,0,9.5-3.8,11.7,2.5
						C166.5,31.7,172.7,39.3,172.7,39.3z"/>
				</g>
				<g>
					<path class="st3" d="M187.9,30.2c-0.3,0-0.7-0.1-1-0.3l-8.8-4.7c-1.6-0.8-3.4-1.2-5.2-1l-5.2,0.5c-1.2,0.1-2.3-0.8-2.4-2
						s0.8-2.3,2-2.4l5.2-0.5c2.7-0.3,5.4,0.3,7.7,1.5l8.8,4.7c1.1,0.6,1.5,1.9,0.9,3C189.4,29.8,188.7,30.2,187.9,30.2z"/>
				</g>
				<g>
					<path class="st6" d="M172.6,23.3l1.8,5.5c0.5,1.5,2.1,2.3,3.6,1.8l7.8-2.6c2-0.7,4.1,0.4,4.8,2.3l0,0c0.7,2-0.3,4.2-2.3,4.9
						c-2.3,0.8-5.5,1.9-9.4,3.3c-8,2.9-11.2-1.6-13.2-10.2c-2.1-8.5-9.6-6.7-9.6-6.7L95,42.3c-8,3.3-10.7,9.9-10,18.8
						c0.2,2.6-1.1,5-3.4,6.2l-15.1,8.1c-17.5,6.9-28.9-10.6-5.9-19.6c0,0-2.1-17.7,9.4-24.2c11.6-6.4,75.4-25,75.4-25
						S164.8,4.3,172.6,23.3z"/>
				</g>
				<g class="st4">
					<path class="st5" d="M166.7,14.2c-8.5-6.2-18.3-5-18.3-5S84.6,27.8,73,34.2c-11.6,6.4-9.4,24.2-9.4,24.2
						c-12.6,4.9-14.9,12.4-11.5,17c-6.9-3.8-6.9-13.6,8.5-19.6c0,0-2.1-17.8,9.4-24.2c11.6-6.4,75.4-25,75.4-25
						S157.8,5.2,166.7,14.2z"/>
				</g>
				<g class="st4">
					<path class="st5" d="M168.5,30.9c0.8,3.3,1.8,6,3.1,8c-3.1-1.4-4.8-5.2-6.1-10.5c-0.3-1.5-0.9-2.6-1.5-3.6
						C165.9,25.7,167.7,27.4,168.5,30.9z"/>
				</g>
				<g class="st4">
					<path class="st5" d="M190.6,30.5c-0.6-0.1-1.2-0.1-1.9,0.1l-7.8,2.6c-1.5,0.5-3.1-0.3-3.6-1.8l-0.2-0.6c0.3,0,0.5,0,0.8-0.2
						l7.8-2.6c2-0.7,4.1,0.4,4.8,2.3C190.6,30.4,190.6,30.5,190.6,30.5z"/>
				</g>
				<g class="st4">
					<path class="st5" d="M172.6,23.3c-1.6-3.8-3.6-6.8-5.9-9.1c3.4,2.5,6.6,6.2,8.8,11.6l1.6,5c-1.2,0-2.4-0.7-2.8-2L172.6,23.3z"
						/>
				</g>
				<g>
					<path class="st3" d="M58.8,79.2c-3.7,0-7-1-9.5-3c-2.9-2.3-4.2-5.6-3.7-9c0.5-2.9,2.7-8.4,12.7-12.7c-0.3-4.9,0-18.8,10.7-24.7
						c11.7-6.5,73.2-24.4,75.8-25.2c0.1,0,0.2,0,0.3-0.1c0.2,0,21.2-2.4,29.5,18c0,0,0,0.1,0.1,0.2l1.8,5.5c0.1,0.2,0.2,0.3,0.3,0.3
						c0.1,0,0.3,0.1,0.5,0l7.8-2.6c3.1-1,6.4,0.6,7.6,3.6c0.6,1.5,0.5,3.2-0.2,4.7c-0.7,1.5-2,2.6-3.5,3.1c-3,1-6.1,2.1-9.4,3.3
						c-3.8,1.3-6.8,1.3-9.3,0c-4-2.1-5.7-7.4-6.8-11.7c-1.4-5.8-5.8-5.3-6.9-5.1L95.9,44.3c-6.5,2.7-9.2,7.9-8.6,16.5
						c0.3,3.4-1.5,6.7-4.6,8.3l-15.1,8.1c-0.1,0-0.2,0.1-0.2,0.1C64.5,78.6,61.6,79.2,58.8,79.2z M145.9,8.9
						C142,10,82.1,27.5,71.2,33.6c-10.1,5.6-8.3,21.8-8.3,22c0.1,1-0.5,2-1.4,2.3c-6.7,2.6-10.9,6.2-11.4,9.9
						c-0.3,1.9,0.5,3.6,2.1,4.9c2.4,1.9,7.2,3.1,13.5,0.7l15-8c1.5-0.8,2.4-2.4,2.2-4.1c-0.8-10.5,3-17.6,11.4-21c0,0,0.1,0,0.1,0
						l60.8-20.6c0.1,0,0.1,0,0.2,0c0.4-0.1,4.1-0.9,7.5,1.1c2.4,1.5,4,3.8,4.8,7.1c1.2,5,2.7,7.8,4.6,8.9c1.4,0.7,3.3,0.7,5.7-0.2
						c3.3-1.2,6.4-2.3,9.5-3.3c0.4-0.2,0.7-0.4,0.9-0.8c0.2-0.4,0.2-0.8,0.1-1.3c-0.3-0.8-1.2-1.3-2-1l-7.8,2.6
						c-1.3,0.4-2.6,0.3-3.9-0.3c-1.2-0.6-2.1-1.6-2.5-2.9l-1.7-5.5C163.8,7.8,147.6,8.7,145.9,8.9z"/>
				</g>
				<g>
					<path class="st3" d="M57,72.6c-2.1,0-4-0.5-5.5-1.5c-3.5-2.3-4.2-6.2-4.2-6.3c-0.2-0.9,0.5-1.8,1.4-1.9
						c0.9-0.2,1.8,0.5,1.9,1.4c0,0.1,0.5,2.7,2.8,4.1c1.8,1.1,4.3,1.3,7.5,0.4l13.7-7.2c0.5-0.2,0.8-0.8,0.7-1.3
						c-0.4-9.1,2.6-16.6,8.8-22.4c1.8-1.6,3.8-2.8,6.1-3.6L154.7,13c0.5-0.2,11.6-3.6,16.4,3.9c0.5,0.8,0.3,1.8-0.5,2.3
						c-0.8,0.5-1.8,0.3-2.3-0.5c-3.4-5.4-12.5-2.6-12.6-2.6L91.2,37.5c-1.9,0.6-3.5,1.6-4.9,2.9c-5.6,5.1-8.2,11.6-7.8,19.8
						c0.1,1.8-0.9,3.6-2.5,4.4l-13.9,7.3c-0.1,0-0.2,0.1-0.3,0.1C60.1,72.4,58.5,72.6,57,72.6z"/>
				</g>
				<g>
					<path class="st3" d="M76.2,63.7c-0.2,0-0.4,0-0.6-0.1L60,57.4c-0.8-0.3-1.3-1.3-0.9-2.1c0.3-0.8,1.3-1.3,2.1-0.9l15.6,6.2
						c0.8,0.3,1.3,1.3,0.9,2.1C77.5,63.3,76.9,63.7,76.2,63.7z"/>
				</g>
				<g>
					<path class="st3" d="M172.7,41.5c0,0-0.1,0-0.2,0c-6.3-0.4-11.7-2.1-16-4.9c-3.8-2.5-6-6.6-6-11.1v-2.6c0-1.2,1-2.2,2.2-2.2
						c1.2,0,2.2,1,2.2,2.2v2.6c0,3,1.5,5.8,4,7.5c3.7,2.4,8.4,3.8,13.9,4.2c1.2,0.1,2.1,1.1,2.1,2.3
						C174.8,40.6,173.8,41.5,172.7,41.5z"/>
				</g>
				<g>
					<path class="st1" d="M151.9,24.4c-0.5,0.8-1.1,1.6-1.8,2.4c-2.3,2.6-5.4,4.4-8.6,5.6l-39.7,13.9c-6.2,0.8-8.9-2.9-8.9-2.9
						l6.9-2.7c0,0,1.6-0.5,0-7.8c-0.6-2.8-3-4.4-5.7-5.4c-4.6-1.6-10.2-1.5-10.2-1.5l-7.6,2.8c0,0-2-7.2,2.8-9l55.1-17.1
						c2.3-0.7,4.7-0.9,7-0.5c5.6,1,10.2,4.4,12.3,8.7C155.5,15.1,155.3,19.9,151.9,24.4z"/>
				</g>
				<g class="st4">
					<path class="st5" d="M154.7,15.3c-2-4.6-6.7-8.2-12.6-9.2c-2.3-0.4-4.7-0.2-7,0.5L80,23.6c-2.3,0.8-3.1,3.1-3.2,5.1l-0.6,0.2
						c0,0-2-7.2,2.8-9l55.1-17.1c2.3-0.7,4.7-0.9,7-0.5C148.6,3.7,154.1,9.1,154.7,15.3z"/>
				</g>
				<g>
					<path class="st3" d="M100,48.7c-6,0-8.8-3.8-9-3.9c-0.4-0.5-0.5-1.3-0.3-1.9c0.2-0.7,0.7-1.2,1.3-1.4l6.2-2.4
						c0.1-0.7,0.1-2.3-0.6-5.6c-1-4.3-9.8-5.1-13.3-5.1L77,31c-0.6,0.2-1.2,0.2-1.8-0.1c-0.5-0.3-1-0.8-1.1-1.4
						c-0.9-3.4-1.1-9.7,4.2-11.6c0,0,0.1,0,0.1,0l55.1-17.1c2.5-0.8,5-1,7.4-0.6c6.9,1,12.6,5.2,15,10.9c2,4.9,1.2,10.1-2.2,14.6
						c-0.5,0.8-1.2,1.7-2,2.6c-2.5,2.8-5.8,4.9-9.5,6.2l-39.7,13.9c-0.2,0-0.3,0.1-0.4,0.1C101.3,48.6,100.6,48.7,100,48.7z
						 M101.7,46.3L101.7,46.3L101.7,46.3z M97.6,43.9c1,0.3,2.1,0.4,3.6,0.2l39.5-13.9c3-1.1,5.7-2.8,7.7-5c0.7-0.7,1.2-1.4,1.5-2
						c0-0.1,0.1-0.2,0.2-0.2c2.5-3.3,3.1-7,1.7-10.4c-1.7-4.2-6.2-7.5-11.5-8.3c-1.7-0.3-3.6-0.1-5.4,0.5L79.8,21.9
						c-1.5,0.6-1.8,2.3-1.7,3.9l5.1-1.9c0.2-0.1,0.5-0.1,0.7-0.2c1.6-0.1,16.2-0.3,18.1,8.6c0.5,2.3,2,9.2-1.4,10.4L97.6,43.9z
						 M99.1,38.6C99,38.6,99,38.6,99.1,38.6C99,38.7,99,38.7,99.1,38.6z"/>
				</g>
				<g>
					<path class="st5" d="M152.7,7.7C152.7,7.7,152.7,7.6,152.7,7.7L152.7,7.7z"/>
				</g>
				<g class="st2">
					<path class="st3" d="M151.9,24.4c-0.5,0.8-1.1,1.6-1.8,2.4c-2.3,2.6-5.4,4.4-8.6,5.6l-39.7,13.9c-6.2,0.8-8.9-2.9-8.9-2.9
						l6.9-2.7c0,0,1.6-0.5,0-7.8c-0.6-2.8-3-4.4-5.7-5.4c1.1-0.3,2.2-0.3,3.1,0.2c6.4,3.3,10.1,4.6,36.9-4.9
						c14.1-4.9,18.4-9.1,19.4-11.7C155.5,15.1,155.3,19.9,151.9,24.4z"/>
				</g>
			</g>
			<g>
				<path class="st3" d="M81.9,185.9c0,0-0.1,0-0.2,0c-5.5-0.5-9.7-2.5-12.6-6c-4.5-5.4-4.1-12.3-4.1-13.2v-18.3c0,0,0,0,0-0.1
					c0-0.2,0.9-18.6-2-37.3C60.7,95.5,51.6,89.5,41,82.7c-1.9-1.2-3.9-2.5-5.9-3.9c-12-8.2-18.6-3.4-18.7-3.4
					c-0.7,0.5-1.8,0.4-2.3-0.3c-0.5-0.7-0.4-1.8,0.3-2.3c0.3-0.3,8.6-6.3,22.6,3.3c2,1.3,3.9,2.6,5.8,3.8c10.8,7,21,13.6,23.6,30.5
					c2.9,18.6,2.1,36.9,2,38v18.3c0,0,0,0.1,0,0.2c0,0.6-1.1,14.3,13.7,15.7c0.9,0.1,1.6,0.9,1.5,1.8
					C83.5,185.2,82.8,185.9,81.9,185.9z"/>
			</g>
			<g>
				<path class="st3" d="M16.7,98.8c6.8,7.2,16,11.5,25.4,13.8c0.9,0.3,3.1,0.7,4.1,0.8c0.8,0.2,1.9,0.3,2.7,0.4
					c2.7,0.5,5.7,0.6,8.4,0.9c2,0.3,1.9,3.3-0.2,3.3c-2,0-3.9,0-5.9-0.2c-1-0.1-3.4-0.4-4.4-0.5c-2.3-0.4-5-1-7.2-1.8
					C30.6,112.7,21.7,107.1,16.7,98.8L16.7,98.8z"/>
			</g>
			<g>
				<path class="st3" d="M216.9,29.4c7,5.4,10.4,14.1,1,19.1c-9.3,3.2-18.8,6.2-28.2,9.2c-27.7,8.8-56.2,17.7-84.3,24.9
					c22.5-8.9,46-16.8,69-24.6c13.5-4.5,28.3-9.3,41.8-13.6l-0.3,0.2c1.3-0.7,2.4-1.5,3-2.4c2.2-3.3-2-7.7-4.4-9.9
					C212.6,30.7,214.9,27.9,216.9,29.4L216.9,29.4z"/>
			</g>
			<g>
				<path class="st3" d="M42.3,232.5c3.1,1,8,2.1,10.7,0c1.1-0.9,1.7-2.6,1.9-4.1c0.3-6.7,0.7-14.2,1.1-20.9
					c0.3-4.6,0.7-9.1,1.1-13.7c0.9,9.1,1.5,18.3,1.9,27.5l0.3,6.9c0,0.5-0.1,1.1-0.1,1.5c-0.6,6-5.3,9.3-11.2,8.8
					c-2.6-0.2-5-0.8-7.4-2C38,235.3,39.6,231.5,42.3,232.5L42.3,232.5z"/>
			</g>
			<g>
				<ellipse class="st6" cx="162" cy="155.1" rx="9.3" ry="12.8"/>
			</g>
			<g class="st7">
				<path class="st3" d="M171.3,155.1c0,7-4.2,12.8-9.3,12.8c-3.5,0-6.5-2.7-8.2-6.6c1.2,0.8,2.6,1.3,4,1.3c5.1,0,9.3-5.7,9.3-12.8
					c0-2.2-0.4-4.3-1.1-6.2C169.2,145.6,171.3,150,171.3,155.1z"/>
			</g>
			<g class="st4">
				<path class="st5" d="M168.1,145.4c-0.9-0.4-1.8-0.6-2.8-0.6c-5.1,0-9.3,5.7-9.3,12.8c0,3.9,1.3,7.3,3.3,9.7
					c-3.8-1.6-6.5-6.5-6.5-12.2c0-7,4.2-12.8,9.3-12.8C164.4,142.3,166.5,143.5,168.1,145.4z"/>
			</g>
			<g>
				<path class="st3" d="M162,170.1c-6.4,0-11.5-6.7-11.5-15c0-8.3,5.2-15,11.5-15c6.4,0,11.5,6.7,11.5,15
					C173.5,163.4,168.4,170.1,162,170.1z M162,144.6c-3.8,0-7.1,4.8-7.1,10.6s3.3,10.6,7.1,10.6s7.1-4.8,7.1-10.6
					S165.9,144.6,162,144.6z"/>
			</g>
			<g class="st2">
				<path class="st3" d="M36.9,102.4c0,0,14,3.4,14.4,36.9s-2.1,83.3-2.1,83.3s0.2,12.7-20.6,4.9c0,0,16.6,12.2,23.4,7.1
					c6.8-5.1,5-11.4,5-11.4l0.2-52l0.5-53.3c0,0-0.9-8.7-1.7-9.4c-0.8-0.7-3.6-2.1-3.6-2.1"/>
			</g>
		</g>
	</g>
</g>
</svg>
