<?xml version="1.0" encoding="utf-8"?>
<!-- Generator: Adobe Illustrator 28.4.1, SVG Export Plug-In . SVG Version: 6.00 Build 0)  -->
<svg version="1.1" id="Layer_2_00000124863569196042102610000004875073211404526762_"
	 xmlns="http://www.w3.org/2000/svg" xmlns:xlink="http://www.w3.org/1999/xlink" x="0px" y="0px" viewBox="0 0 600 1000"
	 style="enable-background:new 0 0 600 1000;" xml:space="preserve">
<style type="text/css">
	.st0{display:none;fill:#FFFFFF;stroke:#000000;stroke-miterlimit:10;}
	.st1{fill:#BC654D;}
	.st2{opacity:0.2;}
	.st3{fill:#3A0176;}
	.st4{opacity:0.6;}
	.st5{fill:#FFFFFF;}
	.st6{fill:#BACBDD;}
	.st7{opacity:0.3;}
</style>
<path class="st0" d="M513,687H87c-14.9,0-27-12.1-27-27V85.6c0-14.9,12.1-27,27-27h426c14.9,0,27,12.1,27,27V660
	C540,674.9,527.9,687,513,687z"/>
<g>
	<g>
		<g>
			<g>
				<path class="st1" d="M572.8,658.2C451.6,718,321.2,767,183,806.6c-25.1,7.2-52.1,4.2-75-8.3l-71.2-39c-17.5-9.6-28.4-28-28.4-48
					V426.7C8.2,421,8.4,415.9,9,411.5c2-15.7,13-28.8,28-33.9l411.1-139.5c12.2-4.1,25.4-4.2,37.7-0.2l59.6,19.6
					c21.5,7.1,38.3,24.5,43.5,46.6c1.6,6.8,2.5,14.2,2.7,22v282.4C592.5,632.5,585.8,648.7,572.8,658.2z"/>
			</g>
			<g class="st2">
				<path class="st3" d="M572.8,658.2C451.6,718,321.2,767,183,806.6c-25.1,7.2-52.1,4.2-75-8.3l-71.2-39c-2.7-1.5-5.3-3.2-7.6-5
					l55.8,30.6c22.9,12.5,49.8,15.5,75,8.3c138.2-39.7,268.6-88.6,389.8-148.4c13-9.5,19.7-25.7,18.7-49.7v-25.2
					c0-3.8-3.6-6.6-7.3-5.8l0,0L222,682c-56.2,5.8-50.7-78.5-50.7-78.5c31,94.1,312.3-41.6,397.3-190.1c11.9-20.9,20-42,22.9-62.8
					v257.9C592.5,632.5,585.8,648.7,572.8,658.2z"/>
			</g>
			<g class="st4">
				<path class="st5" d="M573.9,275.9c-5.9-4.6-12.7-8.2-20-10.6l-59.6-19.6c-12.2-4-25.5-4-37.7,0.2L45.5,385.4
					c-15,5.1-26,18.2-28,33.9c-0.6,4.4-0.8,9.5-0.5,15.2v284.6c0,13.5,5,26.4,13.7,36.2c-13.8-10.2-22.2-26.5-22.2-44V426.7
					C8.2,421,8.4,415.9,9,411.5c2-15.7,13-28.8,28-33.9l411.1-139.5c12.2-4.1,25.4-4.2,37.7-0.2l59.6,19.6
					C556.4,261.2,566.2,267.6,573.9,275.9z"/>
			</g>
			<g>
				<path class="st3" d="M155.5,816.3c-17.4,0-34.6-4.4-50.2-12.9l-71.2-39c-19.4-10.6-31.4-30.9-31.4-53V426.9
					c-0.3-5.7-0.1-11.1,0.6-16.1c2.3-17.6,14.8-32.8,31.9-38.6l411.1-139.5c13.3-4.5,28-4.6,41.3-0.2l59.6,19.6
					c23.6,7.8,41.7,27.2,47.3,50.7c1.7,7.2,2.7,15,2.8,23.2l0,282.4c1,25.2-6.1,43.5-21.1,54.5c-0.3,0.2-0.6,0.4-0.9,0.5
					c-117.8,58.1-249.3,108.2-390.7,148.8C175,814.9,165.3,816.3,155.5,816.3z M467.2,240.8c-5.9,0-11.7,0.9-17.3,2.8L38.9,383.1
					c-12.9,4.4-22.4,15.8-24.2,29.1c-0.6,4.3-0.7,9.1-0.5,14.2c0,0.1,0,0.2,0,0.3v284.6c0,17.9,9.7,34.3,25.4,42.9l71.2,39
					c21.7,11.9,46.8,14.7,70.6,7.9C322,760.7,452.7,711,569.8,653.3c11.6-8.7,16.8-23.3,16-44.5c0-0.1,0-0.2,0-0.2V326.1
					c-0.2-7.3-1-14.3-2.5-20.7c-4.7-19.6-19.9-35.9-39.7-42.4L484,243.4C478.6,241.6,472.9,240.8,467.2,240.8z M572.8,658.2
					L572.8,658.2L572.8,658.2z"/>
			</g>
			<g>
				<path class="st3" d="M198.6,672.3c-3.8,0-7.6-0.3-11.3-0.9c-43.3-7.2-42.9-45.5-42.9-45.9l0-89.2c0.1-34.8-3.5-55.9-6.6-67.5
					c-0.5-1.7-1-3.4-1.7-5.1c-1.1-3,0.3-6.3,3.3-7.5c3-1.2,6.3,0.3,7.5,3.3c0.8,2,1.5,4.2,2.1,6.3c3.2,12.2,7.1,34.4,7,70.4v89.3
					c0,1.3,0.1,28.9,33.3,34.4c9.9,1.6,20.5,0.6,30.6-3l333.9-118.2c14.4-5.1,25.3-17.4,28.4-32.2c2.1-9.9,3.3-22,3.7-35.9
					c0.1-3.2,2.7-5.7,5.9-5.6c3.2,0.1,5.7,2.7,5.6,5.9c-0.4,14.6-1.7,27.3-3.9,38c-3.9,18.7-17.7,34.3-35.8,40.7L223.7,667.9
					C215.5,670.8,207,672.3,198.6,672.3z"/>
			</g>
			<g>
				<path class="st3" d="M135.8,467.6c-13.1,0-32.2-3.4-56.7-16.8c0,0,0,0,0,0C33,425.5,34.4,403.5,34.7,401
					c0.2-1.3,0.8-2.6,1.8-3.5c9.3-8.7,19.9-10.9,32.4-6.7c0.3,0.1,0.5,0.2,0.8,0.3c26.5,13.4,48.2,29.9,66.2,50.3
					c4.7,5.3,8.4,11.4,11,18c0.7,1.7,0.5,3.6-0.5,5.1c-1,1.5-2.6,2.5-4.4,2.7C140.1,467.5,138.1,467.6,135.8,467.6z M84.6,440.6
					c20.8,11.4,37,14.7,47.7,15.3c-1.5-2.4-3.2-4.7-5-6.8c-17-19.2-37.4-34.7-62.4-47.4c-8.9-2.9-14.3-0.8-18.5,2.5
					C47.5,409.2,53.3,423.5,84.6,440.6L84.6,440.6z"/>
			</g>
			<g>
				<path class="st3" d="M81.9,445.7c-43.9-24.1-41.4-43.9-41.4-43.9c6.4-6.1,14.4-9.5,26.7-5.4c24.2,12.3,46.1,28.1,64.5,49
					c4.3,4.8,7.6,10.3,9.9,16.3C130.4,462.6,110,461.1,81.9,445.7z"/>
			</g>
			<g>
				<g>
					<path class="st6" d="M448.1,286.5c-18.4-1.2-30.9-6.5-39.1-11.9c-8.2-5.4-13.1-14.5-13.1-24.3v-6.8c0,0,24.9-10,30.5,6.6
						C431.9,266.7,448.1,286.5,448.1,286.5z"/>
				</g>
				<g>
					<path class="st6" d="M487.9,257.1L465,244.8c-5.2-2.8-11.1-3.9-16.9-3.4l-13.6,1.3l21.4,32l25-10.8"/>
				</g>
				<g class="st2">
					<path class="st3" d="M448.1,286.5c-18.4-1.2-30.9-6.5-39.1-11.9c-8.2-5.4-13.1-14.5-13.1-24.3v-6.8c0,0,24.9-10,30.5,6.6
						C431.9,266.7,448.1,286.5,448.1,286.5z"/>
				</g>
				<g>
					<path class="st3" d="M487.9,262.8c-0.9,0-1.8-0.2-2.7-0.7l-22.9-12.2c-4.2-2.2-8.9-3.2-13.7-2.7l-13.6,1.3
						c-3.2,0.3-6-2-6.3-5.2c-0.3-3.2,2-6,5.2-6.3l13.6-1.3c7-0.7,14,0.7,20.2,4l22.9,12.2c2.8,1.5,3.9,5,2.4,7.8
						C491.9,261.7,489.9,262.8,487.9,262.8z"/>
				</g>
				<g>
					<path class="st6" d="M447.8,244.8l4.6,14.5c1.2,3.9,5.4,6,9.3,4.7l20.5-6.8c5.1-1.7,10.7,1,12.5,6l0,0
						c1.9,5.3-0.8,11.1-6.1,12.9c-5.9,2-14.3,4.9-24.6,8.7c-20.9,7.6-29.2-4.3-34.6-26.7c-5.4-22.3-25.2-17.4-25.2-17.4l-159,53.8
						c-20.9,8.5-27.9,25.9-26.1,49c0.5,6.7-2.9,13.1-8.9,16.3L170.8,381c-45.7,18-75.6-27.7-15.5-51.1c0,0-5.6-46.3,24.6-63.2
						c30.3-16.8,196.9-65.3,196.9-65.3S427.5,195.1,447.8,244.8z"/>
				</g>
				<g class="st4">
					<path class="st5" d="M432.5,221c-22.1-16.2-47.9-13-47.9-13S218,256.5,187.7,273.4c-30.3,16.8-24.6,63.2-24.6,63.2
						c-33,12.8-38.9,32.4-30,44.4c-18-10-17.9-35.5,22.2-51.1c0,0-5.6-46.4,24.6-63.2c30.3-16.8,196.9-65.3,196.9-65.3
						S409.1,197.4,432.5,221z"/>
				</g>
				<g class="st4">
					<path class="st5" d="M437.2,264.8c2.1,8.7,4.6,15.8,8.2,20.8c-8-3.6-12.5-13.5-15.9-27.4c-0.9-3.9-2.3-6.9-3.9-9.3
						C430.3,251,435,255.6,437.2,264.8z"/>
				</g>
				<g class="st4">
					<path class="st5" d="M494.8,263.6c-1.6-0.3-3.2-0.2-4.9,0.3l-20.5,6.8c-3.9,1.3-8-0.8-9.3-4.7l-0.5-1.6c0.7,0,1.4-0.1,2-0.4
						l20.5-6.8c5.1-1.7,10.7,1,12.5,6C494.8,263.4,494.8,263.5,494.8,263.6z"/>
				</g>
				<g class="st4">
					<path class="st5" d="M447.8,244.8c-4.1-10-9.4-17.8-15.3-23.8c8.9,6.5,17.3,16.2,23.1,30.4l4.1,13c-3.2,0.1-6.2-1.9-7.2-5.1
						L447.8,244.8z"/>
				</g>
				<g>
					<path class="st3" d="M150.6,390.8c-9.6,0-18.2-2.6-24.7-7.8c-7.5-6-11.1-14.6-9.7-23.6c1.2-7.7,7.1-22,33.1-33.2
						c-0.7-12.7,0.1-49,27.9-64.5c30.5-16.9,191.3-63.8,198.1-65.8c0.3-0.1,0.6-0.1,0.9-0.2c0.6-0.1,55.3-6.2,77,47
						c0.1,0.1,0.1,0.3,0.2,0.4l4.6,14.5c0.2,0.5,0.5,0.8,0.8,0.9c0.3,0.1,0.7,0.3,1.2,0.1l20.5-6.8c8.1-2.7,16.8,1.5,19.8,9.5
						c1.5,4,1.3,8.3-0.6,12.2c-1.8,3.8-5.1,6.7-9.1,8.1c-7.8,2.6-16,5.5-24.5,8.6c-9.8,3.5-17.7,3.5-24.4-0.1
						c-10.5-5.6-15-19.3-17.7-30.7c-3.7-15.2-15.2-13.8-18.1-13.2l-158.5,53.6c-17,7-24.1,20.7-22.4,43.1c0.7,9-4,17.6-11.9,21.8
						l-39.5,21.2c-0.2,0.1-0.4,0.2-0.6,0.3C165.4,389.3,157.7,390.8,150.6,390.8z M378,207.1c-10.1,3-166.7,48.8-195.2,64.7
						c-26.5,14.7-21.7,57-21.7,57.4c0.3,2.6-1.2,5.1-3.6,6.1c-17.5,6.8-28.4,16.3-29.9,25.9c-0.7,4.9,1.2,9.5,5.5,12.9
						c6.3,5,18.9,8.1,35.4,1.8l39.2-21c3.9-2.1,6.2-6.3,5.8-10.8c-2.1-27.5,7.9-45.9,29.7-54.8c0.1,0,0.2-0.1,0.3-0.1l159-53.8
						c0.2-0.1,0.3-0.1,0.5-0.1c1.1-0.3,10.7-2.4,19.7,3c6.2,3.8,10.4,10,12.5,18.6c3.2,13.1,7,20.5,12,23.2c3.6,1.9,8.5,1.7,15-0.6
						c8.5-3.1,16.8-6,24.7-8.7c1.1-0.4,1.9-1.1,2.4-2.2c0.5-1,0.5-2.2,0.2-3.3c-0.8-2.2-3.1-3.3-5.3-2.6l-20.5,6.8
						c-3.3,1.1-6.9,0.8-10.1-0.8c-3.1-1.6-5.5-4.3-6.5-7.7l-4.5-14.3C424.9,204.2,382.6,206.6,378,207.1z"/>
				</g>
				<g>
					<path class="st3" d="M145.8,373.6c-5.5,0-10.4-1.3-14.5-3.9c-9.2-5.9-10.9-16.1-11-16.5c-0.4-2.4,1.2-4.6,3.6-5
						c2.3-0.4,4.6,1.2,5,3.6c0,0.2,1.3,7,7.2,10.7c4.7,3,11.3,3.3,19.5,1.1l35.8-18.8c1.2-0.6,2-2,1.9-3.4
						c-1.1-23.8,6.7-43.5,23.1-58.5c4.6-4.2,10-7.3,16-9.3L401.1,218c1.3-0.4,30.4-9.5,42.9,10.3c1.3,2,0.7,4.7-1.3,6
						c-2,1.3-4.7,0.7-6-1.3c-9-14.2-32.7-6.8-32.9-6.7l-168.6,55.5c-4.9,1.6-9.2,4.1-12.9,7.5c-14.7,13.3-21.3,30.2-20.3,51.7
						c0.2,4.8-2.3,9.3-6.5,11.4l-36.2,19c-0.3,0.1-0.5,0.2-0.8,0.3C153.8,373,149.6,373.6,145.8,373.6z"/>
				</g>
				<g>
					<path class="st3" d="M196.1,350.5c-0.5,0-1.1-0.1-1.6-0.3l-40.8-16.3c-2.2-0.9-3.3-3.4-2.4-5.6c0.9-2.2,3.4-3.3,5.6-2.4
						l40.8,16.3c2.2,0.9,3.3,3.4,2.4,5.6C199.5,349.4,197.9,350.5,196.1,350.5z"/>
				</g>
				<g>
					<path class="st3" d="M448.1,292.3c-0.1,0-0.3,0-0.4,0c-16.5-1.1-30.6-5.4-41.9-12.8c-9.8-6.5-15.7-17.3-15.7-29.1v-6.8
						c0-3.2,2.6-5.8,5.8-5.8c3.2,0,5.8,2.6,5.8,5.8v6.8c0,7.9,3.9,15.1,10.5,19.5c9.6,6.3,21.9,10,36.3,11c3.2,0.2,5.6,3,5.4,6.1
						C453.7,290,451.1,292.3,448.1,292.3z"/>
				</g>
				<g>
					<path class="st1" d="M393.8,247.7c-1.2,2.1-2.9,4.2-4.8,6.3c-6.1,6.7-14,11.6-22.5,14.6L262.7,305c-16.2,2.2-23.3-7.6-23.3-7.6
						l18.1-7c0,0,4.1-1.4,0-20.5c-1.6-7.2-7.8-11.5-14.9-14c-12-4.3-26.6-3.8-26.6-3.8l-19.9,7.4c0,0-5.1-18.9,7.3-23.5l144-44.6
						c5.9-1.8,12.2-2.3,18.4-1.2c14.7,2.7,26.7,11.5,32.2,22.8C403.1,223.4,402.7,236,393.8,247.7z"/>
				</g>
				<g class="st4">
					<path class="st5" d="M401.2,224c-5.2-11.9-17.5-21.4-32.8-24.1c-6.1-1.1-12.4-0.6-18.4,1.2l-144,44.6c-6.1,2.2-8,8-8.3,13.2
						l-1.5,0.6c0,0-5.1-18.9,7.3-23.5l144-44.6c5.9-1.8,12.2-2.3,18.4-1.2C385.1,193.6,399.6,207.6,401.2,224z"/>
				</g>
				<g>
					<path class="st3" d="M258.1,311.1c-15.7,0-23-9.8-23.4-10.3c-1-1.4-1.4-3.3-0.9-5c0.5-1.7,1.8-3.1,3.5-3.7l16.2-6.2
						c0.2-1.7,0.3-5.9-1.6-14.7c-2.5-11.3-25.6-13.4-34.7-13.3l-19,7.1c-1.5,0.6-3.2,0.5-4.6-0.3c-1.4-0.7-2.5-2.1-2.9-3.6
						c-2.4-8.9-2.8-25.4,10.9-30.4c0.1,0,0.2-0.1,0.3-0.1l144.1-44.6c6.5-2,13-2.6,19.3-1.6c18,2.7,33,13.6,39.1,28.6
						c5.2,12.8,3.2,26.3-5.7,38.2c-1.3,2.2-3.1,4.5-5.3,6.9c-6.6,7.2-15.2,12.7-24.9,16.2l-103.8,36.4c-0.4,0.1-0.8,0.2-1.1,0.3
						C261.6,311,259.8,311.1,258.1,311.1z M262.7,305L262.7,305L262.7,305z M252,298.7c2.5,0.7,5.6,1.1,9.4,0.6l103.2-36.2
						c7.9-2.8,14.9-7.3,20.2-13.1c1.8-1.9,3.1-3.7,4-5.3c0.1-0.2,0.2-0.4,0.4-0.6c6.5-8.6,8-18.2,4.4-27.1
						c-4.5-11-16.3-19.5-30.1-21.6c-4.5-0.7-9.4-0.2-14.2,1.2l-143.9,44.6c-3.8,1.5-4.6,6.1-4.5,10.1l13.2-4.9
						c0.6-0.2,1.2-0.3,1.8-0.4c4.3-0.2,42.3-0.8,47.3,22.4c1.3,5.9,5.2,24-3.6,27.2L252,298.7z M255.7,284.9c-0.1,0-0.1,0-0.2,0.1
						C255.6,285,255.6,285,255.7,284.9z"/>
				</g>
				<g>
					<path class="st5" d="M395.9,204.1c-0.1-0.1,0-0.2,0.1-0.1L395.9,204.1z"/>
				</g>
				<g class="st2">
					<path class="st3" d="M393.8,247.7c-1.2,2.1-2.9,4.2-4.8,6.3c-6.1,6.7-14,11.6-22.5,14.6L262.7,305c-16.2,2.2-23.3-7.6-23.3-7.6
						l18.1-7c0,0,4.1-1.4,0-20.5c-1.6-7.2-7.8-11.5-14.9-14c3-0.8,5.8-0.7,8.2,0.5c16.6,8.6,26.3,11.9,96.5-12.8
						c36.8-12.9,48.1-23.7,50.7-30.7C403.1,223.4,402.7,236,393.8,247.7z"/>
				</g>
			</g>
			<g>
				<path class="st3" d="M210.9,669.7c-0.1,0-0.3,0-0.4,0c-14.3-1.3-25.4-6.5-33-15.7c-11.7-14-10.7-32.1-10.6-34.4v-47.9
					c0-0.1,0-0.1,0-0.2c0-0.5,2.3-48.7-5.2-97.6c-6.2-40.5-30.1-56-57.8-73.9c-5-3.2-10.2-6.6-15.4-10.2c-31.3-21.5-48.7-9-48.9-8.9
					c-1.9,1.4-4.6,1-6.1-0.9c-1.4-1.9-1-4.6,0.9-6.1c0.9-0.7,22.6-16.4,59,8.6c5.1,3.5,10.2,6.8,15.2,10
					c28.2,18.2,54.9,35.5,61.7,79.8c7.5,48.6,5.5,96.5,5.3,99.2v47.9c0,0.1,0,0.3,0,0.4c-0.1,1.5-2.8,37.4,35.7,40.9
					c2.4,0.2,4.1,2.3,3.9,4.7C215,668,213.2,669.7,210.9,669.7z"/>
			</g>
			<g>
				<path class="st3" d="M40.4,442.1c17.8,18.7,41.7,30.1,66.5,36.1c2.3,0.7,8.1,1.7,10.6,2.2c2.1,0.5,5,0.9,7.1,1.1
					c7.1,1.2,14.9,1.6,22,2.4c5.3,0.7,4.9,8.5-0.5,8.6c-5.1,0-10.2-0.1-15.3-0.4c-2.6-0.3-8.9-1.1-11.4-1.4
					c-5.9-1.1-13-2.6-18.7-4.6C76.9,478.5,53.6,463.9,40.4,442.1L40.4,442.1z"/>
			</g>
			<g>
				<path class="st3" d="M563.6,260.7c18.4,14.2,27.3,36.8,2.6,50c-24.4,8.3-49.1,16.1-73.7,24C420,357.6,345.7,381,272.2,399.8
					c58.9-23.3,120.2-44,180.3-64.2c35.2-11.7,74-24.4,109.2-35.5c0,0-0.9,0.4-0.9,0.4c3.3-1.7,6.2-3.8,7.8-6.2
					c5.8-8.6-5.1-20.1-11.4-25.8C552.3,264.2,558.3,256.8,563.6,260.7L563.6,260.7z"/>
			</g>
			<g>
				<path class="st3" d="M107.4,791.4c8.2,2.5,21,5.5,27.9,0c2.9-2.4,4.4-6.8,4.9-10.7c0.9-17.6,1.7-37,2.9-54.6
					c0.8-11.9,1.7-23.9,2.9-35.8c2.3,23.9,3.8,47.9,4.9,71.9c0,0,0.8,18,0.8,18c0,1.2-0.2,2.8-0.3,4c-1.6,15.8-13.9,24.2-29.3,22.9
					c-6.8-0.5-13.1-2.2-19.3-5.1C96.2,798.7,100.4,788.9,107.4,791.4L107.4,791.4z"/>
			</g>
			<g>
				<ellipse class="st6" cx="420.3" cy="589.3" rx="24.3" ry="33.4"/>
			</g>
			<g class="st7">
				<path class="st3" d="M444.6,589.3c0,18.4-10.9,33.4-24.2,33.4c-9.2,0-17.1-7-21.3-17.3c3.2,2.1,6.7,3.3,10.5,3.3
					c13.4,0,24.2-14.9,24.2-33.4c0-5.8-1.1-11.3-3-16.1C438.9,564.5,444.6,576,444.6,589.3z"/>
			</g>
			<g class="st4">
				<path class="st5" d="M436.1,563.9c-2.3-1-4.8-1.5-7.3-1.5c-13.4,0-24.2,14.9-24.2,33.4c0,10.1,3.3,19.2,8.5,25.3
					c-9.8-4.3-16.9-16.9-16.9-31.8c0-18.4,10.9-33.4,24.3-33.4C426.4,555.9,431.9,558.9,436.1,563.9z"/>
			</g>
			<g>
				<path class="st3" d="M420.3,628.4c-16.6,0-30-17.6-30-39.1c0-21.6,13.5-39.1,30-39.1c16.6,0,30,17.6,30,39.1
					C450.3,610.9,436.9,628.4,420.3,628.4z M420.3,561.7c-10,0-18.5,12.6-18.5,27.6c0,15,8.5,27.6,18.5,27.6
					c10,0,18.5-12.6,18.5-27.6C438.8,574.3,430.4,561.7,420.3,561.7z"/>
			</g>
			<g class="st2">
				<path class="st3" d="M93.3,451.4c0,0,36.7,8.9,37.6,96.3s-5.4,217.8-5.4,217.8s0.5,33.1-53.7,12.8c0,0,43.5,31.8,61.2,18.5
					c17.7-13.3,13-29.9,13-29.9l0.6-135.8l1.2-139.4c0,0-2.3-22.7-4.4-24.5c-2.1-1.8-9.3-5.5-9.3-5.5"/>
			</g>
		</g>
	</g>
</g>
</svg>
