<?xml version="1.0" encoding="utf-8"?>
<!-- Generator: Adobe Illustrator 28.4.1, SVG Export Plug-In . SVG Version: 6.00 Build 0)  -->
<svg version="1.1" id="Layer_2_00000124863569196042102610000004875073211404526762_"
	 xmlns="http://www.w3.org/2000/svg" xmlns:xlink="http://www.w3.org/1999/xlink" x="0px" y="0px" viewBox="0 0 600 1000"
	 style="enable-background:new 0 0 600 1000;" xml:space="preserve">
<style type="text/css">
	.st0{display:none;fill:#FFFFFF;stroke:#000000;stroke-miterlimit:10;}
	.st1{fill:#ED902B;}
	.st2{opacity:0.2;}
	.st3{fill:#390075;}
	.st4{opacity:0.3;}
	.st5{opacity:0.55;}
	.st6{fill:#FFFFFF;}
	.st7{fill:#262F6A;}
	.st8{fill:#F7C414;}
	.st9{fill:#FFDC9C;}
	.st10{fill:#EC1C24;}
	.st11{fill:#00C3FF;}
	.st12{opacity:0.7;}
	.st13{opacity:0.8;}
	.st14{clip-path:url(#SVGID_00000108303109287623960360000004501444006018608051_);fill:#EC1C24;}
	.st15{clip-path:url(#SVGID_00000108303109287623960360000004501444006018608051_);fill:#EC1D24;}
	.st16{clip-path:url(#SVGID_00000108303109287623960360000004501444006018608051_);fill:#EC1E24;}
	.st17{clip-path:url(#SVGID_00000108303109287623960360000004501444006018608051_);fill:#EC1F24;}
	.st18{clip-path:url(#SVGID_00000108303109287623960360000004501444006018608051_);fill:#EC2024;}
	.st19{clip-path:url(#SVGID_00000108303109287623960360000004501444006018608051_);fill:#ED2124;}
	.st20{clip-path:url(#SVGID_00000108303109287623960360000004501444006018608051_);fill:#ED2224;}
	.st21{clip-path:url(#SVGID_00000108303109287623960360000004501444006018608051_);fill:#ED2324;}
	.st22{clip-path:url(#SVGID_00000108303109287623960360000004501444006018608051_);fill:#ED2424;}
	.st23{clip-path:url(#SVGID_00000108303109287623960360000004501444006018608051_);fill:#ED2524;}
	.st24{clip-path:url(#SVGID_00000108303109287623960360000004501444006018608051_);fill:#ED2624;}
	.st25{clip-path:url(#SVGID_00000108303109287623960360000004501444006018608051_);fill:#ED2724;}
	.st26{clip-path:url(#SVGID_00000108303109287623960360000004501444006018608051_);fill:#ED2824;}
	.st27{clip-path:url(#SVGID_00000108303109287623960360000004501444006018608051_);fill:#ED2924;}
	.st28{clip-path:url(#SVGID_00000108303109287623960360000004501444006018608051_);fill:#ED2A24;}
	.st29{clip-path:url(#SVGID_00000108303109287623960360000004501444006018608051_);fill:#EE2A24;}
	.st30{clip-path:url(#SVGID_00000108303109287623960360000004501444006018608051_);fill:#EE2B24;}
	.st31{clip-path:url(#SVGID_00000108303109287623960360000004501444006018608051_);fill:#EE2C24;}
	.st32{clip-path:url(#SVGID_00000108303109287623960360000004501444006018608051_);fill:#EE2D24;}
	.st33{clip-path:url(#SVGID_00000108303109287623960360000004501444006018608051_);fill:#EE2E24;}
	.st34{clip-path:url(#SVGID_00000108303109287623960360000004501444006018608051_);fill:#EE2F24;}
	.st35{clip-path:url(#SVGID_00000108303109287623960360000004501444006018608051_);fill:#EE3024;}
	.st36{clip-path:url(#SVGID_00000108303109287623960360000004501444006018608051_);fill:#EE3124;}
	.st37{clip-path:url(#SVGID_00000108303109287623960360000004501444006018608051_);fill:#EE3224;}
	.st38{clip-path:url(#SVGID_00000108303109287623960360000004501444006018608051_);fill:#EE3225;}
	.st39{clip-path:url(#SVGID_00000108303109287623960360000004501444006018608051_);fill:#EF3325;}
	.st40{clip-path:url(#SVGID_00000108303109287623960360000004501444006018608051_);fill:#EF3425;}
	.st41{clip-path:url(#SVGID_00000108303109287623960360000004501444006018608051_);fill:#EF3525;}
	.st42{clip-path:url(#SVGID_00000108303109287623960360000004501444006018608051_);fill:#EF3625;}
	.st43{clip-path:url(#SVGID_00000108303109287623960360000004501444006018608051_);fill:#EF3725;}
	.st44{clip-path:url(#SVGID_00000108303109287623960360000004501444006018608051_);fill:#EF3825;}
	.st45{clip-path:url(#SVGID_00000108303109287623960360000004501444006018608051_);fill:#EF3925;}
	.st46{clip-path:url(#SVGID_00000108303109287623960360000004501444006018608051_);fill:#EF3A25;}
	.st47{clip-path:url(#SVGID_00000108303109287623960360000004501444006018608051_);fill:#EF3B25;}
	.st48{clip-path:url(#SVGID_00000108303109287623960360000004501444006018608051_);fill:#EF3C25;}
	.st49{clip-path:url(#SVGID_00000108303109287623960360000004501444006018608051_);fill:#F03D25;}
	.st50{clip-path:url(#SVGID_00000108303109287623960360000004501444006018608051_);fill:#F03E25;}
	.st51{clip-path:url(#SVGID_00000108303109287623960360000004501444006018608051_);fill:#F03F25;}
	.st52{clip-path:url(#SVGID_00000108303109287623960360000004501444006018608051_);fill:#F04025;}
	.st53{clip-path:url(#SVGID_00000108303109287623960360000004501444006018608051_);fill:#F04125;}
	.st54{clip-path:url(#SVGID_00000108303109287623960360000004501444006018608051_);fill:#F04225;}
	.st55{clip-path:url(#SVGID_00000108303109287623960360000004501444006018608051_);fill:#F04325;}
	.st56{clip-path:url(#SVGID_00000108303109287623960360000004501444006018608051_);fill:#F04425;}
	.st57{clip-path:url(#SVGID_00000108303109287623960360000004501444006018608051_);fill:#F04525;}
	.st58{clip-path:url(#SVGID_00000108303109287623960360000004501444006018608051_);fill:#F14625;}
	.st59{clip-path:url(#SVGID_00000108303109287623960360000004501444006018608051_);fill:#F14725;}
	.st60{clip-path:url(#SVGID_00000108303109287623960360000004501444006018608051_);fill:#F14825;}
	.st61{clip-path:url(#SVGID_00000108303109287623960360000004501444006018608051_);fill:#F14925;}
	.st62{clip-path:url(#SVGID_00000108303109287623960360000004501444006018608051_);fill:#F14A25;}
	.st63{clip-path:url(#SVGID_00000108303109287623960360000004501444006018608051_);fill:#F14B25;}
	.st64{clip-path:url(#SVGID_00000108303109287623960360000004501444006018608051_);fill:#F14C25;}
	.st65{clip-path:url(#SVGID_00000108303109287623960360000004501444006018608051_);fill:#F14D25;}
	.st66{clip-path:url(#SVGID_00000108303109287623960360000004501444006018608051_);fill:#F14E25;}
	.st67{clip-path:url(#SVGID_00000108303109287623960360000004501444006018608051_);fill:#F24F25;}
	.st68{clip-path:url(#SVGID_00000108303109287623960360000004501444006018608051_);fill:#F25025;}
	.st69{clip-path:url(#SVGID_00000108303109287623960360000004501444006018608051_);fill:#F25125;}
	.st70{clip-path:url(#SVGID_00000108303109287623960360000004501444006018608051_);fill:#F25225;}
	.st71{clip-path:url(#SVGID_00000108303109287623960360000004501444006018608051_);fill:#F25325;}
	.st72{clip-path:url(#SVGID_00000108303109287623960360000004501444006018608051_);fill:#F25425;}
	.st73{clip-path:url(#SVGID_00000108303109287623960360000004501444006018608051_);fill:#F25525;}
	.st74{clip-path:url(#SVGID_00000108303109287623960360000004501444006018608051_);fill:#F25625;}
	.st75{clip-path:url(#SVGID_00000108303109287623960360000004501444006018608051_);fill:#F25725;}
	.st76{clip-path:url(#SVGID_00000108303109287623960360000004501444006018608051_);fill:#F35825;}
	.st77{clip-path:url(#SVGID_00000108303109287623960360000004501444006018608051_);fill:#F35925;}
	.st78{clip-path:url(#SVGID_00000108303109287623960360000004501444006018608051_);fill:#F35A25;}
	.st79{clip-path:url(#SVGID_00000108303109287623960360000004501444006018608051_);fill:#F35C25;}
	.st80{clip-path:url(#SVGID_00000108303109287623960360000004501444006018608051_);fill:#F35D25;}
	.st81{clip-path:url(#SVGID_00000108303109287623960360000004501444006018608051_);fill:#F35E26;}
	.st82{clip-path:url(#SVGID_00000108303109287623960360000004501444006018608051_);fill:#F35F26;}
	.st83{clip-path:url(#SVGID_00000108303109287623960360000004501444006018608051_);fill:#F36026;}
	.st84{clip-path:url(#SVGID_00000108303109287623960360000004501444006018608051_);fill:#F46126;}
	.st85{clip-path:url(#SVGID_00000108303109287623960360000004501444006018608051_);fill:#F46226;}
	.st86{clip-path:url(#SVGID_00000108303109287623960360000004501444006018608051_);fill:#F46426;}
	.st87{clip-path:url(#SVGID_00000108303109287623960360000004501444006018608051_);fill:#F46526;}
	.st88{clip-path:url(#SVGID_00000108303109287623960360000004501444006018608051_);fill:#F46626;}
	.st89{clip-path:url(#SVGID_00000108303109287623960360000004501444006018608051_);fill:#F46726;}
	.st90{clip-path:url(#SVGID_00000108303109287623960360000004501444006018608051_);fill:#F46826;}
	.st91{clip-path:url(#SVGID_00000108303109287623960360000004501444006018608051_);fill:#F46A26;}
	.st92{clip-path:url(#SVGID_00000108303109287623960360000004501444006018608051_);fill:#F56B26;}
	.st93{clip-path:url(#SVGID_00000108303109287623960360000004501444006018608051_);fill:#F56C26;}
	.st94{clip-path:url(#SVGID_00000108303109287623960360000004501444006018608051_);fill:#F56D26;}
	.st95{clip-path:url(#SVGID_00000108303109287623960360000004501444006018608051_);fill:#F56F26;}
	.st96{clip-path:url(#SVGID_00000108303109287623960360000004501444006018608051_);fill:#F57026;}
	.st97{clip-path:url(#SVGID_00000108303109287623960360000004501444006018608051_);fill:#F57126;}
	.st98{clip-path:url(#SVGID_00000108303109287623960360000004501444006018608051_);fill:#F57226;}
	.st99{clip-path:url(#SVGID_00000108303109287623960360000004501444006018608051_);fill:#F67426;}
	.st100{clip-path:url(#SVGID_00000108303109287623960360000004501444006018608051_);fill:#F67526;}
	.st101{clip-path:url(#SVGID_00000108303109287623960360000004501444006018608051_);fill:#F67626;}
	.st102{clip-path:url(#SVGID_00000108303109287623960360000004501444006018608051_);fill:#F67726;}
	.st103{clip-path:url(#SVGID_00000108303109287623960360000004501444006018608051_);fill:#F67926;}
	.st104{clip-path:url(#SVGID_00000108303109287623960360000004501444006018608051_);fill:#F67A26;}
	.st105{clip-path:url(#SVGID_00000108303109287623960360000004501444006018608051_);fill:#F67B26;}
	.st106{clip-path:url(#SVGID_00000108303109287623960360000004501444006018608051_);fill:#F77D26;}
	.st107{clip-path:url(#SVGID_00000108303109287623960360000004501444006018608051_);fill:#F77E26;}
	.st108{clip-path:url(#SVGID_00000108303109287623960360000004501444006018608051_);fill:#F77F26;}
	.st109{clip-path:url(#SVGID_00000108303109287623960360000004501444006018608051_);fill:#F78126;}
	.st110{clip-path:url(#SVGID_00000108303109287623960360000004501444006018608051_);fill:#F78226;}
	.st111{clip-path:url(#SVGID_00000108303109287623960360000004501444006018608051_);fill:#F78426;}
	.st112{clip-path:url(#SVGID_00000108303109287623960360000004501444006018608051_);fill:#F78526;}
	.st113{clip-path:url(#SVGID_00000108303109287623960360000004501444006018608051_);fill:#F88626;}
	.st114{clip-path:url(#SVGID_00000108303109287623960360000004501444006018608051_);fill:#F88826;}
	.st115{clip-path:url(#SVGID_00000108303109287623960360000004501444006018608051_);fill:#F88927;}
	.st116{clip-path:url(#SVGID_00000108303109287623960360000004501444006018608051_);fill:#F88A27;}
	.st117{clip-path:url(#SVGID_00000108303109287623960360000004501444006018608051_);fill:#F88C27;}
	.st118{clip-path:url(#SVGID_00000108303109287623960360000004501444006018608051_);fill:#F88D27;}
	.st119{clip-path:url(#SVGID_00000108303109287623960360000004501444006018608051_);fill:#F98F27;}
	.st120{clip-path:url(#SVGID_00000108303109287623960360000004501444006018608051_);fill:#F99027;}
	.st121{clip-path:url(#SVGID_00000108303109287623960360000004501444006018608051_);fill:#F99227;}
	.st122{clip-path:url(#SVGID_00000108303109287623960360000004501444006018608051_);fill:#F99327;}
	.st123{clip-path:url(#SVGID_00000108303109287623960360000004501444006018608051_);fill:#F99427;}
	.st124{clip-path:url(#SVGID_00000108303109287623960360000004501444006018608051_);fill:#F99627;}
	.st125{clip-path:url(#SVGID_00000108303109287623960360000004501444006018608051_);fill:#F99727;}
	.st126{clip-path:url(#SVGID_00000108303109287623960360000004501444006018608051_);fill:#FA9927;}
	.st127{clip-path:url(#SVGID_00000108303109287623960360000004501444006018608051_);fill:#FA9A27;}
	.st128{clip-path:url(#SVGID_00000108303109287623960360000004501444006018608051_);fill:#FA9C27;}
	.st129{clip-path:url(#SVGID_00000108303109287623960360000004501444006018608051_);fill:#FA9D27;}
	.st130{clip-path:url(#SVGID_00000108303109287623960360000004501444006018608051_);fill:#FA9F27;}
	.st131{clip-path:url(#SVGID_00000108303109287623960360000004501444006018608051_);fill:#FAA027;}
	.st132{clip-path:url(#SVGID_00000108303109287623960360000004501444006018608051_);fill:#FBA227;}
	.st133{clip-path:url(#SVGID_00000108303109287623960360000004501444006018608051_);fill:#FBA327;}
	.st134{clip-path:url(#SVGID_00000108303109287623960360000004501444006018608051_);fill:#FBA527;}
	.st135{clip-path:url(#SVGID_00000108303109287623960360000004501444006018608051_);fill:#FBA627;}
	.st136{clip-path:url(#SVGID_00000108303109287623960360000004501444006018608051_);fill:#FBA827;}
	.st137{clip-path:url(#SVGID_00000108303109287623960360000004501444006018608051_);fill:#FBAA27;}
	.st138{clip-path:url(#SVGID_00000108303109287623960360000004501444006018608051_);fill:#FCAB27;}
	.st139{clip-path:url(#SVGID_00000108303109287623960360000004501444006018608051_);fill:#FCAD27;}
	.st140{clip-path:url(#SVGID_00000108303109287623960360000004501444006018608051_);fill:#FCAE27;}
	.st141{clip-path:url(#SVGID_00000108303109287623960360000004501444006018608051_);fill:#FCB027;}
	.st142{clip-path:url(#SVGID_00000108303109287623960360000004501444006018608051_);fill:#FCB127;}
	.st143{clip-path:url(#SVGID_00000108303109287623960360000004501444006018608051_);fill:#FCB327;}
	.st144{clip-path:url(#SVGID_00000108303109287623960360000004501444006018608051_);fill:#FDB528;}
	.st145{clip-path:url(#SVGID_00000108303109287623960360000004501444006018608051_);fill:#FDB628;}
	.st146{clip-path:url(#SVGID_00000108303109287623960360000004501444006018608051_);fill:#FDB828;}
	.st147{clip-path:url(#SVGID_00000108303109287623960360000004501444006018608051_);fill:#FDB928;}
	.st148{clip-path:url(#SVGID_00000108303109287623960360000004501444006018608051_);fill:#FDBB28;}
	.st149{clip-path:url(#SVGID_00000108303109287623960360000004501444006018608051_);fill:#FEBD28;}
	.st150{clip-path:url(#SVGID_00000108303109287623960360000004501444006018608051_);fill:#FEBE28;}
	.st151{clip-path:url(#SVGID_00000108303109287623960360000004501444006018608051_);fill:#FEC028;}
	.st152{clip-path:url(#SVGID_00000108303109287623960360000004501444006018608051_);fill:#FEC228;}
	.st153{clip-path:url(#SVGID_00000108303109287623960360000004501444006018608051_);fill:#FEC328;}
	.st154{clip-path:url(#SVGID_00000108303109287623960360000004501444006018608051_);fill:#FEC528;}
	.st155{clip-path:url(#SVGID_00000108303109287623960360000004501444006018608051_);fill:#FFC728;}
	.st156{clip-path:url(#SVGID_00000108303109287623960360000004501444006018608051_);fill:#FFC828;}
	.st157{clip-path:url(#SVGID_00000108303109287623960360000004501444006018608051_);fill:#FFCA28;}
	.st158{opacity:0.5;}
	.st159{fill:#FFD553;}
	.st160{fill:#00AAFF;}
	.st161{opacity:0.6;}
	.st162{opacity:0.35;}
	.st163{fill:#D25658;}
	.st164{fill:#371A45;}
	.st165{fill:#6BD6F0;}
	.st166{opacity:0.44;}
</style>
<g>
	<path class="st0" d="M363.8,682.7H252.6c-3.9,0-7-3.2-7-7V525.7c0-3.9,3.2-7,7-7h111.2c3.9,0,7,3.2,7,7v149.9
		C370.9,679.5,367.7,682.7,363.8,682.7z"/>
	<g>
		<g>
			<g>
				<polygon class="st1" points="494.1,565.2 292.7,639.1 104.6,565.2 292.7,491.4 				"/>
			</g>
			<g class="st2">
				<polygon class="st3" points="494.1,565.2 292.7,639.1 104.6,565.2 292.7,491.4 				"/>
			</g>
			<g class="st4">
				<polygon class="st3" points="494.1,565.2 292.7,639.1 292.7,491.4 				"/>
			</g>
			<g>
				<path class="st3" d="M292.7,644.2c-0.6,0-1.3-0.1-1.9-0.4l-188.1-73.8c-2-0.8-3.3-2.7-3.3-4.8s1.3-4,3.3-4.8l188.1-73.8
					c1.2-0.5,2.5-0.5,3.7,0l201.4,73.8c2,0.7,3.4,2.7,3.4,4.8s-1.4,4.1-3.4,4.8l-201.4,73.8C293.9,644.1,293.3,644.2,292.7,644.2z
					 M118.7,565.2l174,68.3l186.3-68.3l-186.3-68.3L118.7,565.2z"/>
			</g>
			<g>
				<polygon class="st1" points="494.1,565.2 494.1,822.9 292.7,896.7 104.6,822.9 104.6,565.2 292.7,639.1 				"/>
			</g>
			<g class="st5">
				<polygon class="st6" points="494.1,565.2 494.1,822.9 479.5,828.3 479.5,570.6 				"/>
			</g>
			<g>
				<polygon class="st1" points="292.7,639.1 292.7,896.7 290.4,895.8 104.6,822.9 104.6,565.2 				"/>
			</g>
			<g>
				<path class="st3" d="M292.7,901.9c-0.6,0-1.3-0.1-1.9-0.4l-188.1-73.8c-2-0.8-3.3-2.7-3.3-4.8V565.2c0-1.7,0.8-3.3,2.3-4.3
					c1.4-1,3.2-1.2,4.8-0.5l186.2,73.1l199.6-73.1c1.6-0.6,3.4-0.4,4.7,0.6c1.4,1,2.2,2.5,2.2,4.2v257.7c0,2.2-1.4,4.1-3.4,4.8
					l-201.4,73.8C293.9,901.8,293.3,901.9,292.7,901.9z M109.8,819.4l183,71.8l196.2-71.9V572.6l-194.5,71.3c-1.2,0.4-2.5,0.4-3.7,0
					l-181-71.1V819.4z"/>
			</g>
			<g>
				<path class="st3" d="M292.7,901.9c-2.9,0-5.2-2.3-5.2-5.2V639.1c0-2.9,2.3-5.2,5.2-5.2c2.9,0,5.2,2.3,5.2,5.2v257.7
					C297.8,899.6,295.5,901.9,292.7,901.9z"/>
			</g>
			<g class="st4">
				<polygon class="st7" points="494.1,668.9 494.1,695.7 358.8,745.3 292.7,686.1 292.7,640.5 293.8,640.1 374,712.9 				"/>
				<path class="st3" d="M358.7,746l-0.3-0.3L292,686.4v-46.3l1.9-0.7l80.2,72.8L494.7,668v28.2l-0.4,0.2L358.7,746z M293.3,685.9
					l65.6,58.7l134.5-49.3v-25.4l-119.5,43.8l-0.3-0.3l-79.9-72.5l-0.4,0.1V685.9z"/>
			</g>
			<g class="st4">
				<path class="st7" d="M291.1,891.5c0,0-0.3,1.6-0.7,4.4l-185.7-72.9V669.6l16,6.3l97.6,38.3l-31.7,33.6l-48.3-18.9
					C168.4,801.9,218.2,857.1,291.1,891.5z"/>
				<path class="st3" d="M290.9,896.7L104,823.4V668.7l16.9,6.6l98.5,38.6l-32.7,34.6L139.4,730c30.8,73.7,81.9,127.8,152,160.9
					l0.4,0.2l-0.1,0.5c0,0-0.3,1.6-0.7,4.4L290.9,896.7z M105.3,822.5l184.6,72.5c0.3-1.5,0.4-2.5,0.5-3.1
					c-70.6-33.4-122-88.2-152.7-162.7l-0.6-1.4l49.3,19.3l30.8-32.6l-111.9-43.9V822.5z"/>
			</g>
			<g>
				<polygon class="st1" points="494.1,565.2 292.7,491.4 385.8,495.2 587.2,569.1 				"/>
			</g>
			<g>
				<path class="st3" d="M587.2,574.2c-0.1,0-0.1,0-0.2,0l-93.1-3.8c-0.5,0-1.1-0.1-1.6-0.3l-201.4-73.8c-2.4-0.9-3.8-3.4-3.3-5.9
					c0.5-2.5,2.8-4.3,5.3-4.2l93.1,3.8c0.5,0,1.1,0.1,1.6,0.3L589,564.2c2.4,0.9,3.8,3.4,3.3,5.9
					C591.8,572.5,589.6,574.2,587.2,574.2z M495.1,560.1l59.3,2.4l-169.7-62.2l-59.3-2.4L495.1,560.1z"/>
			</g>
			<g>
				<polygon class="st1" points="104.6,565.2 292.7,491.4 193.2,497.6 5.2,571.4 				"/>
			</g>
			<g>
				<path class="st3" d="M5.2,576.6c-2.4,0-4.5-1.7-5-4c-0.5-2.5,0.8-5,3.2-5.9l188.1-73.8c0.5-0.2,1-0.3,1.6-0.3l99.5-6.2
					c2.5-0.1,4.8,1.6,5.4,4c0.5,2.5-0.8,5-3.2,5.9l-188.1,73.8c-0.5,0.2-1,0.3-1.6,0.3l-99.5,6.2C5.4,576.6,5.3,576.6,5.2,576.6z
					 M104.6,565.2L104.6,565.2L104.6,565.2z M194.4,502.7L37.6,564.2l65.9-4.1l156.7-61.5L194.4,502.7z"/>
			</g>
			<g>
				<g>
					<path class="st8" d="M200.5,620.1l-29.8,6.4c-4.2,0.9-8.4-1.8-9.3-6l-29.7-138.8c-0.9-4.2,1.8-8.4,6-9.3l29.8-6.4
						c4.2-0.9,8.4,1.8,9.3,6l29.7,138.8C207.4,615.1,204.7,619.2,200.5,620.1z"/>
				</g>
				<g class="st4">
					<path class="st3" d="M208.8,612.2c-0.3,3.4-2.7,6.3-6.2,7l-29.8,6.4c-4.2,0.9-8.4-1.8-9.3-6l-29.7-138.8
						c-0.7-3.4,0.9-6.8,3.8-8.4c-0.1,0.7,0,1.5,0.1,2.3l23.3,109c4.4,20.7,24.7,33.8,45.4,29.4C207.3,612.9,208.1,612.6,208.8,612.2
						z"/>
				</g>
				<g class="st5">
					<path class="st6" d="M175.8,474.1l29.7,138.8c0.7,3.5-0.9,6.9-3.9,8.5l-23-107.6c-7.9-0.8-11.1-15.7-4.2-19.6l-3.9-18
						c-0.4-2-2.4-3.2-4.3-2.8l-35.5,7.6c0.5-3.1,2.8-5.8,6.1-6.5l29.8-6.4C170.7,467.2,174.9,469.8,175.8,474.1z"/>
				</g>
				<g>
					<path class="st3" d="M169.1,630.5c-5.4,0-10.3-3.8-11.4-9.2L128,482.5c-0.7-3.1-0.1-6.2,1.6-8.8c1.7-2.6,4.3-4.4,7.4-5.1
						l29.8-6.4c3.1-0.7,6.2-0.1,8.8,1.6c2.6,1.7,4.4,4.3,5.1,7.4L210.3,610c1.3,6.3-2.7,12.5-9,13.9h0l-29.8,6.4
						C170.7,630.4,169.9,630.5,169.1,630.5z M169.2,469.7c-0.3,0-0.6,0-0.8,0.1l-29.8,6.4c-2.1,0.5-3.5,2.6-3,4.7l29.7,138.8
						c0.5,2.1,2.6,3.5,4.7,3l29.8-6.4c2.1-0.5,3.5-2.6,3-4.7L173,472.8c-0.2-1-0.8-1.9-1.7-2.5C170.7,469.9,169.9,469.7,169.2,469.7
						z M200.5,620.1L200.5,620.1L200.5,620.1z"/>
				</g>
				<g>
					<g>
						<g>
							<path class="st3" d="M133.7,493.4c-1.2,0-2.3-0.8-2.5-2c-0.3-1.4,0.6-2.8,2-3.1l11.7-2.5c1.4-0.3,2.8,0.6,3.1,2
								s-0.6,2.8-2,3.1l-11.7,2.5C134.1,493.4,133.9,493.4,133.7,493.4z"/>
						</g>
						<g>
							<path class="st3" d="M137.4,510.4c-1.2,0-2.3-0.8-2.5-2c-0.3-1.4,0.6-2.8,2-3.1l11.7-2.5c1.4-0.3,2.8,0.6,3.1,2
								c0.3,1.4-0.6,2.8-2,3.1l-11.7,2.5C137.7,510.4,137.5,510.4,137.4,510.4z"/>
						</g>
						<g>
							<path class="st3" d="M141,527.4c-1.2,0-2.3-0.8-2.5-2c-0.3-1.4,0.6-2.8,2-3.1l19.9-4.3c1.4-0.3,2.8,0.6,3.1,2
								c0.3,1.4-0.6,2.8-2,3.1l-19.9,4.3C141.3,527.3,141.2,527.4,141,527.4z"/>
						</g>
						<g>
							<path class="st3" d="M144.6,544.3c-1.2,0-2.3-0.8-2.5-2c-0.3-1.4,0.6-2.8,2-3.1l11.7-2.5c1.4-0.3,2.8,0.6,3.1,2
								c0.3,1.4-0.6,2.8-2,3.1l-11.7,2.5C145,544.3,144.8,544.3,144.6,544.3z"/>
						</g>
						<g>
							<path class="st3" d="M148.2,561.3c-1.2,0-2.3-0.8-2.5-2c-0.3-1.4,0.6-2.8,2-3.1l11.7-2.5c1.4-0.3,2.8,0.6,3.1,2
								c0.3,1.4-0.6,2.8-2,3.1l-11.7,2.5C148.6,561.3,148.4,561.3,148.2,561.3z"/>
						</g>
						<g>
							<path class="st3" d="M151.9,578.3c-1.2,0-2.3-0.8-2.5-2c-0.3-1.4,0.6-2.8,2-3.1l19.9-4.3c1.4-0.3,2.8,0.6,3.1,2
								c0.3,1.4-0.6,2.8-2,3.1l-19.9,4.3C152.2,578.2,152.1,578.3,151.9,578.3z"/>
						</g>
						<g>
							<path class="st3" d="M155.5,595.2c-1.2,0-2.3-0.8-2.5-2c-0.3-1.4,0.6-2.8,2-3.1l11.7-2.5c1.4-0.3,2.8,0.6,3.1,2
								c0.3,1.4-0.6,2.8-2,3.1l-11.7,2.5C155.9,595.2,155.7,595.2,155.5,595.2z"/>
						</g>
					</g>
					<g>
						<path class="st3" d="M158.9,610.9c-1.2,0-2.3-0.8-2.5-2c-0.3-1.4,0.6-2.8,2-3.1l11.7-2.5c1.4-0.3,2.8,0.6,3.1,2
							c0.3,1.4-0.6,2.8-2,3.1l-11.7,2.5C159.2,610.8,159,610.9,158.9,610.9z"/>
					</g>
				</g>
			</g>
			<g>
				<polygon class="st1" points="292.7,639.1 220.8,715.2 32.7,641.4 99.3,570.8 104.6,565.2 				"/>
			</g>
			<g class="st5">
				<polygon class="st6" points="291.1,639.1 219.2,715.2 205.2,709.7 268.2,642.9 94.2,574.6 103,565.2 				"/>
			</g>
			<g>
				<path class="st3" d="M220.8,720.4c-0.6,0-1.3-0.1-1.9-0.4L30.9,646.2c-1.6-0.6-2.8-2-3.2-3.7c-0.4-1.7,0.1-3.4,1.3-4.7
					l71.9-76.2c1.4-1.5,3.7-2,5.6-1.3l188.1,73.8c1.6,0.6,2.8,2,3.2,3.7c0.4,1.7-0.1,3.4-1.3,4.7l-71.9,76.2
					C223.6,719.8,222.2,720.4,220.8,720.4z M41.7,639.4l177.7,69.8l64.2-68.1L106,571.3L41.7,639.4z"/>
			</g>
			<g class="st4">
				<path class="st7" d="M220.8,715.2L32.7,641.4l66.6-70.6c3.4,0.4,5.3,0.6,5.3,0.6C78.2,622.1,127.3,669.6,220.8,715.2z"/>
				<path class="st3" d="M220.6,715.8l-189-74.2l67.5-71.5l0.3,0c3.4,0.4,5.3,0.6,5.3,0.6l0.9,0.1l-0.4,0.8
					c-7.6,14.7-9,29.6-4.2,44.4c10.6,32.1,49.9,64.3,120.1,98.6L220.6,715.8z M33.9,641.2l173.7,68.2c-62.4-32-97.7-62.4-107.8-92.9
					c-4.9-14.8-3.6-29.8,3.8-44.5c-0.8-0.1-2.2-0.2-4-0.4L33.9,641.2z"/>
			</g>
			<g>
				<g>
					<path class="st9" d="M453.7,474l-55.3,96.7c-3,5.2-9.6,7-14.7,4c-5.2-3-7-9.6-4-14.7l55.3-96.7l23.7-19.6L453.7,474z"/>
					<path class="st3" d="M389,576.8c-1.9,0-3.9-0.5-5.7-1.5c-5.5-3.1-7.4-10.1-4.3-15.6l55.3-96.8l25.1-20.8l-5.3,32.3L399,571
						C396.8,574.7,393,576.8,389,576.8z M435.4,463.7l-55.2,96.6c-2.8,4.9-1.1,11.1,3.8,13.9c4.9,2.8,11.1,1.1,13.9-3.8l55.2-96.6
						l4.6-28.5L435.4,463.7z"/>
				</g>
				<g>
					<path class="st10" d="M405,559.2l-6.6,11.5c-3,5.2-9.6,7-14.7,4c-5.2-3-7-9.6-4-14.7l6.6-11.5
						C382.8,554.4,401.6,565.1,405,559.2z"/>
					<path class="st3" d="M389,576.8c-1.9,0-3.9-0.5-5.7-1.5c-5.5-3.1-7.4-10.1-4.3-15.6l6.6-11.5c0,0,0,0,0,0l0,0
						c0.2-0.3,0.6-0.4,0.9-0.2c0.3,0.2,0.4,0.6,0.2,0.9l0,0c-1.5,2.6,2.2,6.5,6.6,9c4.4,2.5,9.6,3.7,11.1,1.1l0,0l0,0
						c0.2-0.3,0.6-0.4,0.9-0.2c0.3,0.2,0.4,0.6,0.2,0.9l0,0c0,0,0,0,0,0L399,571C396.8,574.7,393,576.8,389,576.8z M385.4,551.3
						l-5.2,9c-2.8,4.9-1.1,11.1,3.8,13.9c4.9,2.8,11.1,1.1,13.9-3.8l5.2-9c-2.8,0.7-6.8-0.5-10.3-2.5
						C389.3,556.9,386.1,554,385.4,551.3z"/>
				</g>
				<g>
					<path class="st11" d="M453.7,474L405,559.2c-3.4,6-22.2-4.8-18.8-10.7l48.7-85.2C431.5,469.3,450.3,480,453.7,474z"/>
				</g>
				<g class="st5">
					<path class="st6" d="M453.7,474l-55.3,96.7c-3,5.2-9.6,7-14.7,4c-1.2-0.7-2.3-1.6-3.1-2.7c4.2,0.6,8.6-1.4,10.8-5.3l55.3-96.7
						l3.1-19l8.8-7.3L453.7,474z"/>
				</g>
				<g>
					<path class="st3" d="M389,579.4c-2.4,0-4.7-0.6-6.9-1.8c0,0,0,0,0,0c-6.7-3.8-9.1-12.4-5.2-19.1l55.3-96.7
						c0.2-0.3,0.4-0.6,0.7-0.9l23.7-19.6c1-0.9,2.5-1,3.7-0.3c1.2,0.7,1.8,2,1.6,3.3l-4.9,30.3c-0.1,0.4-0.2,0.8-0.4,1.1l-55.3,96.7
						C398.6,576.8,393.9,579.4,389,579.4z M385.3,571.9c3.6,2.1,8.3,0.8,10.3-2.8l55-96.2l3.4-21.3l-16.6,13.8l-55,96.2
						C380.4,565.2,381.6,569.8,385.3,571.9L385.3,571.9z"/>
				</g>
				<g>
					<path class="st3" d="M450,479c-0.5,0-1,0-1.5-0.1c-2.5-0.3-5.5-1.4-8.3-3c-7.3-4.2-10.5-9.9-8-14.2c0.9-1.5,2.8-2,4.3-1.2
						c1.5,0.8,2.1,2.8,1.3,4.4c0,0.6,1.6,3.2,5.6,5.5c4.1,2.3,7.1,2.4,7.6,2c0.9-1.5,2.8-2.1,4.4-1.2c1.5,0.9,2.1,2.9,1.2,4.4
						C455.7,476.9,453.9,479,450,479z"/>
				</g>
				<g>
					<path class="st3" d="M401.2,564.1c-2.8,0-6.2-1-9.7-3c-7.3-4.2-10.5-9.9-8-14.2c0.9-1.5,2.8-2,4.3-1.2c1.5,0.8,2.1,2.8,1.3,4.4
						c0,0.6,1.6,3.1,5.6,5.5c4.1,2.3,7.1,2.4,7.6,2.1c0.9-1.5,2.8-2.1,4.4-1.2c1.5,0.9,2.1,2.9,1.2,4.4
						C406.5,563,404.2,564.1,401.2,564.1z"/>
				</g>
				<g>
					<path class="st3" d="M447.2,453.3c1.1,4.8,3.8,6.6,8.4,4.8l1.6-10.2L447.2,453.3z"/>
				</g>
			</g>
			<g>
				<polygon class="st1" points="494.1,565.2 292.7,639.1 374,712.9 575.4,639.1 				"/>
			</g>
			<g class="st5">
				<polygon class="st6" points="575.4,639.1 559.4,644.9 491.5,583.4 306.2,651.3 292.7,639.1 494.1,565.2 				"/>
			</g>
			<g>
				<path class="st3" d="M374,718c-1.3,0-2.5-0.5-3.5-1.3l-81.4-73.8c-1.3-1.2-1.9-3-1.6-4.8s1.6-3.2,3.3-3.9l201.4-73.8
					c1.8-0.7,3.8-0.3,5.2,1l81.4,73.8c1.3,1.2,1.9,3,1.6,4.8c-0.3,1.8-1.6,3.2-3.3,3.9l-201.4,73.8C375.2,717.9,374.6,718,374,718z
					 M302.5,641l72.7,66l190.4-69.8l-72.7-66L302.5,641z"/>
			</g>
			<g>
				<g>
					<path class="st11" d="M83.1,360.8l22.3-33.8c2.5,2.7,5.2,5.1,8.3,7.1l10.9,7.2c2.3,1.5,4.4,3.5,6,5.7l3.4,4.6
						c1.3,1.7,1.3,4.1,0.2,5.9l-11.7,17.8c-1.2,1.8-3.4,2.7-5.5,2.2l-5.6-1.3c-2.7-0.6-5.3-1.8-7.6-3.3l-10.9-7.2
						C89.9,363.6,86.6,362,83.1,360.8z"/>
				</g>
				<g class="st12">
					<path class="st6" d="M104.2,328.5c2.5,2.7,5.2,5.1,8.3,7.1l10.9,7.2c2.3,1.5,4.4,3.5,6,5.7l3.4,4.6c1.3,1.7,1.3,4.1,0.2,5.9
						l-1.6,2.5c0-1-0.4-2.1-1-2.9l-3.4-4.6c-1.7-2.2-3.7-4.2-6-5.7L110,341c-3.1-2-5.8-4.4-8.3-7.1l-18.9,28.6
						c-0.3-0.1-0.6-0.2-0.9-0.3L104.2,328.5z"/>
				</g>
				<g>
					<path class="st3" d="M88.6,351.6c-0.5,0-1.1-0.1-1.6-0.4l-27.9-13.9c-0.9-0.5-1.6-1.3-1.8-2.2c-0.3-1-0.1-2,0.5-2.9l11.5-17.4
						c0.6-0.8,1.4-1.4,2.4-1.5c1-0.1,2,0.1,2.8,0.8l23.8,20.1c1.5,1.3,1.7,3.5,0.4,5c-1.3,1.5-3.5,1.7-5,0.4L73,322l-7.1,10.8
						l24.3,12.2c1.7,0.9,2.4,3,1.6,4.7C91.1,350.9,89.9,351.6,88.6,351.6z"/>
				</g>
				<g class="st13">
					<path class="st8" d="M81.6,292.8c6.7,4.4,11.4,10.7,14,17.8c2,5.7,5,11,8.9,15.5l-22.7,34.3c-5.6-1.8-11.6-2.5-17.6-2.1
						c-7.5,0.5-15.2-1.4-22-5.8c-16.4-10.8-21-32.9-10.2-49.4C42.8,286.6,65.2,281.9,81.6,292.8z"/>
					<path class="st3" d="M82.2,361.2l-0.5-0.2c-5.6-1.8-11.4-2.5-17.4-2.1c-8,0.5-15.7-1.5-22.4-6c-16.7-11-21.4-33.6-10.4-50.3
						c5.3-8.1,13.5-13.7,23.1-15.7c9.6-2,19.4-0.1,27.5,5.2c6.6,4.4,11.6,10.7,14.2,18.1c2,5.7,5,10.9,8.8,15.3l0.3,0.4L82.2,361.2z
						 M67.5,357.5c4.8,0,9.6,0.7,14.1,2.1l22.1-33.5c-3.7-4.4-6.7-9.6-8.7-15.3c-2.6-7.2-7.3-13.2-13.7-17.4l0,0
						c-7.8-5.1-17.2-6.9-26.4-5c-9.2,1.9-17.1,7.3-22.2,15.1c-10.5,16.1-6,37.8,10,48.4c6.4,4.2,13.9,6.2,21.5,5.7
						C65.3,357.5,66.4,357.5,67.5,357.5z"/>
				</g>
				<g class="st4">
					<path class="st3" d="M99.3,318.6c1.5,2.6,3.2,5.1,5.2,7.4l-22.7,34.3c-5.6-1.8-11.6-2.5-17.6-2.1c-7.5,0.5-15.2-1.4-22-5.8
						c-11.4-7.6-17.1-20.6-15.9-33.3c2.3,7.9,7.3,15,14.6,19.9c6.7,4.5,14.5,6.3,22,5.8c0.1,0,0.1,0,0.2,0
						c12.2-0.8,23.5-7,30.2-17.2L99.3,318.6z"/>
				</g>
				<g class="st12">
					<path class="st6" d="M82,293.7c6.7,4.4,11.4,10.7,14,17.8c2,5.7,5,11,8.9,15.5l-1.8,2.1c-2.5-3.6-5.2-6-6.7-10.2
						c-2.5-7-7.2-13.3-14-17.8c-4.7-3.1-9.9-4.9-15.2-5.6c0.1,9.3-16,11.8-18.5,2.6c-6.3,2.7-11.9,7.2-15.9,13.3
						c-3.5,5.4-5.4,11.4-5.8,17.5c-1.3-8.4,0.4-17.3,5.4-24.9C43.1,287.4,65.5,282.8,82,293.7z"/>
				</g>
				<g>
					<path class="st3" d="M118.2,381.2c-0.7,0-1.3-0.1-2-0.2l-5.6-1.3c-3.1-0.7-6-2-8.7-3.8L91,368.6c-7.7-5.1-16.9-7.5-26.5-6.8
						c-8.6,0.6-16.9-1.7-24.1-6.4c-18-11.9-23-36.2-11.3-54.2c5.7-8.8,14.6-14.8,24.9-16.9c10.3-2.2,20.9-0.2,29.6,5.6
						c7.2,4.7,12.5,11.5,15.3,19.5c3.3,9.2,9.1,16.8,16.8,21.9l10.9,7.2c2.7,1.8,5,4,6.9,6.5l3.4,4.6c2.2,2.9,2.3,6.9,0.3,9.9
						l-11.7,17.8C123.9,379.7,121.1,381.2,118.2,381.2z M67.5,354.6c9.9,0,19.3,2.8,27.4,8.1l10.9,7.2c2,1.3,4.2,2.3,6.5,2.8
						l5.6,1.3c0.6,0.2,1.3-0.1,1.7-0.7l11.7-17.8c0.4-0.6,0.3-1.3-0.1-1.9l-3.4-4.6c-1.4-1.9-3.1-3.5-5.1-4.9l-10.9-7.2
						c-8.9-5.9-15.7-14.7-19.5-25.4c-2.4-6.6-6.7-12.1-12.6-16c0,0,0,0,0,0c-7.2-4.7-15.8-6.4-24.3-4.6c-8.5,1.8-15.8,6.7-20.4,13.9
						c-9.7,14.8-5.5,34.8,9.2,44.5c5.9,3.9,12.8,5.7,19.8,5.3C65.2,354.7,66.3,354.6,67.5,354.6z"/>
				</g>
				<g>
					<path class="st3" d="M81.9,363.2c-0.5,0-1.1-0.2-1.6-0.5c-1.3-0.9-1.7-2.6-0.8-3.9l22.7-34.3c0.9-1.3,2.6-1.7,3.9-0.8
						c1.3,0.9,1.7,2.6,0.8,3.9l-22.7,34.3C83.7,362.8,82.8,363.2,81.9,363.2z"/>
				</g>
				<g>
					<path class="st3" d="M95.5,377.7c-0.4,0-0.8-0.1-1.2-0.2c-1.8-0.7-2.8-2.7-2.1-4.5l17.7-47.3c0.7-1.8,2.7-2.7,4.5-2.1
						c1.8,0.7,2.8,2.7,2.1,4.5l-17.7,47.3C98.3,376.9,97,377.7,95.5,377.7z"/>
				</g>
				<g>
					<path class="st3" d="M108.8,385.6c-0.4,0-0.8-0.1-1.2-0.2c-1.8-0.7-2.8-2.7-2.1-4.5l17.2-45.9c0.7-1.8,2.7-2.7,4.5-2.1
						c1.8,0.7,2.8,2.7,2.1,4.5l-17.2,45.9C111.6,384.8,110.3,385.6,108.8,385.6z"/>
				</g>
				<g class="st4">
					<path class="st3" d="M128.7,366l-6.1,9.3c-1.2,1.8-3.4,2.7-5.5,2.2l-5.6-1.3c-2.7-0.6-5.3-1.8-7.6-3.3l-10.9-7.2
						c-3.1-2-6.4-3.6-9.8-4.8l2.7-4.1l-1.7,0.1l11.7-17.7c-3.2,6.7-3.4,12.5,2.2,16.6l0,0c0.3,0.2,0.6,0.4,0.9,0.6l10.9,7.2
						c2.3,1.5,4.9,2.6,7.6,3.3l5.6,1.3C125.3,368.7,127.5,367.8,128.7,366z"/>
				</g>
			</g>
			<g>
				<g>
					<polygon class="st8" points="571.6,291.6 540.6,292.2 521.2,292.5 559,242.1 					"/>
				</g>
				<g class="st5">
					<polygon class="st6" points="571.6,291.6 563.9,291.7 553.2,249.8 559,242.1 					"/>
				</g>
				<g>
					<path class="st3" d="M521.2,295.7c-1.2,0-2.3-0.7-2.9-1.8c-0.6-1.1-0.4-2.4,0.3-3.4l37.8-50.5c0.7-1,2-1.5,3.2-1.2
						c1.2,0.2,2.2,1.2,2.5,2.4l12.5,49.5c0.2,1,0,2-0.6,2.8c-0.6,0.8-1.5,1.2-2.5,1.3L521.2,295.7
						C521.2,295.7,521.2,295.7,521.2,295.7z M557.6,249.4l-29.8,39.8l39.7-0.7L557.6,249.4z"/>
				</g>
				<g>
					<polygon class="st8" points="559,242.1 502.3,292.6 465.4,295.9 					"/>
				</g>
				<g class="st5">
					<polygon class="st6" points="560,241.8 503.2,292.3 466.4,295.7 466.5,295.6 490.9,293.4 528.6,259.9 					"/>
				</g>
				<g>
					<path class="st3" d="M465.4,299.1c-1.4,0-2.6-0.9-3.1-2.3c-0.5-1.4,0.2-3,1.5-3.8l93.6-53.9c1.4-0.8,3.3-0.4,4.2,0.9
						c1,1.3,0.8,3.2-0.5,4.3L504.4,295c-0.5,0.5-1.2,0.7-1.9,0.8l-36.8,3.4C465.6,299.1,465.5,299.1,465.4,299.1z M533.4,260.5
						l-53.6,30.9l21.1-1.9L533.4,260.5z"/>
				</g>
				<g>
					<polygon class="st8" points="521.2,292.5 528.2,331.7 502.3,292.6 559,242.1 					"/>
					<path class="st3" d="M528.2,332.3c-0.2,0-0.4-0.1-0.5-0.3l-25.9-39.2c-0.2-0.3-0.1-0.6,0.1-0.8l56.8-50.5
						c0.2-0.2,0.6-0.2,0.9,0c0.2,0.2,0.3,0.6,0.1,0.9l-37.7,50.2l6.9,38.9c0.1,0.3-0.1,0.6-0.4,0.7
						C528.3,332.3,528.2,332.3,528.2,332.3z M503.1,292.7l23.9,36.1l-6.4-36.1c0-0.2,0-0.4,0.1-0.5l34-45.3L503.1,292.7z"/>
				</g>
				<g class="st2">
					<polygon class="st3" points="521.2,292.5 528.2,331.7 502.3,292.6 559,242.1 					"/>
				</g>
				<g>
					<path class="st3" d="M528.2,334.9c-1.1,0-2.1-0.5-2.7-1.4l-25.9-39.2c-0.9-1.3-0.7-3.1,0.5-4.2l56.8-50.5
						c1.2-1.1,3.1-1.1,4.3,0c1.2,1.1,1.4,3,0.4,4.3l-37,49.3l6.7,37.8c0.3,1.5-0.6,3-2,3.6C529,334.9,528.6,334.9,528.2,334.9z
						 M506.5,293.1l15.8,23.8l-4.2-23.9c-0.2-0.9,0.1-1.8,0.6-2.5l18.6-24.8L506.5,293.1z"/>
				</g>
				<g>
					<polygon class="st8" points="540.6,292.2 528.2,331.7 521.2,292.5 					"/>
					<path class="st3" d="M528.2,332.3C528.1,332.3,528.1,332.3,528.2,332.3c-0.3,0-0.6-0.2-0.6-0.5l-7-39.2c0-0.2,0-0.4,0.1-0.5
						c0.1-0.1,0.3-0.2,0.5-0.2l19.4-0.4c0.2,0,0.4,0.1,0.5,0.3c0.1,0.2,0.2,0.4,0.1,0.6l-12.4,39.5
						C528.7,332.2,528.4,332.3,528.2,332.3z M522,293.2l6.4,35.8l11.3-36.2L522,293.2z"/>
				</g>
				<g class="st2">
					<polygon class="st3" points="540.6,292.2 528.2,331.7 521.2,292.5 					"/>
				</g>
				<g>
					<path class="st3" d="M528.2,334.9c-0.1,0-0.1,0-0.2,0c-1.5-0.1-2.7-1.2-3-2.7l-7-39.2c-0.2-0.9,0.1-1.9,0.7-2.6
						s1.5-1.2,2.4-1.2l19.4-0.4c1.1,0,2,0.5,2.6,1.3s0.8,1.9,0.5,2.9l-12.4,39.5C530.8,334,529.6,334.9,528.2,334.9z M525,295.7
						l4,22.5l7.1-22.7L525,295.7z"/>
				</g>
			</g>
			<g>
				<path class="st3" d="M203.7,454.2c-1.3,0-2.6-0.8-3.1-2.2c-0.5-1.3-0.9-2.6-1.4-4c-0.6-1.7,0.3-3.5,1.9-4.1
					c1.7-0.6,3.5,0.3,4.1,1.9c0.5,1.4,1,2.7,1.4,4.1c0.6,1.7-0.3,3.5-2,4.1C204.4,454.1,204,454.2,203.7,454.2z M196.3,435.8
					c-1.2,0-2.4-0.7-2.9-1.9c-2.2-4.7-4.6-9.2-7.1-13.4c-0.9-1.5-0.4-3.5,1.1-4.4c1.5-0.9,3.5-0.4,4.4,1.1c2.6,4.4,5.1,9.1,7.4,14
					c0.8,1.6,0.1,3.5-1.6,4.3C197.3,435.7,196.8,435.8,196.3,435.8z M180.2,409.4c-1,0-1.9-0.4-2.5-1.2c-3.2-4-6.6-7.7-10.1-11.1
					c-1.3-1.2-1.4-3.3-0.1-4.6c1.2-1.3,3.3-1.4,4.6-0.1c3.8,3.6,7.4,7.5,10.8,11.7c1.1,1.4,0.9,3.4-0.5,4.5
					C181.6,409.2,180.9,409.4,180.2,409.4z M157.8,388.3c-0.6,0-1.3-0.2-1.8-0.6c-4.1-2.8-8.4-5.4-12.9-7.6
					c-1.6-0.8-2.3-2.7-1.5-4.3c0.8-1.6,2.7-2.3,4.3-1.5c4.8,2.4,9.4,5.1,13.8,8.1c1.5,1,1.8,3,0.8,4.5
					C159.8,387.8,158.8,388.3,157.8,388.3z"/>
			</g>
			<g>
				<g>
					<path class="st3" d="M488.5,339.5c-0.9,0-1.8-0.4-2.4-1.1c-1.2-1.4-1-3.4,0.3-4.6c1.9-1.6,3.8-3.2,5.8-4.6
						c1.4-1,3.5-0.7,4.5,0.7c1,1.5,0.7,3.5-0.8,4.5c-1.8,1.3-3.6,2.7-5.3,4.2C490,339.2,489.2,339.5,488.5,339.5z"/>
				</g>
				<g>
					<path class="st3" d="M455.7,393.6c-0.3,0-0.5,0-0.8-0.1c-1.7-0.5-2.8-2.2-2.3-3.9c1.4-5.3,3.2-10.6,5.3-15.6
						c0.7-1.6,2.6-2.4,4.2-1.7c1.6,0.7,2.4,2.6,1.7,4.2c-2,4.8-3.7,9.8-5,14.8C458.4,392.6,457.1,393.6,455.7,393.6z M468.1,364.1
						c-0.6,0-1.1-0.1-1.7-0.5c-1.5-0.9-2-2.9-1.1-4.4c2.9-4.8,6.1-9.3,9.5-13.5c1.1-1.4,3.2-1.6,4.5-0.4c1.4,1.1,1.6,3.2,0.4,4.5
						c-3.2,3.9-6.3,8.2-9,12.7C470.2,363.5,469.2,364.1,468.1,364.1z"/>
				</g>
				<g>
					<path class="st3" d="M452.2,416.4c-0.1,0-0.1,0-0.2,0c-1.8-0.1-3.2-1.6-3.1-3.4c0.1-2.4,0.3-4.9,0.6-7.3
						c0.2-1.8,1.8-3.1,3.6-2.8c1.8,0.2,3,1.8,2.8,3.6c-0.3,2.3-0.4,4.6-0.5,6.9C455.3,415.1,453.9,416.4,452.2,416.4z"/>
				</g>
			</g>
			<g>
				<path class="st3" d="M113.2,496.3c-1,0-1.9-0.4-2.6-1.3c-2.9-3.8-5.9-7.5-8.8-10.8c-1.2-1.3-1.1-3.4,0.3-4.6
					c1.3-1.2,3.4-1.1,4.6,0.3c3.1,3.4,6.1,7.2,9.2,11.2c1.1,1.4,0.8,3.4-0.6,4.5C114.6,496.1,113.9,496.3,113.2,496.3z M94.3,475.1
					c-0.8,0-1.6-0.3-2.2-0.9c-3.5-3.2-7-6.2-10.6-8.8c-1.4-1.1-1.7-3.1-0.7-4.5c1.1-1.4,3.1-1.7,4.5-0.7c3.8,2.8,7.6,5.9,11.2,9.3
					c1.3,1.2,1.4,3.3,0.2,4.6C96.1,474.8,95.2,475.1,94.3,475.1z M71.5,458.4c-0.5,0-1.1-0.1-1.6-0.4c-4-2.2-8.2-4.2-12.5-5.8
					c-1.7-0.6-2.5-2.5-1.9-4.2c0.6-1.7,2.5-2.5,4.2-1.9c4.5,1.7,9,3.8,13.3,6.2c1.6,0.9,2.1,2.8,1.3,4.4
					C73.7,457.8,72.6,458.4,71.5,458.4z M45.1,448.2c-0.2,0-0.5,0-0.7-0.1c-4.4-1-8.9-1.8-13.6-2.3c-1.8-0.2-3-1.8-2.9-3.6
					c0.2-1.8,1.8-3.1,3.6-2.9c4.9,0.5,9.7,1.4,14.4,2.5c1.7,0.4,2.8,2.2,2.4,3.9C47.9,447.2,46.5,448.2,45.1,448.2z M16.9,445.1
					h-0.4c-1.8,0-3.2-1.4-3.2-3.2s1.4-3.2,3.2-3.2h0.4c1.8,0,3.2,1.4,3.2,3.2S18.7,445.1,16.9,445.1z"/>
			</g>
			<g>
				<path class="st3" d="M496,496.8c-0.8,0-1.5-0.3-2.2-0.8c-1.3-1.2-1.4-3.2-0.2-4.6c3.3-3.7,6.7-7.2,10.1-10.3
					c1.3-1.2,3.3-1.2,4.6,0.1c1.2,1.3,1.2,3.3-0.1,4.6c-3.2,3.1-6.5,6.4-9.7,10C497.8,496.5,496.9,496.8,496,496.8z M516.7,477.4
					c-1,0-1.9-0.4-2.6-1.2c-1.1-1.4-0.8-3.4,0.6-4.5c3.9-3,7.9-5.8,12-8.3c1.5-0.9,3.5-0.4,4.4,1.1c0.9,1.5,0.4,3.5-1.1,4.4
					c-3.8,2.3-7.6,5-11.4,7.9C518.1,477.2,517.4,477.4,516.7,477.4z M540.9,462.8c-1.2,0-2.4-0.7-3-1.9c-0.7-1.6,0-3.5,1.6-4.3
					c4.5-2,9.1-3.7,13.7-5c1.7-0.5,3.5,0.5,4,2.2c0.5,1.7-0.5,3.5-2.2,4c-4.4,1.3-8.7,2.8-12.9,4.7
					C541.8,462.7,541.4,462.8,540.9,462.8z M568.1,455c-1.6,0-3-1.2-3.2-2.8c-0.3-1.8,1-3.4,2.7-3.7c4.7-0.7,9.6-1.1,14.5-1.2
					c1.7-0.1,3.3,1.4,3.3,3.2c0,1.8-1.4,3.3-3.2,3.3c-4.7,0.1-9.3,0.5-13.7,1.1C568.4,455,568.3,455,568.1,455z M596.8,454.3
					c-0.1,0-0.2,0-0.3,0l-0.4,0c-1.8-0.2-3.1-1.7-2.9-3.5c0.2-1.8,1.7-3.1,3.5-2.9l0.3,0c1.8,0.1,3.1,1.7,3,3.5
					C599.9,453,598.4,454.3,596.8,454.3z"/>
			</g>
			<g>
				<path class="st3" d="M508.7,396.1c0,1-2.2,1.9-5.4,2.4c-1,0.1-1.8,0.9-1.9,1.9c-0.4,3.2-1.3,5.4-2.3,5.4c-1,0-1.9-2.2-2.4-5.4
					c-0.1-1-0.9-1.8-1.9-1.9c-3.2-0.4-5.4-1.3-5.4-2.4c0-1,2.2-1.9,5.4-2.4c1-0.1,1.8-0.9,1.9-1.9c0.4-3.2,1.3-5.4,2.4-5.4
					c1,0,1.9,2.2,2.3,5.4c0.1,1,0.9,1.8,1.9,1.9C506.5,394.1,508.7,395,508.7,396.1z"/>
			</g>
			<g>
				<path class="st3" d="M206.6,358.2c-0.7,0.7-2.9-0.2-5.5-2.2c-0.8-0.6-1.9-0.6-2.7,0c-2.6,2-4.8,2.9-5.5,2.2
					c-0.7-0.7,0.2-2.9,2.2-5.5c0.6-0.8,0.6-1.9,0-2.7c-2-2.6-2.9-4.8-2.2-5.5c0.7-0.7,2.9,0.2,5.5,2.2c0.8,0.6,1.9,0.6,2.7,0
					c2.6-2,4.8-2.9,5.5-2.2c0.7,0.7-0.2,2.9-2.2,5.5c-0.6,0.8-0.6,1.9,0,2.7C206.4,355.3,207.4,357.5,206.6,358.2z"/>
			</g>
			<g>
				<path class="st3" d="M198.7,294.6c0,0.7-1.5,1.3-3.8,1.6c-0.7,0.1-1.2,0.6-1.3,1.3c-0.3,2.2-0.9,3.7-1.6,3.7
					c-0.7,0-1.3-1.5-1.6-3.7c-0.1-0.7-0.6-1.2-1.3-1.3c-2.2-0.3-3.7-0.9-3.7-1.6s1.5-1.3,3.7-1.6c0.7-0.1,1.2-0.6,1.3-1.3
					c0.3-2.2,0.9-3.7,1.6-3.7c0.7,0,1.3,1.5,1.6,3.7c0.1,0.7,0.6,1.2,1.3,1.3C197.2,293.3,198.7,293.9,198.7,294.6z"/>
			</g>
			<g>
				<path class="st3" d="M243,557c0,0.8-1.6,1.4-4,1.7c-0.7,0.1-1.3,0.7-1.4,1.4c-0.3,2.4-1,4-1.7,4c-0.8,0-1.4-1.6-1.7-4
					c-0.1-0.7-0.7-1.3-1.4-1.4c-2.4-0.3-4-1-4-1.7c0-0.8,1.6-1.4,4-1.7c0.7-0.1,1.3-0.7,1.4-1.4c0.3-2.4,1-4,1.7-4
					c0.8,0,1.4,1.6,1.7,4c0.1,0.7,0.7,1.3,1.4,1.4C241.3,555.5,243,556.2,243,557z"/>
			</g>
			<g>
				<path class="st3" d="M537.4,424.5c0,0.8-1.6,1.4-4,1.7c-0.7,0.1-1.3,0.7-1.4,1.4c-0.3,2.4-1,4-1.7,4c-0.8,0-1.4-1.6-1.7-4
					c-0.1-0.7-0.7-1.3-1.4-1.4c-2.4-0.3-4-1-4-1.7s1.6-1.4,4-1.7c0.7-0.1,1.3-0.7,1.4-1.4c0.3-2.4,1-4,1.7-4c0.8,0,1.4,1.6,1.7,4
					c0.1,0.7,0.7,1.3,1.4,1.4C535.8,423.1,537.4,423.8,537.4,424.5z"/>
			</g>
			<g>
				
					<ellipse transform="matrix(0.2298 -0.9732 0.9732 0.2298 -321.6048 778.9062)" class="st3" cx="331.3" cy="592.6" rx="5" ry="5"/>
			</g>
			<g>
				<circle class="st3" cx="158.8" cy="448.4" r="7.9"/>
			</g>
			<g>
				
					<ellipse transform="matrix(0.9239 -0.3827 0.3827 0.9239 -184.024 175.5344)" class="st3" cx="349.2" cy="550.3" rx="7.9" ry="7.9"/>
			</g>
			<g>
				<g>
					<g>
						<defs>
							<path id="SVGID_1_" d="M302.8,601.2c-1.1-60.8,41.4-62.6,40.7-101.2c-0.7-38.6-42.1-45.8-42.1-45.8s-41.1,8.7-40.4,47.3
								C261.8,540.1,301.7,540.4,302.8,601.2z"/>
						</defs>
						<clipPath id="SVGID_00000078046622526234610010000004867716472523793295_">
							<use xlink:href="#SVGID_1_"  style="overflow:visible;"/>
						</clipPath>
						<polygon style="clip-path:url(#SVGID_00000078046622526234610010000004867716472523793295_);fill:#EC1C24;" points="
							302.8,601.2 344.2,597.1 344.2,601.2 						"/>
						<polygon style="clip-path:url(#SVGID_00000078046622526234610010000004867716472523793295_);fill:#EC1C24;" points="
							294.2,601.2 344.2,596.3 344.2,597.1 302.8,601.2 						"/>
						<polygon style="clip-path:url(#SVGID_00000078046622526234610010000004867716472523793295_);fill:#EC1C24;" points="
							285.5,601.2 344.2,595.4 344.2,596.3 294.2,601.2 						"/>
						<polygon style="clip-path:url(#SVGID_00000078046622526234610010000004867716472523793295_);fill:#EC1C24;" points="
							276.8,601.2 344.2,594.6 344.2,595.4 285.5,601.2 						"/>
						<polygon style="clip-path:url(#SVGID_00000078046622526234610010000004867716472523793295_);fill:#EC1C24;" points="
							268.2,601.2 344.2,593.8 344.2,594.6 276.8,601.2 						"/>
						<polygon style="clip-path:url(#SVGID_00000078046622526234610010000004867716472523793295_);fill:#EC1C24;" points="
							265.1,601.2 265.1,600.6 344.2,592.9 344.2,593.8 268.2,601.2 						"/>
						<polygon style="clip-path:url(#SVGID_00000078046622526234610010000004867716472523793295_);fill:#EC1C24;" points="
							265.1,600.6 265,599.8 344.2,592.1 344.2,592.9 						"/>
						<polygon style="clip-path:url(#SVGID_00000078046622526234610010000004867716472523793295_);fill:#EC1D24;" points="
							265,599.8 264.9,599 344.2,591.2 344.2,592.1 						"/>
						<polygon style="clip-path:url(#SVGID_00000078046622526234610010000004867716472523793295_);fill:#EC1D24;" points="
							264.9,599 264.8,598.1 344.2,590.4 344.2,591.2 						"/>
						<polygon style="clip-path:url(#SVGID_00000078046622526234610010000004867716472523793295_);fill:#EC1D24;" points="
							264.8,598.1 264.7,597.3 344.2,589.5 344.2,590.4 						"/>
						<polygon style="clip-path:url(#SVGID_00000078046622526234610010000004867716472523793295_);fill:#EC1D24;" points="
							264.7,597.3 264.7,596.5 344.2,588.7 344.2,589.5 						"/>
						<polygon style="clip-path:url(#SVGID_00000078046622526234610010000004867716472523793295_);fill:#EC1D24;" points="
							264.7,596.5 264.6,595.6 344.2,587.8 344.2,588.7 						"/>
						<polygon style="clip-path:url(#SVGID_00000078046622526234610010000004867716472523793295_);fill:#EC1E24;" points="
							264.6,595.6 264.5,594.8 344.2,587 344.2,587.8 						"/>
						<polygon style="clip-path:url(#SVGID_00000078046622526234610010000004867716472523793295_);fill:#EC1E24;" points="
							264.5,594.8 264.4,593.9 344.2,586.1 344.2,587 						"/>
						<polygon style="clip-path:url(#SVGID_00000078046622526234610010000004867716472523793295_);fill:#EC1E24;" points="
							264.4,593.9 264.3,593.1 344.2,585.3 344.2,586.1 						"/>
						<polygon style="clip-path:url(#SVGID_00000078046622526234610010000004867716472523793295_);fill:#EC1F24;" points="
							264.3,593.1 264.2,592.3 344.2,584.5 344.2,585.3 						"/>
						<polygon style="clip-path:url(#SVGID_00000078046622526234610010000004867716472523793295_);fill:#EC1F24;" points="
							264.2,592.3 264.2,591.4 344.2,583.6 344.2,584.5 						"/>
						<polygon style="clip-path:url(#SVGID_00000078046622526234610010000004867716472523793295_);fill:#EC1F24;" points="
							264.2,591.4 264.1,590.6 344.2,582.8 344.2,583.6 						"/>
						<polygon style="clip-path:url(#SVGID_00000078046622526234610010000004867716472523793295_);fill:#EC2024;" points="
							264.1,590.6 264,589.8 344.2,581.9 344.2,582.8 						"/>
						<polygon style="clip-path:url(#SVGID_00000078046622526234610010000004867716472523793295_);fill:#EC2024;" points="
							264,589.8 263.9,588.9 344.2,581.1 344.2,581.9 						"/>
						<polygon style="clip-path:url(#SVGID_00000078046622526234610010000004867716472523793295_);fill:#EC2024;" points="
							263.9,588.9 263.8,588.1 344.2,580.2 344.2,581.1 						"/>
						<polygon style="clip-path:url(#SVGID_00000078046622526234610010000004867716472523793295_);fill:#ED2124;" points="
							263.8,588.1 263.8,587.2 344.2,579.4 344.2,580.2 						"/>
						<polygon style="clip-path:url(#SVGID_00000078046622526234610010000004867716472523793295_);fill:#ED2124;" points="
							263.8,587.2 263.7,586.4 344.2,578.5 344.2,579.4 						"/>
						<polygon style="clip-path:url(#SVGID_00000078046622526234610010000004867716472523793295_);fill:#ED2124;" points="
							263.7,586.4 263.6,585.6 344.2,577.7 344.2,578.5 						"/>
						<polygon style="clip-path:url(#SVGID_00000078046622526234610010000004867716472523793295_);fill:#ED2224;" points="
							263.6,585.6 263.5,584.7 344.2,576.8 344.2,577.7 						"/>
						<polygon style="clip-path:url(#SVGID_00000078046622526234610010000004867716472523793295_);fill:#ED2224;" points="
							263.5,584.7 263.4,583.9 344.2,576 344.2,576.8 						"/>
						<polygon style="clip-path:url(#SVGID_00000078046622526234610010000004867716472523793295_);fill:#ED2324;" points="
							263.4,583.9 263.3,583.1 344.2,575.2 344.2,576 						"/>
						<polygon style="clip-path:url(#SVGID_00000078046622526234610010000004867716472523793295_);fill:#ED2324;" points="
							263.3,583.1 263.3,582.2 344.2,574.3 344.2,575.2 						"/>
						<polygon style="clip-path:url(#SVGID_00000078046622526234610010000004867716472523793295_);fill:#ED2424;" points="
							263.3,582.2 263.2,581.4 344.2,573.5 344.2,574.3 						"/>
						<polygon style="clip-path:url(#SVGID_00000078046622526234610010000004867716472523793295_);fill:#ED2424;" points="
							263.2,581.4 263.1,580.5 344.2,572.6 344.2,573.5 						"/>
						<polygon style="clip-path:url(#SVGID_00000078046622526234610010000004867716472523793295_);fill:#ED2524;" points="
							263.1,580.5 263,579.7 344.2,571.8 344.2,572.6 						"/>
						<polygon style="clip-path:url(#SVGID_00000078046622526234610010000004867716472523793295_);fill:#ED2524;" points="
							263,579.7 262.9,578.9 344.2,570.9 344.2,571.8 						"/>
						<polygon style="clip-path:url(#SVGID_00000078046622526234610010000004867716472523793295_);fill:#ED2624;" points="
							262.9,578.9 262.9,578 344.2,570.1 344.2,570.9 						"/>
						<polygon style="clip-path:url(#SVGID_00000078046622526234610010000004867716472523793295_);fill:#ED2624;" points="
							262.9,578 262.8,577.2 344.2,569.2 344.2,570.1 						"/>
						<polygon style="clip-path:url(#SVGID_00000078046622526234610010000004867716472523793295_);fill:#ED2724;" points="
							262.8,577.2 262.7,576.4 344.2,568.4 344.2,569.2 						"/>
						<polygon style="clip-path:url(#SVGID_00000078046622526234610010000004867716472523793295_);fill:#ED2724;" points="
							262.7,576.4 262.6,575.5 344.2,567.5 344.2,568.4 						"/>
						<polygon style="clip-path:url(#SVGID_00000078046622526234610010000004867716472523793295_);fill:#ED2824;" points="
							262.6,575.5 262.5,574.7 344.2,566.7 344.2,567.5 						"/>
						<polygon style="clip-path:url(#SVGID_00000078046622526234610010000004867716472523793295_);fill:#ED2824;" points="
							262.5,574.7 262.4,573.8 344.2,565.9 344.2,566.7 						"/>
						<polygon style="clip-path:url(#SVGID_00000078046622526234610010000004867716472523793295_);fill:#ED2924;" points="
							262.4,573.8 262.4,573 344.2,565 344.2,565.9 						"/>
						<polygon style="clip-path:url(#SVGID_00000078046622526234610010000004867716472523793295_);fill:#ED2A24;" points="
							262.4,573 262.3,572.2 344.2,564.2 344.2,565 						"/>
						<polygon style="clip-path:url(#SVGID_00000078046622526234610010000004867716472523793295_);fill:#EE2A24;" points="
							262.3,572.2 262.2,571.3 344.2,563.3 344.2,564.2 						"/>
						<polygon style="clip-path:url(#SVGID_00000078046622526234610010000004867716472523793295_);fill:#EE2B24;" points="
							262.2,571.3 262.1,570.5 344.2,562.5 344.2,563.3 						"/>
						<polygon style="clip-path:url(#SVGID_00000078046622526234610010000004867716472523793295_);fill:#EE2B24;" points="
							262.1,570.5 262,569.7 344.2,561.6 344.2,562.5 						"/>
						<polygon style="clip-path:url(#SVGID_00000078046622526234610010000004867716472523793295_);fill:#EE2C24;" points="
							262,569.7 262,568.8 344.2,560.8 344.2,561.6 						"/>
						<polygon style="clip-path:url(#SVGID_00000078046622526234610010000004867716472523793295_);fill:#EE2D24;" points="
							262,568.8 261.9,568 344.2,559.9 344.2,560.8 						"/>
						<polygon style="clip-path:url(#SVGID_00000078046622526234610010000004867716472523793295_);fill:#EE2D24;" points="
							261.9,568 261.8,567.1 344.2,559.1 344.2,559.9 						"/>
						<polygon style="clip-path:url(#SVGID_00000078046622526234610010000004867716472523793295_);fill:#EE2E24;" points="
							261.8,567.1 261.7,566.3 344.2,558.2 344.2,559.1 						"/>
						<polygon style="clip-path:url(#SVGID_00000078046622526234610010000004867716472523793295_);fill:#EE2F24;" points="
							261.7,566.3 261.6,565.5 344.2,557.4 344.2,558.2 						"/>
						<polygon style="clip-path:url(#SVGID_00000078046622526234610010000004867716472523793295_);fill:#EE2F24;" points="
							261.6,565.5 261.5,564.6 344.2,556.6 344.2,557.4 						"/>
						<polygon style="clip-path:url(#SVGID_00000078046622526234610010000004867716472523793295_);fill:#EE3024;" points="
							261.5,564.6 261.5,563.8 344.2,555.7 344.2,556.6 						"/>
						<polygon style="clip-path:url(#SVGID_00000078046622526234610010000004867716472523793295_);fill:#EE3124;" points="
							261.5,563.8 261.4,563 344.2,554.9 344.2,555.7 						"/>
						<polygon style="clip-path:url(#SVGID_00000078046622526234610010000004867716472523793295_);fill:#EE3224;" points="
							261.4,563 261.3,562.1 344.2,554 344.2,554.9 						"/>
						<polygon style="clip-path:url(#SVGID_00000078046622526234610010000004867716472523793295_);fill:#EE3225;" points="
							261.3,562.1 261.2,561.3 344.2,553.2 344.2,554 						"/>
						<polygon style="clip-path:url(#SVGID_00000078046622526234610010000004867716472523793295_);fill:#EF3325;" points="
							261.2,561.3 261.1,560.4 344.2,552.3 344.2,553.2 						"/>
						<polygon style="clip-path:url(#SVGID_00000078046622526234610010000004867716472523793295_);fill:#EF3425;" points="
							261.1,560.4 261.1,559.6 344.2,551.5 344.2,552.3 						"/>
						<polygon style="clip-path:url(#SVGID_00000078046622526234610010000004867716472523793295_);fill:#EF3525;" points="
							261.1,559.6 261,558.8 344.2,550.6 344.2,551.5 						"/>
						<polygon style="clip-path:url(#SVGID_00000078046622526234610010000004867716472523793295_);fill:#EF3525;" points="
							261,558.8 260.9,557.9 344.2,549.8 344.2,550.6 						"/>
						<polygon style="clip-path:url(#SVGID_00000078046622526234610010000004867716472523793295_);fill:#EF3625;" points="
							260.9,557.9 260.8,557.1 344.2,548.9 344.2,549.8 						"/>
						<polygon style="clip-path:url(#SVGID_00000078046622526234610010000004867716472523793295_);fill:#EF3725;" points="
							260.8,557.1 260.7,556.3 344.2,548.1 344.2,548.9 						"/>
						<polygon style="clip-path:url(#SVGID_00000078046622526234610010000004867716472523793295_);fill:#EF3825;" points="
							260.7,556.3 260.6,555.4 344.2,547.3 344.2,548.1 						"/>
						<polygon style="clip-path:url(#SVGID_00000078046622526234610010000004867716472523793295_);fill:#EF3925;" points="
							260.6,555.4 260.6,554.6 344.2,546.4 344.2,547.3 						"/>
						<polygon style="clip-path:url(#SVGID_00000078046622526234610010000004867716472523793295_);fill:#EF3925;" points="
							260.6,554.6 260.5,553.7 344.2,545.6 344.2,546.4 						"/>
						<polygon style="clip-path:url(#SVGID_00000078046622526234610010000004867716472523793295_);fill:#EF3A25;" points="
							260.5,553.7 260.4,552.9 344.2,544.7 344.2,545.6 						"/>
						<polygon style="clip-path:url(#SVGID_00000078046622526234610010000004867716472523793295_);fill:#EF3B25;" points="
							260.4,552.9 260.4,552.6 260.4,552.1 344.2,543.9 344.2,544.7 						"/>
						<polygon style="clip-path:url(#SVGID_00000078046622526234610010000004867716472523793295_);fill:#EF3C25;" points="
							260.4,551.2 344.2,543 344.2,543.9 260.4,552.1 						"/>
						<polygon style="clip-path:url(#SVGID_00000078046622526234610010000004867716472523793295_);fill:#F03D25;" points="
							260.4,550.4 344.2,542.2 344.2,543 260.4,551.2 						"/>
						<polygon style="clip-path:url(#SVGID_00000078046622526234610010000004867716472523793295_);fill:#F03E25;" points="
							260.4,549.5 344.2,541.3 344.2,542.2 260.4,550.4 						"/>
						<polygon style="clip-path:url(#SVGID_00000078046622526234610010000004867716472523793295_);fill:#F03E25;" points="
							260.4,548.7 344.2,540.5 344.2,541.3 260.4,549.5 						"/>
						<polygon style="clip-path:url(#SVGID_00000078046622526234610010000004867716472523793295_);fill:#F03F25;" points="
							260.4,547.8 344.2,539.6 344.2,540.5 260.4,548.7 						"/>
						<polygon style="clip-path:url(#SVGID_00000078046622526234610010000004867716472523793295_);fill:#F04025;" points="
							260.4,547 344.2,538.8 344.2,539.6 260.4,547.8 						"/>
						<polygon style="clip-path:url(#SVGID_00000078046622526234610010000004867716472523793295_);fill:#F04125;" points="
							260.4,546.1 344.2,538 344.2,538.8 260.4,547 						"/>
						<polygon style="clip-path:url(#SVGID_00000078046622526234610010000004867716472523793295_);fill:#F04225;" points="
							260.4,545.3 344.2,537.1 344.2,538 260.4,546.1 						"/>
						<polygon style="clip-path:url(#SVGID_00000078046622526234610010000004867716472523793295_);fill:#F04325;" points="
							260.4,544.4 344.2,536.3 344.2,537.1 260.4,545.3 						"/>
						<polygon style="clip-path:url(#SVGID_00000078046622526234610010000004867716472523793295_);fill:#F04425;" points="
							260.4,543.6 344.2,535.4 344.2,536.3 260.4,544.4 						"/>
						<polygon style="clip-path:url(#SVGID_00000078046622526234610010000004867716472523793295_);fill:#F04525;" points="
							260.4,542.8 344.2,534.6 344.2,535.4 260.4,543.6 						"/>
						<polygon style="clip-path:url(#SVGID_00000078046622526234610010000004867716472523793295_);fill:#F14625;" points="
							260.4,541.9 344.2,533.7 344.2,534.6 260.4,542.8 						"/>
						<polygon style="clip-path:url(#SVGID_00000078046622526234610010000004867716472523793295_);fill:#F14725;" points="
							260.4,541.1 344.2,532.9 344.2,533.7 260.4,541.9 						"/>
						<polygon style="clip-path:url(#SVGID_00000078046622526234610010000004867716472523793295_);fill:#F14825;" points="
							260.4,540.2 344.2,532 344.2,532.9 260.4,541.1 						"/>
						<polygon style="clip-path:url(#SVGID_00000078046622526234610010000004867716472523793295_);fill:#F14925;" points="
							260.4,539.4 344.2,531.2 344.2,532 260.4,540.2 						"/>
						<polygon style="clip-path:url(#SVGID_00000078046622526234610010000004867716472523793295_);fill:#F14A25;" points="
							260.4,538.5 344.2,530.3 344.2,531.2 260.4,539.4 						"/>
						<polygon style="clip-path:url(#SVGID_00000078046622526234610010000004867716472523793295_);fill:#F14B25;" points="
							260.4,537.7 344.2,529.5 344.2,530.3 260.4,538.5 						"/>
						<polygon style="clip-path:url(#SVGID_00000078046622526234610010000004867716472523793295_);fill:#F14C25;" points="
							260.4,536.8 344.2,528.7 344.2,529.5 260.4,537.7 						"/>
						<polygon style="clip-path:url(#SVGID_00000078046622526234610010000004867716472523793295_);fill:#F14D25;" points="
							260.4,536 344.2,527.8 344.2,528.7 260.4,536.8 						"/>
						<polygon style="clip-path:url(#SVGID_00000078046622526234610010000004867716472523793295_);fill:#F14E25;" points="
							260.4,535.1 344.2,527 344.2,527.8 260.4,536 						"/>
						<polygon style="clip-path:url(#SVGID_00000078046622526234610010000004867716472523793295_);fill:#F24F25;" points="
							260.4,534.3 344.2,526.1 344.2,527 260.4,535.1 						"/>
						<polygon style="clip-path:url(#SVGID_00000078046622526234610010000004867716472523793295_);fill:#F25025;" points="
							260.4,533.5 344.2,525.3 344.2,526.1 260.4,534.3 						"/>
						<polygon style="clip-path:url(#SVGID_00000078046622526234610010000004867716472523793295_);fill:#F25125;" points="
							260.4,532.6 344.2,524.4 344.2,525.3 260.4,533.5 						"/>
						<polygon style="clip-path:url(#SVGID_00000078046622526234610010000004867716472523793295_);fill:#F25225;" points="
							260.4,531.8 344.2,523.6 344.2,524.4 260.4,532.6 						"/>
						<polygon style="clip-path:url(#SVGID_00000078046622526234610010000004867716472523793295_);fill:#F25325;" points="
							260.4,530.9 344.2,522.7 344.2,523.6 260.4,531.8 						"/>
						<polygon style="clip-path:url(#SVGID_00000078046622526234610010000004867716472523793295_);fill:#F25425;" points="
							260.4,530.1 344.2,521.9 344.2,522.7 260.4,530.9 						"/>
						<polygon style="clip-path:url(#SVGID_00000078046622526234610010000004867716472523793295_);fill:#F25525;" points="
							260.4,529.2 344.2,521 344.2,521.9 260.4,530.1 						"/>
						<polygon style="clip-path:url(#SVGID_00000078046622526234610010000004867716472523793295_);fill:#F25625;" points="
							260.4,528.4 344.2,520.2 344.2,521 260.4,529.2 						"/>
						<polygon style="clip-path:url(#SVGID_00000078046622526234610010000004867716472523793295_);fill:#F25725;" points="
							260.4,527.5 344.2,519.3 344.2,520.2 260.4,528.4 						"/>
						<polygon style="clip-path:url(#SVGID_00000078046622526234610010000004867716472523793295_);fill:#F35825;" points="
							260.4,526.7 344.2,518.5 344.2,519.3 260.4,527.5 						"/>
						<polygon style="clip-path:url(#SVGID_00000078046622526234610010000004867716472523793295_);fill:#F35925;" points="
							260.4,525.8 344.2,517.7 344.2,518.5 260.4,526.7 						"/>
						<polygon style="clip-path:url(#SVGID_00000078046622526234610010000004867716472523793295_);fill:#F35A25;" points="
							260.4,525 344.2,516.8 344.2,517.7 260.4,525.8 						"/>
						<polygon style="clip-path:url(#SVGID_00000078046622526234610010000004867716472523793295_);fill:#F35C25;" points="
							260.4,524.2 344.2,516 344.2,516.8 260.4,525 						"/>
						<polygon style="clip-path:url(#SVGID_00000078046622526234610010000004867716472523793295_);fill:#F35D25;" points="
							260.4,523.3 344.2,515.1 344.2,516 260.4,524.2 						"/>
						<polygon style="clip-path:url(#SVGID_00000078046622526234610010000004867716472523793295_);fill:#F35E26;" points="
							260.4,522.5 344.2,514.3 344.2,515.1 260.4,523.3 						"/>
						<polygon style="clip-path:url(#SVGID_00000078046622526234610010000004867716472523793295_);fill:#F35F26;" points="
							260.4,521.6 344.2,513.4 344.2,514.3 260.4,522.5 						"/>
						<polygon style="clip-path:url(#SVGID_00000078046622526234610010000004867716472523793295_);fill:#F36026;" points="
							260.4,520.8 344.2,512.6 344.2,513.4 260.4,521.6 						"/>
						<polygon style="clip-path:url(#SVGID_00000078046622526234610010000004867716472523793295_);fill:#F46126;" points="
							260.4,519.9 344.2,511.7 344.2,512.6 260.4,520.8 						"/>
						<polygon style="clip-path:url(#SVGID_00000078046622526234610010000004867716472523793295_);fill:#F46226;" points="
							260.4,519.1 344.2,510.9 344.2,511.7 260.4,519.9 						"/>
						<polygon style="clip-path:url(#SVGID_00000078046622526234610010000004867716472523793295_);fill:#F46426;" points="
							260.4,518.2 344.2,510 344.2,510.9 260.4,519.1 						"/>
						<polygon style="clip-path:url(#SVGID_00000078046622526234610010000004867716472523793295_);fill:#F46526;" points="
							260.4,517.4 344.2,509.2 344.2,510 260.4,518.2 						"/>
						<polygon style="clip-path:url(#SVGID_00000078046622526234610010000004867716472523793295_);fill:#F46626;" points="
							260.4,516.5 344.2,508.4 344.2,509.2 260.4,517.4 						"/>
						<polygon style="clip-path:url(#SVGID_00000078046622526234610010000004867716472523793295_);fill:#F46726;" points="
							260.4,515.7 344.2,507.5 344.2,508.4 260.4,516.5 						"/>
						<polygon style="clip-path:url(#SVGID_00000078046622526234610010000004867716472523793295_);fill:#F46826;" points="
							260.4,514.9 344.2,506.7 344.2,507.5 260.4,515.7 						"/>
						<polygon style="clip-path:url(#SVGID_00000078046622526234610010000004867716472523793295_);fill:#F46A26;" points="
							260.4,514 344.2,505.8 344.2,506.7 260.4,514.9 						"/>
						<polygon style="clip-path:url(#SVGID_00000078046622526234610010000004867716472523793295_);fill:#F56B26;" points="
							260.4,513.2 344.2,505 344.2,505.8 260.4,514 						"/>
						<polygon style="clip-path:url(#SVGID_00000078046622526234610010000004867716472523793295_);fill:#F56C26;" points="
							260.4,512.3 344.2,504.1 344.2,505 260.4,513.2 						"/>
						<polygon style="clip-path:url(#SVGID_00000078046622526234610010000004867716472523793295_);fill:#F56D26;" points="
							260.4,511.5 344.2,503.3 344.2,504.1 260.4,512.3 						"/>
						<polygon style="clip-path:url(#SVGID_00000078046622526234610010000004867716472523793295_);fill:#F56F26;" points="
							260.4,510.6 344.2,502.4 344.2,503.3 260.4,511.5 						"/>
						<polygon style="clip-path:url(#SVGID_00000078046622526234610010000004867716472523793295_);fill:#F57026;" points="
							260.4,509.8 344.2,501.6 344.2,502.4 260.4,510.6 						"/>
						<polygon style="clip-path:url(#SVGID_00000078046622526234610010000004867716472523793295_);fill:#F57126;" points="
							260.4,508.9 344.2,500.7 344.2,501.6 260.4,509.8 						"/>
						<polygon style="clip-path:url(#SVGID_00000078046622526234610010000004867716472523793295_);fill:#F57226;" points="
							260.4,508.1 344.2,499.9 344.2,500.7 260.4,508.9 						"/>
						<polygon style="clip-path:url(#SVGID_00000078046622526234610010000004867716472523793295_);fill:#F67426;" points="
							260.4,507.2 344.2,499.1 344.2,499.9 260.4,508.1 						"/>
						<polygon style="clip-path:url(#SVGID_00000078046622526234610010000004867716472523793295_);fill:#F67526;" points="
							260.4,506.4 344.2,498.2 344.2,499.1 260.4,507.2 						"/>
						<polygon style="clip-path:url(#SVGID_00000078046622526234610010000004867716472523793295_);fill:#F67626;" points="
							260.4,505.6 344.2,497.4 344.2,498.2 260.4,506.4 						"/>
						<polygon style="clip-path:url(#SVGID_00000078046622526234610010000004867716472523793295_);fill:#F67726;" points="
							260.4,504.7 344.2,496.5 344.2,497.4 260.4,505.6 						"/>
						<polygon style="clip-path:url(#SVGID_00000078046622526234610010000004867716472523793295_);fill:#F67926;" points="
							260.4,503.9 344.2,495.7 344.2,496.5 260.4,504.7 						"/>
						<polygon style="clip-path:url(#SVGID_00000078046622526234610010000004867716472523793295_);fill:#F67A26;" points="
							260.4,503 344.2,494.8 344.2,495.7 260.4,503.9 						"/>
						<polygon style="clip-path:url(#SVGID_00000078046622526234610010000004867716472523793295_);fill:#F67B26;" points="
							260.4,502.2 344.2,494 344.2,494.8 260.4,503 						"/>
						<polygon style="clip-path:url(#SVGID_00000078046622526234610010000004867716472523793295_);fill:#F77D26;" points="
							260.4,501.3 344.2,493.1 344.2,494 260.4,502.2 						"/>
						<polygon style="clip-path:url(#SVGID_00000078046622526234610010000004867716472523793295_);fill:#F77E26;" points="
							260.4,500.5 344.2,492.3 344.2,493.1 260.4,501.3 						"/>
						<polygon style="clip-path:url(#SVGID_00000078046622526234610010000004867716472523793295_);fill:#F77F26;" points="
							260.4,499.6 344.2,491.4 344.2,492.3 260.4,500.5 						"/>
						<polygon style="clip-path:url(#SVGID_00000078046622526234610010000004867716472523793295_);fill:#F78126;" points="
							260.4,498.8 344.2,490.6 344.2,491.4 260.4,499.6 						"/>
						<polygon style="clip-path:url(#SVGID_00000078046622526234610010000004867716472523793295_);fill:#F78226;" points="
							260.4,497.9 344.2,489.8 344.2,490.6 260.4,498.8 						"/>
						<polygon style="clip-path:url(#SVGID_00000078046622526234610010000004867716472523793295_);fill:#F78426;" points="
							260.4,497.1 344.2,488.9 344.2,489.8 260.4,497.9 						"/>
						<polygon style="clip-path:url(#SVGID_00000078046622526234610010000004867716472523793295_);fill:#F78526;" points="
							260.4,496.3 344.2,488.1 344.2,488.9 260.4,497.1 						"/>
						<polygon style="clip-path:url(#SVGID_00000078046622526234610010000004867716472523793295_);fill:#F88626;" points="
							260.4,495.4 344.2,487.2 344.2,488.1 260.4,496.3 						"/>
						<polygon style="clip-path:url(#SVGID_00000078046622526234610010000004867716472523793295_);fill:#F88826;" points="
							260.4,494.6 344.2,486.4 344.2,487.2 260.4,495.4 						"/>
						<polygon style="clip-path:url(#SVGID_00000078046622526234610010000004867716472523793295_);fill:#F88927;" points="
							260.4,493.7 344.2,485.5 344.2,486.4 260.4,494.6 						"/>
						<polygon style="clip-path:url(#SVGID_00000078046622526234610010000004867716472523793295_);fill:#F88A27;" points="
							260.4,492.9 344.2,484.7 344.2,485.5 260.4,493.7 						"/>
						<polygon style="clip-path:url(#SVGID_00000078046622526234610010000004867716472523793295_);fill:#F88C27;" points="
							260.4,492 344.2,483.8 344.2,484.7 260.4,492.9 						"/>
						<polygon style="clip-path:url(#SVGID_00000078046622526234610010000004867716472523793295_);fill:#F88D27;" points="
							260.4,491.2 344.2,483 344.2,483.8 260.4,492 						"/>
						<polygon style="clip-path:url(#SVGID_00000078046622526234610010000004867716472523793295_);fill:#F98F27;" points="
							260.4,490.3 344.2,482.1 344.2,483 260.4,491.2 						"/>
						<polygon style="clip-path:url(#SVGID_00000078046622526234610010000004867716472523793295_);fill:#F99027;" points="
							260.4,489.5 344.2,481.3 344.2,482.1 260.4,490.3 						"/>
						<polygon style="clip-path:url(#SVGID_00000078046622526234610010000004867716472523793295_);fill:#F99227;" points="
							260.4,488.6 344.2,480.5 344.2,481.3 260.4,489.5 						"/>
						<polygon style="clip-path:url(#SVGID_00000078046622526234610010000004867716472523793295_);fill:#F99327;" points="
							260.4,487.8 344.2,479.6 344.2,480.5 260.4,488.6 						"/>
						<polygon style="clip-path:url(#SVGID_00000078046622526234610010000004867716472523793295_);fill:#F99427;" points="
							260.4,487 344.2,478.8 344.2,479.6 260.4,487.8 						"/>
						<polygon style="clip-path:url(#SVGID_00000078046622526234610010000004867716472523793295_);fill:#F99627;" points="
							260.4,486.1 344.2,477.9 344.2,478.8 260.4,487 						"/>
						<polygon style="clip-path:url(#SVGID_00000078046622526234610010000004867716472523793295_);fill:#F99727;" points="
							260.4,485.3 344.2,477.1 344.2,477.9 260.4,486.1 						"/>
						<polygon style="clip-path:url(#SVGID_00000078046622526234610010000004867716472523793295_);fill:#FA9927;" points="
							260.4,484.4 344.2,476.2 344.2,477.1 260.4,485.3 						"/>
						<polygon style="clip-path:url(#SVGID_00000078046622526234610010000004867716472523793295_);fill:#FA9A27;" points="
							260.4,483.6 344.2,475.4 344.2,476.2 260.4,484.4 						"/>
						<polygon style="clip-path:url(#SVGID_00000078046622526234610010000004867716472523793295_);fill:#FA9C27;" points="
							260.4,482.7 344.2,474.5 344.2,475.4 260.4,483.6 						"/>
						<polygon style="clip-path:url(#SVGID_00000078046622526234610010000004867716472523793295_);fill:#FA9D27;" points="
							260.4,481.9 344.2,473.7 344.2,474.5 260.4,482.7 						"/>
						<polygon style="clip-path:url(#SVGID_00000078046622526234610010000004867716472523793295_);fill:#FA9F27;" points="
							260.4,481 344.2,472.8 344.2,473.7 260.4,481.9 						"/>
						<polygon style="clip-path:url(#SVGID_00000078046622526234610010000004867716472523793295_);fill:#FAA027;" points="
							260.4,480.2 344.2,472 344.2,472.8 260.4,481 						"/>
						<polygon style="clip-path:url(#SVGID_00000078046622526234610010000004867716472523793295_);fill:#FBA227;" points="
							260.4,479.3 344.2,471.2 344.2,472 260.4,480.2 						"/>
						<polygon style="clip-path:url(#SVGID_00000078046622526234610010000004867716472523793295_);fill:#FBA327;" points="
							260.4,478.5 344.2,470.3 344.2,471.2 260.4,479.3 						"/>
						<polygon style="clip-path:url(#SVGID_00000078046622526234610010000004867716472523793295_);fill:#FBA527;" points="
							260.4,477.7 344.2,469.5 344.2,470.3 260.4,478.5 						"/>
						<polygon style="clip-path:url(#SVGID_00000078046622526234610010000004867716472523793295_);fill:#FBA627;" points="
							260.4,476.8 344.2,468.6 344.2,469.5 260.4,477.7 						"/>
						<polygon style="clip-path:url(#SVGID_00000078046622526234610010000004867716472523793295_);fill:#FBA827;" points="
							260.4,476 344.2,467.8 344.2,468.6 260.4,476.8 						"/>
						<polygon style="clip-path:url(#SVGID_00000078046622526234610010000004867716472523793295_);fill:#FBAA27;" points="
							260.4,475.1 344.2,466.9 344.2,467.8 260.4,476 						"/>
						<polygon style="clip-path:url(#SVGID_00000078046622526234610010000004867716472523793295_);fill:#FCAB27;" points="
							260.4,474.3 344.2,466.1 344.2,466.9 260.4,475.1 						"/>
						<polygon style="clip-path:url(#SVGID_00000078046622526234610010000004867716472523793295_);fill:#FCAD27;" points="
							260.4,473.4 344.2,465.2 344.2,466.1 260.4,474.3 						"/>
						<polygon style="clip-path:url(#SVGID_00000078046622526234610010000004867716472523793295_);fill:#FCAE27;" points="
							260.4,472.6 344.2,464.4 344.2,465.2 260.4,473.4 						"/>
						<polygon style="clip-path:url(#SVGID_00000078046622526234610010000004867716472523793295_);fill:#FCB027;" points="
							260.4,471.7 344.2,463.5 344.2,464.4 260.4,472.6 						"/>
						<polygon style="clip-path:url(#SVGID_00000078046622526234610010000004867716472523793295_);fill:#FCB127;" points="
							260.4,470.9 344.2,462.7 344.2,463.5 260.4,471.7 						"/>
						<polygon style="clip-path:url(#SVGID_00000078046622526234610010000004867716472523793295_);fill:#FCB327;" points="
							260.4,470 344.2,461.9 344.2,462.7 260.4,470.9 						"/>
						<polygon style="clip-path:url(#SVGID_00000078046622526234610010000004867716472523793295_);fill:#FDB528;" points="
							260.4,469.2 344.2,461 344.2,461.9 260.4,470 						"/>
						<polygon style="clip-path:url(#SVGID_00000078046622526234610010000004867716472523793295_);fill:#FDB628;" points="
							260.4,468.4 344.2,460.2 344.2,461 260.4,469.2 						"/>
						<polygon style="clip-path:url(#SVGID_00000078046622526234610010000004867716472523793295_);fill:#FDB828;" points="
							260.4,467.5 344.2,459.3 344.2,460.2 260.4,468.4 						"/>
						<polygon style="clip-path:url(#SVGID_00000078046622526234610010000004867716472523793295_);fill:#FDB928;" points="
							260.4,466.7 344.2,458.5 344.2,459.3 260.4,467.5 						"/>
						<polygon style="clip-path:url(#SVGID_00000078046622526234610010000004867716472523793295_);fill:#FDBB28;" points="
							260.4,465.8 344.2,457.6 344.2,458.5 260.4,466.7 						"/>
						<polygon style="clip-path:url(#SVGID_00000078046622526234610010000004867716472523793295_);fill:#FEBD28;" points="
							260.4,465 344.2,456.8 344.2,457.6 260.4,465.8 						"/>
						<polygon style="clip-path:url(#SVGID_00000078046622526234610010000004867716472523793295_);fill:#FEBE28;" points="
							260.4,464.1 344.2,455.9 344.2,456.8 260.4,465 						"/>
						<polygon style="clip-path:url(#SVGID_00000078046622526234610010000004867716472523793295_);fill:#FEC028;" points="
							260.4,463.3 344.2,455.1 344.2,455.9 260.4,464.1 						"/>
						<polygon style="clip-path:url(#SVGID_00000078046622526234610010000004867716472523793295_);fill:#FEC228;" points="
							260.4,462.4 344.2,454.2 344.2,455.1 260.4,463.3 						"/>
						<polygon style="clip-path:url(#SVGID_00000078046622526234610010000004867716472523793295_);fill:#FEC328;" points="
							260.4,461.6 336.1,454.2 344.2,454.2 344.2,454.2 260.4,462.4 						"/>
						<polygon style="clip-path:url(#SVGID_00000078046622526234610010000004867716472523793295_);fill:#FEC528;" points="
							260.4,460.7 327.4,454.2 336.1,454.2 260.4,461.6 						"/>
						<polygon style="clip-path:url(#SVGID_00000078046622526234610010000004867716472523793295_);fill:#FFC728;" points="
							260.4,459.9 318.8,454.2 327.4,454.2 260.4,460.7 						"/>
						<polygon style="clip-path:url(#SVGID_00000078046622526234610010000004867716472523793295_);fill:#FFC828;" points="
							260.4,459.1 310.1,454.2 318.8,454.2 260.4,459.9 						"/>
						<polygon style="clip-path:url(#SVGID_00000078046622526234610010000004867716472523793295_);fill:#FFCA28;" points="
							260.4,458.2 301.5,454.2 310.1,454.2 260.4,459.1 						"/>
						<polygon style="clip-path:url(#SVGID_00000078046622526234610010000004867716472523793295_);fill:#FFCA28;" points="
							301.5,454.2 260.4,458.2 260.4,454.2 						"/>
					</g>
					<path class="st3" d="M302.8,601.8c-0.4,0-0.6-0.3-0.6-0.6c-0.6-33.6-13.2-48.7-24.3-61.9c-8.8-10.5-17.1-20.4-17.4-37.7
						c-0.7-38.7,40.5-47.8,40.9-47.9c0.1,0,0.2,0,0.2,0c0.4,0.1,41.9,7.8,42.6,46.4c0.3,17.3-8.2,27.6-17.1,38.4
						c-11.3,13.7-24.2,29.2-23.6,62.8c0,0,0,0,0,0C303.5,601.5,303.2,601.8,302.8,601.8C302.8,601.8,302.8,601.8,302.8,601.8z
						 M301.5,454.9c-2.5,0.6-40.4,10.1-39.8,46.6c0.3,16.9,8.1,26.2,17.1,36.9c9.8,11.7,20.7,24.7,23.8,50.2
						c2.4-25.6,13.5-39,23.4-51c9.2-11.1,17.1-20.7,16.8-37.5C342.2,463.5,304,455.3,301.5,454.9z"/>
				</g>
				<g class="st158">
					<g>
						<path class="st6" d="M305.7,574.5c-10.8-32.4-36.4-38.7-37-69.6c-0.7-38.6,40.4-47.3,40.4-47.3s3.8,0.7,9.1,2.6
							c-8.9-4.7-16.7-6.1-16.7-6.1s-41.1,8.7-40.4,47.3c0.7,38.6,40.6,38.9,41.7,99.7C302.6,590.7,303.7,581.9,305.7,574.5z"/>
					</g>
				</g>
				<g>
					<path class="st159" d="M302.7,553.4c-0.6-35.4,28.5-47.2,28.1-69.6c-0.4-22.5-29.9-26.6-29.9-26.6s-29.3,5.2-28.9,27.6
						C272.4,507.3,302.1,517.9,302.7,553.4z"/>
				</g>
				<g class="st4">
					<path class="st3" d="M325.3,464.8c4.5,6.3,7.6,14.4,7.8,24.8c0.6,31.9-28.4,38.6-37.8,74.4c4.2,9.4,7.2,21.2,7.5,37.2
						c-1.1-60.8,41.4-62.6,40.7-101.2C343.2,482.6,334.7,471.6,325.3,464.8z"/>
				</g>
				<g>
					<path class="st3" d="M303,606c-1.6,0-3-1.3-3-3c-0.6-32.8-13-48.1-23.9-61.6c-9.1-11.2-17.7-21.8-18-39.9
						c-0.7-40.6,42.3-50.2,42.8-50.3c0.4-0.1,0.8-0.1,1.1,0c0.4,0.1,43.8,8.1,44.6,48.7c0.3,18.2-8.4,29.1-17.6,40.6
						c-11,13.9-23.6,29.6-23,62.4c0,0,0,0,0,0.1C306,604.6,304.7,606,303,606C303,606,303,606,303,606z M301.5,457.3
						c-5,1.2-38,10.5-37.4,44.2c0.3,16.1,7.9,25.4,16.7,36.3c8.2,10.1,17.1,21.1,21.8,39c4.4-18.1,13.4-29.5,21.7-39.9
						c8.9-11.1,16.5-20.8,16.3-36.8C339.9,466.4,306.5,458.3,301.5,457.3z"/>
				</g>
				<g>
					<path class="st160" d="M351.7,428.9l-3.5,14.6c-1.6,6.6-6.7,11.8-13.3,13.6h0c-19.6,5.2-40.3,4.8-59.7-0.9h0
						c-6.5-1.9-11.5-7.3-12.9-14l-3.1-14.7"/>
					<path class="st3" d="M306.7,461.4c-10.7,0-21.3-1.5-31.7-4.6c-6.8-2-11.9-7.5-13.3-14.4l-3.1-14.7c-0.1-0.3,0.2-0.7,0.5-0.8
						c0.4-0.1,0.7,0.2,0.8,0.5l3.1,14.7c1.4,6.4,6.1,11.6,12.4,13.5c19.3,5.7,39.9,6,59.4,0.9c6.4-1.7,11.3-6.7,12.8-13.1l3.5-14.6
						c0.1-0.3,0.4-0.6,0.8-0.5c0.3,0.1,0.6,0.4,0.5,0.8l-3.5,14.6c-1.7,6.9-6.9,12.2-13.8,14C325.8,460.2,316.2,461.4,306.7,461.4z"
						/>
				</g>
				<g class="st161">
					<g>
						<path class="st6" d="M268.1,428.3l3.1,14.6c0.8,3.7,2.5,7,5,9.7c2.5,2.7,5.6,4.7,9.3,5.7c2.8,0.8,5.6,1.5,8.4,2.2
							c-5.7-0.8-11.4-2-17-3.6c-3.3-1-6.1-2.8-8.4-5.2c-2.2-2.4-3.8-5.4-4.5-8.7l-3.1-14.7L268.1,428.3z"/>
					</g>
				</g>
				<g>
					<g class="st162">
						<path class="st3" d="M307.4,459.3C307.4,459.3,307.4,459.3,307.4,459.3c6.7-0.5,13.5-1.6,20.1-3.3c6.6-1.7,11.7-6.9,13.3-13.6
							l3.3-13.6l-84.8-1.3l0.7,3.1l62.8,0.9l-3.5,14.6C317.7,452.4,313.3,457.3,307.4,459.3z M315,431.5l-55.1-0.8l-0.2-1l55.6,0.8
							L315,431.5z"/>
					</g>
				</g>
				<g>
					<path class="st10" d="M252.1,384.9c-17,1.4-45.6,18.2-34.9,79c0.1,0.8,1.2,1,1.6,0.3c4.7-7.4,26.7-42.5,49.2-41.3"/>
					<path class="st3" d="M218.1,465.3c-0.1,0-0.2,0-0.3,0c-0.6-0.1-1.1-0.6-1.2-1.2c-5-28.3-1.9-50.8,9-64.9
						c9.5-12.3,21.7-14.5,26.4-14.9c0.4,0,0.7,0.2,0.7,0.6c0,0.4-0.2,0.7-0.6,0.7c-4.6,0.4-16.3,2.5-25.5,14.4
						c-10.7,13.8-13.7,35.9-8.8,63.8c0,0.1,0.1,0.2,0.2,0.2c0.1,0,0.2,0,0.3-0.1l0.2-0.4c22.4-35.1,39.3-41.8,49.5-41.2
						c0.4,0,0.6,0.3,0.6,0.7c0,0.4-0.3,0.6-0.7,0.6c-9.9-0.5-26.4,6.1-48.4,40.6l-0.2,0.4C219.1,465.1,218.6,465.3,218.1,465.3z"/>
				</g>
				<g class="st161">
					<g>
						<path class="st6" d="M224,456.7c-2.2,3.2-3.8,5.7-4.7,7.2c-0.4,0.7-1.5,0.5-1.6-0.3c-10.7-60.8,17.9-77.6,34.9-79l1.7,4.1
							C238.5,393,218.7,410.3,224,456.7z"/>
					</g>
				</g>
				<g>
					<path class="st3" d="M218.1,469.2c-0.4,0-0.7,0-1.1-0.1c-2.2-0.4-3.9-2.2-4.3-4.4c-5.2-29.9-2-52.7,9.8-67.9
						c10.5-13.5,23.9-16,29.2-16.4c2.5-0.2,4.7,1.7,4.9,4.1c0.2,2.5-1.7,4.7-4.1,4.9c-4.1,0.3-14.5,2.3-22.8,12.9
						c-8.8,11.4-12,29.1-9.4,51.5c16.9-24.3,33-36.3,48-35.4c2.5,0.1,4.4,2.3,4.3,4.7c-0.1,2.5-2.2,4.4-4.8,4.3
						c-7.3-0.4-22.8,4.2-44.9,38.9l-0.2,0.4C221.6,468.3,219.9,469.2,218.1,469.2z M221.6,463.2L221.6,463.2L221.6,463.2z"/>
				</g>
				<g>
					<path class="st163" d="M358.4,386.6c16.9,1.9,46,19.6,33.4,80c-0.2,0.8-1.2,1-1.6,0.3c-4.5-7.6-26.4-43.3-48.9-42.8"/>
					<path class="st3" d="M391,467.9c-0.5,0-1-0.3-1.3-0.7c-6-10-27-42.5-47.9-42.5c-0.2,0-0.3,0-0.5,0c-0.4,0-0.7-0.3-0.7-0.6
						c0-0.4,0.3-0.7,0.6-0.7c0.2,0,0.3,0,0.5,0c21,0,41.2,30.1,49,43.1c0.1,0.1,0.2,0.1,0.3,0.1c0.1,0,0.2,0,0.2-0.2
						c5.7-27.4,3.3-49.4-7-63.6c-9.1-12.5-21.1-15.1-25.8-15.7c-0.4,0-0.6-0.4-0.6-0.7c0-0.4,0.4-0.6,0.7-0.6
						c4.9,0.5,17.3,3.2,26.7,16.2c10.5,14.5,13,36.8,7.3,64.6c-0.1,0.6-0.6,1.1-1.3,1.2C391.1,467.9,391,467.9,391,467.9z"/>
				</g>
				<g>
					<path class="st10" d="M391.8,466.6c-0.2,0.8-1.2,1-1.6,0.3c-2.3-3.9-9.2-15.1-18.4-25.1c-8.7-9.5-19.4-17.8-30.3-17.6
						c-0.1,0-0.2,0-0.2,0l0.1-0.2l17-37.3c4.7,0.5,10.4,2.3,15.9,5.9C388.3,401.7,400.9,423.1,391.8,466.6z"/>
					<path class="st3" d="M391,467.9c-0.5,0-1-0.3-1.3-0.7c-5.7-9.6-12-18.2-18.3-25c-10.6-11.6-20.6-17.4-29.6-17.4
						c-0.1,0-0.2,0-0.2,0l-0.3,0c-0.2,0-0.4-0.1-0.5-0.3c-0.1-0.2-0.1-0.4,0-0.6l0.1-0.2l17-37.3c0.1-0.3,0.4-0.4,0.7-0.4
						c5.5,0.6,11.3,2.8,16.2,6c10.9,7.2,27.8,26.5,17.8,74.8c0,0,0,0,0,0c-0.1,0.6-0.6,1.1-1.3,1.2C391.1,467.9,391,467.9,391,467.9
						z M342.3,423.4c9.2,0.2,19.3,6.2,30,17.9c6.3,6.9,12.7,15.6,18.5,25.2c0.1,0.1,0.2,0.1,0.3,0.1c0.1,0,0.2,0,0.2-0.2
						c9.8-47.5-6.6-66.4-17.3-73.4c-4.6-3.1-10-5.1-15.2-5.8L342.3,423.4z M391.8,466.6L391.8,466.6L391.8,466.6z"/>
				</g>
				<g class="st162">
					<path class="st3" d="M371.8,441.7c-8.7-9.5-19.4-17.8-30.3-17.6c0-0.1-0.1-0.2-0.1-0.2l17-37.3c4.7,0.5,10.4,2.3,15.9,5.9
						C378.3,404.7,378.6,420.9,371.8,441.7z"/>
				</g>
				<g>
					<path class="st3" d="M390.9,471.8c-1.9,0-3.6-1-4.6-2.6c-5.7-9.6-26-41-44.9-40.6c-2.5,0.1-4.6-1.9-4.6-4.4
						c-0.1-2.5,1.9-4.6,4.4-4.6c0.2,0,0.4,0,0.6,0c19.2,0,37.2,21.9,47.3,37c3.2-22.1,0.5-39.7-8-51.4
						c-8.4-11.6-19.8-13.7-23.1-14.1c-2.5-0.3-4.3-2.5-4-5c0.3-2.5,2.5-4.3,5-4c5.4,0.6,19.1,3.5,29.5,17.8
						c11.3,15.6,14,38.4,7.9,67.7c-0.5,2.2-2.2,3.9-4.4,4.2C391.6,471.8,391.3,471.8,390.9,471.8z"/>
				</g>
				<g>
					<path class="st6" d="M310.1,101.6c0,0,74.9,45.7,81.6,169.9c5.7,105.8-40.3,158.4-40.3,158.4c-19,6.7-39.1,9-58.8,6.8
						c-11.5-1.3-22.8-4-33.7-8.2c0,0-19.8-24.1-30.3-71.5c-0.4-1.6-0.7-3.3-1.1-5c-3.7-18.4-5.9-40-5.2-64.9
						c0.2-5.9,0.5-11.9,1-18.1c0-0.2,0-0.5,0.1-0.7c2.2-25.1,7-46.9,13.4-65.7c0.2-0.6,0.4-1.2,0.6-1.8
						C262.6,128.5,310.1,101.6,310.1,101.6z"/>
					<path class="st3" d="M306.9,438.1c-4.8,0-9.6-0.3-14.4-0.8c-11.6-1.3-23-4-33.8-8.3c-0.1,0-0.2-0.1-0.3-0.2
						c-0.2-0.2-20-24.7-30.4-71.8c-0.4-1.6-0.7-3.3-1.1-5c-4.1-20.6-5.9-42.4-5.2-65c0.2-5.9,0.5-12,1-18.2c0-0.2,0-0.5,0.1-0.7
						c2-23.3,6.5-45.4,13.4-65.8c0.2-0.6,0.4-1.2,0.6-1.8c25-71.6,72.5-99.3,72.9-99.5c0.2-0.1,0.5-0.1,0.7,0
						c0.2,0.1,19.1,11.8,38.5,38.5c17.9,24.7,40,67.5,43.4,131.9c5.6,104.9-40,158.3-40.5,158.9c-0.1,0.1-0.2,0.1-0.3,0.2
						C337.3,435.5,322.1,438.1,306.9,438.1z M259.2,427.9c10.7,4.1,21.9,6.9,33.4,8.1c19.6,2.1,39.8-0.2,58.4-6.7
						c2.5-2.9,45.5-56,40.1-157.8c-3.4-64-25.4-106.6-43.1-131.1c-17.9-24.6-35.3-36.4-37.8-38c-4.3,2.6-48.3,30.7-72,98.6
						c-0.2,0.6-0.4,1.2-0.6,1.8c-6.9,20.3-11.4,42.3-13.4,65.5c0,0.2-0.1,0.5-0.1,0.7c-0.5,6.2-0.9,12.3-1,18.1
						c-0.7,22.5,1.1,44.3,5.2,64.7c0.3,1.7,0.7,3.3,1,5C239.1,401.8,257.7,425.9,259.2,427.9z"/>
				</g>
				<g>
					<path class="st10" d="M376.2,190.8c-44.1-10.1-89.8-10.8-134.2-2c25.9-63.9,68.5-88.1,68.5-88.1S352.3,126.1,376.2,190.8z"/>
					<path class="st3" d="M376.2,191.4c0,0-0.1,0-0.1,0c-44.3-10.2-89.4-10.8-133.9-2c-0.2,0-0.5,0-0.6-0.2
						c-0.2-0.2-0.2-0.4-0.1-0.7c25.7-63.4,68.3-88.2,68.7-88.4c0.2-0.1,0.5-0.1,0.7,0c0.4,0.3,42.3,26.3,66,90.5
						c0.1,0.2,0,0.5-0.1,0.7C376.6,191.3,376.4,191.4,376.2,191.4z M304.4,181.9c23.7,0,47.3,2.6,70.8,7.9
						c-22.5-59.9-60.8-86-64.7-88.5c-4,2.4-43.1,27.3-67.4,86.5C263.4,183.9,283.9,181.9,304.4,181.9z"/>
				</g>
				<g>
					<g class="st162">
						<path class="st3" d="M382.9,269.8c-5.8-107.5-62.6-156.1-77.9-167.3c0.5-0.3,0.9-0.6,1.2-0.8c-1.4,0.9-3.8,2.5-6.8,4.8
							c20.5,21.3,49,62,57.5,128.5c-7.3-16.6-23.7-28.3-43-28.6c-26.4-0.4-48.1,20.7-48.5,47c-0.4,26.4,20.7,48.1,47,48.5
							c22.4,0.3,41.4-14.8,46.9-35.5c1.2,45.6-7.1,80.8-16.6,105.5c-12.9,33.6-46.5,54.7-82.3,50.9c-0.2,0-0.4,0-0.6-0.1
							c-1.4-0.2-2.8-0.3-4.2-0.5c-0.6,0-1.2-0.1-1.8-0.1c-0.2,0-0.4,0-0.6-0.1c-0.2,0-0.4-0.1-0.6-0.1c2.5,3.8,4,5.7,4,5.7
							c9.6,3.7,19.6,6.3,29.7,7.7c18.9,1.7,38.1-0.7,56.2-7.1C342.5,428.2,388.5,375.6,382.9,269.8z"/>
					</g>
					<g class="st162">
						<path class="st3" d="M252.6,421.9C252.6,421.9,252.6,421.9,252.6,421.9c0-0.1-0.1-0.1-0.1-0.2
							C252.6,421.7,252.6,421.8,252.6,421.9z"/>
					</g>
					<g class="st162">
						<path class="st3" d="M252.5,421.7C252.5,421.7,252.5,421.7,252.5,421.7C252.5,421.7,252.5,421.7,252.5,421.7L252.5,421.7z"/>
					</g>
				</g>
				<g class="st161">
					<g>
						<path class="st6" d="M316.2,105.3c-3.3-2.5-5.3-3.7-5.3-3.7s-42.6,24.2-68.5,88.1c2.9-0.6,5.7-1.1,8.6-1.6
							C274.1,134.4,308.6,110.1,316.2,105.3z"/>
					</g>
				</g>
				<g>
					<path class="st3" d="M376.2,195.3c-0.3,0-0.7,0-1-0.1c-43.8-10-88.3-10.7-132.3-2c-1.6,0.3-3.3-0.3-4.4-1.6
						c-1.1-1.3-1.3-3-0.7-4.6c20.6-50.9,51.8-77.3,64.3-86.3c5-3.6,11.7-3.5,16.7,0.3c12.2,9.4,42.6,36.7,61.6,88.2
						c0.6,1.6,0.3,3.3-0.8,4.6C378.7,194.8,377.5,195.3,376.2,195.3z M304.4,178.1c21.6,0,43.1,2.2,64.5,6.5
						c-18.3-44.3-44.7-68-55.6-76.4c-1.7-1.3-4.1-1.4-5.9-0.1c-11.2,8.1-38.3,31-57.9,74.7C267.7,179.6,286.1,178.1,304.4,178.1z"/>
				</g>
				<g>
					<path class="st3" d="M307.4,441c-0.7,0-1.4,0-2.1,0c-16.4-0.2-32.4-3.4-47.7-9.3c-0.7-0.3-1.4-0.7-1.9-1.3
						c-1.9-2.3-45.5-56.6-36.5-162.8c2.4-29,8.7-56.1,18.6-80.5c0.6-1.4,1.8-2.4,3.3-2.7c45.3-9,91-8.3,136,2
						c1.5,0.3,2.8,1.4,3.3,2.8c9.1,24.7,14.6,52,16.1,81.1c5.7,106.4-39.5,159.4-41.4,161.6c-0.5,0.6-1.2,1-1.9,1.3
						C338.5,438.4,323,441,307.4,441z M262,423.7c13.9,5.2,28.5,8,43.4,8.2c14.9,0.2,29.6-2.1,43.6-6.9c5.7-7.2,43.6-59,38.5-154.3
						c-1.5-27.3-6.4-52.9-14.7-76.1c-42.2-9.4-85.1-10-127.5-1.9c-9,23-14.8,48.4-17,75.6C220.2,363.7,256.5,416.4,262,423.7z
						 M351.7,428.9L351.7,428.9L351.7,428.9z M351.7,428.9L351.7,428.9L351.7,428.9z"/>
				</g>
				<g>
					<path class="st3" d="M306.7,464.2c-10.9,0-21.9-1.6-32.5-4.7c-7.8-2.3-13.6-8.6-15.3-16.6l-3.1-14.7c-0.4-1.9,0.8-3.7,2.7-4.1
						c1.9-0.4,3.7,0.8,4.1,2.7l3.1,14.7c1.1,5.4,5.1,9.8,10.5,11.3c18.8,5.6,38.8,5.9,57.8,0.9c5.4-1.4,9.5-5.6,10.8-11l3.5-14.6
						c0.4-1.9,2.3-3,4.2-2.6c1.9,0.4,3,2.3,2.6,4.2l-3.5,14.6c-1.9,7.9-7.9,14-15.8,16.1C326.2,463,316.5,464.2,306.7,464.2z"/>
				</g>
				<g>
					
						<ellipse transform="matrix(0.7071 -0.7071 0.7071 0.7071 -87.1251 291.3895)" class="st10" cx="308.2" cy="250.9" rx="43" ry="43"/>
					<path class="st3" d="M308.2,294.5c-0.2,0-0.4,0-0.7,0c-11.6-0.2-22.5-4.9-30.6-13.2c-8.1-8.4-12.5-19.4-12.3-31
						c0.2-11.6,4.9-22.5,13.2-30.6c8.4-8.1,19.4-12.5,31-12.3c11.6,0.2,22.5,4.9,30.6,13.2c8.1,8.4,12.5,19.4,12.3,31
						C351.4,275.3,331.9,294.5,308.2,294.5z M308.2,208.6c-11.1,0-21.5,4.2-29.4,11.9c-8.1,7.9-12.7,18.4-12.8,29.7
						c-0.2,11.3,4.1,22,11.9,30.1c7.9,8.1,18.4,12.7,29.7,12.8c0.2,0,0.4,0,0.7,0c23,0,41.9-18.6,42.3-41.7l0.6,0l-0.6,0
						c0.2-11.3-4.1-22-11.9-30.1c-7.9-8.1-18.4-12.7-29.7-12.8C308.6,208.6,308.4,208.6,308.2,208.6z"/>
				</g>
				<g class="st161">
					<g>
						<path class="st6" d="M319.2,209.2c-1-0.1-1.9-0.1-2.9-0.1c-23.7-0.4-43.2,18.6-43.6,42.3c-0.3,20.9,14.4,38.6,34.1,42.7
							c-22.4-1.8-39.8-20.7-39.4-43.5c0.4-23.7,19.9-42.7,43.6-42.3C313.8,208.3,316.6,208.6,319.2,209.2z"/>
					</g>
				</g>
				<g class="st162">
					<path class="st164" d="M351.1,251.5c-0.4,23.7-19.9,42.7-43.6,42.3c-7.5-0.1-14.4-2.1-20.5-5.6c3.1,0.8,6.3,1.2,9.6,1.2
						c23.7,0.4,43.2-18.6,43.6-42.3c0.2-16.3-8.6-30.6-21.8-38C337.4,213.8,351.4,231.1,351.1,251.5z"/>
					<path class="st3" d="M308.2,294.5c-0.2,0-0.4,0-0.7,0c-7.3-0.1-14.5-2.1-20.8-5.7c-0.3-0.2-0.4-0.5-0.3-0.8
						c0.1-0.3,0.4-0.5,0.8-0.4c3.1,0.8,6.3,1.2,9.5,1.2c11.3,0.1,22-4.1,30.1-11.9c8.1-7.9,12.7-18.4,12.8-29.7
						c0.2-15.5-8-29.8-21.5-37.5c-0.3-0.2-0.4-0.5-0.3-0.8c0.1-0.3,0.4-0.5,0.8-0.4c19.9,4.9,33.5,22.5,33.2,43l0,0
						C351.4,275.3,331.9,294.5,308.2,294.5z M291.5,289.7c5.1,2.2,10.5,3.3,16.1,3.4c0.2,0,0.4,0,0.7,0c23,0,41.9-18.6,42.3-41.7
						c0.3-18.3-11-34.3-27.8-40.4c11.5,8.3,18.4,21.7,18.2,36.1c-0.2,11.6-4.9,22.5-13.2,30.6c-8.4,8.1-19.4,12.5-31,12.3
						C294.9,290.1,293.2,290,291.5,289.7z M351.1,251.5L351.1,251.5L351.1,251.5z"/>
				</g>
				<g>
					<path class="st3" d="M308.2,297.3c-0.2,0-0.5,0-0.7,0c-12.4-0.2-24-5.2-32.6-14.1c-8.6-8.9-13.3-20.6-13.1-33
						c0.2-12.4,5.2-24,14.1-32.6c8.9-8.6,20.6-13.3,33-13.1c12.4,0.2,24,5.2,32.6,14.1c8.6,8.9,13.3,20.6,13.1,33
						C354.2,276.9,333.5,297.3,308.2,297.3z M308.2,211.4c-10.3,0-20.1,3.9-27.5,11.1c-7.6,7.3-11.8,17.2-12,27.7
						c-0.2,10.5,3.8,20.5,11.1,28.1c7.3,7.6,17.2,11.8,27.7,12c0.2,0,0.4,0,0.6,0c21.5,0,39.1-17.3,39.5-38.9l3.5,0.1l-3.5-0.1
						c0.2-10.5-3.8-20.5-11.1-28.1c-7.3-7.6-17.2-11.8-27.7-12C308.6,211.4,308.4,211.4,308.2,211.4z"/>
				</g>
				<g>
					
						<ellipse transform="matrix(0.8431 -0.5377 0.5377 0.8431 -86.349 204.714)" class="st165" cx="307.7" cy="250.3" rx="27.3" ry="27.3"/>
				</g>
				<g class="st4">
					<g>
						<path class="st6" d="M335,250.8c-0.2,15.1-12.6,27.1-27.7,26.9c-3.3,0-6.4-0.7-9.3-1.8c0.3,0,0.6,0,0.9,0
							c15.1,0.2,27.5-11.8,27.7-26.9c0.2-11.8-7.2-22-17.6-26C323.7,223.8,335.2,236,335,250.8z"/>
					</g>
				</g>
				<g class="st162">
					<path class="st3" d="M319.5,225.4c-0.5,0-0.9,0-1.4-0.1c-15.1-0.2-27.5,11.8-27.7,26.9c-0.2,11.4,6.6,21.2,16.4,25.5
						c-14.4-1-25.7-13.1-25.5-27.7c0.2-15.1,12.6-27.1,27.7-26.9C312.7,223.1,316.3,223.9,319.5,225.4z"/>
				</g>
				<g>
					<path class="st3" d="M307.7,280.9c-0.2,0-0.3,0-0.5,0c-16.8-0.3-30.3-14.2-30.1-31c0.1-8.2,3.4-15.8,9.3-21.5
						c5.9-5.7,13.6-8.7,21.7-8.6c16.8,0.3,30.3,14.2,30.1,31l0,0C338,267.5,324.3,280.9,307.7,280.9z M307.7,226.2
						c-6.3,0-12.2,2.4-16.8,6.8c-4.6,4.5-7.2,10.5-7.3,16.9c-0.2,13.3,10.4,24.3,23.7,24.5c13.3,0.2,24.3-10.4,24.5-23.7
						c0.2-13.3-10.4-24.3-23.7-24.5C307.9,226.2,307.8,226.2,307.7,226.2z M335,250.8L335,250.8L335,250.8z"/>
				</g>
				<g class="st2">
					<path class="st6" d="M290.1,145.6c-6.1-2.3-16,8.3-18.9,15.4c-3,7.4-3.5,12.3,0,13.8c4.9,2.1,9.1-2.9,12.1-9.6
						C285.5,160.4,297.7,148.4,290.1,145.6z"/>
				</g>
				<g class="st2">
					<path class="st6" d="M305.3,130.3c-5.4-1.8-12.9,2.5-14.7,5.8c-1.9,3.4-1.9,5.8,1.2,6.9c4.4,1.5,7.4-0.5,9.4-3.6
						C302.7,137.3,312,132.5,305.3,130.3z"/>
				</g>
				<g>
					<path class="st10" d="M321.5,423.5c-0.3,21.2-17.4,41.8-17.4,41.8s-0.1-0.1-0.2-0.2c-1.8-2.3-16.3-22.2-16-42
						c0.3-19.1,14.3-34.2,16.9-36.8c0.3-0.3,0.4-0.4,0.4-0.4S321.8,402.5,321.5,423.5z"/>
					<path class="st3" d="M304.1,465.9C304.1,465.9,304.1,465.9,304.1,465.9c-0.2,0-0.4-0.1-0.5-0.2c0,0-0.1-0.1-0.2-0.3
						c-1.7-2.2-16.4-22.3-16.1-42.4c0.3-19.3,14.3-34.4,17.1-37.3c0.3-0.3,0.4-0.4,0.4-0.4c0.3-0.2,0.7-0.2,0.9,0
						c0.2,0.2,16.7,17.2,16.4,38.2c-0.3,21.2-17.4,42-17.5,42.2C304.5,465.8,304.3,465.9,304.1,465.9z M305.3,386.7
						c-2.9,2.9-16.4,17.7-16.7,36.3c-0.3,18.8,12.8,37.5,15.5,41.2c2.8-3.6,16.5-22.1,16.7-40.7l0,0
						C321.2,404.9,307.9,389.5,305.3,386.7z"/>
				</g>
				<g class="st161">
					<g>
						<path class="st6" d="M307.8,385.2c0,0,1,1,2.5,2.9c-4.6,5.2-14.9,18.6-15.1,34.9c-0.2,16,9.1,31.9,13.7,38.8
							c-1.4,1.9-2.3,3-2.3,3s-0.1-0.1-0.2-0.2c-1.8-2.3-16.2-22.2-16-42c0.3-19.1,14.3-34.2,16.9-36.8
							C307.7,385.4,307.8,385.2,307.8,385.2z"/>
					</g>
				</g>
				<g class="st162">
					<path class="st3" d="M321.5,423.5c-0.3,21.2-17.4,41.8-17.4,41.8s-0.1-0.1-0.2-0.2l1-78.9c0.3-0.3,0.4-0.4,0.4-0.4
						S321.8,402.5,321.5,423.5z"/>
				</g>
				<g>
					<path class="st3" d="M304.1,468.7C304.1,468.7,304.1,468.7,304.1,468.7c-1.1,0-2.1-0.5-2.7-1.3c-0.7-0.9-17.2-22.3-16.9-44.5
						c0.3-22.2,17.7-39,18.4-39.7c1.4-1.3,3.5-1.3,4.9,0.1c0.7,0.7,17.5,18,17.2,40.3c-0.3,22.1-17.5,43-18.2,43.9
						C306.1,468.3,305.2,468.7,304.1,468.7z M305.2,390.9c-4.5,5.2-13.6,17.6-13.8,32.1c-0.2,14.6,8.3,29.5,12.7,36.3
						c4.7-6.7,13.6-21.3,13.8-35.9C318.3,408.9,309.6,396.3,305.2,390.9z"/>
				</g>
			</g>
		</g>
	</g>
	<g id="Layer_3" class="st166">
		<g>
			<g>
				<g>
					<path class="st6" d="M458.9,788.9c-0.1,0.3-0.1,0.5-0.2,0.7c-0.6,2.5-3.5,4.7-5.9,4.8c-0.2,0-0.4,0.1-0.5,0.3
						c-4.8,5.6-10.3,10.5-16.6,14.5c-3.2,2.1-6.5,3.8-9.9,4.9c-2.5,0.9-4.9,1.5-7.3,1.8c-0.1,0-0.1,0-0.1,0
						c-0.3,0.7-0.8,1.5-1.5,2.1c-1.7,1.7-4.1,2.4-5.6,1.6c-0.1-0.1-0.2-0.1-0.4,0c-2.3,2-4.6,3.7-7,5.4c-0.3,0.2-0.4,0.3-0.3,0.6
						c0.2,2.2-1.5,4.7-4,5.8c-2.3,1-4.5,0.2-4.8-1.9c0-0.3,0-0.7,0-1c0-0.2-0.1-0.3-0.3-0.3c-1.8-0.1-3.5-0.3-5.2-0.4
						c-0.6-0.1-1.2-0.2-1.9-0.3c-0.2,0-0.2,0-0.4,0.2c-2.2,2.6-5.8,3.3-7.1,1.1c0,0,0-0.1-0.1,0c-0.7,0.3-1.4,0.7-2.2,1.1
						c-2.4,1.1-4.7,2-7.1,2.6c-7.2,1.7-13.6,1.1-19.4-0.8c-1.7-0.6-3.4-1.4-4.9-2.2c-0.2-0.1-0.3-0.1-0.5,0.1
						c-2.4,1.6-5.1,1.2-5.8-0.9c-0.8-2.1,0.8-5.1,3.3-6.4c0.6-0.3,1.2-0.4,1.8-0.6c0.2-0.1,0.3-0.2,0.5-0.4c1.3-1.8,2.6-3.7,3.9-5.4
						c1.1-1.4,2.3-2.6,3.4-3.9c0.1-0.1,0.2-0.2,0.2-0.4c-0.3-1.4,0.2-2.8,1.4-4.3c0.1-0.1,0.1-0.1,0.1-0.1c-0.6-0.6-1.2-1.2-1.8-1.9
						c-2.2-2.4-4.2-4.9-5.6-8.1c-1-2.3-1.7-4.8-2.2-7.4c-0.1-0.2-0.1-0.3-0.3-0.3c-2.1,0.1-3.5-1.2-3.3-3.1c0.1-2.1,1.6-4.3,3.8-5.2
						c1.7-0.8,3.1-0.6,4.2,0.3c0.2,0.1,0.3,0.1,0.5,0c3.3-2,6.6-3.7,10.1-5.2c3.5-1.5,6.9-2.7,10.4-3.5c1.5-0.3,2.9-0.4,4.4-0.7
						c0.1,0,0.1,0,0.1,0c0.4-0.6,0.8-1.2,1.3-1.7c0.9-1,1.9-1.6,3-1.9c0.2-0.1,0.3-0.1,0.4-0.4c2.4-7.9,6.3-15.5,11.4-22.9
						c1.5-2.1,3.1-4.2,4.7-6.3c0.1-0.2,0.1-0.3,0.1-0.4c-0.8-2.1,0.7-5.1,3.4-6.4c3.3-1.6,6.2,0.5,5.2,3.7c-0.1,0.3,0,0.4,0.2,0.6
						c3.6,2.4,6.7,5.1,9.4,8.4c2.7,3.2,4.7,6.8,6.1,10.9c0.1,0.1,0.1,0.1,0.1,0.2c2-0.7,3.5-0.4,4.5,0.9c1-0.5,2-1,3-1.4
						c2.5-1.1,5.1-1.9,7.6-2.6c3.9-1,7.7-1.5,11.4-1.8c1-0.1,2-0.1,3-0.1c0.2,0,0.3-0.1,0.5-0.3c1.2-1.7,2.7-2.6,4.6-2.8
						c1.8-0.2,2.9,0.5,3.3,2c0.5,1.8-0.9,4.4-3.2,5.7c-0.3,0.2-0.4,0.4-0.5,0.7c-0.4,2.1-1,4.3-1.7,6.6c-1,3.1-2.4,6.1-4.2,9.1
						c-1.2,2.1-2.5,4.2-3.8,6.3c-0.1,0.1-0.2,0.2-0.2,0.4c0.1,0.1,0.3,0.2,0.4,0.2c0.9,0.7,1.2,1.7,1,3c-0.1,0.3,0,0.4,0.2,0.5
						c2.3,0.7,4.2,1.9,6,3.2c0.4,0.3,0.8,0.6,1.3,1c0.1,0,0.2,0,0.3,0c2.7-1.4,5.1-0.4,5.3,1.8c0,0,0.1,0,0.1,0.1
						C458.9,788.5,458.9,788.7,458.9,788.9z M406.3,819.4L406.3,819.4c1.2-1,2.5-2,3.7-3c0.1-0.1,0.2-0.3,0.2-0.4
						c0.5-1.8,1.7-3.2,3.5-4.1c1.8-0.9,3.3-0.8,4.5,0.1c0.1,0.1,0.2,0.1,0.4,0.1c2-0.1,4-0.5,6.1-1.2c2.8-0.9,5.6-2.1,8.3-3.8
						c6.5-3.8,12.1-8.8,17.1-14.6c0.1-0.1,0.1-0.2,0.1-0.3c-0.1-0.6,0-1.4,0.2-2.1c0.1-0.1,0-0.2,0-0.3c-0.5-0.4-0.9-0.8-1.4-1.1
						c-1.6-1.2-3.4-2.2-5.5-2.9c-0.2,0-0.3,0-0.5,0.1c-0.7,0.5-1.5,0.8-2.2,0.9c-1.9,0.3-3.4-0.7-3.5-2.4c-0.1-1.9,1-3.8,2.9-5.2
						c0.2-0.1,0.3-0.2,0.4-0.4c1-1.7,2.1-3.3,3.1-5c1.8-2.9,3.4-5.8,4.6-8.8c1.2-3,1.9-5.9,2.5-8.8c0-0.1,0-0.2-0.1-0.3
						c-0.3-0.3-0.6-0.6-0.9-0.9c-0.1-0.1-0.2-0.1-0.3-0.2c-5.8,0.1-11.7,0.9-17.8,2.9c-2.3,0.7-4.5,1.7-6.7,2.9
						c-0.2,0.1-0.4,0.3-0.5,0.4c-0.9,1.4-2.1,2.4-3.6,2.8c-3.2,1-5.4-1.3-4.1-4.4c0.1-0.2,0.1-0.4,0.1-0.5c-0.2-0.7-0.5-1.4-0.7-2.1
						c-2-5.2-5.2-9.6-9.3-13.3c-0.1,0-0.1-0.1-0.1-0.1c0,0.1,0,0.2,0.1,0.3c2.1,4.8,3.9,9.8,5.3,15c1.5,5.5,2.6,11.1,3.2,17
						c0.3,3.7,0.5,7.3,0.3,11.2c-0.2,4.1-0.7,8.3-1.6,12.6c-1.1,5-2.7,10-5.1,14.9C407.9,816.3,407.1,817.9,406.3,819.4z
						 M401.2,750.1L401.2,750.1c-0.1,0.1-0.1,0.1-0.1,0.1c-0.6,3.2-1.3,6.4-2.2,9.6c-1.7,6-3.8,12.1-6.9,18.1
						c-2.9,5.8-6.4,11.3-10.9,16.5c-5.5,6.4-11.9,11.5-19.1,15.4c-0.3,0.1-0.4,0.3-0.5,0.5c-1.1,1.8-2.6,2.9-4.5,3.3
						c-0.8-0.1-1.4,0.5-2,1.1c-2.4,2.5-4.4,5.3-6.2,8.1c-0.1,0.1-0.1,0.2-0.1,0.3c0.2,0.6,0.3,1.2,0.2,1.9c-0.1,0.3,0,0.4,0.2,0.5
						c2.1,1.2,4.4,2.1,6.9,2.8c4.8,1.3,10,1.5,15.7,0c2.9-0.8,5.7-1.9,8.6-3.6c0.1-0.1,0.2-0.2,0.3-0.3c0.9-1.5,2.2-2.5,3.7-3
						c0.1,0,0.3-0.1,0.4-0.3c0.4-0.5,0.8-1,1.1-1.6c5-7.3,8.6-14.9,11.3-22.6c2-6,3.4-12,4.2-17.9c0.6-4.4,1-8.7,1-13
						c0-2.2,0-4.4-0.1-6.6c-0.2-2.9-0.4-5.7-0.7-8.5C401.3,750.8,401.3,750.4,401.2,750.1z M361.7,806.1c0.1,0,0.2-0.1,0.3-0.2
						c7.4-4.2,13.7-9.7,18.9-16.5c3.7-4.9,6.7-10,9.1-15.3c3.5-7.8,5.7-15.5,7.1-23.2c0.5-2.9,0.8-5.7,1.2-8.5
						c0.1-0.4,0.1-0.8,0.1-1.2c0,0-0.1,0-0.1,0c0,0-0.1,0.1-0.1,0.1c-2.7,3.4-5.3,7-7.5,10.7c-3.3,5.6-5.9,11.4-7.5,17.2
						c-0.1,0.2,0,0.3,0.1,0.5c0.3,0.6,0.4,1.2,0.3,2c-0.2,1.8-1.6,3.7-3.4,4.6c-1.8,1-3.8,0.9-4.8-0.2c-0.1-0.1-0.3-0.2-0.4-0.2
						c-2.5,0.1-5,0.6-7.6,1.4c-1.9,0.6-3.9,1.3-5.8,2.1c-3.8,1.6-7.5,3.5-11.1,5.7c-0.1,0.1-0.2,0.2-0.3,0.4c-0.3,0.5-0.6,1-0.9,1.5
						c-0.1,0.1-0.1,0.3-0.1,0.4c0.1,0.5,0.2,1,0.3,1.5c0.7,3.4,1.9,6.5,3.8,9.2c1.6,2.3,3.5,4.2,5.4,6.2c0.4,0.4,0.7,0.7,1.3,0.7
						c0,0,0.1,0,0.1,0C360.7,805.1,361.3,805.5,361.7,806.1z M405.9,754.4C405.9,754.4,405.9,754.4,405.9,754.4
						c-0.1,0.1-0.1,0.1-0.1,0.2c0.1,2.6,0.3,5.2,0.3,7.9c0,2.3-0.1,4.6-0.2,6.9c-0.2,4.8-0.9,9.8-1.8,14.8c-1,4.9-2.3,9.9-4.1,14.8
						c-2.8,7.8-6.7,15.4-11.8,22.8c-0.2,0.3-0.3,0.5-0.1,0.7c0.1,0.1,0.2,0.2,0.2,0.3c0,0.6,0.5,0.7,1,0.8c0.1,0,0.1,0,0.1,0
						c2.5,0.5,5.2,0.7,7.8,0.8c0.1,0,0.3-0.1,0.4-0.1c0.7-0.5,1.4-0.8,2.1-1c0.2,0,0.3-0.2,0.4-0.3c3.4-5.1,5.9-10.3,7.8-15.7
						c2.2-6.5,3.2-12.7,3.5-18.8c0.2-3.5,0.1-6.9-0.2-10.2c-0.3-3-0.7-6-1.2-8.9c-0.8-4.3-1.9-8.5-3.2-12.5
						C406.5,756,406.2,755.2,405.9,754.4z"/>
					<path class="st6" d="M435.4,709.6c0.3,0.2,0.6,0.3,0.7,0.6c0.5,0.9,0.9,1.8,1.3,2.8c0.7,1.6,1.2,3.2,1.9,4.8
						c0.4,1.1,1.3,1.7,2.7,1.8c2.1,0.1,4.2,0.1,6.3,0.2c1.2,0,2.3,0.1,3.5,0.1c0.3,0,0.6,0.1,1,0.2c0.4,0.1,0.4,0.4,0,0.7
						c-0.4,0.4-0.7,0.6-1.2,0.9c-1.9,1.1-3.7,2.2-5.5,3.3c-1.6,1-3.2,2-4.8,3c-0.9,0.6-1.5,1.4-1.9,2.2c-0.6,1.6-1.2,3.2-1.8,4.8
						c-0.5,1.5-1,2.9-1.6,4.4c-0.2,0.4-0.4,0.9-0.7,1.4c-0.4,0.6-0.8,0.7-1.1,0.3c-0.4-0.5-0.8-1.1-1-1.7c-0.7-1.6-1.2-3.2-1.9-4.9
						c-0.3-0.7-0.6-1.3-0.9-2c-0.3-0.5-0.7-0.9-1.4-0.9c-1.5-0.1-3-0.2-4.4-0.3c-1.9-0.1-3.8-0.1-5.8-0.1c-0.5,0-0.9-0.1-1.3-0.2
						c-0.5-0.2-0.5-0.4,0-0.8c0.6-0.5,1.2-0.9,1.9-1.3c2.3-1.4,4.6-2.7,6.8-4.1c1-0.6,1.9-1.2,2.9-1.9c0.7-0.5,1.2-1.1,1.5-1.8
						c0.7-1.6,1.2-3.1,1.8-4.7c0.5-1.6,1.1-3.1,1.7-4.7c0.1-0.4,0.3-0.7,0.5-1.1c0.2-0.4,0.5-0.6,0.8-0.9
						C435.3,709.6,435.3,709.6,435.4,709.6z"/>
				</g>
			</g>
		</g>
	</g>
</g>
</svg>
