<?xml version="1.0" encoding="utf-8"?>
<!-- Generator: Adobe Illustrator 28.4.1, SVG Export Plug-In . SVG Version: 6.00 Build 0)  -->
<svg version="1.1" id="Layer_2_00000124863569196042102610000004875073211404526762_"
	 xmlns="http://www.w3.org/2000/svg" xmlns:xlink="http://www.w3.org/1999/xlink" x="0px" y="0px" viewBox="0 0 600 1000"
	 style="enable-background:new 0 0 600 1000;" xml:space="preserve">
<style type="text/css">
	.st0{display:none;fill:#FFFFFF;stroke:#000000;stroke-miterlimit:10;}
	.st1{fill:#33AEF1;}
	.st2{opacity:0.3;}
	.st3{fill:#390075;}
	.st4{fill:#F9C710;}
	.st5{opacity:0.55;}
	.st6{fill:#FFFFFF;}
	.st7{fill:#F89F1D;}
	.st8{fill:#FF3E84;}
	.st9{fill:#6B184E;}
	.st10{fill:#FFD553;}
	.st11{fill:#FF9F40;}
	.st12{opacity:0.1;}
	.st13{fill:#35B7EB;}
	.st14{fill:#96A7BC;}
	.st15{fill:#F7F0FF;}
</style>
<path class="st0" d="M513,687H87c-14.9,0-27-12.1-27-27V85.6c0-14.9,12.1-27,27-27h426c14.9,0,27,12.1,27,27V660
	C540,674.9,527.9,687,513,687z"/>
<g>
	<g>
		<g>
			<g>
				<g>
					<polygon class="st1" points="489.4,562.3 126.3,562.3 75,342.2 537.9,342.2 					"/>
				</g>
				<g class="st2">
					<polygon class="st3" points="489.4,562.3 126.3,562.3 75,342.2 537.9,342.2 					"/>
				</g>
				<g>
					<path class="st3" d="M489.4,568.5h-363c-2.1,0-3.9-1.8-4.5-4.4L70.5,344c-0.4-1.9-0.2-3.9,0.7-5.5c0.9-1.6,2.3-2.5,3.8-2.5
						h462.9c1.5,0,2.9,0.9,3.8,2.5c0.9,1.6,1.2,3.6,0.8,5.4L493.9,564C493.3,566.7,491.5,568.5,489.4,568.5z M129.8,556.1h356
						l45.8-207.8H81.4L129.8,556.1z"/>
				</g>
			</g>
			<g>
				<g>
					<path class="st4" d="M483.3,385.9c31.6-1.6,58.1,26.8,59.2,63.4s-23.7,67.6-55.3,69.1c-31.6,1.6-58.1-26.8-59.2-63.4
						C426.9,418.5,451.7,387.5,483.3,385.9z"/>
				</g>
				<g class="st5">
					<path class="st6" d="M523.6,403.6c-8.9-5.6-19.1-8.7-30-8.1c-12,0.6-23,5.4-32,13.2c7,10.9-5,25-14.4,18c-6,11-9.3,24-8.9,37.9
						c0.5,18.2,7.3,34.3,17.9,45.7c-16.8-10.8-28.4-31.2-29.1-55.2c-1.1-36.6,23.7-67.6,55.3-69.1
						C498.3,385.2,512.9,392,523.6,403.6z"/>
				</g>
				<g>
					<path class="st7" d="M484.3,417.5c16.6-0.8,30.5,14.1,31,33.3c0.6,19.2-12.4,35.4-29,36.2s-30.5-14.1-31-33.3
						C454.7,434.5,467.7,418.3,484.3,417.5z"/>
				</g>
				<g class="st5">
					<path class="st6" d="M506.1,426.9c7.1,6,11.8,15.6,12.1,26.6c0.2,7.9-1.8,15.3-5.5,21.3c4.3,7.1-4.1,15.8-9.7,10.3
						c-4.1,2.8-8.8,4.4-13.8,4.7c-8.5,0.4-16.3-3.3-21.9-9.6c5.3,4.6,11.9,7.1,19,6.8c16.6-0.8,29.6-17.1,29-36.3
						C515,441.3,511.5,432.9,506.1,426.9z"/>
				</g>
				<g class="st2">
					<path class="st3" d="M484.3,417.5c9-0.4,17.1,3.7,22.8,10.6c-5.1-4-11.4-6.2-18-5.9c-16.6,0.8-29.6,17.1-29,36.2
						c0.3,8.9,3.4,16.8,8.3,22.7c-7.6-5.9-12.8-15.9-13.1-27.4C454.7,434.5,467.7,418.3,484.3,417.5z"/>
				</g>
				<g>
					<path class="st3" d="M484.7,524.4c-15.4,0-30-6.6-41.3-18.8c-12.2-13-19.2-30.9-19.8-50.3c-0.6-19.4,5.4-37.9,16.8-52.1
						c11.2-14,26.5-22.2,42.8-23l0.2,5.8l-0.2-5.8c16.4-0.8,32,5.8,44,18.7c12.2,13,19.2,30.9,19.8,50.3s-5.4,37.9-16.8,52.1
						c-11.2,14-26.5,22.2-42.8,23C486.5,524.4,485.6,524.4,484.7,524.4z M485.9,391.7c-0.8,0-1.6,0-2.4,0.1
						c-14.2,0.7-27.4,7.8-37,19.8c-9.5,11.9-14.5,27.3-14,43.3s6.3,30.8,16.5,41.8c10.3,11.1,23.9,16.8,38.1,16.1s27.4-7.8,37-19.8
						c9.5-11.9,14.5-27.3,14-43.3s-6.3-30.8-16.5-41.8C511.8,397.4,499.2,391.7,485.9,391.7z"/>
				</g>
			</g>
			<g>
				<g>
					<path class="st3" d="M536.6,579.7c-2.3,0-4.3-2.2-4.7-5.3c-0.9-7.5,0.9-14.5,5-19.8c5.9-7.6,16.1-10.7,27.4-8.3
						c3.9,0.8,7.2,0.9,10.1,0.1c8.2-2.2,13.9-8.8,15.7-17.9c1.6-8.2-0.2-16.6-4.6-21.6c-5.1-5.7-12.9-6.1-22-1.1
						c-2.4,1.3-5.2-0.1-6.2-3.3c-1-3.1,0.1-6.8,2.5-8.1c17-9.4,27.2-2.1,31.8,3.1c7.1,8,10.1,21.4,7.6,34.1
						c-2.7,13.7-11.3,23.7-22.9,26.9c-4.1,1.1-8.5,1.1-13.6,0c-8.1-1.7-15.5,0.1-19.2,4.9c-1.9,2.5-2.7,5.5-2.3,9.1
						c0.4,3.4-1.4,6.5-4,7C537.1,579.6,536.9,579.7,536.6,579.7z"/>
				</g>
				<g>
					<path class="st3" d="M431.2,535.2c-1.2,0-2.5-0.6-3.4-1.9c-1.8-2.4-1.8-6.4,0.1-8.7c2-2.5,2.8-5.6,2.4-9.1
						c-0.8-6.8-5.7-14.1-13-19.1c-4.5-3.1-8.1-6.6-10.8-10.8c-7.8-11.7-10-26.5-5.9-39.6c3.8-12.1,12.4-20.4,21.8-21.2
						c6-0.5,17.6,1.7,26.8,22.6c1.3,3,0.5,6.7-1.7,8.4c-2.3,1.7-5.1,0.7-6.5-2.3c-4.9-11.2-11.4-17-18-16.5
						c-5.8,0.5-11.2,5.8-13.7,13.6c-2.8,8.7-1.2,18.5,4.3,26.7c2,3,4.6,5.6,8.1,8c10.1,6.9,16.8,17.5,18,28.3
						c0.8,7.4-1,14.4-5.1,19.7C433.5,534.6,432.3,535.2,431.2,535.2z"/>
				</g>
				<g>
					<path class="st4" d="M568.5,473.6l-3,8.4l-23.8,67.4c-11.6,32.9-40.1,49.3-66.5,38.3c-26.5-11-42.6-46.4-37.3-82.2l10.7-72.2
						l1.3-9.1L568.5,473.6z"/>
				</g>
				<g>
					<path class="st7" d="M546.1,537.2l-4.3,12.2c-11.6,32.9-40.1,49.3-66.5,38.3c-26.5-11-42.6-46.4-37.3-82.2l10.7-72.2l1.3-9.1
						l10.3,4.3l-6.4,43.4c-5.3,35.8,10.7,71.1,37.3,82.2C510.9,562.4,531.9,555.2,546.1,537.2z"/>
				</g>
				<g>
					<path class="st3" d="M491.8,597.3c-6,0-12-1.2-18-3.7l0,0c-28.8-12-46.2-50.4-40.5-89.2l10.2-69c0.7-4.9,3-9.1,6.2-11.6
						c3.3-2.5,7.2-3.1,10.8-1.6l102.1,42.5c3.1,1.3,5.7,4.3,7,8.3s1.3,8.5-0.1,12.4L546,552C536.1,580.2,514.5,597.3,491.8,597.3z
						 M476.7,581.8c24,10,50.2-5.1,60.8-35l23.6-66.7c0.3-1,0.2-1.8,0-2.2c-0.1-0.4-0.5-1.2-1.3-1.5l-102.1-42.5
						c-1-0.4-2.1-0.3-3.1,0.5c-0.9,0.7-1.6,1.9-1.8,3.3l-10.2,69C437.8,539.4,452.4,571.7,476.7,581.8L476.7,581.8z"/>
				</g>
				<g class="st2">
					<path class="st6" d="M527,527.1c-4.9-3.1-5.5-15-1.3-26.7s11.6-18.6,16.6-15.6c4.9,3.1,1.7,12.6-2.5,24.3
						C535.5,520.8,531.9,530.2,527,527.1z"/>
				</g>
			</g>
			<g>
				<g>
					<path class="st4" d="M382.9,397.5c31.6-1.6,58.1,26.8,59.2,63.4s-23.7,67.6-55.3,69.1c-31.6,1.6-58.1-26.8-59.2-63.4
						C326.5,430.1,351.2,399.1,382.9,397.5z"/>
					<path class="st3" d="M384.2,531.1c-30.9,0-56.4-28.3-57.5-64.4c-1.1-37.1,24.1-68.6,56.1-70.2c32-1.6,58.9,27.3,60,64.4
						c0.5,18-5,35.2-15.6,48.4s-24.9,20.9-40.4,21.7C385.9,531.1,385.1,531.1,384.2,531.1z M385.4,398.4c-0.8,0-1.6,0-2.5,0.1
						c-31.2,1.6-55.7,32.1-54.6,68.1c1,36,27.2,64,58.4,62.5c15.1-0.8,29.1-8.3,39.4-21.2s15.7-29.5,15.2-47
						C440.3,425.9,415.4,398.4,385.4,398.4z"/>
				</g>
				<g class="st5">
					<path class="st6" d="M423.1,415.2c-8.9-5.6-19.1-8.7-30-8.1c-12,0.6-23,5.4-32,13.2c7,10.9-5,25-14.4,18c-6,11-9.3,24-8.9,37.9
						c0.5,18.2,7.3,34.3,17.9,45.7c-16.8-10.8-28.4-31.2-29.1-55.2c-1.1-36.6,23.7-67.6,55.3-69.1
						C397.8,396.8,412.4,403.6,423.1,415.2z"/>
				</g>
				<g>
					<path class="st7" d="M383.8,429.1c16.6-0.8,30.5,14.1,31,33.3c0.6,19.2-12.4,35.4-29,36.2s-30.5-14.1-31-33.3
						C354.2,446.1,367.2,429.9,383.8,429.1z"/>
				</g>
				<g class="st5">
					<path class="st6" d="M405.6,438.5c7.1,6,11.8,15.6,12.1,26.6c0.2,7.9-1.8,15.3-5.5,21.3c4.3,7.1-4.1,15.8-9.7,10.3
						c-4.1,2.8-8.8,4.4-13.8,4.7c-8.5,0.4-16.3-3.3-21.9-9.6c5.3,4.6,11.9,7.1,19,6.8c16.6-0.8,29.6-17.1,29-36.3
						C414.5,452.9,411,444.5,405.6,438.5z"/>
				</g>
				<g class="st2">
					<path class="st3" d="M383.8,429.1c9-0.4,17.1,3.7,22.8,10.6c-5.1-4-11.4-6.2-18-5.9c-16.6,0.8-29.6,17.1-29,36.2
						c0.3,8.9,3.4,16.8,8.3,22.7c-7.6-5.9-12.8-15.9-13.1-27.4C354.2,446.1,367.2,429.9,383.8,429.1z"/>
				</g>
				<g>
					<path class="st3" d="M384.2,536c-32.8,0-60-30.4-61.1-69.1c-1.2-39.8,25.6-73.5,59.6-75.2c34-1.7,62.7,29.3,63.8,69
						c0.6,19.4-5.4,37.9-16.8,52.1c-11.2,14-26.4,22.2-42.8,23C386,535.9,385.1,536,384.2,536z M385.4,403.3c-0.8,0-1.5,0-2.3,0.1
						c-29.1,1.5-52,29.8-51.1,63.1c1,33.3,25.4,59.3,54.6,57.8c14.2-0.7,27.4-7.8,37-19.8c9.5-11.9,14.5-27.3,14-43.3
						C436.7,428.7,413.5,403.3,385.4,403.3z"/>
				</g>
			</g>
			<g>
				<g>
					<path class="st4" d="M113.4,400.5c31.6-1.6,58.1,26.8,59.2,63.4s-23.7,67.6-55.3,69.1c-31.6,1.6-58.1-26.8-59.2-63.4
						S81.8,402,113.4,400.5z"/>
					<path class="st3" d="M114.8,534.1c-30.9,0-56.4-28.3-57.5-64.4c-1.1-37.1,24.1-68.6,56.1-70.2l0,0c32-1.6,58.9,27.3,60,64.4
						c0.5,18-5,35.2-15.6,48.4s-24.9,20.9-40.4,21.7C116.5,534.1,115.6,534.1,114.8,534.1z M113.4,401.4
						c-31.2,1.6-55.7,32.1-54.6,68.1c1,36,27.3,64,58.4,62.5c15.1-0.8,29.1-8.3,39.4-21.2s15.7-29.5,15.2-47
						C170.8,427.9,144.6,399.9,113.4,401.4L113.4,401.4z M113.4,400.5L113.4,400.5L113.4,400.5z"/>
				</g>
				<g class="st5">
					<path class="st6" d="M153.7,418.1c-8.9-5.6-19.1-8.7-30-8.1c-12,0.6-23,5.4-32,13.2c7,10.9-5,25-14.4,18c-6,11-9.3,24-8.9,37.9
						c0.5,18.2,7.3,34.3,17.9,45.7c-16.8-10.8-28.4-31.2-29.1-55.2c-1.1-36.6,23.7-67.6,55.3-69.1
						C128.4,399.7,143,406.5,153.7,418.1z"/>
				</g>
				<g>
					<path class="st7" d="M114.3,432c16.6-0.8,30.5,14.1,31,33.3c0.6,19.2-12.4,35.4-29,36.2s-30.5-14.1-31-33.3
						S97.8,432.8,114.3,432z"/>
				</g>
				<g class="st5">
					<path class="st6" d="M136.1,441.5c7.1,6,11.8,15.6,12.1,26.6c0.2,7.9-1.8,15.3-5.5,21.3c4.3,7.1-4.1,15.8-9.7,10.3
						c-4.1,2.8-8.8,4.4-13.8,4.7c-8.5,0.4-16.3-3.3-21.9-9.6c5.3,4.6,11.9,7.1,19,6.8c16.6-0.8,29.6-17.1,29-36.3
						C145.1,455.8,141.6,447.4,136.1,441.5z"/>
				</g>
				<g class="st2">
					<path class="st3" d="M114.3,432c9-0.4,17.1,3.7,22.8,10.6c-5.1-4-11.4-6.2-18-5.9c-16.6,0.8-29.6,17.1-29,36.2
						c0.3,8.9,3.4,16.8,8.3,22.7c-7.6-5.9-12.8-15.9-13.1-27.4C84.8,449,97.8,432.8,114.3,432z"/>
				</g>
				<g>
					<path class="st3" d="M114.8,538.9c-32.8,0-60-30.4-61.1-69.1c-1.2-39.8,25.6-73.5,59.6-75.2l0,0c34.1-1.7,62.7,29.3,63.8,69
						c0.6,19.4-5.4,37.9-16.8,52.1c-11.2,14-26.4,22.2-42.8,23C116.6,538.9,115.7,538.9,114.8,538.9z M113.6,406.3
						c-29.1,1.5-52,29.8-51.1,63.1c1,33.3,25.4,59.3,54.6,57.8c14.2-0.7,27.4-7.8,37-19.8c9.5-11.9,14.5-27.3,14-43.3
						C167.2,430.8,142.8,404.8,113.6,406.3L113.6,406.3z M113.4,400.5L113.4,400.5L113.4,400.5z"/>
				</g>
			</g>
			<g>
				<g>
					<polygon class="st8" points="267.2,390.5 243.2,511 153.7,469 164,425.9 234.1,377.4 					"/>
				</g>
				<g class="st5">
					<polygon class="st6" points="243.2,511 235.1,412.6 212.5,392.4 234.1,377.4 267.2,390.5 					"/>
				</g>
				<g class="st5">
					<polygon class="st6" points="267.2,390.5 264.8,402.2 233.6,389.7 163.4,438.3 155.8,470 153.7,469 164,425.9 234.1,377.4 
											"/>
				</g>
				<g>
					<path class="st3" d="M243.2,517.1c-0.5,0-1.1-0.1-1.6-0.4l-89.5-42c-2.4-1.1-3.7-4.5-2.9-7.7l10.3-43.1
						c0.4-1.6,1.2-2.9,2.3-3.6l70.1-48.5c1.1-0.8,2.4-0.9,3.6-0.5l33,13.1c2.4,1,3.8,4.3,3.2,7.5l-23.9,120.6
						c-0.3,1.7-1.2,3.1-2.4,3.9C244.7,516.9,244,517.1,243.2,517.1z M159.6,465.2l80.4,37.7l21.5-108.2l-26.8-10.6L168,430.2
						L159.6,465.2z"/>
				</g>
				<g>
					<path class="st3" d="M153.7,475.2c-1.7,0-3.3-1.2-4.2-3.3c-1.2-3-0.3-6.8,2-8.4L265,385c2.3-1.6,5.2-0.4,6.4,2.6
						c1.2,3,0.3,6.8-2,8.4l-113.5,78.5C155.2,474.9,154.4,475.2,153.7,475.2z"/>
				</g>
				<g>
					<path class="st3" d="M243.2,517.1c-2.4,0-4.4-2.4-4.7-5.5l-7.8-95.5l-20.9-18.6c-2.2-1.9-2.7-5.8-1.2-8.6
						c1.5-2.8,4.4-3.6,6.6-1.6l22.7,20.3c1.1,1,1.9,2.6,2,4.4l8.1,98.3c0.3,3.4-1.6,6.4-4.2,6.8
						C243.5,517.1,243.4,517.1,243.2,517.1z"/>
				</g>
				<g>
					<path class="st3" d="M243.2,517.1c-1.1,0-2.2-0.5-3.1-1.5l-57.5-64.1c-1.1-1.2-1.7-2.9-1.7-4.7v-35.9c0-3.4,2.1-6.2,4.7-6.2
						l0,0c2.6,0,4.7,2.8,4.7,6.2V444l55.8,62.3c2,2.2,2.2,6.1,0.5,8.7C245.9,516.4,244.5,517.1,243.2,517.1z"/>
				</g>
				<g class="st2">
					<polygon class="st3" points="243.2,511 153.7,469 164,425.9 185.7,410.9 185.7,446.8 					"/>
				</g>
			</g>
			<g>
				<g>
					<path class="st4" d="M257.4,475.2c28.3,18.7,41,60.3,28.4,93s-45.7,44.1-74,25.5c-28.3-18.7-41-60.3-28.4-93
						S229.1,456.6,257.4,475.2z"/>
					<path class="st3" d="M240,603.6c-9.7,0-19.5-3.1-28.6-9.1c-13.8-9.1-24.4-24-29.9-41.7c-5.4-17.8-5-36.5,1.2-52.6
						c12.8-33.1,46.4-44.8,75-25.9c13.8,9.1,24.4,24,29.9,41.7c5.4,17.8,5,36.5-1.2,52.6s-17.4,27.6-31.6,32.5
						C250,602.8,245,603.6,240,603.6z M229.1,467.2c-19.1,0-36.7,12.2-45.1,33.9c-6,15.6-6.4,33.7-1.1,51
						c5.3,17.3,15.6,31.8,29.2,40.7c13.5,8.9,28.5,11.2,42.3,6.5c13.8-4.7,24.6-15.9,30.6-31.5s6.4-33.7,1.1-51
						s-15.6-31.8-29.2-40.7C248,470.1,238.4,467.2,229.1,467.2z"/>
				</g>
				<g class="st5">
					<path class="st6" d="M286.1,516.2c-5.7-10.5-13.5-19.7-23.3-26.1c-10.7-7.1-22.2-9.8-32.9-8.7c2.1,13.9-13.7,18.7-19.3,6.6
						c-9.3,5.8-17,15.1-21.8,27.5c-6.3,16.2-6.3,34.6-1.2,51.3c-10.7-20.1-13.3-45.3-5.1-66.8c12.6-32.7,45.7-44.1,74-25.5
						C270.7,484,281,499.2,286.1,516.2z"/>
				</g>
				<g>
					<path class="st7" d="M246.5,503.4c14.8,9.8,21.5,31.6,14.9,48.8s-24,23.1-38.8,13.3s-21.5-31.6-14.9-48.8
						C214.3,499.6,231.7,493.6,246.5,503.4z"/>
				</g>
				<g class="st5">
					<path class="st6" d="M262.1,525.5c4,9.7,4.5,21.1,0.8,30.9c-2.7,7-7.2,12.2-12.7,15.2c1.1,8.9-9.4,11.2-12.3,2.9
						c-4.6-0.2-9.3-1.7-13.8-4.7c-7.6-5-13-13.2-15.6-22.2c2.9,7.3,7.8,13.8,14.2,18c14.8,9.8,32.2,3.8,38.8-13.4
						C264.6,543.7,264.7,534.2,262.1,525.5z"/>
				</g>
				<g class="st2">
					<path class="st3" d="M246.5,503.4c8,5.3,13.6,14.1,16,23.8c-3-6.8-7.6-12.7-13.6-16.6c-14.8-9.8-32.2-3.8-38.8,13.3
						c-3,7.9-3.2,16.9-1.1,25.1c-4.5-10-5.3-22-1.3-32.3C214.3,499.6,231.7,493.6,246.5,503.4z"/>
				</g>
				<g>
					<path class="st3" d="M240,608.5c-10.2,0-20.6-3.2-30.3-9.6c-14.6-9.7-25.9-25.4-31.6-44.3c-5.8-19.1-5.4-39.2,1.3-56.5
						c13.7-35.5,49.5-48.1,79.9-28c14.6,9.7,25.9,25.4,31.6,44.3c5.8,19.1,5.4,39.2-1.3,56.5s-18.7,29.8-34,35
						C250.6,607.6,245.3,608.5,240,608.5z M229.1,472.1c-17.8,0-34,11.2-41.7,31.2c-5.5,14.3-5.9,31-1,47
						c5,16.2,14.7,29.8,27.4,38.2s26.8,10.6,39.7,6.1c12.7-4.4,22.8-14.7,28.3-29s5.9-31,1-47c-5-16.2-14.7-29.8-27.4-38.2
						C246.8,474.8,237.8,472.1,229.1,472.1z"/>
				</g>
			</g>
			<g>
				<g>
					<path class="st4" d="M326.1,416.5c28.3,18.7,41,60.3,28.4,93s-45.7,44.1-74,25.5c-28.3-18.7-41-60.3-28.4-93
						C264.8,409.2,297.9,397.8,326.1,416.5z"/>
				</g>
				<g class="st5">
					<path class="st6" d="M354.9,457.5c-5.7-10.5-13.5-19.7-23.3-26.1c-10.7-7.1-22.2-9.8-32.9-8.7c2.1,13.9-13.7,18.7-19.3,6.6
						c-9.3,5.8-17,15.1-21.8,27.5c-6.3,16.2-6.3,34.6-1.2,51.3c-10.7-20.1-13.3-45.3-5.1-66.8c12.6-32.7,45.7-44.1,74-25.5
						C339.5,425.3,349.8,440.5,354.9,457.5z"/>
				</g>
				<g>
					<path class="st7" d="M315.3,444.7c14.8,9.8,21.5,31.6,14.9,48.8c-6.6,17.2-24,23.1-38.8,13.3s-21.5-31.6-14.9-48.8
						C283.1,440.9,300.5,434.9,315.3,444.7z"/>
				</g>
				<g class="st5">
					<path class="st6" d="M330.9,466.8c4,9.7,4.5,21.1,0.8,30.9c-2.7,7-7.2,12.2-12.7,15.2c1.1,8.9-9.4,11.2-12.3,2.9
						c-4.6-0.2-9.3-1.7-13.8-4.7c-7.6-5-13-13.2-15.6-22.2c2.9,7.3,7.8,13.8,14.2,18c14.8,9.8,32.2,3.8,38.8-13.4
						C333.4,485,333.5,475.4,330.9,466.8z"/>
				</g>
				<g class="st2">
					<path class="st3" d="M315.3,444.7c8,5.3,13.6,14.1,16,23.8c-3-6.8-7.6-12.7-13.6-16.6c-14.8-9.8-32.2-3.8-38.8,13.3
						c-3,7.9-3.2,16.9-1.1,25.1c-4.5-10-5.3-22-1.3-32.3C283.1,440.9,300.5,434.9,315.3,444.7z"/>
				</g>
				<g>
					<path class="st3" d="M308.8,549.7c-10,0-20.4-3.1-30.2-9.6c-14.6-9.7-25.9-25.4-31.6-44.3c-5.8-19.1-5.4-39.2,1.3-56.5
						c13.7-35.5,49.5-48.1,80-28c14.6,9.7,25.9,25.4,31.6,44.3c5.8,19.1,5.4,39.2-1.3,56.5C349.2,536.2,329.8,549.7,308.8,549.7z
						 M297.9,413.4c-17.8,0-34,11.2-41.7,31.2c-5.5,14.3-5.9,31-1,47c5,16.2,14.7,29.8,27.4,38.2c26,17.2,56.6,6.9,68-22.9
						c5.5-14.3,5.9-31,1-47c-5-16.2-14.7-29.8-27.4-38.2C315.6,416,306.6,413.4,297.9,413.4z"/>
				</g>
			</g>
			<g>
				<g>
					<path class="st4" d="M438.9,516.8c15.6,36.1,8.5,79.9-15.8,98s-56.7,3.5-72.3-32.6s-8.5-79.9,15.8-98
						C390.9,466.2,423.3,480.8,438.9,516.8z"/>
					<path class="st3" d="M400.5,623.6c-5.6,0-11.3-1.3-17-3.8c-13.8-6.2-25.7-19.4-33.3-37c-7.6-17.6-10.2-37.7-7.2-56.4
						c3-18.8,11.3-34,23.2-42.9c12-8.9,26.2-10.3,40.1-4.1c13.8,6.2,25.7,19.4,33.3,37l0,0c7.6,17.6,10.2,37.7,7.2,56.4
						c-3,18.8-11.3,34-23.2,42.9C416.4,620.9,408.6,623.6,400.5,623.6z M389.3,477.5c-7.9,0-15.5,2.6-22.3,7.7
						c-11.6,8.6-19.6,23.4-22.5,41.6c-2.9,18.3-0.5,37.8,7,55.1c7.5,17.2,19,30.1,32.5,36.1c13.5,6.1,27.2,4.7,38.8-3.9
						c11.6-8.6,19.6-23.4,22.5-41.6c2.9-18.3,0.5-37.8-7-55.1l0,0c-7.5-17.2-19-30.1-32.5-36.1C400.3,478.7,394.7,477.5,389.3,477.5
						z"/>
				</g>
				<g class="st5">
					<path class="st6" d="M445.5,571.8c-0.3-12.9-2.9-26.2-8.3-38.6c-5.9-13.7-14.3-24.3-23.7-31.1c-4.2,13.1-19.3,5.6-18.8-8.5
						c-10.2-1.9-20.6,0.2-29.8,7.1c-12.1,9-19.9,24.2-22.8,41.8c-0.4-24.5,8.1-47.4,24.1-59.2c24.3-18.1,56.7-3.5,72.3,32.6
						C446.3,533.9,448.4,554,445.5,571.8z"/>
				</g>
				<g>
					<path class="st7" d="M418,532.4c8.2,18.9,4.5,41.9-8.3,51.4s-29.7,1.8-37.9-17.1c-8.2-18.9-4.5-41.9,8.3-51.4
						S409.8,513.5,418,532.4z"/>
				</g>
				<g class="st5">
					<path class="st6" d="M421.6,562.1c-0.8,11-5.2,20.9-12.5,26.3c-5.2,3.9-11.2,4.9-17,3.4c-2.8,8.2-12.6,2.5-11.5-6.6
						c-3.7-3.5-7-8.2-9.5-13.9c-4.2-9.7-5.3-20.4-3.6-29.9c-0.7,8.2,0.6,17.1,4.2,25.2c8.2,18.9,25.2,26.5,37.9,17
						C416,579.1,420,571.2,421.6,562.1z"/>
				</g>
				<g class="st2">
					<path class="st3" d="M418,532.4c4.4,10.2,5.4,21.6,3.3,31.4c0.4-7.8-1-16.1-4.3-23.7c-8.2-18.9-25.2-26.5-37.9-17.1
						c-5.9,4.4-9.8,11.7-11.6,20.1c0.5-11.6,4.9-22.1,12.6-27.8C392.8,505.9,409.8,513.5,418,532.4z"/>
				</g>
				<g>
					<path class="st3" d="M400.5,628.4c-6,0-12.1-1.4-18.2-4.1c-14.7-6.6-27.2-20.5-35.3-39.2c-8.1-18.7-10.8-39.9-7.6-59.8
						c3.2-20.2,12.1-36.5,25-46.1s28.2-11.2,43.1-4.5c14.7,6.6,27.2,20.5,35.3,39.2l0,0c8.1,18.7,10.8,39.9,7.6,59.8
						c-3.2,20.2-12.1,36.5-25,46.1C417.7,625.6,409.2,628.4,400.5,628.4z M389.3,482.3c-7.2,0-14.2,2.4-20.5,7
						c-10.6,7.9-18,21.5-20.7,38.4c-2.8,17.1-0.4,35.5,6.6,51.7s17.8,28.3,30.5,33.9c12.4,5.6,25.2,4.3,35.8-3.6
						c10.6-7.9,18-21.5,20.7-38.4c2.8-17.1,0.4-35.5-6.6-51.7l0,0c-7-16.2-17.8-28.3-30.5-33.9C399.5,483.5,394.3,482.3,389.3,482.3
						z"/>
				</g>
			</g>
			<g>
				<g>
					<polygon class="st8" points="369.1,482.5 311.4,581.5 241.3,497.4 263.6,462.9 342.6,453.7 					"/>
				</g>
				<g class="st5">
					<polygon class="st6" points="311.4,581.5 333.1,486.7 318.1,456.5 342.6,453.7 369.1,482.5 					"/>
				</g>
				<g class="st5">
					<polygon class="st6" points="369.1,482.5 363.5,492.2 338.4,464.8 259.4,474 243,499.4 241.3,497.4 263.6,462.9 342.6,453.7 
											"/>
				</g>
				<g>
					<path class="st3" d="M311.4,587.7c-1.2,0-2.3-0.6-3.2-1.6L238.1,502c-1.9-2.2-2.1-6-0.4-8.6l22.3-34.5c0.8-1.2,2-2,3.2-2.2
						l79-9.2c1.2-0.1,2.5,0.4,3.4,1.4l26.6,28.8c2,2.1,2.3,5.9,0.7,8.5l-57.7,99c-0.8,1.4-2,2.3-3.3,2.4
						C311.7,587.7,311.6,587.7,311.4,587.7z M247.8,496.8l63,75.5l51.8-88.9L341,460l-75.1,8.7L247.8,496.8z"/>
				</g>
				<g>
					<path class="st3" d="M241.3,503.6c-2.4,0-4.5-2.4-4.7-5.6c-0.2-3.4,1.7-6.4,4.3-6.7l127.8-14.8c2.6-0.3,4.9,2.2,5.1,5.6
						s-1.7,6.4-4.3,6.7l-127.8,14.7C241.6,503.6,241.4,503.6,241.3,503.6z"/>
				</g>
				<g>
					<path class="st3" d="M311.4,587.7c-0.4,0-0.9-0.1-1.4-0.3c-2.5-1-3.9-4.4-3.2-7.7l21-92l-13.7-27.8c-1.4-2.9-0.8-6.7,1.4-8.6
						c2.2-1.9,5.1-1,6.5,1.8l14.9,30.2c0.8,1.5,1,3.4,0.6,5.1l-21.6,94.8C315.3,585.9,313.5,587.7,311.4,587.7z"/>
				</g>
				<g>
					<path class="st3" d="M311.4,587.7c-1.7,0-3.4-1.2-4.2-3.4l-34-88.3c-0.6-1.6-0.7-3.5-0.1-5.2l10.6-33.1c1-3.1,3.8-4.6,6.2-3.3
						c2.4,1.3,3.5,4.9,2.5,8.1l-9.8,30.5l33.1,85.7c1.2,3,0.2,6.8-2.1,8.3C312.9,587.5,312.1,587.7,311.4,587.7z"/>
				</g>
				<g class="st2">
					<polygon class="st9" points="311.4,581.5 241.3,497.4 263.6,462.9 288,460 277.4,493.2 					"/>
					<path class="st3" d="M311.4,582.5c-0.2,0-0.4-0.1-0.5-0.3l-70.1-84.1c-0.3-0.4-0.3-1-0.1-1.4l22.3-34.5
						c0.1-0.2,0.3-0.3,0.5-0.3l24.4-2.8c0.3,0,0.5,0.1,0.7,0.4s0.2,0.6,0.1,1l-10.5,32.7l33.9,87.9c0.2,0.4,0.1,0.9-0.2,1.2
						C311.7,582.4,311.6,582.5,311.4,582.5z M242.3,497.3l66.6,79.9l-32.2-83.5c-0.1-0.3-0.1-0.6,0-0.8l10.1-31.6l-22.9,2.7
						L242.3,497.3z"/>
				</g>
			</g>
			<g>
				<g>
					<path class="st4" d="M129.4,464.4c31.6-1.6,58.1,26.8,59.2,63.4c1.1,36.6-23.7,67.6-55.3,69.1c-31.6,1.6-58.1-26.8-59.2-63.4
						C73,497,97.8,466,129.4,464.4z"/>
					<path class="st3" d="M130.8,598c-14.5,0-28.3-6.2-39-17.7c-11.3-12.2-17.9-28.8-18.4-46.8s5-35.2,15.6-48.4
						c10.6-13.2,24.9-20.9,40.4-21.7l0,0c15.4-0.8,30.2,5.5,41.6,17.6c11.3,12.2,17.9,28.8,18.4,46.8s-5,35.2-15.6,48.4
						s-24.9,20.9-40.4,21.7C132.5,598,131.6,598,130.8,598z M129.5,465.4c-15.1,0.8-29.1,8.3-39.4,21.2
						c-10.3,12.9-15.7,29.5-15.2,47c0.5,17.4,6.9,33.5,17.9,45.3s25.4,17.9,40.6,17.2c15.1-0.8,29.1-8.3,39.4-21.2
						c10.3-12.9,15.7-29.5,15.2-47c-0.5-17.4-6.9-33.5-17.9-45.3C159,470.7,144.6,464.7,129.5,465.4L129.5,465.4z"/>
				</g>
				<g class="st5">
					<path class="st6" d="M169.7,482.1c-8.9-5.6-19.1-8.7-30-8.1c-12,0.6-23,5.4-32,13.2c7,10.9-5,25-14.4,18c-6,11-9.3,24-8.9,37.9
						c0.5,18.2,7.3,34.3,17.9,45.7c-16.8-10.8-28.4-31.2-29.1-55.2c-1.1-36.6,23.7-67.6,55.3-69.1
						C144.4,463.7,159,470.5,169.7,482.1z"/>
				</g>
				<g>
					<path class="st7" d="M130.4,496c16.6-0.8,30.5,14.1,31,33.3c0.6,19.2-12.4,35.4-29,36.2s-30.5-14.1-31-33.3
						C100.8,513,113.8,496.8,130.4,496z"/>
				</g>
				<g class="st5">
					<path class="st6" d="M152.2,505.4c7.1,6,11.8,15.6,12.1,26.6c0.2,7.9-1.8,15.3-5.5,21.3c4.3,7.1-4.1,15.8-9.7,10.3
						c-4.1,2.8-8.8,4.4-13.8,4.7c-8.5,0.4-16.3-3.3-21.9-9.6c5.3,4.6,11.9,7.1,19,6.8c16.6-0.8,29.6-17.1,29-36.3
						C161.1,519.8,157.6,511.4,152.2,505.4z"/>
				</g>
				<g class="st2">
					<path class="st3" d="M130.4,495.9c9-0.4,17.1,3.7,22.8,10.6c-5.1-4-11.4-6.2-18-5.9c-16.6,0.8-29.6,17.1-29,36.2
						c0.3,8.9,3.4,16.8,8.3,22.7c-7.6-5.9-12.8-15.9-13.1-27.4C100.8,513,113.8,496.8,130.4,495.9z"/>
				</g>
				<g>
					<path class="st3" d="M130.8,602.9c-15.4,0-30-6.6-41.3-18.8c-12.2-13-19.2-30.9-19.8-50.3c-0.6-19.4,5.4-37.9,16.8-52.1
						c11.2-14,26.5-22.2,42.8-23l0,0c16.4-0.8,32,5.8,44,18.7c12.2,13,19.2,30.9,19.8,50.3s-5.4,37.9-16.8,52.1
						c-11.2,14-26.5,22.2-42.8,23C132.6,602.8,131.7,602.9,130.8,602.9z M129.6,470.2c-14.2,0.7-27.4,7.8-37,19.8
						c-9.5,11.9-14.5,27.3-14,43.3s6.3,30.8,16.5,41.8c10.3,11.1,23.9,16.8,38.1,16.1s27.4-7.8,37-19.8c9.5-11.9,14.5-27.3,14-43.3
						s-6.3-30.8-16.5-41.8C157.4,475.2,143.8,469.5,129.6,470.2L129.6,470.2z"/>
				</g>
			</g>
			<g>
				<g>
					<path class="st4" d="M115.7,580.5l-74.9-48.7c-4.4-2.8-6.1-9.8-4-15.5l7.5-19.8c2.2-5.7,7.5-8,11.8-5.2L131,540
						c4.4,2.8,6.1,9.8,4,15.5l-7.5,19.8C125.3,581,120,583.3,115.7,580.5z"/>
				</g>
				<g class="st5">
					<polygon class="st6" points="102.1,570.1 89.1,561.6 103.8,522.8 116.8,531.3 					"/>
				</g>
				<g>
					<polygon class="st7" points="58.4,541.6 34.3,526 49.1,487.2 73.1,502.8 					"/>
				</g>
				<g class="st5">
					<polygon class="st6" points="114.8,579.4 107.2,574.5 122,535.7 129.5,540.6 					"/>
				</g>
				<g>
					<path class="st3" d="M119.6,587.9c-2.1,0-4.1-0.6-6-1.9l0,0l-74.9-48.7c-3.2-2.1-5.7-5.7-6.8-10.2c-1.2-4.5-0.9-9.3,0.7-13.5
						l7.5-19.8c3.3-8.8,11.5-12.3,18.1-8l74.9,48.7c3.2,2.1,5.7,5.7,6.8,10.2c1.2,4.5,0.9,9.3-0.7,13.5l-7.5,19.8
						c-1.6,4.2-4.4,7.4-7.8,8.9C122.5,587.6,121,587.9,119.6,587.9z M117.8,574.9c1,0.6,2.1,0.7,3.1,0.3c1-0.5,1.9-1.4,2.4-2.7
						l7.5-19.8c0.5-1.3,0.6-2.7,0.2-4.1c-0.3-1.4-1.1-2.5-2.1-3.1L54,496.8c-2-1.3-4.5-0.2-5.5,2.4L41,519c-0.5,1.3-0.6,2.7-0.2,4.1
						c0.3,1.4,1.1,2.5,2.1,3.1L117.8,574.9z"/>
				</g>
			</g>
			<g>
				<g>
					<path class="st4" d="M389,557.9l-80.1,31.4c-4.7,1.8-9.6-1.6-11-7.7l-4.8-21.2c-1.4-6.1,1.3-12.5,5.9-14.4l80.1-31.4
						c4.7-1.8,9.6,1.6,11,7.7l4.8,21.2C396.3,549.7,393.7,556.1,389,557.9z"/>
				</g>
				<g class="st5">
					<polygon class="st6" points="373.7,562.5 359.8,567.9 350.3,526.4 364.2,521 					"/>
				</g>
				<g>
					<polygon class="st7" points="326.9,580.8 301.2,590.9 291.7,549.4 317.4,539.3 					"/>
				</g>
				<g class="st5">
					<polygon class="st6" points="387.8,557.9 379.7,561.1 370.2,519.6 378.3,516.4 					"/>
				</g>
				<g>
					<path class="st3" d="M306.4,596c-2.2,0-4.4-0.7-6.4-2.1c-3.2-2.2-5.5-6-6.5-10.5l-4.9-21.2c-2.1-9.4,1.9-19.3,9.1-22.1
						l80.1-31.4c3.5-1.4,7.1-0.9,10.3,1.4c3.2,2.2,5.5,6,6.5,10.5l4.9,21.2c1,4.5,0.7,9.3-1.1,13.5c-1.7,4.2-4.6,7.2-8,8.6
						l-80.1,31.4C309,595.8,307.7,596,306.4,596z M381.6,520.3c-0.4,0-0.8,0.1-1.2,0.2l-80.1,31.4c-2.2,0.8-3.4,3.8-2.7,6.7
						l4.9,21.2c0.3,1.4,1,2.5,2,3.2s2.1,0.8,3.1,0.4l80.1-31.4l0,0c1-0.4,1.9-1.3,2.4-2.6s0.6-2.7,0.3-4.1l-4.9-21.2
						c-0.3-1.4-1-2.5-2-3.2C383,520.6,382.3,520.3,381.6,520.3z"/>
				</g>
			</g>
			<g>
				<g>
					<path class="st10" d="M549.2,654.7l-11.3,166.8c-4.3-1.4-8.8-2.2-13.4-2.2c-5.2,0-10.3,1-15.1,2.8c-16.1,6.2-29,22-34.8,42.3
						c-2.2,7.7-3.4,16-3.4,24.7c0,4.2,0.3,8.4,0.9,12.4H141.8c0.6-4,0.9-8.2,0.9-12.4c0-8.7-1.2-17-3.4-24.7
						c-6-20.7-19.3-36.7-35.7-42.6c-4.5-1.6-9.3-2.5-14.2-2.5c-5,0-9.7,0.9-14.3,2.5L64.4,654c3.8,1.1,7.6,1.7,11.6,1.7
						c5.8,0,11.4-1.2,16.7-3.5c18.1-7.8,31.9-27.9,35.6-52.8c0.7-4.4,1-8.9,1-13.5c0-8.3-1.1-16.2-3.1-23.6h364
						c-2,7.4-3.1,15.3-3.1,23.6c0,4.6,0.3,9.1,1,13.5c3.5,23.6,16.2,43,33,51.6c6,3.1,12.5,4.7,19.3,4.7
						C543.4,655.7,546.3,655.3,549.2,654.7z"/>
					<path class="st3" d="M472.1,902.5H141.8c-0.2,0-0.4-0.1-0.6-0.4c-0.1-0.2-0.2-0.5-0.2-0.8c0.6-4,0.8-8.1,0.8-12.3
						c0-8.4-1.1-16.6-3.4-24.3c-5.9-20.5-19.1-36.2-35.2-42c-9.1-3.3-19-3.3-28,0.1c-0.2,0.1-0.4,0-0.6-0.1
						c-0.2-0.2-0.3-0.4-0.3-0.7L63.6,654.1c0-0.3,0.1-0.6,0.3-0.8s0.4-0.3,0.7-0.2c9.4,2.7,19.1,2,27.9-1.8
						c18-7.8,31.5-27.7,35.1-52.1c0.7-4.3,1-8.8,1-13.3c0-8-1-15.8-3.1-23.3c-0.1-0.3,0-0.6,0.1-0.9c0.1-0.3,0.4-0.4,0.6-0.4h364
						c0.2,0,0.5,0.2,0.6,0.4c0.1,0.3,0.2,0.6,0.1,0.9c-2,7.5-3.1,15.3-3.1,23.3c0,4.5,0.3,9,1,13.3c3.4,22.9,15.9,42.4,32.5,50.8
						c6.1,3.1,12.5,4.7,19,4.7c2.9,0,5.9-0.3,8.8-1c0.2-0.1,0.5,0,0.6,0.2c0.2,0.2,0.3,0.5,0.2,0.8l-11.3,166.8
						c0,0.3-0.1,0.5-0.3,0.7s-0.4,0.2-0.6,0.1c-9.2-3.1-19-2.9-28.1,0.6c-15.7,6.1-28.5,21.6-34.3,41.7c-2.2,7.8-3.4,16-3.4,24.3
						c0,4.2,0.3,8.3,0.8,12.3c0,0.3,0,0.6-0.2,0.8C472.5,902.3,472.3,902.5,472.1,902.5z M142.7,900.5h328.5
						c-0.5-3.7-0.7-7.6-0.7-11.5c0-8.6,1.2-17,3.5-25c5.9-20.6,19.1-36.7,35.3-42.9c9-3.5,18.8-3.8,28-0.9l11.1-164.4
						c-2.7,0.5-5.4,0.8-8.1,0.8c-6.8,0-13.3-1.6-19.6-4.8c-17.1-8.7-29.9-28.7-33.5-52.3c-0.7-4.4-1-9-1-13.7c0-7.8,1-15.4,2.8-22.6
						H127.2c1.9,7.3,2.8,14.9,2.8,22.6c0,4.7-0.3,9.3-1,13.7c-3.8,25-17.6,45.5-36.1,53.5c-8.8,3.8-18.4,4.6-27.7,2.1l10.5,165.3
						c9.1-3.1,18.9-3,28,0.3c16.6,6,30.1,22.1,36.2,43.2c2.3,8,3.5,16.4,3.5,25C143.4,893,143.2,896.8,142.7,900.5z"/>
				</g>
				<g>
					<path class="st1" d="M549.2,654.7l-11.3,166.8c-4.3-1.4-8.8-2.2-13.4-2.2c-5.2,0-10.3,1-15.1,2.8c-16.1,6.2-29,22-34.8,42.3
						c-2.2,7.7-3.4,16-3.4,24.7c0,4.2,0.3,8.4,0.9,12.4H141.8c0.6-4,0.9-8.2,0.9-12.4c0-8.7-1.2-17-3.4-24.7
						c-6-20.7-19.3-36.7-35.7-42.6c-4.5-1.6-9.3-2.5-14.2-2.5c-5,0-9.7,0.9-14.3,2.5L64.4,654c3.8,1.1,7.6,1.7,11.6,1.7
						c5.8,0,11.4-1.2,16.7-3.5c18.1-7.8,31.9-27.9,35.6-52.8c0.7-4.4,1-8.9,1-13.5c0-8.3-1.1-16.2-3.1-23.6h364
						c-2,7.4-3.1,15.3-3.1,23.6c0,4.6,0.3,9.1,1,13.5c3.5,23.6,16.2,43,33,51.6c6,3.1,12.5,4.7,19.3,4.7
						C543.4,655.7,546.3,655.3,549.2,654.7z"/>
				</g>
				<g class="st5">
					<path class="st6" d="M142.4,895.6c0.1,1.9,0.2,3.9,0.2,5.9h-0.9C142.1,899.6,142.3,897.6,142.4,895.6z"/>
					<path class="st3" d="M142.6,902.5h-0.8c-0.2,0-0.4-0.1-0.6-0.4c-0.1-0.2-0.2-0.5-0.2-0.8c0.3-1.9,0.5-3.8,0.6-5.8
						c0-0.5,0.4-0.9,0.7-0.9l0,0c0.4,0,0.7,0.4,0.7,0.9c0.1,1.7,0.2,3.7,0.2,6c0,0.3-0.1,0.5-0.2,0.7
						C143,902.4,142.8,902.5,142.6,902.5z"/>
				</g>
				<g class="st5">
					<path class="st6" d="M128.7,575.5c-0.5-4.6-1.4-9-2.5-13.3h364c-1.2,4.2-2,8.7-2.5,13.3H128.7z"/>
				</g>
				<g>
					<path class="st3" d="M472.1,907.7H141.8c-1.4,0-2.7-0.8-3.6-2.2c-0.9-1.4-1.3-3.3-1-5.1c0.5-3.6,0.8-7.5,0.8-11.3
						c0-7.7-1.1-15.3-3.1-22.5c-5.5-19-17.6-33.5-32.6-38.9c-8.4-3-17.6-3-25.9,0c-1.4,0.5-2.8,0.2-4-0.9c-1.2-1.1-1.9-2.7-2-4.6
						L59.7,654.5c-0.1-2,0.5-3.9,1.6-5.2s2.7-1.8,4.1-1.4c8.7,2.5,17.7,1.9,25.8-1.7c16.7-7.2,29.1-25.6,32.5-48.1
						c0.6-4,0.9-8.1,0.9-12.3c0-7.4-1-14.6-2.9-21.5c-0.5-1.9-0.3-4,0.6-5.6s2.3-2.6,3.9-2.6h364c1.5,0,3,1,3.9,2.6s1.1,3.8,0.6,5.6
						c-1.9,6.9-2.9,14.1-2.9,21.5c0,4.2,0.3,8.3,0.9,12.3c3.2,21.2,14.7,39.2,30.1,47c5.6,2.9,11.5,4.3,17.6,4.3
						c2.7,0,5.4-0.3,8.1-0.9c1.4-0.3,2.9,0.3,4,1.6s1.6,3.2,1.5,5.1L542.7,822c-0.1,1.8-0.8,3.5-2,4.5c-1.1,1-2.6,1.4-3.9,0.9
						c-8.5-2.9-17.6-2.7-26,0.5c-14.5,5.6-26.4,20-31.7,38.5c-2.1,7.2-3.1,14.7-3.1,22.5c0,3.9,0.3,7.7,0.8,11.3
						c0.3,1.8-0.1,3.7-1,5.1C474.8,906.9,473.5,907.7,472.1,907.7z M147.2,895.3h319.5c-0.1-2.1-0.2-4.2-0.2-6.3
						c0-9.2,1.3-18.3,3.7-26.8c6.4-22.2,20.6-39.4,37.9-46c8.2-3.2,17.1-3.9,25.6-2.1L544,661.7c-8.5,0.7-16.9-1-24.7-5
						c-18.4-9.3-32.1-30.8-35.9-56.1c-0.7-4.8-1.1-9.7-1.1-14.7c0-5.9,0.5-11.7,1.5-17.4H132.5c1,5.7,1.5,11.5,1.5,17.4
						c0,5-0.4,9.9-1.1,14.7c-4,26.9-18.9,48.9-38.8,57.5c-7.8,3.4-16.2,4.6-24.6,3.3l9.7,152.8c8.4-1.9,17.2-1.4,25.4,1.6
						c17.8,6.4,32.3,23.8,38.9,46.4c2.5,8.6,3.7,17.6,3.7,26.8C147.4,891.2,147.3,893.2,147.2,895.3z"/>
				</g>
				<g>
					<path class="st11" d="M521,651l-1.1,16.8l-10.4,154.3c-16.1,6.2-29,22-34.8,42.3H139.2c-6-20.7-19.3-36.7-35.7-42.6L92.7,652.2
						c18.1-7.8,31.9-27.9,35.6-52.8H488C491.6,623,504.2,642.4,521,651z"/>
				</g>
				<g class="st2">
					<path class="st9" d="M519.9,667.8l-0.2,3.1c-3.3-1.8-6.4-4-9.3-6.6C513.4,665.8,516.6,667,519.9,667.8z"/>
					<path class="st3" d="M519.7,671.9c-0.1,0-0.2,0-0.3-0.1c-3.3-1.8-6.5-4.1-9.4-6.7c-0.3-0.3-0.4-0.8-0.2-1.3
						c0.2-0.4,0.6-0.6,0.9-0.5c3.1,1.6,6.3,2.7,9.4,3.5c0.4,0.1,0.6,0.5,0.6,1l-0.2,3.1c0,0.3-0.2,0.6-0.4,0.8
						C519.9,671.8,519.8,671.9,519.7,671.9z M516.3,667.8c0.9,0.6,1.8,1.2,2.7,1.7l0.1-0.9C518.2,668.3,517.3,668.1,516.3,667.8z"/>
				</g>
				<g class="st12">
					<g>
						<path class="st3" d="M170,744.7c-3.4,0-6.9-0.7-10.3-2.4c-12-5.8-18.8-21.1-22.3-33c-1.6-5.4-3-11.1-4.2-16.5
							c-1.9-7.9-3.6-15.4-6.3-22.5c-4.1-10.7-10.5-20.1-18.6-27.2c-1.6-1.3-2-4.1-0.9-6.1c1-2,3.1-2.6,4.7-1.2
							c9.1,7.9,16.3,18.5,20.9,30.6c2.9,7.7,4.8,15.9,6.7,23.8c1.2,5.3,2.5,10.7,4.1,15.8c3.1,10.2,8.7,23.3,18.4,27.9
							c11.2,5.4,23.7-2.3,32.3-9.7c2.9-2.5,5.7-5.2,8.5-7.8c7.4-7.1,15.1-14.4,24.2-18.3c13.4-5.8,30.8-1.3,36.8,16.1
							c0.8,2.2,0,4.8-1.7,5.8s-3.7,0-4.5-2.2c-4.4-12.7-18.2-15.8-28.5-11.3c-8.1,3.5-15,10.1-22.3,17.1c-2.8,2.7-5.8,5.5-8.8,8.1
							C190.6,738.2,180.4,744.7,170,744.7z"/>
					</g>
					<g>
						<path class="st3" d="M188.2,699.2c-3.6,0-7.1-1.1-10.2-3.2c-11.1-7.7-13.2-24.8-15-39.9c-0.5-4-0.9-7.7-1.6-11.3
							c-2.7-16.1-10.2-31.3-20.7-41.8c-1.5-1.5-1.8-4.3-0.6-6.2c1.1-1.9,3.3-2.3,4.7-0.8c11.9,12,20.2,28.6,23.2,47
							c0.6,3.8,1.1,7.9,1.6,11.8c1.8,14.3,3.4,27.9,11.5,33.5c5,3.5,12,2.7,17.9-2c6.3-5,10.7-13.2,13.8-19.9
							c2.5-5.3,4.8-10.9,7-16.3c4.2-10.1,8.5-20.6,14.3-29.7c8.4-13.2,24.5-26.8,40-25.3c1.9,0.2,3.3,2.3,3.1,4.7
							c-0.1,2.4-1.8,4.2-3.6,4.1c-12.5-1.2-26.7,10.2-34.3,22.1c-5.4,8.5-9.3,18.1-13.5,28.3c-2.3,5.5-4.6,11.3-7.2,16.8
							c-3.5,7.5-8.6,16.8-16.1,22.8C198.1,697.4,193,699.2,188.2,699.2z"/>
					</g>
					<g>
						<path class="st3" d="M194.6,654.5c-9,0-17.1-9.1-20.6-19.7c-3.6-11.2-3.2-23.3-2.4-35.8l0.1-1.3c0.1-2.4,1.8-4.3,3.6-4.1
							c1.9,0.2,3.2,2.3,3.1,4.7l-0.1,1.3c-0.7,11.4-1.1,22.3,1.9,31.6c2.8,8.8,10.5,16.4,17.4,13.7c5.5-2.1,8.9-9.6,10.7-15.5
							c0.9-2.8,1.6-5.6,2.4-8.6c1.3-5.2,2.7-10.7,5-15.7c1.6-3.6,3.6-6.8,6-9.3c1.4-1.5,3.6-1.3,4.7,0.6c1.2,1.9,1,4.7-0.5,6.2
							c-1.7,1.8-3.2,4.2-4.4,6.9c-1.9,4.3-3.1,9-4.4,14.1c-0.8,3-1.6,6.1-2.5,9.2c-2.4,7.7-7,17.5-15.1,20.6
							C197.9,654.2,196.3,654.5,194.6,654.5z"/>
					</g>
					<g>
						<path class="st3" d="M269.8,677.8c-1.4,0-2.7-1.1-3.2-3c-4-15,3.4-30.9,12.9-37.5c10.7-7.5,22.8-5.5,31.2-2.5
							c6.4,2.3,12.5,5.7,18.3,9c3.1,1.7,6.2,3.5,9.4,5.1c26.7,13.4,56.3,14.4,83.5,2.9c23.5-9.9,44.9-29.5,60.2-55.2
							c1.1-1.9,3.3-2.3,4.7-0.7c1.5,1.5,1.7,4.3,0.6,6.2c-16.2,27-38.7,47.7-63.5,58.1c-28.7,12.1-59.9,11-88-3.1
							c-3.3-1.6-6.5-3.5-9.6-5.2c-5.9-3.3-11.5-6.5-17.5-8.6c-7.1-2.5-17.5-4.3-26.2,1.8c-6.8,4.8-12.4,16.4-9.7,26.8
							c0.6,2.3-0.3,4.8-2.1,5.6C270.6,677.7,270.2,677.8,269.8,677.8z"/>
					</g>
					<g>
						<path class="st3" d="M376.1,621.7c-11.2,0-21.6-8.1-25.9-20.3c-0.1-0.2-0.1-0.3-0.2-0.5c-0.7-2.3,0.1-4.8,1.8-5.8
							c1.7-0.9,3.7,0.1,4.4,2.3c0,0.1,0,0.1,0.1,0.2c3.2,9.5,12.1,15.9,21.1,15.2c8.3-0.6,16.7-6.4,23.6-16.2
							c0.1-0.1,0.2-0.2,0.2-0.3c1.3-1.7,3.5-1.7,4.8,0.1c1.3,1.7,1.3,4.4,0.1,6.1c0,0.1-0.1,0.1-0.1,0.2l0,0
							c-8.1,11.5-18.1,18.3-28.2,19C377.3,621.6,376.7,621.7,376.1,621.7z M356.1,597.1L356.1,597.1L356.1,597.1z M356.1,597.1
							L356.1,597.1L356.1,597.1z"/>
					</g>
					<g>
						<path class="st3" d="M512.7,778c-0.3,0-0.6-0.1-0.9-0.2c-11.7-4.2-22.5-11.1-32.1-20.5c-9.3-9.2-21.1-24.7-24.5-46.4
							c-3-18.7,1.4-39.1,11.3-53.1s25.1-21.1,39.6-18.6c1.8,0.3,3.1,2.5,2.9,5c-0.2,2.4-1.9,4.1-3.8,3.8
							c-12.4-2.2-25.3,3.9-33.8,15.9c-8.5,11.9-12.2,29.3-9.7,45.2c2.3,14.8,10.2,29.4,22,41.2c8.9,8.8,18.9,15.2,29.8,19.1
							c1.8,0.6,2.9,3.1,2.4,5.4C515.6,776.7,514.2,778,512.7,778z"/>
					</g>
					<g>
						<path class="st3" d="M515.3,740.6c-0.4,0-0.7-0.1-1.1-0.2c-4-1.8-7.7-4.4-11-7.7c-6.9-7.1-11.8-17.5-13.5-28.8
							c-1.6-10.6,0.2-20.7,4.8-26.9c3.4-4.5,8.4-7.3,14.2-7.8c4-0.4,7.8,0.3,11.3,1c1.8,0.4,3.1,2.7,2.8,5.1c-0.3,2.4-2,4.1-3.9,3.6
							c-3.1-0.7-6.5-1.2-9.7-0.9c-4.1,0.4-7.6,2.2-9.8,5.2c-3.1,4.1-4.2,11.2-3,19c1.4,9.2,5.4,17.7,11,23.5c2.7,2.7,5.7,4.8,9,6.3
							c1.8,0.8,2.7,3.3,2.1,5.6C518,739.4,516.7,740.6,515.3,740.6z"/>
					</g>
					<g>
						<path class="st3" d="M333,868.8c-1,0-1.9-0.5-2.6-1.6c-1.2-1.9-1-4.7,0.4-6.2c2-2.2,3.9-4.7,5.7-7.3
							c9.9-14.5,16-33.2,21.9-51.3c0.9-2.6,1.7-5.2,2.6-7.8c7.2-21.7,15.9-43.7,30.6-57.9c14.3-13.9,37.7-19.2,52.9-1.8
							c9.4,10.7,12.8,26.4,16.2,41.5c0.9,4.1,1.9,8.4,2.9,12.4c4.8,18.7,13.2,35.9,24.1,49.8c1.3,1.7,1.4,4.5,0.1,6.2
							s-3.4,1.8-4.8,0.1c-11.6-14.9-20.5-33.3-25.7-53.3c-1.1-4.2-2.1-8.6-3-12.8c-3.2-14.5-6.3-28.3-14.1-37.3
							c-12.6-14.4-32.3-9.6-44.4,2.2c-13.4,13-21.5,33.8-28.4,54.3c-0.9,2.6-1.7,5.2-2.6,7.7c-6.1,18.7-12.5,38.1-23.1,53.7
							c-2,2.9-4.2,5.7-6.4,8.2C334.5,868.5,333.7,868.8,333,868.8z"/>
					</g>
					<g>
						<path class="st3" d="M437.1,868.8c-1.3,0-2.5-1-3.1-2.6c-2.1-6.1-3.4-13.1-3.8-20.2c-0.4-6.4-0.3-12.8-0.2-19
							c0.2-9.6,0.3-18.6-1.2-27.4c-2.4-13.5-11.5-26.5-21.1-24.3c-7.4,1.7-12.2,11.2-14.4,19.5c-1.6,6.4-2.3,13.2-3,20.3
							c-0.4,3.9-0.7,7.9-1.3,11.8c-2,14-6.4,27.9-12.7,40c-1,2-3.1,2.5-4.7,1.2c-1.5-1.4-1.9-4.1-0.9-6.1
							c5.8-11.2,9.8-23.8,11.6-36.7c0.5-3.7,0.9-7.6,1.2-11.3c0.7-7.2,1.4-14.7,3.2-22c2.7-10.8,9.3-23.1,19.6-25.4
							c13.8-3.2,25.7,13.6,28.8,31c1.8,9.9,1.6,19.9,1.4,29.6c-0.1,6-0.2,12.2,0.2,18.1c0.4,6.1,1.5,12.1,3.3,17.3
							c0.8,2.2,0,4.8-1.7,5.8C438,868.7,437.6,868.8,437.1,868.8z"/>
					</g>
					<g>
						<path class="st3" d="M259.1,868.8c-1.2,0-2.3-0.8-2.9-2.2c-0.9-2.1-0.4-4.8,1.2-6c21.4-16.1,41.8-35.1,60.4-56.5
							c5.5-6.3,11.2-13.2,14.8-21.6c3.7-8.7,4.5-18.3,2.1-25.6c-3.8-11.7-14.6-16.3-23.1-15.7c-9.8,0.7-19,6.8-28.3,13.4
							c-8.7,6.2-17.4,12.8-25.9,19.1c-20.5,15.5-41.8,31.5-64.2,43.5c-26,13.8-50.7,20.3-73.4,19.2c-1.9-0.1-3.3-2.1-3.2-4.6
							c0.1-2.4,1.6-4.3,3.5-4.3c21.8,1.1,45.6-5.2,70.7-18.5c22-11.7,43-27.6,63.4-42.9c8.5-6.4,17.3-13,26-19.3
							c9.6-6.9,20-13.6,31.2-14.5c10.8-0.8,24.6,5.5,29.7,21.1c3.2,9.8,2.3,22.3-2.5,33.4c-4.1,9.7-10.3,17.2-16.2,24
							c-19,21.7-39.7,41.1-61.5,57.5C260.2,868.6,259.6,868.8,259.1,868.8z"/>
					</g>
					<g>
						<path class="st3" d="M167.1,791.7c-12.2,0-23.6-4.7-32.1-13.9c-4.1-4.4-7.5-9.7-10.7-14.9c-2.6-4.1-5-7.9-7.8-11.4
							c-5.3-6.6-12.1-11.5-19.5-14.2c-1.8-0.6-2.8-3.1-2.4-5.4c0.5-2.4,2.4-3.7,4.2-3.1c8.5,3.1,16.2,8.7,22.3,16.3
							c3.1,3.8,5.8,8,8.4,12.1c3.2,5,6.2,9.8,9.8,13.7c12,12.9,31,15.5,48.6,6.7c16.8-8.4,30.4-24.8,42.5-41.2
							c1.3-1.8,3.4-1.8,4.8-0.1c1.3,1.7,1.4,4.5,0.1,6.2c-12.1,16.3-26.8,34.2-44.9,43.3C182.6,789.9,174.7,791.7,167.1,791.7z"/>
					</g>
					<g>
						<path class="st3" d="M474.6,868.8H139.2c-1.4,0-2.7-1.1-3.2-2.9c-5.6-19.5-18.1-34.4-33.5-39.9c-1.4-0.5-2.4-2-2.5-3.9
							L89.3,652.6c-0.1-2,0.8-3.9,2.3-4.6c17.1-7.4,29.9-26.3,33.4-49.4c0.3-2.1,1.7-3.6,3.3-3.6H488c1.6,0,3,1.5,3.3,3.6
							c3.3,21.7,15.1,40.3,30.9,48.3c1.4,0.7,2.3,2.5,2.1,4.5l-11.5,171.1c-0.1,1.8-1.1,3.3-2.4,3.8c-14.9,5.7-27.1,20.6-32.6,39.6
							C477.3,867.7,476,868.8,474.6,868.8z M141.5,860h330.9c6.3-19.3,18.7-34.4,33.9-41.2l11.2-165c-15.9-9.2-27.9-27.9-32.1-50
							H131c-4.5,23.5-17.5,42.7-34.7,51.4l10.4,163.2C122.3,824.9,135.1,840.2,141.5,860z"/>
					</g>
					<g>
						<path class="st3" d="M188.9,869.8c-1.5,0-2.9-1.4-3.3-3.4c-0.4-2.4,0.7-4.8,2.5-5.3c28.6-8.9,55.1-27.3,76.7-53.4
							c1.4-1.7,3.5-1.5,4.8,0.3s1.2,4.6-0.2,6.2c-22.4,27-50,46.2-79.7,55.5C189.4,869.8,189.1,869.8,188.9,869.8z"/>
					</g>
					<g>
						<path class="st3" d="M407.7,854.4c-0.2,0-0.3,0-0.5,0c-1.8-0.4-3.1-2.6-2.9-5l4.3-38.3c0.3-2.4,2-4.1,3.8-3.7
							c1.8,0.4,3.1,2.6,2.9,5l-4.3,38.3C410.8,852.8,409.4,854.4,407.7,854.4z"/>
					</g>
					<g>
						<path class="st3" d="M392.2,644.2c-2.1,0-4.1-0.2-6.2-0.5c-1.8-0.3-3.2-2.5-2.9-4.9c0.2-2.4,1.9-4.2,3.8-3.8
							c14,2.3,28.7-4.6,38.4-17.9c1.3-1.8,3.4-1.8,4.8-0.1c1.3,1.7,1.4,4.5,0.1,6.2C420.5,636.5,406.3,644.2,392.2,644.2z"/>
					</g>
					<g>
						<path class="st3" d="M455.2,847.2c-1.4,0-2.8-1.2-3.2-3.1l-5.4-23c-0.6-2.3,0.4-4.8,2.2-5.5c1.8-0.7,3.7,0.6,4.2,2.9l5.4,23
							c0.6,2.3-0.4,4.8-2.2,5.5C455.9,847.1,455.6,847.2,455.2,847.2z"/>
					</g>
					<g>
						<path class="st3" d="M394.7,710.5c-1,0-2-0.6-2.7-1.7c-1.1-1.9-0.9-4.7,0.6-6.2l21.2-21.4c1.5-1.5,3.6-1.1,4.7,0.8
							c1.1,1.9,0.9,4.7-0.6,6.2l-21.2,21.4C396.1,710.2,395.4,710.5,394.7,710.5z"/>
					</g>
				</g>
				<g class="st5">
					<rect x="101.1" y="783.9" class="st6" width="411" height="17.6"/>
				</g>
				<g class="st5">
					<rect x="96.9" y="686.5" class="st6" width="418.4" height="17.6"/>
				</g>
				<g>
					<path class="st3" d="M474.6,870.6H139.2c-2,0-3.7-1.6-4.4-4c-5.5-19-17.6-33.5-32.6-38.9c-1.9-0.7-3.3-2.9-3.5-5.4L88,652.7
						c-0.2-2.9,1.2-5.5,3.2-6.4c16.6-7.2,29.1-25.6,32.5-48.1c0.4-2.9,2.4-5,4.6-5H488c2.3,0,4.2,2.1,4.6,5
						c3.2,21.2,14.7,39.2,30.1,47c2,1,3.2,3.6,3,6.3l-11.6,171.2c-0.2,2.5-1.5,4.7-3.4,5.4c-14.5,5.6-26.4,20-31.7,38.5
						C478.4,869,476.6,870.6,474.6,870.6z M142.4,858.2h329.1c6.4-18.9,18.7-33.8,33.5-40.7l11-162.6c-15.5-9.4-27.3-27.7-31.7-49.3
						H132.1c-4.7,23-17.5,41.9-34.4,50.8l10.2,160.7C123.2,823.9,135.8,838.9,142.4,858.2z"/>
				</g>
				<g>
					<path class="st13" d="M553.3,593.8l-4.1,61c-2.9,0.6-5.9,1-8.9,1c-6.8,0-13.3-1.7-19.3-4.7c-16.8-8.5-29.5-27.9-33-51.6
						c-0.7-4.4-1-8.9-1-13.5c0-8.3,1.1-16.2,3.1-23.6h41.2C544.3,562.3,554.5,576.9,553.3,593.8z"/>
					<path class="st3" d="M540.3,656.7c-6.8,0-13.3-1.6-19.6-4.8c-17.1-8.7-29.9-28.7-33.5-52.3c-0.7-4.4-1-9-1-13.7
						c0-8.2,1.1-16.3,3.2-23.9c0.1-0.4,0.4-0.6,0.7-0.6h41.2c6.4,0,12.5,3.5,16.8,9.7s6.5,14.5,5.9,22.8l0,0l-4.1,61
						c0,0.4-0.3,0.8-0.6,0.9C546.4,656.3,543.3,656.7,540.3,656.7z M549.2,654.7L549.2,654.7L549.2,654.7z M490.7,563.3
						c-1.9,7.3-2.9,14.9-2.9,22.6c0,4.5,0.3,9,1,13.3c3.4,22.9,15.9,42.4,32.5,50.8c6.1,3.1,12.5,4.7,19,4.7c2.7,0,5.5-0.3,8.2-0.8
						l4.1-60.2l0,0c0.5-7.8-1.5-15.6-5.5-21.3c-4-5.8-9.8-9.1-15.7-9.1H490.7z"/>
				</g>
				<g>
					<path class="st1" d="M553.3,593.8l-4.1,61c-2.9,0.6-5.9,1-8.9,1c-6.8,0-13.3-1.7-19.3-4.7c-16.8-8.5-29.5-27.9-33-51.6
						c-0.7-4.4-1-8.9-1-13.5c0-8.3,1.1-16.2,3.1-23.6h41.2C544.3,562.3,554.5,576.9,553.3,593.8z"/>
				</g>
				<g class="st2">
					<path class="st9" d="M521,651l-1.1,16.8c-3.3-0.8-6.5-2-9.5-3.5c-0.1,0-0.1-0.1-0.1-0.1c-15-7.6-26.7-23.9-31.6-44.2H122.5
						c2.7-6.3,4.7-13.3,5.8-20.7H488C491.6,623,504.2,642.4,521,651z"/>
					<path class="st3" d="M519.9,668.8L519.9,668.8c-3.3-0.8-6.6-2-9.7-3.6c0,0-0.1-0.1-0.2-0.1c-15-7.6-26.9-24.1-31.8-44.1H122.5
						c-0.3,0-0.5-0.2-0.6-0.5s-0.1-0.7,0-1c2.7-6.3,4.7-13.2,5.7-20.4c0.1-0.5,0.4-0.8,0.7-0.8H488c0.4,0,0.7,0.3,0.7,0.8
						c3.4,22.9,15.9,42.4,32.5,50.8c0.3,0.2,0.5,0.6,0.5,1l-1.1,16.8c0,0.3-0.1,0.5-0.3,0.7C520.2,668.7,520.1,668.8,519.9,668.8z
						 M123.7,619.1h354.9c0.3,0,0.6,0.3,0.7,0.7c4.7,19.7,16.3,36,31.1,43.5l0.1,0.1c2.8,1.4,5.7,2.5,8.6,3.3l1-15
						c-16.7-8.7-29.2-28.3-32.8-51.2H128.9C127.9,606.9,126.1,613.2,123.7,619.1z"/>
				</g>
				<g class="st5">
					<path class="st6" d="M551.3,595.5l-4.1,61c-2.6,0.6-5.3,0.9-8.1,1l3.4-50.9c1.1-16.9-9-31.5-22-31.5h-34.7
						c0.5-3.8,1.3-7.5,2.3-11h41.2C542.3,564.1,552.5,578.6,551.3,595.5z"/>
				</g>
				<g>
					<path class="st1" d="M537.9,821.5l-3.6,53.6c-1,14.9-10.6,26.4-22,26.4H472c-0.6-4-0.9-8.2-0.9-12.4c0-8.7,1.2-17,3.4-24.7
						c5.9-20.3,18.8-36.1,34.8-42.3c4.8-1.8,9.8-2.8,15.1-2.8C529.2,819.3,533.6,820.1,537.9,821.5z"/>
				</g>
				<g class="st5">
					<path class="st6" d="M537.9,821.5l-0.9,13.7c-3.3-0.8-6.6-1.2-10-1.2c-5.2,0-10.3,1-15.1,2.8c-16.1,6.2-29,22-34.8,42.3
						c-2,7-3.2,14.5-3.4,22.4h-1.6c-0.6-4-0.9-8.2-0.9-12.4c0-8.7,1.2-17,3.4-24.7c5.9-20.3,18.8-36.1,34.8-42.3
						c4.8-1.8,9.8-2.8,15.1-2.8C529.2,819.3,533.6,820.1,537.9,821.5z"/>
				</g>
				<g>
					<path class="st1" d="M142.6,889.1c0,4.2-0.3,8.4-0.9,12.4h-41.3c-11.5,0-21.1-11.5-22-26.5L75,821.8c4.5-1.7,9.3-2.5,14.3-2.5
						c4.9,0,9.6,0.9,14.2,2.5c16.5,5.9,29.7,21.9,35.7,42.6C141.4,872.1,142.6,880.4,142.6,889.1z"/>
				</g>
				<g class="st5">
					<path class="st6" d="M142.6,889.1c0,4.2-0.3,8.4-0.9,12.4h-4.3c-0.4-6.9-1.5-13.6-3.3-19.9c-6-20.7-19.3-36.7-35.7-42.6
						c-4.5-1.6-9.3-2.5-14.2-2.5c-2.8,0-5.6,0.3-8.2,0.8l-1-15.5c4.5-1.7,9.3-2.5,14.3-2.5c4.9,0,9.6,0.9,14.2,2.5
						c16.5,5.9,29.7,21.9,35.7,42.6C141.4,872.1,142.6,880.4,142.6,889.1z"/>
				</g>
				<g>
					<path class="st1" d="M129.3,585.9c0,4.6-0.3,9.1-1,13.5c-3.7,24.9-17.5,45-35.6,52.8c-5.2,2.3-10.9,3.5-16.7,3.5
						c-4,0-7.9-0.6-11.6-1.7l-3.8-60.4c-1.1-16.9,9.1-31.3,22-31.3h43.6C128.2,569.7,129.3,577.6,129.3,585.9z"/>
				</g>
				<g class="st5">
					<path class="st6" d="M129.3,585.9c0,4.6-0.3,9.1-1,13.5c-2.1,13.8-7.3,26.2-14.6,35.8c2.4-5.9,4.1-12.3,5.2-19
						c0.7-4.4,1-8.9,1-13.5c0-8.3-1.1-16.2-3.1-23.6H73.1c-4.4,0-8.5,1.7-11.9,4.5c2.5-12.2,11.1-21.3,21.3-21.3h43.6
						C128.2,569.7,129.3,577.6,129.3,585.9z"/>
				</g>
				<g>
					<path class="st3" d="M540.3,661.9c-7.3,0-14.3-1.7-21-5.2c-18.4-9.3-32.1-30.8-35.9-56.1c-0.7-4.8-1.1-9.7-1.1-14.7
						c0-8.8,1.1-17.5,3.4-25.7c0.7-2.5,2.5-4.1,4.4-4.1h41.2c7.5,0,14.7,4.2,19.8,11.4s7.6,17,6.9,26.8l-4.1,61
						c-0.2,2.8-1.8,5.1-3.9,5.6C546.8,661.5,543.6,661.9,540.3,661.9z M549.2,654.7L549.2,654.7L549.2,654.7z M493.6,568.5
						c-1.2,5.6-1.8,11.5-1.8,17.4c0,4.2,0.3,8.3,0.9,12.3c3.2,21.2,14.7,39.2,30.1,47c7,3.6,14.5,5,22.1,4l3.8-56l0,0
						c0.4-6.4-1.2-12.6-4.5-17.4s-7.9-7.4-12.8-7.4h-37.8V568.5z"/>
				</g>
				<g>
					<path class="st3" d="M512.3,907.7H472c-2.3,0-4.2-2.1-4.6-5.1c-0.6-4.4-0.9-8.9-0.9-13.6c0-9.2,1.3-18.3,3.7-26.8
						c6.4-22.2,20.6-39.4,37.9-46c10-3.9,20.9-4.1,31-0.7c2.2,0.8,3.7,3.5,3.5,6.5l-3.6,53.6C537.8,893.9,526.3,907.7,512.3,907.7z
						 M476.2,895.3h36.2c9.1,0,16.5-8.9,17.3-20.7l3.3-48.2c-7.3-1.7-15-1.1-22.1,1.6c-14.5,5.6-26.4,20-31.7,38.5
						c-2.1,7.2-3.1,14.7-3.1,22.5C475.9,891.2,476,893.3,476.2,895.3z"/>
				</g>
				<g>
					<path class="st3" d="M141.8,907.7h-41.3c-13.8,0-25.6-14.1-26.7-32.2l-3.4-53.2c-0.2-3,1.3-5.7,3.4-6.5c10-3.7,20.9-3.7,31-0.1
						c17.8,6.4,32.3,23.7,38.9,46.4c2.5,8.6,3.7,17.6,3.7,26.8c0,4.6-0.3,9.2-0.9,13.6C146,905.6,144.1,907.7,141.8,907.7z
						 M80.1,826.6l3,47.9c0.7,11.7,8.3,20.8,17.3,20.8h37.2c0.2-2.1,0.2-4.1,0.2-6.3c0-7.7-1.1-15.3-3.1-22.5
						c-5.5-19-17.6-33.5-32.6-38.9C95.1,825.2,87.4,824.8,80.1,826.6z"/>
				</g>
				<g>
					<path class="st3" d="M76,661.9c-4.2,0-8.5-0.6-12.6-1.8c-2-0.6-3.5-2.8-3.7-5.5l-3.8-60.4c-0.6-9.8,1.9-19.5,7-26.7
						s12.2-11.3,19.7-11.3h43.6c2,0,3.8,1.6,4.4,4.1c2.3,8.2,3.4,16.9,3.4,25.7c0,5-0.4,9.9-1.1,14.7c-4,26.9-18.9,48.9-38.8,57.5
						C88.4,660.6,82.2,661.9,76,661.9z M68.8,648.8c7.6,1.5,15.3,0.6,22.4-2.5c16.7-7.2,29.1-25.6,32.5-48.1c0.6-4,0.9-8.1,0.9-12.3
						c0-5.9-0.6-11.8-1.8-17.4H82.5c-4.9,0-9.4,2.6-12.8,7.3c-3.3,4.7-4.9,10.9-4.5,17.3L68.8,648.8z"/>
				</g>
				<g>
					<path class="st3" d="M518.6,692.6H94.9c-2.6,0-4.7-2.8-4.7-6.2s2.1-6.2,4.7-6.2h423.7c2.6,0,4.7,2.8,4.7,6.2
						S521.2,692.6,518.6,692.6z"/>
				</g>
				<g>
					<path class="st3" d="M512,790.1H101c-2.6,0-4.7-2.8-4.7-6.2s2.1-6.2,4.7-6.2h411c2.6,0,4.7,2.8,4.7,6.2S514.6,790.1,512,790.1z
						"/>
				</g>
				<g>
					<path class="st14" d="M354.3,737.9h-93.2c-7.1,0-12.8-5.7-12.8-12.8v-42.5c0-7.1,5.7-12.8,12.8-12.8h93.2
						c7.1,0,12.8,5.7,12.8,12.8v42.5C367.1,732.2,361.4,737.9,354.3,737.9z"/>
				</g>
				<g class="st5">
					<path class="st6" d="M303.4,722.6L303.4,722.6c-6.2,0-11.3-6.6-11.3-14.8l0,0c0-8.2,5.1-14.8,11.3-14.8l0,0
						c6.2,0,11.3,6.6,11.3,14.8l0,0C314.7,716,309.6,722.6,303.4,722.6z"/>
				</g>
				<g class="st2">
					<path class="st3" d="M358.1,736.1v0.8c0,11.2-6.9,20.3-15.5,20.3h-87.7c-8.6,0-15.5-9.1-15.5-20.3v-27.4c0-8.2,3.7-15.2,9-18.4
						v26.6c0,11.2,6.9,20.3,15.5,20.3h87.7C353.9,737.9,356.1,737.3,358.1,736.1z"/>
				</g>
				<g class="st5">
					<path class="st6" d="M366.4,691.4v27.4c0,7.8-3.3,14.5-8.2,17.9c0.5-2,0.8-4.2,0.8-6.4v-27.4c0-11.2-6.9-20.3-15.5-20.3h-87.7
						c-2.6,0-5.1,0.9-7.3,2.4c2.1-8.1,7.9-13.9,14.7-13.9h87.7C359.4,671.1,366.4,680.2,366.4,691.4z"/>
				</g>
				<g>
					<path class="st3" d="M351.6,744.1h-87.7c-11.2,0-20.2-11.9-20.2-26.5v-27.4c0-14.6,9.1-26.5,20.2-26.5h87.7
						c11.2,0,20.2,11.9,20.2,26.5v27.4C371.8,732.2,362.8,744.1,351.6,744.1z M263.9,676.1c-6,0-10.8,6.3-10.8,14.1v27.4
						c0,7.8,4.8,14.1,10.8,14.1h87.7c6,0,10.8-6.3,10.8-14.1v-27.4c0-7.8-4.8-14.1-10.8-14.1H263.9z"/>
				</g>
				<g>
					<path class="st3" d="M306.4,718.7L306.4,718.7c-6.2,0-11.3-6.6-11.3-14.8l0,0c0-8.2,5.1-14.8,11.3-14.8l0,0
						c6.2,0,11.3,6.6,11.3,14.8l0,0C317.7,712.1,312.6,718.7,306.4,718.7z"/>
				</g>
				<g class="st2">
					<path class="st9" d="M519.9,667.8c0,0,16.1,7,28.3,2.1l-1-13.4h-23.5L519.9,667.8z"/>
					<path class="st3" d="M538.2,672.6c-9.4,0-18.1-3.7-18.6-3.9c-0.2-0.1-0.4-0.3-0.4-0.5c-0.1-0.2-0.1-0.5,0-0.8l3.8-11.3
						c0.1-0.4,0.4-0.6,0.7-0.6h23.5c0.4,0,0.7,0.4,0.7,0.9l1,13.4c0,0.5-0.2,0.9-0.5,1C545.1,672.1,541.6,672.6,538.2,672.6z
						 M520.9,667.2c3.3,1.3,16.2,5.7,26.5,2l-0.9-11.7h-22.4L520.9,667.2z"/>
				</g>
			</g>
			<g>
				<g>
					<path class="st1" d="M564.1,323.1c0,10.3-0.8,20.3-2.4,29.9h-41.2c1.6-9.7,2.4-19.7,2.4-29.9c0-75.7-45.6-137.5-102.9-140.7
						h41.2C518.5,185.7,564.1,247.4,564.1,323.1z"/>
				</g>
				<g class="st5">
					<path class="st6" d="M564.1,323.1c0,10.3-0.8,20.3-2.4,29.9h-8.1c0.9-7.2,1.3-14.5,1.3-22c0-75.7-45.6-137.5-102.9-140.7h-0.9
						c-9.8-4.5-20.3-7.3-31.1-7.9h41.2C518.5,185.7,564.1,247.4,564.1,323.1z"/>
				</g>
				<g>
					<path class="st1" d="M87.5,323.1c0,10.3,0.8,20.3,2.4,29.9H50.5c-1.6-9.7-2.4-19.7-2.4-29.9c0-75.7,45.6-137.5,102.9-140.7
						h39.4C133.1,185.7,87.5,247.4,87.5,323.1z"/>
				</g>
				<g class="st5">
					<path class="st6" d="M87.5,323.1c0,10.3,0.8,20.3,2.4,29.9H50.5c-0.3-1.5-0.5-3.1-0.7-4.6h26.7c-1.6-9.7-2.4-19.7-2.4-29.9
						c0-65.2,33.8-120,79.7-136h36.6C133.1,185.7,87.5,247.4,87.5,323.1z"/>
				</g>
				<g>
					<path class="st3" d="M561.7,359.2h-41.2c-1.4,0-2.8-0.8-3.7-2.3s-1.2-3.4-0.9-5.2c1.5-9.3,2.3-18.9,2.3-28.6
						c0-72.3-43.2-131.4-98.3-134.5c-2.6-0.1-4.6-2.9-4.5-6.3c0.1-3.4,2.2-6.1,4.7-6.1h41.2c0.1,0,0.1,0,0.2,0
						c60.2,3.4,107.4,67.9,107.4,146.8c0,10.5-0.9,21.1-2.5,31.2C565.8,357.2,563.9,359.2,561.7,359.2z M526.2,346.9h31.6
						c1.1-7.8,1.6-15.7,1.6-23.7c0-72.3-43.1-131.3-98.2-134.5H461c39.5,22.8,66.7,74.5,66.7,134.5
						C527.7,331.1,527.2,339,526.2,346.9z"/>
				</g>
				<g>
					<path class="st3" d="M90,359.2H50.5c-2.2,0-4.1-2-4.6-4.9c-1.7-10.2-2.6-20.7-2.6-31.2c0-79,47.2-143.5,107.4-146.8
						c0.1,0,0.1,0,0.2,0h39.4c2.6,0,4.7,2.7,4.7,6.1c0.1,3.4-2,6.2-4.5,6.3c-55.1,3.1-98.3,62.2-98.3,134.5c0,9.7,0.8,19.3,2.3,28.6
						c0.3,1.8,0,3.7-0.9,5.2C92.7,358.4,91.4,359.2,90,359.2z M54.4,346.9h29.8c-1-7.8-1.5-15.7-1.5-23.7
						c0-59.9,27.1-111.5,66.5-134.4c-54.3,4.3-96.5,62.8-96.5,134.4C52.8,331.1,53.3,339.1,54.4,346.9z"/>
				</g>
				<g>
					<path class="st11" d="M522.9,323.1c0,10.3-0.8,20.3-2.4,29.9H90c-1.6-9.7-2.4-19.7-2.4-29.9c0-75.7,45.6-137.5,102.9-140.7
						h229.7C477.3,185.7,522.9,247.4,522.9,323.1z"/>
				</g>
				<g class="st5">
					<rect x="89.1" y="298.8" class="st6" width="433.4" height="11.3"/>
				</g>
				<g class="st5">
					<rect x="106.6" y="236.7" class="st6" width="396.7" height="11.3"/>
				</g>
				<g class="st2">
					<path class="st3" d="M522.9,323.1c0,10.3-0.8,20.3-2.4,29.9h-23.9c1.6-9.7,2.4-19.7,2.4-29.9c0-75.7-45.6-137.5-102.9-140.7
						H420C477.3,185.7,522.9,247.4,522.9,323.1z"/>
				</g>
				<g>
					<path class="st3" d="M520.5,359.2H90c-2.2,0-4.1-2-4.6-4.9c-1.7-10.2-2.6-20.7-2.6-31.2c0-79,47.2-143.5,107.4-146.8
						c0.1,0,0.1,0,0.2,0h229.7c0.1,0,0.1,0,0.2,0c60.2,3.4,107.4,67.9,107.4,146.8c0,10.5-0.9,21.1-2.5,31.2
						C524.6,357.2,522.7,359.2,520.5,359.2z M93.8,346.9h422.8c1.1-7.8,1.6-15.7,1.6-23.7c0-72.3-43.1-131.3-98.2-134.5H190.5
						c-55.1,3.2-98.2,62.2-98.2,134.5C92.2,331.1,92.8,339.1,93.8,346.9z"/>
				</g>
				<g class="st2">
					<path class="st6" d="M430.6,284.9c0,25.8-35.1,46.8-78.3,46.8s-78.3-21-78.3-46.8s35.1-29.8,78.3-29.8S430.6,259,430.6,284.9z"
						/>
				</g>
				<g>
					<path class="st3" d="M520.3,300H89.8c-2.6,0-4.7-2.8-4.7-6.2c0-3.4,2.1-6.2,4.7-6.2h430.5c2.6,0,4.7,2.8,4.7,6.2
						S522.9,300,520.3,300z"/>
				</g>
				<g>
					<path class="st3" d="M496.9,238.8H112.7c-2.6,0-4.7-2.8-4.7-6.2c0-3.4,2.1-6.2,4.7-6.2h384.2c2.6,0,4.7,2.8,4.7,6.2
						C501.6,236,499.5,238.8,496.9,238.8z"/>
				</g>
				<g class="st12">
					<g>
						<path class="st3" d="M202.4,360c-0.7,0-1.4-0.3-2-0.8c-7.9-6.9-15.9-16.3-25-29.6c-2.2-3.2-4.4-6.5-6.6-9.8
							c-10.4-15.6-21.2-31.8-34.9-41.7c-11.2-8.1-24.9-10.7-35.8-6.6c-1.9,0.7-3.8-0.7-4.4-3.2c-0.5-2.5,0.6-5,2.4-5.7
							c12.8-4.8,28.2-2,41.2,7.4c14.7,10.7,26,27.5,36.8,43.7c2.2,3.2,4.3,6.5,6.5,9.7c8.7,12.6,16.2,21.6,23.6,28
							c1.6,1.4,2.1,4.3,1,6.4C204.6,359.3,203.5,360,202.4,360z"/>
					</g>
					<g>
						<path class="st3" d="M140.5,360c-1.7,0-3.3-1.7-3.5-4c-0.7-6.4-0.3-13.3,0.1-20c0.6-11.5,1.2-22.4-3.3-29.9
							c-7.2-11.9-22.9-7.5-27.5-5.8c-5.4,1.9-10.8,4.6-15.9,7.8c-0.5,0.3-1,0.5-1.6,0.5c-2,0-3.5-2.1-3.5-4.6c0-1.9,0.9-3.6,2.2-4.3
							c5.5-3.5,11.2-6.3,17-8.3c7.3-2.6,25.3-6.9,34.9,9c6.2,10.4,5.5,23.5,4.8,36.3c-0.4,6.5-0.7,12.6-0.1,18.1
							c0.3,2.5-1.1,4.9-3,5.2C140.8,360,140.6,360,140.5,360z"/>
					</g>
					<g>
						<path class="st3" d="M266,356.9c-18.3,0-37.6-13.4-53.8-37.6c-7.3-10.9-13.5-22.9-19.6-34.6c-6.1-11.8-12.4-24-19.7-34.7
							c-12.6-18.7-28.1-30.7-42.5-33c-1.9-0.3-3.3-2.6-3.1-5.2c0.2-2.5,2-4.3,3.9-4c22,3.5,38.8,24.1,46.9,36.1
							c7.6,11.2,14,23.6,20.3,35.6c5.9,11.4,12.1,23.2,19,33.7c7.8,11.7,28.7,38.4,54,34c25.8-4.6,40.8-39.2,46-53.8
							c4.1-11.5,7.4-23.8,10.6-35.8c4.2-15.7,8.5-32,14.9-46.9c4.7-11.1,10.8-21.3,17.7-29.3c1.5-1.7,3.7-1.5,5,0.4s1.2,4.8-0.3,6.5
							c-6.3,7.3-11.9,16.6-16.2,26.9c-6,14.3-10.3,30.1-14.4,45.5c-3.2,12.1-6.6,24.7-10.9,36.6c-12.1,33.9-30.9,55.4-51.5,59.1
							C270.3,356.7,268.2,356.9,266,356.9z"/>
					</g>
					<g>
						<path class="st3" d="M257.1,317c-5.8,0-11.6-1.8-17-5.7c-14.4-10.7-19.8-31.4-25-51.4c-1.8-6.9-3.7-14.1-5.9-20.6
							c-6.9-20.3-19.1-37.5-34.3-48.7c-1.7-1.2-2.3-4.1-1.4-6.3s3.1-3,4.8-1.8c16.6,12.1,29.9,30.9,37.4,53
							c2.3,6.8,4.2,14.2,6.1,21.3c5,19.2,9.7,37.4,21.8,46.3c15.5,11.5,35.9-0.3,45.8-17.8c11.5-20.4,13.5-47.4,13.9-68.7
							c0.1-5.9,0.1-11.9,0.1-17.7c0-4.8,0-9.6,0.1-14.3c0-2.6,1.7-4.6,3.6-4.6c2,0,3.5,2.2,3.5,4.7c-0.1,4.7-0.1,9.5-0.1,14.2
							c0,5.9,0,12-0.1,18c-0.4,22.6-2.5,51.5-15.2,74C286.6,305.8,271.8,317,257.1,317z"/>
					</g>
					<g>
						<path class="st3" d="M264.5,256.6c-6.2,0-12.2-4.4-16-9.9c-5.1-7.2-7.6-16.6-9.8-24.8c-2.9-10.7-5.8-21.3-8.7-32l-1-3.5
							c-0.7-2.4,0.3-5.1,2.1-5.9c1.8-0.9,3.9,0.4,4.5,2.8l1,3.5c2.9,10.7,5.8,21.4,8.7,32c2.1,7.8,4.3,15.8,8.4,21.6
							c3.3,4.7,9.1,8.6,14.2,6.1c4.1-2.1,6.5-7.9,7.4-12.7c1.2-6.2,0.8-13,0.4-19.5l-1.7-29.2c-0.2-2.6,1.3-4.8,3.3-5
							c1.9-0.2,3.7,1.7,3.8,4.3l1.7,29.2c0.4,6.9,0.9,14.8-0.5,22.4c-1.7,9.1-6.1,16.3-11.8,19.1
							C268.5,256.1,266.5,256.6,264.5,256.6z"/>
					</g>
					<g>
						<path class="st3" d="M333,360c-0.4,0-0.8-0.1-1.3-0.3c-1.8-0.9-2.7-3.6-2.1-6c6-20.8,14.2-44.6,28.8-62.7
							c24-29.6,62.4-36,91.3-15.3c21.6,15.5,37,45.8,40.1,79.1c0.2,2.5-1.1,4.8-3.1,5.2c-1.9,0.3-3.7-1.5-3.9-4
							c-2.8-30.4-16.8-58-36.4-72.1c-26.3-18.8-61.2-12.9-83,14c-13.6,16.8-21.3,39.4-27.1,59.2C335.7,358.8,334.4,360,333,360z"/>
					</g>
					<g>
						<path class="st3" d="M375.7,360c-0.4,0-0.8-0.1-1.2-0.3c-1.8-0.9-2.8-3.5-2.1-5.9c5.7-20.4,13.7-33.5,24.5-40
							c13.7-8.2,31.4-3.2,41.2,11.7c5.3,8,8.3,18.6,8.3,29.8c0,2.6-1.6,4.6-3.5,4.7l0,0c-1.9,0-3.5-2.1-3.5-4.6
							c-0.1-9-2.4-17.5-6.6-23.9c-7.9-11.9-22-15.9-32.9-9.3c-9.1,5.5-15.7,16.5-20.8,34.8C378.5,358.8,377.2,360,375.7,360z"/>
					</g>
					<g>
						<path class="st3" d="M417.3,249.2c-1.2,0-2.3,0-3.5-0.1c-9-0.4-25-3.7-31-20.5c-5.1-14.3,0.3-31.2,8.3-40.6
							c2.3-2.7,4.9-5.1,7.9-7.3c1.7-1.2,3.9-0.4,4.8,1.8c1,2.2,0.3,5.1-1.4,6.3c-2.6,1.9-4.7,3.9-6.6,6.1
							c-6.1,7.1-10.3,19.6-6.6,29.8c4.6,12.9,18.9,14.9,24.9,15.2c23,1.1,46.5-9.7,64.6-29.7c1.5-1.6,3.7-1.4,5,0.6s1.1,4.9-0.4,6.5
							C464.7,237.7,440.9,249.2,417.3,249.2z"/>
					</g>
					<g>
						<path class="st3" d="M413.6,227.3c-0.9,0-1.7-0.4-2.4-1.3c-1.4-1.7-1.5-4.7-0.2-6.5c11-15.4,25.8-26.3,41.7-30.5
							c1.9-0.5,3.8,1.1,4.2,3.6c0.4,2.5-0.8,5-2.8,5.5c-14.4,3.9-27.9,13.7-37.9,27.8C415.5,226.8,414.5,227.3,413.6,227.3z"/>
					</g>
					<g>
						<path class="st3" d="M520.5,360H90c-1.7,0-3.1-1.5-3.5-3.6c-1.7-10-2.5-20.4-2.5-30.9c0-78.1,46.7-142,106.3-145.3
							c0.1,0,0.1,0,0.2,0h229.7c0.1,0,0.1,0,0.2,0c59.6,3.3,106.2,67.2,106.2,145.3c0,10.4-0.8,20.8-2.5,30.9
							C523.6,358.5,522.2,360,520.5,360z M92.8,350.7h424.8c1.2-8.3,1.8-16.8,1.8-25.3c0-73.1-43.6-132.9-99.4-136H190.4
							c-55.7,3.2-99.4,62.9-99.4,136C91,334,91.6,342.5,92.8,350.7z"/>
					</g>
				</g>
			</g>
		</g>
		<g>
			<g>
				<ellipse class="st3" cx="428.5" cy="703.8" rx="4.9" ry="6.5"/>
			</g>
			<g>
				<ellipse class="st3" cx="432.5" cy="807.7" rx="7" ry="9.2"/>
			</g>
			<g>
				<ellipse class="st15" cx="4.9" cy="144.2" rx="4.9" ry="6.5"/>
			</g>
			<g>
				<ellipse class="st15" cx="53.1" cy="205.5" rx="7" ry="9.2"/>
			</g>
			<g>
				<path class="st3" d="M473.9,777.7c1.8,0,3.3-3.5,4.1-8.6c0.2-1.5,1.2-2.7,2.3-3c3.9-1.1,6.6-3.1,6.6-5.4s-2.7-4.3-6.6-5.4
					c-1.2-0.3-2.1-1.5-2.3-3c-0.8-5.2-2.4-8.6-4.1-8.6c-1.8,0-3.3,3.5-4.1,8.6c-0.2,1.5-1.2,2.7-2.3,3c-3.9,1.1-6.6,3.1-6.6,5.4
					s2.7,4.3,6.6,5.4c1.2,0.3,2.1,1.5,2.3,3C470.6,774.3,472.1,777.7,473.9,777.7z"/>
			</g>
			<g>
				<path class="st15" d="M42.3,118.4c1.3,1.7,4.4,0.6,8-2.4c1.1-0.9,2.4-0.9,3.5,0c3.5,3,6.7,4.1,8,2.4s0.5-5.8-1.8-10.4
					c-0.7-1.4-0.7-3.2,0-4.5c2.3-4.6,3.2-8.7,1.8-10.4c-1.3-1.7-4.4-0.6-8,2.4c-1.1,0.9-2.4,0.9-3.5,0c-3.5-3-6.7-4.1-8-2.4
					s-0.5,5.8,1.8,10.4c0.7,1.4,0.7,3.2,0,4.5C41.8,112.6,41,116.7,42.3,118.4z"/>
			</g>
		</g>
	</g>
</g>
</svg>
