<?xml version="1.0" encoding="utf-8"?>
<!-- Generator: Adobe Illustrator 28.4.1, SVG Export Plug-In . SVG Version: 6.00 Build 0)  -->
<svg version="1.1" id="Layer_1" xmlns="http://www.w3.org/2000/svg" xmlns:xlink="http://www.w3.org/1999/xlink" x="0px" y="0px"
	 viewBox="0 0 232 242" style="enable-background:new 0 0 232 242;" xml:space="preserve">
<style type="text/css">
	.st0{fill:#33AEF1;}
	.st1{opacity:0.3;}
	.st2{fill:#390075;}
	.st3{fill:#F9C710;}
	.st4{opacity:0.55;}
	.st5{fill:#FFFFFF;}
	.st6{fill:#F89F1D;}
	.st7{fill:#FF3E84;}
	.st8{fill:#6B184E;}
	.st9{fill:#FFD553;}
	.st10{fill:#FF9F40;}
	.st11{opacity:0.1;}
	.st12{fill:#35B7EB;}
	.st13{fill:#96A7BC;}
	.st14{fill:#F7F0FF;}
</style>
<g>
	<g>
		<g>
			<g>
				<g>
					<polygon class="st0" points="186.2,139.5 51.6,139.5 32.6,74.2 204.1,74.2 					"/>
				</g>
				<g class="st1">
					<polygon class="st2" points="186.2,139.5 51.6,139.5 32.6,74.2 204.1,74.2 					"/>
				</g>
				<g>
					<path class="st2" d="M186.2,141.3H51.7c-0.8,0-1.4-0.5-1.7-1.3L31,74.7c-0.1-0.6-0.1-1.2,0.3-1.6c0.3-0.5,0.9-0.7,1.4-0.7
						h171.5c0.6,0,1.1,0.3,1.4,0.7s0.4,1.1,0.3,1.6l-18,65.3C187.6,140.8,186.9,141.3,186.2,141.3z M52.9,137.6h131.9l17-61.7H35
						L52.9,137.6z"/>
				</g>
			</g>
			<g>
				<g>
					<path class="st3" d="M183.9,87.1c11.7-0.5,21.5,8,21.9,18.8s-8.8,20.1-20.5,20.5c-11.7,0.5-21.5-8-21.9-18.8
						C163,96.8,172.2,87.6,183.9,87.1z"/>
				</g>
				<g class="st4">
					<path class="st5" d="M198.8,92.4c-3.3-1.7-7.1-2.6-11.1-2.4c-4.4,0.2-8.5,1.6-11.9,3.9c2.6,3.2-1.9,7.4-5.3,5.3
						c-2.2,3.3-3.4,7.1-3.3,11.2c0.2,5.4,2.7,10.2,6.6,13.6c-6.2-3.2-10.5-9.3-10.8-16.4c-0.4-10.9,8.8-20.1,20.5-20.5
						C189.5,86.9,194.9,88.9,198.8,92.4z"/>
				</g>
				<g>
					<path class="st6" d="M184.3,96.5c6.2-0.2,11.3,4.2,11.5,9.9c0.2,5.7-4.6,10.5-10.7,10.7s-11.3-4.2-11.5-9.9
						C173.3,101.6,178.1,96.8,184.3,96.5z"/>
				</g>
				<g class="st4">
					<path class="st5" d="M192.3,99.3c2.6,1.8,4.4,4.6,4.5,7.9c0.1,2.3-0.7,4.5-2,6.3c1.6,2.1-1.5,4.7-3.6,3.1
						c-1.5,0.8-3.3,1.3-5.1,1.4c-3.1,0.1-6-1-8.1-2.8c2,1.4,4.4,2.1,7,2c6.2-0.2,11-5.1,10.7-10.8
						C195.6,103.6,194.3,101.1,192.3,99.3z"/>
				</g>
				<g class="st1">
					<path class="st2" d="M184.3,96.5c3.3-0.1,6.3,1.1,8.4,3.1c-1.9-1.2-4.2-1.8-6.7-1.8c-6.2,0.2-11,5.1-10.7,10.7
						c0.1,2.6,1.3,5,3.1,6.7c-2.8-1.8-4.7-4.7-4.9-8.1C173.3,101.6,178.1,96.8,184.3,96.5z"/>
				</g>
				<g>
					<path class="st2" d="M184.4,128.2c-5.7,0-11.1-2-15.3-5.6c-4.5-3.9-7.1-9.2-7.3-14.9c-0.2-5.8,2-11.2,6.2-15.5
						c4.1-4.2,9.8-6.6,15.9-6.8l0.1,1.7l-0.1-1.7c6.1-0.2,11.9,1.7,16.3,5.5c4.5,3.9,7.1,9.2,7.3,14.9s-2,11.2-6.2,15.5
						c-4.1,4.2-9.8,6.6-15.9,6.8C185.1,128.2,184.7,128.2,184.4,128.2z M184.9,88.9c-0.3,0-0.6,0-0.9,0c-5.3,0.2-10.2,2.3-13.7,5.9
						c-3.5,3.5-5.4,8.1-5.2,12.9s2.3,9.1,6.1,12.4c3.8,3.3,8.9,5,14.1,4.8c5.3-0.2,10.2-2.3,13.7-5.9c3.5-3.5,5.4-8.1,5.2-12.9
						s-2.3-9.1-6.1-12.4C194.5,90.5,189.8,88.9,184.9,88.9z"/>
				</g>
			</g>
			<g>
				<g>
					<path class="st2" d="M203.6,144.7c-0.9,0-1.6-0.7-1.7-1.6c-0.3-2.2,0.3-4.3,1.9-5.9c2.2-2.3,6-3.2,10.2-2.5
						c1.4,0.2,2.7,0.3,3.7,0c3-0.7,5.1-2.6,5.8-5.3c0.6-2.4-0.1-4.9-1.7-6.4c-1.9-1.7-4.8-1.8-8.2-0.3c-0.9,0.4-1.9,0-2.3-1
						c-0.4-0.9,0-2,0.9-2.4c6.3-2.8,10.1-0.6,11.8,0.9c2.6,2.4,3.7,6.4,2.8,10.1c-1,4.1-4.2,7-8.5,8c-1.5,0.3-3.1,0.3-5,0
						c-3-0.5-5.7,0-7.1,1.5c-0.7,0.7-1,1.6-0.9,2.7c0.1,1-0.5,1.9-1.5,2.1C203.8,144.6,203.8,144.7,203.6,144.7z"/>
				</g>
				<g>
					<path class="st2" d="M164.6,131.4c-0.4,0-0.9-0.2-1.3-0.6c-0.7-0.7-0.7-1.9,0-2.6c0.7-0.7,1-1.7,0.9-2.7
						c-0.3-2-2.1-4.2-4.8-5.7c-1.7-0.9-3-2-4-3.2c-2.9-3.5-3.7-7.9-2.2-11.8c1.4-3.6,4.6-6.1,8.1-6.3c2.2-0.1,6.5,0.5,9.9,6.7
						c0.5,0.9,0.2,2-0.6,2.5c-0.9,0.5-1.9,0.2-2.4-0.7c-1.8-3.3-4.2-5-6.7-4.9c-2.1,0.1-4.1,1.7-5.1,4c-1,2.6-0.4,5.5,1.6,7.9
						c0.7,0.9,1.7,1.7,3,2.4c3.7,2,6.2,5.2,6.7,8.4c0.3,2.2-0.4,4.3-1.9,5.8C165.4,131.3,165,131.4,164.6,131.4z"/>
				</g>
				<g>
					<path class="st3" d="M215.5,113.2l-1.1,2.5l-8.8,20c-4.3,9.8-14.9,14.6-24.6,11.4c-9.8-3.3-15.8-13.8-13.8-24.4l4-21.4l0.5-2.7
						L215.5,113.2z"/>
				</g>
				<g>
					<path class="st6" d="M207.2,132l-1.6,3.6c-4.3,9.8-14.9,14.6-24.6,11.4c-9.8-3.3-15.8-13.8-13.8-24.4l4-21.4l0.5-2.7l3.8,1.3
						l-2.4,12.9c-2,10.6,4,21.1,13.8,24.4C194.1,139.5,201.9,137.4,207.2,132z"/>
				</g>
				<g>
					<path class="st2" d="M187,149.9c-2.2,0-4.4-0.4-6.7-1.1l0,0c-10.7-3.6-17.1-15-15-26.5l3.8-20.5c0.3-1.5,1.1-2.7,2.3-3.4
						c1.2-0.7,2.7-0.9,4-0.5l37.8,12.6c1.1,0.4,2.1,1.3,2.6,2.5c0.5,1.2,0.5,2.5,0,3.7l-8.7,19.8C203.5,144.8,195.5,149.9,187,149.9
						z M181.5,145.3c8.9,3,18.6-1.5,22.5-10.4l8.7-19.8c0.1-0.3,0.1-0.5,0-0.7c0-0.1-0.2-0.4-0.5-0.4l-37.8-12.6
						c-0.4-0.1-0.8-0.1-1.1,0.1c-0.3,0.2-0.6,0.6-0.7,1l-3.8,20.5C167,132.7,172.4,142.3,181.5,145.3L181.5,145.3z"/>
				</g>
				<g class="st1">
					<path class="st5" d="M200.1,129c-1.8-0.9-2-4.5-0.5-7.9s4.3-5.5,6.2-4.6c1.8,0.9,0.6,3.7-0.9,7.2
						C203.2,127.2,201.9,130,200.1,129z"/>
				</g>
			</g>
			<g>
				<g>
					<path class="st3" d="M146.7,90.6c11.7-0.5,21.5,8,21.9,18.8s-8.8,20.1-20.5,20.5c-11.7,0.5-21.5-8-21.9-18.8
						C125.8,100.3,135,91.1,146.7,90.6z"/>
					<path class="st2" d="M147.2,130.2c-11.4,0-20.9-8.4-21.3-19.1c-0.4-11,8.9-20.4,20.8-20.8c11.9-0.5,21.8,8.1,22.2,19.1
						c0.2,5.3-1.9,10.4-5.8,14.4c-3.9,3.9-9.2,6.2-15,6.4C147.8,130.2,147.5,130.2,147.2,130.2z M147.6,90.8c-0.3,0-0.6,0-0.9,0
						c-11.6,0.5-20.6,9.5-20.2,20.2c0.4,10.7,10.1,19,21.6,18.5c5.6-0.2,10.8-2.5,14.6-6.3s5.8-8.8,5.6-13.9
						C168,99,158.7,90.8,147.6,90.8z"/>
				</g>
				<g class="st4">
					<path class="st5" d="M161.6,95.8c-3.3-1.7-7.1-2.6-11.1-2.4c-4.4,0.2-8.5,1.6-11.9,3.9c2.6,3.2-1.9,7.4-5.3,5.3
						c-2.2,3.3-3.4,7.1-3.3,11.2c0.2,5.4,2.7,10.2,6.6,13.6c-6.2-3.2-10.5-9.3-10.8-16.4c-0.4-10.9,8.8-20.1,20.5-20.5
						C152.2,90.4,157.6,92.4,161.6,95.8z"/>
				</g>
				<g>
					<path class="st6" d="M147,100c6.2-0.2,11.3,4.2,11.5,9.9c0.2,5.7-4.6,10.5-10.7,10.7c-6.2,0.2-11.3-4.2-11.5-9.9
						C136.1,105,140.9,100.2,147,100z"/>
				</g>
				<g class="st4">
					<path class="st5" d="M155.1,102.7c2.6,1.8,4.4,4.6,4.5,7.9c0.1,2.3-0.7,4.5-2,6.3c1.6,2.1-1.5,4.7-3.6,3.1
						c-1.5,0.8-3.3,1.3-5.1,1.4c-3.1,0.1-6-1-8.1-2.8c2,1.4,4.4,2.1,7,2c6.2-0.2,11-5.1,10.7-10.8
						C158.4,107,157.1,104.5,155.1,102.7z"/>
				</g>
				<g class="st1">
					<path class="st2" d="M147,100c3.3-0.1,6.3,1.1,8.4,3.1c-1.9-1.2-4.2-1.8-6.7-1.8c-6.2,0.2-11,5.1-10.7,10.7
						c0.1,2.6,1.3,5,3.1,6.7c-2.8-1.8-4.7-4.7-4.9-8.1C136.1,105,140.9,100.2,147,100z"/>
				</g>
				<g>
					<path class="st2" d="M147.2,131.7c-12.2,0-22.2-9-22.6-20.5c-0.4-11.8,9.5-21.8,22.1-22.3c12.6-0.5,23.2,8.7,23.6,20.5
						c0.2,5.8-2,11.2-6.2,15.5c-4.1,4.2-9.8,6.6-15.9,6.8C147.8,131.7,147.5,131.7,147.2,131.7z M147.6,92.3c-0.3,0-0.6,0-0.9,0
						c-10.8,0.4-19.3,8.8-18.9,18.7c0.4,9.9,9.4,17.6,20.2,17.2c5.3-0.2,10.2-2.3,13.7-5.9c3.5-3.5,5.4-8.1,5.2-12.9
						C166.6,99.8,158,92.3,147.6,92.3z"/>
				</g>
			</g>
			<g>
				<g>
					<path class="st3" d="M46.9,91.5c11.7-0.5,21.5,8,21.9,18.8c0.4,10.9-8.8,20.1-20.5,20.5c-11.7,0.5-21.5-8-21.9-18.8
						S35.1,91.9,46.9,91.5z"/>
					<path class="st2" d="M47.4,131.1c-11.4,0-20.9-8.4-21.3-19.1c-0.4-11,8.9-20.4,20.8-20.8l0,0c11.9-0.5,21.8,8.1,22.2,19.1
						c0.2,5.3-1.9,10.4-5.8,14.4c-3.9,3.9-9.2,6.2-15,6.4C48,131.1,47.7,131.1,47.4,131.1z M46.9,91.7c-11.6,0.5-20.6,9.5-20.2,20.2
						c0.4,10.7,10.1,19,21.6,18.5c5.6-0.2,10.8-2.5,14.6-6.3c3.8-3.8,5.8-8.8,5.6-13.9C68.1,99.6,58.4,91.3,46.9,91.7L46.9,91.7z
						 M46.9,91.5L46.9,91.5L46.9,91.5z"/>
				</g>
				<g class="st4">
					<path class="st5" d="M61.8,96.7c-3.3-1.7-7.1-2.6-11.1-2.4c-4.4,0.2-8.5,1.6-11.9,3.9c2.6,3.2-1.9,7.4-5.3,5.3
						c-2.2,3.3-3.4,7.1-3.3,11.2c0.2,5.4,2.7,10.2,6.6,13.6c-6.2-3.2-10.5-9.3-10.8-16.4c-0.4-10.9,8.8-20.1,20.5-20.5
						C52.4,91.2,57.8,93.3,61.8,96.7z"/>
				</g>
				<g>
					<path class="st6" d="M47.2,100.8c6.2-0.2,11.3,4.2,11.5,9.9c0.2,5.7-4.6,10.5-10.7,10.7s-11.3-4.2-11.5-9.9
						S41.1,101.1,47.2,100.8z"/>
				</g>
				<g class="st4">
					<path class="st5" d="M55.3,103.6c2.6,1.8,4.4,4.6,4.5,7.9c0.1,2.3-0.7,4.5-2,6.3c1.6,2.1-1.5,4.7-3.6,3.1
						c-1.5,0.8-3.3,1.3-5.1,1.4c-3.1,0.1-6-1-8.1-2.8c2,1.4,4.4,2.1,7,2c6.2-0.2,11-5.1,10.7-10.8C58.6,107.9,57.3,105.4,55.3,103.6
						z"/>
				</g>
				<g class="st1">
					<path class="st2" d="M47.2,100.8c3.3-0.1,6.3,1.1,8.4,3.1c-1.9-1.2-4.2-1.8-6.7-1.8c-6.2,0.2-11,5.1-10.7,10.7
						c0.1,2.6,1.3,5,3.1,6.7c-2.8-1.8-4.7-4.7-4.9-8.1C36.3,105.9,41.1,101.1,47.2,100.8z"/>
				</g>
				<g>
					<path class="st2" d="M47.4,132.5c-12.2,0-22.2-9-22.6-20.5c-0.4-11.8,9.5-21.8,22.1-22.3l0,0c12.6-0.5,23.2,8.7,23.6,20.5
						c0.2,5.8-2,11.2-6.2,15.5c-4.1,4.2-9.8,6.6-15.9,6.8C48,132.5,47.7,132.5,47.4,132.5z M46.9,93.2C36.1,93.6,27.7,102,28,111.9
						c0.4,9.9,9.4,17.6,20.2,17.2c5.3-0.2,10.2-2.3,13.7-5.9c3.5-3.5,5.4-8.1,5.2-12.9C66.8,100.5,57.7,92.7,46.9,93.2L46.9,93.2z
						 M46.9,91.5L46.9,91.5L46.9,91.5z"/>
				</g>
			</g>
			<g>
				<g>
					<polygon class="st7" points="103.8,88.5 94.9,124.3 61.8,111.8 65.6,99 91.6,84.6 					"/>
				</g>
				<g class="st4">
					<polygon class="st5" points="94.9,124.3 91.9,95.1 83.6,89.1 91.6,84.6 103.8,88.5 					"/>
				</g>
				<g class="st4">
					<polygon class="st5" points="103.8,88.5 102.9,92 91.4,88.3 65.4,102.7 62.6,112.1 61.8,111.8 65.6,99 91.6,84.6 					"/>
				</g>
				<g>
					<path class="st2" d="M94.9,126.1c-0.2,0-0.4,0-0.6-0.1l-33.2-12.5c-0.9-0.3-1.4-1.3-1.1-2.3l3.8-12.8c0.1-0.5,0.4-0.9,0.9-1.1
						l26-14.4c0.4-0.2,0.9-0.3,1.3-0.1l12.2,3.9c0.9,0.3,1.4,1.3,1.2,2.2l-8.9,35.8c-0.1,0.5-0.4,0.9-0.9,1.2
						C95.5,126,95.2,126.1,94.9,126.1z M64,110.7l29.8,11.2l8-32.1l-9.9-3.1l-24.7,13.7L64,110.7z"/>
				</g>
				<g>
					<path class="st2" d="M61.8,113.6c-0.6,0-1.2-0.4-1.6-1c-0.4-0.9-0.1-2,0.7-2.5l42-23.3c0.9-0.5,1.9-0.1,2.4,0.8
						c0.4,0.9,0.1,2-0.7,2.5l-42,23.3C62.3,113.6,62,113.6,61.8,113.6z"/>
				</g>
				<g>
					<path class="st2" d="M94.9,126.1c-0.9,0-1.6-0.7-1.7-1.6l-2.9-28.3l-7.7-5.5c-0.8-0.6-1-1.7-0.4-2.6c0.6-0.8,1.6-1.1,2.4-0.5
						l8.4,6c0.4,0.3,0.7,0.8,0.7,1.3l3,29.2c0.1,1-0.6,1.9-1.6,2C95.1,126.1,95,126.1,94.9,126.1z"/>
				</g>
				<g>
					<path class="st2" d="M94.9,126.1c-0.4,0-0.8-0.1-1.1-0.4l-21.3-19c-0.4-0.4-0.6-0.9-0.6-1.4V94.6c0-1,0.8-1.8,1.7-1.8l0,0
						c1,0,1.7,0.8,1.7,1.8v9.8L96,122.9c0.7,0.7,0.8,1.8,0.2,2.6C95.9,125.9,95.4,126.1,94.9,126.1z"/>
				</g>
				<g class="st1">
					<polygon class="st2" points="94.9,124.3 61.8,111.8 65.6,99 73.6,94.6 73.6,105.2 					"/>
				</g>
			</g>
			<g>
				<g>
					<path class="st3" d="M100.2,113.6c10.5,5.5,15.2,17.9,10.5,27.6c-4.7,9.7-16.9,13.1-27.4,7.6c-10.5-5.5-15.2-17.9-10.5-27.6
						S89.7,108.1,100.2,113.6z"/>
					<path class="st2" d="M93.8,151.7c-3.6,0-7.2-0.9-10.6-2.7c-5.1-2.7-9-7.1-11.1-12.4c-2-5.3-1.9-10.8,0.4-15.6
						c4.7-9.8,17.2-13.3,27.8-7.7c5.1,2.7,9,7.1,11.1,12.4c2,5.3,1.9,10.8-0.4,15.6c-2.3,4.8-6.4,8.2-11.7,9.6
						C97.5,151.5,95.6,151.7,93.8,151.7z M89.7,111.3c-7.1,0-13.6,3.6-16.7,10.1c-2.2,4.6-2.4,10-0.4,15.1s5.8,9.4,10.8,12.1
						c5,2.6,10.6,3.3,15.7,1.9c5.1-1.4,9.1-4.7,11.3-9.3c2.2-4.6,2.4-10,0.4-15.1c-2-5.1-5.8-9.4-10.8-12.1
						C96.7,112.1,93.2,111.3,89.7,111.3z"/>
				</g>
				<g class="st4">
					<path class="st5" d="M110.8,125.8c-2.1-3.1-5-5.8-8.6-7.7c-4-2.1-8.2-2.9-12.2-2.6c0.8,4.1-5.1,5.5-7.2,2
						c-3.4,1.7-6.3,4.5-8.1,8.2c-2.3,4.8-2.3,10.3-0.4,15.2c-4-6-4.9-13.4-1.9-19.8c4.7-9.7,16.9-13.1,27.4-7.6
						C105.1,116.3,108.9,120.8,110.8,125.8z"/>
				</g>
				<g>
					<path class="st6" d="M96.2,122c5.5,2.9,8,9.4,5.5,14.5c-2.4,5.1-8.9,6.9-14.4,3.9c-5.5-2.9-8-9.4-5.5-14.5
						C84.2,120.9,90.7,119.1,96.2,122z"/>
				</g>
				<g class="st4">
					<path class="st5" d="M101.9,128.6c1.5,2.9,1.7,6.3,0.3,9.2c-1,2.1-2.7,3.6-4.7,4.5c0.4,2.6-3.5,3.3-4.6,0.9
						c-1.7-0.1-3.4-0.5-5.1-1.4c-2.8-1.5-4.8-3.9-5.8-6.6c1.1,2.2,2.9,4.1,5.3,5.3c5.5,2.9,11.9,1.1,14.4-4
						C102.9,134,102.9,131.2,101.9,128.6z"/>
				</g>
				<g class="st1">
					<path class="st2" d="M96.2,122c3,1.6,5,4.2,5.9,7.1c-1.1-2-2.8-3.8-5-4.9c-5.5-2.9-11.9-1.1-14.4,3.9c-1.1,2.3-1.2,5-0.4,7.4
						c-1.7-3-2-6.5-0.5-9.6C84.2,120.9,90.7,119.1,96.2,122z"/>
				</g>
				<g>
					<path class="st2" d="M93.8,153.2c-3.8,0-7.6-0.9-11.2-2.8c-5.4-2.9-9.6-7.5-11.7-13.1c-2.1-5.7-2-11.6,0.5-16.8
						c5.1-10.5,18.3-14.3,29.6-8.3c5.4,2.9,9.6,7.5,11.7,13.1c2.1,5.7,2,11.6-0.5,16.8s-6.9,8.8-12.6,10.4
						C97.7,152.9,95.7,153.2,93.8,153.2z M89.7,112.7c-6.6,0-12.6,3.3-15.4,9.3c-2,4.2-2.2,9.2-0.4,13.9c1.9,4.8,5.4,8.8,10.2,11.3
						c4.7,2.5,9.9,3.1,14.7,1.8c4.7-1.3,8.4-4.4,10.5-8.6c2-4.2,2.2-9.2,0.4-13.9c-1.9-4.8-5.4-8.8-10.2-11.3
						C96.3,113.5,92.9,112.7,89.7,112.7z"/>
				</g>
			</g>
			<g>
				<g>
					<path class="st3" d="M125.7,96.2c10.5,5.5,15.2,17.9,10.5,27.6c-4.7,9.7-16.9,13.1-27.4,7.6c-10.5-5.5-15.2-17.9-10.5-27.6
						C102.9,94.1,115.2,90.7,125.7,96.2z"/>
				</g>
				<g class="st4">
					<path class="st5" d="M136.3,108.4c-2.1-3.1-5-5.8-8.6-7.7c-4-2.1-8.2-2.9-12.2-2.6c0.8,4.1-5.1,5.5-7.2,2
						c-3.4,1.7-6.3,4.5-8.1,8.2c-2.3,4.8-2.3,10.3-0.4,15.2c-4-6-4.9-13.4-1.9-19.8c4.7-9.7,16.9-13.1,27.4-7.6
						C130.6,98.8,134.4,103.3,136.3,108.4z"/>
				</g>
				<g>
					<path class="st6" d="M121.7,104.6c5.5,2.9,8,9.4,5.5,14.5c-2.4,5.1-8.9,6.9-14.4,3.9s-8-9.4-5.5-14.5
						C109.7,103.5,116.2,101.7,121.7,104.6z"/>
				</g>
				<g class="st4">
					<path class="st5" d="M127.4,111.1c1.5,2.9,1.7,6.3,0.3,9.2c-1,2.1-2.7,3.6-4.7,4.5c0.4,2.6-3.5,3.3-4.6,0.9
						c-1.7-0.1-3.4-0.5-5.1-1.4c-2.8-1.5-4.8-3.9-5.8-6.6c1.1,2.2,2.9,4.1,5.3,5.3c5.5,2.9,11.9,1.1,14.4-4
						C128.4,116.5,128.4,113.7,127.4,111.1z"/>
				</g>
				<g class="st1">
					<path class="st2" d="M121.7,104.6c3,1.6,5,4.2,5.9,7.1c-1.1-2-2.8-3.8-5-4.9c-5.5-2.9-11.9-1.1-14.4,3.9
						c-1.1,2.3-1.2,5-0.4,7.4c-1.7-3-2-6.5-0.5-9.6C109.7,103.5,116.2,101.7,121.7,104.6z"/>
				</g>
				<g>
					<path class="st2" d="M119.2,135.8c-3.7,0-7.6-0.9-11.2-2.8c-5.4-2.9-9.6-7.5-11.7-13.1c-2.1-5.7-2-11.6,0.5-16.8
						c5.1-10.5,18.3-14.3,29.6-8.3c5.4,2.9,9.6,7.5,11.7,13.1c2.1,5.7,2,11.6-0.5,16.8C134.2,131.7,127,135.8,119.2,135.8z
						 M115.2,95.3c-6.6,0-12.6,3.3-15.4,9.3c-2,4.2-2.2,9.2-0.4,13.9c1.9,4.8,5.4,8.8,10.2,11.3c9.6,5.1,21,2,25.2-6.8
						c2-4.2,2.2-9.2,0.4-13.9c-1.9-4.8-5.4-8.8-10.2-11.3C121.8,96.1,118.4,95.3,115.2,95.3z"/>
				</g>
			</g>
			<g>
				<g>
					<path class="st3" d="M167.4,126c5.8,10.7,3.1,23.7-5.9,29.1c-9,5.4-21,1-26.8-9.7c-5.8-10.7-3.1-23.7,5.9-29.1
						C149.7,111,161.7,115.3,167.4,126z"/>
					<path class="st2" d="M153.2,157.7c-2.1,0-4.2-0.4-6.3-1.1c-5.1-1.8-9.5-5.8-12.3-11c-2.8-5.2-3.8-11.2-2.7-16.7
						c1.1-5.6,4.2-10.1,8.6-12.7c4.4-2.6,9.7-3.1,14.9-1.2c5.1,1.8,9.5,5.8,12.3,11l0,0c2.8,5.2,3.8,11.2,2.7,16.7
						c-1.1,5.6-4.2,10.1-8.6,12.7C159.1,156.9,156.2,157.7,153.2,157.7z M149.1,114.3c-2.9,0-5.7,0.8-8.3,2.3
						c-4.3,2.6-7.3,6.9-8.3,12.3c-1.1,5.4-0.2,11.2,2.6,16.4c2.8,5.1,7,8.9,12,10.7c5,1.8,10.1,1.4,14.4-1.2
						c4.3-2.6,7.3-6.9,8.3-12.3c1.1-5.4,0.2-11.2-2.6-16.4l0,0c-2.8-5.1-7-8.9-12-10.7C153.1,114.7,151.1,114.3,149.1,114.3z"/>
				</g>
				<g class="st4">
					<path class="st5" d="M169.9,142.3c-0.1-3.8-1.1-7.8-3.1-11.5c-2.2-4.1-5.3-7.2-8.8-9.2c-1.6,3.9-7.2,1.7-7-2.5
						c-3.8-0.6-7.6,0.1-11,2.1c-4.5,2.7-7.4,7.2-8.4,12.4c-0.1-7.3,3-14.1,8.9-17.6c9-5.4,21-1,26.8,9.7
						C170.2,131.1,171,137,169.9,142.3z"/>
				</g>
				<g>
					<path class="st6" d="M159.7,130.6c3,5.6,1.7,12.4-3.1,15.3s-11,0.5-14-5.1c-3-5.6-1.7-12.4,3.1-15.3
						C150.4,122.7,156.7,125,159.7,130.6z"/>
				</g>
				<g class="st4">
					<path class="st5" d="M161,139.4c-0.3,3.3-1.9,6.2-4.6,7.8c-1.9,1.2-4.1,1.5-6.3,1c-1,2.4-4.7,0.7-4.3-2c-1.4-1-2.6-2.4-3.5-4.1
						c-1.6-2.9-2-6.1-1.3-8.9c-0.3,2.4,0.2,5.1,1.6,7.5c3,5.6,9.3,7.9,14,5C159,144.5,160.4,142.1,161,139.4z"/>
				</g>
				<g class="st1">
					<path class="st2" d="M159.7,130.6c1.6,3,2,6.4,1.2,9.3c0.1-2.3-0.4-4.8-1.6-7c-3-5.6-9.3-7.9-14-5.1c-2.2,1.3-3.6,3.5-4.3,6
						c0.2-3.4,1.8-6.6,4.7-8.3C150.4,122.8,156.7,125,159.7,130.6z"/>
				</g>
				<g>
					<path class="st2" d="M153.2,159.1c-2.2,0-4.5-0.4-6.7-1.2c-5.4-2-10.1-6.1-13.1-11.6c-3-5.5-4-11.8-2.8-17.7
						c1.2-6,4.5-10.8,9.3-13.7s10.4-3.3,16-1.3c5.4,2,10.1,6.1,13.1,11.6l0,0c3,5.5,4,11.8,2.8,17.7c-1.2,6-4.5,10.8-9.3,13.7
						C159.6,158.3,156.4,159.1,153.2,159.1z M149.1,115.7c-2.7,0-5.3,0.7-7.6,2.1c-3.9,2.3-6.7,6.4-7.7,11.4
						c-1,5.1-0.1,10.5,2.4,15.3c2.6,4.8,6.6,8.4,11.3,10.1c4.6,1.7,9.3,1.3,13.3-1.1c3.9-2.3,6.7-6.4,7.7-11.4
						c1-5.1,0.1-10.5-2.4-15.3l0,0c-2.6-4.8-6.6-8.4-11.3-10.1C152.9,116.1,150.9,115.7,149.1,115.7z"/>
				</g>
			</g>
			<g>
				<g>
					<polygon class="st7" points="141.6,115.8 120.2,145.2 94.2,120.2 102.5,110 131.8,107.3 					"/>
				</g>
				<g class="st4">
					<polygon class="st5" points="120.2,145.2 128.3,117.1 122.7,108.1 131.8,107.3 141.6,115.8 					"/>
				</g>
				<g class="st4">
					<polygon class="st5" points="141.6,115.8 139.5,118.7 130.2,110.6 100.9,113.3 94.9,120.8 94.2,120.2 102.5,110 131.8,107.3 
											"/>
				</g>
				<g>
					<path class="st2" d="M120.2,147c-0.4,0-0.9-0.2-1.2-0.5l-26-25c-0.7-0.7-0.8-1.8-0.1-2.6l8.3-10.2c0.3-0.4,0.7-0.6,1.2-0.7
						l29.3-2.7c0.4,0,0.9,0.1,1.3,0.4l9.9,8.5c0.7,0.6,0.9,1.8,0.3,2.5l-21.4,29.4c-0.3,0.4-0.7,0.7-1.2,0.7
						C120.3,147,120.3,147,120.2,147z M96.6,120.1l23.3,22.4l19.2-26.4l-8-6.9l-27.8,2.6L96.6,120.1z"/>
				</g>
				<g>
					<path class="st2" d="M94.2,122.1c-0.9,0-1.7-0.7-1.7-1.7c-0.1-1,0.6-1.9,1.6-2l47.3-4.4c1-0.1,1.8,0.7,1.9,1.7
						c0.1,1-0.6,1.9-1.6,2L94.4,122C94.4,122.1,94.3,122.1,94.2,122.1z"/>
				</g>
				<g>
					<path class="st2" d="M120.2,147c-0.1,0-0.3,0-0.5-0.1c-0.9-0.3-1.4-1.3-1.2-2.3l7.8-27.3l-5.1-8.3c-0.5-0.9-0.3-2,0.5-2.6
						c0.8-0.6,1.9-0.3,2.4,0.5l5.5,9c0.3,0.4,0.4,1,0.2,1.5l-8,28.1C121.7,146.5,121,147,120.2,147z"/>
				</g>
				<g>
					<path class="st2" d="M120.2,147c-0.6,0-1.3-0.4-1.6-1l-12.6-26.2c-0.2-0.5-0.3-1,0-1.5l3.9-9.8c0.4-0.9,1.4-1.4,2.3-1
						c0.9,0.4,1.3,1.5,0.9,2.4l-3.6,9.1l12.3,25.4c0.4,0.9,0.1,2-0.8,2.5C120.8,147,120.5,147,120.2,147z"/>
				</g>
				<g class="st1">
					<polygon class="st8" points="120.2,145.2 94.2,120.2 102.5,110 111.5,109.1 107.6,119 					"/>
					<path class="st2" d="M120.2,145.5c-0.1,0-0.1,0-0.2-0.1l-26-25c-0.1-0.1-0.1-0.3,0-0.4l8.3-10.2c0-0.1,0.1-0.1,0.2-0.1l9-0.8
						c0.1,0,0.2,0,0.3,0.1c0.1,0.1,0.1,0.2,0,0.3l-3.9,9.7l12.6,26.1c0.1,0.1,0,0.3-0.1,0.4C120.3,145.5,120.3,145.5,120.2,145.5z
						 M94.6,120.2l24.7,23.7l-11.9-24.8c0-0.1,0-0.2,0-0.2l3.7-9.4l-8.5,0.8L94.6,120.2z"/>
				</g>
			</g>
			<g>
				<g>
					<path class="st3" d="M52.8,110.4c11.7-0.5,21.5,8,21.9,18.8c0.4,10.9-8.8,20.1-20.5,20.5c-11.7,0.5-21.5-8-21.9-18.8
						C31.9,120.1,41.1,110.9,52.8,110.4z"/>
					<path class="st2" d="M53.3,150.1c-5.4,0-10.5-1.8-14.4-5.3c-4.2-3.6-6.6-8.5-6.8-13.9c-0.2-5.3,1.9-10.4,5.8-14.4
						s9.2-6.2,15-6.4l0,0c5.7-0.2,11.2,1.6,15.4,5.2c4.2,3.6,6.6,8.5,6.8,13.9c0.2,5.3-1.9,10.4-5.8,14.4c-3.9,3.9-9.2,6.2-15,6.4
						C53.9,150.1,53.6,150.1,53.3,150.1z M52.8,110.7c-5.6,0.2-10.8,2.5-14.6,6.3c-3.8,3.8-5.8,8.8-5.6,13.9
						c0.2,5.2,2.6,9.9,6.6,13.4s9.4,5.3,15,5.1c5.6-0.2,10.8-2.5,14.6-6.3s5.8-8.8,5.6-13.9c-0.2-5.2-2.6-9.9-6.6-13.4
						C63.7,112.3,58.4,110.5,52.8,110.7L52.8,110.7z"/>
				</g>
				<g class="st4">
					<path class="st5" d="M67.7,115.7c-3.3-1.7-7.1-2.6-11.1-2.4c-4.4,0.2-8.5,1.6-11.9,3.9c2.6,3.2-1.9,7.4-5.3,5.3
						c-2.2,3.3-3.4,7.1-3.3,11.2c0.2,5.4,2.7,10.2,6.6,13.6c-6.2-3.2-10.5-9.3-10.8-16.4c-0.4-10.9,8.8-20.1,20.5-20.5
						C58.3,110.2,63.7,112.2,67.7,115.7z"/>
				</g>
				<g>
					<path class="st6" d="M53.2,119.8c6.2-0.2,11.3,4.2,11.5,9.9c0.2,5.7-4.6,10.5-10.7,10.7s-11.3-4.2-11.5-9.9
						C42.2,124.9,47,120.1,53.2,119.8z"/>
				</g>
				<g class="st4">
					<path class="st5" d="M61.2,122.6c2.6,1.8,4.4,4.6,4.5,7.9c0.1,2.3-0.7,4.5-2,6.3c1.6,2.1-1.5,4.7-3.6,3.1
						c-1.5,0.8-3.3,1.3-5.1,1.4c-3.1,0.1-6-1-8.1-2.8c2,1.4,4.4,2.1,7,2c6.2-0.2,11-5.1,10.7-10.8C64.5,126.9,63.2,124.4,61.2,122.6
						z"/>
				</g>
				<g class="st1">
					<path class="st2" d="M53.2,119.8c3.3-0.1,6.3,1.1,8.4,3.1c-1.9-1.2-4.2-1.8-6.7-1.8c-6.2,0.2-11,5.1-10.7,10.7
						c0.1,2.6,1.3,5,3.1,6.7c-2.8-1.8-4.7-4.7-4.9-8.1C42.2,124.9,47,120.1,53.2,119.8z"/>
				</g>
				<g>
					<path class="st2" d="M53.3,151.5c-5.7,0-11.1-2-15.3-5.6c-4.5-3.9-7.1-9.2-7.3-14.9c-0.2-5.8,2-11.2,6.2-15.5
						c4.1-4.2,9.8-6.6,15.9-6.8l0,0c6.1-0.2,11.9,1.7,16.3,5.5c4.5,3.9,7.1,9.2,7.3,14.9c0.2,5.8-2,11.2-6.2,15.5
						c-4.1,4.2-9.8,6.6-15.9,6.8C54,151.5,53.6,151.5,53.3,151.5z M52.9,112.2c-5.3,0.2-10.2,2.3-13.7,5.9
						c-3.5,3.5-5.4,8.1-5.2,12.9c0.2,4.7,2.3,9.1,6.1,12.4c3.8,3.3,8.9,5,14.1,4.8c5.3-0.2,10.2-2.3,13.7-5.9
						c3.5-3.5,5.4-8.1,5.2-12.9c-0.2-4.7-2.3-9.1-6.1-12.4C63.2,113.6,58.1,111.9,52.9,112.2L52.9,112.2z"/>
				</g>
			</g>
			<g>
				<g>
					<path class="st3" d="M47.7,144.9L20,130.4c-1.6-0.8-2.3-2.9-1.5-4.6l2.8-5.9c0.8-1.7,2.8-2.4,4.4-1.5l27.7,14.5
						c1.6,0.8,2.3,2.9,1.5,4.6l-2.8,5.9C51.3,145,49.3,145.7,47.7,144.9z"/>
				</g>
				<g class="st4">
					<polygon class="st5" points="42.7,141.8 37.9,139.3 43.3,127.8 48.1,130.3 					"/>
				</g>
				<g>
					<polygon class="st6" points="26.5,133.3 17.5,128.7 23,117.2 31.9,121.8 					"/>
				</g>
				<g class="st4">
					<polygon class="st5" points="47.4,144.6 44.6,143.1 50,131.6 52.8,133 					"/>
				</g>
				<g>
					<path class="st2" d="M49.2,147.1c-0.8,0-1.5-0.2-2.2-0.6l0,0l-27.7-14.5c-1.2-0.6-2.1-1.7-2.5-3c-0.4-1.3-0.3-2.8,0.3-4
						l2.8-5.9c1.2-2.6,4.3-3.7,6.7-2.4l27.7,14.5c1.2,0.6,2.1,1.7,2.5,3c0.4,1.3,0.3,2.8-0.3,4l-2.8,5.9c-0.6,1.2-1.6,2.2-2.9,2.6
						C50.2,147,49.7,147.1,49.2,147.1z M48.5,143.2c0.4,0.2,0.8,0.2,1.1,0.1c0.4-0.1,0.7-0.4,0.9-0.8l2.8-5.9
						c0.2-0.4,0.2-0.8,0.1-1.2c-0.1-0.4-0.4-0.7-0.8-0.9l-27.7-14.5c-0.7-0.4-1.7-0.1-2,0.7l-2.8,5.9c-0.2,0.4-0.2,0.8-0.1,1.2
						c0.1,0.4,0.4,0.7,0.8,0.9L48.5,143.2z"/>
				</g>
			</g>
			<g>
				<g>
					<path class="st3" d="M149,138.2l-29.7,9.3c-1.7,0.5-3.6-0.5-4.1-2.3l-1.8-6.3c-0.5-1.8,0.5-3.7,2.2-4.3l29.7-9.3
						c1.7-0.5,3.6,0.5,4.1,2.3l1.8,6.3C151.7,135.8,150.7,137.6,149,138.2z"/>
				</g>
				<g class="st4">
					<polygon class="st5" points="143.3,139.5 138.1,141.2 134.6,128.8 139.8,127.2 					"/>
				</g>
				<g>
					<polygon class="st6" points="126,145 116.4,148 112.9,135.7 122.4,132.7 					"/>
				</g>
				<g class="st4">
					<polygon class="st5" points="148.5,138.2 145.5,139.1 142,126.8 145,125.9 					"/>
				</g>
				<g>
					<path class="st2" d="M118.4,149.5c-0.8,0-1.6-0.2-2.4-0.6c-1.2-0.7-2-1.8-2.4-3.1l-1.8-6.3c-0.8-2.8,0.7-5.7,3.4-6.6l29.7-9.3
						c1.3-0.4,2.6-0.3,3.8,0.4c1.2,0.7,2,1.8,2.4,3.1l1.8,6.3c0.4,1.3,0.3,2.8-0.4,4c-0.6,1.2-1.7,2.1-3,2.6l-29.7,9.3
						C119.3,149.4,118.8,149.5,118.4,149.5z M146.2,127c-0.1,0-0.3,0-0.4,0.1l-29.7,9.3c-0.8,0.2-1.3,1.1-1,2l1.8,6.3
						c0.1,0.4,0.4,0.7,0.7,0.9c0.4,0.2,0.8,0.2,1.1,0.1l29.7-9.3l0,0c0.4-0.1,0.7-0.4,0.9-0.8s0.2-0.8,0.1-1.2l-1.8-6.3
						c-0.1-0.4-0.4-0.7-0.7-0.9C146.7,127.1,146.5,127,146.2,127z"/>
				</g>
			</g>
			<g>
				<g>
					<path class="st9" d="M208.3,166.9l-4.2,49.5c-1.6-0.4-3.3-0.7-5-0.7c-1.9,0-3.8,0.3-5.6,0.8c-6,1.8-10.7,6.5-12.9,12.6
						c-0.8,2.3-1.3,4.7-1.3,7.3c0,1.2,0.1,2.5,0.3,3.7H57.4c0.2-1.2,0.3-2.4,0.3-3.7c0-2.6-0.4-5-1.3-7.3
						c-2.2-6.1-7.2-10.9-13.2-12.6c-1.7-0.5-3.4-0.7-5.3-0.7c-1.9,0-3.6,0.3-5.3,0.7l-4-49.8c1.4,0.3,2.8,0.5,4.3,0.5
						c2.1,0,4.2-0.4,6.2-1c6.7-2.3,11.8-8.3,13.2-15.7c0.3-1.3,0.4-2.6,0.4-4c0-2.5-0.4-4.8-1.1-7h134.9c-0.7,2.2-1.1,4.5-1.1,7
						c0,1.4,0.1,2.7,0.4,4c1.3,7,6,12.8,12.2,15.3c2.2,0.9,4.6,1.4,7.2,1.4C206.2,167.2,207.2,167.1,208.3,166.9z"/>
					<path class="st2" d="M179.7,240.5H57.4c-0.1,0-0.1,0-0.2-0.1c0-0.1-0.1-0.1-0.1-0.2c0.2-1.2,0.3-2.4,0.3-3.7
						c0-2.5-0.4-4.9-1.3-7.2c-2.2-6.1-7.1-10.7-13-12.5c-3.4-1-7-1-10.4,0c-0.1,0-0.1,0-0.2,0c-0.1-0.1-0.1-0.1-0.1-0.2l-4-49.8
						c0-0.1,0-0.2,0.1-0.2s0.1-0.1,0.3-0.1c3.5,0.8,7.1,0.6,10.3-0.5c6.7-2.3,11.7-8.2,13-15.5c0.3-1.3,0.4-2.6,0.4-3.9
						c0-2.4-0.4-4.7-1.1-6.9c0-0.1,0-0.2,0-0.3c0-0.1,0.1-0.1,0.2-0.1h134.9c0.1,0,0.2,0.1,0.2,0.1c0,0.1,0.1,0.2,0,0.3
						c-0.7,2.2-1.1,4.5-1.1,6.9c0,1.3,0.1,2.7,0.4,3.9c1.3,6.8,5.9,12.6,12,15.1c2.3,0.9,4.6,1.4,7,1.4c1.1,0,2.2-0.1,3.3-0.3
						c0.1,0,0.2,0,0.2,0.1c0.1,0.1,0.1,0.1,0.1,0.2l-4.2,49.5c0,0.1,0,0.1-0.1,0.2c-0.1,0.1-0.1,0.1-0.2,0c-3.4-0.9-7-0.9-10.4,0.2
						c-5.8,1.8-10.6,6.4-12.7,12.4c-0.8,2.3-1.3,4.7-1.3,7.2c0,1.2,0.1,2.5,0.3,3.7c0,0.1,0,0.2-0.1,0.2
						C179.9,240.4,179.8,240.5,179.7,240.5z M57.7,239.9h121.7c-0.2-1.1-0.3-2.3-0.3-3.4c0-2.6,0.4-5,1.3-7.4
						c2.2-6.1,7.1-10.9,13.1-12.7c3.3-1,7-1.1,10.4-0.3l4.1-48.8c-1,0.1-2,0.2-3,0.2c-2.5,0-4.9-0.5-7.3-1.4
						c-6.3-2.6-11.1-8.5-12.4-15.5c-0.3-1.3-0.4-2.7-0.4-4.1c0-2.3,0.4-4.6,1-6.7H52c0.7,2.2,1,4.4,1,6.7c0,1.4-0.1,2.8-0.4,4.1
						c-1.4,7.4-6.5,13.5-13.4,15.9c-3.3,1.1-6.8,1.4-10.3,0.6l3.9,49.1c3.4-0.9,7-0.9,10.4,0.1c6.2,1.8,11.2,6.6,13.4,12.8
						c0.9,2.4,1.3,4.9,1.3,7.4C58,237.6,57.9,238.8,57.7,239.9z"/>
				</g>
				<g>
					<path class="st0" d="M208.3,166.9l-4.2,49.5c-1.6-0.4-3.3-0.7-5-0.7c-1.9,0-3.8,0.3-5.6,0.8c-6,1.8-10.7,6.5-12.9,12.6
						c-0.8,2.3-1.3,4.7-1.3,7.3c0,1.2,0.1,2.5,0.3,3.7H57.4c0.2-1.2,0.3-2.4,0.3-3.7c0-2.6-0.4-5-1.3-7.3
						c-2.2-6.1-7.2-10.9-13.2-12.6c-1.7-0.5-3.4-0.7-5.3-0.7c-1.9,0-3.6,0.3-5.3,0.7l-4-49.8c1.4,0.3,2.8,0.5,4.3,0.5
						c2.1,0,4.2-0.4,6.2-1c6.7-2.3,11.8-8.3,13.2-15.7c0.3-1.3,0.4-2.6,0.4-4c0-2.5-0.4-4.8-1.1-7h134.9c-0.7,2.2-1.1,4.5-1.1,7
						c0,1.4,0.1,2.7,0.4,4c1.3,7,6,12.8,12.2,15.3c2.2,0.9,4.6,1.4,7.2,1.4C206.2,167.2,207.2,167.1,208.3,166.9z"/>
				</g>
				<g class="st4">
					<path class="st5" d="M57.6,238.4c0,0.6,0.1,1.2,0.1,1.8h-0.3C57.5,239.6,57.6,239,57.6,238.4z"/>
					<path class="st2" d="M57.7,240.5h-0.3c-0.1,0-0.1,0-0.2-0.1c0-0.1-0.1-0.1-0.1-0.2c0.1-0.6,0.2-1.1,0.2-1.7
						c0-0.1,0.1-0.3,0.3-0.3l0,0c0.1,0,0.3,0.1,0.3,0.3c0,0.5,0.1,1.1,0.1,1.8c0,0.1,0,0.1-0.1,0.2
						C57.8,240.4,57.7,240.5,57.7,240.5z"/>
				</g>
				<g class="st4">
					<path class="st5" d="M52.5,143.4c-0.2-1.4-0.5-2.7-0.9-3.9h134.9c-0.4,1.2-0.7,2.6-0.9,3.9H52.5z"/>
				</g>
				<g>
					<path class="st2" d="M179.7,242H57.4c-0.5,0-1-0.2-1.3-0.7c-0.3-0.4-0.5-1-0.4-1.5c0.2-1.1,0.3-2.2,0.3-3.4
						c0-2.3-0.4-4.5-1.1-6.7c-2-5.6-6.5-9.9-12.1-11.5c-3.1-0.9-6.5-0.9-9.6,0c-0.5,0.1-1,0.1-1.5-0.3c-0.4-0.3-0.7-0.8-0.7-1.4
						l-4-49.8c0-0.6,0.2-1.2,0.6-1.5s1-0.5,1.5-0.4c3.2,0.7,6.6,0.6,9.6-0.5c6.2-2.1,10.8-7.6,12-14.3c0.2-1.2,0.3-2.4,0.3-3.7
						c0-2.2-0.4-4.3-1.1-6.4c-0.2-0.6-0.1-1.2,0.2-1.7s0.9-0.8,1.4-0.8h134.9c0.6,0,1.1,0.3,1.4,0.8s0.4,1.1,0.2,1.7
						c-0.7,2-1.1,4.2-1.1,6.4c0,1.2,0.1,2.5,0.3,3.7c1.2,6.3,5.4,11.6,11.2,13.9c2.1,0.9,4.3,1.3,6.5,1.3c1,0,2-0.1,3-0.3
						c0.5-0.1,1.1,0.1,1.5,0.5c0.4,0.4,0.6,0.9,0.6,1.5l-4.2,49.5c0,0.5-0.3,1-0.7,1.3c-0.4,0.3-1,0.4-1.4,0.3
						c-3.1-0.9-6.5-0.8-9.6,0.1c-5.4,1.7-9.8,5.9-11.7,11.4c-0.8,2.1-1.1,4.4-1.1,6.7c0,1.2,0.1,2.3,0.3,3.4c0.1,0.5,0,1.1-0.4,1.5
						C180.7,241.8,180.3,242,179.7,242z M59.4,238.3h118.4c0-0.6-0.1-1.2-0.1-1.9c0-2.7,0.5-5.4,1.4-8c2.4-6.6,7.6-11.7,14-13.7
						c3-0.9,6.3-1.2,9.5-0.6l3.8-45.2c-3.1,0.2-6.3-0.3-9.2-1.5c-6.8-2.8-11.9-9.1-13.3-16.6c-0.3-1.4-0.4-2.9-0.4-4.4
						c0-1.8,0.2-3.5,0.6-5.2H53.9c0.4,1.7,0.6,3.4,0.6,5.2c0,1.5-0.1,2.9-0.4,4.4c-1.5,8-7,14.5-14.4,17.1c-2.9,1-6,1.4-9.1,1
						l3.6,45.3c3.1-0.6,6.4-0.4,9.4,0.5c6.6,1.9,12,7.1,14.4,13.8c0.9,2.6,1.4,5.2,1.4,8C59.5,237.1,59.4,237.7,59.4,238.3z"/>
				</g>
				<g>
					<path class="st10" d="M197.9,165.8l-0.4,5l-3.9,45.8c-6,1.8-10.7,6.5-12.9,12.6H56.4c-2.2-6.1-7.2-10.9-13.2-12.6l-4-50.3
						c6.7-2.3,11.8-8.3,13.2-15.7h133.3C187,157.5,191.6,163.3,197.9,165.8z"/>
				</g>
				<g class="st1">
					<path class="st8" d="M197.5,170.8l-0.1,0.9c-1.2-0.5-2.4-1.2-3.4-2C195,170.2,196.2,170.6,197.5,170.8z"/>
					<path class="st2" d="M197.4,172c0,0-0.1,0-0.1,0c-1.2-0.5-2.4-1.2-3.5-2c-0.1-0.1-0.1-0.2-0.1-0.4c0.1-0.1,0.2-0.2,0.3-0.1
						c1.1,0.5,2.3,0.8,3.5,1c0.1,0,0.2,0.1,0.2,0.3l-0.1,0.9c0,0.1-0.1,0.2-0.1,0.2C197.5,172,197.4,172,197.4,172z M196.1,170.8
						c0.3,0.2,0.7,0.4,1,0.5l0-0.3C196.8,170.9,196.5,170.9,196.1,170.8z"/>
				</g>
				<g class="st11">
					<g>
						<path class="st2" d="M67.8,193.6c-1.3,0-2.6-0.2-3.8-0.7c-4.4-1.7-7-6.3-8.3-9.8c-0.6-1.6-1.1-3.3-1.6-4.9
							c-0.7-2.3-1.3-4.6-2.3-6.7c-1.5-3.2-3.9-6-6.9-8.1c-0.6-0.4-0.7-1.2-0.3-1.8c0.4-0.6,1.1-0.8,1.7-0.4c3.4,2.3,6,5.5,7.7,9.1
							c1.1,2.3,1.8,4.7,2.5,7.1c0.4,1.6,0.9,3.2,1.5,4.7c1.1,3,3.2,6.9,6.8,8.3c4.1,1.6,8.8-0.7,12-2.9c1.1-0.7,2.1-1.5,3.1-2.3
							c2.7-2.1,5.6-4.3,9-5.4c5-1.7,11.4-0.4,13.6,4.8c0.3,0.7,0,1.4-0.6,1.7c-0.6,0.3-1.4,0-1.7-0.7c-1.6-3.8-6.7-4.7-10.6-3.4
							c-3,1-5.6,3-8.3,5.1c-1,0.8-2.1,1.6-3.3,2.4C75.5,191.7,71.7,193.6,67.8,193.6z"/>
					</g>
					<g>
						<path class="st2" d="M74.6,180.1c-1.3,0-2.6-0.3-3.8-0.9c-4.1-2.3-4.9-7.4-5.6-11.8c-0.2-1.2-0.3-2.3-0.6-3.4
							c-1-4.8-3.8-9.3-7.7-12.4c-0.6-0.4-0.7-1.3-0.2-1.8c0.4-0.6,1.2-0.7,1.7-0.2c4.4,3.6,7.5,8.5,8.6,13.9
							c0.2,1.1,0.4,2.3,0.6,3.5c0.7,4.2,1.3,8.3,4.3,9.9c1.9,1,4.4,0.8,6.6-0.6c2.3-1.5,4-3.9,5.1-5.9c0.9-1.6,1.8-3.2,2.6-4.8
							c1.6-3,3.1-6.1,5.3-8.8c3.1-3.9,9.1-8,14.8-7.5c0.7,0.1,1.2,0.7,1.1,1.4c0,0.7-0.7,1.2-1.3,1.2c-4.6-0.4-9.9,3-12.7,6.6
							c-2,2.5-3.4,5.4-5,8.4c-0.9,1.6-1.7,3.4-2.7,5c-1.3,2.2-3.2,5-6,6.8C78.2,179.6,76.3,180.1,74.6,180.1z"/>
					</g>
					<g>
						<path class="st2" d="M76.9,166.9c-3.3,0-6.3-2.7-7.6-5.8c-1.3-3.3-1.2-6.9-0.9-10.6l0-0.4c0-0.7,0.7-1.3,1.3-1.2
							c0.7,0.1,1.2,0.7,1.1,1.4l0,0.4c-0.3,3.4-0.4,6.6,0.7,9.4c1,2.6,3.9,4.9,6.4,4.1c2-0.6,3.3-2.8,4-4.6c0.3-0.8,0.6-1.7,0.9-2.6
							c0.5-1.5,1-3.2,1.9-4.7c0.6-1.1,1.3-2,2.2-2.8c0.5-0.4,1.3-0.4,1.7,0.2c0.4,0.6,0.4,1.4-0.2,1.8c-0.6,0.5-1.2,1.2-1.6,2
							c-0.7,1.3-1.1,2.7-1.6,4.2c-0.3,0.9-0.6,1.8-0.9,2.7c-0.9,2.3-2.6,5.2-5.6,6.1C78.2,166.8,77.6,166.9,76.9,166.9z"/>
					</g>
					<g>
						<path class="st2" d="M104.8,173.8c-0.5,0-1-0.3-1.2-0.9c-1.5-4.5,1.3-9.2,4.8-11.1c4-2.2,8.4-1.6,11.6-0.7
							c2.4,0.7,4.6,1.7,6.8,2.7c1.1,0.5,2.3,1,3.5,1.5c9.9,4,20.9,4.3,30.9,0.9c8.7-2.9,16.6-8.8,22.3-16.4c0.4-0.6,1.2-0.7,1.7-0.2
							c0.6,0.4,0.6,1.3,0.2,1.8c-6,8-14.3,14.2-23.5,17.2c-10.6,3.6-22.2,3.3-32.6-0.9c-1.2-0.5-2.4-1-3.6-1.5
							c-2.2-1-4.3-1.9-6.5-2.6c-2.6-0.7-6.5-1.3-9.7,0.5c-2.5,1.4-4.6,4.9-3.6,8c0.2,0.7-0.1,1.4-0.8,1.7
							C105.1,173.7,104.9,173.8,104.8,173.8z"/>
					</g>
					<g>
						<path class="st2" d="M144.2,157.1c-4.1,0-8-2.4-9.6-6c0-0.1,0-0.1-0.1-0.1c-0.3-0.7,0-1.4,0.7-1.7c0.6-0.3,1.4,0,1.6,0.7
							c0,0,0,0,0,0.1c1.2,2.8,4.5,4.7,7.8,4.5c3.1-0.2,6.2-1.9,8.7-4.8c0,0,0.1-0.1,0.1-0.1c0.5-0.5,1.3-0.5,1.8,0
							c0.5,0.5,0.5,1.3,0,1.8c0,0,0,0,0,0.1l0,0c-3,3.4-6.7,5.4-10.4,5.6C144.6,157.1,144.4,157.1,144.2,157.1z M136.8,149.8
							L136.8,149.8L136.8,149.8z M136.8,149.8L136.8,149.8L136.8,149.8z"/>
					</g>
					<g>
						<path class="st2" d="M194.8,203.5c-0.1,0-0.2,0-0.3-0.1c-4.3-1.2-8.3-3.3-11.9-6.1c-3.4-2.7-7.8-7.3-9.1-13.8
							c-1.1-5.5,0.5-11.6,4.2-15.8c3.7-4.2,9.3-6.3,14.7-5.5c0.7,0.1,1.1,0.7,1.1,1.5c-0.1,0.7-0.7,1.2-1.4,1.1
							c-4.6-0.7-9.4,1.2-12.5,4.7c-3.1,3.5-4.5,8.7-3.6,13.4c0.9,4.4,3.8,8.7,8.2,12.2c3.3,2.6,7,4.5,11,5.7
							c0.7,0.2,1.1,0.9,0.9,1.6C195.9,203.1,195.3,203.5,194.8,203.5z"/>
					</g>
					<g>
						<path class="st2" d="M195.8,192.4c-0.1,0-0.3,0-0.4-0.1c-1.5-0.5-2.9-1.3-4.1-2.3c-2.6-2.1-4.4-5.2-5-8.5
							c-0.6-3.1,0.1-6.1,1.8-8c1.3-1.3,3.1-2.2,5.3-2.3c1.5-0.1,2.9,0.1,4.2,0.3c0.7,0.1,1.1,0.8,1,1.5c-0.1,0.7-0.7,1.2-1.4,1.1
							c-1.1-0.2-2.4-0.4-3.6-0.3c-1.5,0.1-2.8,0.7-3.6,1.5c-1.1,1.2-1.6,3.3-1.1,5.6c0.5,2.7,2,5.3,4.1,7c1,0.8,2.1,1.4,3.3,1.9
							c0.7,0.2,1,1,0.8,1.7C196.8,192.1,196.3,192.4,195.8,192.4z"/>
					</g>
					<g>
						<path class="st2" d="M128.2,230.5c-0.4,0-0.7-0.1-1-0.5c-0.4-0.6-0.4-1.4,0.1-1.8c0.7-0.7,1.4-1.4,2.1-2.2
							c3.7-4.3,5.9-9.9,8.1-15.2c0.3-0.8,0.6-1.5,1-2.3c2.7-6.4,5.9-13,11.3-17.2c5.3-4.1,14-5.7,19.6-0.5c3.5,3.2,4.7,7.8,6,12.3
							c0.3,1.2,0.7,2.5,1.1,3.7c1.8,5.5,4.9,10.7,8.9,14.8c0.5,0.5,0.5,1.3,0,1.8c-0.5,0.5-1.3,0.5-1.8,0c-4.3-4.4-7.6-9.9-9.5-15.8
							c-0.4-1.2-0.8-2.6-1.1-3.8c-1.2-4.3-2.3-8.4-5.2-11.1c-4.7-4.3-12-2.8-16.4,0.7c-5,3.9-8,10-10.5,16.1c-0.3,0.8-0.6,1.5-1,2.3
							c-2.3,5.5-4.6,11.3-8.6,15.9c-0.7,0.9-1.6,1.7-2.4,2.4C128.8,230.4,128.5,230.5,128.2,230.5z"/>
					</g>
					<g>
						<path class="st2" d="M166.8,230.5c-0.5,0-0.9-0.3-1.1-0.8c-0.8-1.8-1.3-3.9-1.4-6c-0.1-1.9-0.1-3.8-0.1-5.6
							c0.1-2.8,0.1-5.5-0.4-8.1c-0.9-4-4.3-7.9-7.8-7.2c-2.7,0.5-4.5,3.3-5.3,5.8c-0.6,1.9-0.9,3.9-1.1,6c-0.1,1.2-0.3,2.3-0.5,3.5
							c-0.7,4.2-2.4,8.3-4.7,11.9c-0.4,0.6-1.1,0.7-1.7,0.4c-0.6-0.4-0.7-1.2-0.3-1.8c2.1-3.3,3.6-7.1,4.3-10.9
							c0.2-1.1,0.3-2.3,0.4-3.4c0.3-2.1,0.5-4.4,1.2-6.5c1-3.2,3.4-6.9,7.3-7.5c5.1-0.9,9.5,4,10.7,9.2c0.7,2.9,0.6,5.9,0.5,8.8
							c0,1.8-0.1,3.6,0.1,5.4c0.1,1.8,0.6,3.6,1.2,5.1c0.3,0.7,0,1.4-0.6,1.7C167.1,230.4,167,230.5,166.8,230.5z"/>
					</g>
					<g>
						<path class="st2" d="M100.8,230.5c-0.4,0-0.9-0.2-1.1-0.7c-0.3-0.6-0.1-1.4,0.4-1.8c7.9-4.8,15.5-10.4,22.4-16.8
							c2-1.9,4.1-3.9,5.5-6.4c1.4-2.6,1.7-5.4,0.8-7.6c-1.4-3.5-5.4-4.8-8.6-4.7c-3.6,0.2-7,2-10.5,4c-3.2,1.8-6.4,3.8-9.6,5.7
							c-7.6,4.6-15.5,9.3-23.8,12.9c-9.6,4.1-18.8,6-27.2,5.7c-0.7,0-1.2-0.6-1.2-1.4c0-0.7,0.6-1.3,1.3-1.3
							c8.1,0.3,16.9-1.5,26.2-5.5c8.2-3.5,15.9-8.2,23.5-12.7c3.1-1.9,6.4-3.9,9.6-5.7c3.6-2,7.4-4,11.6-4.3c4-0.2,9.1,1.6,11,6.3
							c1.2,2.9,0.9,6.6-0.9,9.9c-1.5,2.9-3.8,5.1-6,7.1c-7,6.4-14.7,12.2-22.8,17.1C101.2,230.4,101,230.5,100.8,230.5z"/>
					</g>
					<g>
						<path class="st2" d="M66.8,207.6c-4.5,0-8.7-1.4-11.9-4.1c-1.5-1.3-2.8-2.9-4-4.4c-1-1.2-1.9-2.3-2.9-3.4
							c-2-2-4.5-3.4-7.2-4.2c-0.7-0.2-1-0.9-0.9-1.6c0.2-0.7,0.9-1.1,1.6-0.9c3.1,0.9,6,2.6,8.3,4.8c1.1,1.1,2.1,2.4,3.1,3.6
							c1.2,1.5,2.3,2.9,3.6,4.1c4.4,3.8,11.5,4.6,18,2c6.2-2.5,11.3-7.4,15.7-12.2c0.5-0.5,1.3-0.5,1.8,0c0.5,0.5,0.5,1.3,0,1.8
							c-4.5,4.8-9.9,10.2-16.6,12.9C72.5,207,69.6,207.6,66.8,207.6z"/>
					</g>
					<g>
						<path class="st2" d="M180.7,230.5H56.4c-0.5,0-1-0.3-1.2-0.9c-2.1-5.8-6.7-10.2-12.4-11.8c-0.5-0.1-0.9-0.6-0.9-1.2l-4-50.3
							c0-0.6,0.3-1.2,0.9-1.4c6.3-2.2,11.1-7.8,12.4-14.7c0.1-0.6,0.6-1.1,1.2-1.1h133.3c0.6,0,1.1,0.4,1.2,1.1
							c1.2,6.4,5.6,12,11.4,14.3c0.5,0.2,0.9,0.7,0.8,1.3l-4.3,50.8c0,0.5-0.4,1-0.9,1.1c-5.5,1.7-10,6.1-12.1,11.8
							C181.7,230.1,181.2,230.5,180.7,230.5z M57.3,227.8h122.6c2.3-5.7,6.9-10.2,12.6-12.2l4.1-49c-5.9-2.7-10.3-8.3-11.9-14.8
							H53.4c-1.7,7-6.5,12.7-12.9,15.3l3.9,48.4C50.2,217.4,54.9,222,57.3,227.8z"/>
					</g>
					<g>
						<path class="st2" d="M74.8,230.8c-0.6,0-1.1-0.4-1.2-1c-0.1-0.7,0.3-1.4,0.9-1.6c10.6-2.6,20.4-8.1,28.4-15.8
							c0.5-0.5,1.3-0.4,1.8,0.1c0.5,0.5,0.4,1.4-0.1,1.8c-8.3,8-18.5,13.7-29.5,16.5C75,230.8,74.9,230.8,74.8,230.8z"/>
					</g>
					<g>
						<path class="st2" d="M155.9,226.2c-0.1,0-0.1,0-0.2,0c-0.7-0.1-1.1-0.8-1.1-1.5l1.6-11.4c0.1-0.7,0.7-1.2,1.4-1.1
							c0.7,0.1,1.1,0.8,1.1,1.5l-1.6,11.4C157,225.7,156.5,226.2,155.9,226.2z"/>
					</g>
					<g>
						<path class="st2" d="M150.1,163.8c-0.8,0-1.5-0.1-2.3-0.1c-0.7-0.1-1.2-0.7-1.1-1.5c0.1-0.7,0.7-1.2,1.4-1.1
							c5.2,0.7,10.6-1.4,14.2-5.3c0.5-0.5,1.3-0.5,1.8,0c0.5,0.5,0.5,1.3,0,1.8C160.6,161.5,155.4,163.8,150.1,163.8z"/>
					</g>
					<g>
						<path class="st2" d="M173.5,224c-0.5,0-1-0.4-1.2-0.9l-2-6.8c-0.2-0.7,0.1-1.4,0.8-1.6c0.7-0.2,1.4,0.2,1.6,0.9l2,6.8
							c0.2,0.7-0.1,1.4-0.8,1.6C173.7,224,173.6,224,173.5,224z"/>
					</g>
					<g>
						<path class="st2" d="M151.1,183.5c-0.4,0-0.7-0.2-1-0.5c-0.4-0.6-0.3-1.4,0.2-1.8l7.9-6.4c0.6-0.4,1.3-0.3,1.7,0.2
							c0.4,0.6,0.3,1.4-0.2,1.8l-7.9,6.4C151.6,183.4,151.3,183.5,151.1,183.5z"/>
					</g>
				</g>
				<g class="st4">
					<rect x="42.3" y="205.3" class="st5" width="152.3" height="5.2"/>
				</g>
				<g class="st4">
					<rect x="40.7" y="176.4" class="st5" width="155" height="5.2"/>
				</g>
				<g>
					<path class="st2" d="M180.7,231H56.4c-0.7,0-1.4-0.5-1.6-1.2c-2-5.6-6.5-9.9-12.1-11.5c-0.7-0.2-1.2-0.9-1.3-1.6l-4-50.3
						c-0.1-0.9,0.4-1.6,1.2-1.9c6.2-2.1,10.8-7.6,12-14.3c0.1-0.9,0.9-1.5,1.7-1.5h133.3c0.9,0,1.6,0.6,1.7,1.5
						c1.2,6.3,5.4,11.6,11.2,13.9c0.7,0.3,1.2,1.1,1.1,1.9l-4.3,50.8c-0.1,0.7-0.6,1.4-1.3,1.6c-5.4,1.7-9.8,5.9-11.7,11.4
						C182.1,230.5,181.4,231,180.7,231z M57.6,227.3h121.9c2.4-5.6,6.9-10,12.4-12.1L196,167c-5.7-2.8-10.1-8.2-11.7-14.6H53.8
						c-1.7,6.8-6.5,12.4-12.7,15.1l3.8,47.7C50.5,217.1,55.2,221.6,57.6,227.3z"/>
				</g>
				<g>
					<path class="st12" d="M209.8,148.8l-1.5,18.1c-1.1,0.2-2.2,0.3-3.3,0.3c-2.5,0-4.9-0.5-7.2-1.4c-6.2-2.5-10.9-8.3-12.2-15.3
						c-0.3-1.3-0.4-2.6-0.4-4c0-2.5,0.4-4.8,1.1-7h15.3C206.5,139.5,210.3,143.8,209.8,148.8z"/>
					<path class="st2" d="M205,167.5c-2.5,0-4.9-0.5-7.3-1.4c-6.3-2.6-11.1-8.5-12.4-15.5c-0.3-1.3-0.4-2.7-0.4-4.1
						c0-2.4,0.4-4.8,1.2-7.1c0-0.1,0.1-0.2,0.3-0.2h15.3c2.4,0,4.6,1,6.2,2.9c1.6,1.8,2.4,4.3,2.2,6.8l0,0l-1.5,18.1
						c0,0.1-0.1,0.2-0.2,0.3C207.3,167.4,206.1,167.5,205,167.5z M208.3,166.9L208.3,166.9L208.3,166.9z M186.6,139.8
						c-0.7,2.2-1.1,4.4-1.1,6.7c0,1.3,0.1,2.7,0.4,3.9c1.3,6.8,5.9,12.6,12,15.1c2.3,0.9,4.6,1.4,7,1.4c1,0,2-0.1,3-0.2l1.5-17.9
						l0,0c0.2-2.3-0.6-4.6-2-6.3c-1.5-1.7-3.6-2.7-5.8-2.7H186.6z"/>
				</g>
				<g>
					<path class="st0" d="M209.8,148.8l-1.5,18.1c-1.1,0.2-2.2,0.3-3.3,0.3c-2.5,0-4.9-0.5-7.2-1.4c-6.2-2.5-10.9-8.3-12.2-15.3
						c-0.3-1.3-0.4-2.6-0.4-4c0-2.5,0.4-4.8,1.1-7h15.3C206.5,139.5,210.3,143.8,209.8,148.8z"/>
				</g>
				<g class="st1">
					<path class="st8" d="M197.9,165.8l-0.4,5c-1.2-0.2-2.4-0.6-3.5-1c0,0,0,0,0,0c-5.6-2.3-9.9-7.1-11.7-13.1h-132
						c1-1.9,1.7-3.9,2.1-6.1h133.3C187,157.5,191.6,163.3,197.9,165.8z"/>
					<path class="st2" d="M197.5,171.1L197.5,171.1c-1.2-0.2-2.4-0.6-3.6-1.1c0,0,0,0-0.1,0c-5.6-2.3-10-7.2-11.8-13.1H50.2
						c-0.1,0-0.2-0.1-0.2-0.1s0-0.2,0-0.3c1-1.9,1.7-3.9,2.1-6.1c0-0.1,0.1-0.2,0.3-0.2h133.3c0.1,0,0.3,0.1,0.3,0.2
						c1.3,6.8,5.9,12.6,12,15.1c0.1,0.1,0.2,0.2,0.2,0.3l-0.4,5c0,0.1,0,0.1-0.1,0.2C197.6,171.1,197.5,171.1,197.5,171.1z
						 M50.7,156.3h131.5c0.1,0,0.2,0.1,0.3,0.2c1.7,5.8,6,10.7,11.5,12.9l0,0c1,0.4,2.1,0.7,3.2,1l0.4-4.5
						c-6.2-2.6-10.8-8.4-12.2-15.2H52.6C52.2,152.7,51.6,154.6,50.7,156.3z"/>
				</g>
				<g class="st4">
					<path class="st5" d="M209.1,149.3l-1.5,18.1c-1,0.2-2,0.3-3,0.3l1.3-15.1c0.4-5-3.3-9.3-8.2-9.3h-12.9c0.2-1.1,0.5-2.2,0.9-3.3
						h15.3C205.8,140,209.5,144.3,209.1,149.3z"/>
				</g>
				<g>
					<path class="st0" d="M204.1,216.4l-1.3,15.9c-0.4,4.4-3.9,7.8-8.2,7.8h-14.9c-0.2-1.2-0.3-2.4-0.3-3.7c0-2.6,0.4-5,1.3-7.3
						c2.2-6,7-10.7,12.9-12.6c1.8-0.5,3.6-0.8,5.6-0.8C200.9,215.8,202.5,216,204.1,216.4z"/>
				</g>
				<g class="st4">
					<path class="st5" d="M204.1,216.4l-0.3,4.1c-1.2-0.2-2.4-0.4-3.7-0.4c-1.9,0-3.8,0.3-5.6,0.8c-6,1.8-10.7,6.5-12.9,12.6
						c-0.7,2.1-1.2,4.3-1.3,6.6h-0.6c-0.2-1.2-0.3-2.4-0.3-3.7c0-2.6,0.4-5,1.3-7.3c2.2-6,7-10.7,12.9-12.6c1.8-0.5,3.6-0.8,5.6-0.8
						C200.9,215.8,202.5,216,204.1,216.4z"/>
				</g>
				<g>
					<path class="st0" d="M57.7,236.5c0,1.2-0.1,2.5-0.3,3.7H42c-4.3,0-7.8-3.4-8.2-7.9l-1.3-15.8c1.7-0.5,3.4-0.7,5.3-0.7
						c1.8,0,3.6,0.3,5.3,0.7c6.1,1.8,11,6.5,13.2,12.6C57.2,231.4,57.7,233.9,57.7,236.5z"/>
				</g>
				<g class="st4">
					<path class="st5" d="M57.7,236.5c0,1.2-0.1,2.5-0.3,3.7h-1.6c-0.1-2-0.6-4-1.2-5.9c-2.2-6.1-7.2-10.9-13.2-12.6
						c-1.7-0.5-3.4-0.7-5.3-0.7c-1,0-2.1,0.1-3,0.2l-0.4-4.6c1.7-0.5,3.4-0.7,5.3-0.7c1.8,0,3.6,0.3,5.3,0.7
						c6.1,1.8,11,6.5,13.2,12.6C57.2,231.4,57.7,233.9,57.7,236.5z"/>
				</g>
				<g>
					<path class="st0" d="M52.7,146.5c0,1.4-0.1,2.7-0.4,4c-1.4,7.4-6.5,13.4-13.2,15.7c-1.9,0.7-4,1-6.2,1c-1.5,0-2.9-0.2-4.3-0.5
						l-1.4-17.9c-0.4-5,3.4-9.3,8.2-9.3h16.2C52.3,141.7,52.7,144,52.7,146.5z"/>
				</g>
				<g class="st4">
					<path class="st5" d="M52.7,146.5c0,1.4-0.1,2.7-0.4,4c-0.8,4.1-2.7,7.8-5.4,10.6c0.9-1.8,1.5-3.7,1.9-5.6
						c0.3-1.3,0.4-2.6,0.4-4c0-2.5-0.4-4.8-1.1-7H31.9c-1.6,0-3.1,0.5-4.4,1.3c0.9-3.6,4.1-6.3,7.9-6.3h16.2
						C52.3,141.7,52.7,144,52.7,146.5z"/>
				</g>
				<g>
					<path class="st2" d="M205,169c-2.7,0-5.3-0.5-7.8-1.5c-6.8-2.8-11.9-9.1-13.3-16.6c-0.3-1.4-0.4-2.9-0.4-4.4
						c0-2.6,0.4-5.2,1.3-7.6c0.3-0.7,0.9-1.2,1.6-1.2h15.3c2.8,0,5.4,1.2,7.3,3.4s2.8,5,2.6,8l-1.5,18.1c-0.1,0.8-0.7,1.5-1.4,1.7
						C207.4,168.9,206.2,169,205,169z M208.3,166.9L208.3,166.9L208.3,166.9z M187.7,141.3c-0.4,1.7-0.7,3.4-0.7,5.2
						c0,1.2,0.1,2.5,0.3,3.7c1.2,6.3,5.4,11.6,11.2,13.9c2.6,1.1,5.4,1.5,8.2,1.2l1.4-16.6l0,0c0.1-1.9-0.4-3.7-1.7-5.2
						c-1.2-1.4-2.9-2.2-4.7-2.2L187.7,141.3L187.7,141.3L187.7,141.3z"/>
				</g>
				<g>
					<path class="st2" d="M194.6,242h-14.9c-0.9,0-1.6-0.6-1.7-1.5c-0.2-1.3-0.3-2.6-0.3-4c0-2.7,0.5-5.4,1.4-8
						c2.4-6.6,7.6-11.7,14-13.7c3.7-1.2,7.7-1.2,11.5-0.2c0.8,0.2,1.4,1,1.3,1.9l-1.3,15.9C204.1,237.9,199.8,242,194.6,242z
						 M181.3,238.3h13.4c3.4,0,6.1-2.6,6.4-6.1l1.2-14.3c-2.7-0.5-5.6-0.3-8.2,0.5c-5.4,1.7-9.8,5.9-11.7,11.4
						c-0.8,2.1-1.1,4.4-1.1,6.7C181.2,237.1,181.2,237.7,181.3,238.3z"/>
				</g>
				<g>
					<path class="st2" d="M57.4,242H42.1c-5.1,0-9.5-4.2-9.9-9.6l-1.3-15.8c-0.1-0.9,0.5-1.7,1.3-1.9c3.7-1.1,7.7-1.1,11.5,0
						c6.6,1.9,12,7,14.4,13.8c0.9,2.6,1.4,5.2,1.4,8c0,1.4-0.1,2.7-0.3,4C58.9,241.4,58.2,242,57.4,242z M34.5,217.9l1.1,14.2
						c0.3,3.5,3.1,6.2,6.4,6.2h13.8c0.1-0.6,0.1-1.2,0.1-1.9c0-2.3-0.4-4.5-1.1-6.7c-2-5.6-6.5-9.9-12.1-11.5
						C40.1,217.5,37.2,217.4,34.5,217.9z"/>
				</g>
				<g>
					<path class="st2" d="M33,169c-1.6,0-3.1-0.2-4.7-0.5c-0.7-0.2-1.3-0.8-1.4-1.6L25.6,149c-0.2-2.9,0.7-5.8,2.6-7.9
						c1.9-2.1,4.5-3.4,7.3-3.4h16.2c0.7,0,1.4,0.5,1.6,1.2c0.9,2.4,1.3,5,1.3,7.6c0,1.5-0.1,2.9-0.4,4.4c-1.5,8-7,14.5-14.4,17.1
						C37.6,168.7,35.3,169,33,169z M30.3,165.2c2.8,0.4,5.7,0.2,8.3-0.7c6.2-2.1,10.8-7.6,12-14.3c0.2-1.2,0.3-2.4,0.3-3.7
						c0-1.8-0.2-3.5-0.7-5.2H35.4c-1.8,0-3.5,0.8-4.7,2.2c-1.2,1.4-1.8,3.2-1.7,5.1L30.3,165.2z"/>
				</g>
				<g>
					<path class="st2" d="M197,178.2H40c-1,0-1.7-0.8-1.7-1.8s0.8-1.8,1.7-1.8h157c1,0,1.7,0.8,1.7,1.8S197.9,178.2,197,178.2z"/>
				</g>
				<g>
					<path class="st2" d="M194.5,207.1H42.3c-1,0-1.7-0.8-1.7-1.8c0-1,0.8-1.8,1.7-1.8h152.3c1,0,1.7,0.8,1.7,1.8
						C196.3,206.3,195.5,207.1,194.5,207.1z"/>
				</g>
				<g>
					<path class="st13" d="M136.1,191.6h-34.5c-2.6,0-4.7-1.7-4.7-3.8v-12.6c0-2.1,2.1-3.8,4.7-3.8h34.5c2.6,0,4.7,1.7,4.7,3.8v12.6
						C140.8,189.9,138.7,191.6,136.1,191.6z"/>
				</g>
				<g class="st4">
					<path class="st5" d="M117.2,187.1L117.2,187.1c-2.3,0-4.2-2-4.2-4.4l0,0c0-2.4,1.9-4.4,4.2-4.4l0,0c2.3,0,4.2,2,4.2,4.4l0,0
						C121.4,185.1,119.5,187.1,117.2,187.1z"/>
				</g>
				<g class="st1">
					<path class="st2" d="M137.5,191.1v0.2c0,3.3-2.6,6-5.7,6H99.3c-3.2,0-5.7-2.7-5.7-6v-8.1c0-2.4,1.4-4.5,3.3-5.5v7.9
						c0,3.3,2.6,6,5.7,6h32.5C136,191.6,136.8,191.4,137.5,191.1z"/>
				</g>
				<g class="st4">
					<path class="st5" d="M140.6,177.8v8.1c0,2.3-1.2,4.3-3,5.3c0.2-0.6,0.3-1.2,0.3-1.9v-8.1c0-3.3-2.6-6-5.7-6H99.6
						c-1,0-1.9,0.3-2.7,0.7c0.8-2.4,2.9-4.1,5.4-4.1h32.5C138,171.8,140.6,174.5,140.6,177.8z"/>
				</g>
				<g>
					<path class="st2" d="M135.1,193.4h-32.5c-4.1,0-7.5-3.5-7.5-7.9v-8.1c0-4.3,3.4-7.9,7.5-7.9h32.5c4.1,0,7.5,3.5,7.5,7.9v8.1
						C142.6,189.9,139.3,193.4,135.1,193.4z M102.6,173.3c-2.2,0-4,1.9-4,4.2v8.1c0,2.3,1.8,4.2,4,4.2h32.5c2.2,0,4-1.9,4-4.2v-8.1
						c0-2.3-1.8-4.2-4-4.2H102.6z"/>
				</g>
				<g>
					<path class="st2" d="M118.4,185.9L118.4,185.9c-2.3,0-4.2-2-4.2-4.4l0,0c0-2.4,1.9-4.4,4.2-4.4l0,0c2.3,0,4.2,2,4.2,4.4l0,0
						C122.5,183.9,120.7,185.9,118.4,185.9z"/>
				</g>
				<g class="st1">
					<path class="st8" d="M197.5,170.8c0,0,6,2.1,10.5,0.6l-0.4-4h-8.7L197.5,170.8z"/>
					<path class="st2" d="M204.2,172.2c-3.5,0-6.7-1.1-6.9-1.2c-0.1,0-0.1-0.1-0.1-0.1c0-0.1,0-0.1,0-0.2l1.4-3.4
						c0-0.1,0.1-0.2,0.3-0.2h8.7c0.1,0,0.3,0.1,0.3,0.3l0.4,4c0,0.1-0.1,0.3-0.2,0.3C206.8,172.1,205.5,172.2,204.2,172.2z
						 M197.8,170.6c1.2,0.4,6,1.7,9.8,0.6l-0.3-3.5H199L197.8,170.6z"/>
				</g>
			</g>
			<g>
				<g>
					<path class="st0" d="M213.8,68.5c0,3.1-0.3,6-0.9,8.9h-15.3c0.6-2.9,0.9-5.8,0.9-8.9c0-22.5-16.9-40.8-38.1-41.8h15.3
						C196.9,27.7,213.8,46,213.8,68.5z"/>
				</g>
				<g class="st4">
					<path class="st5" d="M213.8,68.5c0,3.1-0.3,6-0.9,8.9h-3c0.3-2.1,0.5-4.3,0.5-6.5c0-22.5-16.9-40.8-38.1-41.8H172
						c-3.6-1.3-7.5-2.2-11.5-2.3h15.3C196.9,27.7,213.8,46,213.8,68.5z"/>
				</g>
				<g>
					<path class="st0" d="M37.3,68.5c0,3.1,0.3,6,0.9,8.9H23.6c-0.6-2.9-0.9-5.8-0.9-8.9c0-22.5,16.9-40.8,38.1-41.8h14.6
						C54.2,27.7,37.3,46,37.3,68.5z"/>
				</g>
				<g class="st4">
					<path class="st5" d="M37.3,68.5c0,3.1,0.3,6,0.9,8.9H23.6c-0.1-0.4-0.2-0.9-0.3-1.4h9.9c-0.6-2.9-0.9-5.8-0.9-8.9
						c0-19.4,12.5-35.6,29.5-40.4h13.6C54.2,27.7,37.3,46,37.3,68.5z"/>
				</g>
				<g>
					<path class="st2" d="M212.9,79.2h-15.3c-0.5,0-1-0.2-1.4-0.7c-0.3-0.4-0.4-1-0.3-1.5c0.6-2.8,0.9-5.6,0.9-8.5
						c0-21.5-16-39-36.4-39.9c-1,0-1.7-0.9-1.7-1.9c0-1,0.8-1.8,1.7-1.8h15.3c0,0,0,0,0.1,0c22.3,1,39.8,20.2,39.8,43.6
						c0,3.1-0.3,6.3-0.9,9.3C214.5,78.6,213.8,79.2,212.9,79.2z M199.8,75.6h11.7c0.4-2.3,0.6-4.7,0.6-7c0-21.5-16-39-36.4-39.9
						h-0.1c14.6,6.8,24.7,22.1,24.7,39.9C200.3,70.9,200.2,73.2,199.8,75.6z"/>
				</g>
				<g>
					<path class="st2" d="M38.2,79.2H23.6c-0.8,0-1.5-0.6-1.7-1.5c-0.6-3-1-6.1-1-9.3c0-23.4,17.5-42.6,39.8-43.6c0,0,0,0,0.1,0
						h14.6c1,0,1.7,0.8,1.7,1.8c0,1-0.7,1.8-1.7,1.9C55,29.5,39,47.1,39,68.5c0,2.9,0.3,5.7,0.9,8.5c0.1,0.5,0,1.1-0.3,1.5
						C39.2,79,38.7,79.2,38.2,79.2z M25,75.6h11c-0.4-2.3-0.6-4.7-0.6-7c0-17.8,10-33.1,24.6-39.9C40,29.9,24.4,47.3,24.4,68.5
						C24.4,70.9,24.6,73.2,25,75.6z"/>
				</g>
				<g>
					<path class="st10" d="M198.6,68.5c0,3.1-0.3,6-0.9,8.9H38.2c-0.6-2.9-0.9-5.8-0.9-8.9c0-22.5,16.9-40.8,38.1-41.8h85.1
						C181.7,27.7,198.6,46,198.6,68.5z"/>
				</g>
				<g class="st4">
					<rect x="37.9" y="61.3" class="st5" width="160.6" height="3.4"/>
				</g>
				<g class="st4">
					<rect x="44.3" y="42.9" class="st5" width="147" height="3.4"/>
				</g>
				<g class="st1">
					<path class="st2" d="M198.6,68.5c0,3.1-0.3,6-0.9,8.9h-8.9c0.6-2.9,0.9-5.8,0.9-8.9c0-22.5-16.9-40.8-38.1-41.8h8.9
						C181.7,27.7,198.6,46,198.6,68.5z"/>
				</g>
				<g>
					<path class="st2" d="M197.7,79.2H38.2c-0.8,0-1.5-0.6-1.7-1.5c-0.6-3-1-6.1-1-9.3c0-23.4,17.5-42.6,39.8-43.6c0,0,0,0,0.1,0
						h85.1c0,0,0,0,0.1,0c22.3,1,39.8,20.2,39.8,43.6c0,3.1-0.3,6.3-0.9,9.3C199.2,78.6,198.5,79.2,197.7,79.2z M39.6,75.6h156.6
						c0.4-2.3,0.6-4.7,0.6-7c0-21.5-16-39-36.4-39.9h-85C55,29.6,39,47.1,39,68.5C39,70.9,39.2,73.2,39.6,75.6z"/>
				</g>
				<g class="st1">
					<path class="st5" d="M164.4,57.2c0,7.7-13,13.9-29,13.9s-29-6.2-29-13.9s13-8.8,29-8.8S164.4,49.5,164.4,57.2z"/>
				</g>
				<g>
					<path class="st2" d="M197.6,61.6H38.1c-1,0-1.7-0.8-1.7-1.8c0-1,0.8-1.8,1.7-1.8h159.5c1,0,1.7,0.8,1.7,1.8
						C199.3,60.8,198.6,61.6,197.6,61.6z"/>
				</g>
				<g>
					<path class="st2" d="M188.9,43.5H46.6c-1,0-1.7-0.8-1.7-1.8s0.8-1.8,1.7-1.8h142.3c1,0,1.7,0.8,1.7,1.8S189.9,43.5,188.9,43.5z
						"/>
				</g>
				<g class="st11">
					<g>
						<path class="st2" d="M79.8,79.5c-0.3,0-0.5-0.1-0.7-0.2c-2.9-2-5.9-4.8-9.3-8.8c-0.8-0.9-1.6-1.9-2.4-2.9
							c-3.9-4.6-7.9-9.4-12.9-12.4c-4.1-2.4-9.2-3.2-13.3-2c-0.7,0.2-1.4-0.2-1.6-0.9c-0.2-0.7,0.2-1.5,0.9-1.7
							c4.7-1.4,10.4-0.6,15.3,2.2c5.4,3.2,9.6,8.2,13.6,13c0.8,0.9,1.6,1.9,2.4,2.9c3.2,3.7,6,6.4,8.7,8.3c0.6,0.4,0.8,1.3,0.4,1.9
							C80.6,79.2,80.2,79.5,79.8,79.5z"/>
					</g>
					<g>
						<path class="st2" d="M56.9,79.5c-0.6,0-1.2-0.5-1.3-1.2c-0.3-1.9-0.1-3.9,0-5.9c0.2-3.4,0.4-6.6-1.2-8.9
							c-2.7-3.5-8.5-2.2-10.2-1.7c-2,0.6-4,1.4-5.9,2.3c-0.2,0.1-0.4,0.1-0.6,0.1c-0.7,0-1.3-0.6-1.3-1.4c0-0.6,0.3-1.1,0.8-1.3
							c2-1,4.1-1.9,6.3-2.5c2.7-0.8,9.4-2,12.9,2.7c2.3,3.1,2,7,1.8,10.8c-0.1,1.9-0.3,3.7,0,5.4c0.1,0.7-0.4,1.5-1.1,1.5
							C57,79.5,56.9,79.5,56.9,79.5z"/>
					</g>
					<g>
						<path class="st2" d="M103.4,78.5c-6.8,0-13.9-4-19.9-11.2c-2.7-3.2-5-6.8-7.3-10.3c-2.3-3.5-4.6-7.1-7.3-10.3
							c-4.7-5.5-10.4-9.1-15.7-9.8c-0.7-0.1-1.2-0.8-1.1-1.5c0.1-0.7,0.7-1.3,1.4-1.2c8.2,1,14.4,7.2,17.4,10.7
							c2.8,3.3,5.2,7,7.5,10.6c2.2,3.4,4.5,6.9,7,10C88.3,69,96,77,105.4,75.7c9.6-1.4,15.1-11.6,17-16c1.5-3.4,2.7-7.1,3.9-10.6
							c1.6-4.7,3.1-9.5,5.5-13.9c1.7-3.3,4-6.3,6.6-8.7c0.6-0.5,1.4-0.4,1.9,0.1c0.5,0.6,0.4,1.4-0.1,1.9c-2.3,2.2-4.4,4.9-6,8
							c-2.2,4.2-3.8,8.9-5.3,13.5c-1.2,3.6-2.4,7.3-4,10.9c-4.5,10.1-11.4,16.4-19.1,17.5C105,78.5,104.2,78.5,103.4,78.5z"/>
					</g>
					<g>
						<path class="st2" d="M100.1,66.7c-2.1,0-4.3-0.5-6.3-1.7c-5.3-3.2-7.3-9.3-9.3-15.3c-0.7-2-1.4-4.2-2.2-6.1
							c-2.6-6-7.1-11.1-12.7-14.5c-0.6-0.4-0.9-1.2-0.5-1.9s1.1-0.9,1.8-0.5C77,30.4,82,35.9,84.8,42.5c0.9,2,1.6,4.2,2.3,6.3
							c1.9,5.7,3.6,11.1,8.1,13.7c5.7,3.4,13.3-0.1,17-5.3c4.3-6.1,5-14.1,5.1-20.4c0-1.8,0-3.5,0-5.3c0-1.4,0-2.8,0-4.2
							c0-0.8,0.6-1.4,1.3-1.4c0.7,0,1.3,0.7,1.3,1.4c0,1.4,0,2.8,0,4.2c0,1.8,0,3.6,0,5.3c-0.1,6.7-0.9,15.3-5.6,22
							C111,63.4,105.5,66.7,100.1,66.7z"/>
					</g>
					<g>
						<path class="st2" d="M102.8,48.8c-2.3,0-4.5-1.3-5.9-2.9c-1.9-2.1-2.8-4.9-3.6-7.4c-1.1-3.2-2.1-6.3-3.2-9.5l-0.4-1
							c-0.3-0.7,0.1-1.5,0.8-1.8c0.7-0.3,1.4,0.1,1.7,0.8l0.4,1c1.1,3.2,2.1,6.4,3.2,9.5c0.8,2.3,1.6,4.7,3.1,6.4
							c1.2,1.4,3.4,2.6,5.3,1.8c1.5-0.6,2.4-2.3,2.7-3.8c0.4-1.8,0.3-3.9,0.1-5.8l-0.6-8.7c-0.1-0.8,0.5-1.4,1.2-1.5
							c0.7-0.1,1.4,0.5,1.4,1.3l0.6,8.7c0.1,2,0.3,4.4-0.2,6.6c-0.6,2.7-2.3,4.8-4.4,5.7C104.3,48.6,103.6,48.8,102.8,48.8z"/>
					</g>
					<g>
						<path class="st2" d="M128.2,79.5c-0.1,0-0.3,0-0.5-0.1c-0.7-0.3-1-1.1-0.8-1.8c2.2-6.2,5.3-13.2,10.7-18.6
							c8.9-8.8,23.1-10.7,33.8-4.5c8,4.6,13.7,13.6,14.9,23.5c0.1,0.7-0.4,1.4-1.1,1.5c-0.7,0.1-1.4-0.4-1.4-1.2
							c-1-9-6.2-17.2-13.5-21.4c-9.7-5.6-22.7-3.8-30.8,4.2c-5,5-7.9,11.7-10,17.6C129.2,79.1,128.7,79.5,128.2,79.5z"/>
					</g>
					<g>
						<path class="st2" d="M144,79.5c-0.1,0-0.3,0-0.4-0.1c-0.7-0.3-1-1-0.8-1.8c2.1-6.1,5.1-9.9,9.1-11.9
							c5.1-2.4,11.6-0.9,15.3,3.5c2,2.4,3.1,5.5,3.1,8.8c0,0.8-0.6,1.4-1.3,1.4l0,0c-0.7,0-1.3-0.6-1.3-1.4c0-2.7-0.9-5.2-2.4-7.1
							c-2.9-3.5-8.2-4.7-12.2-2.8c-3.4,1.6-5.8,4.9-7.7,10.3C145.1,79.1,144.6,79.5,144,79.5z"/>
					</g>
					<g>
						<path class="st2" d="M159.4,46.6c-0.4,0-0.9,0-1.3,0c-3.3-0.1-9.3-1.1-11.5-6.1c-1.9-4.2,0.1-9.3,3.1-12
							c0.9-0.8,1.8-1.5,2.9-2.2c0.6-0.4,1.4-0.1,1.8,0.5c0.4,0.7,0.1,1.5-0.5,1.9c-1,0.6-1.7,1.2-2.4,1.8c-2.3,2.1-3.8,5.8-2.4,8.8
							c1.7,3.8,7,4.4,9.2,4.5c8.5,0.3,17.2-2.9,23.9-8.8c0.6-0.5,1.4-0.4,1.9,0.2c0.5,0.6,0.4,1.5-0.1,1.9
							C177,43.2,168.2,46.6,159.4,46.6z"/>
					</g>
					<g>
						<path class="st2" d="M158.1,40.1c-0.3,0-0.6-0.1-0.9-0.4c-0.5-0.5-0.6-1.4-0.1-1.9c4.1-4.6,9.6-7.8,15.4-9.1
							c0.7-0.1,1.4,0.3,1.6,1.1c0.1,0.7-0.3,1.5-1,1.6c-5.3,1.2-10.3,4.1-14,8.3C158.8,39.9,158.4,40.1,158.1,40.1z"/>
					</g>
					<g>
						<path class="st2" d="M197.7,79.5H38.2c-0.6,0-1.1-0.4-1.3-1.1c-0.6-3-0.9-6.1-0.9-9.2C36,46,53.3,27.1,75.3,26.1
							c0,0,0,0,0.1,0h85.1c0,0,0,0,0.1,0c22.1,1,39.3,19.9,39.3,43.1c0,3.1-0.3,6.2-0.9,9.2C198.8,79,198.3,79.5,197.7,79.5z
							 M39.2,76.7h157.4c0.4-2.5,0.7-5,0.7-7.5c0-21.7-16.2-39.4-36.8-40.4H75.4c-20.6,0.9-36.8,18.7-36.8,40.4
							C38.6,71.7,38.8,74.3,39.2,76.7z"/>
					</g>
				</g>
			</g>
		</g>
		<g>
			<g>
				<ellipse class="st2" cx="163.6" cy="181.5" rx="1.8" ry="1.9"/>
			</g>
			<g>
				<ellipse class="st2" cx="165.1" cy="212.3" rx="2.6" ry="2.7"/>
			</g>
			<g>
				<ellipse class="st14" cx="6.7" cy="15.4" rx="1.8" ry="1.9"/>
			</g>
			<g>
				<ellipse class="st14" cx="24.5" cy="33.6" rx="2.6" ry="2.7"/>
			</g>
			<g>
				<path class="st2" d="M180.4,203.4c0.7,0,1.2-1,1.5-2.6c0.1-0.4,0.4-0.8,0.9-0.9c1.4-0.3,2.4-0.9,2.4-1.6s-1-1.3-2.4-1.6
					c-0.4-0.1-0.8-0.4-0.9-0.9c-0.3-1.5-0.9-2.6-1.5-2.6c-0.7,0-1.2,1-1.5,2.6c-0.1,0.4-0.4,0.8-0.9,0.9c-1.4,0.3-2.4,0.9-2.4,1.6
					s1,1.3,2.4,1.6c0.4,0.1,0.8,0.4,0.9,0.9C179.2,202.4,179.7,203.4,180.4,203.4z"/>
			</g>
			<g>
				<path class="st14" d="M20.5,7.7c0.5,0.5,1.6,0.2,3-0.7c0.4-0.3,0.9-0.3,1.3,0c1.3,0.9,2.5,1.2,3,0.7s0.2-1.7-0.7-3.1
					c-0.3-0.4-0.3-0.9,0-1.3c0.9-1.4,1.2-2.6,0.7-3.1c-0.5-0.5-1.6-0.2-3,0.7c-0.4,0.3-0.9,0.3-1.3,0c-1.3-0.9-2.5-1.2-3-0.7
					C20,0.7,20.3,2,21.2,3.3c0.3,0.4,0.3,0.9,0,1.3C20.3,6,20,7.2,20.5,7.7z"/>
			</g>
		</g>
	</g>
</g>
</svg>
