<?xml version="1.0" encoding="utf-8"?>
<!-- Generator: Adobe Illustrator 28.4.1, SVG Export Plug-In . SVG Version: 6.00 Build 0)  -->
<svg version="1.1" id="Layer_2_00000124863569196042102610000004875073211404526762_"
	 xmlns="http://www.w3.org/2000/svg" xmlns:xlink="http://www.w3.org/1999/xlink" x="0px" y="0px" viewBox="0 0 600 1000"
	 style="enable-background:new 0 0 600 1000;" xml:space="preserve">
<style type="text/css">
	.st0{display:none;fill:#FFFFFF;stroke:#000000;stroke-miterlimit:10;}
	.st1{fill:#FFFFFF;}
	.st2{fill:#6B6B84;}
	.st3{opacity:0.3;}
	.st4{fill:#000072;}
	.st5{opacity:0.55;}
	.st6{fill:#FF9C0D;}
	.st7{fill:#DD6819;}
	.st8{fill:#209DD8;}
	.st9{fill:#3AB4FF;}
	.st10{fill:#4089FF;}
	.st11{fill:#EA3442;}
	.st12{display:none;}
	.st13{display:inline;}
	.st14{display:inline;opacity:0.3;}
	.st15{display:inline;opacity:0.55;}
	.st16{display:inline;opacity:0.31;}
	.st17{clip-path:url(#SVGID_00000081614517235491836620000016343099645877606059_);fill:#EC1C24;}
	.st18{clip-path:url(#SVGID_00000081614517235491836620000016343099645877606059_);fill:#EC1D24;}
	.st19{clip-path:url(#SVGID_00000081614517235491836620000016343099645877606059_);fill:#EC1E24;}
	.st20{clip-path:url(#SVGID_00000081614517235491836620000016343099645877606059_);fill:#EC1F24;}
	.st21{clip-path:url(#SVGID_00000081614517235491836620000016343099645877606059_);fill:#EC2024;}
	.st22{clip-path:url(#SVGID_00000081614517235491836620000016343099645877606059_);fill:#ED2124;}
	.st23{clip-path:url(#SVGID_00000081614517235491836620000016343099645877606059_);fill:#ED2224;}
	.st24{clip-path:url(#SVGID_00000081614517235491836620000016343099645877606059_);fill:#ED2324;}
	.st25{clip-path:url(#SVGID_00000081614517235491836620000016343099645877606059_);fill:#ED2424;}
	.st26{clip-path:url(#SVGID_00000081614517235491836620000016343099645877606059_);fill:#ED2524;}
	.st27{clip-path:url(#SVGID_00000081614517235491836620000016343099645877606059_);fill:#ED2624;}
	.st28{clip-path:url(#SVGID_00000081614517235491836620000016343099645877606059_);fill:#ED2724;}
	.st29{clip-path:url(#SVGID_00000081614517235491836620000016343099645877606059_);fill:#ED2824;}
	.st30{clip-path:url(#SVGID_00000081614517235491836620000016343099645877606059_);fill:#ED2924;}
	.st31{clip-path:url(#SVGID_00000081614517235491836620000016343099645877606059_);fill:#ED2A24;}
	.st32{clip-path:url(#SVGID_00000081614517235491836620000016343099645877606059_);fill:#EE2A24;}
	.st33{clip-path:url(#SVGID_00000081614517235491836620000016343099645877606059_);fill:#EE2B24;}
	.st34{clip-path:url(#SVGID_00000081614517235491836620000016343099645877606059_);fill:#EE2C24;}
	.st35{clip-path:url(#SVGID_00000081614517235491836620000016343099645877606059_);fill:#EE2D24;}
	.st36{clip-path:url(#SVGID_00000081614517235491836620000016343099645877606059_);fill:#EE2E24;}
	.st37{clip-path:url(#SVGID_00000081614517235491836620000016343099645877606059_);fill:#EE2F24;}
	.st38{clip-path:url(#SVGID_00000081614517235491836620000016343099645877606059_);fill:#EE3024;}
	.st39{clip-path:url(#SVGID_00000081614517235491836620000016343099645877606059_);fill:#EE3124;}
	.st40{clip-path:url(#SVGID_00000081614517235491836620000016343099645877606059_);fill:#EE3224;}
	.st41{clip-path:url(#SVGID_00000081614517235491836620000016343099645877606059_);fill:#EE3225;}
	.st42{clip-path:url(#SVGID_00000081614517235491836620000016343099645877606059_);fill:#EF3325;}
	.st43{clip-path:url(#SVGID_00000081614517235491836620000016343099645877606059_);fill:#EF3425;}
	.st44{clip-path:url(#SVGID_00000081614517235491836620000016343099645877606059_);fill:#EF3525;}
	.st45{clip-path:url(#SVGID_00000081614517235491836620000016343099645877606059_);fill:#EF3625;}
	.st46{clip-path:url(#SVGID_00000081614517235491836620000016343099645877606059_);fill:#EF3725;}
	.st47{clip-path:url(#SVGID_00000081614517235491836620000016343099645877606059_);fill:#EF3825;}
	.st48{clip-path:url(#SVGID_00000081614517235491836620000016343099645877606059_);fill:#EF3925;}
	.st49{clip-path:url(#SVGID_00000081614517235491836620000016343099645877606059_);fill:#EF3A25;}
	.st50{clip-path:url(#SVGID_00000081614517235491836620000016343099645877606059_);fill:#EF3B25;}
	.st51{clip-path:url(#SVGID_00000081614517235491836620000016343099645877606059_);fill:#EF3C25;}
	.st52{clip-path:url(#SVGID_00000081614517235491836620000016343099645877606059_);fill:#F03D25;}
	.st53{clip-path:url(#SVGID_00000081614517235491836620000016343099645877606059_);fill:#F03E25;}
	.st54{clip-path:url(#SVGID_00000081614517235491836620000016343099645877606059_);fill:#F03F25;}
	.st55{clip-path:url(#SVGID_00000081614517235491836620000016343099645877606059_);fill:#F04025;}
	.st56{clip-path:url(#SVGID_00000081614517235491836620000016343099645877606059_);fill:#F04125;}
	.st57{clip-path:url(#SVGID_00000081614517235491836620000016343099645877606059_);fill:#F04225;}
	.st58{clip-path:url(#SVGID_00000081614517235491836620000016343099645877606059_);fill:#F04325;}
	.st59{clip-path:url(#SVGID_00000081614517235491836620000016343099645877606059_);fill:#F04425;}
	.st60{clip-path:url(#SVGID_00000081614517235491836620000016343099645877606059_);fill:#F04525;}
	.st61{clip-path:url(#SVGID_00000081614517235491836620000016343099645877606059_);fill:#F14625;}
	.st62{clip-path:url(#SVGID_00000081614517235491836620000016343099645877606059_);fill:#F14725;}
	.st63{clip-path:url(#SVGID_00000081614517235491836620000016343099645877606059_);fill:#F14825;}
	.st64{clip-path:url(#SVGID_00000081614517235491836620000016343099645877606059_);fill:#F14925;}
	.st65{clip-path:url(#SVGID_00000081614517235491836620000016343099645877606059_);fill:#F14A25;}
	.st66{clip-path:url(#SVGID_00000081614517235491836620000016343099645877606059_);fill:#F14B25;}
	.st67{clip-path:url(#SVGID_00000081614517235491836620000016343099645877606059_);fill:#F14C25;}
	.st68{clip-path:url(#SVGID_00000081614517235491836620000016343099645877606059_);fill:#F14D25;}
	.st69{clip-path:url(#SVGID_00000081614517235491836620000016343099645877606059_);fill:#F14E25;}
	.st70{clip-path:url(#SVGID_00000081614517235491836620000016343099645877606059_);fill:#F24F25;}
	.st71{clip-path:url(#SVGID_00000081614517235491836620000016343099645877606059_);fill:#F25025;}
	.st72{clip-path:url(#SVGID_00000081614517235491836620000016343099645877606059_);fill:#F25125;}
	.st73{clip-path:url(#SVGID_00000081614517235491836620000016343099645877606059_);fill:#F25225;}
	.st74{clip-path:url(#SVGID_00000081614517235491836620000016343099645877606059_);fill:#F25325;}
	.st75{clip-path:url(#SVGID_00000081614517235491836620000016343099645877606059_);fill:#F25425;}
	.st76{clip-path:url(#SVGID_00000081614517235491836620000016343099645877606059_);fill:#F25525;}
	.st77{clip-path:url(#SVGID_00000081614517235491836620000016343099645877606059_);fill:#F25625;}
	.st78{clip-path:url(#SVGID_00000081614517235491836620000016343099645877606059_);fill:#F25725;}
	.st79{clip-path:url(#SVGID_00000081614517235491836620000016343099645877606059_);fill:#F35825;}
	.st80{clip-path:url(#SVGID_00000081614517235491836620000016343099645877606059_);fill:#F35925;}
	.st81{clip-path:url(#SVGID_00000081614517235491836620000016343099645877606059_);fill:#F35A25;}
	.st82{clip-path:url(#SVGID_00000081614517235491836620000016343099645877606059_);fill:#F35C25;}
	.st83{clip-path:url(#SVGID_00000081614517235491836620000016343099645877606059_);fill:#F35D25;}
	.st84{clip-path:url(#SVGID_00000081614517235491836620000016343099645877606059_);fill:#F35E26;}
	.st85{clip-path:url(#SVGID_00000081614517235491836620000016343099645877606059_);fill:#F35F26;}
	.st86{clip-path:url(#SVGID_00000081614517235491836620000016343099645877606059_);fill:#F36026;}
	.st87{clip-path:url(#SVGID_00000081614517235491836620000016343099645877606059_);fill:#F46126;}
	.st88{clip-path:url(#SVGID_00000081614517235491836620000016343099645877606059_);fill:#F46226;}
	.st89{clip-path:url(#SVGID_00000081614517235491836620000016343099645877606059_);fill:#F46426;}
	.st90{clip-path:url(#SVGID_00000081614517235491836620000016343099645877606059_);fill:#F46526;}
	.st91{clip-path:url(#SVGID_00000081614517235491836620000016343099645877606059_);fill:#F46626;}
	.st92{clip-path:url(#SVGID_00000081614517235491836620000016343099645877606059_);fill:#F46726;}
	.st93{clip-path:url(#SVGID_00000081614517235491836620000016343099645877606059_);fill:#F46826;}
	.st94{clip-path:url(#SVGID_00000081614517235491836620000016343099645877606059_);fill:#F46A26;}
	.st95{clip-path:url(#SVGID_00000081614517235491836620000016343099645877606059_);fill:#F56B26;}
	.st96{clip-path:url(#SVGID_00000081614517235491836620000016343099645877606059_);fill:#F56C26;}
	.st97{clip-path:url(#SVGID_00000081614517235491836620000016343099645877606059_);fill:#F56D26;}
	.st98{clip-path:url(#SVGID_00000081614517235491836620000016343099645877606059_);fill:#F56F26;}
	.st99{clip-path:url(#SVGID_00000081614517235491836620000016343099645877606059_);fill:#F57026;}
	.st100{clip-path:url(#SVGID_00000081614517235491836620000016343099645877606059_);fill:#F57126;}
	.st101{clip-path:url(#SVGID_00000081614517235491836620000016343099645877606059_);fill:#F57226;}
	.st102{clip-path:url(#SVGID_00000081614517235491836620000016343099645877606059_);fill:#F67426;}
	.st103{clip-path:url(#SVGID_00000081614517235491836620000016343099645877606059_);fill:#F67526;}
	.st104{clip-path:url(#SVGID_00000081614517235491836620000016343099645877606059_);fill:#F67626;}
	.st105{clip-path:url(#SVGID_00000081614517235491836620000016343099645877606059_);fill:#F67726;}
	.st106{clip-path:url(#SVGID_00000081614517235491836620000016343099645877606059_);fill:#F67926;}
	.st107{clip-path:url(#SVGID_00000081614517235491836620000016343099645877606059_);fill:#F67A26;}
	.st108{clip-path:url(#SVGID_00000081614517235491836620000016343099645877606059_);fill:#F67B26;}
	.st109{clip-path:url(#SVGID_00000081614517235491836620000016343099645877606059_);fill:#F77D26;}
	.st110{clip-path:url(#SVGID_00000081614517235491836620000016343099645877606059_);fill:#F77E26;}
	.st111{clip-path:url(#SVGID_00000081614517235491836620000016343099645877606059_);fill:#F77F26;}
	.st112{clip-path:url(#SVGID_00000081614517235491836620000016343099645877606059_);fill:#F78126;}
	.st113{clip-path:url(#SVGID_00000081614517235491836620000016343099645877606059_);fill:#F78226;}
	.st114{clip-path:url(#SVGID_00000081614517235491836620000016343099645877606059_);fill:#F78426;}
	.st115{clip-path:url(#SVGID_00000081614517235491836620000016343099645877606059_);fill:#F78526;}
	.st116{clip-path:url(#SVGID_00000081614517235491836620000016343099645877606059_);fill:#F88626;}
	.st117{clip-path:url(#SVGID_00000081614517235491836620000016343099645877606059_);fill:#F88826;}
	.st118{clip-path:url(#SVGID_00000081614517235491836620000016343099645877606059_);fill:#F88927;}
	.st119{clip-path:url(#SVGID_00000081614517235491836620000016343099645877606059_);fill:#F88A27;}
	.st120{clip-path:url(#SVGID_00000081614517235491836620000016343099645877606059_);fill:#F88C27;}
	.st121{clip-path:url(#SVGID_00000081614517235491836620000016343099645877606059_);fill:#F88D27;}
	.st122{clip-path:url(#SVGID_00000081614517235491836620000016343099645877606059_);fill:#F98F27;}
	.st123{clip-path:url(#SVGID_00000081614517235491836620000016343099645877606059_);fill:#F99027;}
	.st124{clip-path:url(#SVGID_00000081614517235491836620000016343099645877606059_);fill:#F99227;}
	.st125{clip-path:url(#SVGID_00000081614517235491836620000016343099645877606059_);fill:#F99327;}
	.st126{clip-path:url(#SVGID_00000081614517235491836620000016343099645877606059_);fill:#F99427;}
	.st127{clip-path:url(#SVGID_00000081614517235491836620000016343099645877606059_);fill:#F99627;}
	.st128{clip-path:url(#SVGID_00000081614517235491836620000016343099645877606059_);fill:#F99727;}
	.st129{clip-path:url(#SVGID_00000081614517235491836620000016343099645877606059_);fill:#FA9927;}
	.st130{clip-path:url(#SVGID_00000081614517235491836620000016343099645877606059_);fill:#FA9A27;}
	.st131{clip-path:url(#SVGID_00000081614517235491836620000016343099645877606059_);fill:#FA9C27;}
	.st132{clip-path:url(#SVGID_00000081614517235491836620000016343099645877606059_);fill:#FA9D27;}
	.st133{clip-path:url(#SVGID_00000081614517235491836620000016343099645877606059_);fill:#FA9F27;}
	.st134{clip-path:url(#SVGID_00000081614517235491836620000016343099645877606059_);fill:#FAA027;}
	.st135{clip-path:url(#SVGID_00000081614517235491836620000016343099645877606059_);fill:#FBA227;}
	.st136{clip-path:url(#SVGID_00000081614517235491836620000016343099645877606059_);fill:#FBA327;}
	.st137{clip-path:url(#SVGID_00000081614517235491836620000016343099645877606059_);fill:#FBA527;}
	.st138{clip-path:url(#SVGID_00000081614517235491836620000016343099645877606059_);fill:#FBA627;}
	.st139{clip-path:url(#SVGID_00000081614517235491836620000016343099645877606059_);fill:#FBA827;}
	.st140{clip-path:url(#SVGID_00000081614517235491836620000016343099645877606059_);fill:#FBAA27;}
	.st141{clip-path:url(#SVGID_00000081614517235491836620000016343099645877606059_);fill:#FCAB27;}
	.st142{clip-path:url(#SVGID_00000081614517235491836620000016343099645877606059_);fill:#FCAD27;}
	.st143{clip-path:url(#SVGID_00000081614517235491836620000016343099645877606059_);fill:#FCAE27;}
	.st144{clip-path:url(#SVGID_00000081614517235491836620000016343099645877606059_);fill:#FCB027;}
	.st145{clip-path:url(#SVGID_00000081614517235491836620000016343099645877606059_);fill:#FCB127;}
	.st146{clip-path:url(#SVGID_00000081614517235491836620000016343099645877606059_);fill:#FCB327;}
	.st147{clip-path:url(#SVGID_00000081614517235491836620000016343099645877606059_);fill:#FDB528;}
	.st148{clip-path:url(#SVGID_00000081614517235491836620000016343099645877606059_);fill:#FDB628;}
	.st149{clip-path:url(#SVGID_00000081614517235491836620000016343099645877606059_);fill:#FDB828;}
	.st150{clip-path:url(#SVGID_00000081614517235491836620000016343099645877606059_);fill:#FDB928;}
	.st151{clip-path:url(#SVGID_00000081614517235491836620000016343099645877606059_);fill:#FDBB28;}
	.st152{clip-path:url(#SVGID_00000081614517235491836620000016343099645877606059_);fill:#FEBD28;}
	.st153{clip-path:url(#SVGID_00000081614517235491836620000016343099645877606059_);fill:#FEBE28;}
	.st154{clip-path:url(#SVGID_00000081614517235491836620000016343099645877606059_);fill:#FEC028;}
	.st155{clip-path:url(#SVGID_00000081614517235491836620000016343099645877606059_);fill:#FEC228;}
	.st156{clip-path:url(#SVGID_00000081614517235491836620000016343099645877606059_);fill:#FEC328;}
	.st157{clip-path:url(#SVGID_00000081614517235491836620000016343099645877606059_);fill:#FEC528;}
	.st158{clip-path:url(#SVGID_00000081614517235491836620000016343099645877606059_);fill:#FFC728;}
	.st159{clip-path:url(#SVGID_00000081614517235491836620000016343099645877606059_);fill:#FFC828;}
	.st160{clip-path:url(#SVGID_00000081614517235491836620000016343099645877606059_);fill:#FFCA28;}
	.st161{fill:#FFD553;}
</style>
<path class="st0" d="M498.7,803.4H-6.2c-17.7,0-32-14.3-32-32V90.6c0-17.7,14.3-32,32-32h504.9c17.7,0,32,14.3,32,32v680.8
	C530.7,789.1,516.3,803.4,498.7,803.4z"/>
<g>
	<g>
		<g>
			<g>
				<g>
					<path class="st1" d="M520.2,686.9h-58.3v-17.2h49.7v-52.6c0-21.5,17.5-38.9,38.9-38.9h6.7c12,0,21.8-9.8,21.8-21.8v-58.8h17.2
						v58.8c0,21.5-17.5,38.9-38.9,38.9h-6.7c-12,0-21.8,9.8-21.8,21.8v61.2C528.8,683,525,686.9,520.2,686.9z"/>
				</g>
				<g>
					<circle class="st1" cx="488.6" cy="630.7" r="10.9"/>
				</g>
			</g>
			<g>
				<path class="st2" d="M555.8,355l-513.7,0.1c-11.1,0-20.1-9-20.1-20.1l0-92.7c0-11.1,9-20.1,20.1-20.1l513.7-0.1
					c11.1,0,20.1,9,20.1,20.1l0,92.7C575.9,346,566.9,355,555.8,355z"/>
			</g>
			<g class="st3">
				<g>
					<path class="st4" d="M575.9,297.1l0,34.8c0,11.1-9,20.1-20.1,20.1l-513.7,0.1c-11.1,0-20.1-9-20.1-20.1l0-34.8
						c0,11.1,9,20.1,20.1,20.1l513.7-0.1C566.9,317.3,575.9,308.3,575.9,297.1z"/>
				</g>
			</g>
			<g class="st5">
				<g>
					<path class="st1" d="M575.9,242.1l0,11.6c0-11.1-9-20.1-20.1-20.1L42,233.7c-11.1,0-20.1,9-20.1,20.1l0-11.6
						c0-11.1,9-20.1,20.1-20.1l513.7-0.1C566.9,222,575.9,231,575.9,242.1z"/>
				</g>
			</g>
			<g>
				<path class="st4" d="M42,359.7c-13.6,0-24.7-11.1-24.7-24.7l0-92.7c0-13.6,11.1-24.7,24.7-24.7l513.7-0.1c0,0,0,0,0,0
					c6.6,0,12.8,2.6,17.5,7.2c4.7,4.7,7.2,10.9,7.2,17.5l0,92.7c0,13.6-11.1,24.7-24.7,24.7h0L42,359.7C42,359.7,42,359.7,42,359.7z
					 M555.8,355L555.8,355L555.8,355z M555.7,226.6C555.7,226.6,555.7,226.6,555.7,226.6L42,226.7c-4.2,0-8.1,1.6-11,4.6
					c-2.9,2.9-4.6,6.8-4.6,11l0,92.7c0,8.6,7,15.6,15.6,15.6c0,0,0,0,0,0l513.7-0.1h0c8.6,0,15.6-7,15.6-15.6l0-92.7
					c0-4.2-1.6-8.1-4.6-11C563.8,228.2,559.9,226.6,555.7,226.6z"/>
			</g>
			<g>
				<path class="st6" d="M527.6,371.9l0.1,377.6c0,32.3-26.2,58.6-58.5,58.6l-340.4,0.1c-32.3,0-58.6-26.2-58.6-58.5L70,372.1
					c0-15.5,6-29.6,15.9-40.1c10.7-11.4,25.9-18.5,42.7-18.5l340.4-0.1c16.8,0,32,7.1,42.7,18.5
					C521.5,342.3,527.6,356.4,527.6,371.9z"/>
			</g>
			<g class="st3">
				<g>
					<path class="st4" d="M527.7,749.6c0,32.3-26.2,58.6-58.5,58.6l-340.4,0.1c-32.3,0-58.6-26.2-58.6-58.5L70,372.1
						c0-0.4,0-0.7,0-1.1l0.1,339.7c0,32.3,26.2,58.6,58.6,58.5l340.4-0.1c31.8,0,57.7-25.4,58.5-57L527.7,749.6z"/>
				</g>
			</g>
			<g>
				<path class="st4" d="M128.7,812.8c-16.9,0-32.7-6.6-44.6-18.5c-11.9-11.9-18.5-27.8-18.5-44.6l-0.1-377.6
					c0-34.8,28.3-63.1,63.1-63.2l340.4-0.1c0,0,0,0,0,0c16.9,0,32.7,6.6,44.6,18.5c11.9,11.9,18.5,27.8,18.5,44.6l0.1,377.6
					c0,34.8-28.3,63.2-63.1,63.2L128.7,812.8C128.7,812.8,128.7,812.8,128.7,812.8z M469.1,803.6l0,4.6L469.1,803.6
					c29.8,0,54-24.2,54-54L523,371.9c0-14.4-5.6-28-15.8-38.2C497,323.6,483.4,318,469,318c0,0,0,0,0,0l-340.4,0.1
					c-29.8,0-54,24.2-54,54l0.1,377.6c0,14.4,5.6,28,15.8,38.2c10.2,10.2,23.8,15.8,38.2,15.8c0,0,0,0,0,0L469.1,803.6z"/>
			</g>
			<g>
				<path class="st6" d="M462.4,632.9l0,108.6c0,20.6-16.6,37.2-37.2,37.2l-252.6,0.1c-20.6,0-37.2-16.6-37.2-37.2l0-108.6
					L462.4,632.9z"/>
			</g>
			<g class="st3">
				<g>
					<path class="st4" d="M462.4,713.7l0,27.8c0,20.6-16.6,37.2-37.2,37.2l-252.6,0.1c-20.6,0-37.2-16.6-37.2-37.2l0-27.8
						c0,20.6,16.7,37.2,37.2,37.2l252.6-0.1C445.7,750.9,462.4,734.2,462.4,713.7z"/>
				</g>
			</g>
			<g class="st3">
				<g>
					<path class="st4" d="M462.4,626.6l0,43.9c-8.8,11.2-22.5,18.3-37.8,18.4l-251.4,0.1c-15.3,0-29-7.2-37.8-18.3l0-43.9
						L462.4,626.6z"/>
				</g>
			</g>
			<g>
				<path class="st4" d="M172.6,783.3c-23,0-41.8-18.7-41.8-41.8l0-108.6c0-2.5,2-4.6,4.6-4.6l327-0.1c0,0,0,0,0,0
					c2.5,0,4.6,2,4.6,4.6l0,108.6c0,23-18.7,41.8-41.8,41.8l0,0L172.6,783.3C172.6,783.3,172.6,783.3,172.6,783.3z M425.2,778.7
					L425.2,778.7L425.2,778.7z M139.9,637.5l0,104c0,18,14.6,32.6,32.6,32.6c0,0,0,0,0,0l252.6-0.1c18,0,32.6-14.7,32.6-32.6l0-104
					L139.9,637.5z"/>
			</g>
			<g>
				<g>
					<path class="st1" d="M162.8,674.7c-1.8,0-3.3-1.5-3.3-3.3l0-11c0-1.8,1.5-3.3,3.3-3.3l11,0h0c1.8,0,3.3,1.5,3.3,3.3
						c0,1.8-1.5,3.3-3.3,3.3l-7.7,0l0,7.7C166.1,673.2,164.7,674.7,162.8,674.7L162.8,674.7z"/>
				</g>
				<g>
					<path class="st1" d="M196.5,663.7c-1.8,0-3.3-1.5-3.3-3.3c0-1.8,1.5-3.3,3.3-3.3l22.7,0h0c1.8,0,3.3,1.5,3.3,3.3
						c0,1.8-1.5,3.3-3.3,3.3L196.5,663.7L196.5,663.7z M242,663.7c-1.8,0-3.3-1.5-3.3-3.3c0-1.8,1.5-3.3,3.3-3.3l22.7,0h0
						c1.8,0,3.3,1.5,3.3,3.3c0,1.8-1.5,3.3-3.3,3.3L242,663.7L242,663.7z M287.5,663.7c-1.8,0-3.3-1.5-3.3-3.3
						c0-1.8,1.5-3.3,3.3-3.3l22.7,0h0c1.8,0,3.3,1.5,3.3,3.3c0,1.8-1.5,3.3-3.3,3.3L287.5,663.7L287.5,663.7z M333,663.7
						c-1.8,0-3.3-1.5-3.3-3.3c0-1.8,1.5-3.3,3.3-3.3l22.7,0h0c1.8,0,3.3,1.5,3.3,3.3c0,1.8-1.5,3.3-3.3,3.3L333,663.7L333,663.7z
						 M378.5,663.7c-1.8,0-3.3-1.5-3.3-3.3c0-1.8,1.5-3.3,3.3-3.3l22.7,0h0c1.8,0,3.3,1.5,3.3,3.3c0,1.8-1.5,3.3-3.3,3.3
						L378.5,663.7L378.5,663.7z"/>
				</g>
				<g>
					<path class="st1" d="M434.9,674.6c-1.8,0-3.3-1.5-3.3-3.3l0-7.7l-7.7,0h0c-1.8,0-3.3-1.5-3.3-3.3c0-1.8,1.5-3.3,3.3-3.3l11,0h0
						c1.8,0,3.3,1.5,3.3,3.3l0,11C438.2,673.1,436.7,674.6,434.9,674.6L434.9,674.6z"/>
				</g>
				<g>
					<path class="st1" d="M201.2,754.6c-1.8,0-3.3-1.5-3.3-3.3c0-1.8,1.5-3.3,3.3-3.3l21.7,0h0c1.8,0,3.3,1.5,3.3,3.3
						c0,1.8-1.5,3.3-3.3,3.3L201.2,754.6L201.2,754.6z M244.6,754.6c-1.8,0-3.3-1.5-3.3-3.3c0-1.8,1.5-3.3,3.3-3.3l21.7,0h0
						c1.8,0,3.3,1.5,3.3,3.3c0,1.8-1.5,3.3-3.3,3.3L244.6,754.6L244.6,754.6z M288.1,754.6c-1.8,0-3.3-1.5-3.3-3.3
						c0-1.8,1.5-3.3,3.3-3.3l21.7,0c1.8,0,3.3,1.5,3.3,3.3c0,1.8-1.5,3.3-3.3,3.3L288.1,754.6z M331.5,754.6c-1.8,0-3.3-1.5-3.3-3.3
						c0-1.8,1.5-3.3,3.3-3.3l21.7,0h0c1.8,0,3.3,1.5,3.3,3.3c0,1.8-1.5,3.3-3.3,3.3L331.5,754.6L331.5,754.6z M374.9,754.6
						c-1.8,0-3.3-1.5-3.3-3.3c0-1.8,1.5-3.3,3.3-3.3l21.7,0h0c1.8,0,3.3,1.5,3.3,3.3c0,1.8-1.5,3.3-3.3,3.3L374.9,754.6L374.9,754.6
						z M179.6,753.8c-0.3,0-0.6,0-0.9-0.1c-8.2-2.2-14.8-8.2-17.6-16.2c-0.6-1.7,0.3-3.6,2-4.2c1.7-0.6,3.6,0.3,4.2,2
						c2.1,5.9,7.1,10.4,13.1,12.1c1.8,0.5,2.8,2.3,2.3,4.1C182.4,752.9,181,753.8,179.6,753.8z M418.3,753.8c-1.5,0-2.8-1-3.2-2.4
						c-0.5-1.8,0.6-3.6,2.3-4.1c6.1-1.6,11-6.2,13.1-12.1c0.6-1.7,2.5-2.6,4.2-2c1.7,0.6,2.6,2.5,2,4.2c-2.9,8-9.4,14-17.6,16.2
						C418.8,753.7,418.5,753.8,418.3,753.8z M162.8,718.2c-1.8,0-3.3-1.5-3.3-3.3l0-21.7c0-1.8,1.5-3.3,3.3-3.3h0
						c1.8,0,3.3,1.5,3.3,3.3l0,21.7C166.2,716.7,164.7,718.2,162.8,718.2L162.8,718.2z M434.9,718c-1.8,0-3.3-1.5-3.3-3.3l0-21.7
						c0-1.8,1.5-3.3,3.3-3.3h0c1.8,0,3.3,1.5,3.3,3.3l0,21.7C438.2,716.6,436.8,718,434.9,718L434.9,718z"/>
				</g>
			</g>
			<g>
				<path class="st7" d="M441.3,667.6l-284.8,0.1c-17.4,0-31.4-14.1-31.5-31.4l0-38.1l347.7-0.1l0,38.1
					C472.7,653.6,458.7,667.6,441.3,667.6z"/>
				<path class="st4" d="M156.4,668.6c-8.6,0-16.7-3.4-22.8-9.5c-6.1-6.1-9.5-14.2-9.5-22.8l0-39h0.9l348.6-0.1l0,39
					c0,17.8-14.5,32.3-32.3,32.3L156.4,668.6C156.5,668.6,156.4,668.6,156.4,668.6z M125.8,599.1l0,37.2c0,8.2,3.2,15.9,9,21.6
					c5.8,5.8,13.5,9,21.6,9c0,0,0,0,0,0l284.8-0.1c16.9,0,30.6-13.7,30.6-30.6l0-37.2L125.8,599.1z"/>
			</g>
			<g class="st5">
				<g>
					<rect x="125" y="598.1" class="st1" width="347.7" height="13.9"/>
				</g>
			</g>
			<g>
				<path class="st4" d="M158.5,672.3c-21,0-38.1-17.1-38.1-38.1l0-36c0-2.5,2-4.6,4.6-4.6l347.7-0.1c0,0,0,0,0,0
					c1.2,0,2.4,0.5,3.2,1.3c0.9,0.9,1.3,2,1.3,3.2l0,36c0,21-17.1,38.1-38.1,38.1l0,0L158.5,672.3
					C158.5,672.3,158.5,672.3,158.5,672.3z M439.2,667.6L439.2,667.6L439.2,667.6z M129.6,602.8l0,31.5c0,16,13,28.9,28.9,28.9
					c0,0,0,0,0,0l280.7-0.1c16,0,28.9-13,28.9-28.9l0-31.5L129.6,602.8z"/>
			</g>
			<g>
				<g>
					<path class="st8" d="M426.3,517L171,517.1c-55.8,0-101-45.2-101-100.9l0-84.9c0-12,9.7-21.7,21.7-21.7l413.9-0.1
						c12,0,21.7,9.7,21.7,21.7l0,84.9C527.3,471.8,482.1,517,426.3,517z"/>
				</g>
				<g>
					<path class="st4" d="M170.9,517.9c-27.2,0-52.7-10.6-72-29.8c-19.2-19.2-29.8-44.8-29.8-72l0-84.9c0-12.4,10.1-22.5,22.5-22.5
						l413.9-0.1c0,0,0,0,0,0c12.4,0,22.5,10.1,22.5,22.5l0,84.9c0,27.2-10.6,52.8-29.8,72s-44.8,29.8-72,29.8L170.9,517.9
						C171,517.9,171,517.9,170.9,517.9z M505.6,310.3C505.6,310.3,505.6,310.3,505.6,310.3l-414,0.1c-11.5,0-20.8,9.3-20.8,20.8
						l0,84.9c0,55.2,44.9,100.1,100.1,100.1c0,0,0,0,0,0l255.3-0.1c26.7,0,51.9-10.4,70.8-29.3s29.3-44.1,29.3-70.8l0-84.9
						C526.4,319.7,517,310.3,505.6,310.3z"/>
				</g>
			</g>
			<g class="st3">
				<g>
					<path class="st4" d="M527.2,387.2l0,52.1c0,55.8-45.2,101-100.9,101L171,540.4c-55.7,0-101-45.2-101-100.9l0-52.1
						c10.7-11.4,25.9-35,42.7-35l371.9-0.1C501.3,352.2,516.5,375.8,527.2,387.2z"/>
				</g>
			</g>
			<g>
				<path class="st6" d="M527.2,331.1l0,84.9c0,55.8-45.2,101-100.9,101L171,517.1c-55.7,0-101-45.2-101-100.9l0-84.9
					c0-1.4,0.1-2.8,0.4-4.1c1.9-10,10.7-17.5,21.2-17.5l413.9-0.1c10.6,0,19.3,7.5,21.3,17.5C527.1,328.3,527.2,329.7,527.2,331.1z"
					/>
			</g>
			<g class="st5">
				<g>
					<path class="st1" d="M527.2,331.1v13.6c0-1.4-0.1-2.8-0.4-4.1c-1.9-10-10.7-17.5-21.3-17.5l-413.9,0.1
						c-10.6,0-19.3,7.5-21.2,17.5c-0.3,1.3-0.4,2.6-0.4,4v-13.5c0-1.4,0.1-2.8,0.4-4.1c1.9-10,10.7-17.5,21.2-17.5l413.9-0.1
						c10.6,0,19.4,7.5,21.3,17.5C527.1,328.3,527.2,329.7,527.2,331.1z"/>
				</g>
			</g>
			<g class="st3">
				<g>
					<path class="st4" d="M527.2,388.5l0,27.5c0,55.8-45.2,101-100.9,101L171,517.1c-55.7,0-101-45.2-101-100.9l0-27.5
						c0,55.8,45.2,101,101,100.9l255.3-0.1C482.1,489.5,527.2,444.3,527.2,388.5z"/>
				</g>
			</g>
			<g>
				<path class="st4" d="M170.9,521.6c-28.2,0-54.7-11-74.6-30.9c-19.9-19.9-30.9-46.4-30.9-74.6l0-84.9c0-14.5,11.8-26.2,26.2-26.2
					l413.9-0.1c0,0,0,0,0,0c14.5,0,26.2,11.8,26.2,26.2l0,84.9c0,28.2-11,54.7-30.9,74.6c-19.9,19.9-46.4,30.9-74.6,30.9l0,0
					L170.9,521.6C171,521.6,171,521.6,170.9,521.6z M426.3,517L426.3,517L426.3,517z M505.6,314C505.6,314,505.6,314,505.6,314
					l-414,0.1c-9.4,0-17.1,7.7-17.1,17.1l0,84.9c0,25.7,10,49.9,28.3,68.1c18.2,18.2,42.4,28.2,68.1,28.2c0,0,0,0,0,0l255.3-0.1h0
					c25.7,0,49.9-10,68.1-28.3c18.2-18.2,28.2-42.4,28.2-68.2l0-84.9C522.6,321.7,515,314,505.6,314z"/>
			</g>
			<g>
				<g>
					<path class="st1" d="M499.8,351.2c-1.8,0-3.3-1.5-3.3-3.3l0-11c0-1.8,1.5-3.3,3.3-3.3h0c1.8,0,3.3,1.5,3.3,3.3l0,11
						C503.1,349.7,501.6,351.2,499.8,351.2L499.8,351.2z"/>
				</g>
				<g>
					<path class="st1" d="M180.7,492.9c-1.8,0-3.3-1.5-3.3-3.3c0-1.8,1.5-3.3,3.3-3.3l21.5,0c1.8,0,3.3,1.5,3.3,3.3
						c0,1.8-1.5,3.3-3.3,3.3L180.7,492.9z M223.6,492.9c-1.8,0-3.3-1.5-3.3-3.3c0-1.8,1.5-3.3,3.3-3.3l21.5,0c1.8,0,3.3,1.5,3.3,3.3
						c0,1.8-1.5,3.3-3.3,3.3L223.6,492.9z M266.5,492.9c-1.8,0-3.3-1.5-3.3-3.3c0-1.8,1.5-3.3,3.3-3.3l21.5,0c1.8,0,3.3,1.5,3.3,3.3
						c0,1.8-1.5,3.3-3.3,3.3L266.5,492.9z M309.4,492.9c-1.8,0-3.3-1.5-3.3-3.3c0-1.8,1.5-3.3,3.3-3.3l21.5,0c1.8,0,3.3,1.5,3.3,3.3
						c0,1.8-1.5,3.3-3.3,3.3L309.4,492.9z M352.4,492.9c-1.8,0-3.3-1.5-3.3-3.3c0-1.8,1.5-3.3,3.3-3.3l21.5,0c1.8,0,3.3,1.5,3.3,3.3
						c0,1.8-1.5,3.3-3.3,3.3L352.4,492.9z M395.3,492.9c-1.8,0-3.3-1.5-3.3-3.3c0-1.8,1.5-3.3,3.3-3.3l21.5,0c1.8,0,3.3,1.5,3.3,3.3
						c0,1.8-1.5,3.3-3.3,3.3L395.3,492.9z M159.3,492c-0.2,0-0.4,0-0.5,0c-7.4-1.2-14.6-3.5-21.3-6.7c-1.6-0.8-2.3-2.8-1.5-4.4
						c0.8-1.6,2.8-2.3,4.4-1.5c6.2,3,12.7,5.1,19.5,6.1c1.8,0.3,3,2,2.7,3.8C162.3,490.8,160.9,492,159.3,492z M438.1,491.9
						c-1.6,0-3-1.2-3.3-2.8c-0.3-1.8,0.9-3.5,2.7-3.8c6.8-1.1,13.3-3.2,19.4-6.2c1.6-0.8,3.6-0.1,4.4,1.5c0.8,1.6,0.1,3.6-1.5,4.4
						c-6.7,3.3-13.9,5.6-21.3,6.8C438.5,491.9,438.3,491.9,438.1,491.9z M121.2,473.5c-0.8,0-1.6-0.3-2.2-0.9
						c-5.5-5.1-10.3-10.9-14.1-17.3c-0.9-1.6-0.4-3.6,1.2-4.5c1.6-0.9,3.6-0.4,4.5,1.2c3.5,5.9,7.8,11.2,12.9,15.9
						c1.3,1.2,1.4,3.3,0.2,4.7C123,473.1,122.1,473.5,121.2,473.5z M476.1,473.3c-0.9,0-1.8-0.4-2.4-1.1c-1.2-1.3-1.2-3.4,0.2-4.7
						c5-4.7,9.4-10,12.8-15.9c0.9-1.6,3-2.1,4.5-1.2c1.6,0.9,2.1,3,1.2,4.5c-3.8,6.4-8.5,12.3-14,17.4
						C477.8,473,477,473.3,476.1,473.3z M99.6,437.1c-1.5,0-2.8-1-3.2-2.5c-1.5-6-2.3-12.3-2.3-18.5l0-3.6c0-1.8,1.5-3.3,3.3-3.3
						c1.8,0,3.3,1.5,3.3,3.3l0,3.6c0,5.7,0.7,11.4,2.1,16.9c0.4,1.8-0.6,3.6-2.4,4C100.1,437.1,99.9,437.1,99.6,437.1z M497.7,436.9
						c-0.3,0-0.5,0-0.8-0.1c-1.8-0.4-2.9-2.2-2.4-4c1.3-5.5,2-11.1,2-16.8l0-3.7c0-1.8,1.5-3.3,3.3-3.3c1.8,0,3.3,1.5,3.3,3.3l0,3.7
						c0,6.2-0.7,12.4-2.2,18.4C500.5,435.9,499.2,436.9,497.7,436.9z M97.4,394.4c-1.8,0-3.3-1.5-3.3-3.3l0-21.5
						c0-1.8,1.5-3.3,3.3-3.3c1.8,0,3.3,1.5,3.3,3.3l0,21.5C100.7,392.9,99.3,394.4,97.4,394.4z M499.8,394.1c-1.8,0-3.3-1.5-3.3-3.3
						l0-21.5c0-1.8,1.5-3.3,3.3-3.3c1.8,0,3.3,1.5,3.3,3.3l0,21.5C503.1,392.7,501.6,394.1,499.8,394.1z"/>
				</g>
				<g>
					<path class="st1" d="M97.4,351.3c-1.8,0-3.3-1.5-3.3-3.3l0-11c0-1.8,1.5-3.3,3.3-3.3h0c1.8,0,3.3,1.5,3.3,3.3l0,11
						C100.7,349.8,99.2,351.3,97.4,351.3L97.4,351.3z"/>
				</g>
			</g>
			<g>
				<path class="st7" d="M191.4,607L191.4,607c-12.8,0-23.2-10.4-23.2-23.2l0-147l46.5,0l0,147C214.7,596.6,204.3,607,191.4,607z"/>
				<path class="st4" d="M191.4,607.8c-13.3,0-24.1-10.8-24.1-24.1l0-147.9l48.2,0l0,147.9c0,6.4-2.5,12.5-7.1,17
					C203.9,605.3,197.9,607.8,191.4,607.8l0-0.9L191.4,607.8C191.4,607.8,191.4,607.8,191.4,607.8z M169,437.6l0,146.1
					c0,12.3,10,22.4,22.4,22.4c0,0,0,0,0,0c6,0,11.6-2.3,15.8-6.6c4.2-4.2,6.6-9.8,6.6-15.8l0-146.1L169,437.6z"/>
			</g>
			<g class="st5">
				<g>
					<rect x="167.5" y="433.3" class="st1" width="46.5" height="16.3"/>
				</g>
			</g>
			<g>
				<path class="st4" d="M191.4,611.6c-15.3,0-27.8-12.5-27.8-27.8l0-147c0-2.5,2-4.6,4.6-4.6l46.5,0c0,0,0,0,0,0
					c1.2,0,2.4,0.5,3.2,1.3c0.9,0.9,1.3,2,1.3,3.2l0,147c0,7.4-2.9,14.4-8.1,19.7C205.9,608.7,198.9,611.6,191.4,611.6l0-4.6
					L191.4,611.6C191.4,611.6,191.4,611.6,191.4,611.6z M172.7,441.3l0,142.4c0,10.3,8.4,18.7,18.7,18.7c0,0,0,0,0,0
					c5,0,9.7-1.9,13.2-5.5c3.5-3.5,5.5-8.2,5.5-13.2l0-142.4L172.7,441.3z"/>
			</g>
			<g>
				<path class="st9" d="M215.7,502.1l-48.6,0c-9.9,0-17.9,8-17.9,17.9l0,25.3c0,9.9,8,18,18,17.9l48.6,0c9.9,0,17.9-8,17.9-18
					l0-25.3C233.7,510.1,225.6,502.1,215.7,502.1z M212.1,542.7c0,2.7-2.2,4.9-4.9,4.9l-31.5,0c-2.7,0-4.9-2.2-4.9-4.9l0-20.1
					c0-2.7,2.2-4.9,4.9-4.9l31.5,0c2.7,0,4.9,2.2,4.9,4.9L212.1,542.7z"/>
				<path class="st4" d="M167.1,564.2c-5,0-9.7-2-13.3-5.5c-3.6-3.6-5.5-8.3-5.5-13.3l0-25.3c0-10.4,8.4-18.8,18.8-18.8l48.6,0
					c0,0,0,0,0,0c5,0,9.7,2,13.3,5.5c3.6,3.6,5.5,8.3,5.5,13.3l0,25.3c0,10.4-8.4,18.8-18.8,18.8L167.1,564.2
					C167.1,564.2,167.1,564.2,167.1,564.2z M215.7,502.9l-48.6,0c-9.4,0-17.1,7.7-17.1,17.1l0,25.3c0,4.6,1.8,8.9,5,12.1
					c3.2,3.2,7.5,5,12.1,5c0,0,0,0,0,0l48.6,0c9.4,0,17.1-7.7,17.1-17.1l0-25.3c0-4.6-1.8-8.8-5-12.1
					C224.6,504.7,220.3,502.9,215.7,502.9C215.7,502.9,215.7,502.9,215.7,502.9L215.7,502.9z M175.7,548.5c-1.5,0-3-0.6-4.1-1.7
					c-1.1-1.1-1.7-2.5-1.7-4.1l0-20.1c0-3.2,2.6-5.8,5.8-5.8l31.5,0c0,0,0,0,0,0c1.5,0,3,0.6,4.1,1.7c1.1,1.1,1.7,2.5,1.7,4.1
					l0,20.1c0,3.2-2.6,5.8-5.8,5.8L175.7,548.5C175.7,548.5,175.7,548.5,175.7,548.5z M207.2,518.6
					C207.2,518.6,207.2,518.6,207.2,518.6l-31.5,0c-2.2,0-4,1.8-4,4.1l0,20.1c0,1.1,0.4,2.1,1.2,2.9c0.8,0.8,1.8,1.2,2.9,1.2
					c0,0,0,0,0,0l31.5,0c2.2,0,4-1.8,4-4.1l0-20.1c0-1.1-0.4-2.1-1.2-2.9C209.2,519,208.2,518.6,207.2,518.6z"/>
			</g>
			<g>
				<path class="st4" d="M167.1,567.9c-6,0-11.7-2.3-15.9-6.6c-4.3-4.3-6.6-9.9-6.6-15.9l0-25.3c0-12.4,10.1-22.5,22.5-22.5l48.6,0
					c0,0,0,0,0,0c6,0,11.7,2.3,15.9,6.6c4.3,4.3,6.6,9.9,6.6,15.9l0,25.3c0,12.4-10.1,22.5-22.5,22.5L167.1,567.9
					C167.1,567.9,167.1,567.9,167.1,567.9z M215.7,506.7l-48.6,0c-7.4,0-13.4,6-13.4,13.4l0,25.3c0,3.6,1.4,6.9,3.9,9.5
					c2.5,2.5,5.9,3.9,9.5,3.9c0,0,0,0,0,0l48.6,0c7.4,0,13.4-6,13.4-13.4l0-25.3c0-3.6-1.4-6.9-3.9-9.4
					C222.6,508.1,219.3,506.7,215.7,506.7C215.7,506.7,215.7,506.7,215.7,506.7L215.7,506.7z M175.7,552.2c-2.5,0-4.9-1-6.7-2.8
					c-1.8-1.8-2.8-4.2-2.8-6.7l0-20.1c0-5.2,4.2-9.5,9.5-9.5l31.5,0c0,0,0,0,0,0c2.5,0,4.9,1,6.7,2.8c1.8,1.8,2.8,4.2,2.8,6.7
					l0,20.1c0,5.2-4.2,9.5-9.5,9.5L175.7,552.2C175.7,552.2,175.7,552.2,175.7,552.2z M207.2,522.3l-31.5,0c-0.2,0-0.3,0.2-0.3,0.3
					l0,20.1c0,0.2,0.2,0.3,0.3,0.3l31.5,0c0.2,0,0.3-0.2,0.3-0.3l0,0l0-20.1C207.5,522.5,207.3,522.3,207.2,522.3z"/>
			</g>
			<g>
				<path class="st7" d="M405.9,606.9L405.9,606.9c-12.8,0-23.2-10.4-23.2-23.2l0-147l46.5,0l0,147
					C429.1,596.5,418.7,606.9,405.9,606.9z"/>
				<path class="st4" d="M405.9,607.8c-13.3,0-24.1-10.8-24.1-24.1l0-147.9l48.2,0l0,147.9C430,597,419.2,607.8,405.9,607.8
					L405.9,607.8C405.9,607.8,405.9,607.8,405.9,607.8z M383.5,437.5l0,146.1c0,12.3,10,22.4,22.4,22.4c0,0,0,0,0,0l0,0
					c12.3,0,22.4-10,22.4-22.4l0-146.1L383.5,437.5z"/>
			</g>
			<g class="st5">
				<g>
					<rect x="382.6" y="433.7" class="st1" width="46.5" height="16.3"/>
				</g>
			</g>
			<g>
				<path class="st4" d="M405.9,611.5c-15.3,0-27.8-12.5-27.8-27.8l0-147c0-1.2,0.5-2.4,1.3-3.2c0.9-0.9,2-1.3,3.2-1.3l46.5,0
					c0,0,0,0,0,0c2.5,0,4.6,2,4.6,4.6l0,147C433.7,599,421.2,611.5,405.9,611.5C405.9,611.5,405.9,611.5,405.9,611.5z M405.9,606.9
					L405.9,606.9L405.9,606.9z M387.2,441.3l0,142.4c0,10.3,8.4,18.7,18.7,18.7c0,0,0,0,0,0h0c10.3,0,18.7-8.4,18.7-18.7l0-142.4
					L387.2,441.3z"/>
			</g>
			<g>
				<path class="st9" d="M430.2,502l-48.6,0c-9.9,0-17.9,8-17.9,17.9l0,25.3c0,9.9,8,18,18,17.9l48.6,0c9.9,0,17.9-8,17.9-18l0-25.3
					C448.1,510.1,440.1,502,430.2,502z M426.5,542.7c0,2.7-2.2,4.9-4.9,4.9l-31.5,0c-2.7,0-4.9-2.2-4.9-4.9l0-20.1
					c0-2.7,2.2-4.9,4.9-4.9l31.5,0c2.7,0,4.9,2.2,4.9,4.9L426.5,542.7z"/>
				<path class="st4" d="M381.6,564.1c-5,0-9.7-2-13.3-5.5c-3.6-3.6-5.5-8.3-5.5-13.3l0-25.3c0-10.4,8.4-18.8,18.8-18.8l48.6,0
					c0,0,0,0,0,0c5,0,9.7,2,13.3,5.5c3.6,3.6,5.5,8.3,5.5,13.3l0,25.3c0,10.4-8.4,18.8-18.8,18.8L381.6,564.1
					C381.6,564.1,381.6,564.1,381.6,564.1z M430.2,502.9l-48.6,0c-9.4,0-17.1,7.7-17.1,17.1l0,25.3c0,4.6,1.8,8.9,5,12.1
					c3.2,3.2,7.5,5,12.1,5c0,0,0,0,0,0l48.6,0c9.4,0,17.1-7.7,17.1-17.1l0-25.3c0-4.6-1.8-8.8-5-12.1
					C439,504.7,434.7,502.9,430.2,502.9C430.2,502.9,430.2,502.9,430.2,502.9L430.2,502.9z M390.1,548.5c-1.5,0-3-0.6-4.1-1.7
					c-1.1-1.1-1.7-2.5-1.7-4.1l0-20.1c0-3.2,2.6-5.8,5.8-5.8l31.5,0c0,0,0,0,0,0c1.5,0,3,0.6,4.1,1.7s1.7,2.5,1.7,4.1l0,20.1
					c0,3.2-2.6,5.8-5.8,5.8L390.1,548.5C390.1,548.5,390.1,548.5,390.1,548.5z M421.6,518.5C421.6,518.5,421.6,518.5,421.6,518.5
					l-31.5,0c-2.2,0-4,1.8-4,4.1l0,20.1c0,1.1,0.4,2.1,1.2,2.9c0.8,0.8,1.8,1.2,2.8,1.2c0,0,0,0,0,0l31.5,0c2.2,0,4-1.8,4-4.1
					l0-20.1c0-1.1-0.4-2.1-1.2-2.9C423.7,519,422.7,518.5,421.6,518.5z"/>
			</g>
			<g>
				<path class="st4" d="M381.6,567.8c-6,0-11.7-2.3-15.9-6.6c-4.3-4.3-6.6-9.9-6.6-15.9l0-25.3c0-12.4,10.1-22.5,22.5-22.5l48.6,0
					c0,0,0,0,0,0c6,0,11.7,2.3,15.9,6.6c4.3,4.3,6.6,9.9,6.6,15.9l0,25.3c0,12.4-10.1,22.5-22.5,22.5L381.6,567.8
					C381.6,567.8,381.6,567.8,381.6,567.8z M430.2,506.6l-48.6,0c-7.4,0-13.4,6-13.4,13.4l0,25.3c0,3.6,1.4,6.9,3.9,9.5
					c2.5,2.5,5.9,3.9,9.5,3.9c0,0,0,0,0,0l48.6,0c7.4,0,13.4-6,13.4-13.4l0-25.3C443.5,512.6,437.6,506.6,430.2,506.6
					C430.2,506.6,430.2,506.6,430.2,506.6L430.2,506.6z M390.1,552.2c-2.5,0-4.9-1-6.7-2.8c-1.8-1.8-2.8-4.2-2.8-6.7l0-20.1
					c0-5.2,4.2-9.5,9.5-9.5l31.5,0c0,0,0,0,0,0c2.5,0,4.9,1,6.7,2.8c1.8,1.8,2.8,4.2,2.8,6.7l0,20.1c0,5.2-4.2,9.5-9.5,9.5
					L390.1,552.2C390.1,552.2,390.1,552.2,390.1,552.2z M421.6,522.3l-31.5,0c-0.2,0-0.3,0.2-0.3,0.3l0,20.1c0,0.2,0.2,0.3,0.3,0.3
					l31.5,0c0.2,0,0.3-0.2,0.3-0.3l0,0l0-20.1C421.9,522.4,421.8,522.3,421.6,522.3z"/>
			</g>
			<g>
				<path class="st4" d="M154.2,441.3c-2.5,0-4.6-2-4.6-4.6c0-2.5,2-4.6,4.6-4.6l73.2,0c0,0,0,0,0,0c2.5,0,4.6,2,4.6,4.6
					c0,2.5-2,4.6-4.6,4.6L154.2,441.3C154.2,441.3,154.2,441.3,154.2,441.3z"/>
			</g>
			<g>
				<path class="st4" d="M372,441.3c-2.5,0-4.6-2-4.6-4.6c0-2.5,2-4.6,4.6-4.6l73.2,0c0,0,0,0,0,0c2.5,0,4.6,2,4.6,4.6
					c0,2.5-2,4.6-4.6,4.6L372,441.3C372,441.3,372,441.3,372,441.3z"/>
			</g>
			<g>
				<path class="st7" d="M589.3,530.6l-61.6,0l0-38.4l33.5,0c15.5,0,28.1,12.6,28.1,28.1L589.3,530.6z"/>
				<path class="st4" d="M526.8,531.5l0-40.1l47.2,0c0,0,0,0,0,0c8.9,0,16.1,7.2,16.1,16.1l0,24L526.8,531.5z M528.5,493.1l0,36.6
					l59.9,0l0-22.3c0-7.9-6.5-14.4-14.4-14.4c0,0,0,0,0,0L528.5,493.1z"/>
			</g>
			<g class="st5">
				<g>
					<path class="st1" d="M589.3,507.5l0,11c0-8.4-6.8-15.3-15.3-15.3l-46.4,0l0-11l46.4,0C582.5,492.3,589.3,499.1,589.3,507.5z"/>
				</g>
			</g>
			<g>
				<path class="st6" d="M537.5,736.2l-9.8,0l0-205.5l48.2,0l0,167.1C575.9,718.9,558.7,736.1,537.5,736.2z"/>
			</g>
			<g class="st3">
				<g>
					<path class="st4" d="M575.9,665.4l0,32.3c0,21.2-17.2,38.4-38.4,38.4l-9.8,0l0-32.3l9.8,0C558.7,703.8,575.9,686.6,575.9,665.4
						z"/>
				</g>
			</g>
			<g class="st3">
				<g>
					<rect x="527.7" y="530.6" class="st4" width="48.2" height="19.3"/>
				</g>
			</g>
			<g>
				<path class="st4" d="M527.7,535.2c-2.5,0-4.6-2-4.6-4.6l0-38.4c0-2.5,2-4.6,4.6-4.6l46.4,0c0,0,0,0,0,0
					c10.9,0,19.8,8.9,19.8,19.8l0,23.1c0,2.5-2,4.6-4.6,4.6L527.7,535.2C527.7,535.2,527.7,535.2,527.7,535.2z M532.3,496.9l0,29.2
					l52.5,0l0-18.5c0-2.9-1.1-5.5-3.1-7.5c-2-2-4.7-3.1-7.5-3.1c0,0,0,0,0,0L532.3,496.9z"/>
			</g>
			<g>
				<path class="st4" d="M527.7,740.7c-1.2,0-2.4-0.5-3.2-1.3c-0.9-0.9-1.3-2-1.3-3.2l0-205.5c0-2.5,2-4.6,4.6-4.6l48.2,0
					c0,0,0,0,0,0c1.2,0,2.4,0.5,3.2,1.3c0.9,0.9,1.3,2,1.3,3.2l0,167.1c0,11.5-4.5,22.3-12.6,30.4c-8.1,8.1-18.9,12.6-30.4,12.6
					L527.7,740.7C527.7,740.7,527.7,740.7,527.7,740.7z M532.3,535.2l0,196.4l5.2,0l0,0c9,0,17.5-3.5,23.9-9.9
					c6.4-6.4,9.9-14.9,9.9-23.9l0-162.5L532.3,535.2z"/>
			</g>
			<g>
				<path class="st7" d="M8.4,530.6l61.6,0l0-38.4l-33.5,0c-15.5,0-28.1,12.6-28.1,28.1L8.4,530.6z"/>
				<path class="st4" d="M70.9,531.5l-63.3,0l0-24c0-8.9,7.2-16.1,16.1-16.1c0,0,0,0,0,0l47.2,0L70.9,531.5z M9.2,529.8l59.9,0
					l0-36.6l-45.5,0c0,0,0,0,0,0c-7.9,0-14.4,6.5-14.4,14.4L9.2,529.8z"/>
			</g>
			<g class="st5">
				<g>
					<path class="st1" d="M8.4,507.5l0,11c0-8.4,6.8-15.3,15.3-15.3l46.4,0l0-11l-46.4,0C15.2,492.3,8.4,499.1,8.4,507.5z"/>
				</g>
			</g>
			<g>
				<path class="st6" d="M60.2,736.2l9.8,0l0-205.5l-48.2,0l0,167.1C21.8,718.9,39,736.1,60.2,736.2z"/>
			</g>
			<g class="st3">
				<g>
					<path class="st4" d="M21.8,665.4l0,32.3c0,21.2,17.2,38.4,38.4,38.4l9.8,0l0-32.3l-9.8,0C39,703.8,21.8,686.6,21.8,665.4z"/>
				</g>
			</g>
			<g class="st3">
				<g>
					<rect x="21.8" y="530.6" class="st4" width="48.2" height="19.3"/>
				</g>
			</g>
			<g>
				<path class="st4" d="M70,535.2C70,535.2,70,535.2,70,535.2l-61.6,0c-2.5,0-4.6-2.1-4.6-4.6l0-23.1c0-10.9,8.9-19.8,19.8-19.8
					c0,0,0,0,0,0l46.4,0c2.5,0,4.6,2.1,4.6,4.6l0,38.4C74.6,533.2,72.5,535.2,70,535.2z M13,526.1l52.5,0l0-29.2l-41.8,0
					c0,0,0,0,0,0c-2.9,0-5.5,1.1-7.5,3.1c-2,2-3.1,4.7-3.1,7.5L13,526.1z"/>
			</g>
			<g>
				<path class="st4" d="M70,740.7C70,740.7,70,740.7,70,740.7l-9.8,0c-11.5,0-22.3-4.5-30.4-12.6c-8.1-8.1-12.6-18.9-12.6-30.4
					l0-167.1c0-1.2,0.5-2.4,1.3-3.2c0.9-0.9,2-1.3,3.2-1.3c0,0,0,0,0,0l48.2,0c2.5,0,4.6,2,4.6,4.6l0,205.5c0,1.2-0.5,2.4-1.3,3.2
					C72.3,740.3,71.2,740.7,70,740.7z M26.4,535.2l0,162.5c0,9,3.5,17.5,9.9,23.9c6.4,6.4,14.9,9.9,23.9,9.9l0,0l5.2,0l0-196.4
					L26.4,535.2z"/>
			</g>
			<g>
				<path class="st7" d="M428.9,355l-27.8,0c-4.5,0-8.1-3.6-8.1-8.1l0-147.3c0-4.5,3.6-8.1,8.1-8.1l27.8,0c4.5,0,8.1,3.6,8.1,8.1
					l0,147.3C436.9,351.4,433.3,355,428.9,355z"/>
				<path class="st4" d="M401.1,355.9c-4.9,0-8.9-4-8.9-8.9l0-147.3c0-2.4,0.9-4.6,2.6-6.3c1.7-1.7,3.9-2.6,6.3-2.6l27.8,0
					c0,0,0,0,0,0c4.9,0,8.9,4,8.9,8.9l0,147.3c0,2.4-0.9,4.6-2.6,6.3c-1.7,1.7-3.9,2.6-6.3,2.6L401.1,355.9
					C401.1,355.9,401.1,355.9,401.1,355.9z M428.8,192.4C428.8,192.4,428.8,192.4,428.8,192.4l-27.8,0c-1.9,0-3.7,0.8-5.1,2.1
					c-1.4,1.4-2.1,3.2-2.1,5.1l0,147.3c0,4,3.2,7.2,7.2,7.2c0,0,0,0,0,0l27.8,0c1.9,0,3.7-0.8,5.1-2.1c1.4-1.4,2.1-3.2,2.1-5.1
					l0-147.3C436,195.6,432.8,192.4,428.8,192.4z"/>
			</g>
			<g class="st3">
				<g>
					<path class="st4" d="M436.9,315.8l0,31.1c0,4.5-3.6,8.1-8.1,8.1l-27.7,0c-4.5,0-8.1-3.6-8.1-8.1l0-31.1c0,4.5,3.6,8.1,8.1,8.1
						l27.7,0C433.3,323.9,436.9,320.3,436.9,315.8z"/>
				</g>
			</g>
			<g class="st5">
				<g>
					<path class="st1" d="M436.9,199.6l0,18.9c0-4.5-3.6-8.1-8.1-8.1l-27.7,0c-4.5,0-8.1,3.6-8.1,8.1l0-18.9c0-4.5,3.6-8.1,8.1-8.1
						l27.7,0C433.3,191.5,436.9,195.1,436.9,199.6z"/>
				</g>
			</g>
			<g>
				<path class="st4" d="M401.1,359.6c-7,0-12.7-5.7-12.7-12.7l0-147.3c0-3.4,1.3-6.6,3.7-9c2.4-2.4,5.6-3.7,9-3.7l27.8,0
					c0,0,0,0,0,0c7,0,12.7,5.7,12.7,12.7l0,147.3c0,3.4-1.3,6.6-3.7,9c-2.4,2.4-5.6,3.7-8.9,3.7l0,0L401.1,359.6
					C401.1,359.6,401.1,359.6,401.1,359.6z M428.9,355L428.9,355L428.9,355z M428.8,196.1C428.8,196.1,428.8,196.1,428.8,196.1
					l-27.8,0c-0.9,0-1.8,0.4-2.5,1c-0.7,0.7-1,1.5-1,2.5l0,147.3c0,1.9,1.6,3.5,3.5,3.5c0,0,0,0,0,0l27.8,0c0.9,0,1.8-0.4,2.5-1
					c0.7-0.7,1-1.5,1-2.5l0-147.3C432.3,197.7,430.7,196.1,428.8,196.1z"/>
			</g>
			<g>
				<path class="st7" d="M196.1,355.1l-27.8,0c-4.5,0-8.1-3.6-8.1-8.1l0-147.3c0-4.5,3.6-8.1,8.1-8.1l27.8,0c4.5,0,8.1,3.6,8.1,8.1
					l0,147.3C204.2,351.5,200.6,355.1,196.1,355.1z"/>
				<path class="st4" d="M168.4,356c-4.9,0-8.9-4-8.9-8.9l0-147.3c0-2.4,0.9-4.6,2.6-6.3c1.7-1.7,3.9-2.6,6.3-2.6l27.8,0
					c0,0,0,0,0,0c2.4,0,4.6,0.9,6.3,2.6c1.7,1.7,2.6,3.9,2.6,6.3l0,147.3c0,4.9-4,8.9-8.9,8.9L168.4,356
					C168.4,356,168.4,356,168.4,356z M196.1,192.5C196.1,192.5,196.1,192.5,196.1,192.5l-27.8,0c-1.9,0-3.7,0.8-5.1,2.1
					c-1.4,1.4-2.1,3.2-2.1,5.1l0,147.3c0,1.9,0.8,3.7,2.1,5.1c1.4,1.4,3.2,2.1,5.1,2.1c0,0,0,0,0,0l27.8,0c4,0,7.2-3.2,7.2-7.2
					l0-147.3c0-1.9-0.8-3.7-2.1-5.1C199.8,193.2,198,192.5,196.1,192.5z"/>
			</g>
			<g class="st3">
				<g>
					<path class="st4" d="M204.2,315.9l0,31.1c0,4.5-3.6,8.1-8.1,8.1l-27.7,0c-4.5,0-8.1-3.6-8.1-8.1l0-31.1c0,4.5,3.6,8.1,8.1,8.1
						l27.7,0C200.6,324,204.2,320.4,204.2,315.9z"/>
				</g>
			</g>
			<g class="st5">
				<g>
					<path class="st1" d="M204.1,199.7l0,18.9c0-4.5-3.6-8.1-8.1-8.1l-27.7,0c-4.5,0-8.1,3.6-8.1,8.1l0-18.9c0-4.5,3.6-8.1,8.1-8.1
						l27.7,0C200.5,191.6,204.1,195.2,204.1,199.7z"/>
				</g>
			</g>
			<g>
				<path class="st4" d="M168.4,359.7c-7,0-12.7-5.7-12.7-12.7l0-147.3c0-3.4,1.3-6.6,3.7-9c2.4-2.4,5.6-3.7,9-3.7l27.8,0
					c0,0,0,0,0,0c3.4,0,6.6,1.3,8.9,3.7c2.4,2.4,3.7,5.6,3.7,8.9l0,147.3c0,7-5.7,12.7-12.7,12.7l0,0L168.4,359.7
					C168.4,359.7,168.4,359.7,168.4,359.7z M196.1,355.1L196.1,355.1L196.1,355.1z M196.1,196.2
					C196.1,196.2,196.1,196.2,196.1,196.2l-27.8,0c-0.9,0-1.8,0.4-2.5,1c-0.7,0.7-1,1.5-1,2.5l0,147.3c0,0.9,0.4,1.8,1,2.5
					c0.7,0.7,1.5,1,2.5,1l27.8,0c1.9,0,3.5-1.6,3.5-3.5l0-147.3c0-0.9-0.4-1.8-1-2.5C197.9,196.6,197,196.2,196.1,196.2z"/>
			</g>
			<g>
				<g>
					<g>
						<path class="st2" d="M93.8,617.1c-8.3,0-16.6-1.9-24.3-5.7c-13.2-6.5-23-17.7-27.7-31.6c-4.7-13.9-3.7-28.8,2.7-42
							c6.5-13.2,17.7-23,31.6-27.7c13.9-4.7,28.8-3.7,42,2.7c13.2,6.5,23,17.7,27.7,31.6c4.7,13.9,3.7,28.8-2.7,42
							c-6.5,13.2-17.7,23-31.6,27.7C105.7,616.2,99.7,617.1,93.8,617.1z M93.8,533.6c-3.1,0-6.2,0.5-9.2,1.5
							c-7.2,2.4-13,7.6-16.4,14.4c-3.4,6.8-3.9,14.6-1.4,21.8c2.4,7.2,7.6,13,14.4,16.4c6.8,3.4,14.6,3.9,21.8,1.4
							c7.2-2.4,13-7.6,16.4-14.4c3.4-6.8,3.9-14.6,1.4-21.8l0,0c-2.4-7.2-7.6-13-14.4-16.4C102.4,534.6,98.1,533.6,93.8,533.6z"/>
					</g>
				</g>
				<g class="st5">
					<path class="st1" d="M118.1,512.8c-13.2-6.5-28.1-7.5-42-2.7c-13.9,4.7-25.1,14.6-31.6,27.7c-6.5,13.2-7.5,28.1-2.7,42
						c1.3,3.8,3,7.4,5,10.8c-0.2-0.5-0.4-1-0.5-1.5c-4.7-13.9-3.7-28.8,2.7-42c6.5-13.2,17.7-23,31.6-27.7c13.9-4.7,28.8-3.7,42,2.7
						c9.6,4.7,17.4,11.9,22.7,20.9C140.5,529.8,130.8,519.1,118.1,512.8z"/>
				</g>
				<g class="st3">
					<g>
						<path class="st4" d="M123.9,584.1c-3.4,6.8-9.2,11.9-16.4,14.4c-7.2,2.4-14.9,2-21.8-1.4c-6.8-3.4-11.9-9.2-14.4-16.4
							c-0.2-0.5-0.3-1.1-0.5-1.6c2.7,3.6,6.2,6.6,10.4,8.7c6.8,3.4,14.6,3.9,21.8,1.4c7.2-2.4,13-7.5,16.4-14.4
							c3.1-6.3,3.8-13.4,1.9-20.1c1.7,2.3,3,4.9,4,7.7C127.7,569.5,127.3,577.3,123.9,584.1z"/>
					</g>
				</g>
				<g>
					<g>
						<path class="st4" d="M93.8,621.7c-9.1,0-18-2.1-26.3-6.2c-14.3-7-24.9-19.2-30.1-34.3c-5.1-15.1-4.1-31.2,3-45.5
							c7-14.3,19.2-24.9,34.3-30.1c15.1-5.1,31.2-4.1,45.5,3c14.3,7,24.9,19.2,30.1,34.3c5.1,15.1,4.1,31.2-3,45.5
							c-7,14.3-19.2,24.9-34.3,30.1C106.7,620.6,100.3,621.7,93.8,621.7z M93.9,511.7c-5.5,0-10.9,0.9-16.2,2.7
							c-12.7,4.3-23,13.4-29,25.4c-6,12.1-6.8,25.7-2.5,38.5c4.3,12.7,13.4,23,25.4,29c7,3.5,14.5,5.2,22.2,5.2
							c5.5,0,11-0.9,16.2-2.7c12.7-4.3,23-13.4,29-25.4c6-12.1,6.8-25.7,2.5-38.5c-4.3-12.7-13.4-23-25.4-29
							C109.1,513.5,101.5,511.7,93.9,511.7z M93.8,595.2c-5,0-10-1.1-14.6-3.4c-7.9-3.9-13.9-10.7-16.7-19
							c-2.8-8.4-2.3-17.3,1.7-25.3c3.9-7.9,10.7-13.8,19-16.7c3.5-1.2,7-1.8,10.7-1.8c5.1,0,10,1.2,14.6,3.4
							c7.9,3.9,13.8,10.7,16.7,19c2.8,8.4,2.3,17.3-1.7,25.3c-3.9,7.9-10.7,13.9-19,16.7C101,594.6,97.4,595.2,93.8,595.2z
							 M93.8,538.2c-2.6,0-5.2,0.4-7.7,1.3c-6.1,2.1-10.9,6.3-13.8,12.1c-2.8,5.7-3.3,12.2-1.2,18.3c2.1,6.1,6.3,10.9,12.1,13.8
							c5.7,2.8,12.2,3.2,18.3,1.2c6.1-2.1,10.9-6.3,13.8-12.1c2.8-5.7,3.2-12.2,1.2-18.3c-2.1-6-6.3-10.9-12.1-13.8
							C101.1,539,97.5,538.2,93.8,538.2z"/>
					</g>
				</g>
				<g>
					<path class="st10" d="M88.5,616.8c-11.9-34.9,26.2-47.8,38-12.9"/>
				</g>
				<g class="st5">
					<path class="st1" d="M126.5,603.9l-7.9,2.7c-7.4-16.1-21.1-19.3-30-13.3C95.8,578.4,117.9,578.7,126.5,603.9z"/>
				</g>
				<g>
					<path class="st10" d="M238.5,672.7c18.2,53.7-10.5,112.1-64.3,130.3S60.9,792.5,42.6,738.7s10.5-112.1,64.3-130.3
						S220.3,619,238.5,672.7z"/>
				</g>
				<g class="st5">
					<path class="st1" d="M235.6,746.4c5.8-19.6,5.8-41.2-1.3-62c-18.2-53.7-77.9-82.5-131.7-64.2C74,629.9,52.5,651,41.3,676.7
						c9.1-30.9,32.7-57.1,65.5-68.3c53.7-18.2,113.4,10.5,131.7,64.2C247.1,697.8,245.3,723.9,235.6,746.4z"/>
				</g>
				<g>
					<path class="st1" d="M207.1,683.7c12.4,36.5-7.2,76.1-43.7,88.5c-36.5,12.4-77.5-7.2-89.9-43.7c-12.4-36.5,7.2-76.1,43.7-88.5
						C153.7,627.6,194.7,647.2,207.1,683.7z"/>
					<path class="st4" d="M139.7,776.8c-29.4,0-57-18.6-67-48c-12.5-36.9,7.3-77.1,44.2-89.6c36.9-12.5,78.5,7.3,91,44.2l0,0
						c12.5,36.9-7.3,77.1-44.2,89.6C156.2,775.6,147.2,776.8,139.7,776.8z M139.6,637.2c-7.3,0-14.8,1.2-22.1,3.7
						c-36,12.2-55.3,51.5-43.1,87.5c12.2,36,52.8,55.3,88.8,43.1c36-12.2,55.3-51.5,43.1-87.5C196.6,655.3,168.3,637.2,139.6,637.2z
						"/>
				</g>
				<g class="st5">
					<path class="st1" d="M197.6,748c-8,15.5-23.1,28.1-41,34.2c-36.5,12.4-76.2-7.1-88.6-43.7c-7.5-22.1-3.3-45.3,9.2-62.9
						c-8.4,16.3-10.4,35.7-4.1,54.4c12.4,36.5,53.4,56,89.9,43.7C177.5,768.8,189.4,759.6,197.6,748z"/>
				</g>
				<g class="st3">
					<g>
						<path class="st4" d="M207.1,683.7c7.2,21.3,3.6,43.7-8,61.1c4.8-14.1,5.2-29.8,0-44.9c-12.4-36.5-53.4-56-89.9-43.6
							c-15.2,5.1-27.4,15-35.6,27.4c6.7-19.8,22.3-36.3,43.6-43.6C153.7,627.7,194.7,647.2,207.1,683.7z"/>
					</g>
				</g>
				<g>
					<path class="st4" d="M140,813c-44.7,0-86.5-28.2-101.7-72.8c-9.2-27.1-7.3-56.2,5.4-82c12.7-25.7,34.6-44.9,61.7-54.2
						c27.1-9.2,57.6-7.3,83.3,5.4c25.7,12.7,44.9,34.6,54.2,61.7l0,0c19,56-11.1,117.1-67.1,136.1C164.4,811.2,151.4,813,140,813z
						 M140,607.5c-10.6,0-21.3,1.7-31.6,5.3c-24.8,8.4-44.9,26-56.5,49.5c-11.6,23.5-13.3,50.1-4.9,75
						c17.4,51.3,74.6,78.8,125.9,61.4c51.3-17.4,78.8-73.3,61.4-124.5c-8.4-24.8-26-44.9-49.5-56.5C171,610.9,154.8,607.5,140,607.5
						z"/>
				</g>
				<g>
					<path class="st4" d="M139.7,780.5c-31,0-60-19.5-70.5-50.5c-13.2-38.8,7.7-81.2,46.5-94.3c38.8-13.2,82.5,7.7,95.7,46.5l0,0
						c13.2,38.8-7.7,81.2-46.5,94.3C157,779.3,147.6,780.5,139.7,780.5z M139.6,640.9c-6.9,0-14,1.1-20.9,3.5
						c-34.1,11.6-52.4,48.7-40.8,82.7c11.6,34.1,50,52.4,84.1,40.8c34.1-11.6,52.4-48.7,40.8-82.7
						C193.6,658,166.8,640.9,139.6,640.9z"/>
				</g>
				<g>
					<polygon class="st4" points="161,743.8 147.3,697.8 126.8,709.3 					"/>
				</g>
				<g>
					<polygon class="st11" points="114.6,663.5 126.9,709.6 147.5,698.1 					"/>
				</g>
				<g>
					<path class="st4" d="M93.8,676.3c-0.8,0-1.7-0.3-2.4-0.8l-10.3-7.6c-1.8-1.3-2.2-3.9-0.8-5.7s3.9-2.2,5.7-0.8l10.3,7.6
						c1.8,1.3,2.2,3.9,0.8,5.7C96.3,675.7,95,676.3,93.8,676.3z"/>
				</g>
				<g>
					<path class="st4" d="M197.1,751.7c-0.8,0-1.7-0.3-2.4-0.8l-10.3-7.6c-1.8-1.3-2.2-3.9-0.8-5.7c1.3-1.8,3.9-2.2,5.7-0.8
						l10.3,7.6c1.8,1.3,2.2,3.9,0.8,5.7C199.6,751.2,198.3,751.7,197.1,751.7z"/>
				</g>
				<g>
					<path class="st4" d="M174.9,664.4c-0.8,0-1.7-0.3-2.4-0.8c-1.8-1.3-2.2-3.9-0.8-5.7l7.6-10.3c1.3-1.8,3.9-2.2,5.7-0.8
						c1.8,1.3,2.2,3.9,0.8,5.7l-7.6,10.3C177.4,663.8,176.2,664.4,174.9,664.4z"/>
				</g>
				<g>
					<path class="st4" d="M98.1,766.3c-0.8,0-1.7-0.3-2.4-0.8c-1.8-1.3-2.2-3.9-0.8-5.7l7.6-10.3c1.3-1.8,3.9-2.2,5.7-0.8
						c1.8,1.3,2.2,3.9,0.8,5.7l-7.6,10.3C100.6,765.7,99.3,766.3,98.1,766.3z"/>
				</g>
				<g>
					<path class="st4" d="M88.5,621.3c-1.9,0-3.7-1.2-4.3-3.1c-4.3-12.8-3-24.6,3.8-32.2c5.1-5.8,12.7-8.4,20.3-6.9
						c10,2,18.3,10.5,22.6,23.3c0.8,2.4-0.5,5-2.9,5.8c-2.4,0.8-5-0.5-5.8-2.9c-3.3-9.6-9-15.9-15.7-17.3c-4.4-0.9-8.7,0.6-11.7,4
						c-4.5,5.2-5.2,13.6-2,23.3c0.8,2.4-0.5,5-2.9,5.8C89.4,621.3,89,621.3,88.5,621.3z"/>
				</g>
			</g>
			<g class="st12">
				<g class="st13">
					<path class="st10" d="M560.1,731.7H473c-5.8,0-10.5,4.7-10.5,10.5v12.9h108.1v-12.9C570.6,736.4,565.9,731.7,560.1,731.7z"/>
				</g>
				<g class="st14">
					<g>
						<rect x="462.5" y="745.8" class="st4" width="108.1" height="9.3"/>
					</g>
				</g>
				<g class="st15">
					<g>
						<path class="st1" d="M570.6,742.2v7.2c0-5.8-4.7-10.5-10.5-10.5H473c-5.8,0-10.5,4.7-10.5,10.5v-7.2c0-5.8,4.7-10.5,10.5-10.5
							h87.1C565.9,731.7,570.6,736.4,570.6,742.2z"/>
					</g>
				</g>
				<g class="st13">
					<path class="st10" d="M551,705.8h-68.9c-3.3,0-6,2.7-6,6v19.9H557v-19.9C557,708.5,554.3,705.8,551,705.8z"/>
				</g>
				<g class="st14">
					<g>
						<rect x="476.1" y="720.2" class="st4" width="80.8" height="11.5"/>
					</g>
				</g>
				<g class="st15">
					<g>
						<path class="st1" d="M557,711.8v7c0-3.3-2.7-6-6-6h-68.9c-3.3,0-6,2.7-6,6v-7c0-3.3,2.7-6,6-6H551
							C554.3,705.8,557,708.5,557,711.8z"/>
					</g>
				</g>
				<g class="st16">
					<path class="st8" d="M545.7,691.5h-59.6c-8.8-5.3-13.5-13.5-15.3-23c-4.5-23.5,8.1-55.3,18.8-73.9h52.6
						c3.8,6.7,7.9,15,11.4,24.1c0,0,0,0,0,0C563.7,645.2,568.4,677.8,545.7,691.5z"/>
					<path class="st4" d="M545.9,692.2h-60l-0.2-0.1c-8.4-5.1-13.6-13-15.7-23.5c-4.4-22.9,7.4-54.4,18.9-74.4l0.2-0.4h53.5l0.2,0.4
						c3,5.1,7.3,13.5,11.4,24.2l0,0.2c7.9,20.9,17.3,58.1-8.3,73.6L545.9,692.2z M486.4,690.7h59.1c24.5-15,15.2-51.4,7.4-71.8
						l0-0.2c-3.9-10.3-8.1-18.4-11.1-23.5h-51.7c-11.3,19.8-22.8,50.6-18.5,73C473.5,678.4,478.5,685.9,486.4,690.7z"/>
				</g>
				<g class="st13">
					<rect x="486.2" y="691.5" class="st10" width="59.1" height="14.4"/>
				</g>
				<g class="st13">
					<path class="st10" d="M538.1,581.2h-44.7c-4,0-7.2,3.2-7.2,7.2v0c0,4,3.2,7.2,7.2,7.2h44.7c4,0,7.2-3.2,7.2-7.2v0
						C545.3,584.4,542,581.2,538.1,581.2z"/>
				</g>
				<g class="st13">
					<path class="st10" d="M545.4,581.2h-58.8c-4.6,0-8.3-3.7-8.3-8.3v-12.2c0-4.6,3.7-8.3,8.3-8.3h58.8c4.6,0,8.3,3.7,8.3,8.3V573
						C553.6,577.5,549.9,581.2,545.4,581.2z"/>
				</g>
				<g class="st14">
					<g>
						<path class="st4" d="M553.6,567.2v5.7c0,4.6-3.7,8.3-8.3,8.3h-58.8c-4.6,0-8.3-3.7-8.3-8.3v-12.2c0-1.3,0.3-2.5,0.8-3.6v6.5
							c0,4.6,3.7,8.3,8.3,8.3h58.8C549.5,571.9,552.3,570,553.6,567.2z"/>
					</g>
				</g>
				<g class="st15">
					<g>
						<path class="st1" d="M553.6,562.2v7.2c0-4.6-3.7-8.3-8.3-8.3h-58.8c-4.6,0-8.3,3.7-8.3,8.3v-7.2c0-4.6,3.7-8.3,8.3-8.3h58.8
							C549.9,554,553.6,557.6,553.6,562.2z"/>
					</g>
				</g>
				<g class="st13">
					<g>
						<defs>
							<path id="SVGID_1_" d="M508.1,691.5c-19.7-18.2,7.1-36.4,5.9-54.8c12.3,10.4,27.3,34.8,11.1,54.8"/>
						</defs>
						<clipPath id="SVGID_00000166669148395048234150000015296952033760291254_">
							<use xlink:href="#SVGID_1_"  style="overflow:visible;"/>
						</clipPath>
						
							<rect x="488.4" y="636.7" style="clip-path:url(#SVGID_00000166669148395048234150000015296952033760291254_);fill:#EC1C24;" width="12.5" height="54.8"/>
						
							<rect x="500.9" y="636.7" style="clip-path:url(#SVGID_00000166669148395048234150000015296952033760291254_);fill:#EC1C24;" width="0.2" height="54.8"/>
						
							<rect x="501.1" y="636.7" style="clip-path:url(#SVGID_00000166669148395048234150000015296952033760291254_);fill:#EC1C24;" width="0.2" height="54.8"/>
						
							<rect x="501.2" y="636.7" style="clip-path:url(#SVGID_00000166669148395048234150000015296952033760291254_);fill:#EC1C24;" width="0.2" height="54.8"/>
						
							<rect x="501.4" y="636.7" style="clip-path:url(#SVGID_00000166669148395048234150000015296952033760291254_);fill:#EC1C24;" width="0.2" height="54.8"/>
						
							<rect x="501.6" y="636.7" style="clip-path:url(#SVGID_00000166669148395048234150000015296952033760291254_);fill:#EC1C24;" width="0.2" height="54.8"/>
						
							<rect x="501.8" y="636.7" style="clip-path:url(#SVGID_00000166669148395048234150000015296952033760291254_);fill:#EC1C24;" width="0.2" height="54.8"/>
						
							<rect x="502" y="636.7" style="clip-path:url(#SVGID_00000166669148395048234150000015296952033760291254_);fill:#EC1D24;" width="0.2" height="54.8"/>
						
							<rect x="502.1" y="636.7" style="clip-path:url(#SVGID_00000166669148395048234150000015296952033760291254_);fill:#EC1D24;" width="0.2" height="54.8"/>
						
							<rect x="502.3" y="636.7" style="clip-path:url(#SVGID_00000166669148395048234150000015296952033760291254_);fill:#EC1D24;" width="0.2" height="54.8"/>
						
							<rect x="502.5" y="636.7" style="clip-path:url(#SVGID_00000166669148395048234150000015296952033760291254_);fill:#EC1D24;" width="0.2" height="54.8"/>
						
							<rect x="502.7" y="636.7" style="clip-path:url(#SVGID_00000166669148395048234150000015296952033760291254_);fill:#EC1D24;" width="0.2" height="54.8"/>
						
							<rect x="502.9" y="636.7" style="clip-path:url(#SVGID_00000166669148395048234150000015296952033760291254_);fill:#EC1E24;" width="0.2" height="54.8"/>
						
							<rect x="503" y="636.7" style="clip-path:url(#SVGID_00000166669148395048234150000015296952033760291254_);fill:#EC1E24;" width="0.2" height="54.8"/>
						
							<rect x="503.2" y="636.7" style="clip-path:url(#SVGID_00000166669148395048234150000015296952033760291254_);fill:#EC1E24;" width="0.2" height="54.8"/>
						
							<rect x="503.4" y="636.7" style="clip-path:url(#SVGID_00000166669148395048234150000015296952033760291254_);fill:#EC1F24;" width="0.2" height="54.8"/>
						
							<rect x="503.6" y="636.7" style="clip-path:url(#SVGID_00000166669148395048234150000015296952033760291254_);fill:#EC1F24;" width="0.2" height="54.8"/>
						
							<rect x="503.8" y="636.7" style="clip-path:url(#SVGID_00000166669148395048234150000015296952033760291254_);fill:#EC1F24;" width="0.2" height="54.8"/>
						
							<rect x="503.9" y="636.7" style="clip-path:url(#SVGID_00000166669148395048234150000015296952033760291254_);fill:#EC2024;" width="0.2" height="54.8"/>
						
							<rect x="504.1" y="636.7" style="clip-path:url(#SVGID_00000166669148395048234150000015296952033760291254_);fill:#EC2024;" width="0.2" height="54.8"/>
						
							<rect x="504.3" y="636.7" style="clip-path:url(#SVGID_00000166669148395048234150000015296952033760291254_);fill:#EC2024;" width="0.2" height="54.8"/>
						
							<rect x="504.5" y="636.7" style="clip-path:url(#SVGID_00000166669148395048234150000015296952033760291254_);fill:#ED2124;" width="0.2" height="54.8"/>
						
							<rect x="504.7" y="636.7" style="clip-path:url(#SVGID_00000166669148395048234150000015296952033760291254_);fill:#ED2124;" width="0.2" height="54.8"/>
						
							<rect x="504.8" y="636.7" style="clip-path:url(#SVGID_00000166669148395048234150000015296952033760291254_);fill:#ED2124;" width="0.2" height="54.8"/>
						
							<rect x="505" y="636.7" style="clip-path:url(#SVGID_00000166669148395048234150000015296952033760291254_);fill:#ED2224;" width="0.2" height="54.8"/>
						
							<rect x="505.2" y="636.7" style="clip-path:url(#SVGID_00000166669148395048234150000015296952033760291254_);fill:#ED2224;" width="0.2" height="54.8"/>
						
							<rect x="505.4" y="636.7" style="clip-path:url(#SVGID_00000166669148395048234150000015296952033760291254_);fill:#ED2324;" width="0.2" height="54.8"/>
						
							<rect x="505.6" y="636.7" style="clip-path:url(#SVGID_00000166669148395048234150000015296952033760291254_);fill:#ED2324;" width="0.2" height="54.8"/>
						
							<rect x="505.7" y="636.7" style="clip-path:url(#SVGID_00000166669148395048234150000015296952033760291254_);fill:#ED2424;" width="0.2" height="54.8"/>
						
							<rect x="505.9" y="636.7" style="clip-path:url(#SVGID_00000166669148395048234150000015296952033760291254_);fill:#ED2424;" width="0.2" height="54.8"/>
						
							<rect x="506.1" y="636.7" style="clip-path:url(#SVGID_00000166669148395048234150000015296952033760291254_);fill:#ED2524;" width="0.2" height="54.8"/>
						
							<rect x="506.3" y="636.7" style="clip-path:url(#SVGID_00000166669148395048234150000015296952033760291254_);fill:#ED2524;" width="0.2" height="54.8"/>
						
							<rect x="506.5" y="636.7" style="clip-path:url(#SVGID_00000166669148395048234150000015296952033760291254_);fill:#ED2624;" width="0.2" height="54.8"/>
						
							<rect x="506.6" y="636.7" style="clip-path:url(#SVGID_00000166669148395048234150000015296952033760291254_);fill:#ED2624;" width="0.2" height="54.8"/>
						
							<rect x="506.8" y="636.7" style="clip-path:url(#SVGID_00000166669148395048234150000015296952033760291254_);fill:#ED2724;" width="0.2" height="54.8"/>
						
							<rect x="507" y="636.7" style="clip-path:url(#SVGID_00000166669148395048234150000015296952033760291254_);fill:#ED2724;" width="0.2" height="54.8"/>
						
							<rect x="507.2" y="636.7" style="clip-path:url(#SVGID_00000166669148395048234150000015296952033760291254_);fill:#ED2824;" width="0.2" height="54.8"/>
						
							<rect x="507.4" y="636.7" style="clip-path:url(#SVGID_00000166669148395048234150000015296952033760291254_);fill:#ED2824;" width="0.2" height="54.8"/>
						
							<rect x="507.5" y="636.7" style="clip-path:url(#SVGID_00000166669148395048234150000015296952033760291254_);fill:#ED2924;" width="0.2" height="54.8"/>
						
							<rect x="507.7" y="636.7" style="clip-path:url(#SVGID_00000166669148395048234150000015296952033760291254_);fill:#ED2A24;" width="0.2" height="54.8"/>
						
							<rect x="507.9" y="636.7" style="clip-path:url(#SVGID_00000166669148395048234150000015296952033760291254_);fill:#EE2A24;" width="0.2" height="54.8"/>
						
							<rect x="508.1" y="636.7" style="clip-path:url(#SVGID_00000166669148395048234150000015296952033760291254_);fill:#EE2B24;" width="0.2" height="54.8"/>
						
							<rect x="508.3" y="636.7" style="clip-path:url(#SVGID_00000166669148395048234150000015296952033760291254_);fill:#EE2B24;" width="0.2" height="54.8"/>
						
							<rect x="508.4" y="636.7" style="clip-path:url(#SVGID_00000166669148395048234150000015296952033760291254_);fill:#EE2C24;" width="0.2" height="54.8"/>
						
							<rect x="508.6" y="636.7" style="clip-path:url(#SVGID_00000166669148395048234150000015296952033760291254_);fill:#EE2D24;" width="0.2" height="54.8"/>
						
							<rect x="508.8" y="636.7" style="clip-path:url(#SVGID_00000166669148395048234150000015296952033760291254_);fill:#EE2D24;" width="0.2" height="54.8"/>
						
							<rect x="509" y="636.7" style="clip-path:url(#SVGID_00000166669148395048234150000015296952033760291254_);fill:#EE2E24;" width="0.2" height="54.8"/>
						
							<rect x="509.2" y="636.7" style="clip-path:url(#SVGID_00000166669148395048234150000015296952033760291254_);fill:#EE2F24;" width="0.2" height="54.8"/>
						
							<rect x="509.3" y="636.7" style="clip-path:url(#SVGID_00000166669148395048234150000015296952033760291254_);fill:#EE2F24;" width="0.2" height="54.8"/>
						
							<rect x="509.5" y="636.7" style="clip-path:url(#SVGID_00000166669148395048234150000015296952033760291254_);fill:#EE3024;" width="0.2" height="54.8"/>
						
							<rect x="509.7" y="636.7" style="clip-path:url(#SVGID_00000166669148395048234150000015296952033760291254_);fill:#EE3124;" width="0.2" height="54.8"/>
						
							<rect x="509.9" y="636.7" style="clip-path:url(#SVGID_00000166669148395048234150000015296952033760291254_);fill:#EE3224;" width="0.2" height="54.8"/>
						
							<rect x="510.1" y="636.7" style="clip-path:url(#SVGID_00000166669148395048234150000015296952033760291254_);fill:#EE3225;" width="0.2" height="54.8"/>
						
							<rect x="510.2" y="636.7" style="clip-path:url(#SVGID_00000166669148395048234150000015296952033760291254_);fill:#EF3325;" width="0.2" height="54.8"/>
						
							<rect x="510.4" y="636.7" style="clip-path:url(#SVGID_00000166669148395048234150000015296952033760291254_);fill:#EF3425;" width="0.2" height="54.8"/>
						
							<rect x="510.6" y="636.7" style="clip-path:url(#SVGID_00000166669148395048234150000015296952033760291254_);fill:#EF3525;" width="0.2" height="54.8"/>
						
							<rect x="510.8" y="636.7" style="clip-path:url(#SVGID_00000166669148395048234150000015296952033760291254_);fill:#EF3525;" width="0.2" height="54.8"/>
						
							<rect x="511" y="636.7" style="clip-path:url(#SVGID_00000166669148395048234150000015296952033760291254_);fill:#EF3625;" width="0.2" height="54.8"/>
						
							<rect x="511.2" y="636.7" style="clip-path:url(#SVGID_00000166669148395048234150000015296952033760291254_);fill:#EF3725;" width="0.2" height="54.8"/>
						
							<rect x="511.3" y="636.7" style="clip-path:url(#SVGID_00000166669148395048234150000015296952033760291254_);fill:#EF3825;" width="0.2" height="54.8"/>
						
							<rect x="511.5" y="636.7" style="clip-path:url(#SVGID_00000166669148395048234150000015296952033760291254_);fill:#EF3925;" width="0.2" height="54.8"/>
						
							<rect x="511.7" y="636.7" style="clip-path:url(#SVGID_00000166669148395048234150000015296952033760291254_);fill:#EF3925;" width="0.2" height="54.8"/>
						
							<rect x="511.9" y="636.7" style="clip-path:url(#SVGID_00000166669148395048234150000015296952033760291254_);fill:#EF3A25;" width="0.2" height="54.8"/>
						
							<rect x="512.1" y="636.7" style="clip-path:url(#SVGID_00000166669148395048234150000015296952033760291254_);fill:#EF3B25;" width="0.2" height="54.8"/>
						
							<rect x="512.2" y="636.7" style="clip-path:url(#SVGID_00000166669148395048234150000015296952033760291254_);fill:#EF3C25;" width="0.2" height="54.8"/>
						
							<rect x="512.4" y="636.7" style="clip-path:url(#SVGID_00000166669148395048234150000015296952033760291254_);fill:#F03D25;" width="0.2" height="54.8"/>
						
							<rect x="512.6" y="636.7" style="clip-path:url(#SVGID_00000166669148395048234150000015296952033760291254_);fill:#F03E25;" width="0.2" height="54.8"/>
						
							<rect x="512.8" y="636.7" style="clip-path:url(#SVGID_00000166669148395048234150000015296952033760291254_);fill:#F03E25;" width="0.2" height="54.8"/>
						
							<rect x="513" y="636.7" style="clip-path:url(#SVGID_00000166669148395048234150000015296952033760291254_);fill:#F03F25;" width="0.2" height="54.8"/>
						
							<rect x="513.1" y="636.7" style="clip-path:url(#SVGID_00000166669148395048234150000015296952033760291254_);fill:#F04025;" width="0.2" height="54.8"/>
						
							<rect x="513.3" y="636.7" style="clip-path:url(#SVGID_00000166669148395048234150000015296952033760291254_);fill:#F04125;" width="0.2" height="54.8"/>
						
							<rect x="513.5" y="636.7" style="clip-path:url(#SVGID_00000166669148395048234150000015296952033760291254_);fill:#F04225;" width="0.2" height="54.8"/>
						
							<rect x="513.7" y="636.7" style="clip-path:url(#SVGID_00000166669148395048234150000015296952033760291254_);fill:#F04325;" width="0.2" height="54.8"/>
						
							<rect x="513.9" y="636.7" style="clip-path:url(#SVGID_00000166669148395048234150000015296952033760291254_);fill:#F04425;" width="0.2" height="54.8"/>
						
							<rect x="514" y="636.7" style="clip-path:url(#SVGID_00000166669148395048234150000015296952033760291254_);fill:#F04525;" width="0.2" height="54.8"/>
						
							<rect x="514.2" y="636.7" style="clip-path:url(#SVGID_00000166669148395048234150000015296952033760291254_);fill:#F14625;" width="0.2" height="54.8"/>
						
							<rect x="514.4" y="636.7" style="clip-path:url(#SVGID_00000166669148395048234150000015296952033760291254_);fill:#F14725;" width="0.2" height="54.8"/>
						
							<rect x="514.6" y="636.7" style="clip-path:url(#SVGID_00000166669148395048234150000015296952033760291254_);fill:#F14825;" width="0.2" height="54.8"/>
						
							<rect x="514.8" y="636.7" style="clip-path:url(#SVGID_00000166669148395048234150000015296952033760291254_);fill:#F14925;" width="0.2" height="54.8"/>
						
							<rect x="514.9" y="636.7" style="clip-path:url(#SVGID_00000166669148395048234150000015296952033760291254_);fill:#F14A25;" width="0.2" height="54.8"/>
						
							<rect x="515.1" y="636.7" style="clip-path:url(#SVGID_00000166669148395048234150000015296952033760291254_);fill:#F14B25;" width="0.2" height="54.8"/>
						
							<rect x="515.3" y="636.7" style="clip-path:url(#SVGID_00000166669148395048234150000015296952033760291254_);fill:#F14C25;" width="0.2" height="54.8"/>
						
							<rect x="515.5" y="636.7" style="clip-path:url(#SVGID_00000166669148395048234150000015296952033760291254_);fill:#F14D25;" width="0.2" height="54.8"/>
						
							<rect x="515.7" y="636.7" style="clip-path:url(#SVGID_00000166669148395048234150000015296952033760291254_);fill:#F14E25;" width="0.2" height="54.8"/>
						
							<rect x="515.8" y="636.7" style="clip-path:url(#SVGID_00000166669148395048234150000015296952033760291254_);fill:#F24F25;" width="0.2" height="54.8"/>
						
							<rect x="516" y="636.7" style="clip-path:url(#SVGID_00000166669148395048234150000015296952033760291254_);fill:#F25025;" width="0.2" height="54.8"/>
						
							<rect x="516.2" y="636.7" style="clip-path:url(#SVGID_00000166669148395048234150000015296952033760291254_);fill:#F25125;" width="0.2" height="54.8"/>
						
							<rect x="516.4" y="636.7" style="clip-path:url(#SVGID_00000166669148395048234150000015296952033760291254_);fill:#F25225;" width="0.2" height="54.8"/>
						
							<rect x="516.6" y="636.7" style="clip-path:url(#SVGID_00000166669148395048234150000015296952033760291254_);fill:#F25325;" width="0.2" height="54.8"/>
						
							<rect x="516.7" y="636.7" style="clip-path:url(#SVGID_00000166669148395048234150000015296952033760291254_);fill:#F25425;" width="0.2" height="54.8"/>
						
							<rect x="516.9" y="636.7" style="clip-path:url(#SVGID_00000166669148395048234150000015296952033760291254_);fill:#F25525;" width="0.2" height="54.8"/>
						
							<rect x="517.1" y="636.7" style="clip-path:url(#SVGID_00000166669148395048234150000015296952033760291254_);fill:#F25625;" width="0.2" height="54.8"/>
						
							<rect x="517.3" y="636.7" style="clip-path:url(#SVGID_00000166669148395048234150000015296952033760291254_);fill:#F25725;" width="0.2" height="54.8"/>
						
							<rect x="517.5" y="636.7" style="clip-path:url(#SVGID_00000166669148395048234150000015296952033760291254_);fill:#F35825;" width="0.2" height="54.8"/>
						
							<rect x="517.6" y="636.7" style="clip-path:url(#SVGID_00000166669148395048234150000015296952033760291254_);fill:#F35925;" width="0.2" height="54.8"/>
						
							<rect x="517.8" y="636.7" style="clip-path:url(#SVGID_00000166669148395048234150000015296952033760291254_);fill:#F35A25;" width="0.2" height="54.8"/>
						
							<rect x="518" y="636.7" style="clip-path:url(#SVGID_00000166669148395048234150000015296952033760291254_);fill:#F35C25;" width="0.2" height="54.8"/>
						
							<rect x="518.2" y="636.7" style="clip-path:url(#SVGID_00000166669148395048234150000015296952033760291254_);fill:#F35D25;" width="0.2" height="54.8"/>
						
							<rect x="518.4" y="636.7" style="clip-path:url(#SVGID_00000166669148395048234150000015296952033760291254_);fill:#F35E26;" width="0.2" height="54.8"/>
						
							<rect x="518.5" y="636.7" style="clip-path:url(#SVGID_00000166669148395048234150000015296952033760291254_);fill:#F35F26;" width="0.2" height="54.8"/>
						
							<rect x="518.7" y="636.7" style="clip-path:url(#SVGID_00000166669148395048234150000015296952033760291254_);fill:#F36026;" width="0.2" height="54.8"/>
						
							<rect x="518.9" y="636.7" style="clip-path:url(#SVGID_00000166669148395048234150000015296952033760291254_);fill:#F46126;" width="0.2" height="54.8"/>
						
							<rect x="519.1" y="636.7" style="clip-path:url(#SVGID_00000166669148395048234150000015296952033760291254_);fill:#F46226;" width="0.2" height="54.8"/>
						
							<rect x="519.3" y="636.7" style="clip-path:url(#SVGID_00000166669148395048234150000015296952033760291254_);fill:#F46426;" width="0.2" height="54.8"/>
						
							<rect x="519.4" y="636.7" style="clip-path:url(#SVGID_00000166669148395048234150000015296952033760291254_);fill:#F46526;" width="0.2" height="54.8"/>
						
							<rect x="519.6" y="636.7" style="clip-path:url(#SVGID_00000166669148395048234150000015296952033760291254_);fill:#F46626;" width="0.2" height="54.8"/>
						
							<rect x="519.8" y="636.7" style="clip-path:url(#SVGID_00000166669148395048234150000015296952033760291254_);fill:#F46726;" width="0.2" height="54.8"/>
						
							<rect x="520" y="636.7" style="clip-path:url(#SVGID_00000166669148395048234150000015296952033760291254_);fill:#F46826;" width="0.2" height="54.8"/>
						
							<rect x="520.2" y="636.7" style="clip-path:url(#SVGID_00000166669148395048234150000015296952033760291254_);fill:#F46A26;" width="0.2" height="54.8"/>
						
							<rect x="520.3" y="636.7" style="clip-path:url(#SVGID_00000166669148395048234150000015296952033760291254_);fill:#F56B26;" width="0.2" height="54.8"/>
						
							<rect x="520.5" y="636.7" style="clip-path:url(#SVGID_00000166669148395048234150000015296952033760291254_);fill:#F56C26;" width="0.2" height="54.8"/>
						
							<rect x="520.7" y="636.7" style="clip-path:url(#SVGID_00000166669148395048234150000015296952033760291254_);fill:#F56D26;" width="0.2" height="54.8"/>
						
							<rect x="520.9" y="636.7" style="clip-path:url(#SVGID_00000166669148395048234150000015296952033760291254_);fill:#F56F26;" width="0.2" height="54.8"/>
						
							<rect x="521.1" y="636.7" style="clip-path:url(#SVGID_00000166669148395048234150000015296952033760291254_);fill:#F57026;" width="0.2" height="54.8"/>
						
							<rect x="521.2" y="636.7" style="clip-path:url(#SVGID_00000166669148395048234150000015296952033760291254_);fill:#F57126;" width="0.2" height="54.8"/>
						
							<rect x="521.4" y="636.7" style="clip-path:url(#SVGID_00000166669148395048234150000015296952033760291254_);fill:#F57226;" width="0.2" height="54.8"/>
						
							<rect x="521.6" y="636.7" style="clip-path:url(#SVGID_00000166669148395048234150000015296952033760291254_);fill:#F67426;" width="0.2" height="54.8"/>
						
							<rect x="521.8" y="636.7" style="clip-path:url(#SVGID_00000166669148395048234150000015296952033760291254_);fill:#F67526;" width="0.2" height="54.8"/>
						
							<rect x="522" y="636.7" style="clip-path:url(#SVGID_00000166669148395048234150000015296952033760291254_);fill:#F67626;" width="0.2" height="54.8"/>
						
							<rect x="522.1" y="636.7" style="clip-path:url(#SVGID_00000166669148395048234150000015296952033760291254_);fill:#F67726;" width="0.2" height="54.8"/>
						
							<rect x="522.3" y="636.7" style="clip-path:url(#SVGID_00000166669148395048234150000015296952033760291254_);fill:#F67926;" width="0.2" height="54.8"/>
						
							<rect x="522.5" y="636.7" style="clip-path:url(#SVGID_00000166669148395048234150000015296952033760291254_);fill:#F67A26;" width="0.2" height="54.8"/>
						
							<rect x="522.7" y="636.7" style="clip-path:url(#SVGID_00000166669148395048234150000015296952033760291254_);fill:#F67B26;" width="0.2" height="54.8"/>
						
							<rect x="522.9" y="636.7" style="clip-path:url(#SVGID_00000166669148395048234150000015296952033760291254_);fill:#F77D26;" width="0.2" height="54.8"/>
						
							<rect x="523" y="636.7" style="clip-path:url(#SVGID_00000166669148395048234150000015296952033760291254_);fill:#F77E26;" width="0.2" height="54.8"/>
						
							<rect x="523.2" y="636.7" style="clip-path:url(#SVGID_00000166669148395048234150000015296952033760291254_);fill:#F77F26;" width="0.2" height="54.8"/>
						
							<rect x="523.4" y="636.7" style="clip-path:url(#SVGID_00000166669148395048234150000015296952033760291254_);fill:#F78126;" width="0.2" height="54.8"/>
						
							<rect x="523.6" y="636.7" style="clip-path:url(#SVGID_00000166669148395048234150000015296952033760291254_);fill:#F78226;" width="0.2" height="54.8"/>
						
							<rect x="523.8" y="636.7" style="clip-path:url(#SVGID_00000166669148395048234150000015296952033760291254_);fill:#F78426;" width="0.2" height="54.8"/>
						
							<rect x="523.9" y="636.7" style="clip-path:url(#SVGID_00000166669148395048234150000015296952033760291254_);fill:#F78526;" width="0.2" height="54.8"/>
						
							<rect x="524.1" y="636.7" style="clip-path:url(#SVGID_00000166669148395048234150000015296952033760291254_);fill:#F88626;" width="0.2" height="54.8"/>
						
							<rect x="524.3" y="636.7" style="clip-path:url(#SVGID_00000166669148395048234150000015296952033760291254_);fill:#F88826;" width="0.2" height="54.8"/>
						
							<rect x="524.5" y="636.7" style="clip-path:url(#SVGID_00000166669148395048234150000015296952033760291254_);fill:#F88927;" width="0.2" height="54.8"/>
						
							<rect x="524.7" y="636.7" style="clip-path:url(#SVGID_00000166669148395048234150000015296952033760291254_);fill:#F88A27;" width="0.2" height="54.8"/>
						
							<rect x="524.9" y="636.7" style="clip-path:url(#SVGID_00000166669148395048234150000015296952033760291254_);fill:#F88C27;" width="0.2" height="54.8"/>
						
							<rect x="525" y="636.7" style="clip-path:url(#SVGID_00000166669148395048234150000015296952033760291254_);fill:#F88D27;" width="0.2" height="54.8"/>
						
							<rect x="525.2" y="636.7" style="clip-path:url(#SVGID_00000166669148395048234150000015296952033760291254_);fill:#F98F27;" width="0.2" height="54.8"/>
						
							<rect x="525.4" y="636.7" style="clip-path:url(#SVGID_00000166669148395048234150000015296952033760291254_);fill:#F99027;" width="0.2" height="54.8"/>
						
							<rect x="525.6" y="636.7" style="clip-path:url(#SVGID_00000166669148395048234150000015296952033760291254_);fill:#F99227;" width="0.2" height="54.8"/>
						
							<rect x="525.8" y="636.7" style="clip-path:url(#SVGID_00000166669148395048234150000015296952033760291254_);fill:#F99327;" width="0.2" height="54.8"/>
						
							<rect x="525.9" y="636.7" style="clip-path:url(#SVGID_00000166669148395048234150000015296952033760291254_);fill:#F99427;" width="0.2" height="54.8"/>
						
							<rect x="526.1" y="636.7" style="clip-path:url(#SVGID_00000166669148395048234150000015296952033760291254_);fill:#F99627;" width="0.2" height="54.8"/>
						
							<rect x="526.3" y="636.7" style="clip-path:url(#SVGID_00000166669148395048234150000015296952033760291254_);fill:#F99727;" width="0.2" height="54.8"/>
						
							<rect x="526.5" y="636.7" style="clip-path:url(#SVGID_00000166669148395048234150000015296952033760291254_);fill:#FA9927;" width="0.2" height="54.8"/>
						
							<rect x="526.7" y="636.7" style="clip-path:url(#SVGID_00000166669148395048234150000015296952033760291254_);fill:#FA9A27;" width="0.2" height="54.8"/>
						
							<rect x="526.8" y="636.7" style="clip-path:url(#SVGID_00000166669148395048234150000015296952033760291254_);fill:#FA9C27;" width="0.2" height="54.8"/>
						
							<rect x="527" y="636.7" style="clip-path:url(#SVGID_00000166669148395048234150000015296952033760291254_);fill:#FA9D27;" width="0.2" height="54.8"/>
						
							<rect x="527.2" y="636.7" style="clip-path:url(#SVGID_00000166669148395048234150000015296952033760291254_);fill:#FA9F27;" width="0.2" height="54.8"/>
						
							<rect x="527.4" y="636.7" style="clip-path:url(#SVGID_00000166669148395048234150000015296952033760291254_);fill:#FAA027;" width="0.2" height="54.8"/>
						
							<rect x="527.6" y="636.7" style="clip-path:url(#SVGID_00000166669148395048234150000015296952033760291254_);fill:#FBA227;" width="0.2" height="54.8"/>
						
							<rect x="527.7" y="636.7" style="clip-path:url(#SVGID_00000166669148395048234150000015296952033760291254_);fill:#FBA327;" width="0.2" height="54.8"/>
						
							<rect x="527.9" y="636.7" style="clip-path:url(#SVGID_00000166669148395048234150000015296952033760291254_);fill:#FBA527;" width="0.2" height="54.8"/>
						
							<rect x="528.1" y="636.7" style="clip-path:url(#SVGID_00000166669148395048234150000015296952033760291254_);fill:#FBA627;" width="0.2" height="54.8"/>
						
							<rect x="528.3" y="636.7" style="clip-path:url(#SVGID_00000166669148395048234150000015296952033760291254_);fill:#FBA827;" width="0.2" height="54.8"/>
						
							<rect x="528.5" y="636.7" style="clip-path:url(#SVGID_00000166669148395048234150000015296952033760291254_);fill:#FBAA27;" width="0.2" height="54.8"/>
						
							<rect x="528.6" y="636.7" style="clip-path:url(#SVGID_00000166669148395048234150000015296952033760291254_);fill:#FCAB27;" width="0.2" height="54.8"/>
						
							<rect x="528.8" y="636.7" style="clip-path:url(#SVGID_00000166669148395048234150000015296952033760291254_);fill:#FCAD27;" width="0.2" height="54.8"/>
						
							<rect x="529" y="636.7" style="clip-path:url(#SVGID_00000166669148395048234150000015296952033760291254_);fill:#FCAE27;" width="0.2" height="54.8"/>
						
							<rect x="529.2" y="636.7" style="clip-path:url(#SVGID_00000166669148395048234150000015296952033760291254_);fill:#FCB027;" width="0.2" height="54.8"/>
						
							<rect x="529.4" y="636.7" style="clip-path:url(#SVGID_00000166669148395048234150000015296952033760291254_);fill:#FCB127;" width="0.2" height="54.8"/>
						
							<rect x="529.5" y="636.7" style="clip-path:url(#SVGID_00000166669148395048234150000015296952033760291254_);fill:#FCB327;" width="0.2" height="54.8"/>
						
							<rect x="529.7" y="636.7" style="clip-path:url(#SVGID_00000166669148395048234150000015296952033760291254_);fill:#FDB528;" width="0.2" height="54.8"/>
						
							<rect x="529.9" y="636.7" style="clip-path:url(#SVGID_00000166669148395048234150000015296952033760291254_);fill:#FDB628;" width="0.2" height="54.8"/>
						
							<rect x="530.1" y="636.7" style="clip-path:url(#SVGID_00000166669148395048234150000015296952033760291254_);fill:#FDB828;" width="0.2" height="54.8"/>
						
							<rect x="530.3" y="636.7" style="clip-path:url(#SVGID_00000166669148395048234150000015296952033760291254_);fill:#FDB928;" width="0.2" height="54.8"/>
						
							<rect x="530.4" y="636.7" style="clip-path:url(#SVGID_00000166669148395048234150000015296952033760291254_);fill:#FDBB28;" width="0.2" height="54.8"/>
						
							<rect x="530.6" y="636.7" style="clip-path:url(#SVGID_00000166669148395048234150000015296952033760291254_);fill:#FEBD28;" width="0.2" height="54.8"/>
						
							<rect x="530.8" y="636.7" style="clip-path:url(#SVGID_00000166669148395048234150000015296952033760291254_);fill:#FEBE28;" width="0.2" height="54.8"/>
						
							<rect x="531" y="636.7" style="clip-path:url(#SVGID_00000166669148395048234150000015296952033760291254_);fill:#FEC028;" width="0.2" height="54.8"/>
						
							<rect x="531.2" y="636.7" style="clip-path:url(#SVGID_00000166669148395048234150000015296952033760291254_);fill:#FEC228;" width="0.2" height="54.8"/>
						
							<rect x="531.3" y="636.7" style="clip-path:url(#SVGID_00000166669148395048234150000015296952033760291254_);fill:#FEC328;" width="0.2" height="54.8"/>
						
							<rect x="531.5" y="636.7" style="clip-path:url(#SVGID_00000166669148395048234150000015296952033760291254_);fill:#FEC528;" width="0.2" height="54.8"/>
						
							<rect x="531.7" y="636.7" style="clip-path:url(#SVGID_00000166669148395048234150000015296952033760291254_);fill:#FFC728;" width="0.2" height="54.8"/>
						
							<rect x="531.9" y="636.7" style="clip-path:url(#SVGID_00000166669148395048234150000015296952033760291254_);fill:#FFC828;" width="0.2" height="54.8"/>
						
							<rect x="532.1" y="636.7" style="clip-path:url(#SVGID_00000166669148395048234150000015296952033760291254_);fill:#FFCA28;" width="0.2" height="54.8"/>
						
							<rect x="532.2" y="636.7" style="clip-path:url(#SVGID_00000166669148395048234150000015296952033760291254_);fill:#FFCA28;" width="9.1" height="54.8"/>
					</g>
				</g>
				<g class="st13">
					<path class="st161" d="M514.6,689.5c-4.2-7.6-1.5-16.8,3-23.1c2.2,4,7.2,13.5,0.7,23.1"/>
				</g>
				<g class="st13">
					<path class="st4" d="M570.6,759.1H462.5c-2.2,0-4-1.8-4-4v-12.9c0-8,6.5-14.5,14.5-14.5h87.1c8,0,14.5,6.5,14.5,14.5v12.9
						C574.6,757.3,572.8,759.1,570.6,759.1z M466.5,751.1h100.2v-8.9c0-3.6-2.9-6.6-6.6-6.6H473c-3.6,0-6.6,2.9-6.6,6.6V751.1z"/>
				</g>
				<g class="st13">
					<path class="st4" d="M557,735.6h-80.8c-2.2,0-4-1.8-4-4v-19.9c0-5.5,4.5-9.9,9.9-9.9H551c5.5,0,9.9,4.5,9.9,9.9v19.9
						C560.9,733.9,559.2,735.6,557,735.6z M480.1,727.7H553v-15.9c0-1.1-0.9-2-2-2h-68.9c-1.1,0-2,0.9-2,2V727.7z"/>
				</g>
				<g class="st13">
					<path class="st4" d="M545.3,709.8h-59.1c-2.2,0-4-1.8-4-4v-14.4c0-2.2,1.8-4,4-4h59.1c2.2,0,4,1.8,4,4v14.4
						C549.2,708,547.4,709.8,545.3,709.8z M490.1,701.9h51.1v-6.4h-51.1V701.9z"/>
				</g>
				<g class="st13">
					<path class="st4" d="M538.1,599.5h-44.7c-6.1,0-11.1-5-11.1-11.1c0-6.1,5-11.1,11.1-11.1h44.7c6.1,0,11.1,5,11.1,11.1
						C549.2,594.5,544.2,599.5,538.1,599.5z M493.4,585.2c-1.8,0-3.2,1.4-3.2,3.2c0,1.8,1.4,3.2,3.2,3.2h44.7c1.8,0,3.2-1.4,3.2-3.2
						c0-1.8-1.4-3.2-3.2-3.2H493.4z"/>
				</g>
				<g class="st13">
					<path class="st4" d="M545.4,585.2h-58.8c-6.7,0-12.2-5.5-12.2-12.2v-12.2c0-6.7,5.5-12.2,12.2-12.2h58.8
						c6.7,0,12.2,5.5,12.2,12.2V573C557.6,579.7,552.1,585.2,545.4,585.2z M486.5,556.5c-2.4,0-4.3,1.9-4.3,4.3V573
						c0,2.4,1.9,4.3,4.3,4.3h58.8c2.4,0,4.3-1.9,4.3-4.3v-12.2c0-2.4-1.9-4.3-4.3-4.3H486.5z"/>
				</g>
				<g class="st13">
					<path class="st4" d="M524.6,552.5h-18.7v-9.3c0-5.2,4.2-9.3,9.3-9.3l0,0c5.2,0,9.3,4.2,9.3,9.3V552.5z"/>
				</g>
				<g class="st13">
					<path class="st4" d="M516,547.2c-16.7,0-30.3-13.6-30.3-30.3c0-16.7,13.6-30.3,30.3-30.3c16.7,0,30.3,13.6,30.3,30.3
						C546.2,533.6,532.6,547.2,516,547.2z M516,494.5c-12.3,0-22.3,10-22.3,22.3c0,12.3,10,22.3,22.3,22.3c12.3,0,22.3-10,22.3-22.3
						C538.3,504.6,528.3,494.5,516,494.5z"/>
				</g>
				<g class="st13">
					<path class="st4" d="M476.1,722.7c-10.3,0-20-4.4-26.8-12.2c-6.7-7.7-9.8-18-8.5-28.1l13.9-102.7c1.3-9.6,9.6-16.8,19.2-16.8
						h4.2c2.2,0,4,1.8,4,4s-1.8,4-4,4h-4.2c-5.7,0-10.6,4.3-11.4,9.9l-13.9,102.7c-1.1,7.9,1.3,15.9,6.6,21.9
						c5.2,6,12.8,9.4,20.8,9.4c2.2,0,4,1.8,4,4S478.3,722.7,476.1,722.7z"/>
				</g>
				<g class="st13">
					<path class="st4" d="M557,722.7c-2.2,0-4-1.8-4-4s1.8-4,4-4c7.7,0,14.8-3.2,19.8-8.9c5.2-6,7.6-14.2,6.5-22.4l-13.9-102.7
						c-0.8-5.7-5.7-9.9-11.4-9.9h-4.2c-2.2,0-4-1.8-4-4c0-2.2,1.8-4,4-4h4.2c9.7,0,17.9,7.2,19.2,16.8l13.9,102.7
						c1.4,10.5-1.6,21-8.4,28.7C576.2,718.6,567,722.7,557,722.7z"/>
				</g>
				<g class="st13">
					<path class="st4" d="M486.2,695.5c-0.7,0-1.4-0.2-2-0.6c-33.2-20-14.3-73.8,2.1-102.3c1.1-1.9,3.5-2.6,5.4-1.5
						c1.9,1.1,2.6,3.5,1.5,5.4c-13.9,24.3-32.9,74.7-4.9,91.6c1.9,1.1,2.5,3.6,1.3,5.4C488.8,694.8,487.5,695.5,486.2,695.5z"/>
				</g>
				<g class="st13">
					<path class="st4" d="M545.7,695.5c-1.3,0-2.7-0.7-3.4-1.9c-1.1-1.9-0.5-4.3,1.3-5.4c28-16.9,9.1-67.3-4.9-91.6
						c-1.1-1.9-0.4-4.3,1.5-5.4c1.9-1.1,4.3-0.4,5.4,1.5c16.4,28.6,35.3,82.3,2.1,102.3C547.1,695.3,546.4,695.5,545.7,695.5z"/>
				</g>
				<g class="st13">
					<path class="st4" d="M525.2,695.5c-0.9,0-1.8-0.3-2.5-0.9c-1.7-1.4-2-3.9-0.6-5.6c11.9-14.7,4.5-32.7-5.1-43.8
						c-1.3,4.8-3.7,9.5-6,14c-6.3,12.4-9.8,20.5-0.2,29.4c1.6,1.5,1.7,4,0.2,5.6c-1.5,1.6-4,1.7-5.6,0.2
						c-14.5-13.4-7.3-27.5-1.5-38.8c3.4-6.6,6.6-12.8,6.2-18.7c-0.1-1.6,0.8-3.1,2.2-3.8c1.4-0.7,3.1-0.5,4.3,0.5
						c13.9,11.7,29.3,38.4,11.7,60.4C527.5,695,526.3,695.5,525.2,695.5z"/>
				</g>
				<g class="st14">
					<g>
						<path class="st4" d="M545.7,691.5h-59.6c-8.8-5.3-13.5-13.5-15.3-23c22.1,21,89,2,82.8-49.8
							C563.7,645.2,568.4,677.8,545.7,691.5z"/>
					</g>
				</g>
				<g class="st15">
					<g>
						<path class="st1" d="M497.9,618.6c3.5,1,1.1,7.2-1.2,15.5c-2.3,8.3-3.6,15.4-7.1,14.5c-3.5-1-4.5-8.5-2.2-16.7
							C489.7,623.6,494.4,617.7,497.9,618.6z"/>
					</g>
				</g>
				<g class="st15">
					<g>
						<path class="st1" d="M511.9,606.5c1.5,2.3-1.4,4-4.9,6.2c-3.5,2.2-6.2,4.1-7.7,1.7c-1.5-2.3,0.1-6,3.6-8.2
							C506.4,604,510.4,604.2,511.9,606.5z"/>
					</g>
				</g>
			</g>
		</g>
	</g>
</g>
</svg>
