<?xml version="1.0" encoding="utf-8"?>
<!-- Generator: Adobe Illustrator 28.4.1, SVG Export Plug-In . SVG Version: 6.00 Build 0)  -->
<svg version="1.1" xmlns="http://www.w3.org/2000/svg" xmlns:xlink="http://www.w3.org/1999/xlink" x="0px" y="0px"
	 viewBox="0 0 214.9 146.5" style="enable-background:new 0 0 214.9 146.5;" xml:space="preserve">
<style type="text/css">
	.st0{fill:#532116;}
	.st1{fill:#3F180E;}
	.st2{fill:#7F67A5;}
	.st3{fill:#8F473B;}
	.st4{fill:#C8A6EB;}
	.st5{fill-rule:evenodd;clip-rule:evenodd;fill:#A883D1;}
	.st6{fill:none;stroke:#7F67A5;stroke-width:2;stroke-linecap:round;}
	.st7{fill:#D18D5E;}
	.st8{fill:none;stroke:#8F473B;stroke-width:2;}
	.st9{fill-rule:evenodd;clip-rule:evenodd;fill:#3F180E;}
	.st10{fill:#34365D;}
	.st11{fill:#201E2E;}
	.st12{fill:#FFC619;}
	.st13{opacity:0.4;fill-rule:evenodd;clip-rule:evenodd;fill:#A883D1;enable-background:new    ;}
	.st14{fill-rule:evenodd;clip-rule:evenodd;fill:#FFFFFF;}
	.st15{fill:#F3B700;}
	.st16{fill:#FFFFFF;}
	.st17{fill:#E5C7FF;}
	.st18{opacity:0.6;fill-rule:evenodd;clip-rule:evenodd;enable-background:new    ;}
	.st19{opacity:0.3;fill-rule:evenodd;clip-rule:evenodd;fill:#190A06;enable-background:new    ;}
	.st20{fill:#FFFFFF;filter:url(#Adobe_OpacityMaskFilter);}
	
		.st21{mask:url(#path-216-inside-1_464_1715_00000007416671514554211300000014566328702588980668_);fill:none;stroke:#FFC619;stroke-width:4;}
	.st22{fill:#BB98E1;}
	.st23{opacity:0.23;fill:#FFFFFF;enable-background:new    ;}
	.st24{fill:none;stroke:#A883D1;stroke-width:2;stroke-linecap:round;}
	.st25{fill:#77382C;}
	.st26{fill:#562721;}
	.st27{fill:#29CC7A;}
</style>
<g id="Layer_3">
</g>
<g id="Layer_2">
	<g>
		<path class="st0" d="M49.3,21.1h21.6c4.1,0,7.4,3.3,7.4,7.4v59.6c0,4.1-3.3,7.4-7.4,7.4H49.3c-4.1,0-7.4-3.3-7.4-7.4V28.5
			C41.9,24.4,45.2,21.1,49.3,21.1z"/>
		<path class="st0" d="M42,29.7h2c4.1,0,7.4,3.3,7.4,7.4v19.6c0,4.1-3.3,7.4-7.4,7.4h-2c-4.1,0-7.4-3.3-7.4-7.4V37.1
			C34.6,33,37.9,29.7,42,29.7z"/>
		<path class="st0" d="M41.4,66.4h2c4.1,0,7.4,3.3,7.4,7.4v2.7c0,4.1-3.3,7.4-7.4,7.4h-2c-4.1,0-7.4-3.3-7.4-7.4v-2.7
			C34,69.7,37.3,66.4,41.4,66.4z"/>
		<path class="st1" d="M66.2,21.1h31.4c4.1,0,7.4,3.3,7.4,7.4v59.6c0,4.1-3.3,7.4-7.4,7.4H66.2c-4.1,0-7.4-3.3-7.4-7.4V28.5
			C58.8,24.4,62.1,21.1,66.2,21.1z"/>
		<path class="st1" d="M47,25.4c0-2.4,1.9-4.3,4.3-4.3h10l-3.6,0.1c-2.3,0.1-4.2,2-4.2,4.3v19.8l-3.2,2.5L47,45.3V25.4z"/>
		<rect x="46.8" y="38" class="st0" width="7.7" height="1.9"/>
		<rect x="46.8" y="32.7" class="st0" width="7.7" height="1.9"/>
		<circle cx="50.1" cy="26.5" r="0.6"/>
		<circle cx="50.1" cy="30.4" r="0.6"/>
		<circle cx="50.2" cy="36.5" r="0.6"/>
		<path class="st2" d="M87.2,131.5L87.2,131.5c1.7-0.8,3.7-0.1,4.5,1.5l2.5,5c0.8,1.7,0.1,3.7-1.5,4.5h0c-1.7,0.8-3.7,0.1-4.5-1.5
			l-2.5-5C84.9,134.3,85.5,132.3,87.2,131.5z"/>
		<path class="st2" d="M92.9,130.7L92.9,130.7c1.7-0.8,3.7-0.1,4.5,1.5l2.5,5c0.8,1.7,0.1,3.7-1.5,4.5h0c-1.7,0.8-3.7,0.1-4.5-1.5
			l-2.5-5C90.6,133.6,91.3,131.6,92.9,130.7z"/>
		<path class="st3" d="M57.5,1.5c0,0,43,0,43.4,0c0.1,0,0.3,0,0.5,0c1.2,0.2,6,2.7,6,3.9c0,4.7,0,14.6,0,15.7H57.5V1.5z"/>
		<path class="st4" d="M127.4,73.5c4.3-4.6,4.6-9.8,3.3-16c-1.5-7.6-8.7-12.6-16.4-12.6c-9.5,0-17.1,7.7-17.1,17.1v71.8
			c0,2.4-1.9,4.3-4.3,4.3h-4.5v-0.9c0-2.2-1.7-3.9-3.9-3.9c-2.2,0-3.9,1.7-3.9,3.9v2.5c0,3.5,2.8,6.3,6.2,6.3l24.2,0.1
			c3.5,0,7.1-1.3,8.6-4.5c2.9-6.6,1.5-15.7-1.6-27.9c13.6-6.9,14.8-26,4.9-36.4L127.4,73.5z"/>
		<path class="st5" d="M125.8,74.9c3.3-5.1,3.6-11,2.6-17.3c-1.1-7.3-7.7-12.2-15-12.6c-9,0.5-16.2,8-16.2,17.1v71.8
			c0,2.4-1.9,4.3-4.3,4.3H91c0,0,0,0,0,0h-2.6v-0.9c0-2.1-1.7-3.9-3.9-3.9c-2.1,0-3.9,1.8-3.9,3.9v2.5c0,3.5,2.8,6.3,6.2,6.3
			l22.7,0.1c3.4-0.1,6.7-1.4,8.3-4.4c3.4-6.6,3.1-15.5,0-27.8c0.1,0,0.2-0.1,0.3-0.2c0,0,0-0.1,0-0.1c0.3-0.1,0.5-0.3,0.8-0.4
			c8.7-6.2,12.2-25.4,2.6-35.3c0.5-0.2,1-0.3,1.4-0.6c0,0,0,0,0,0L125.8,74.9z"/>
		<path class="st6" d="M102.3,96.6l4.6,2.9c1.8,1.1,4,1,5.7-0.2l2.4-1.8 M115.1,97.6l3.3,1.7 M115.1,97.6l1.1-3.3"/>
		<path class="st1" d="M112.5,83.8c13.6-23.2-0.9-48.3-22.5-38.9l6.2-5.4c28.7-5.3,39.3,25.4,16.4,51.1
			C112,87.5,113.9,86.8,112.5,83.8z"/>
		<circle class="st7" cx="57.8" cy="11.3" r="9.8"/>
		<circle class="st8" cx="57.5" cy="11.3" r="5.6"/>
		<path class="st9" d="M73.4,1.5c5.4,0,9.8,4.4,9.8,9.8c0,5.1-3.9,9.3-8.8,9.8h8.1c2.6-2.4,4.3-5.9,4.3-9.8c0-3.9-1.7-7.4-4.4-9.9
			L73.4,1.5L73.4,1.5z"/>
		<path class="st10" d="M123,136.8l-3.2,1.9c-3.3-4.4-4.7-7.2-6.6-11.9c-0.2-0.6-0.4-1.2-0.5-1.8l-0.3-2c-0.2-1.2-0.9-2.3-2-2.9
			c-0.7-0.4-1.2-0.9-1.6-1.6l-2.9-5.4l-32.2-2.7v18.5l-9.1,3l3.4,12.8l15.8-6.3c1.2-0.5,2.1-1.5,2.4-2.7l3.9-16.6l7.1,6
			c0.7,0.6,1.3,1.5,1.6,2.4l0.1,0.3c0.4,1.5,1.6,2.7,3.2,3.1c0.9,0.3,1.8,0.8,2.4,1.6l10.5,13.4l5.1-6L123,136.8z"/>
		<path class="st11" d="M91.7,115.6l-1.8,3.5l2.7,2.3L91.7,115.6z"/>
		<path class="st12" d="M121.4,62c0-15.7-12.1-19.6-19-21.7l-12.2-2.9c-15.8-1.1-26.7,2.4-32.8,17.5c-0.9,2.4-1.1,5-0.7,7.5
			l8.1,50.8h41C105.8,85.7,121.4,95.3,121.4,62z"/>
		<path class="st4" d="M95.6,23l0.1,2.8c0.1,4.3-1.9,8.4-5.4,10.9l-4.1,2.9c1.9,5.2,8.4,11.6,18.9,13.8c1.4-5.7,10.1-9.1,17.3-9
			c11.3,0.2,11.4-15.2,8.8-28.2c-1.5-7.8-8.7-12.7-16.7-12.7C103.9,3.5,95.3,12.3,95.6,23z"/>
		<path class="st13" d="M95.7,25.8L95.6,23c-0.2-6.2,2.6-11.8,7.1-15.4c2.9,0.4,6.9,1,9.1,1.4l4.6,5.4c-2.9,0.3-2.9,3.2-2.8,6.1
			c0.1,3,0.1,5.9-3.4,5.5c-6.7-0.7-7.5,8.4-6.6,12.9c0.8,3.7-3.1,6.6-6.1,8.9c-0.8,0.6-1.6,1.2-2.2,1.8c-4.9-2.9-8-6.7-9.2-10.1
			l4.1-2.9C93.8,34.2,95.8,30.1,95.7,25.8z"/>
		<path class="st14" d="M131.8,19c-3.8-0.2-7.2-0.3-12,0.1c-1,0.1-1.8,0.9-1.6,1.9c0.3,1.6,1.1,3,2.3,4.2c1.6,1.6,3.7,2.5,5.9,2.5
			c2.2,0,4.4-0.9,5.9-2.5c0.1-0.1,0.1-0.1,0.2-0.2C132.3,23,132.1,21,131.8,19z"/>
		<circle class="st11" cx="128.6" cy="21.8" r="2.2"/>
		<path class="st1" d="M73.5,108.7h33.1l0.8,6.6H73.5V108.7z"/>
		<path class="st15" d="M96,53.3l-1.4-4L78.8,36.6c-6.3,2.1-9.3,3.5-13.3,6.5L78,71.4l-5.8,37.1h23.3l-9.5-6l1.2-1.4
			c4.9-5.9,8.4-12.8,10.2-20.3C99.5,71.7,99,62.2,96,53.3z"/>
		<path class="st2" d="M109.4,31.2c-0.2-0.3-0.2-0.6,0.1-0.8c0.3-0.2,0.6-0.2,0.8,0.1L109.4,31.2z M132.5,32.1
			c-3.6-0.2-8.7,0.2-13.2,0.4c-2.3,0.1-4.4,0.1-6.1,0c-0.8-0.1-1.6-0.2-2.2-0.4c-0.6-0.2-1.2-0.5-1.5-0.9l0.9-0.7
			c0.1,0.2,0.4,0.3,0.9,0.5c0.5,0.2,1.2,0.3,2,0.3c1.6,0.1,3.7,0.1,5.9,0c4.5-0.2,9.7-0.6,13.4-0.4L132.5,32.1z"/>
		<path class="st16" d="M131.8,19c1.4,1,1.6,4.9,0.7,6C132.1,22.6,131.5,21.4,131.8,19z"/>
		<path class="st2" d="M43,132L43,132c1.7-0.8,3.7-0.1,4.5,1.5l2.5,5c0.8,1.7,0.1,3.7-1.5,4.5h0c-1.7,0.8-3.7,0.1-4.5-1.5l-2.5-5
			C40.7,134.9,41.4,132.9,43,132z"/>
		<path class="st2" d="M48.7,131.3L48.7,131.3c1.7-0.8,3.7-0.1,4.5,1.5l2.5,5c0.8,1.7,0.1,3.7-1.5,4.5h0c-1.7,0.8-3.7,0.1-4.5-1.5
			l-2.5-5C46.4,134.2,47.1,132.1,48.7,131.3z"/>
		<path class="st17" d="M85.7,71.2c2-4.3,2.3-8.6,1.6-13.4c-1.1-7.6-8.3-12.7-16-12.7c-9.5,0-17.1,7.7-17.1,17.1v71.8
			c0,2.4-1.9,4.3-4.3,4.3h-4.5v-0.9c0-2.2-1.7-3.9-3.9-3.9c-2.2,0-3.9,1.7-3.9,3.9v2.5c0,3.4,2.7,6.2,6.2,6.3l24.3,0.4
			c3.6,0.1,7.3-1.3,8.7-4.5c2.9-6.7,1.4-16-1.7-28.2c13.6-6.9,14.8-26,4.9-36.4l2.3-2C83.6,74.3,84.9,72.9,85.7,71.2z"/>
		<path class="st4" d="M83.4,57.8c0.7,4.8,0.4,9-1.6,13.4c-0.8,1.7-2.1,3.2-3.5,4.4l-2.3,2c10,10.3,8.7,29.5-4.9,36.4
			c3.1,12.2,4.6,21.5,1.7,28.2c-1.2,2.9-4.2,4.2-7.4,4.5l-21.7-0.3c-3.4-0.1-6.2-2.8-6.2-6.3v-2.5c0-2.2,1.7-3.9,3.9-3.9
			c2.2,0,3.9,1.7,3.9,3.9v0.9h4.5c2.4,0,4.3-1.9,4.3-4.3v-32.5c0-2-1.5-3.7-2.8-5.3c-0.8-1-1.4-2.6-1.2-4.9c0.1-1.2,0.4-2.2,0.7-2.9
			c1-2.2,3.2-4.4,3.2-6.8V62.3c0-8.8,6.6-16.1,15.2-17C76.3,46,82.4,50.8,83.4,57.8z"/>
		<path class="st4" d="M107,137.2H96.2c-2.5,0-4.5,2-4.5,4.5c0,2.5,2,4.5,4.5,4.5H107h7.4l0.8-6.1l-4.4-3.3L107,137.2z"/>
		<path class="st1" d="M112.4,124.1l-10.6,7l2.7,2.4c0.4,0.4,0.6,0.9,0.6,1.4c0,0.7,0.4,1.4,1,1.7l0.4,0.2c0.4,0.2,0.7,0.5,0.9,0.8
			l5,7.3c0.9,1.3,2.8,1.5,4,0.4l9.3-8.7c0.6-0.6,0.6-1.5,0.1-2.2c-0.4-0.4-0.9-0.6-1.4-0.4l-6,1.3l0-0.5c0-0.4-0.4-0.7-0.7-0.7
			c-0.3,0-0.7-0.2-0.7-0.6l-0.3-1.6c-0.1-0.5-0.3-0.9-0.6-1.2l-0.5-0.5c-0.4-0.4-0.7-0.9-0.9-1.4L112.4,124.1z"/>
		<path class="st18" d="M116.7,133.2c-1.5,1.5-2.2,2.6-3.3,4.4c0.1-0.1,0.2-0.2,0.3-0.3c1.3-1.3,2.1-2.1,3.7-3.1
			c-0.3,0-0.5-0.2-0.6-0.5L116.7,133.2z"/>
		<path class="st19" d="M105.2,134.6c1.8-0.5,2.7-1,4.1-2.3c-1.8,0.7-2.9,1-4.8,1.1C104.8,133.7,105.1,134.1,105.2,134.6z"/>
		<defs>
			<filter id="Adobe_OpacityMaskFilter" filterUnits="userSpaceOnUse" x="87.3" y="108" width="9.2" height="8">
				<feColorMatrix  type="matrix" values="1 0 0 0 0  0 1 0 0 0  0 0 1 0 0  0 0 0 1 0"/>
			</filter>
		</defs>
		
			<mask maskUnits="userSpaceOnUse" x="87.3" y="108" width="9.2" height="8" id="path-216-inside-1_464_1715_00000007416671514554211300000014566328702588980668_">
			<path class="st20" d="M89.7,110h4.4c0.2,0,0.4,0.2,0.4,0.4v3.2c0,0.2-0.2,0.4-0.4,0.4h-4.4c-0.2,0-0.4-0.2-0.4-0.4v-3.2
				C89.3,110.2,89.5,110,89.7,110z"/>
		</mask>
		<path class="st21" d="M89.7,110h4.4c0.2,0,0.4,0.2,0.4,0.4v3.2c0,0.2-0.2,0.4-0.4,0.4h-4.4c-0.2,0-0.4-0.2-0.4-0.4v-3.2
			C89.3,110.2,89.5,110,89.7,110z"/>
		<path class="st12" d="M89.8,111.6H92c0.2,0,0.4,0.2,0.4,0.4c0,0.2-0.2,0.4-0.4,0.4h-2.3V111.6z"/>
		<path class="st15" d="M56.2,46.6c3.5-0.1,5.9-1.1,9.3-3.5c5,0.4,15.2,1.2,15.5,1.3c0.3,0.1,5.6,3.4,8.2,5.1l0.7,16.4
			c0,0.4-0.6,0.6-0.8,0.2c-1.1-1.8-3.6-2.2-5.2-0.9l-0.2,0.2c-0.3,0.2-0.7,0.1-0.8-0.3l-1.1-6.2c-0.1-0.6-0.8-0.8-1.2-0.5l-4.7,3.5
			c-0.5,0.4-1.2,0.1-1.2-0.5l-0.8-5.7c-0.1-0.5-0.6-0.8-1.1-0.6l-6.4,3c-0.5,0.2-1.1-0.1-1.1-0.7v-6.1c0-0.5-0.4-0.9-0.9-0.8
			c-4.1,0.6-6.5,0-9-1.9C54.4,48,55.1,46.6,56.2,46.6z"/>
		<path class="st22" d="M92.7,15.8c4.8-6.1,12.2,1.5,14.7,4.5l-5.3,9C90.4,27.5,88.5,21.1,92.7,15.8z"/>
		<path class="st6" d="M93.9,14.6c3.6-2.4,10.8,0,11.8,5.6"/>
		<path class="st2" d="M99.9,17.5c-2.5-2.7-5.7-0.3-6.9,0.9c0.4-0.1,2-0.9,4.3-0.9c1.7,0,4.6,4.7,6.8,6.7
			C103.7,23.3,102.4,20.2,99.9,17.5z"/>
		<path class="st2" d="M96.1,21.3c0.3-1.6,3-2.3,4.3-2.4l0.8,1.1c-0.8,0.1-2.5,0.3-3.2,1c-0.8,0.6-0.5,2.4-0.3,3.3
			C97,23.9,95.8,23,96.1,21.3z"/>
		<path class="st23" d="M93.1,141.6c0-1.6,1.3-2.9,2.9-2.9h2.2v5.9H96C94.4,144.6,93.1,143.3,93.1,141.6z"/>
		<path class="st1" d="M83.8,83.2C97.5,60,84.6,32.3,63,41.7l6.2-5.4c27.1-6,36.9,27,17.1,54.6C85.7,87.9,85.3,86.2,83.8,83.2z"/>
		<path class="st5" d="M80.5,77l-4.6,3l-3-0.3c-0.3,0-0.5,0.2-0.6,0.4c0,0.3,0.2,0.5,0.4,0.6l2.7,0.3L75,83.8c0,0.3,0.1,0.5,0.4,0.6
			c0.3,0,0.5-0.1,0.6-0.4l0.5-3.1l4-2.7c-0.2-0.2-0.4-0.5-0.6-0.7L80.5,77z"/>
		<path class="st24" d="M53.6,100l4.8,2.6c1.8,1,2.9,3,2.7,5l-0.3,3 M60.8,110.6l3.1,2 M60.8,110.6l-2.3,2.6"/>
		<path class="st11" d="M98.3,126.7c-0.3-0.6-0.5-0.9-1-1.4c0,0,5.6-2.4,9-2.7C103.1,124,101.2,124.9,98.3,126.7z"/>
		<path class="st22" d="M107.2,30.6c1.1-0.9,3-1.7,4.3-2.1c0.2-0.1,0.3-0.4,0-0.4c-0.8-0.2-2.1-0.3-3.2,0.2
			c-0.9,0.5-1.4,1.4-1.6,2.1C106.7,30.6,107,30.7,107.2,30.6z"/>
		<path class="st11" d="M121,12.3c2.2,0.9,3.6,0.8,6.2,0c-0.7-3.6-1.7-5.7-2.6-3.7c-0.1-0.8-0.5-2.3-1.3-2.4c-0.8,0-1.2,2.5-1.3,3.8
			c0-0.3-0.1-0.8-0.5-0.9C121.1,9.2,121,11.3,121,12.3z"/>
	</g>
</g>
<g id="Layer_4">
	<path class="st25" d="M163.8,46.1c3.5-2.3,6.8-3.1,12-3.2c-0.9,40.4-0.9,63,0,103.4h-11C162.9,107,163,85.1,163.8,46.1z"/>
	<path class="st0" d="M175.1,81.4v-3.9l-11.9,1.7v4.1h8.5c1,0,2-0.4,2.7-1.2L175.1,81.4z"/>
	<path class="st3" d="M134.2,50.5c0.2-2.1,2.1-3.6,4.2-3.3l6.8,0.8c1,0.1,1.8,0.6,2.5,1.3l0.8,1c0.2,0.2,0.5,0.2,0.7,0.1l0.9-0.7
		c0.8-0.6,1.8-0.9,2.8-0.8l48.3,5.6c1,0.1,2,0.7,2.6,1.5l9.4,12.6c1.2,1.7,0.9,4-0.7,5.3l-11.9,9.1c-0.8,0.6-1.8,0.9-2.7,0.7
		l-13.8-1.6c-0.9-0.1-1.7-0.5-2.3-1.1l-2.8-2.8c-0.4-0.4-0.9-0.4-1.4-0.1l-3.2,2.1c-0.7,0.5-1.6,0.7-2.5,0.6L135,76.4
		c-2.1-0.2-3.6-2.1-3.3-4.2L134.2,50.5z"/>
	<path class="st25" d="M138.3,47.1l1.5,0.1l6.3,0.9l-9.2,1.8l-0.9,4.8l1.8,5.8l-1,5l-3.9,7.4h4.8l10.9,4.8L135,76.4
		c-2.1-0.2-3.6-2.1-3.3-4.2l2.5-21.7C134.4,48.4,136.2,46.9,138.3,47.1z"/>
	<g>
		<path class="st26" d="M151.5,53.3l-0.6,5.5l4.6,0.5l-0.3,2.9l-8.4-0.9l0.9-8.4L151.5,53.3z"/>
		<path class="st26" d="M160.5,63c-1.1-0.1-2-0.4-2.7-0.8s-1.2-1-1.5-1.6c-0.3-0.6-0.4-1.3-0.4-2c0.1-0.7,0.3-1.3,0.8-1.9
			c0.4-0.5,1.1-0.9,1.8-1.1c0.8-0.2,1.7-0.3,2.8-0.2s2,0.4,2.7,0.8c0.7,0.4,1.2,0.9,1.5,1.5c0.3,0.6,0.4,1.3,0.4,2
			c-0.1,0.7-0.3,1.4-0.8,1.9s-1.1,1-1.8,1.2C162.5,63,161.5,63.1,160.5,63z M160.7,60.4c0.4,0,0.7,0,1-0.2c0.2-0.2,0.4-0.5,0.4-0.9
			s0-0.7-0.2-1c-0.2-0.2-0.5-0.4-0.9-0.4c-0.4,0-0.7,0-1,0.2c-0.2,0.2-0.4,0.5-0.4,0.9c0,0.4,0,0.7,0.2,1
			C160,60.2,160.3,60.4,160.7,60.4z"/>
		<path class="st26" d="M172.1,56.8l2.1,0.2l-0.3,2.5l-2.1-0.2l-0.5,4.6l-3.7-0.4l0.5-4.6l-1.9-0.2l0.3-2.5l1.9,0.2l0.1-1.1l3.8-0.1
			L172.1,56.8z"/>
		<path class="st26" d="M180.2,61.2l0.4-3.5l3.7,0.4l-0.8,7.1l-3.7-0.4l0.2-1.6c-0.3,0.6-0.7,1-1.2,1.3c-0.5,0.3-1.1,0.4-1.9,0.3
			c-1-0.1-1.7-0.4-2.1-1s-0.6-1.3-0.5-2.3l0.5-4.3l3.7,0.4l-0.4,3.5c0,0.4,0,0.8,0.1,1c0.1,0.2,0.4,0.4,0.7,0.4
			C179.7,62.5,180.1,62.1,180.2,61.2z"/>
		<path class="st26" d="M188.5,66c-0.8-0.1-1.5-0.3-2.2-0.5c-0.7-0.3-1.3-0.6-1.9-1l0.2-2.2c0.2,0.2,0.6,0.5,1,0.7
			c0.4,0.2,0.9,0.4,1.3,0.5c0.5,0.1,0.9,0.2,1.3,0.3c0.2,0,0.4,0,0.5,0c0.1,0,0.2-0.1,0.2-0.2c0-0.1,0-0.2-0.1-0.2
			c-0.1-0.1-0.2-0.2-0.5-0.2l-1.2-0.4c-0.6-0.2-1.1-0.4-1.4-0.6c-0.3-0.2-0.6-0.5-0.7-0.8c-0.1-0.3-0.2-0.6-0.1-1
			c0.1-0.5,0.3-0.9,0.7-1.2s0.9-0.6,1.5-0.7c0.6-0.1,1.4-0.2,2.2-0.1c0.8,0.1,1.5,0.2,2.1,0.4c0.6,0.2,1.1,0.4,1.4,0.7l-0.2,2.1
			c-0.4-0.2-0.8-0.4-1.3-0.6c-0.5-0.2-1-0.3-1.6-0.4c-0.4,0-0.6,0-0.8,0c-0.2,0-0.2,0.1-0.2,0.2c0,0.1,0,0.2,0.1,0.2
			c0.1,0.1,0.3,0.1,0.5,0.2l1.1,0.3c0.8,0.2,1.4,0.5,1.9,0.8c0.4,0.4,0.6,0.9,0.5,1.7c-0.1,0.7-0.5,1.3-1.2,1.7
			C190.9,66,189.9,66.1,188.5,66z"/>
		<path class="st26" d="M152,74.2c-1.3-0.1-2.4-0.5-3.3-1c-0.9-0.5-1.5-1.2-2-2c-0.4-0.8-0.6-1.7-0.5-2.8l0.6-5.7l4.7,0.5L151,69
			c-0.1,0.5,0,0.8,0.3,1.1s0.6,0.5,1.1,0.5s0.9,0,1.2-0.3s0.5-0.6,0.5-1.1l0.6-5.7l4.7,0.5l-0.6,5.7c-0.1,1-0.5,1.9-1.1,2.6
			s-1.4,1.2-2.3,1.5C154.4,74.3,153.3,74.4,152,74.2z"/>
		<path class="st26" d="M168.9,71l0.6-5.8l4,0.4l-1.1,10.4l-5.7-0.6l-2.4-6.2l-0.6,5.9l-4-0.4l1.1-10.4l5.8,0.6L168.9,71z"/>
		<path class="st26" d="M178.7,76.7l-4.7-0.5l1.1-10.5l4.7,0.5L178.7,76.7z"/>
		<path class="st26" d="M192.6,67.7l-0.4,3.5l-3.5-0.4l-0.7,6.9l-4.7-0.5l0.7-6.9l-3.6-0.4l0.4-3.5L192.6,67.7z"/>
	</g>
	<path class="st27" d="M186.9,51.7l-21.3-2.2c-0.4,0-0.8,0-1.1,0.2c-2.8,1.9-0.4,4.1,3.3,3.5c-0.5,2.2,1.7,2.5,3.9,0.6
		c-0.7,6.8,3.9,8.8,10.7,1.3c1.9,4.1,5.5,3.6,6.2-1.5C188.6,52.6,187.8,51.8,186.9,51.7z"/>
</g>
</svg>
